<svg xmlns="http://www.w3.org/2000/svg"
     xmlns:xlink="http://www.w3.org/1999/xlink"
     x="0"
     y="0"
     width="391.3333333333333"
     height="311.3333333333333">
    <!-- 内联样式 -->
    <style type="text/css">
        .connection {
            stroke: rgb(20, 20, 20);
        }

        .connection-fill {
            fill: rgb(20, 20, 20);
        }

        .char {
            stroke: rgb(0, 0, 0);
            fill: rgb(0, 0, 0);
        }

        @media (prefers-color-scheme: dark) {
            .connection {
                stroke: rgb(200, 200, 200);
            }

            .connection-fill {
                fill: rgb(200, 200, 200);
            }

            .char {
                stroke: rgb(239, 239, 239);
                fill: rgb(239, 239, 239);
            }
        }
    </style>
    <g class="shapes-region"
       style="stroke: black; fill: none;">
        <g class="composite-shape"
           data-amt="diagram/shapes/plot"
           transform="matrix(1,0,0,1,20,10)">
            <g>
                <g />
                <g>
                    <g class="test-xti"
                       style="font-family: Asana-Math, Asana;">
                        <line x1="0"
                              y1="198.39898992048722"
                              x2="346"
                              y2="198.39898992048722"
                              fill="none"
                              class="connection"
                              stroke-opacity="1"
                              stroke-width="1" />
                        <path d="M341,194.79898992048723 L349,198.39898992048722 L341,201.99898992048722 Z"
                              stroke="none"
                              stroke-width="1"
                              class="connection-fill"
                              fill-opacity="1" />
                    </g>
                    <g class="test-yti"
                       style="font-family: Asana-Math, Asana;">
                        <line x1="189.5713291342023"
                              y1="4"
                              x2="189.5713291342023"
                              y2="270"
                              fill="none"
                              class="connection"
                              stroke-opacity="1"
                              stroke-width="1" />
                        <path d="M185.9713291342023,9 L189.5713291342023,1 L193.1713291342023,9 Z"
                              stroke="none"
                              stroke-width="1"
                              class="connection-fill"
                              fill-opacity="1" />
                    </g>
                    <g class="test-plot-expression">
                        <defs>
                            <clipPath id="cpp5434mkl8">
                                <rect x="1"
                                      y="1"
                                      width="348"
                                      height="268" />
                            </clipPath>
                        </defs>
                        <g clip-path="url(#cpp5434mkl8)">
                            <path d=" M1.17,47.62 L0.55,47.00 L0.00,46.45 M2.33,48.79 L1.55,48.00 L1.17,47.62 M3.50,49.95 L2.55,49.00 L2.33,48.79 M4.67,51.13 L4.54,51.00 L3.55,50.00 L3.50,49.95 M5.83,52.30 L5.54,52.00 L4.67,51.13 M7.00,53.47 L6.53,53.00 L5.83,52.30 M8.17,54.65 L7.52,54.00 L7.00,53.47 M9.33,55.83 L8.51,55.00 L8.17,54.65 M10.50,57.01 L10.49,57.00 L9.50,56.00 L9.33,55.83 M11.67,58.19 L11.48,58.00 L10.50,57.01 M12.83,59.38 L12.46,59.00 L11.67,58.19 M14.00,60.57 L13.45,60.00 L12.83,59.38 M15.17,61.76 L14.43,61.00 L14.00,60.57 M16.33,62.95 L15.41,62.00 L15.17,61.76 M17.50,64.14 L17.36,64.00 L16.38,63.00 L16.33,62.95 M18.67,65.34 L18.34,65.00 L17.50,64.14 M19.83,66.54 L19.31,66.00 L18.67,65.34 M21.00,67.74 L20.28,67.00 L19.83,66.54 M22.17,68.95 L21.25,68.00 L21.00,67.74 M23.33,70.16 L23.18,70.00 L22.22,69.00 L22.17,68.95 M24.50,71.37 L24.15,71.00 L23.33,70.16 M25.67,72.58 L25.11,72.00 L24.50,71.37 M26.83,73.80 L26.07,73.00 L25.67,72.58 M28.00,75.02 L27.98,75.00 L27.02,74.00 L26.83,73.80 M29.17,76.25 L28.93,76.00 L28.00,75.02 M30.33,77.47 L29.89,77.00 L29.17,76.25 M31.50,78.70 L30.83,78.00 L30.33,77.47 M32.67,79.94 L31.78,79.00 L31.50,78.70 M33.83,81.18 L33.67,81.00 L32.73,80.00 L32.67,79.94 M35.00,82.42 L34.61,82.00 L33.83,81.18 M36.17,83.66 L35.55,83.00 L35.00,82.42 M37.33,84.91 L36.48,84.00 L36.17,83.66 M38.50,86.17 L38.34,86.00 L37.41,85.00 L37.33,84.91 M39.67,87.43 L39.27,87.00 L38.50,86.17 M40.83,88.69 L40.20,88.00 L39.67,87.43 M42.00,89.96 L41.12,89.00 L40.83,88.69 M43.17,91.23 L42.96,91.00 L42.04,90.00 L42.00,89.96 M44.33,92.51 L43.87,92.00 L43.17,91.23 M45.50,93.79 L44.78,93.00 L44.33,92.51 M46.67,95.08 L46.60,95.00 L45.69,94.00 L45.50,93.79 M47.83,96.37 L47.50,96.00 L46.67,95.08 M49.00,97.67 L48.40,97.00 L47.83,96.37 M50.17,98.98 L49.29,98.00 L49.00,97.67 M51.33,100.29 L51.08,100.00 L50.19,99.00 L50.17,98.98 M52.50,101.61 L51.96,101.00 L51.33,100.29 M53.67,102.93 L52.85,102.00 L52.50,101.61 M54.83,104.27 L54.60,104.00 L53.73,103.00 L53.67,102.93 M56.00,105.61 L55.48,105.00 L54.83,104.27 M57.17,106.95 L56.34,106.00 L56.00,105.61 M58.33,108.31 L58.07,108.00 L57.21,107.00 L57.17,106.95 M59.50,109.67 L58.93,109.00 L58.33,108.31 M60.67,111.04 L60.63,111.00 L59.78,110.00 L59.50,109.67 M61.83,112.43 L61.48,112.00 L60.67,111.04 M63.00,113.82 L62.32,113.00 L61.83,112.43 M64.17,115.22 L63.99,115.00 L63.15,114.00 L63.00,113.82 M65.33,116.63 L64.81,116.00 L64.17,115.22 M66.50,118.06 L66.45,118.00 L65.64,117.00 L65.33,116.63 M67.67,119.49 L67.27,119.00 L66.50,118.06 M68.83,120.94 L68.08,120.00 L67.67,119.49 M70.00,122.40 L69.68,122.00 L68.88,121.00 L68.83,120.94 M71.17,123.88 L70.48,123.00 L70.00,122.40 M72.33,125.37 L72.05,125.00 L71.26,124.00 L71.17,123.88 M73.44,270.00 L73.50,269.92 L74.21,269.00 L74.67,268.40 L74.97,268.00 L75.73,267.00 L75.83,266.86 L76.48,266.00 L77.00,265.30 L77.22,265.00 L77.96,264.00 L78.17,263.72 L78.69,263.00 L79.33,262.11 L79.42,262.00 L80.14,261.00 L80.50,260.49 L80.85,260.00 L81.55,259.00 L81.67,258.83 L82.25,258.00 L82.83,257.15 L82.94,257.00 L83.62,256.00 L84.00,255.44 L84.30,255.00 L84.97,254.00 L85.17,253.70 L85.63,253.00 L86.28,252.00 L86.33,251.92 L86.93,251.00 L87.50,250.10 L87.56,250.00 L88.19,249.00 L88.67,248.23 L88.81,248.00 L89.42,247.00 L89.83,246.31 L90.02,246.00 L90.62,245.00 L91.00,244.34 L91.20,244.00 L91.78,243.00 L92.17,242.30 L92.34,242.00 L92.90,241.00 L93.33,240.20 L93.44,240.00 L93.98,239.00 L94.50,238.00 L94.50,238.00 L95.02,237.00 L95.52,236.00 L95.67,235.71 L96.02,235.00 L96.50,234.00 L96.83,233.30 L96.97,233.00 L97.44,232.00 L97.89,231.00 L98.00,230.74 L98.33,230.00 L98.75,229.00 L99.17,228.00 L99.17,228.00 L99.57,227.00 L99.96,226.00 L100.33,225.02 L100.34,225.00 L100.71,224.00 L101.06,223.00 L101.40,222.00 L101.50,221.70 L101.73,221.00 L102.05,220.00 L102.35,219.00 L102.63,218.00 L102.67,217.88 L102.91,217.00 L103.17,216.00 L103.42,215.00 L103.65,214.00 L103.83,213.18 L103.87,213.00 L104.08,212.00 L104.27,211.00 L104.45,210.00 L104.61,209.00 L104.76,208.00 L104.89,207.00 L105.00,206.11 L105.01,206.00 L105.12,205.00 L105.21,204.00 L105.29,203.00 L105.35,202.00 L105.39,201.00 L105.42,200.00 L105.44,199.00 L105.44,198.00 L105.43,197.00 L105.40,196.00 L105.36,195.00 L105.30,194.00 L105.23,193.00 L105.14,192.00 L105.04,191.00 L105.00,190.69 L104.92,190.00 L104.79,189.00 L104.64,188.00 L104.48,187.00 L104.31,186.00 L104.12,185.00 L103.92,184.00 L103.83,183.62 L103.70,183.00 L103.47,182.00 L103.22,181.00 L102.96,180.00 L102.69,179.00 L102.67,178.91 L102.41,178.00 L102.11,177.00 L101.80,176.00 L101.50,175.10 L101.47,175.00 L101.13,174.00 L100.78,173.00 L100.42,172.00 L100.33,171.78 L100.04,171.00 L99.65,170.00 L99.25,169.00 L99.17,168.80 L98.84,168.00 L98.41,167.00 L98.00,166.06 L97.98,166.00 L97.53,165.00 L97.07,164.00 L96.83,163.50 L96.60,163.00 L96.12,162.00 L95.67,161.09 L95.62,161.00 L95.12,160.00 L94.61,159.00 L94.50,158.80 L94.09,158.00 L93.55,157.00 L93.33,156.60 L93.01,156.00 L92.45,155.00 L92.17,154.49 L91.89,154.00 L91.32,153.00 L91.00,152.46 L90.74,152.00 L90.14,151.00 L89.83,150.49 L89.54,150.00 L88.93,149.00 L88.67,148.57 L88.32,148.00 L87.69,147.00 L87.50,146.70 L87.06,146.00 L86.41,145.00 L86.33,144.88 L85.76,144.00 L85.17,143.10 L85.10,143.00 L84.44,142.00 L84.00,141.36 L83.76,141.00 L83.08,140.00 L82.83,139.65 L82.39,139.00 L81.69,138.00 L81.67,137.96 L80.99,137.00 L80.50,136.31 L80.28,136.00 L79.56,135.00 L79.33,134.68 L78.84,134.00 L78.17,133.08 L78.11,133.00 L77.37,132.00 L77.00,131.50 L76.63,131.00 L75.88,130.00 L75.83,129.94 L75.13,129.00 L74.67,128.40 L74.36,128.00 L73.60,127.00 L73.50,126.87 L72.83,126.00 L72.33,125.37 M274.13,206.00 L274.17,206.32 L274.25,207.00 L274.38,208.00 L274.53,209.00 L274.69,210.00 L274.87,211.00 L275.06,212.00 L275.27,213.00 L275.33,213.29 L275.49,214.00 L275.72,215.00 L275.97,216.00 L276.23,217.00 L276.50,217.97 L276.51,218.00 L276.80,219.00 L277.10,220.00 L277.41,221.00 L277.67,221.77 L277.74,222.00 L278.08,223.00 L278.43,224.00 L278.80,225.00 L278.83,225.08 L279.18,226.00 L279.57,227.00 L279.98,228.00 L280.00,228.06 L280.39,229.00 L280.82,230.00 L281.17,230.79 L281.26,231.00 L281.71,232.00 L282.17,233.00 L282.33,233.35 L282.64,234.00 L283.12,235.00 L283.50,235.76 L283.62,236.00 L284.12,237.00 L284.64,238.00 L284.67,238.05 L285.16,239.00 L285.70,240.00 L285.83,240.24 L286.25,241.00 L286.80,242.00 L287.00,242.35 L287.37,243.00 L287.94,244.00 L288.17,244.38 L288.53,245.00 L289.12,246.00 L289.33,246.35 L289.72,247.00 L290.33,248.00 L290.50,248.27 L290.95,249.00 L291.58,250.00 L291.67,250.13 L292.22,251.00 L292.83,251.95 L292.86,252.00 L293.51,253.00 L294.00,253.73 L294.18,254.00 L294.84,255.00 L295.17,255.48 L295.52,256.00 L296.20,257.00 L296.33,257.19 L296.89,258.00 L297.50,258.87 L297.59,259.00 L298.29,260.00 L298.67,260.52 L299.01,261.00 L299.73,262.00 L299.83,262.15 L300.45,263.00 L301.00,263.75 L301.18,264.00 L301.92,265.00 L302.17,265.33 L302.66,266.00 L303.33,266.89 L303.41,267.00 L304.17,268.00 L304.50,268.43 L304.93,269.00 L305.67,269.95 L305.70,270.00 M274.02,205.00 L274.13,206.00 M273.93,204.00 L274.02,205.00 M273.86,203.00 L273.93,204.00 M273.80,202.00 L273.86,203.00 M273.75,201.00 L273.80,202.00 M273.72,200.00 L273.75,201.00 M273.70,199.00 L273.72,200.00 M273.70,198.00 L273.70,199.00 M273.71,197.00 L273.70,198.00 M273.74,196.00 L273.71,197.00 M273.78,195.00 L273.74,196.00 M273.84,194.00 L273.78,195.00 M273.92,193.00 L273.84,194.00 M274.00,192.00 L273.92,193.00 M274.11,191.00 L274.00,192.00 M274.17,190.48 L274.11,191.00 M274.22,190.00 L274.17,190.48 M274.35,189.00 L274.22,190.00 M274.50,188.00 L274.35,189.00 M274.66,187.00 L274.50,188.00 M274.83,186.00 L274.66,187.00 M275.02,185.00 L274.83,186.00 M275.23,184.00 L275.02,185.00 M275.33,183.51 L275.23,184.00 M275.44,183.00 L275.33,183.51 M275.67,182.00 L275.44,183.00 M275.92,181.00 L275.67,182.00 M276.18,180.00 L275.92,181.00 M276.45,179.00 L276.18,180.00 M276.50,178.83 L276.45,179.00 M276.74,178.00 L276.50,178.83 M277.03,177.00 L276.74,178.00 M277.35,176.00 L277.03,177.00 M277.67,175.02 L277.35,176.00 M277.67,175.00 L277.67,175.02 M278.01,174.00 L277.67,175.00 M278.36,173.00 L278.01,174.00 M278.73,172.00 L278.36,173.00 M278.83,171.72 L278.73,172.00 M279.10,171.00 L278.83,171.72 M279.49,170.00 L279.10,171.00 M279.89,169.00 L279.49,170.00 M280.00,168.74 L279.89,169.00 M280.31,168.00 L280.00,168.74 M280.73,167.00 L280.31,168.00 M281.17,166.00 L280.73,167.00 M281.17,166.00 L281.17,166.00 M281.61,165.00 L281.17,166.00 M282.07,164.00 L281.61,165.00 M282.33,163.45 L282.07,164.00 M282.54,163.00 L282.33,163.45 M283.02,162.00 L282.54,163.00 M283.50,161.04 L283.02,162.00 M283.52,161.00 L283.50,161.04 M284.02,160.00 L283.52,161.00 M284.53,159.00 L284.02,160.00 M284.67,158.75 L284.53,159.00 M285.06,158.00 L284.67,158.75 M285.59,157.00 L285.06,158.00 M285.83,156.56 L285.59,157.00 M286.14,156.00 L285.83,156.56 M286.69,155.00 L286.14,156.00 M287.00,154.45 L286.69,155.00 M287.25,154.00 L287.00,154.45 M287.83,153.00 L287.25,154.00 M288.17,152.42 L287.83,153.00 M288.41,152.00 L288.17,152.42 M289.00,151.00 L288.41,152.00 M289.33,150.45 L289.00,151.00 M289.60,150.00 L289.33,150.45 M290.21,149.00 L289.60,150.00 M290.50,148.53 L290.21,149.00 M290.83,148.00 L290.50,148.53 M291.45,147.00 L290.83,148.00 M291.67,146.67 L291.45,147.00 M292.09,146.00 L291.67,146.67 M292.73,145.00 L292.09,146.00 M292.83,144.84 L292.73,145.00 M293.38,144.00 L292.83,144.84 M294.00,143.06 L293.38,144.00 M294.04,143.00 L294.00,143.06 M294.71,142.00 L294.04,143.00 M295.17,141.32 L294.71,142.00 M295.38,141.00 L295.17,141.32 M296.06,140.00 L295.38,141.00 M296.33,139.61 L296.06,140.00 M296.75,139.00 L296.33,139.61 M297.45,138.00 L296.75,139.00 M297.50,137.93 L297.45,138.00 M298.15,137.00 L297.50,137.93 M298.67,136.28 L298.15,137.00 M298.86,136.00 L298.67,136.28 M299.58,135.00 L298.86,136.00 M299.83,134.65 L299.58,135.00 M300.30,134.00 L299.83,134.65 M301.00,133.05 L300.30,134.00 M301.03,133.00 L301.00,133.05 M301.77,132.00 L301.03,133.00 M302.17,131.47 L301.77,132.00 M302.51,131.00 L302.17,131.47 M303.26,130.00 L302.51,131.00 M303.33,129.91 L303.26,130.00 M304.02,129.00 L303.33,129.91 M304.50,128.37 L304.02,129.00 M304.78,128.00 L304.50,128.37 M305.55,127.00 L304.78,128.00 M305.67,126.84 L305.55,127.00 M306.32,126.00 L305.67,126.84 M306.83,125.34 L306.32,126.00 M307.09,125.00 L306.83,125.34 M307.88,124.00 L307.09,125.00 M308.00,123.85 L307.88,124.00 M308.67,123.00 L308.00,123.85 M309.17,122.37 L308.67,123.00 M309.46,122.00 L309.17,122.37 M310.26,121.00 L309.46,122.00 M310.33,120.91 L310.26,121.00 M311.06,120.00 L310.33,120.91 M311.50,119.46 L311.06,120.00 M311.87,119.00 L311.50,119.46 M312.67,118.03 L311.87,119.00 M312.69,118.00 L312.67,118.03 M313.51,117.00 L312.69,118.00 M313.83,116.60 L313.51,117.00 M314.33,116.00 L313.83,116.60 M315.00,115.19 L314.33,116.00 M315.16,115.00 L315.00,115.19 M315.99,114.00 L315.16,115.00 M316.17,113.79 L315.99,114.00 M316.83,113.00 L316.17,113.79 M317.33,112.40 L316.83,113.00 M317.67,112.00 L317.33,112.40 M318.50,111.02 L317.67,112.00 M318.51,111.00 L318.50,111.02 M319.36,110.00 L318.51,111.00 M319.67,109.64 L319.36,110.00 M320.21,109.00 L319.67,109.64 M320.83,108.28 L320.21,109.00 M321.07,108.00 L320.83,108.28 M321.93,107.00 L321.07,108.00 M322.00,106.92 L321.93,107.00 M322.80,106.00 L322.00,106.92 M323.17,105.58 L322.80,106.00 M323.67,105.00 L323.17,105.58 M324.33,104.24 L323.67,105.00 M324.54,104.00 L324.33,104.24 M325.42,103.00 L324.54,104.00 M325.50,102.91 L325.42,103.00 M326.30,102.00 L325.50,102.91 M326.67,101.58 L326.30,102.00 M327.18,101.00 L326.67,101.58 M327.83,100.26 L327.18,101.00 M328.07,100.00 L327.83,100.26 M328.96,99.00 L328.07,100.00 M329.00,98.95 L328.96,99.00 M329.85,98.00 L329.00,98.95 M330.17,97.65 L329.85,98.00 M330.74,97.00 L330.17,97.65 M331.33,96.35 L330.74,97.00 M331.64,96.00 L331.33,96.35 M332.50,95.05 L331.64,96.00 M332.55,95.00 L332.50,95.05 M333.45,94.00 L332.55,95.00 M333.67,93.76 L333.45,94.00 M334.36,93.00 L333.67,93.76 M334.83,92.48 L334.36,93.00 M335.27,92.00 L334.83,92.48 M336.00,91.20 L335.27,92.00 M336.19,91.00 L336.00,91.20 M337.10,90.00 L336.19,91.00 M337.17,89.93 L337.10,90.00 M338.02,89.00 L337.17,89.93 M338.33,88.66 L338.02,89.00 M338.94,88.00 L338.33,88.66 M339.50,87.40 L338.94,88.00 M339.87,87.00 L339.50,87.40 M340.67,86.14 L339.87,87.00 M340.80,86.00 L340.67,86.14 M341.73,85.00 L340.80,86.00 M341.83,84.89 L341.73,85.00 M342.66,84.00 L341.83,84.89 M343.00,83.64 L342.66,84.00 M343.60,83.00 L343.00,83.64 M344.17,82.39 L343.60,83.00 M344.53,82.00 L344.17,82.39 M345.33,81.15 L344.53,82.00 M345.47,81.00 L345.33,81.15 M346.42,80.00 L345.47,81.00 M346.50,79.91 L346.42,80.00 M347.36,79.00 L346.50,79.91 M347.67,78.68 L347.36,79.00 M348.31,78.00 L347.67,78.68 M348.83,77.45 L348.31,78.00"
                                  style="stroke-width: 2; stroke: rgb(68, 128, 194); stroke-opacity: 1;" />
                            <path d=" M39.08,86.79 L39.13,86.95 L39.18,87.11 L39.24,87.27 L39.29,87.43 L39.35,87.59 L39.40,87.75 L39.45,87.91 L39.51,88.07 L39.56,88.23 L39.61,88.39 L39.67,88.55 L39.72,88.70 L39.78,88.86 L39.83,89.02 L39.88,89.18 L39.94,89.34 L39.99,89.50 L40.04,89.66 L40.10,89.82 L40.15,89.98 L40.21,90.14 L40.26,90.30 L40.31,90.46 L40.37,90.62 L40.42,90.78 L40.48,90.94 L40.53,91.10 L40.58,91.26 L40.64,91.42 L40.69,91.58 L40.74,91.74 L40.80,91.90 L40.85,92.06 L40.91,92.22 L40.96,92.38 L41.01,92.54 L41.07,92.70 L41.12,92.86 L41.18,93.02 L41.23,93.18 L41.28,93.34 L41.34,93.49 L41.39,93.65 L41.44,93.81 L41.50,93.97 L41.55,94.13 L41.61,94.29 L41.66,94.45 L41.71,94.61 L41.77,94.77 L41.82,94.93 L41.87,95.09 L41.93,95.25 L41.98,95.41 L42.04,95.57 L42.09,95.73 L42.14,95.89 L42.20,96.05 L42.25,96.21 L42.31,96.37 L42.36,96.53 L42.41,96.69 L42.47,96.85 L42.52,97.01 L42.57,97.17 L42.63,97.33 L42.68,97.49 L42.74,97.65 L42.79,97.81 L42.84,97.97 L42.90,98.13 L42.95,98.28 L43.01,98.44 L43.06,98.60 L43.11,98.76 L43.17,98.92 L43.22,99.08 L43.27,99.24 L43.33,99.40 L43.38,99.56 L43.44,99.72 L43.49,99.88 L43.54,100.04 L43.60,100.20 L43.65,100.36 L43.70,100.52 L43.76,100.68 L43.81,100.84 L43.87,101.00 L43.92,101.16 L43.97,101.32 L44.03,101.48 L44.08,101.64 L44.14,101.80 L44.19,101.96 L44.24,102.12 L44.30,102.28 L44.35,102.44 L44.40,102.60 L44.46,102.76 L44.51,102.92 L44.57,103.08 L44.62,103.23 L44.67,103.39 L44.73,103.55 L44.78,103.71 L44.84,103.87 L44.89,104.03 L44.94,104.19 L45.00,104.35 L45.05,104.51 L45.10,104.67 L45.16,104.83 L45.21,104.99 L45.27,105.15 L45.32,105.31 L45.37,105.47 L45.43,105.63 L45.48,105.79 L45.54,105.95 L45.59,106.11 L45.64,106.27 L45.70,106.43 L45.75,106.59 L45.80,106.75 L45.86,106.91 L45.91,107.07 L45.97,107.23 L46.02,107.39 L46.07,107.55 L46.13,107.71 L46.18,107.87 L46.23,108.02 L46.29,108.18 L46.34,108.34 L46.40,108.50 L46.45,108.66 L46.50,108.82 L46.56,108.98 L46.61,109.14 L46.67,109.30 L46.72,109.46 L46.77,109.62 L46.83,109.78 L46.88,109.94 L46.93,110.10 L46.99,110.26 L47.04,110.42 L47.10,110.58 L47.15,110.74 L47.20,110.90 L47.26,111.06 L47.31,111.22 L47.37,111.38 L47.42,111.54 L47.47,111.70 L47.53,111.86 L47.58,112.02 L47.63,112.18 L47.69,112.34 L47.74,112.50 L47.80,112.66 L47.85,112.82 L47.90,112.97 L47.96,113.13 L48.01,113.29 L48.06,113.45 L48.12,113.61 L48.17,113.77 L48.23,113.93 L48.28,114.09 L48.33,114.25 L48.39,114.41 L48.44,114.57 L48.50,114.73 L48.55,114.89 L48.60,115.05 L48.66,115.21 L48.71,115.37 L48.76,115.53 L48.82,115.69 L48.87,115.85 L48.93,116.01 L48.98,116.17 L49.03,116.33 L49.09,116.49 L49.14,116.65 L49.20,116.81 L49.25,116.97 L49.30,117.13 L49.36,117.29 L49.41,117.45 L49.46,117.61 L49.52,117.76 L49.57,117.92 L49.63,118.08 L49.68,118.24 L49.73,118.40 L49.79,118.56 L49.84,118.72 L49.89,118.88 L49.95,119.04 L50.00,119.20 L50.06,119.36 L50.11,119.52 L50.16,119.68 L50.22,119.84 L50.27,120.00 L50.33,120.16 L50.38,120.32 L50.43,120.48 L50.49,120.64 L50.54,120.80 L50.59,120.96 L50.65,121.12 L50.70,121.28 L50.76,121.44 L50.81,121.60 L50.86,121.76 L50.92,121.92 L50.97,122.08 L51.03,122.24 L51.08,122.40 L51.13,122.56 L51.19,122.71 L51.24,122.87 L51.29,123.03 L51.35,123.19 L51.40,123.35 L51.46,123.51 L51.51,123.67 L51.56,123.83 L51.62,123.99 L51.67,124.15 L51.72,124.31 L51.78,124.47 L51.83,124.63 L51.89,124.79 L51.94,124.95 L51.99,125.11 L52.05,125.27 L52.10,125.43 L52.16,125.59 L52.21,125.75 L52.26,125.91 L52.32,126.07 L52.37,126.23 L52.42,126.39 L52.48,126.55 L52.53,126.71 L52.59,126.87 L52.64,127.03 L52.69,127.19 L52.75,127.35 L52.80,127.50 L52.86,127.66 L52.91,127.82 L52.96,127.98 L53.02,128.14 L53.07,128.30 L53.12,128.46 L53.18,128.62 L53.23,128.78 L53.29,128.94 L53.34,129.10 L53.39,129.26 L53.45,129.42 L53.50,129.58 L53.55,129.74 L53.61,129.90 L53.66,130.06 L53.72,130.22 L53.77,130.38 L53.82,130.54 L53.88,130.70 L53.93,130.86 L53.99,131.02 L54.04,131.18 L54.09,131.34 L54.15,131.50 L54.20,131.66 L54.25,131.82 L54.31,131.98 L54.36,132.14 L54.42,132.30 L54.47,132.45 L54.52,132.61 L54.58,132.77 L54.63,132.93 L54.69,133.09 L54.74,133.25 L54.79,133.41 L54.85,133.57 L54.90,133.73 L54.95,133.89 L55.01,134.05 L55.06,134.21 L55.12,134.37 L55.17,134.53 L55.22,134.69 L55.28,134.85 L55.33,135.01 L55.39,135.17 L55.44,135.33 L55.49,135.49 L55.55,135.65 L55.60,135.81 L55.65,135.97 L55.71,136.13 L55.76,136.29 L55.82,136.45 L55.87,136.61 L55.92,136.77 L55.98,136.93 L56.03,137.09 L56.08,137.24 L56.14,137.40 L56.19,137.56 L56.25,137.72 L56.30,137.88 L56.35,138.04 L56.41,138.20 L56.46,138.36 L56.52,138.52 L56.57,138.68 L56.62,138.84 L56.68,139.00 L56.73,139.16 L56.78,139.32 L56.84,139.48 L56.89,139.64 L56.95,139.80 L57.00,139.96 L57.05,140.12 L57.11,140.28 L57.16,140.44 L57.22,140.60 L57.27,140.76 L57.32,140.92 L57.38,141.08 L57.43,141.24 L57.48,141.40 L57.54,141.56 L57.59,141.72 L57.65,141.88 L57.70,142.03 L57.75,142.19 L57.81,142.35 L57.86,142.51 L57.91,142.67 L57.97,142.83 L58.02,142.99 L58.08,143.15 L58.13,143.31 L58.18,143.47 L58.24,143.63 L58.29,143.79 L58.35,143.95 L58.40,144.11 L58.45,144.27 L58.51,144.43 L58.56,144.59 L58.61,144.75 L58.67,144.91 L58.72,145.07 L58.78,145.23 L58.83,145.39 L58.88,145.55 L58.94,145.71 L58.99,145.87 L59.05,146.03 L59.10,146.19 L59.15,146.35 L59.21,146.51 L59.26,146.67 L59.31,146.83 L59.37,146.98 L59.42,147.14 L59.48,147.30 L59.53,147.46 L59.58,147.62 L59.64,147.78 L59.69,147.94 L59.74,148.10 L59.80,148.26 L59.85,148.42 L59.91,148.58 L59.96,148.74 L60.01,148.90 L60.07,149.06 L60.12,149.22 L60.18,149.38 L60.23,149.54 L60.28,149.70 L60.34,149.86 L60.39,150.02 L60.44,150.18 L60.50,150.34 L60.55,150.50 L60.61,150.66 L60.66,150.82 L60.71,150.98 L60.77,151.14 L60.82,151.30 L60.88,151.46 L60.93,151.62 L60.98,151.77 L61.04,151.93 L61.09,152.09 L61.14,152.25 L61.20,152.41 L61.25,152.57 L61.31,152.73 L61.36,152.89 L61.41,153.05 L61.47,153.21 L61.52,153.37 L61.57,153.53 L61.63,153.69 L61.68,153.85 L61.74,154.01 L61.79,154.17 L61.84,154.33 L61.90,154.49 L61.95,154.65 L62.01,154.81 L62.06,154.97 L62.11,155.13 L62.17,155.29 L62.22,155.45 L62.27,155.61 L62.33,155.77 L62.38,155.93 L62.44,156.09 L62.49,156.25 L62.54,156.41 L62.60,156.57 L62.65,156.72 L62.71,156.88 L62.76,157.04 L62.81,157.20 L62.87,157.36 L62.92,157.52 L62.97,157.68 L63.03,157.84 L63.08,158.00 L63.14,158.16 L63.19,158.32 L63.24,158.48 L63.30,158.64 L63.35,158.80 L63.40,158.96 L63.46,159.12 L63.51,159.28 L63.57,159.44 L63.62,159.60 L63.67,159.76 L63.73,159.92 L63.78,160.08 L63.84,160.24 L63.89,160.40 L63.94,160.56 L64.00,160.72 L64.05,160.88 L64.10,161.04 L64.16,161.20 L64.21,161.36 L64.27,161.51 L64.32,161.67 L64.37,161.83 L64.43,161.99 L64.48,162.15 L64.54,162.31 L64.59,162.47 L64.64,162.63 L64.70,162.79 L64.75,162.95 L64.80,163.11 L64.86,163.27 L64.91,163.43 L64.97,163.59 L65.02,163.75 L65.07,163.91 L65.13,164.07 L65.18,164.23 L65.24,164.39 L65.29,164.55 L65.34,164.71 L65.40,164.87 L65.45,165.03 L65.50,165.19 L65.56,165.35 L65.61,165.51 L65.67,165.67 L65.72,165.83 L65.77,165.99 L65.83,166.15 L65.88,166.31 L65.93,166.46 L65.99,166.62 L66.04,166.78 L66.10,166.94 L66.15,167.10 L66.20,167.26 L66.26,167.42 L66.31,167.58 L66.37,167.74 L66.42,167.90 L66.47,168.06 L66.53,168.22 L66.58,168.38 L66.63,168.54 L66.69,168.70 L66.74,168.86 L66.80,169.02 L66.85,169.18 L66.90,169.34 L66.96,169.50 L67.01,169.66 L67.07,169.82 L67.12,169.98 L67.17,170.14 L67.23,170.30 L67.28,170.46 L67.33,170.62 L67.39,170.78 L67.44,170.94 L67.50,171.10 L67.55,171.25 L67.60,171.41 L67.66,171.57 L67.71,171.73 L67.76,171.89 L67.82,172.05 L67.87,172.21 L67.93,172.37 L67.98,172.53 L68.03,172.69 L68.09,172.85 L68.14,173.01 L68.20,173.17 L68.25,173.33 L68.30,173.49 L68.36,173.65 L68.41,173.81 L68.46,173.97 L68.52,174.13 L68.57,174.29 L68.63,174.45 L68.68,174.61 L68.73,174.77 L68.79,174.93 L68.84,175.09 L68.90,175.25 L68.95,175.41 L69.00,175.57 L69.06,175.73 L69.11,175.89 L69.16,176.04 L69.22,176.20 L69.27,176.36 L69.33,176.52 L69.38,176.68 L69.43,176.84 L69.49,177.00 L69.54,177.16 L69.59,177.32 L69.65,177.48 L69.70,177.64 L69.76,177.80 L69.81,177.96 L69.86,178.12 L69.92,178.28 L69.97,178.44 L70.03,178.60 L70.08,178.76 L70.13,178.92 L70.19,179.08 L70.24,179.24 L70.29,179.40 L70.35,179.56 L70.40,179.72 L70.46,179.88 L70.51,180.04 L70.56,180.20 L70.62,180.36 L70.67,180.52 L70.73,180.68 L70.78,180.84 L70.83,180.99 L70.89,181.15 L70.94,181.31 L70.99,181.47 L71.05,181.63 L71.10,181.79 L71.16,181.95 L71.21,182.11 L71.26,182.27 L71.32,182.43 L71.37,182.59 L71.42,182.75 L71.48,182.91 L71.53,183.07 L71.59,183.23 L71.64,183.39 L71.69,183.55 L71.75,183.71 L71.80,183.87 L71.86,184.03 L71.91,184.19 L71.96,184.35 L72.02,184.51 L72.07,184.67 L72.12,184.83 L72.18,184.99 L72.23,185.15 L72.29,185.31 L72.34,185.47 L72.39,185.63 L72.45,185.78 L72.50,185.94 L72.56,186.10 L72.61,186.26 L72.66,186.42 L72.72,186.58 L72.77,186.74 L72.82,186.90 L72.88,187.06 L72.93,187.22 L72.99,187.38 L73.04,187.54 L73.09,187.70 L73.15,187.86 L73.20,188.02 L73.26,188.18 L73.31,188.34 L73.36,188.50 L73.42,188.66 L73.47,188.82 L73.52,188.98 L73.58,189.14 L73.63,189.30 L73.69,189.46 L73.74,189.62 L73.79,189.78 L73.85,189.94 L73.90,190.10 L73.95,190.26 L74.01,190.42 L74.06,190.58 L74.12,190.73 L74.17,190.89 L74.22,191.05 L74.28,191.21 L74.33,191.37 L74.39,191.53 L74.44,191.69 L74.49,191.85 L74.55,192.01 L74.60,192.17 L74.65,192.33 L74.71,192.49 L74.76,192.65 L74.82,192.81 L74.87,192.97 L74.92,193.13 L74.98,193.29 L75.03,193.45 L75.09,193.61 L75.14,193.77 L75.19,193.93 L75.25,194.09 L75.30,194.25 L75.35,194.41 L75.41,194.57 L75.46,194.73 L75.52,194.89 L75.57,195.05 L75.62,195.21 L75.68,195.37 L75.73,195.52 L75.78,195.68 L75.84,195.84 L75.89,196.00 L75.95,196.16 L76.00,196.32 L76.05,196.48 L76.11,196.64 L76.16,196.80 L76.22,196.96 L76.27,197.12 L76.32,197.28 L76.38,197.44 L76.43,197.60 L76.48,197.76 L76.54,197.92 L76.59,198.08 L76.65,198.24 L76.70,198.40"
                            class="char"
                                  style="stroke-width: 1;stroke-opacity: 0.8;" />
                            <path d=" M39.08,86.79 L39.45,86.95 L39.83,87.11 L40.21,87.27 L40.58,87.43 L40.96,87.59 L41.34,87.75 L41.71,87.91 L42.09,88.07 L42.47,88.23 L42.84,88.39 L43.22,88.55 L43.60,88.70 L43.97,88.86 L44.35,89.02 L44.73,89.18 L45.10,89.34 L45.48,89.50 L45.86,89.66 L46.23,89.82 L46.61,89.98 L46.99,90.14 L47.37,90.30 L47.74,90.46 L48.12,90.62 L48.50,90.78 L48.87,90.94 L49.25,91.10 L49.63,91.26 L50.00,91.42 L50.38,91.58 L50.76,91.74 L51.13,91.90 L51.51,92.06 L51.89,92.22 L52.26,92.38 L52.64,92.54 L53.02,92.70 L53.39,92.86 L53.77,93.02 L54.15,93.18 L54.52,93.34 L54.90,93.49 L55.28,93.65 L55.65,93.81 L56.03,93.97 L56.41,94.13 L56.78,94.29 L57.16,94.45 L57.54,94.61 L57.91,94.77 L58.29,94.93 L58.67,95.09 L59.05,95.25 L59.42,95.41 L59.80,95.57 L60.18,95.73 L60.55,95.89 L60.93,96.05 L61.31,96.21 L61.68,96.37 L62.06,96.53 L62.44,96.69 L62.81,96.85 L63.19,97.01 L63.57,97.17 L63.94,97.33 L64.32,97.49 L64.70,97.65 L65.07,97.81 L65.45,97.97 L65.83,98.13 L66.20,98.28 L66.58,98.44 L66.96,98.60 L67.33,98.76 L67.71,98.92 L68.09,99.08 L68.46,99.24 L68.84,99.40 L69.22,99.56 L69.59,99.72 L69.97,99.88 L70.35,100.04 L70.73,100.20 L71.10,100.36 L71.48,100.52 L71.86,100.68 L72.23,100.84 L72.61,101.00 L72.99,101.16 L73.36,101.32 L73.74,101.48 L74.12,101.64 L74.49,101.80 L74.87,101.96 L75.25,102.12 L75.62,102.28 L76.00,102.44 L76.38,102.60 L76.75,102.76 L77.13,102.92 L77.51,103.08 L77.88,103.23 L78.26,103.39 L78.64,103.55 L79.01,103.71 L79.39,103.87 L79.77,104.03 L80.14,104.19 L80.52,104.35 L80.90,104.51 L81.27,104.67 L81.65,104.83 L82.03,104.99 L82.41,105.15 L82.78,105.31 L83.16,105.47 L83.54,105.63 L83.91,105.79 L84.29,105.95 L84.67,106.11 L85.04,106.27 L85.42,106.43 L85.80,106.59 L86.17,106.75 L86.55,106.91 L86.93,107.07 L87.30,107.23 L87.68,107.39 L88.06,107.55 L88.43,107.71 L88.81,107.87 L89.19,108.02 L89.56,108.18 L89.94,108.34 L90.32,108.50 L90.69,108.66 L91.07,108.82 L91.45,108.98 L91.82,109.14 L92.20,109.30 L92.58,109.46 L92.96,109.62 L93.33,109.78 L93.71,109.94 L94.09,110.10 L94.46,110.26 L94.84,110.42 L95.22,110.58 L95.59,110.74 L95.97,110.90 L96.35,111.06 L96.72,111.22 L97.10,111.38 L97.48,111.54 L97.85,111.70 L98.23,111.86 L98.61,112.02 L98.98,112.18 L99.36,112.34 L99.74,112.50 L100.11,112.66 L100.49,112.82 L100.87,112.97 L101.24,113.13 L101.62,113.29 L102.00,113.45 L102.37,113.61 L102.75,113.77 L103.13,113.93 L103.50,114.09 L103.88,114.25 L104.26,114.41 L104.64,114.57 L105.01,114.73 L105.39,114.89 L105.77,115.05 L106.14,115.21 L106.52,115.37 L106.90,115.53 L107.27,115.69 L107.65,115.85 L108.03,116.01 L108.40,116.17 L108.78,116.33 L109.16,116.49 L109.53,116.65 L109.91,116.81 L110.29,116.97 L110.66,117.13 L111.04,117.29 L111.42,117.45 L111.79,117.61 L112.17,117.76 L112.55,117.92 L112.92,118.08 L113.30,118.24 L113.68,118.40 L114.05,118.56 L114.43,118.72 L114.81,118.88 L115.18,119.04 L115.56,119.20 L115.94,119.36 L116.32,119.52 L116.69,119.68 L117.07,119.84 L117.45,120.00 L117.82,120.16 L118.20,120.32 L118.58,120.48 L118.95,120.64 L119.33,120.80 L119.71,120.96 L120.08,121.12 L120.46,121.28 L120.84,121.44 L121.21,121.60 L121.59,121.76 L121.97,121.92 L122.34,122.08 L122.72,122.24 L123.10,122.40 L123.47,122.56 L123.85,122.71 L124.23,122.87 L124.60,123.03 L124.98,123.19 L125.36,123.35 L125.73,123.51 L126.11,123.67 L126.49,123.83 L126.86,123.99 L127.24,124.15 L127.62,124.31 L128.00,124.47 L128.37,124.63 L128.75,124.79 L129.13,124.95 L129.50,125.11 L129.88,125.27 L130.26,125.43 L130.63,125.59 L131.01,125.75 L131.39,125.91 L131.76,126.07 L132.14,126.23 L132.52,126.39 L132.89,126.55 L133.27,126.71 L133.65,126.87 L134.02,127.03 L134.40,127.19 L134.78,127.35 L135.15,127.50 L135.53,127.66 L135.91,127.82 L136.28,127.98 L136.66,128.14 L137.04,128.30 L137.41,128.46 L137.79,128.62 L138.17,128.78 L138.55,128.94 L138.92,129.10 L139.30,129.26 L139.68,129.42 L140.05,129.58 L140.43,129.74 L140.81,129.90 L141.18,130.06 L141.56,130.22 L141.94,130.38 L142.31,130.54 L142.69,130.70 L143.07,130.86 L143.44,131.02 L143.82,131.18 L144.20,131.34 L144.57,131.50 L144.95,131.66 L145.33,131.82 L145.70,131.98 L146.08,132.14 L146.46,132.30 L146.83,132.45 L147.21,132.61 L147.59,132.77 L147.96,132.93 L148.34,133.09 L148.72,133.25 L149.09,133.41 L149.47,133.57 L149.85,133.73 L150.23,133.89 L150.60,134.05 L150.98,134.21 L151.36,134.37 L151.73,134.53 L152.11,134.69 L152.49,134.85 L152.86,135.01 L153.24,135.17 L153.62,135.33 L153.99,135.49 L154.37,135.65 L154.75,135.81 L155.12,135.97 L155.50,136.13 L155.88,136.29 L156.25,136.45 L156.63,136.61 L157.01,136.77 L157.38,136.93 L157.76,137.09 L158.14,137.24 L158.51,137.40 L158.89,137.56 L159.27,137.72 L159.64,137.88 L160.02,138.04 L160.40,138.20 L160.77,138.36 L161.15,138.52 L161.53,138.68 L161.91,138.84 L162.28,139.00 L162.66,139.16 L163.04,139.32 L163.41,139.48 L163.79,139.64 L164.17,139.80 L164.54,139.96 L164.92,140.12 L165.30,140.28 L165.67,140.44 L166.05,140.60 L166.43,140.76 L166.80,140.92 L167.18,141.08 L167.56,141.24 L167.93,141.40 L168.31,141.56 L168.69,141.72 L169.06,141.88 L169.44,142.03 L169.82,142.19 L170.19,142.35 L170.57,142.51 L170.95,142.67 L171.32,142.83 L171.70,142.99 L172.08,143.15 L172.45,143.31 L172.83,143.47 L173.21,143.63 L173.59,143.79 L173.96,143.95 L174.34,144.11 L174.72,144.27 L175.09,144.43 L175.47,144.59 L175.85,144.75 L176.22,144.91 L176.60,145.07 L176.98,145.23 L177.35,145.39 L177.73,145.55 L178.11,145.71 L178.48,145.87 L178.86,146.03 L179.24,146.19 L179.61,146.35 L179.99,146.51 L180.37,146.67 L180.74,146.83 L181.12,146.98 L181.50,147.14 L181.87,147.30 L182.25,147.46 L182.63,147.62 L183.00,147.78 L183.38,147.94 L183.76,148.10 L184.13,148.26 L184.51,148.42 L184.89,148.58 L185.27,148.74 L185.64,148.90 L186.02,149.06 L186.40,149.22 L186.77,149.38 L187.15,149.54 L187.53,149.70 L187.90,149.86 L188.28,150.02 L188.66,150.18 L189.03,150.34 L189.41,150.50 L189.79,150.66 L190.16,150.82 L190.54,150.98 L190.92,151.14 L191.29,151.30 L191.67,151.46 L192.05,151.62 L192.42,151.77 L192.80,151.93 L193.18,152.09 L193.55,152.25 L193.93,152.41 L194.31,152.57 L194.68,152.73 L195.06,152.89 L195.44,153.05 L195.82,153.21 L196.19,153.37 L196.57,153.53 L196.95,153.69 L197.32,153.85 L197.70,154.01 L198.08,154.17 L198.45,154.33 L198.83,154.49 L199.21,154.65 L199.58,154.81 L199.96,154.97 L200.34,155.13 L200.71,155.29 L201.09,155.45 L201.47,155.61 L201.84,155.77 L202.22,155.93 L202.60,156.09 L202.97,156.25 L203.35,156.41 L203.73,156.57 L204.10,156.72 L204.48,156.88 L204.86,157.04 L205.23,157.20 L205.61,157.36 L205.99,157.52 L206.36,157.68 L206.74,157.84 L207.12,158.00 L207.50,158.16 L207.87,158.32 L208.25,158.48 L208.63,158.64 L209.00,158.80 L209.38,158.96 L209.76,159.12 L210.13,159.28 L210.51,159.44 L210.89,159.60 L211.26,159.76 L211.64,159.92 L212.02,160.08 L212.39,160.24 L212.77,160.40 L213.15,160.56 L213.52,160.72 L213.90,160.88 L214.28,161.04 L214.65,161.20 L215.03,161.36 L215.41,161.51 L215.78,161.67 L216.16,161.83 L216.54,161.99 L216.91,162.15 L217.29,162.31 L217.67,162.47 L218.04,162.63 L218.42,162.79 L218.80,162.95 L219.18,163.11 L219.55,163.27 L219.93,163.43 L220.31,163.59 L220.68,163.75 L221.06,163.91 L221.44,164.07 L221.81,164.23 L222.19,164.39 L222.57,164.55 L222.94,164.71 L223.32,164.87 L223.70,165.03 L224.07,165.19 L224.45,165.35 L224.83,165.51 L225.20,165.67 L225.58,165.83 L225.96,165.99 L226.33,166.15 L226.71,166.31 L227.09,166.46 L227.46,166.62 L227.84,166.78 L228.22,166.94 L228.59,167.10 L228.97,167.26 L229.35,167.42 L229.72,167.58 L230.10,167.74 L230.48,167.90 L230.86,168.06 L231.23,168.22 L231.61,168.38 L231.99,168.54 L232.36,168.70 L232.74,168.86 L233.12,169.02 L233.49,169.18 L233.87,169.34 L234.25,169.50 L234.62,169.66 L235.00,169.82 L235.38,169.98 L235.75,170.14 L236.13,170.30 L236.51,170.46 L236.88,170.62 L237.26,170.78 L237.64,170.94 L238.01,171.10 L238.39,171.25 L238.77,171.41 L239.14,171.57 L239.52,171.73 L239.90,171.89 L240.27,172.05 L240.65,172.21 L241.03,172.37 L241.41,172.53 L241.78,172.69 L242.16,172.85 L242.54,173.01 L242.91,173.17 L243.29,173.33 L243.67,173.49 L244.04,173.65 L244.42,173.81 L244.80,173.97 L245.17,174.13 L245.55,174.29 L245.93,174.45 L246.30,174.61 L246.68,174.77 L247.06,174.93 L247.43,175.09 L247.81,175.25 L248.19,175.41 L248.56,175.57 L248.94,175.73 L249.32,175.89 L249.69,176.04 L250.07,176.20 L250.45,176.36 L250.82,176.52 L251.20,176.68 L251.58,176.84 L251.95,177.00 L252.33,177.16 L252.71,177.32 L253.09,177.48 L253.46,177.64 L253.84,177.80 L254.22,177.96 L254.59,178.12 L254.97,178.28 L255.35,178.44 L255.72,178.60 L256.10,178.76 L256.48,178.92 L256.85,179.08 L257.23,179.24 L257.61,179.40 L257.98,179.56 L258.36,179.72 L258.74,179.88 L259.11,180.04 L259.49,180.20 L259.87,180.36 L260.24,180.52 L260.62,180.68 L261.00,180.84 L261.37,180.99 L261.75,181.15 L262.13,181.31 L262.50,181.47 L262.88,181.63 L263.26,181.79 L263.63,181.95 L264.01,182.11 L264.39,182.27 L264.77,182.43 L265.14,182.59 L265.52,182.75 L265.90,182.91 L266.27,183.07 L266.65,183.23 L267.03,183.39 L267.40,183.55 L267.78,183.71 L268.16,183.87 L268.53,184.03 L268.91,184.19 L269.29,184.35 L269.66,184.51 L270.04,184.67 L270.42,184.83 L270.79,184.99 L271.17,185.15 L271.55,185.31 L271.92,185.47 L272.30,185.63 L272.68,185.78 L273.05,185.94 L273.43,186.10 L273.81,186.26 L274.18,186.42 L274.56,186.58 L274.94,186.74 L275.31,186.90 L275.69,187.06 L276.07,187.22 L276.45,187.38 L276.82,187.54 L277.20,187.70 L277.58,187.86 L277.95,188.02 L278.33,188.18 L278.71,188.34 L279.08,188.50 L279.46,188.66 L279.84,188.82 L280.21,188.98 L280.59,189.14 L280.97,189.30 L281.34,189.46 L281.72,189.62 L282.10,189.78 L282.47,189.94 L282.85,190.10 L283.23,190.26 L283.60,190.42 L283.98,190.58 L284.36,190.73 L284.73,190.89 L285.11,191.05 L285.49,191.21 L285.86,191.37 L286.24,191.53 L286.62,191.69 L286.99,191.85 L287.37,192.01 L287.75,192.17 L288.13,192.33 L288.50,192.49 L288.88,192.65 L289.26,192.81 L289.63,192.97 L290.01,193.13 L290.39,193.29 L290.76,193.45 L291.14,193.61 L291.52,193.77 L291.89,193.93 L292.27,194.09 L292.65,194.25 L293.02,194.41 L293.40,194.57 L293.78,194.73 L294.15,194.89 L294.53,195.05 L294.91,195.21 L295.28,195.37 L295.66,195.52 L296.04,195.68 L296.41,195.84 L296.79,196.00 L297.17,196.16 L297.54,196.32 L297.92,196.48 L298.30,196.64 L298.68,196.80 L299.05,196.96 L299.43,197.12 L299.81,197.28 L300.18,197.44 L300.56,197.60 L300.94,197.76 L301.31,197.92 L301.69,198.08 L302.07,198.24 L302.44,198.40"
                            class="char"
                                  style="stroke-width: 1;stroke-opacity: 1;" />
                            <path d=" M105.44, 198.40 L105.44, 198.32 L105.44, 198.25 L105.44, 198.18 L105.44, 198.10 L105.44, 198.03 L105.44, 197.95 L105.44, 197.88 L105.44, 197.80 L105.44, 197.73 L105.44, 197.66 L105.44, 197.58 L105.44, 197.51 L105.44, 197.43 L105.44, 197.36 L105.44, 197.28 L105.44, 197.21 L105.44, 197.14 L105.44, 197.06 L105.44, 196.99 L105.44, 196.91 L105.44, 196.84 L105.44, 196.76 L105.44, 196.69 L105.44, 196.61 L105.44, 196.54 L105.44, 196.47 L105.44, 196.39 L105.44, 196.32 L105.44, 196.24 L105.44, 196.17 L105.44, 196.09 L105.44, 196.02 L105.44, 195.95 L105.44, 195.87 L105.44, 195.80 L105.44, 195.72 L105.44, 195.65 L105.44, 195.57 L105.44, 195.50 L105.44, 195.43 L105.44, 195.35 L105.44, 195.28 L105.44, 195.20 L105.44, 195.13 L105.44, 195.05 L105.44, 194.98 L105.44, 194.90 L105.44, 194.83 L105.44, 194.76 L105.44, 194.68 L105.44, 194.61 L105.44, 194.53 L105.44, 194.46 L105.44, 194.38 L105.44, 194.31 L105.44, 194.24 L105.44, 194.16 L105.44, 194.09 L105.44, 194.01 L105.44, 193.94 L105.44, 193.86 L105.44, 193.79 L105.44, 193.72 L105.44, 193.64 L105.44, 193.57 L105.44, 193.49 L105.44, 193.42 L105.44, 193.34 L105.44, 193.27 L105.44, 193.20 L105.44, 193.12 L105.44, 193.05 L105.44, 192.97 L105.44, 192.90 L105.44, 192.82 L105.44, 192.75 L105.44, 192.67 L105.44, 192.60 L105.44, 192.53 L105.44, 192.45 L105.44, 192.38 L105.44, 192.30 L105.44, 192.23 L105.44, 192.15 L105.44, 192.08 L105.44, 192.01 L105.44, 191.93 L105.44, 191.86 L105.44, 191.78 L105.44, 191.71 L105.44, 191.63 L105.44, 191.56 L105.44, 191.49 L105.44, 191.41 L105.44, 191.34 L105.44, 191.26 L105.44, 191.19 L105.44, 191.11 L105.44, 191.04 L105.44, 190.96 L105.44, 190.89 L105.44, 190.82 L105.44, 190.74 L105.44, 190.67 L105.44, 190.59 L105.44, 190.52 L105.44, 190.44 L105.44, 190.37 L105.44, 190.30 L105.44, 190.22 L105.44, 190.15 L105.44, 190.07 L105.44, 190.00 L105.44, 189.92 L105.44, 189.85 L105.44, 189.78 L105.44, 189.70 L105.44, 189.63 L105.44, 189.55 L105.44, 189.48 L105.44, 189.40 L105.44, 189.33 L105.44, 189.26 L105.44, 189.18 L105.44, 189.11 L105.44, 189.03 L105.44, 188.96 L105.44, 188.88 L105.44, 188.81 L105.44, 188.73 L105.44, 188.66 L105.44, 188.59 L105.44, 188.51 L105.44, 188.44 L105.44, 188.36 L105.44, 188.29 L105.44, 188.21 L105.44, 188.14 L105.44, 188.07 L105.44, 187.99 L105.44, 187.92 L105.44, 187.84 L105.44, 187.77 L105.44, 187.69 L105.44, 187.62 L105.44, 187.55 L105.44, 187.47 L105.44, 187.40 L105.44, 187.32 L105.44, 187.25 L105.44, 187.17 L105.44, 187.10 L105.44, 187.02 L105.44, 186.95 L105.44, 186.88 L105.44, 186.80 L105.44, 186.73 L105.44, 186.65 L105.44, 186.58 L105.44, 186.50 L105.44, 186.43 L105.44, 186.36 L105.44, 186.28 L105.44, 186.21 L105.44, 186.13 L105.44, 186.06 L105.44, 185.98 L105.44, 185.91 L105.44, 185.84 L105.44, 185.76 L105.44, 185.69 L105.44, 185.61 L105.44, 185.54 L105.44, 185.46 L105.44, 185.39 L105.44, 185.32 L105.44, 185.24 L105.44, 185.17 L105.44, 185.09 L105.44, 185.02 L105.44, 184.94 L105.44, 184.87 L105.44, 184.79 L105.44, 184.72 L105.44, 184.65 L105.44, 184.57 L105.44, 184.50 L105.44, 184.42 L105.44, 184.35 L105.44, 184.27 L105.44, 184.20 L105.44, 184.13 L105.44, 184.05 L105.44, 183.98 L105.44, 183.90 L105.44, 183.83 L105.44, 183.75 L105.44, 183.68 L105.44, 183.61 L105.44, 183.53 L105.44, 183.46 L105.44, 183.38 L105.44, 183.31 L105.44, 183.23 L105.44, 183.16 L105.44, 183.08 L105.44, 183.01 L105.44, 182.94 L105.44, 182.86 L105.44, 182.79 L105.44, 182.71 L105.44, 182.64 L105.44, 182.56 L105.44, 182.49 L105.44, 182.42 L105.44, 182.34 L105.44, 182.27 L105.44, 182.19 L105.44, 182.12 L105.44, 182.04 L105.44, 181.97 L105.44, 181.90 L105.44, 181.82 L105.44, 181.75 L105.44, 181.67 L105.44, 181.60 L105.44, 181.52 L105.44, 181.45 L105.44, 181.38 L105.44, 181.30 L105.44, 181.23 L105.44, 181.15 L105.44, 181.08 L105.44, 181.00 L105.44, 180.93 L105.44, 180.85 L105.44, 180.78 L105.44, 180.71 L105.44, 180.63 L105.44, 180.56 L105.44, 180.48 L105.44, 180.41 L105.44, 180.33 L105.44, 180.26 L105.44, 180.19 L105.44, 180.11 L105.44, 180.04 L105.44, 179.96 L105.44, 179.89 L105.44, 179.81 L105.44, 179.74 L105.44, 179.67 L105.44, 179.59 L105.44, 179.52 L105.44, 179.44 L105.44, 179.37 L105.44, 179.29 L105.44, 179.22 L105.44, 179.14 L105.44, 179.07 L105.44, 179.00 L105.44, 178.92 L105.44, 178.85 L105.44, 178.77 L105.44, 178.70 L105.44, 178.62 L105.44, 178.55 L105.44, 178.48 L105.44, 178.40 L105.44, 178.33 L105.44, 178.25 L105.44, 178.18 L105.44, 178.10 L105.44, 178.03 L105.44, 177.96 L105.44, 177.88 L105.44, 177.81 L105.44, 177.73 L105.44, 177.66 L105.44, 177.58 L105.44, 177.51 L105.44, 177.44 L105.44, 177.36 L105.44, 177.29 L105.44, 177.21 L105.44, 177.14 L105.44, 177.06 L105.44, 176.99 L105.44, 176.91 L105.44, 176.84 L105.44, 176.77 L105.44, 176.69 L105.44, 176.62 L105.44, 176.54 L105.44, 176.47 L105.44, 176.39 L105.44, 176.32 L105.44, 176.25 L105.44, 176.17 L105.44, 176.10 L105.44, 176.02 L105.44, 175.95 L105.44, 175.87 L105.44, 175.80 L105.44, 175.73 L105.44, 175.65 L105.44, 175.58 L105.44, 175.50 L105.44, 175.43 L105.44, 175.35 L105.44, 175.28 L105.44, 175.20 L105.44, 175.13 L105.44, 175.06 L105.44, 174.98 L105.44, 174.91 L105.44, 174.83 L105.44, 174.76 L105.44, 174.68 L105.44, 174.61 L105.44, 174.54 L105.44, 174.46 L105.44, 174.39 L105.44, 174.31 L105.44, 174.24 L105.44, 174.16 L105.44, 174.09 L105.44, 174.02 L105.44, 173.94 L105.44, 173.87 L105.44, 173.79 L105.44, 173.72 L105.44, 173.64 L105.44, 173.57 L105.44, 173.50 L105.44, 173.42 L105.44, 173.35 L105.44, 173.27 L105.44, 173.20 L105.44, 173.12 L105.44, 173.05 L105.44, 172.97 L105.44, 172.90 L105.44, 172.83 L105.44, 172.75 L105.44, 172.68 L105.44, 172.60 L105.44, 172.53 L105.44, 172.45 L105.44, 172.38 L105.44, 172.31 L105.44, 172.23 L105.44, 172.16 L105.44, 172.08 L105.44, 172.01 L105.44, 171.93 L105.44, 171.86 L105.44, 171.79 L105.44, 171.71 L105.44, 171.64 L105.44, 171.56 L105.44, 171.49 L105.44, 171.41 L105.44, 171.34 L105.44, 171.26 L105.44, 171.19 L105.44, 171.12 L105.44, 171.04 L105.44, 170.97 L105.44, 170.89 L105.44, 170.82 L105.44, 170.74 L105.44, 170.67 L105.44, 170.60 L105.44, 170.52 L105.44, 170.45 L105.44, 170.37 L105.44, 170.30 L105.44, 170.22 L105.44, 170.15 L105.44, 170.08 L105.44, 170.00 L105.44, 169.93 L105.44, 169.85 L105.44, 169.78 L105.44, 169.70 L105.44, 169.63 L105.44, 169.55 L105.44, 169.48 L105.44, 169.41 L105.44, 169.33 L105.44, 169.26 L105.44, 169.18 L105.44, 169.11 L105.44, 169.03 L105.44, 168.96 L105.44, 168.89 L105.44, 168.81 L105.44, 168.74 L105.44, 168.66 L105.44, 168.59 L105.44, 168.51 L105.44, 168.44 L105.44, 168.37 L105.44, 168.29 L105.44, 168.22 L105.44, 168.14 L105.44, 168.07 L105.44, 167.99 L105.44, 167.92 L105.44, 167.85 L105.44, 167.77 L105.44, 167.70 L105.44, 167.62 L105.44, 167.55 L105.44, 167.47 L105.44, 167.40 L105.44, 167.32 L105.44, 167.25 L105.44, 167.18 L105.44, 167.10 L105.44, 167.03 L105.44, 166.95 L105.44, 166.88 L105.44, 166.80 L105.44, 166.73 L105.44, 166.66 L105.44, 166.58 L105.44, 166.51 L105.44, 166.43 L105.44, 166.36 L105.44, 166.28 L105.44, 166.21 L105.44, 166.14 L105.44, 166.06 L105.44, 165.99 L105.44, 165.91 L105.44, 165.84 L105.44, 165.76 L105.44, 165.69 L105.44, 165.61 L105.44, 165.54 L105.44, 165.47 L105.44, 165.39 L105.44, 165.32 L105.44, 165.24 L105.44, 165.17 L105.44, 165.09 L105.44, 165.02 L105.44, 164.95 L105.44, 164.87 L105.44, 164.80 L105.44, 164.72 L105.44, 164.65 L105.44, 164.57 L105.44, 164.50 L105.44, 164.43 L105.44, 164.35 L105.44, 164.28 L105.44, 164.20 L105.44, 164.13 L105.44, 164.05 L105.44, 163.98 L105.44, 163.91 L105.44, 163.83 L105.44, 163.76 L105.44, 163.68 L105.44, 163.61 L105.44, 163.53 L105.44, 163.46 L105.44, 163.38 L105.44, 163.31 L105.44, 163.24 L105.44, 163.16 L105.44, 163.09 L105.44, 163.01 L105.44, 162.94 L105.44, 162.86 L105.44, 162.79 L105.44, 162.72 L105.44, 162.64 L105.44, 162.57 L105.44, 162.49 L105.44, 162.42 L105.44, 162.34 L105.44, 162.27 L105.44, 162.20 L105.44, 162.12 L105.44, 162.05 L105.44, 161.97 L105.44, 161.90 L105.44, 161.82 L105.44, 161.75 L105.44, 161.67 L105.44, 161.60 L105.44, 161.53 L105.44, 161.45 L105.44, 161.38 L105.44, 161.30 L105.44, 161.23 L105.44, 161.15 L105.44, 161.08 L105.44, 161.01 L105.44, 160.93 L105.44, 160.86 L105.44, 160.78 L105.44, 160.71 L105.44, 160.63 L105.44, 160.56 L105.44, 160.49 L105.44, 160.41 L105.44, 160.34 L105.44, 160.26 L105.44, 160.19 L105.44, 160.11 L105.44, 160.04 L105.44, 159.97 L105.44, 159.89 L105.44, 159.82 L105.44, 159.74 L105.44, 159.67 L105.44, 159.59 L105.44, 159.52 L105.44, 159.44 L105.44, 159.37 L105.44, 159.30 L105.44, 159.22 L105.44, 159.15 L105.44, 159.07 L105.44, 159.00 L105.44, 158.92 L105.44, 158.85 L105.44, 158.78 L105.44, 158.70 L105.44, 158.63 L105.44, 158.55 L105.44, 158.48 L105.44, 158.40 L105.44, 158.33"
                            class="char"
                                  style="stroke-width: 1;stroke-opacity: 0.8; stroke-dasharray: 6, 6;" />
                            <path d=" M66.50,167.19 L66.46,167.00 L66.25,166.00 L66.07,165.00 L65.91,164.00 L65.78,163.00 L65.68,162.00 L65.60,161.00 L65.54,160.00 L65.51,159.00 L65.51,158.00 L65.53,157.00 L65.57,156.00 L65.65,155.00 L65.74,154.00 L65.86,153.00 L66.01,152.00 L66.18,151.00 L66.38,150.00 L66.50,149.47 L66.61,149.00 L66.87,148.00 L67.15,147.00 L67.46,146.00 L67.67,145.37 L67.79,145.00 L68.17,144.00 L68.57,143.00 L68.83,142.37 L69.00,142.00 L69.46,141.00 L69.96,140.00 L70.00,139.92 L70.50,139.00 L71.07,138.00 L71.17,137.83 L71.68,137.00 L72.33,136.00 L72.33,135.99 L73.03,135.00 L73.50,134.36 L73.77,134.00 L74.56,133.00 L74.67,132.87 L75.41,132.00 L75.83,131.53 L76.32,131.00 L77.00,130.29 L77.29,130.00 L78.17,129.16 L78.33,129.00 L79.33,128.11 L79.46,128.00 L80.50,127.14 L80.67,127.00 L81.67,126.24 L82.00,126.00 L82.83,125.41 L83.44,125.00 L84.00,124.64 L85.03,124.00 L85.17,123.92 L86.33,123.26 L86.82,123.00 L87.50,122.65 L88.67,122.08 L88.85,122.00 L89.83,121.57 L91.00,121.09 L91.25,121.00 L92.17,120.66 L93.33,120.27 L94.22,120.00 L94.50,119.92 L95.67,119.61 L96.83,119.33 L98.00,119.09 L98.50,119.00 L99.17,118.89 L100.33,118.72 L101.50,118.59 L102.67,118.49 L103.83,118.42 L105.00,118.39 L106.17,118.40 L107.33,118.44 L108.50,118.51 L109.67,118.61 L110.83,118.76 L112.00,118.93 L112.39,119.00 L113.17,119.14 L114.33,119.39 L115.50,119.68 L116.67,120.00 L116.68,120.00 L117.83,120.36 L119.00,120.76 L119.64,121.00 L120.17,121.20 L121.33,121.69 L122.03,122.00 L122.50,122.21 L123.67,122.79 L124.07,123.00 L124.83,123.41 L125.86,124.00 L126.00,124.08 L127.17,124.81 L127.45,125.00 L128.33,125.60 L128.89,126.00 L129.50,126.45 L130.21,127.00 L130.67,127.36 L131.43,128.00 L131.83,128.35 L132.55,129.00 L133.00,129.42 L133.59,130.00 L134.17,130.58 L134.57,131.00 L135.33,131.84 L135.48,132.00 L136.32,133.00 L136.50,133.22 L137.12,134.00 L137.67,134.73 L137.86,135.00 L138.56,136.00 L138.83,136.41 L139.21,137.00 L139.82,138.00 L140.00,138.30 L140.39,139.00 L140.93,140.00 L141.17,140.47 L141.43,141.00 L141.89,142.00 L142.33,143.00 L142.33,143.02 L142.72,144.00 L143.09,145.00 L143.43,146.00 L143.50,146.21 L143.74,147.00 L144.02,148.00 L144.28,149.00 L144.51,150.00 L144.67,150.79 L144.71,151.00 L144.88,152.00 L145.03,153.00 L145.15,154.00 L145.24,155.00 L145.31,156.00 L145.36,157.00 L145.38,158.00 L145.38,159.00 L145.35,160.00 L145.29,161.00 L145.21,162.00 L145.11,163.00 L144.98,164.00 L144.82,165.00 L144.67,165.87 L144.64,166.00 L144.43,167.00 L144.19,168.00 L143.93,169.00 L143.64,170.00 L143.50,170.45 L143.32,171.00 L142.97,172.00 L142.59,173.00 L142.33,173.64 L142.18,174.00 L141.74,175.00 L141.26,176.00 L141.17,176.19 L140.75,177.00 L140.20,178.00 L140.00,178.35 L139.62,179.00 L138.99,180.00 L138.83,180.25 L138.32,181.00 L137.67,181.93 L137.62,182.00 L136.85,183.00 L136.50,183.44 L136.04,184.00 L135.33,184.82 L135.17,185.00 L134.25,186.00 L134.17,186.08 L133.25,187.00 L133.00,187.24 L132.18,188.00 L131.83,188.31 L131.02,189.00 L130.67,189.30 L129.78,190.00 L129.50,190.21 L128.42,191.00 L128.33,191.06 L127.17,191.85 L126.92,192.00 L126.00,192.57 L125.27,193.00 L124.83,193.25 L123.67,193.87 L123.41,194.00 L122.50,194.44 L121.33,194.97 L121.27,195.00 L120.17,195.46 L119.00,195.90 L118.71,196.00 L117.83,196.30 L116.67,196.66 L115.50,196.98 L115.44,197.00 L114.33,197.27 L113.17,197.51 L112.00,197.73 L110.83,197.90 L110.06,198.00 L109.67,198.05 L108.50,198.15 L107.33,198.22 L106.17,198.26 L105.00,198.27 L103.83,198.24 L102.67,198.17 L101.50,198.08 L100.83,198.00 L100.33,197.94 L99.17,197.77 L98.00,197.57 L96.83,197.33 L95.67,197.06 L95.46,197.00 L94.50,196.74 L93.33,196.39 L92.17,196.00 L92.17,196.00 L91.00,195.56 L89.83,195.09 L89.62,195.00 L88.67,194.57 L87.50,194.01 L87.47,194.00 L86.33,193.40 L85.62,193.00 L85.17,192.74 L84.00,192.03 L83.96,192.00 L82.83,191.25 L82.47,191.00 L81.67,190.42 L81.11,190.00 L80.50,189.52 L79.86,189.00 L79.33,188.55 L78.71,188.00 L78.17,187.50 L77.64,187.00 L77.00,186.37 L76.65,186.00 L75.83,185.13 L75.71,185.00 L74.85,184.00 L74.67,183.78 L74.04,183.00 L73.50,182.30 L73.28,182.00 L72.56,181.00 L72.33,180.66 L71.90,180.00 L71.27,179.00 L71.17,178.83 L70.69,178.00 L70.14,177.00 L70.00,176.74 L69.63,176.00 L69.15,175.00 L68.83,174.29 L68.71,174.00 L68.30,173.00 L67.92,172.00 L67.67,171.29 L67.57,171.00 L67.25,170.00 L66.96,169.00 L66.69,168.00 L66.50,167.19"
                                  style="stroke-width: 2; stroke: rgb(156, 120, 40); stroke-opacity: 1;" />
                            <g>
                                <circle cx="39.07598177476485"
                                        cy="86.78863041178118"
                                        r="1.5"
                                        style="stroke-width: 3; stroke: rgb(60, 180, 75); stroke-opacity: 0.8; fill: rgb(60, 180, 75); fill-opacity: 0.15;" />
                                <circle cx="76.6998186146242"
                                        cy="198.39898992048722"
                                        r="1.5"
                                        style="stroke-width: 3; stroke: rgb(60, 180, 75); stroke-opacity: 0.8; fill: rgb(60, 180, 75); fill-opacity: 0.15;" />
                                <circle cx="302.44283965378037"
                                        cy="198.39898992048722"
                                        r="1.5"
                                        style="stroke-width: 3; stroke: rgb(60, 180, 75); stroke-opacity: 0.8; fill: rgb(60, 180, 75); fill-opacity: 0.15;" />
                            </g>
                            <g>
                                <circle cx="105.44442996027676"
                                        cy="158.329603686037"
                                        r="1.5"
                                        style="stroke-width: 3; stroke: rgb(240, 50, 230); stroke-opacity: 0.8; fill: rgb(240, 50, 230); fill-opacity: 0.15;" />
                                <circle cx="105.44442996027676"
                                        cy="198.39898992048722"
                                        r="1.5"
                                        style="stroke-width: 3; stroke: rgb(240, 50, 230); stroke-opacity: 0.8; fill: rgb(240, 50, 230); fill-opacity: 0.15;" />
                            </g>
                        </g>
                    </g>
                    <g class="test-xtl"
                       style="font-family: &quot;Open Sans&quot;, verdana, arial, sans-serif;" />
                    <g class="test-ytl"
                       style="font-family: &quot;Open Sans&quot;, verdana, arial, sans-serif;" />
                    <rect class="real"
                          x="1"
                          y="1"
                          width="348"
                          height="268"
                          style="fill: transparent; stroke: none;" />
                </g>
            </g>
        </g>
        <g />
    </g>
    <g />
    <g />
    <g />
    <g>
        <g>
            <g>
                <g transform="matrix(1,0,0,1,88.33333333333333,226.33334350585938)">
                    <path transform="matrix(0.017,0,0,-0.017,0,0)"
                          d="M286 646L392 650C454 650 494 641 495 626L503 537L527 537C530 600 537 651 548 689C526 691 498 692 481 692L440 691L275 689L246 689C221 689 181 690 143 691L94 692L91 664L147 662C171 661 182 652 182 635C182 621 178 589 173 559L98 125C81 33 81 32 40 28L4 25L0 -3L34 -2C74 -1 106 0 127 0C145 0 174 -1 213 -2L265 -3L268 25L204 28C177 29 168 37 168 57C168 63 169 74 170 78L206 301L323 301C350 301 381 300 429 298L455 297L474 342L470 349C389 345 329 343 251 343L214 343L260 614C263 630 264 635 269 646Z"
                          class="char"
                          stroke-opacity="1"
                          stroke-width="8"
                          fill-opacity="1" />
                </g>
            </g>
            <g>
                <g>
                    <g>
                        <g>
                            <g transform="matrix(1,0,0,1,98.27083333333333,230.00417683919272)">
                                <path transform="matrix(0.0119,0,0,-0.0119,0,0)"
                                      d="M418 -3L418 27L366 30C311 33 301 44 301 96L301 700L60 598L67 548L217 614L217 96C217 44 206 33 152 30L96 27L96 -3C250 0 250 0 261 0C292 0 402 -3 418 -3Z"
                                      class="char"
                                      stroke-opacity="1"
                                      stroke-width="8"
                                      fill-opacity="1" />
                            </g>
                        </g>
                    </g>
                </g>
            </g>
        </g>
    </g>
    <g>
        <g>
            <g>
                <g transform="matrix(1,0,0,1,314.3333333333333,226.33334350585938)">
                    <path transform="matrix(0.017,0,0,-0.017,0,0)"
                          d="M286 646L392 650C454 650 494 641 495 626L503 537L527 537C530 600 537 651 548 689C526 691 498 692 481 692L440 691L275 689L246 689C221 689 181 690 143 691L94 692L91 664L147 662C171 661 182 652 182 635C182 621 178 589 173 559L98 125C81 33 81 32 40 28L4 25L0 -3L34 -2C74 -1 106 0 127 0C145 0 174 -1 213 -2L265 -3L268 25L204 28C177 29 168 37 168 57C168 63 169 74 170 78L206 301L323 301C350 301 381 300 429 298L455 297L474 342L470 349C389 345 329 343 251 343L214 343L260 614C263 630 264 635 269 646Z"
                          class="char"
                          stroke-opacity="1"
                          stroke-width="8"
                          fill-opacity="1" />
                </g>
            </g>
            <g>
                <g>
                    <g>
                        <g>
                            <g transform="matrix(1,0,0,1,324.2708333333333,230.00417683919272)">
                                <path transform="matrix(0.0119,0,0,-0.0119,0,0)"
                                      d="M16 23L16 -3C203 -3 203 0 239 0C275 0 275 -3 468 -3L468 82C353 77 307 81 122 77L304 270C401 373 431 428 431 503C431 618 353 689 226 689C154 689 105 669 56 619L39 483L68 483L81 529C97 587 133 612 200 612C286 612 341 558 341 473C341 398 299 324 186 204Z"
                                      class="char"
                                      stroke-opacity="1"
                                      stroke-width="8"
                                      fill-opacity="1" />
                            </g>
                        </g>
                    </g>
                </g>
            </g>
        </g>
    </g>
    <g>
        <g>
            <g>
                <g transform="matrix(1,0,0,1,130.66666666666669,225.66667683919272)">
                    <path transform="matrix(0.017,0,0,-0.017,0,0)"
                          d="M390 646L463 646C541 646 577 641 580 629C583 621 585 602 584 592L580 528L608 528L635 692L544 691C456 690 388 689 353 689C316 689 252 690 166 691L71 692L53 528L82 528L97 588C102 610 109 626 115 633C121 640 159 646 196 646L308 646L222 125C206 34 204 31 164 28L113 25L109 -3L166 -2C206 -1 235 0 251 0C270 0 301 -1 340 -2L384 -3L387 25L328 28C302 29 292 37 292 58C292 67 293 74 296 93Z"
                          stroke="rgb(240,50,230)"
                          stroke-opacity="1"
                          stroke-width="8"
                          fill="rgb(240,50,230)"
                          fill-opacity="1" />
                </g>
            </g>
            <g>
                <g transform="matrix(1,0,0,1,141.04166666666669,226.33334350585938)">
                    <path transform="matrix(0.017,0,0,-0.017,0,0)"
                          d="M146 266C146 526 243 632 301 700L282 726C225 675 60 542 60 266C60 159 85 58 133 -32C168 -99 200 -138 282 -215L301 -194C255 -137 146 -15 146 266Z"
                          stroke="rgb(240,50,230)"
                          stroke-opacity="1"
                          stroke-width="8"
                          fill="rgb(240,50,230)"
                          fill-opacity="1" />
                </g>
            </g>
            <g>
                <g transform="matrix(1,0,0,1,146.6875,225.66667683919272)">
                    <path transform="matrix(0.017,0,0,-0.017,0,0)"
                          d="M555 243L555 299L51 299L51 243Z"
                          stroke="rgb(240,50,230)"
                          stroke-opacity="1"
                          stroke-width="8"
                          fill="rgb(240,50,230)"
                          fill-opacity="1" />
                </g>
            </g>
            <g>
                <g transform="matrix(1,0,0,1,156.97916666666669,225.66667683919272)">
                    <path transform="matrix(0.017,0,0,-0.017,0,0)"
                          d="M271 204L242 77C238 60 236 42 236 26C236 4 245 -9 260 -9C283 -9 324 17 406 85L399 106C375 86 346 59 324 59C315 59 309 68 309 82C309 87 309 90 310 93L402 472L392 481L359 463C318 478 301 482 274 482C246 482 226 477 199 464C137 433 104 403 79 354C35 265 4 145 4 67C4 23 19 -11 38 -11C75 -11 155 41 271 204ZM319 414C297 305 278 253 244 201C187 117 126 59 94 59C82 59 76 72 76 99C76 163 104 280 139 360C163 415 186 433 234 433C257 433 275 429 319 414Z"
                          stroke="rgb(240,50,230)"
                          stroke-opacity="1"
                          stroke-width="8"
                          fill="rgb(240,50,230)"
                          fill-opacity="1" />
                </g>
            </g>
            <g>
                <g transform="matrix(1,0,0,1,164.51041666666669,225.66667683919272)">
                    <path transform="matrix(0.017,0,0,-0.017,0,0)"
                          d="M204 123C177 114 159 108 106 93C99 17 74 -48 16 -144L30 -155L71 -136C152 -31 190 32 218 109Z"
                          stroke="rgb(240,50,230)"
                          stroke-opacity="1"
                          stroke-width="8"
                          fill="rgb(240,50,230)"
                          fill-opacity="1" />
                </g>
            </g>
            <g>
                <g transform="matrix(1,0,0,1,172.14583333333334,225.66667683919272)">
                    <path transform="matrix(0.017,0,0,-0.017,0,0)"
                          d="M263 689C108 689 29 566 29 324C29 207 50 106 85 57C120 8 176 -20 238 -20C389 -20 465 110 465 366C465 585 400 689 263 689ZM245 654C342 654 381 556 381 316C381 103 343 15 251 15C154 15 113 116 113 360C113 571 150 654 245 654Z"
                          stroke="rgb(240,50,230)"
                          stroke-opacity="1"
                          stroke-width="8"
                          fill="rgb(240,50,230)"
                          fill-opacity="1" />
                </g>
            </g>
            <g>
                <g transform="matrix(1,0,0,1,180.63541666666669,226.33334350585938)">
                    <path transform="matrix(0.017,0,0,-0.017,0,0)"
                          d="M51 726L32 700C87 636 187 526 187 266C187 -10 83 -131 32 -194L51 -215C104 -165 273 -23 273 265C273 542 108 675 51 726Z"
                          stroke="rgb(240,50,230)"
                          stroke-opacity="1"
                          stroke-width="8"
                          fill="rgb(240,50,230)"
                          fill-opacity="1" />
                </g>
            </g>
        </g>
    </g>
    <g>
        <g>
            <g>
                <g transform="matrix(1,0,0,1,213.66666666666669,226.33334350585938)">
                    <path transform="matrix(0.017,0,0,-0.017,0,0)"
                          d="M748 425C748 603 644 706 464 706C227 706 53 523 53 272C53 83 147 -18 323 -18C595 -18 748 207 748 425ZM660 409C660 221 571 24 360 24C216 24 141 110 141 277C141 425 199 664 433 664C549 664 660 610 660 409Z"
                          class="char"
                          stroke-opacity="1"
                          stroke-width="8"
                          fill-opacity="1" />
                </g>
            </g>
        </g>
    </g>
    <g>
        <g>
            <g>
                <g transform="matrix(1,0,0,1,119.66666666666667,160.33334350585938)">
                    <path transform="matrix(0.017,0,0,-0.017,0,0)"
                          d="M748 425C748 603 644 706 464 706C227 706 53 523 53 272C53 83 147 -18 323 -18C595 -18 748 207 748 425ZM660 409C660 221 571 24 360 24C216 24 141 110 141 277C141 425 199 664 433 664C549 664 660 610 660 409Z"
                          stroke="rgb(240,50,230)"
                          stroke-opacity="1"
                          stroke-width="8"
                          fill="rgb(240,50,230)"
                          fill-opacity="1" />
                </g>
            </g>
            <g>
                <g>
                    <g>
                        <g>
                            <g transform="matrix(1,0,0,1,133.38541666666669,164.00417683919272)">
                                <path transform="matrix(0.0119,0,0,-0.0119,0,0)"
                                      d="M418 -3L418 27L366 30C311 33 301 44 301 96L301 700L60 598L67 548L217 614L217 96C217 44 206 33 152 30L96 27L96 -3C250 0 250 0 261 0C292 0 402 -3 418 -3Z"
                                      stroke="rgb(240,50,230)"
                                      stroke-opacity="1"
                                      stroke-width="8"
                                      fill="rgb(240,50,230)"
                                      fill-opacity="1" />
                            </g>
                        </g>
                    </g>
                </g>
            </g>
        </g>
    </g>
    <g>
        <g>
            <g>
                <g transform="matrix(1,0,0,1,61.66666666666666,90.66666666666666)">
                    <path transform="matrix(0.017,0,0,-0.017,0,0)"
                          d="M105 664L160 662C184 661 195 653 195 635L112 125C95 34 94 31 54 28L13 25L9 -3L51 -2C92 -1 123 0 141 0C158 0 187 -1 227 -2L280 -3L283 25L218 28C192 29 182 37 182 58C182 67 183 74 186 93L284 648C320 654 336 656 355 656C457 656 506 612 506 519C506 411 434 323 346 323C324 323 304 328 267 342L269 311C306 293 326 288 355 288C484 288 594 405 594 541C594 642 531 695 412 692L108 692Z"
                          class="char"
                          stroke-opacity="1"
                          stroke-width="8"
                          fill-opacity="1" />
                </g>
            </g>
        </g>
    </g>
</svg>