<svg xmlns="http://www.w3.org/2000/svg"
     xmlns:xlink="http://www.w3.org/1999/xlink"
     x="0"
     y="0"
     width="391.3333333333333"
     height="311.3333333333333">
    <!-- 内联样式 -->
    <style type="text/css">
        .connection {
            stroke: rgb(20, 20, 20);
        }

        .connection-fill {
            fill: rgb(20, 20, 20);
        }

        .char {
            stroke: rgb(0, 0, 0);
            fill: rgb(0, 0, 0);
        }

        @media (prefers-color-scheme: dark) {
            .connection {
                stroke: rgb(200, 200, 200);
            }

            .connection-fill {
                fill: rgb(200, 200, 200);
            }

            .char {
                stroke: rgb(239, 239, 239);
                fill: rgb(239, 239, 239);
            }
        }
    </style>
    <g class="shapes-region"
       style="stroke: black; fill: none;">
        <g class="composite-shape"
           data-amt="diagram/shapes/plot"
           transform="matrix(1,0,0,1,20,10)">
            <g>
                <g />
                <g>
                    <g class="test-xti"
                       style="font-family: Asana-Math, Asana;">
                        <line x1="0"
                              y1="143"
                              x2="346"
                              y2="143"
                              fill="none"
                              class="connection"
                              stroke-opacity="1"
                              stroke-width="1" />
                        <path d="M341,139.4 L349,143 L341,146.6 Z"
                              stroke="none"
                              stroke-width="1"
                              class="connection-fill"
                              fill-opacity="1" />
                    </g>
                    <g class="test-yti"
                       style="font-family: Asana-Math, Asana;">
                        <line x1="175"
                              y1="4"
                              x2="175"
                              y2="270"
                              fill="none"
                              class="connection"
                              stroke-opacity="1"
                              stroke-width="1" />
                        <path d="M171.4,9 L175,1 L178.6,9 Z"
                              stroke="none"
                              stroke-width="1"
                              class="connection-fill"
                              fill-opacity="1" />
                    </g>
                    <g class="test-plot-expression">
                        <defs>
                            <clipPath id="cpznmq3ta4m">
                                <rect x="1"
                                      y="1"
                                      width="348"
                                      height="268" />
                            </clipPath>
                        </defs>
                        <g clip-path="url(#cpznmq3ta4m)">
                            <path d=" M0.00,266.06 L0.08,266.00 L1.17,265.23 L1.49,265.00 L2.33,264.40 L2.90,264.00 L3.50,263.57 L4.30,263.00 L4.67,262.74 L5.71,262.00 L5.83,261.91 L7.00,261.08 L7.11,261.00 L8.17,260.25 L8.52,260.00 L9.33,259.42 L9.93,259.00 L10.50,258.59 L11.33,258.00 L11.67,257.76 L12.74,257.00 L12.83,256.93 L14.00,256.10 L14.14,256.00 L15.17,255.27 L15.55,255.00 L16.33,254.44 L16.95,254.00 L17.50,253.61 L18.35,253.00 L18.67,252.78 L19.76,252.00 L19.83,251.95 L21.00,251.12 L21.16,251.00 L22.17,250.28 L22.57,250.00 L23.33,249.45 L23.97,249.00 L24.50,248.62 L25.37,248.00 L25.67,247.79 L26.78,247.00 L26.83,246.96 L28.00,246.13 L28.18,246.00 L29.17,245.30 L29.58,245.00 L30.33,244.46 L30.99,244.00 L31.50,243.63 L32.39,243.00 L32.67,242.80 L33.79,242.00 L33.83,241.97 L35.00,241.14 L35.19,241.00 L36.17,240.30 L36.60,240.00 L37.33,239.47 L38.00,239.00 L38.50,238.64 L39.40,238.00 L39.67,237.81 L40.80,237.00 L40.83,236.98 L42.00,236.14 L42.20,236.00 L43.17,235.31 L43.60,235.00 L44.33,234.47 L45.00,234.00 L45.50,233.64 L46.40,233.00 L46.67,232.81 L47.80,232.00 L47.83,231.98 L49.00,231.14 L49.20,231.00 L50.17,230.31 L50.60,230.00 L51.33,229.47 L52.00,229.00 L52.50,228.64 L53.40,228.00 L53.67,227.80 L54.79,227.00 L54.83,226.97 L56.00,226.13 L56.19,226.00 L57.17,225.30 L57.59,225.00 L58.33,224.46 L58.98,224.00 L59.50,223.63 L60.38,223.00 L60.67,222.79 L61.77,222.00 L61.83,221.96 L63.00,221.12 L63.17,221.00 L64.17,220.28 L64.57,220.00 L65.33,219.45 L65.96,219.00 L66.50,218.61 L67.35,218.00 L67.67,217.77 L68.75,217.00 L68.83,216.94 L70.00,216.10 L70.14,216.00 L71.17,215.26 L71.53,215.00 L72.33,214.42 L72.92,214.00 L73.50,213.58 L74.31,213.00 L74.67,212.74 L75.70,212.00 L75.83,211.91 L77.00,211.07 L77.09,211.00 L78.17,210.22 L78.48,210.00 L79.33,209.38 L79.87,209.00 L80.50,208.54 L81.26,208.00 L81.67,207.70 L82.64,207.00 L82.83,206.86 L84.00,206.02 L84.03,206.00 L85.17,205.18 L85.41,205.00 L86.33,204.33 L86.80,204.00 L87.50,203.49 L88.18,203.00 L88.67,202.64 L89.56,202.00 L89.83,201.80 L90.94,201.00 L91.00,200.96 L92.17,200.11 L92.32,200.00 L93.33,199.26 L93.70,199.00 L94.50,198.42 L95.08,198.00 L95.67,197.57 L96.45,197.00 L96.83,196.72 L97.83,196.00 L98.00,195.87 L99.17,195.02 L99.20,195.00 L100.33,194.17 L100.57,194.00 L101.50,193.32 L101.94,193.00 L102.67,192.47 L103.31,192.00 L103.83,191.61 L104.67,191.00 L105.00,190.76 L106.04,190.00 L106.17,189.90 L107.33,189.05 L107.40,189.00 L108.50,188.19 L108.76,188.00 L109.67,187.33 L110.12,187.00 L110.83,186.47 L111.47,186.00 L112.00,185.61 L112.83,185.00 L113.17,184.74 L114.17,184.00 L114.33,183.88 L115.50,183.01 L115.52,183.00 L116.67,182.14 L116.86,182.00 L117.83,181.27 L118.20,181.00 L119.00,180.40 L119.54,180.00 L120.17,179.53 L120.87,179.00 L121.33,178.65 L122.20,178.00 L122.50,177.77 L123.52,177.00 L123.67,176.89 L124.83,176.01 L124.84,176.00 L126.00,175.12 L126.15,175.00 L127.17,174.22 L127.46,174.00 L128.33,173.33 L128.76,173.00 L129.50,172.43 L130.06,172.00 L130.67,171.52 L131.35,171.00 L131.83,170.61 L132.62,170.00 L133.00,169.70 L133.89,169.00 L134.17,168.78 L135.15,168.00 L135.33,167.85 L136.40,167.00 L136.50,166.92 L137.64,166.00 L137.67,165.98 L138.83,165.02 L138.86,165.00 L140.00,164.06 L140.07,164.00 L141.17,163.08 L141.27,163.00 L142.33,162.09 L142.44,162.00 L143.50,161.08 L143.60,161.00 L144.67,160.06 L144.74,160.00 L145.83,159.01 L145.85,159.00 L146.93,158.00 L147.00,157.93 L147.98,157.00 L148.17,156.82 L149.01,156.00 L149.33,155.66 L149.99,155.00 L150.50,154.44 L150.92,154.00 L151.67,153.15 L151.81,153.00 L152.64,152.00 L152.83,151.75 L153.42,151.00 L154.00,150.17 L154.12,150.00 L154.76,149.00 L155.17,148.24 L155.31,148.00 L155.77,147.00 L156.14,146.00 L156.33,145.24 L156.40,145.00 L156.57,144.00 L156.62,143.00 L156.57,142.00 L156.40,141.00 L156.33,140.76 L156.14,140.00 L155.77,139.00 L155.31,138.00 L155.17,137.76 L154.76,137.00 L154.12,136.00 L154.00,135.83 L153.42,135.00 L152.83,134.25 L152.64,134.00 L151.81,133.00 L151.67,132.85 L150.92,132.00 L150.50,131.56 L149.99,131.00 L149.33,130.34 L149.01,130.00 L148.17,129.18 L147.98,129.00 L147.00,128.07 L146.93,128.00 L145.85,127.00 L145.83,126.99 L144.74,126.00 L144.67,125.94 L143.60,125.00 L143.50,124.92 L142.44,124.00 L142.33,123.91 L141.27,123.00 L141.17,122.92 L140.07,122.00 L140.00,121.94 L138.86,121.00 L138.83,120.98 L137.67,120.02 L137.64,120.00 L136.50,119.08 L136.40,119.00 L135.33,118.15 L135.15,118.00 L134.17,117.22 L133.89,117.00 L133.00,116.30 L132.62,116.00 L131.83,115.39 L131.35,115.00 L130.67,114.48 L130.06,114.00 L129.50,113.57 L128.76,113.00 L128.33,112.67 L127.46,112.00 L127.17,111.78 L126.15,111.00 L126.00,110.88 L124.84,110.00 L124.83,109.99 L123.67,109.11 L123.52,109.00 L122.50,108.23 L122.20,108.00 L121.33,107.35 L120.87,107.00 L120.17,106.47 L119.54,106.00 L119.00,105.60 L118.20,105.00 L117.83,104.73 L116.86,104.00 L116.67,103.86 L115.52,103.00 L115.50,102.99 L114.33,102.12 L114.17,102.00 L113.17,101.26 L112.83,101.00 L112.00,100.39 L111.47,100.00 L110.83,99.53 L110.12,99.00 L109.67,98.67 L108.76,98.00 L108.50,97.81 L107.40,97.00 L107.33,96.95 L106.17,96.10 L106.04,96.00 L105.00,95.24 L104.67,95.00 L103.83,94.39 L103.31,94.00 L102.67,93.53 L101.94,93.00 L101.50,92.68 L100.57,92.00 L100.33,91.83 L99.20,91.00 L99.17,90.98 L98.00,90.13 L97.83,90.00 L96.83,89.28 L96.45,89.00 L95.67,88.43 L95.08,88.00 L94.50,87.58 L93.70,87.00 L93.33,86.74 L92.32,86.00 L92.17,85.89 L91.00,85.04 L90.94,85.00 L89.83,84.20 L89.56,84.00 L88.67,83.36 L88.18,83.00 L87.50,82.51 L86.80,82.00 L86.33,81.67 L85.41,81.00 L85.17,80.82 L84.03,80.00 L84.00,79.98 L82.83,79.14 L82.64,79.00 L81.67,78.30 L81.26,78.00 L80.50,77.46 L79.87,77.00 L79.33,76.62 L78.48,76.00 L78.17,75.78 L77.09,75.00 L77.00,74.93 L75.83,74.09 L75.70,74.00 L74.67,73.26 L74.31,73.00 L73.50,72.42 L72.92,72.00 L72.33,71.58 L71.53,71.00 L71.17,70.74 L70.14,70.00 L70.00,69.90 L68.83,69.06 L68.75,69.00 L67.67,68.23 L67.35,68.00 L66.50,67.39 L65.96,67.00 L65.33,66.55 L64.57,66.00 L64.17,65.72 L63.17,65.00 L63.00,64.88 L61.83,64.04 L61.77,64.00 L60.67,63.21 L60.38,63.00 L59.50,62.37 L58.98,62.00 L58.33,61.54 L57.59,61.00 L57.17,60.70 L56.19,60.00 L56.00,59.87 L54.83,59.03 L54.79,59.00 L53.67,58.20 L53.40,58.00 L52.50,57.36 L52.00,57.00 L51.33,56.53 L50.60,56.00 L50.17,55.69 L49.20,55.00 L49.00,54.86 L47.83,54.02 L47.80,54.00 L46.67,53.19 L46.40,53.00 L45.50,52.36 L45.00,52.00 L44.33,51.53 L43.60,51.00 L43.17,50.69 L42.20,50.00 L42.00,49.86 L40.83,49.02 L40.80,49.00 L39.67,48.19 L39.40,48.00 L38.50,47.36 L38.00,47.00 L37.33,46.53 L36.60,46.00 L36.17,45.70 L35.19,45.00 L35.00,44.86 L33.83,44.03 L33.79,44.00 L32.67,43.20 L32.39,43.00 L31.50,42.37 L30.99,42.00 L30.33,41.54 L29.58,41.00 L29.17,40.70 L28.18,40.00 L28.00,39.87 L26.83,39.04 L26.78,39.00 L25.67,38.21 L25.37,38.00 L24.50,37.38 L23.97,37.00 L23.33,36.55 L22.57,36.00 L22.17,35.72 L21.16,35.00 L21.00,34.88 L19.83,34.05 L19.76,34.00 L18.67,33.22 L18.35,33.00 L17.50,32.39 L16.95,32.00 L16.33,31.56 L15.55,31.00 L15.17,30.73 L14.14,30.00 L14.00,29.90 L12.83,29.07 L12.74,29.00 L11.67,28.24 L11.33,28.00 L10.50,27.41 L9.93,27.00 L9.33,26.58 L8.52,26.00 L8.17,25.75 L7.11,25.00 L7.00,24.92 L5.83,24.09 L5.71,24.00 L4.67,23.26 L4.30,23.00 L3.50,22.43 L2.90,22.00 L2.33,21.60 L1.49,21.00 L1.17,20.77 L0.08,20.00 L0.00,19.94 M193.60,145.00 L193.67,145.24 L193.86,146.00 L194.23,147.00 L194.69,148.00 L194.83,148.24 L195.24,149.00 L195.88,150.00 L196.00,150.17 L196.58,151.00 L197.17,151.75 L197.36,152.00 L198.19,153.00 L198.33,153.15 L199.08,154.00 L199.50,154.44 L200.01,155.00 L200.67,155.66 L200.99,156.00 L201.83,156.82 L202.02,157.00 L203.00,157.93 L203.07,158.00 L204.15,159.00 L204.17,159.01 L205.26,160.00 L205.33,160.06 L206.40,161.00 L206.50,161.08 L207.56,162.00 L207.67,162.09 L208.73,163.00 L208.83,163.08 L209.93,164.00 L210.00,164.06 L211.14,165.00 L211.17,165.02 L212.33,165.98 L212.36,166.00 L213.50,166.92 L213.60,167.00 L214.67,167.85 L214.85,168.00 L215.83,168.78 L216.11,169.00 L217.00,169.70 L217.38,170.00 L218.17,170.61 L218.65,171.00 L219.33,171.52 L219.94,172.00 L220.50,172.43 L221.24,173.00 L221.67,173.33 L222.54,174.00 L222.83,174.22 L223.85,175.00 L224.00,175.12 L225.16,176.00 L225.17,176.01 L226.33,176.89 L226.48,177.00 L227.50,177.77 L227.80,178.00 L228.67,178.65 L229.13,179.00 L229.83,179.53 L230.46,180.00 L231.00,180.40 L231.80,181.00 L232.17,181.27 L233.14,182.00 L233.33,182.14 L234.48,183.00 L234.50,183.01 L235.67,183.88 L235.83,184.00 L236.83,184.74 L237.17,185.00 L238.00,185.61 L238.53,186.00 L239.17,186.47 L239.88,187.00 L240.33,187.33 L241.24,188.00 L241.50,188.19 L242.60,189.00 L242.67,189.05 L243.83,189.90 L243.96,190.00 L245.00,190.76 L245.33,191.00 L246.17,191.61 L246.69,192.00 L247.33,192.47 L248.06,193.00 L248.50,193.32 L249.43,194.00 L249.67,194.17 L250.80,195.00 L250.83,195.02 L252.00,195.87 L252.17,196.00 L253.17,196.72 L253.55,197.00 L254.33,197.57 L254.92,198.00 L255.50,198.42 L256.30,199.00 L256.67,199.26 L257.68,200.00 L257.83,200.11 L259.00,200.96 L259.06,201.00 L260.17,201.80 L260.44,202.00 L261.33,202.64 L261.82,203.00 L262.50,203.49 L263.20,204.00 L263.67,204.33 L264.59,205.00 L264.83,205.18 L265.97,206.00 L266.00,206.02 L267.17,206.86 L267.36,207.00 L268.33,207.70 L268.74,208.00 L269.50,208.54 L270.13,209.00 L270.67,209.38 L271.52,210.00 L271.83,210.22 L272.91,211.00 L273.00,211.07 L274.17,211.91 L274.30,212.00 L275.33,212.74 L275.69,213.00 L276.50,213.58 L277.08,214.00 L277.67,214.42 L278.47,215.00 L278.83,215.26 L279.86,216.00 L280.00,216.10 L281.17,216.94 L281.25,217.00 L282.33,217.77 L282.65,218.00 L283.50,218.61 L284.04,219.00 L284.67,219.45 L285.43,220.00 L285.83,220.28 L286.83,221.00 L287.00,221.12 L288.17,221.96 L288.23,222.00 L289.33,222.79 L289.62,223.00 L290.50,223.63 L291.02,224.00 L291.67,224.46 L292.41,225.00 L292.83,225.30 L293.81,226.00 L294.00,226.13 L295.17,226.97 L295.21,227.00 L296.33,227.80 L296.60,228.00 L297.50,228.64 L298.00,229.00 L298.67,229.47 L299.40,230.00 L299.83,230.31 L300.80,231.00 L301.00,231.14 L302.17,231.98 L302.20,232.00 L303.33,232.81 L303.60,233.00 L304.50,233.64 L305.00,234.00 L305.67,234.47 L306.40,235.00 L306.83,235.31 L307.80,236.00 L308.00,236.14 L309.17,236.98 L309.20,237.00 L310.33,237.81 L310.60,238.00 L311.50,238.64 L312.00,239.00 L312.67,239.47 L313.40,240.00 L313.83,240.30 L314.81,241.00 L315.00,241.14 L316.17,241.97 L316.21,242.00 L317.33,242.80 L317.61,243.00 L318.50,243.63 L319.01,244.00 L319.67,244.46 L320.42,245.00 L320.83,245.30 L321.82,246.00 L322.00,246.13 L323.17,246.96 L323.22,247.00 L324.33,247.79 L324.63,248.00 L325.50,248.62 L326.03,249.00 L326.67,249.45 L327.43,250.00 L327.83,250.28 L328.84,251.00 L329.00,251.12 L330.17,251.95 L330.24,252.00 L331.33,252.78 L331.65,253.00 L332.50,253.61 L333.05,254.00 L333.67,254.44 L334.45,255.00 L334.83,255.27 L335.86,256.00 L336.00,256.10 L337.17,256.93 L337.26,257.00 L338.33,257.76 L338.67,258.00 L339.50,258.59 L340.07,259.00 L340.67,259.42 L341.48,260.00 L341.83,260.25 L342.89,261.00 L343.00,261.08 L344.17,261.91 L344.29,262.00 L345.33,262.74 L345.70,263.00 L346.50,263.57 L347.10,264.00 L347.67,264.40 L348.51,265.00 L348.83,265.23 M193.43,144.00 L193.60,145.00 M193.38,143.00 L193.43,144.00 M193.43,142.00 L193.38,143.00 M193.60,141.00 L193.43,142.00 M193.67,140.76 L193.60,141.00 M193.86,140.00 L193.67,140.76 M194.23,139.00 L193.86,140.00 M194.69,138.00 L194.23,139.00 M194.83,137.76 L194.69,138.00 M195.24,137.00 L194.83,137.76 M195.88,136.00 L195.24,137.00 M196.00,135.83 L195.88,136.00 M196.58,135.00 L196.00,135.83 M197.17,134.25 L196.58,135.00 M197.36,134.00 L197.17,134.25 M198.19,133.00 L197.36,134.00 M198.33,132.85 L198.19,133.00 M199.08,132.00 L198.33,132.85 M199.50,131.56 L199.08,132.00 M200.01,131.00 L199.50,131.56 M200.67,130.34 L200.01,131.00 M200.99,130.00 L200.67,130.34 M201.83,129.18 L200.99,130.00 M202.02,129.00 L201.83,129.18 M203.00,128.07 L202.02,129.00 M203.07,128.00 L203.00,128.07 M204.15,127.00 L203.07,128.00 M204.17,126.99 L204.15,127.00 M205.26,126.00 L204.17,126.99 M205.33,125.94 L205.26,126.00 M206.40,125.00 L205.33,125.94 M206.50,124.92 L206.40,125.00 M207.56,124.00 L206.50,124.92 M207.67,123.91 L207.56,124.00 M208.73,123.00 L207.67,123.91 M208.83,122.92 L208.73,123.00 M209.93,122.00 L208.83,122.92 M210.00,121.94 L209.93,122.00 M211.14,121.00 L210.00,121.94 M211.17,120.98 L211.14,121.00 M212.33,120.02 L211.17,120.98 M212.36,120.00 L212.33,120.02 M213.50,119.08 L212.36,120.00 M213.60,119.00 L213.50,119.08 M214.67,118.15 L213.60,119.00 M214.85,118.00 L214.67,118.15 M215.83,117.22 L214.85,118.00 M216.11,117.00 L215.83,117.22 M217.00,116.30 L216.11,117.00 M217.38,116.00 L217.00,116.30 M218.17,115.39 L217.38,116.00 M218.65,115.00 L218.17,115.39 M219.33,114.48 L218.65,115.00 M219.94,114.00 L219.33,114.48 M220.50,113.57 L219.94,114.00 M221.24,113.00 L220.50,113.57 M221.67,112.67 L221.24,113.00 M222.54,112.00 L221.67,112.67 M222.83,111.78 L222.54,112.00 M223.85,111.00 L222.83,111.78 M224.00,110.88 L223.85,111.00 M225.16,110.00 L224.00,110.88 M225.17,109.99 L225.16,110.00 M226.33,109.11 L225.17,109.99 M226.48,109.00 L226.33,109.11 M227.50,108.23 L226.48,109.00 M227.80,108.00 L227.50,108.23 M228.67,107.35 L227.80,108.00 M229.13,107.00 L228.67,107.35 M229.83,106.47 L229.13,107.00 M230.46,106.00 L229.83,106.47 M231.00,105.60 L230.46,106.00 M231.80,105.00 L231.00,105.60 M232.17,104.73 L231.80,105.00 M233.14,104.00 L232.17,104.73 M233.33,103.86 L233.14,104.00 M234.48,103.00 L233.33,103.86 M234.50,102.99 L234.48,103.00 M235.67,102.12 L234.50,102.99 M235.83,102.00 L235.67,102.12 M236.83,101.26 L235.83,102.00 M237.17,101.00 L236.83,101.26 M238.00,100.39 L237.17,101.00 M238.53,100.00 L238.00,100.39 M239.17,99.53 L238.53,100.00 M239.88,99.00 L239.17,99.53 M240.33,98.67 L239.88,99.00 M241.24,98.00 L240.33,98.67 M241.50,97.81 L241.24,98.00 M242.60,97.00 L241.50,97.81 M242.67,96.95 L242.60,97.00 M243.83,96.10 L242.67,96.95 M243.96,96.00 L243.83,96.10 M245.00,95.24 L243.96,96.00 M245.33,95.00 L245.00,95.24 M246.17,94.39 L245.33,95.00 M246.69,94.00 L246.17,94.39 M247.33,93.53 L246.69,94.00 M248.06,93.00 L247.33,93.53 M248.50,92.68 L248.06,93.00 M249.43,92.00 L248.50,92.68 M249.67,91.83 L249.43,92.00 M250.80,91.00 L249.67,91.83 M250.83,90.98 L250.80,91.00 M252.00,90.13 L250.83,90.98 M252.17,90.00 L252.00,90.13 M253.17,89.28 L252.17,90.00 M253.55,89.00 L253.17,89.28 M254.33,88.43 L253.55,89.00 M254.92,88.00 L254.33,88.43 M255.50,87.58 L254.92,88.00 M256.30,87.00 L255.50,87.58 M256.67,86.74 L256.30,87.00 M257.68,86.00 L256.67,86.74 M257.83,85.89 L257.68,86.00 M259.00,85.04 L257.83,85.89 M259.06,85.00 L259.00,85.04 M260.17,84.20 L259.06,85.00 M260.44,84.00 L260.17,84.20 M261.33,83.36 L260.44,84.00 M261.82,83.00 L261.33,83.36 M262.50,82.51 L261.82,83.00 M263.20,82.00 L262.50,82.51 M263.67,81.67 L263.20,82.00 M264.59,81.00 L263.67,81.67 M264.83,80.82 L264.59,81.00 M265.97,80.00 L264.83,80.82 M266.00,79.98 L265.97,80.00 M267.17,79.14 L266.00,79.98 M267.36,79.00 L267.17,79.14 M268.33,78.30 L267.36,79.00 M268.74,78.00 L268.33,78.30 M269.50,77.46 L268.74,78.00 M270.13,77.00 L269.50,77.46 M270.67,76.62 L270.13,77.00 M271.52,76.00 L270.67,76.62 M271.83,75.78 L271.52,76.00 M272.91,75.00 L271.83,75.78 M273.00,74.93 L272.91,75.00 M274.17,74.09 L273.00,74.93 M274.30,74.00 L274.17,74.09 M275.33,73.26 L274.30,74.00 M275.69,73.00 L275.33,73.26 M276.50,72.42 L275.69,73.00 M277.08,72.00 L276.50,72.42 M277.67,71.58 L277.08,72.00 M278.47,71.00 L277.67,71.58 M278.83,70.74 L278.47,71.00 M279.86,70.00 L278.83,70.74 M280.00,69.90 L279.86,70.00 M281.17,69.06 L280.00,69.90 M281.25,69.00 L281.17,69.06 M282.33,68.23 L281.25,69.00 M282.65,68.00 L282.33,68.23 M283.50,67.39 L282.65,68.00 M284.04,67.00 L283.50,67.39 M284.67,66.55 L284.04,67.00 M285.43,66.00 L284.67,66.55 M285.83,65.72 L285.43,66.00 M286.83,65.00 L285.83,65.72 M287.00,64.88 L286.83,65.00 M288.17,64.04 L287.00,64.88 M288.23,64.00 L288.17,64.04 M289.33,63.21 L288.23,64.00 M289.62,63.00 L289.33,63.21 M290.50,62.37 L289.62,63.00 M291.02,62.00 L290.50,62.37 M291.67,61.54 L291.02,62.00 M292.41,61.00 L291.67,61.54 M292.83,60.70 L292.41,61.00 M293.81,60.00 L292.83,60.70 M294.00,59.87 L293.81,60.00 M295.17,59.03 L294.00,59.87 M295.21,59.00 L295.17,59.03 M296.33,58.20 L295.21,59.00 M296.60,58.00 L296.33,58.20 M297.50,57.36 L296.60,58.00 M298.00,57.00 L297.50,57.36 M298.67,56.53 L298.00,57.00 M299.40,56.00 L298.67,56.53 M299.83,55.69 L299.40,56.00 M300.80,55.00 L299.83,55.69 M301.00,54.86 L300.80,55.00 M302.17,54.02 L301.00,54.86 M302.20,54.00 L302.17,54.02 M303.33,53.19 L302.20,54.00 M303.60,53.00 L303.33,53.19 M304.50,52.36 L303.60,53.00 M305.00,52.00 L304.50,52.36 M305.67,51.53 L305.00,52.00 M306.40,51.00 L305.67,51.53 M306.83,50.69 L306.40,51.00 M307.80,50.00 L306.83,50.69 M308.00,49.86 L307.80,50.00 M309.17,49.02 L308.00,49.86 M309.20,49.00 L309.17,49.02 M310.33,48.19 L309.20,49.00 M310.60,48.00 L310.33,48.19 M311.50,47.36 L310.60,48.00 M312.00,47.00 L311.50,47.36 M312.67,46.53 L312.00,47.00 M313.40,46.00 L312.67,46.53 M313.83,45.70 L313.40,46.00 M314.81,45.00 L313.83,45.70 M315.00,44.86 L314.81,45.00 M316.17,44.03 L315.00,44.86 M316.21,44.00 L316.17,44.03 M317.33,43.20 L316.21,44.00 M317.61,43.00 L317.33,43.20 M318.50,42.37 L317.61,43.00 M319.01,42.00 L318.50,42.37 M319.67,41.54 L319.01,42.00 M320.42,41.00 L319.67,41.54 M320.83,40.70 L320.42,41.00 M321.82,40.00 L320.83,40.70 M322.00,39.87 L321.82,40.00 M323.17,39.04 L322.00,39.87 M323.22,39.00 L323.17,39.04 M324.33,38.21 L323.22,39.00 M324.63,38.00 L324.33,38.21 M325.50,37.38 L324.63,38.00 M326.03,37.00 L325.50,37.38 M326.67,36.55 L326.03,37.00 M327.43,36.00 L326.67,36.55 M327.83,35.72 L327.43,36.00 M328.84,35.00 L327.83,35.72 M329.00,34.88 L328.84,35.00 M330.17,34.05 L329.00,34.88 M330.24,34.00 L330.17,34.05 M331.33,33.22 L330.24,34.00 M331.65,33.00 L331.33,33.22 M332.50,32.39 L331.65,33.00 M333.05,32.00 L332.50,32.39 M333.67,31.56 L333.05,32.00 M334.45,31.00 L333.67,31.56 M334.83,30.73 L334.45,31.00 M335.86,30.00 L334.83,30.73 M336.00,29.90 L335.86,30.00 M337.17,29.07 L336.00,29.90 M337.26,29.00 L337.17,29.07 M338.33,28.24 L337.26,29.00 M338.67,28.00 L338.33,28.24 M339.50,27.41 L338.67,28.00 M340.07,27.00 L339.50,27.41 M340.67,26.58 L340.07,27.00 M341.48,26.00 L340.67,26.58 M341.83,25.75 L341.48,26.00 M342.89,25.00 L341.83,25.75 M343.00,24.92 L342.89,25.00 M344.17,24.09 L343.00,24.92 M344.29,24.00 L344.17,24.09 M345.33,23.26 L344.29,24.00 M345.70,23.00 L345.33,23.26 M346.50,22.43 L345.70,23.00 M347.10,22.00 L346.50,22.43 M347.67,21.60 L347.10,22.00 M348.51,21.00 L347.67,21.60 M348.83,20.77 L348.51,21.00"
                                  style="stroke-width: 2; stroke: rgb(68, 128, 194); stroke-opacity: 1;" />
                            <path d=" M0.00,259.71 L0.95,259.00 L1.17,258.84 L2.29,258.00 L2.33,257.96 L3.50,257.09 L3.62,257.00 L4.67,256.21 L4.95,256.00 L5.83,255.33 L6.28,255.00 L7.00,254.45 L7.60,254.00 L8.17,253.57 L8.93,253.00 L9.33,252.69 L10.25,252.00 L10.50,251.81 L11.57,251.00 L11.67,250.93 L12.83,250.05 L12.90,250.00 L14.00,249.16 L14.22,249.00 L15.17,248.28 L15.53,248.00 L16.33,247.39 L16.85,247.00 L17.50,246.50 L18.16,246.00 L18.67,245.61 L19.48,245.00 L19.83,244.73 L20.79,244.00 L21.00,243.84 L22.10,243.00 L22.17,242.94 L23.33,242.05 L23.40,242.00 L24.50,241.16 L24.71,241.00 L25.67,240.26 L26.01,240.00 L26.83,239.37 L27.31,239.00 L28.00,238.47 L28.61,238.00 L29.17,237.57 L29.91,237.00 L30.33,236.67 L31.20,236.00 L31.50,235.77 L32.49,235.00 L32.67,234.87 L33.78,234.00 L33.83,233.96 L35.00,233.06 L35.07,233.00 L36.17,232.15 L36.36,232.00 L37.33,231.24 L37.64,231.00 L38.50,230.33 L38.92,230.00 L39.67,229.41 L40.20,229.00 L40.83,228.50 L41.47,228.00 L42.00,227.58 L42.74,227.00 L43.17,226.66 L44.01,226.00 L44.33,225.74 L45.28,225.00 L45.50,224.82 L46.54,224.00 L46.67,223.90 L47.80,223.00 L47.83,222.97 L49.00,222.04 L49.06,222.00 L50.17,221.11 L50.31,221.00 L51.33,220.18 L51.56,220.00 L52.50,219.24 L52.80,219.00 L53.67,218.30 L54.05,218.00 L54.83,217.36 L55.29,217.00 L56.00,216.42 L56.52,216.00 L57.17,215.47 L57.75,215.00 L58.33,214.52 L58.98,214.00 L59.50,213.57 L60.20,213.00 L60.67,212.61 L61.41,212.00 L61.83,211.65 L62.63,211.00 L63.00,210.69 L63.83,210.00 L64.17,209.72 L65.04,209.00 L65.33,208.75 L66.24,208.00 L66.50,207.78 L67.43,207.00 L67.67,206.80 L68.61,206.00 L68.83,205.81 L69.80,205.00 L70.00,204.83 L70.97,204.00 L71.17,203.83 L72.14,203.00 L72.33,202.83 L73.31,202.00 L73.50,201.83 L74.46,201.00 L74.67,200.82 L75.61,200.00 L75.83,199.81 L76.76,199.00 L77.00,198.78 L77.89,198.00 L78.17,197.76 L79.02,197.00 L79.33,196.72 L80.14,196.00 L80.50,195.68 L81.26,195.00 L81.67,194.63 L82.36,194.00 L82.83,193.57 L83.46,193.00 L84.00,192.50 L84.55,192.00 L85.17,191.42 L85.63,191.00 L86.33,190.34 L86.70,190.00 L87.50,189.24 L87.75,189.00 L88.67,188.13 L88.80,188.00 L89.83,187.01 L89.84,187.00 L90.87,186.00 L91.00,185.87 L91.89,185.00 L92.17,184.72 L92.89,184.00 L93.33,183.55 L93.88,183.00 L94.50,182.37 L94.86,182.00 L95.67,181.17 L95.83,181.00 L96.78,180.00 L96.83,179.95 L97.72,179.00 L98.00,178.70 L98.65,178.00 L99.17,177.43 L99.56,177.00 L100.33,176.13 L100.45,176.00 L101.33,175.00 L101.50,174.80 L102.19,174.00 L102.67,173.43 L103.03,173.00 L103.83,172.02 L103.85,172.00 L104.66,171.00 L105.00,170.56 L105.45,170.00 L106.17,169.06 L106.21,169.00 L106.96,168.00 L107.33,167.48 L107.68,167.00 L108.38,166.00 L108.50,165.82 L109.06,165.00 L109.67,164.07 L109.72,164.00 L110.35,163.00 L110.83,162.20 L110.95,162.00 L111.54,161.00 L112.00,160.16 L112.09,160.00 L112.62,159.00 L113.11,158.00 L113.17,157.89 L113.59,157.00 L114.03,156.00 L114.33,155.25 L114.44,155.00 L114.82,154.00 L115.17,153.00 L115.49,152.00 L115.50,151.95 L115.77,151.00 L116.03,150.00 L116.25,149.00 L116.44,148.00 L116.59,147.00 L116.67,146.34 L116.71,146.00 L116.79,145.00 L116.85,144.00 L116.86,143.00 L116.85,142.00 L116.79,141.00 L116.71,140.00 L116.67,139.66 L116.59,139.00 L116.44,138.00 L116.25,137.00 L116.03,136.00 L115.77,135.00 L115.50,134.05 L115.49,134.00 L115.17,133.00 L114.82,132.00 L114.44,131.00 L114.33,130.75 L114.03,130.00 L113.59,129.00 L113.17,128.11 L113.11,128.00 L112.62,127.00 L112.09,126.00 L112.00,125.84 L111.54,125.00 L110.95,124.00 L110.83,123.80 L110.35,123.00 L109.72,122.00 L109.67,121.93 L109.06,121.00 L108.50,120.17 L108.38,120.00 L107.68,119.00 L107.33,118.52 L106.96,118.00 L106.21,117.00 L106.17,116.94 L105.45,116.00 L105.00,115.44 L104.66,115.00 L103.85,114.00 L103.83,113.98 L103.03,113.00 L102.67,112.57 L102.19,112.00 L101.50,111.20 L101.33,111.00 L100.45,110.00 L100.33,109.87 L99.56,109.00 L99.17,108.57 L98.65,108.00 L98.00,107.30 L97.72,107.00 L96.83,106.05 L96.78,106.00 L95.83,105.00 L95.67,104.83 L94.86,104.00 L94.50,103.63 L93.88,103.00 L93.33,102.45 L92.89,102.00 L92.17,101.28 L91.89,101.00 L91.00,100.13 L90.87,100.00 L89.84,99.00 L89.83,98.99 L88.80,98.00 L88.67,97.87 L87.75,97.00 L87.50,96.76 L86.70,96.00 L86.33,95.66 L85.63,95.00 L85.17,94.58 L84.55,94.00 L84.00,93.50 L83.46,93.00 L82.83,92.43 L82.36,92.00 L81.67,91.37 L81.26,91.00 L80.50,90.32 L80.14,90.00 L79.33,89.28 L79.02,89.00 L78.17,88.24 L77.89,88.00 L77.00,87.22 L76.76,87.00 L75.83,86.19 L75.61,86.00 L74.67,85.18 L74.46,85.00 L73.50,84.17 L73.31,84.00 L72.33,83.17 L72.14,83.00 L71.17,82.17 L70.97,82.00 L70.00,81.17 L69.80,81.00 L68.83,80.19 L68.61,80.00 L67.67,79.20 L67.43,79.00 L66.50,78.22 L66.24,78.00 L65.33,77.25 L65.04,77.00 L64.17,76.28 L63.83,76.00 L63.00,75.31 L62.63,75.00 L61.83,74.35 L61.41,74.00 L60.67,73.39 L60.20,73.00 L59.50,72.43 L58.98,72.00 L58.33,71.48 L57.75,71.00 L57.17,70.53 L56.52,70.00 L56.00,69.58 L55.29,69.00 L54.83,68.64 L54.05,68.00 L53.67,67.70 L52.80,67.00 L52.50,66.76 L51.56,66.00 L51.33,65.82 L50.31,65.00 L50.17,64.89 L49.06,64.00 L49.00,63.96 L47.83,63.03 L47.80,63.00 L46.67,62.10 L46.54,62.00 L45.50,61.18 L45.28,61.00 L44.33,60.26 L44.01,60.00 L43.17,59.34 L42.74,59.00 L42.00,58.42 L41.47,58.00 L40.83,57.50 L40.20,57.00 L39.67,56.59 L38.92,56.00 L38.50,55.67 L37.64,55.00 L37.33,54.76 L36.36,54.00 L36.17,53.85 L35.07,53.00 L35.00,52.94 L33.83,52.04 L33.78,52.00 L32.67,51.13 L32.49,51.00 L31.50,50.23 L31.20,50.00 L30.33,49.33 L29.91,49.00 L29.17,48.43 L28.61,48.00 L28.00,47.53 L27.31,47.00 L26.83,46.63 L26.01,46.00 L25.67,45.74 L24.71,45.00 L24.50,44.84 L23.40,44.00 L23.33,43.95 L22.17,43.06 L22.10,43.00 L21.00,42.16 L20.79,42.00 L19.83,41.27 L19.48,41.00 L18.67,40.39 L18.16,40.00 L17.50,39.50 L16.85,39.00 L16.33,38.61 L15.53,38.00 L15.17,37.72 L14.22,37.00 L14.00,36.84 L12.90,36.00 L12.83,35.95 L11.67,35.07 L11.57,35.00 L10.50,34.19 L10.25,34.00 L9.33,33.31 L8.93,33.00 L8.17,32.43 L7.60,32.00 L7.00,31.55 L6.28,31.00 L5.83,30.67 L4.95,30.00 L4.67,29.79 L3.62,29.00 L3.50,28.91 L2.33,28.04 L2.29,28.00 L1.17,27.16 L0.95,27.00 L0.00,26.29 M233.29,146.00 L233.33,146.34 L233.41,147.00 L233.56,148.00 L233.75,149.00 L233.97,150.00 L234.23,151.00 L234.50,151.95 L234.51,152.00 L234.83,153.00 L235.18,154.00 L235.56,155.00 L235.67,155.25 L235.97,156.00 L236.41,157.00 L236.83,157.89 L236.89,158.00 L237.38,159.00 L237.91,160.00 L238.00,160.16 L238.46,161.00 L239.05,162.00 L239.17,162.20 L239.65,163.00 L240.28,164.00 L240.33,164.07 L240.94,165.00 L241.50,165.82 L241.62,166.00 L242.32,167.00 L242.67,167.48 L243.04,168.00 L243.79,169.00 L243.83,169.06 L244.55,170.00 L245.00,170.56 L245.34,171.00 L246.15,172.00 L246.17,172.02 L246.97,173.00 L247.33,173.43 L247.81,174.00 L248.50,174.80 L248.67,175.00 L249.55,176.00 L249.67,176.13 L250.44,177.00 L250.83,177.43 L251.35,178.00 L252.00,178.70 L252.28,179.00 L253.17,179.95 L253.22,180.00 L254.17,181.00 L254.33,181.17 L255.14,182.00 L255.50,182.37 L256.12,183.00 L256.67,183.55 L257.11,184.00 L257.83,184.72 L258.11,185.00 L259.00,185.87 L259.13,186.00 L260.16,187.00 L260.17,187.01 L261.20,188.00 L261.33,188.13 L262.25,189.00 L262.50,189.24 L263.30,190.00 L263.67,190.34 L264.37,191.00 L264.83,191.42 L265.45,192.00 L266.00,192.50 L266.54,193.00 L267.17,193.57 L267.64,194.00 L268.33,194.63 L268.74,195.00 L269.50,195.68 L269.86,196.00 L270.67,196.72 L270.98,197.00 L271.83,197.76 L272.11,198.00 L273.00,198.78 L273.24,199.00 L274.17,199.81 L274.39,200.00 L275.33,200.82 L275.54,201.00 L276.50,201.83 L276.69,202.00 L277.67,202.83 L277.86,203.00 L278.83,203.83 L279.03,204.00 L280.00,204.83 L280.20,205.00 L281.17,205.81 L281.39,206.00 L282.33,206.80 L282.57,207.00 L283.50,207.78 L283.76,208.00 L284.67,208.75 L284.96,209.00 L285.83,209.72 L286.17,210.00 L287.00,210.69 L287.37,211.00 L288.17,211.65 L288.59,212.00 L289.33,212.61 L289.80,213.00 L290.50,213.57 L291.02,214.00 L291.67,214.52 L292.25,215.00 L292.83,215.47 L293.48,216.00 L294.00,216.42 L294.71,217.00 L295.17,217.36 L295.95,218.00 L296.33,218.30 L297.20,219.00 L297.50,219.24 L298.44,220.00 L298.67,220.18 L299.69,221.00 L299.83,221.11 L300.94,222.00 L301.00,222.04 L302.17,222.97 L302.20,223.00 L303.33,223.90 L303.46,224.00 L304.50,224.82 L304.72,225.00 L305.67,225.74 L305.99,226.00 L306.83,226.66 L307.26,227.00 L308.00,227.58 L308.53,228.00 L309.17,228.50 L309.80,229.00 L310.33,229.41 L311.08,230.00 L311.50,230.33 L312.36,231.00 L312.67,231.24 L313.64,232.00 L313.83,232.15 L314.93,233.00 L315.00,233.06 L316.17,233.96 L316.22,234.00 L317.33,234.87 L317.51,235.00 L318.50,235.77 L318.80,236.00 L319.67,236.67 L320.09,237.00 L320.83,237.57 L321.39,238.00 L322.00,238.47 L322.69,239.00 L323.17,239.37 L323.99,240.00 L324.33,240.26 L325.29,241.00 L325.50,241.16 L326.60,242.00 L326.67,242.05 L327.83,242.94 L327.90,243.00 L329.00,243.84 L329.21,244.00 L330.17,244.73 L330.52,245.00 L331.33,245.61 L331.84,246.00 L332.50,246.50 L333.15,247.00 L333.67,247.39 L334.47,248.00 L334.83,248.28 L335.78,249.00 L336.00,249.16 L337.10,250.00 L337.17,250.05 L338.33,250.93 L338.43,251.00 L339.50,251.81 L339.75,252.00 L340.67,252.69 L341.07,253.00 L341.83,253.57 L342.40,254.00 L343.00,254.45 L343.72,255.00 L344.17,255.33 L345.05,256.00 L345.33,256.21 L346.38,257.00 L346.50,257.09 L347.67,257.96 L347.71,258.00 L348.83,258.84 M233.21,145.00 L233.29,146.00 M233.15,144.00 L233.21,145.00 M233.14,143.00 L233.15,144.00 M233.15,142.00 L233.14,143.00 M233.21,141.00 L233.15,142.00 M233.29,140.00 L233.21,141.00 M233.33,139.66 L233.29,140.00 M233.41,139.00 L233.33,139.66 M233.56,138.00 L233.41,139.00 M233.75,137.00 L233.56,138.00 M233.97,136.00 L233.75,137.00 M234.23,135.00 L233.97,136.00 M234.50,134.05 L234.23,135.00 M234.51,134.00 L234.50,134.05 M234.83,133.00 L234.51,134.00 M235.18,132.00 L234.83,133.00 M235.56,131.00 L235.18,132.00 M235.67,130.75 L235.56,131.00 M235.97,130.00 L235.67,130.75 M236.41,129.00 L235.97,130.00 M236.83,128.11 L236.41,129.00 M236.89,128.00 L236.83,128.11 M237.38,127.00 L236.89,128.00 M237.91,126.00 L237.38,127.00 M238.00,125.84 L237.91,126.00 M238.46,125.00 L238.00,125.84 M239.05,124.00 L238.46,125.00 M239.17,123.80 L239.05,124.00 M239.65,123.00 L239.17,123.80 M240.28,122.00 L239.65,123.00 M240.33,121.93 L240.28,122.00 M240.94,121.00 L240.33,121.93 M241.50,120.17 L240.94,121.00 M241.62,120.00 L241.50,120.17 M242.32,119.00 L241.62,120.00 M242.67,118.52 L242.32,119.00 M243.04,118.00 L242.67,118.52 M243.79,117.00 L243.04,118.00 M243.83,116.94 L243.79,117.00 M244.55,116.00 L243.83,116.94 M245.00,115.44 L244.55,116.00 M245.34,115.00 L245.00,115.44 M246.15,114.00 L245.34,115.00 M246.17,113.98 L246.15,114.00 M246.97,113.00 L246.17,113.98 M247.33,112.57 L246.97,113.00 M247.81,112.00 L247.33,112.57 M248.50,111.20 L247.81,112.00 M248.67,111.00 L248.50,111.20 M249.55,110.00 L248.67,111.00 M249.67,109.87 L249.55,110.00 M250.44,109.00 L249.67,109.87 M250.83,108.57 L250.44,109.00 M251.35,108.00 L250.83,108.57 M252.00,107.30 L251.35,108.00 M252.28,107.00 L252.00,107.30 M253.17,106.05 L252.28,107.00 M253.22,106.00 L253.17,106.05 M254.17,105.00 L253.22,106.00 M254.33,104.83 L254.17,105.00 M255.14,104.00 L254.33,104.83 M255.50,103.63 L255.14,104.00 M256.12,103.00 L255.50,103.63 M256.67,102.45 L256.12,103.00 M257.11,102.00 L256.67,102.45 M257.83,101.28 L257.11,102.00 M258.11,101.00 L257.83,101.28 M259.00,100.13 L258.11,101.00 M259.13,100.00 L259.00,100.13 M260.16,99.00 L259.13,100.00 M260.17,98.99 L260.16,99.00 M261.20,98.00 L260.17,98.99 M261.33,97.87 L261.20,98.00 M262.25,97.00 L261.33,97.87 M262.50,96.76 L262.25,97.00 M263.30,96.00 L262.50,96.76 M263.67,95.66 L263.30,96.00 M264.37,95.00 L263.67,95.66 M264.83,94.58 L264.37,95.00 M265.45,94.00 L264.83,94.58 M266.00,93.50 L265.45,94.00 M266.54,93.00 L266.00,93.50 M267.17,92.43 L266.54,93.00 M267.64,92.00 L267.17,92.43 M268.33,91.37 L267.64,92.00 M268.74,91.00 L268.33,91.37 M269.50,90.32 L268.74,91.00 M269.86,90.00 L269.50,90.32 M270.67,89.28 L269.86,90.00 M270.98,89.00 L270.67,89.28 M271.83,88.24 L270.98,89.00 M272.11,88.00 L271.83,88.24 M273.00,87.22 L272.11,88.00 M273.24,87.00 L273.00,87.22 M274.17,86.19 L273.24,87.00 M274.39,86.00 L274.17,86.19 M275.33,85.18 L274.39,86.00 M275.54,85.00 L275.33,85.18 M276.50,84.17 L275.54,85.00 M276.69,84.00 L276.50,84.17 M277.67,83.17 L276.69,84.00 M277.86,83.00 L277.67,83.17 M278.83,82.17 L277.86,83.00 M279.03,82.00 L278.83,82.17 M280.00,81.17 L279.03,82.00 M280.20,81.00 L280.00,81.17 M281.17,80.19 L280.20,81.00 M281.39,80.00 L281.17,80.19 M282.33,79.20 L281.39,80.00 M282.57,79.00 L282.33,79.20 M283.50,78.22 L282.57,79.00 M283.76,78.00 L283.50,78.22 M284.67,77.25 L283.76,78.00 M284.96,77.00 L284.67,77.25 M285.83,76.28 L284.96,77.00 M286.17,76.00 L285.83,76.28 M287.00,75.31 L286.17,76.00 M287.37,75.00 L287.00,75.31 M288.17,74.35 L287.37,75.00 M288.59,74.00 L288.17,74.35 M289.33,73.39 L288.59,74.00 M289.80,73.00 L289.33,73.39 M290.50,72.43 L289.80,73.00 M291.02,72.00 L290.50,72.43 M291.67,71.48 L291.02,72.00 M292.25,71.00 L291.67,71.48 M292.83,70.53 L292.25,71.00 M293.48,70.00 L292.83,70.53 M294.00,69.58 L293.48,70.00 M294.71,69.00 L294.00,69.58 M295.17,68.64 L294.71,69.00 M295.95,68.00 L295.17,68.64 M296.33,67.70 L295.95,68.00 M297.20,67.00 L296.33,67.70 M297.50,66.76 L297.20,67.00 M298.44,66.00 L297.50,66.76 M298.67,65.82 L298.44,66.00 M299.69,65.00 L298.67,65.82 M299.83,64.89 L299.69,65.00 M300.94,64.00 L299.83,64.89 M301.00,63.96 L300.94,64.00 M302.17,63.03 L301.00,63.96 M302.20,63.00 L302.17,63.03 M303.33,62.10 L302.20,63.00 M303.46,62.00 L303.33,62.10 M304.50,61.18 L303.46,62.00 M304.72,61.00 L304.50,61.18 M305.67,60.26 L304.72,61.00 M305.99,60.00 L305.67,60.26 M306.83,59.34 L305.99,60.00 M307.26,59.00 L306.83,59.34 M308.00,58.42 L307.26,59.00 M308.53,58.00 L308.00,58.42 M309.17,57.50 L308.53,58.00 M309.80,57.00 L309.17,57.50 M310.33,56.59 L309.80,57.00 M311.08,56.00 L310.33,56.59 M311.50,55.67 L311.08,56.00 M312.36,55.00 L311.50,55.67 M312.67,54.76 L312.36,55.00 M313.64,54.00 L312.67,54.76 M313.83,53.85 L313.64,54.00 M314.93,53.00 L313.83,53.85 M315.00,52.94 L314.93,53.00 M316.17,52.04 L315.00,52.94 M316.22,52.00 L316.17,52.04 M317.33,51.13 L316.22,52.00 M317.51,51.00 L317.33,51.13 M318.50,50.23 L317.51,51.00 M318.80,50.00 L318.50,50.23 M319.67,49.33 L318.80,50.00 M320.09,49.00 L319.67,49.33 M320.83,48.43 L320.09,49.00 M321.39,48.00 L320.83,48.43 M322.00,47.53 L321.39,48.00 M322.69,47.00 L322.00,47.53 M323.17,46.63 L322.69,47.00 M323.99,46.00 L323.17,46.63 M324.33,45.74 L323.99,46.00 M325.29,45.00 L324.33,45.74 M325.50,44.84 L325.29,45.00 M326.60,44.00 L325.50,44.84 M326.67,43.95 L326.60,44.00 M327.83,43.06 L326.67,43.95 M327.90,43.00 L327.83,43.06 M329.00,42.16 L327.90,43.00 M329.21,42.00 L329.00,42.16 M330.17,41.27 L329.21,42.00 M330.52,41.00 L330.17,41.27 M331.33,40.39 L330.52,41.00 M331.84,40.00 L331.33,40.39 M332.50,39.50 L331.84,40.00 M333.15,39.00 L332.50,39.50 M333.67,38.61 L333.15,39.00 M334.47,38.00 L333.67,38.61 M334.83,37.72 L334.47,38.00 M335.78,37.00 L334.83,37.72 M336.00,36.84 L335.78,37.00 M337.10,36.00 L336.00,36.84 M337.17,35.95 L337.10,36.00 M338.33,35.07 L337.17,35.95 M338.43,35.00 L338.33,35.07 M339.50,34.19 L338.43,35.00 M339.75,34.00 L339.50,34.19 M340.67,33.31 L339.75,34.00 M341.07,33.00 L340.67,33.31 M341.83,32.43 L341.07,33.00 M342.40,32.00 L341.83,32.43 M343.00,31.55 L342.40,32.00 M343.72,31.00 L343.00,31.55 M344.17,30.67 L343.72,31.00 M345.05,30.00 L344.17,30.67 M345.33,29.79 L345.05,30.00 M346.38,29.00 L345.33,29.79 M346.50,28.91 L346.38,29.00 M347.67,28.04 L346.50,28.91 M347.71,28.00 L347.67,28.04 M348.83,27.16 L347.71,28.00"
                                  style="stroke-width: 2; stroke: rgb(60, 180, 75); stroke-opacity: 1;" />
                            <path d=" M0.00,252.24 L0.30,252.00 L1.17,251.30 L1.54,251.00 L2.33,250.36 L2.79,250.00 L3.50,249.42 L4.03,249.00 L4.67,248.48 L5.27,248.00 L5.83,247.54 L6.50,247.00 L7.00,246.59 L7.73,246.00 L8.17,245.65 L8.96,245.00 L9.33,244.70 L10.19,244.00 L10.50,243.75 L11.42,243.00 L11.67,242.79 L12.64,242.00 L12.83,241.84 L13.85,241.00 L14.00,240.88 L15.07,240.00 L15.17,239.92 L16.28,239.00 L16.33,238.96 L17.49,238.00 L17.50,237.99 L18.67,237.02 L18.69,237.00 L19.83,236.05 L19.89,236.00 L21.00,235.08 L21.09,235.00 L22.17,234.10 L22.28,234.00 L23.33,233.12 L23.47,233.00 L24.50,232.13 L24.66,232.00 L25.67,231.15 L25.84,231.00 L26.83,230.16 L27.02,230.00 L28.00,229.16 L28.19,229.00 L29.17,228.17 L29.36,228.00 L30.33,227.17 L30.53,227.00 L31.50,226.16 L31.69,226.00 L32.67,225.15 L32.85,225.00 L33.83,224.14 L34.00,224.00 L35.00,223.12 L35.14,223.00 L36.17,222.10 L36.28,222.00 L37.33,221.08 L37.42,221.00 L38.50,220.05 L38.55,220.00 L39.67,219.01 L39.68,219.00 L40.80,218.00 L40.83,217.97 L41.91,217.00 L42.00,216.92 L43.02,216.00 L43.17,215.87 L44.13,215.00 L44.33,214.81 L45.22,214.00 L45.50,213.75 L46.32,213.00 L46.67,212.67 L47.40,212.00 L47.83,211.60 L48.48,211.00 L49.00,210.51 L49.55,210.00 L50.17,209.42 L50.61,209.00 L51.33,208.32 L51.67,208.00 L52.50,207.21 L52.72,207.00 L53.67,206.09 L53.77,206.00 L54.80,205.00 L54.83,204.97 L55.83,204.00 L56.00,203.83 L56.85,203.00 L57.17,202.68 L57.86,202.00 L58.33,201.53 L58.86,201.00 L59.50,200.36 L59.86,200.00 L60.67,199.18 L60.84,199.00 L61.82,198.00 L61.83,197.98 L62.79,197.00 L63.00,196.78 L63.74,196.00 L64.17,195.55 L64.69,195.00 L65.33,194.31 L65.63,194.00 L66.50,193.06 L66.56,193.00 L67.47,192.00 L67.67,191.79 L68.38,191.00 L68.83,190.49 L69.28,190.00 L70.00,189.18 L70.16,189.00 L71.03,188.00 L71.17,187.84 L71.89,187.00 L72.33,186.47 L72.74,186.00 L73.50,185.08 L73.57,185.00 L74.39,184.00 L74.67,183.66 L75.20,183.00 L75.83,182.20 L76.00,182.00 L76.78,181.00 L77.00,180.71 L77.54,180.00 L78.17,179.17 L78.29,179.00 L79.03,178.00 L79.33,177.58 L79.75,177.00 L80.46,176.00 L80.50,175.94 L81.15,175.00 L81.67,174.23 L81.82,174.00 L82.48,173.00 L82.83,172.45 L83.12,172.00 L83.74,171.00 L84.00,170.57 L84.35,170.00 L84.93,169.00 L85.17,168.59 L85.50,168.00 L86.05,167.00 L86.33,166.47 L86.58,166.00 L87.09,165.00 L87.50,164.17 L87.58,164.00 L88.05,163.00 L88.50,162.00 L88.67,161.61 L88.93,161.00 L89.34,160.00 L89.72,159.00 L89.83,158.70 L90.09,158.00 L90.43,157.00 L90.75,156.00 L91.00,155.16 L91.05,155.00 L91.32,154.00 L91.58,153.00 L91.80,152.00 L92.01,151.00 L92.17,150.11 L92.19,150.00 L92.35,149.00 L92.48,148.00 L92.59,147.00 L92.67,146.00 L92.73,145.00 L92.77,144.00 L92.78,143.00 L92.77,142.00 L92.73,141.00 L92.67,140.00 L92.59,139.00 L92.48,138.00 L92.35,137.00 L92.19,136.00 L92.17,135.89 L92.01,135.00 L91.80,134.00 L91.58,133.00 L91.32,132.00 L91.05,131.00 L91.00,130.84 L90.75,130.00 L90.43,129.00 L90.09,128.00 L89.83,127.30 L89.72,127.00 L89.34,126.00 L88.93,125.00 L88.67,124.39 L88.50,124.00 L88.05,123.00 L87.58,122.00 L87.50,121.83 L87.09,121.00 L86.58,120.00 L86.33,119.53 L86.05,119.00 L85.50,118.00 L85.17,117.41 L84.93,117.00 L84.35,116.00 L84.00,115.43 L83.74,115.00 L83.12,114.00 L82.83,113.55 L82.48,113.00 L81.82,112.00 L81.67,111.77 L81.15,111.00 L80.50,110.06 L80.46,110.00 L79.75,109.00 L79.33,108.42 L79.03,108.00 L78.29,107.00 L78.17,106.83 L77.54,106.00 L77.00,105.29 L76.78,105.00 L76.00,104.00 L75.83,103.80 L75.20,103.00 L74.67,102.34 L74.39,102.00 L73.57,101.00 L73.50,100.92 L72.74,100.00 L72.33,99.53 L71.89,99.00 L71.17,98.16 L71.03,98.00 L70.16,97.00 L70.00,96.82 L69.28,96.00 L68.83,95.51 L68.38,95.00 L67.67,94.21 L67.47,94.00 L66.56,93.00 L66.50,92.94 L65.63,92.00 L65.33,91.69 L64.69,91.00 L64.17,90.45 L63.74,90.00 L63.00,89.22 L62.79,89.00 L61.83,88.02 L61.82,88.00 L60.84,87.00 L60.67,86.82 L59.86,86.00 L59.50,85.64 L58.86,85.00 L58.33,84.47 L57.86,84.00 L57.17,83.32 L56.85,83.00 L56.00,82.17 L55.83,82.00 L54.83,81.03 L54.80,81.00 L53.77,80.00 L53.67,79.91 L52.72,79.00 L52.50,78.79 L51.67,78.00 L51.33,77.68 L50.61,77.00 L50.17,76.58 L49.55,76.00 L49.00,75.49 L48.48,75.00 L47.83,74.40 L47.40,74.00 L46.67,73.33 L46.32,73.00 L45.50,72.25 L45.22,72.00 L44.33,71.19 L44.13,71.00 L43.17,70.13 L43.02,70.00 L42.00,69.08 L41.91,69.00 L40.83,68.03 L40.80,68.00 L39.68,67.00 L39.67,66.99 L38.55,66.00 L38.50,65.95 L37.42,65.00 L37.33,64.92 L36.28,64.00 L36.17,63.90 L35.14,63.00 L35.00,62.88 L34.00,62.00 L33.83,61.86 L32.85,61.00 L32.67,60.85 L31.69,60.00 L31.50,59.84 L30.53,59.00 L30.33,58.83 L29.36,58.00 L29.17,57.83 L28.19,57.00 L28.00,56.84 L27.02,56.00 L26.83,55.84 L25.84,55.00 L25.67,54.85 L24.66,54.00 L24.50,53.87 L23.47,53.00 L23.33,52.88 L22.28,52.00 L22.17,51.90 L21.09,51.00 L21.00,50.92 L19.89,50.00 L19.83,49.95 L18.69,49.00 L18.67,48.98 L17.50,48.01 L17.49,48.00 L16.33,47.04 L16.28,47.00 L15.17,46.08 L15.07,46.00 L14.00,45.12 L13.85,45.00 L12.83,44.16 L12.64,44.00 L11.67,43.21 L11.42,43.00 L10.50,42.25 L10.19,42.00 L9.33,41.30 L8.96,41.00 L8.17,40.35 L7.73,40.00 L7.00,39.41 L6.50,39.00 L5.83,38.46 L5.27,38.00 L4.67,37.52 L4.03,37.00 L3.50,36.58 L2.79,36.00 L2.33,35.64 L1.54,35.00 L1.17,34.70 L0.30,34.00 L0.00,33.76 M257.81,150.00 L257.83,150.11 L257.99,151.00 L258.20,152.00 L258.42,153.00 L258.68,154.00 L258.95,155.00 L259.00,155.16 L259.25,156.00 L259.57,157.00 L259.91,158.00 L260.17,158.70 L260.28,159.00 L260.66,160.00 L261.07,161.00 L261.33,161.61 L261.50,162.00 L261.95,163.00 L262.42,164.00 L262.50,164.17 L262.91,165.00 L263.42,166.00 L263.67,166.47 L263.95,167.00 L264.50,168.00 L264.83,168.59 L265.07,169.00 L265.65,170.00 L266.00,170.57 L266.26,171.00 L266.88,172.00 L267.17,172.45 L267.52,173.00 L268.18,174.00 L268.33,174.23 L268.85,175.00 L269.50,175.94 L269.54,176.00 L270.25,177.00 L270.67,177.58 L270.97,178.00 L271.71,179.00 L271.83,179.17 L272.46,180.00 L273.00,180.71 L273.22,181.00 L274.00,182.00 L274.17,182.20 L274.80,183.00 L275.33,183.66 L275.61,184.00 L276.43,185.00 L276.50,185.08 L277.26,186.00 L277.67,186.47 L278.11,187.00 L278.83,187.84 L278.97,188.00 L279.84,189.00 L280.00,189.18 L280.72,190.00 L281.17,190.49 L281.62,191.00 L282.33,191.79 L282.53,192.00 L283.44,193.00 L283.50,193.06 L284.37,194.00 L284.67,194.31 L285.31,195.00 L285.83,195.55 L286.26,196.00 L287.00,196.78 L287.21,197.00 L288.17,197.98 L288.18,198.00 L289.16,199.00 L289.33,199.18 L290.14,200.00 L290.50,200.36 L291.14,201.00 L291.67,201.53 L292.14,202.00 L292.83,202.68 L293.15,203.00 L294.00,203.83 L294.17,204.00 L295.17,204.97 L295.20,205.00 L296.23,206.00 L296.33,206.09 L297.28,207.00 L297.50,207.21 L298.33,208.00 L298.67,208.32 L299.39,209.00 L299.83,209.42 L300.45,210.00 L301.00,210.51 L301.52,211.00 L302.17,211.60 L302.60,212.00 L303.33,212.67 L303.68,213.00 L304.50,213.75 L304.78,214.00 L305.67,214.81 L305.87,215.00 L306.83,215.87 L306.98,216.00 L308.00,216.92 L308.09,217.00 L309.17,217.97 L309.20,218.00 L310.32,219.00 L310.33,219.01 L311.45,220.00 L311.50,220.05 L312.58,221.00 L312.67,221.08 L313.72,222.00 L313.83,222.10 L314.86,223.00 L315.00,223.12 L316.00,224.00 L316.17,224.14 L317.15,225.00 L317.33,225.15 L318.31,226.00 L318.50,226.16 L319.47,227.00 L319.67,227.17 L320.64,228.00 L320.83,228.17 L321.81,229.00 L322.00,229.16 L322.98,230.00 L323.17,230.16 L324.16,231.00 L324.33,231.15 L325.34,232.00 L325.50,232.13 L326.53,233.00 L326.67,233.12 L327.72,234.00 L327.83,234.10 L328.91,235.00 L329.00,235.08 L330.11,236.00 L330.17,236.05 L331.31,237.00 L331.33,237.02 L332.50,237.99 L332.51,238.00 L333.67,238.96 L333.72,239.00 L334.83,239.92 L334.93,240.00 L336.00,240.88 L336.15,241.00 L337.17,241.84 L337.36,242.00 L338.33,242.79 L338.58,243.00 L339.50,243.75 L339.81,244.00 L340.67,244.70 L341.04,245.00 L341.83,245.65 L342.27,246.00 L343.00,246.59 L343.50,247.00 L344.17,247.54 L344.73,248.00 L345.33,248.48 L345.97,249.00 L346.50,249.42 L347.21,250.00 L347.67,250.36 L348.46,251.00 L348.83,251.30 M257.65,149.00 L257.81,150.00 M257.52,148.00 L257.65,149.00 M257.41,147.00 L257.52,148.00 M257.33,146.00 L257.41,147.00 M257.27,145.00 L257.33,146.00 M257.23,144.00 L257.27,145.00 M257.22,143.00 L257.23,144.00 M257.23,142.00 L257.22,143.00 M257.27,141.00 L257.23,142.00 M257.33,140.00 L257.27,141.00 M257.41,139.00 L257.33,140.00 M257.52,138.00 L257.41,139.00 M257.65,137.00 L257.52,138.00 M257.81,136.00 L257.65,137.00 M257.83,135.89 L257.81,136.00 M257.99,135.00 L257.83,135.89 M258.20,134.00 L257.99,135.00 M258.42,133.00 L258.20,134.00 M258.68,132.00 L258.42,133.00 M258.95,131.00 L258.68,132.00 M259.00,130.84 L258.95,131.00 M259.25,130.00 L259.00,130.84 M259.57,129.00 L259.25,130.00 M259.91,128.00 L259.57,129.00 M260.17,127.30 L259.91,128.00 M260.28,127.00 L260.17,127.30 M260.66,126.00 L260.28,127.00 M261.07,125.00 L260.66,126.00 M261.33,124.39 L261.07,125.00 M261.50,124.00 L261.33,124.39 M261.95,123.00 L261.50,124.00 M262.42,122.00 L261.95,123.00 M262.50,121.83 L262.42,122.00 M262.91,121.00 L262.50,121.83 M263.42,120.00 L262.91,121.00 M263.67,119.53 L263.42,120.00 M263.95,119.00 L263.67,119.53 M264.50,118.00 L263.95,119.00 M264.83,117.41 L264.50,118.00 M265.07,117.00 L264.83,117.41 M265.65,116.00 L265.07,117.00 M266.00,115.43 L265.65,116.00 M266.26,115.00 L266.00,115.43 M266.88,114.00 L266.26,115.00 M267.17,113.55 L266.88,114.00 M267.52,113.00 L267.17,113.55 M268.18,112.00 L267.52,113.00 M268.33,111.77 L268.18,112.00 M268.85,111.00 L268.33,111.77 M269.50,110.06 L268.85,111.00 M269.54,110.00 L269.50,110.06 M270.25,109.00 L269.54,110.00 M270.67,108.42 L270.25,109.00 M270.97,108.00 L270.67,108.42 M271.71,107.00 L270.97,108.00 M271.83,106.83 L271.71,107.00 M272.46,106.00 L271.83,106.83 M273.00,105.29 L272.46,106.00 M273.22,105.00 L273.00,105.29 M274.00,104.00 L273.22,105.00 M274.17,103.80 L274.00,104.00 M274.80,103.00 L274.17,103.80 M275.33,102.34 L274.80,103.00 M275.61,102.00 L275.33,102.34 M276.43,101.00 L275.61,102.00 M276.50,100.92 L276.43,101.00 M277.26,100.00 L276.50,100.92 M277.67,99.53 L277.26,100.00 M278.11,99.00 L277.67,99.53 M278.83,98.16 L278.11,99.00 M278.97,98.00 L278.83,98.16 M279.84,97.00 L278.97,98.00 M280.00,96.82 L279.84,97.00 M280.72,96.00 L280.00,96.82 M281.17,95.51 L280.72,96.00 M281.62,95.00 L281.17,95.51 M282.33,94.21 L281.62,95.00 M282.53,94.00 L282.33,94.21 M283.44,93.00 L282.53,94.00 M283.50,92.94 L283.44,93.00 M284.37,92.00 L283.50,92.94 M284.67,91.69 L284.37,92.00 M285.31,91.00 L284.67,91.69 M285.83,90.45 L285.31,91.00 M286.26,90.00 L285.83,90.45 M287.00,89.22 L286.26,90.00 M287.21,89.00 L287.00,89.22 M288.17,88.02 L287.21,89.00 M288.18,88.00 L288.17,88.02 M289.16,87.00 L288.18,88.00 M289.33,86.82 L289.16,87.00 M290.14,86.00 L289.33,86.82 M290.50,85.64 L290.14,86.00 M291.14,85.00 L290.50,85.64 M291.67,84.47 L291.14,85.00 M292.14,84.00 L291.67,84.47 M292.83,83.32 L292.14,84.00 M293.15,83.00 L292.83,83.32 M294.00,82.17 L293.15,83.00 M294.17,82.00 L294.00,82.17 M295.17,81.03 L294.17,82.00 M295.20,81.00 L295.17,81.03 M296.23,80.00 L295.20,81.00 M296.33,79.91 L296.23,80.00 M297.28,79.00 L296.33,79.91 M297.50,78.79 L297.28,79.00 M298.33,78.00 L297.50,78.79 M298.67,77.68 L298.33,78.00 M299.39,77.00 L298.67,77.68 M299.83,76.58 L299.39,77.00 M300.45,76.00 L299.83,76.58 M301.00,75.49 L300.45,76.00 M301.52,75.00 L301.00,75.49 M302.17,74.40 L301.52,75.00 M302.60,74.00 L302.17,74.40 M303.33,73.33 L302.60,74.00 M303.68,73.00 L303.33,73.33 M304.50,72.25 L303.68,73.00 M304.78,72.00 L304.50,72.25 M305.67,71.19 L304.78,72.00 M305.87,71.00 L305.67,71.19 M306.83,70.13 L305.87,71.00 M306.98,70.00 L306.83,70.13 M308.00,69.08 L306.98,70.00 M308.09,69.00 L308.00,69.08 M309.17,68.03 L308.09,69.00 M309.20,68.00 L309.17,68.03 M310.32,67.00 L309.20,68.00 M310.33,66.99 L310.32,67.00 M311.45,66.00 L310.33,66.99 M311.50,65.95 L311.45,66.00 M312.58,65.00 L311.50,65.95 M312.67,64.92 L312.58,65.00 M313.72,64.00 L312.67,64.92 M313.83,63.90 L313.72,64.00 M314.86,63.00 L313.83,63.90 M315.00,62.88 L314.86,63.00 M316.00,62.00 L315.00,62.88 M316.17,61.86 L316.00,62.00 M317.15,61.00 L316.17,61.86 M317.33,60.85 L317.15,61.00 M318.31,60.00 L317.33,60.85 M318.50,59.84 L318.31,60.00 M319.47,59.00 L318.50,59.84 M319.67,58.83 L319.47,59.00 M320.64,58.00 L319.67,58.83 M320.83,57.83 L320.64,58.00 M321.81,57.00 L320.83,57.83 M322.00,56.84 L321.81,57.00 M322.98,56.00 L322.00,56.84 M323.17,55.84 L322.98,56.00 M324.16,55.00 L323.17,55.84 M324.33,54.85 L324.16,55.00 M325.34,54.00 L324.33,54.85 M325.50,53.87 L325.34,54.00 M326.53,53.00 L325.50,53.87 M326.67,52.88 L326.53,53.00 M327.72,52.00 L326.67,52.88 M327.83,51.90 L327.72,52.00 M328.91,51.00 L327.83,51.90 M329.00,50.92 L328.91,51.00 M330.11,50.00 L329.00,50.92 M330.17,49.95 L330.11,50.00 M331.31,49.00 L330.17,49.95 M331.33,48.98 L331.31,49.00 M332.50,48.01 L331.33,48.98 M332.51,48.00 L332.50,48.01 M333.67,47.04 L332.51,48.00 M333.72,47.00 L333.67,47.04 M334.83,46.08 L333.72,47.00 M334.93,46.00 L334.83,46.08 M336.00,45.12 L334.93,46.00 M336.15,45.00 L336.00,45.12 M337.17,44.16 L336.15,45.00 M337.36,44.00 L337.17,44.16 M338.33,43.21 L337.36,44.00 M338.58,43.00 L338.33,43.21 M339.50,42.25 L338.58,43.00 M339.81,42.00 L339.50,42.25 M340.67,41.30 L339.81,42.00 M341.04,41.00 L340.67,41.30 M341.83,40.35 L341.04,41.00 M342.27,40.00 L341.83,40.35 M343.00,39.41 L342.27,40.00 M343.50,39.00 L343.00,39.41 M344.17,38.46 L343.50,39.00 M344.73,38.00 L344.17,38.46 M345.33,37.52 L344.73,38.00 M345.97,37.00 L345.33,37.52 M346.50,36.58 L345.97,37.00 M347.21,36.00 L346.50,36.58 M347.67,35.64 L347.21,36.00 M348.46,35.00 L347.67,35.64 M348.83,34.70 L348.46,35.00"
                                  style="stroke-width: 2; stroke: rgb(245, 130, 49); stroke-opacity: 1;" />
                            <path d=" M0.00,244.20 L0.24,244.00 L1.17,243.19 L1.39,243.00 L2.33,242.18 L2.54,242.00 L3.50,241.16 L3.69,241.00 L4.67,240.14 L4.83,240.00 L5.83,239.12 L5.97,239.00 L7.00,238.09 L7.10,238.00 L8.17,237.06 L8.23,237.00 L9.33,236.02 L9.36,236.00 L10.48,235.00 L10.50,234.98 L11.59,234.00 L11.67,233.93 L12.70,233.00 L12.83,232.88 L13.81,232.00 L14.00,231.83 L14.91,231.00 L15.17,230.77 L16.01,230.00 L16.33,229.70 L17.10,229.00 L17.50,228.63 L18.19,228.00 L18.67,227.56 L19.27,227.00 L19.83,226.48 L20.35,226.00 L21.00,225.39 L21.42,225.00 L22.17,224.29 L22.48,224.00 L23.33,223.19 L23.54,223.00 L24.50,222.09 L24.59,222.00 L25.64,221.00 L25.67,220.98 L26.68,220.00 L26.83,219.85 L27.72,219.00 L28.00,218.73 L28.75,218.00 L29.17,217.59 L29.77,217.00 L30.33,216.44 L30.79,216.00 L31.50,215.29 L31.79,215.00 L32.67,214.13 L32.80,214.00 L33.79,213.00 L33.83,212.96 L34.78,212.00 L35.00,211.77 L35.76,211.00 L36.17,210.58 L36.73,210.00 L37.33,209.38 L37.70,209.00 L38.50,208.16 L38.66,208.00 L39.60,207.00 L39.67,206.93 L40.55,206.00 L40.83,205.69 L41.48,205.00 L42.00,204.43 L42.40,204.00 L43.17,203.17 L43.32,203.00 L44.23,202.00 L44.33,201.88 L45.12,201.00 L45.50,200.57 L46.01,200.00 L46.67,199.25 L46.89,199.00 L47.76,198.00 L47.83,197.91 L48.62,197.00 L49.00,196.55 L49.47,196.00 L50.17,195.17 L50.31,195.00 L51.14,194.00 L51.33,193.76 L51.96,193.00 L52.50,192.32 L52.76,192.00 L53.56,191.00 L53.67,190.86 L54.34,190.00 L54.83,189.37 L55.12,189.00 L55.88,188.00 L56.00,187.84 L56.63,187.00 L57.17,186.27 L57.37,186.00 L58.09,185.00 L58.33,184.66 L58.80,184.00 L59.50,183.00 L59.50,183.00 L60.19,182.00 L60.67,181.29 L60.86,181.00 L61.52,180.00 L61.83,179.51 L62.17,179.00 L62.80,178.00 L63.00,177.67 L63.41,177.00 L64.01,176.00 L64.17,175.74 L64.60,175.00 L65.17,174.00 L65.33,173.71 L65.73,173.00 L66.27,172.00 L66.50,171.56 L66.80,171.00 L67.31,170.00 L67.67,169.27 L67.80,169.00 L68.28,168.00 L68.74,167.00 L68.83,166.78 L69.18,166.00 L69.61,165.00 L70.00,164.03 L70.01,164.00 L70.41,163.00 L70.78,162.00 L71.13,161.00 L71.17,160.91 L71.47,160.00 L71.79,159.00 L72.09,158.00 L72.33,157.15 L72.37,157.00 L72.64,156.00 L72.88,155.00 L73.11,154.00 L73.32,153.00 L73.50,152.01 L73.50,152.00 L73.67,151.00 L73.82,150.00 L73.95,149.00 L74.06,148.00 L74.15,147.00 L74.21,146.00 L74.26,145.00 L74.29,144.00 L74.30,143.00 L74.29,142.00 L74.26,141.00 L74.21,140.00 L74.15,139.00 L74.06,138.00 L73.95,137.00 L73.82,136.00 L73.67,135.00 L73.50,134.00 L73.50,133.99 L73.32,133.00 L73.11,132.00 L72.88,131.00 L72.64,130.00 L72.37,129.00 L72.33,128.85 L72.09,128.00 L71.79,127.00 L71.47,126.00 L71.17,125.09 L71.13,125.00 L70.78,124.00 L70.41,123.00 L70.01,122.00 L70.00,121.97 L69.61,121.00 L69.18,120.00 L68.83,119.22 L68.74,119.00 L68.28,118.00 L67.80,117.00 L67.67,116.73 L67.31,116.00 L66.80,115.00 L66.50,114.44 L66.27,114.00 L65.73,113.00 L65.33,112.29 L65.17,112.00 L64.60,111.00 L64.17,110.26 L64.01,110.00 L63.41,109.00 L63.00,108.33 L62.80,108.00 L62.17,107.00 L61.83,106.49 L61.52,106.00 L60.86,105.00 L60.67,104.71 L60.19,104.00 L59.50,103.00 L59.50,103.00 L58.80,102.00 L58.33,101.34 L58.09,101.00 L57.37,100.00 L57.17,99.73 L56.63,99.00 L56.00,98.16 L55.88,98.00 L55.12,97.00 L54.83,96.63 L54.34,96.00 L53.67,95.14 L53.56,95.00 L52.76,94.00 L52.50,93.68 L51.96,93.00 L51.33,92.24 L51.14,92.00 L50.31,91.00 L50.17,90.83 L49.47,90.00 L49.00,89.45 L48.62,89.00 L47.83,88.09 L47.76,88.00 L46.89,87.00 L46.67,86.75 L46.01,86.00 L45.50,85.42 L45.12,85.00 L44.33,84.12 L44.23,84.00 L43.32,83.00 L43.17,82.83 L42.40,82.00 L42.00,81.57 L41.48,81.00 L40.83,80.31 L40.55,80.00 L39.67,79.07 L39.60,79.00 L38.66,78.00 L38.50,77.84 L37.70,77.00 L37.33,76.62 L36.73,76.00 L36.17,75.42 L35.76,75.00 L35.00,74.23 L34.78,74.00 L33.83,73.04 L33.79,73.00 L32.80,72.00 L32.67,71.87 L31.79,71.00 L31.50,70.71 L30.79,70.00 L30.33,69.56 L29.77,69.00 L29.17,68.41 L28.75,68.00 L28.00,67.27 L27.72,67.00 L26.83,66.15 L26.68,66.00 L25.67,65.02 L25.64,65.00 L24.59,64.00 L24.50,63.91 L23.54,63.00 L23.33,62.81 L22.48,62.00 L22.17,61.71 L21.42,61.00 L21.00,60.61 L20.35,60.00 L19.83,59.52 L19.27,59.00 L18.67,58.44 L18.19,58.00 L17.50,57.37 L17.10,57.00 L16.33,56.30 L16.01,56.00 L15.17,55.23 L14.91,55.00 L14.00,54.17 L13.81,54.00 L12.83,53.12 L12.70,53.00 L11.67,52.07 L11.59,52.00 L10.50,51.02 L10.48,51.00 L9.36,50.00 L9.33,49.98 L8.23,49.00 L8.17,48.94 L7.10,48.00 L7.00,47.91 L5.97,47.00 L5.83,46.88 L4.83,46.00 L4.67,45.86 L3.69,45.00 L3.50,44.84 L2.54,44.00 L2.33,43.82 L1.39,43.00 L1.17,42.81 L0.24,42.00 L0.00,41.80 M276.50,152.00 L276.50,152.01 L276.68,153.00 L276.89,154.00 L277.12,155.00 L277.36,156.00 L277.63,157.00 L277.67,157.15 L277.91,158.00 L278.21,159.00 L278.53,160.00 L278.83,160.91 L278.87,161.00 L279.22,162.00 L279.59,163.00 L279.99,164.00 L280.00,164.03 L280.39,165.00 L280.82,166.00 L281.17,166.78 L281.26,167.00 L281.72,168.00 L282.20,169.00 L282.33,169.27 L282.69,170.00 L283.20,171.00 L283.50,171.56 L283.73,172.00 L284.27,173.00 L284.67,173.71 L284.83,174.00 L285.40,175.00 L285.83,175.74 L285.99,176.00 L286.59,177.00 L287.00,177.67 L287.20,178.00 L287.83,179.00 L288.17,179.51 L288.48,180.00 L289.14,181.00 L289.33,181.29 L289.81,182.00 L290.50,183.00 L290.50,183.00 L291.20,184.00 L291.67,184.66 L291.91,185.00 L292.63,186.00 L292.83,186.27 L293.37,187.00 L294.00,187.84 L294.12,188.00 L294.88,189.00 L295.17,189.37 L295.66,190.00 L296.33,190.86 L296.44,191.00 L297.24,192.00 L297.50,192.32 L298.04,193.00 L298.67,193.76 L298.86,194.00 L299.69,195.00 L299.83,195.17 L300.53,196.00 L301.00,196.55 L301.38,197.00 L302.17,197.91 L302.24,198.00 L303.11,199.00 L303.33,199.25 L303.99,200.00 L304.50,200.57 L304.88,201.00 L305.67,201.88 L305.77,202.00 L306.68,203.00 L306.83,203.17 L307.60,204.00 L308.00,204.43 L308.52,205.00 L309.17,205.69 L309.45,206.00 L310.33,206.93 L310.40,207.00 L311.34,208.00 L311.50,208.16 L312.30,209.00 L312.67,209.38 L313.27,210.00 L313.83,210.58 L314.24,211.00 L315.00,211.77 L315.22,212.00 L316.17,212.96 L316.21,213.00 L317.20,214.00 L317.33,214.13 L318.21,215.00 L318.50,215.29 L319.21,216.00 L319.67,216.44 L320.23,217.00 L320.83,217.59 L321.25,218.00 L322.00,218.73 L322.28,219.00 L323.17,219.85 L323.32,220.00 L324.33,220.98 L324.36,221.00 L325.41,222.00 L325.50,222.09 L326.46,223.00 L326.67,223.19 L327.52,224.00 L327.83,224.29 L328.58,225.00 L329.00,225.39 L329.65,226.00 L330.17,226.48 L330.73,227.00 L331.33,227.56 L331.81,228.00 L332.50,228.63 L332.90,229.00 L333.67,229.70 L333.99,230.00 L334.83,230.77 L335.09,231.00 L336.00,231.83 L336.19,232.00 L337.17,232.88 L337.30,233.00 L338.33,233.93 L338.41,234.00 L339.50,234.98 L339.52,235.00 L340.64,236.00 L340.67,236.02 L341.77,237.00 L341.83,237.06 L342.90,238.00 L343.00,238.09 L344.03,239.00 L344.17,239.12 L345.17,240.00 L345.33,240.14 L346.31,241.00 L346.50,241.16 L347.46,242.00 L347.67,242.18 L348.61,243.00 L348.83,243.19 M276.33,151.00 L276.50,152.00 M276.18,150.00 L276.33,151.00 M276.05,149.00 L276.18,150.00 M275.94,148.00 L276.05,149.00 M275.85,147.00 L275.94,148.00 M275.79,146.00 L275.85,147.00 M275.74,145.00 L275.79,146.00 M275.71,144.00 L275.74,145.00 M275.70,143.00 L275.71,144.00 M275.71,142.00 L275.70,143.00 M275.74,141.00 L275.71,142.00 M275.79,140.00 L275.74,141.00 M275.85,139.00 L275.79,140.00 M275.94,138.00 L275.85,139.00 M276.05,137.00 L275.94,138.00 M276.18,136.00 L276.05,137.00 M276.33,135.00 L276.18,136.00 M276.50,134.00 L276.33,135.00 M276.50,133.99 L276.50,134.00 M276.68,133.00 L276.50,133.99 M276.89,132.00 L276.68,133.00 M277.12,131.00 L276.89,132.00 M277.36,130.00 L277.12,131.00 M277.63,129.00 L277.36,130.00 M277.67,128.85 L277.63,129.00 M277.91,128.00 L277.67,128.85 M278.21,127.00 L277.91,128.00 M278.53,126.00 L278.21,127.00 M278.83,125.09 L278.53,126.00 M278.87,125.00 L278.83,125.09 M279.22,124.00 L278.87,125.00 M279.59,123.00 L279.22,124.00 M279.99,122.00 L279.59,123.00 M280.00,121.97 L279.99,122.00 M280.39,121.00 L280.00,121.97 M280.82,120.00 L280.39,121.00 M281.17,119.22 L280.82,120.00 M281.26,119.00 L281.17,119.22 M281.72,118.00 L281.26,119.00 M282.20,117.00 L281.72,118.00 M282.33,116.73 L282.20,117.00 M282.69,116.00 L282.33,116.73 M283.20,115.00 L282.69,116.00 M283.50,114.44 L283.20,115.00 M283.73,114.00 L283.50,114.44 M284.27,113.00 L283.73,114.00 M284.67,112.29 L284.27,113.00 M284.83,112.00 L284.67,112.29 M285.40,111.00 L284.83,112.00 M285.83,110.26 L285.40,111.00 M285.99,110.00 L285.83,110.26 M286.59,109.00 L285.99,110.00 M287.00,108.33 L286.59,109.00 M287.20,108.00 L287.00,108.33 M287.83,107.00 L287.20,108.00 M288.17,106.49 L287.83,107.00 M288.48,106.00 L288.17,106.49 M289.14,105.00 L288.48,106.00 M289.33,104.71 L289.14,105.00 M289.81,104.00 L289.33,104.71 M290.50,103.00 L289.81,104.00 M290.50,103.00 L290.50,103.00 M291.20,102.00 L290.50,103.00 M291.67,101.34 L291.20,102.00 M291.91,101.00 L291.67,101.34 M292.63,100.00 L291.91,101.00 M292.83,99.73 L292.63,100.00 M293.37,99.00 L292.83,99.73 M294.00,98.16 L293.37,99.00 M294.12,98.00 L294.00,98.16 M294.88,97.00 L294.12,98.00 M295.17,96.63 L294.88,97.00 M295.66,96.00 L295.17,96.63 M296.33,95.14 L295.66,96.00 M296.44,95.00 L296.33,95.14 M297.24,94.00 L296.44,95.00 M297.50,93.68 L297.24,94.00 M298.04,93.00 L297.50,93.68 M298.67,92.24 L298.04,93.00 M298.86,92.00 L298.67,92.24 M299.69,91.00 L298.86,92.00 M299.83,90.83 L299.69,91.00 M300.53,90.00 L299.83,90.83 M301.00,89.45 L300.53,90.00 M301.38,89.00 L301.00,89.45 M302.17,88.09 L301.38,89.00 M302.24,88.00 L302.17,88.09 M303.11,87.00 L302.24,88.00 M303.33,86.75 L303.11,87.00 M303.99,86.00 L303.33,86.75 M304.50,85.42 L303.99,86.00 M304.88,85.00 L304.50,85.42 M305.67,84.12 L304.88,85.00 M305.77,84.00 L305.67,84.12 M306.68,83.00 L305.77,84.00 M306.83,82.83 L306.68,83.00 M307.60,82.00 L306.83,82.83 M308.00,81.57 L307.60,82.00 M308.52,81.00 L308.00,81.57 M309.17,80.31 L308.52,81.00 M309.45,80.00 L309.17,80.31 M310.33,79.07 L309.45,80.00 M310.40,79.00 L310.33,79.07 M311.34,78.00 L310.40,79.00 M311.50,77.84 L311.34,78.00 M312.30,77.00 L311.50,77.84 M312.67,76.62 L312.30,77.00 M313.27,76.00 L312.67,76.62 M313.83,75.42 L313.27,76.00 M314.24,75.00 L313.83,75.42 M315.00,74.23 L314.24,75.00 M315.22,74.00 L315.00,74.23 M316.17,73.04 L315.22,74.00 M316.21,73.00 L316.17,73.04 M317.20,72.00 L316.21,73.00 M317.33,71.87 L317.20,72.00 M318.21,71.00 L317.33,71.87 M318.50,70.71 L318.21,71.00 M319.21,70.00 L318.50,70.71 M319.67,69.56 L319.21,70.00 M320.23,69.00 L319.67,69.56 M320.83,68.41 L320.23,69.00 M321.25,68.00 L320.83,68.41 M322.00,67.27 L321.25,68.00 M322.28,67.00 L322.00,67.27 M323.17,66.15 L322.28,67.00 M323.32,66.00 L323.17,66.15 M324.33,65.02 L323.32,66.00 M324.36,65.00 L324.33,65.02 M325.41,64.00 L324.36,65.00 M325.50,63.91 L325.41,64.00 M326.46,63.00 L325.50,63.91 M326.67,62.81 L326.46,63.00 M327.52,62.00 L326.67,62.81 M327.83,61.71 L327.52,62.00 M328.58,61.00 L327.83,61.71 M329.00,60.61 L328.58,61.00 M329.65,60.00 L329.00,60.61 M330.17,59.52 L329.65,60.00 M330.73,59.00 L330.17,59.52 M331.33,58.44 L330.73,59.00 M331.81,58.00 L331.33,58.44 M332.50,57.37 L331.81,58.00 M332.90,57.00 L332.50,57.37 M333.67,56.30 L332.90,57.00 M333.99,56.00 L333.67,56.30 M334.83,55.23 L333.99,56.00 M335.09,55.00 L334.83,55.23 M336.00,54.17 L335.09,55.00 M336.19,54.00 L336.00,54.17 M337.17,53.12 L336.19,54.00 M337.30,53.00 L337.17,53.12 M338.33,52.07 L337.30,53.00 M338.41,52.00 L338.33,52.07 M339.50,51.02 L338.41,52.00 M339.52,51.00 L339.50,51.02 M340.64,50.00 L339.52,51.00 M340.67,49.98 L340.64,50.00 M341.77,49.00 L340.67,49.98 M341.83,48.94 L341.77,49.00 M342.90,48.00 L341.83,48.94 M343.00,47.91 L342.90,48.00 M344.03,47.00 L343.00,47.91 M344.17,46.88 L344.03,47.00 M345.17,46.00 L344.17,46.88 M345.33,45.86 L345.17,46.00 M346.31,45.00 L345.33,45.86 M346.50,44.84 L346.31,45.00 M347.46,44.00 L346.50,44.84 M347.67,43.82 L347.46,44.00 M348.61,43.00 L347.67,43.82 M348.83,42.81 L348.61,43.00"
                                  style="stroke-width: 2; stroke: rgb(157, 40, 192); stroke-opacity: 1;" />
                            <path d=" M0.00,235.48 L0.51,235.00 L1.17,234.37 L1.56,234.00 L2.33,233.26 L2.61,233.00 L3.50,232.14 L3.65,232.00 L4.67,231.02 L4.68,231.00 L5.71,230.00 L5.83,229.88 L6.74,229.00 L7.00,228.74 L7.76,228.00 L8.17,227.60 L8.77,227.00 L9.33,226.44 L9.78,226.00 L10.50,225.28 L10.78,225.00 L11.67,224.11 L11.78,224.00 L12.77,223.00 L12.83,222.93 L13.75,222.00 L14.00,221.74 L14.73,221.00 L15.17,220.54 L15.70,220.00 L16.33,219.34 L16.66,219.00 L17.50,218.12 L17.62,218.00 L18.57,217.00 L18.67,216.89 L19.51,216.00 L19.83,215.65 L20.44,215.00 L21.00,214.40 L21.37,214.00 L22.17,213.13 L22.29,213.00 L23.20,212.00 L23.33,211.86 L24.11,211.00 L24.50,210.56 L25.01,210.00 L25.67,209.26 L25.90,209.00 L26.78,208.00 L26.83,207.94 L27.65,207.00 L28.00,206.59 L28.52,206.00 L29.17,205.24 L29.37,205.00 L30.22,204.00 L30.33,203.86 L31.06,203.00 L31.50,202.46 L31.89,202.00 L32.67,201.05 L32.70,201.00 L33.52,200.00 L33.83,199.60 L34.32,199.00 L35.00,198.14 L35.11,198.00 L35.89,197.00 L36.17,196.64 L36.66,196.00 L37.33,195.11 L37.42,195.00 L38.17,194.00 L38.50,193.56 L38.91,193.00 L39.64,192.00 L39.67,191.96 L40.36,191.00 L40.83,190.33 L41.07,190.00 L41.76,189.00 L42.00,188.65 L42.45,188.00 L43.12,187.00 L43.17,186.93 L43.78,186.00 L44.33,185.15 L44.43,185.00 L45.07,184.00 L45.50,183.31 L45.69,183.00 L46.31,182.00 L46.67,181.40 L46.91,181.00 L47.49,180.00 L47.83,179.41 L48.07,179.00 L48.63,178.00 L49.00,177.32 L49.18,177.00 L49.71,176.00 L50.17,175.12 L50.23,175.00 L50.74,174.00 L51.23,173.00 L51.33,172.77 L51.70,172.00 L52.17,171.00 L52.50,170.26 L52.62,170.00 L53.05,169.00 L53.47,168.00 L53.67,167.51 L53.87,167.00 L54.26,166.00 L54.63,165.00 L54.83,164.44 L54.99,164.00 L55.34,163.00 L55.66,162.00 L55.97,161.00 L56.00,160.90 L56.27,160.00 L56.54,159.00 L56.81,158.00 L57.05,157.00 L57.17,156.49 L57.28,156.00 L57.49,155.00 L57.69,154.00 L57.87,153.00 L58.03,152.00 L58.18,151.00 L58.30,150.00 L58.33,149.74 L58.42,149.00 L58.51,148.00 L58.59,147.00 L58.65,146.00 L58.69,145.00 L58.72,144.00 L58.73,143.00 L58.72,142.00 L58.69,141.00 L58.65,140.00 L58.59,139.00 L58.51,138.00 L58.42,137.00 L58.33,136.26 L58.30,136.00 L58.18,135.00 L58.03,134.00 L57.87,133.00 L57.69,132.00 L57.49,131.00 L57.28,130.00 L57.17,129.51 L57.05,129.00 L56.81,128.00 L56.54,127.00 L56.27,126.00 L56.00,125.10 L55.97,125.00 L55.66,124.00 L55.34,123.00 L54.99,122.00 L54.83,121.56 L54.63,121.00 L54.26,120.00 L53.87,119.00 L53.67,118.49 L53.47,118.00 L53.05,117.00 L52.62,116.00 L52.50,115.74 L52.17,115.00 L51.70,114.00 L51.33,113.23 L51.23,113.00 L50.74,112.00 L50.23,111.00 L50.17,110.88 L49.71,110.00 L49.18,109.00 L49.00,108.68 L48.63,108.00 L48.07,107.00 L47.83,106.59 L47.49,106.00 L46.91,105.00 L46.67,104.60 L46.31,104.00 L45.69,103.00 L45.50,102.69 L45.07,102.00 L44.43,101.00 L44.33,100.85 L43.78,100.00 L43.17,99.07 L43.12,99.00 L42.45,98.00 L42.00,97.35 L41.76,97.00 L41.07,96.00 L40.83,95.67 L40.36,95.00 L39.67,94.04 L39.64,94.00 L38.91,93.00 L38.50,92.44 L38.17,92.00 L37.42,91.00 L37.33,90.89 L36.66,90.00 L36.17,89.36 L35.89,89.00 L35.11,88.00 L35.00,87.86 L34.32,87.00 L33.83,86.40 L33.52,86.00 L32.70,85.00 L32.67,84.95 L31.89,84.00 L31.50,83.54 L31.06,83.00 L30.33,82.14 L30.22,82.00 L29.37,81.00 L29.17,80.76 L28.52,80.00 L28.00,79.41 L27.65,79.00 L26.83,78.06 L26.78,78.00 L25.90,77.00 L25.67,76.74 L25.01,76.00 L24.50,75.44 L24.11,75.00 L23.33,74.14 L23.20,74.00 L22.29,73.00 L22.17,72.87 L21.37,72.00 L21.00,71.60 L20.44,71.00 L19.83,70.35 L19.51,70.00 L18.67,69.11 L18.57,69.00 L17.62,68.00 L17.50,67.88 L16.66,67.00 L16.33,66.66 L15.70,66.00 L15.17,65.46 L14.73,65.00 L14.00,64.26 L13.75,64.00 L12.83,63.07 L12.77,63.00 L11.78,62.00 L11.67,61.89 L10.78,61.00 L10.50,60.72 L9.78,60.00 L9.33,59.56 L8.77,59.00 L8.17,58.40 L7.76,58.00 L7.00,57.26 L6.74,57.00 L5.83,56.12 L5.71,56.00 L4.68,55.00 L4.67,54.98 L3.65,54.00 L3.50,53.86 L2.61,53.00 L2.33,52.74 L1.56,52.00 L1.17,51.63 L0.51,51.00 L0.00,50.52 M291.58,149.00 L291.67,149.74 L291.70,150.00 L291.82,151.00 L291.97,152.00 L292.13,153.00 L292.31,154.00 L292.51,155.00 L292.72,156.00 L292.83,156.49 L292.95,157.00 L293.19,158.00 L293.46,159.00 L293.73,160.00 L294.00,160.90 L294.03,161.00 L294.34,162.00 L294.66,163.00 L295.01,164.00 L295.17,164.44 L295.37,165.00 L295.74,166.00 L296.13,167.00 L296.33,167.51 L296.53,168.00 L296.95,169.00 L297.38,170.00 L297.50,170.26 L297.83,171.00 L298.30,172.00 L298.67,172.77 L298.77,173.00 L299.26,174.00 L299.77,175.00 L299.83,175.12 L300.29,176.00 L300.82,177.00 L301.00,177.32 L301.37,178.00 L301.93,179.00 L302.17,179.41 L302.51,180.00 L303.09,181.00 L303.33,181.40 L303.69,182.00 L304.31,183.00 L304.50,183.31 L304.93,184.00 L305.57,185.00 L305.67,185.15 L306.22,186.00 L306.83,186.93 L306.88,187.00 L307.55,188.00 L308.00,188.65 L308.24,189.00 L308.93,190.00 L309.17,190.33 L309.64,191.00 L310.33,191.96 L310.36,192.00 L311.09,193.00 L311.50,193.56 L311.83,194.00 L312.58,195.00 L312.67,195.11 L313.34,196.00 L313.83,196.64 L314.11,197.00 L314.89,198.00 L315.00,198.14 L315.68,199.00 L316.17,199.60 L316.48,200.00 L317.30,201.00 L317.33,201.05 L318.11,202.00 L318.50,202.46 L318.94,203.00 L319.67,203.86 L319.78,204.00 L320.63,205.00 L320.83,205.24 L321.48,206.00 L322.00,206.59 L322.35,207.00 L323.17,207.94 L323.22,208.00 L324.10,209.00 L324.33,209.26 L324.99,210.00 L325.50,210.56 L325.89,211.00 L326.67,211.86 L326.80,212.00 L327.71,213.00 L327.83,213.13 L328.63,214.00 L329.00,214.40 L329.56,215.00 L330.17,215.65 L330.49,216.00 L331.33,216.89 L331.43,217.00 L332.38,218.00 L332.50,218.12 L333.34,219.00 L333.67,219.34 L334.30,220.00 L334.83,220.54 L335.27,221.00 L336.00,221.74 L336.25,222.00 L337.17,222.93 L337.23,223.00 L338.22,224.00 L338.33,224.11 L339.22,225.00 L339.50,225.28 L340.22,226.00 L340.67,226.44 L341.23,227.00 L341.83,227.60 L342.24,228.00 L343.00,228.74 L343.26,229.00 L344.17,229.88 L344.29,230.00 L345.32,231.00 L345.33,231.02 L346.35,232.00 L346.50,232.14 L347.39,233.00 L347.67,233.26 L348.44,234.00 L348.83,234.37 M291.49,148.00 L291.58,149.00 M291.41,147.00 L291.49,148.00 M291.35,146.00 L291.41,147.00 M291.31,145.00 L291.35,146.00 M291.28,144.00 L291.31,145.00 M291.27,143.00 L291.28,144.00 M291.28,142.00 L291.27,143.00 M291.31,141.00 L291.28,142.00 M291.35,140.00 L291.31,141.00 M291.41,139.00 L291.35,140.00 M291.49,138.00 L291.41,139.00 M291.58,137.00 L291.49,138.00 M291.67,136.26 L291.58,137.00 M291.70,136.00 L291.67,136.26 M291.82,135.00 L291.70,136.00 M291.97,134.00 L291.82,135.00 M292.13,133.00 L291.97,134.00 M292.31,132.00 L292.13,133.00 M292.51,131.00 L292.31,132.00 M292.72,130.00 L292.51,131.00 M292.83,129.51 L292.72,130.00 M292.95,129.00 L292.83,129.51 M293.19,128.00 L292.95,129.00 M293.46,127.00 L293.19,128.00 M293.73,126.00 L293.46,127.00 M294.00,125.10 L293.73,126.00 M294.03,125.00 L294.00,125.10 M294.34,124.00 L294.03,125.00 M294.66,123.00 L294.34,124.00 M295.01,122.00 L294.66,123.00 M295.17,121.56 L295.01,122.00 M295.37,121.00 L295.17,121.56 M295.74,120.00 L295.37,121.00 M296.13,119.00 L295.74,120.00 M296.33,118.49 L296.13,119.00 M296.53,118.00 L296.33,118.49 M296.95,117.00 L296.53,118.00 M297.38,116.00 L296.95,117.00 M297.50,115.74 L297.38,116.00 M297.83,115.00 L297.50,115.74 M298.30,114.00 L297.83,115.00 M298.67,113.23 L298.30,114.00 M298.77,113.00 L298.67,113.23 M299.26,112.00 L298.77,113.00 M299.77,111.00 L299.26,112.00 M299.83,110.88 L299.77,111.00 M300.29,110.00 L299.83,110.88 M300.82,109.00 L300.29,110.00 M301.00,108.68 L300.82,109.00 M301.37,108.00 L301.00,108.68 M301.93,107.00 L301.37,108.00 M302.17,106.59 L301.93,107.00 M302.51,106.00 L302.17,106.59 M303.09,105.00 L302.51,106.00 M303.33,104.60 L303.09,105.00 M303.69,104.00 L303.33,104.60 M304.31,103.00 L303.69,104.00 M304.50,102.69 L304.31,103.00 M304.93,102.00 L304.50,102.69 M305.57,101.00 L304.93,102.00 M305.67,100.85 L305.57,101.00 M306.22,100.00 L305.67,100.85 M306.83,99.07 L306.22,100.00 M306.88,99.00 L306.83,99.07 M307.55,98.00 L306.88,99.00 M308.00,97.35 L307.55,98.00 M308.24,97.00 L308.00,97.35 M308.93,96.00 L308.24,97.00 M309.17,95.67 L308.93,96.00 M309.64,95.00 L309.17,95.67 M310.33,94.04 L309.64,95.00 M310.36,94.00 L310.33,94.04 M311.09,93.00 L310.36,94.00 M311.50,92.44 L311.09,93.00 M311.83,92.00 L311.50,92.44 M312.58,91.00 L311.83,92.00 M312.67,90.89 L312.58,91.00 M313.34,90.00 L312.67,90.89 M313.83,89.36 L313.34,90.00 M314.11,89.00 L313.83,89.36 M314.89,88.00 L314.11,89.00 M315.00,87.86 L314.89,88.00 M315.68,87.00 L315.00,87.86 M316.17,86.40 L315.68,87.00 M316.48,86.00 L316.17,86.40 M317.30,85.00 L316.48,86.00 M317.33,84.95 L317.30,85.00 M318.11,84.00 L317.33,84.95 M318.50,83.54 L318.11,84.00 M318.94,83.00 L318.50,83.54 M319.67,82.14 L318.94,83.00 M319.78,82.00 L319.67,82.14 M320.63,81.00 L319.78,82.00 M320.83,80.76 L320.63,81.00 M321.48,80.00 L320.83,80.76 M322.00,79.41 L321.48,80.00 M322.35,79.00 L322.00,79.41 M323.17,78.06 L322.35,79.00 M323.22,78.00 L323.17,78.06 M324.10,77.00 L323.22,78.00 M324.33,76.74 L324.10,77.00 M324.99,76.00 L324.33,76.74 M325.50,75.44 L324.99,76.00 M325.89,75.00 L325.50,75.44 M326.67,74.14 L325.89,75.00 M326.80,74.00 L326.67,74.14 M327.71,73.00 L326.80,74.00 M327.83,72.87 L327.71,73.00 M328.63,72.00 L327.83,72.87 M329.00,71.60 L328.63,72.00 M329.56,71.00 L329.00,71.60 M330.17,70.35 L329.56,71.00 M330.49,70.00 L330.17,70.35 M331.33,69.11 L330.49,70.00 M331.43,69.00 L331.33,69.11 M332.38,68.00 L331.43,69.00 M332.50,67.88 L332.38,68.00 M333.34,67.00 L332.50,67.88 M333.67,66.66 L333.34,67.00 M334.30,66.00 L333.67,66.66 M334.83,65.46 L334.30,66.00 M335.27,65.00 L334.83,65.46 M336.00,64.26 L335.27,65.00 M336.25,64.00 L336.00,64.26 M337.17,63.07 L336.25,64.00 M337.23,63.00 L337.17,63.07 M338.22,62.00 L337.23,63.00 M338.33,61.89 L338.22,62.00 M339.22,61.00 L338.33,61.89 M339.50,60.72 L339.22,61.00 M340.22,60.00 L339.50,60.72 M340.67,59.56 L340.22,60.00 M341.23,59.00 L340.67,59.56 M341.83,58.40 L341.23,59.00 M342.24,58.00 L341.83,58.40 M343.00,57.26 L342.24,58.00 M343.26,57.00 L343.00,57.26 M344.17,56.12 L343.26,57.00 M344.29,56.00 L344.17,56.12 M345.32,55.00 L344.29,56.00 M345.33,54.98 L345.32,55.00 M346.35,54.00 L345.33,54.98 M346.50,53.86 L346.35,54.00 M347.39,53.00 L346.50,53.86 M347.67,52.74 L347.39,53.00 M348.44,52.00 L347.67,52.74 M348.83,51.63 L348.44,52.00"
                                  style="stroke-width: 2; stroke: rgb(214, 67, 102); stroke-opacity: 1;" />
                            <path d=" M0.00,225.84 L0.79,225.00 L1.17,224.60 L1.73,224.00 L2.33,223.35 L2.66,223.00 L3.50,222.10 L3.59,222.00 L4.51,221.00 L4.67,220.82 L5.42,220.00 L5.83,219.54 L6.32,219.00 L7.00,218.25 L7.22,218.00 L8.11,217.00 L8.17,216.94 L8.99,216.00 L9.33,215.61 L9.87,215.00 L10.50,214.27 L10.74,214.00 L11.60,213.00 L11.67,212.92 L12.45,212.00 L12.83,211.55 L13.30,211.00 L14.00,210.16 L14.13,210.00 L14.96,209.00 L15.17,208.75 L15.78,208.00 L16.33,207.32 L16.60,207.00 L17.40,206.00 L17.50,205.87 L18.20,205.00 L18.67,204.40 L18.98,204.00 L19.76,203.00 L19.83,202.90 L20.53,202.00 L21.00,201.38 L21.29,201.00 L22.04,200.00 L22.17,199.82 L22.78,199.00 L23.33,198.24 L23.51,198.00 L24.23,197.00 L24.50,196.62 L24.94,196.00 L25.64,195.00 L25.67,194.96 L26.33,194.00 L26.83,193.26 L27.01,193.00 L27.68,192.00 L28.00,191.52 L28.34,191.00 L28.99,190.00 L29.17,189.73 L29.63,189.00 L30.26,188.00 L30.33,187.88 L30.88,187.00 L31.48,186.00 L31.50,185.97 L32.07,185.00 L32.66,184.00 L32.67,183.98 L33.23,183.00 L33.78,182.00 L33.83,181.91 L34.33,181.00 L34.86,180.00 L35.00,179.74 L35.39,179.00 L35.90,178.00 L36.17,177.45 L36.39,177.00 L36.88,176.00 L37.33,175.03 L37.35,175.00 L37.81,174.00 L38.25,173.00 L38.50,172.43 L38.68,172.00 L39.10,171.00 L39.51,170.00 L39.67,169.60 L39.90,169.00 L40.28,168.00 L40.64,167.00 L40.83,166.45 L40.99,166.00 L41.33,165.00 L41.65,164.00 L41.96,163.00 L42.00,162.86 L42.25,162.00 L42.53,161.00 L42.80,160.00 L43.05,159.00 L43.17,158.48 L43.28,158.00 L43.50,157.00 L43.71,156.00 L43.90,155.00 L44.07,154.00 L44.23,153.00 L44.33,152.31 L44.38,152.00 L44.51,151.00 L44.62,150.00 L44.72,149.00 L44.81,148.00 L44.88,147.00 L44.93,146.00 L44.97,145.00 L44.99,144.00 L45.00,143.00 L44.99,142.00 L44.97,141.00 L44.93,140.00 L44.88,139.00 L44.81,138.00 L44.72,137.00 L44.62,136.00 L44.51,135.00 L44.38,134.00 L44.33,133.69 L44.23,133.00 L44.07,132.00 L43.90,131.00 L43.71,130.00 L43.50,129.00 L43.28,128.00 L43.17,127.52 L43.05,127.00 L42.80,126.00 L42.53,125.00 L42.25,124.00 L42.00,123.14 L41.96,123.00 L41.65,122.00 L41.33,121.00 L40.99,120.00 L40.83,119.55 L40.64,119.00 L40.28,118.00 L39.90,117.00 L39.67,116.40 L39.51,116.00 L39.10,115.00 L38.68,114.00 L38.50,113.57 L38.25,113.00 L37.81,112.00 L37.35,111.00 L37.33,110.97 L36.88,110.00 L36.39,109.00 L36.17,108.55 L35.90,108.00 L35.39,107.00 L35.00,106.26 L34.86,106.00 L34.33,105.00 L33.83,104.09 L33.78,104.00 L33.23,103.00 L32.67,102.02 L32.66,102.00 L32.07,101.00 L31.50,100.03 L31.48,100.00 L30.88,99.00 L30.33,98.12 L30.26,98.00 L29.63,97.00 L29.17,96.27 L28.99,96.00 L28.34,95.00 L28.00,94.48 L27.68,94.00 L27.01,93.00 L26.83,92.74 L26.33,92.00 L25.67,91.04 L25.64,91.00 L24.94,90.00 L24.50,89.38 L24.23,89.00 L23.51,88.00 L23.33,87.76 L22.78,87.00 L22.17,86.18 L22.04,86.00 L21.29,85.00 L21.00,84.62 L20.53,84.00 L19.83,83.10 L19.76,83.00 L18.98,82.00 L18.67,81.60 L18.20,81.00 L17.50,80.13 L17.40,80.00 L16.60,79.00 L16.33,78.68 L15.78,78.00 L15.17,77.25 L14.96,77.00 L14.13,76.00 L14.00,75.84 L13.30,75.00 L12.83,74.45 L12.45,74.00 L11.67,73.08 L11.60,73.00 L10.74,72.00 L10.50,71.73 L9.87,71.00 L9.33,70.39 L8.99,70.00 L8.17,69.06 L8.11,69.00 L7.22,68.00 L7.00,67.75 L6.32,67.00 L5.83,66.46 L5.42,66.00 L4.67,65.18 L4.51,65.00 L3.59,64.00 L3.50,63.90 L2.66,63.00 L2.33,62.65 L1.73,62.00 L1.17,61.40 L0.79,61.00 L0.00,60.16 M305.62,152.00 L305.67,152.31 L305.77,153.00 L305.93,154.00 L306.10,155.00 L306.29,156.00 L306.50,157.00 L306.72,158.00 L306.83,158.48 L306.95,159.00 L307.20,160.00 L307.47,161.00 L307.75,162.00 L308.00,162.86 L308.04,163.00 L308.35,164.00 L308.67,165.00 L309.01,166.00 L309.17,166.45 L309.36,167.00 L309.72,168.00 L310.10,169.00 L310.33,169.60 L310.49,170.00 L310.90,171.00 L311.32,172.00 L311.50,172.43 L311.75,173.00 L312.19,174.00 L312.65,175.00 L312.67,175.03 L313.12,176.00 L313.61,177.00 L313.83,177.45 L314.10,178.00 L314.61,179.00 L315.00,179.74 L315.14,180.00 L315.67,181.00 L316.17,181.91 L316.22,182.00 L316.77,183.00 L317.33,183.98 L317.34,184.00 L317.93,185.00 L318.50,185.97 L318.52,186.00 L319.12,187.00 L319.67,187.88 L319.74,188.00 L320.37,189.00 L320.83,189.73 L321.01,190.00 L321.66,191.00 L322.00,191.52 L322.32,192.00 L322.99,193.00 L323.17,193.26 L323.67,194.00 L324.33,194.96 L324.36,195.00 L325.06,196.00 L325.50,196.62 L325.77,197.00 L326.49,198.00 L326.67,198.24 L327.22,199.00 L327.83,199.82 L327.96,200.00 L328.71,201.00 L329.00,201.38 L329.47,202.00 L330.17,202.90 L330.24,203.00 L331.02,204.00 L331.33,204.40 L331.80,205.00 L332.50,205.87 L332.60,206.00 L333.40,207.00 L333.67,207.32 L334.22,208.00 L334.83,208.75 L335.04,209.00 L335.87,210.00 L336.00,210.16 L336.70,211.00 L337.17,211.55 L337.55,212.00 L338.33,212.92 L338.40,213.00 L339.26,214.00 L339.50,214.27 L340.13,215.00 L340.67,215.61 L341.01,216.00 L341.83,216.94 L341.89,217.00 L342.78,218.00 L343.00,218.25 L343.68,219.00 L344.17,219.54 L344.58,220.00 L345.33,220.82 L345.49,221.00 L346.41,222.00 L346.50,222.10 L347.34,223.00 L347.67,223.35 L348.27,224.00 L348.83,224.60 M305.49,151.00 L305.62,152.00 M305.38,150.00 L305.49,151.00 M305.28,149.00 L305.38,150.00 M305.19,148.00 L305.28,149.00 M305.12,147.00 L305.19,148.00 M305.07,146.00 L305.12,147.00 M305.03,145.00 L305.07,146.00 M305.01,144.00 L305.03,145.00 M305.00,143.00 L305.01,144.00 M305.01,142.00 L305.00,143.00 M305.03,141.00 L305.01,142.00 M305.07,140.00 L305.03,141.00 M305.12,139.00 L305.07,140.00 M305.19,138.00 L305.12,139.00 M305.28,137.00 L305.19,138.00 M305.38,136.00 L305.28,137.00 M305.49,135.00 L305.38,136.00 M305.62,134.00 L305.49,135.00 M305.67,133.69 L305.62,134.00 M305.77,133.00 L305.67,133.69 M305.93,132.00 L305.77,133.00 M306.10,131.00 L305.93,132.00 M306.29,130.00 L306.10,131.00 M306.50,129.00 L306.29,130.00 M306.72,128.00 L306.50,129.00 M306.83,127.52 L306.72,128.00 M306.95,127.00 L306.83,127.52 M307.20,126.00 L306.95,127.00 M307.47,125.00 L307.20,126.00 M307.75,124.00 L307.47,125.00 M308.00,123.14 L307.75,124.00 M308.04,123.00 L308.00,123.14 M308.35,122.00 L308.04,123.00 M308.67,121.00 L308.35,122.00 M309.01,120.00 L308.67,121.00 M309.17,119.55 L309.01,120.00 M309.36,119.00 L309.17,119.55 M309.72,118.00 L309.36,119.00 M310.10,117.00 L309.72,118.00 M310.33,116.40 L310.10,117.00 M310.49,116.00 L310.33,116.40 M310.90,115.00 L310.49,116.00 M311.32,114.00 L310.90,115.00 M311.50,113.57 L311.32,114.00 M311.75,113.00 L311.50,113.57 M312.19,112.00 L311.75,113.00 M312.65,111.00 L312.19,112.00 M312.67,110.97 L312.65,111.00 M313.12,110.00 L312.67,110.97 M313.61,109.00 L313.12,110.00 M313.83,108.55 L313.61,109.00 M314.10,108.00 L313.83,108.55 M314.61,107.00 L314.10,108.00 M315.00,106.26 L314.61,107.00 M315.14,106.00 L315.00,106.26 M315.67,105.00 L315.14,106.00 M316.17,104.09 L315.67,105.00 M316.22,104.00 L316.17,104.09 M316.77,103.00 L316.22,104.00 M317.33,102.02 L316.77,103.00 M317.34,102.00 L317.33,102.02 M317.93,101.00 L317.34,102.00 M318.50,100.03 L317.93,101.00 M318.52,100.00 L318.50,100.03 M319.12,99.00 L318.52,100.00 M319.67,98.12 L319.12,99.00 M319.74,98.00 L319.67,98.12 M320.37,97.00 L319.74,98.00 M320.83,96.27 L320.37,97.00 M321.01,96.00 L320.83,96.27 M321.66,95.00 L321.01,96.00 M322.00,94.48 L321.66,95.00 M322.32,94.00 L322.00,94.48 M322.99,93.00 L322.32,94.00 M323.17,92.74 L322.99,93.00 M323.67,92.00 L323.17,92.74 M324.33,91.04 L323.67,92.00 M324.36,91.00 L324.33,91.04 M325.06,90.00 L324.36,91.00 M325.50,89.38 L325.06,90.00 M325.77,89.00 L325.50,89.38 M326.49,88.00 L325.77,89.00 M326.67,87.76 L326.49,88.00 M327.22,87.00 L326.67,87.76 M327.83,86.18 L327.22,87.00 M327.96,86.00 L327.83,86.18 M328.71,85.00 L327.96,86.00 M329.00,84.62 L328.71,85.00 M329.47,84.00 L329.00,84.62 M330.17,83.10 L329.47,84.00 M330.24,83.00 L330.17,83.10 M331.02,82.00 L330.24,83.00 M331.33,81.60 L331.02,82.00 M331.80,81.00 L331.33,81.60 M332.50,80.13 L331.80,81.00 M332.60,80.00 L332.50,80.13 M333.40,79.00 L332.60,80.00 M333.67,78.68 L333.40,79.00 M334.22,78.00 L333.67,78.68 M334.83,77.25 L334.22,78.00 M335.04,77.00 L334.83,77.25 M335.87,76.00 L335.04,77.00 M336.00,75.84 L335.87,76.00 M336.70,75.00 L336.00,75.84 M337.17,74.45 L336.70,75.00 M337.55,74.00 L337.17,74.45 M338.33,73.08 L337.55,74.00 M338.40,73.00 L338.33,73.08 M339.26,72.00 L338.40,73.00 M339.50,71.73 L339.26,72.00 M340.13,71.00 L339.50,71.73 M340.67,70.39 L340.13,71.00 M341.01,70.00 L340.67,70.39 M341.83,69.06 L341.01,70.00 M341.89,69.00 L341.83,69.06 M342.78,68.00 L341.89,69.00 M343.00,67.75 L342.78,68.00 M343.68,67.00 L343.00,67.75 M344.17,66.46 L343.68,67.00 M344.58,66.00 L344.17,66.46 M345.33,65.18 L344.58,66.00 M345.49,65.00 L345.33,65.18 M346.41,64.00 L345.49,65.00 M346.50,63.90 L346.41,64.00 M347.34,63.00 L346.50,63.90 M347.67,62.65 L347.34,63.00 M348.27,62.00 L347.67,62.65 M348.83,61.40 L348.27,62.00"
                                  style="stroke-width: 2; stroke: rgb(240, 50, 230); stroke-opacity: 1;" />
                        </g>
                    </g>
                    <g class="test-xtl"
                       style="font-family: &quot;Open Sans&quot;, verdana, arial, sans-serif;" />
                    <g class="test-ytl"
                       style="font-family: &quot;Open Sans&quot;, verdana, arial, sans-serif;" />
                    <rect class="real"
                          x="1"
                          y="1"
                          width="348"
                          height="268"
                          style="fill: transparent; stroke: none;" />
                </g>
            </g>
        </g>
        <g class="arrow-line">
            <path class="char"
                  stroke-dasharray="6 6"
                  d="  M19.67,276.78 L370.56,28.78"
                  style="stroke-width: 1; fill: none; fill-opacity: 1;" />
        </g>
        <g class="arrow-line">
            <path class="char"
                  stroke-dasharray="6 6"
                  d="  M20.67,29.11 L369.56,276.22"
                  style="stroke-width: 1; fill: none; fill-opacity: 1;" />
        </g>
        <g />
    </g>
    <g />
    <g />
    <g />
</svg>