<svg xmlns="http://www.w3.org/2000/svg" version="1.1" xmlns:xlink="http://www.w3.org/1999/xlink" xmlns:svgjs="http://svgjs.dev/svgjs" width="1440" height="2580" preserveAspectRatio="none" viewBox="0 0 1440 2580"><g mask="url(&quot;#SvgjsMask1051&quot;)" fill="none"><rect width="1440" height="2580" x="0" y="0" fill="rgba(210, 213, 217, 1)"></rect><path d="M0 -75L64.95 -37.5L64.95 37.5L0 75L-64.95 37.5L-64.95 -37.5zM64.95 37.5L129.91 75L129.91 150L64.95 187.5L0 150L0 75zM0 150L64.95 187.5L64.95 262.5L0 300L-64.95 262.5L-64.95 187.5zM64.95 262.5L129.91 300L129.91 375L64.95 412.5L0 375L0 300zM0 375L64.95 412.5L64.95 487.5L0 525L-64.95 487.5L-64.95 412.5zM64.95 487.5L129.91 525L129.91 600L64.95 637.5L0 600L0 525zM0 600L64.95 637.5L64.95 712.5L0 750L-64.95 712.5L-64.95 637.5zM64.95 712.5L129.91 750L129.91 825L64.95 862.5L0 825L0 750zM0 825L64.95 862.5L64.95 937.5L0 975L-64.95 937.5L-64.95 862.5zM64.95 937.5L129.91 975L129.91 1050L64.95 1087.5L0 1050L0 975zM0 1050L64.95 1087.5L64.95 1162.5L0 1200L-64.95 1162.5L-64.95 1087.5zM64.95 1162.5L129.91 1200L129.91 1275L64.95 1312.5L0 1275L0 1200zM0 1275L64.95 1312.5L64.95 1387.5L0 1425L-64.95 1387.5L-64.95 1312.5zM64.95 1387.5L129.91 1425L129.91 1500L64.95 1537.5L0 1500L0 1425zM0 1500L64.95 1537.5L64.95 1612.5L0 1650L-64.95 1612.5L-64.95 1537.5zM64.95 1612.5L129.91 1650L129.91 1725L64.95 1762.5L0 1725L0 1650zM0 1725L64.95 1762.5L64.95 1837.5L0 1875L-64.95 1837.5L-64.95 1762.5zM64.95 1837.5L129.91 1875L129.91 1950L64.95 1987.5L0 1950L0 1875zM0 1950L64.95 1987.5L64.95 2062.5L0 2100L-64.95 2062.5L-64.95 1987.5zM64.95 2062.5L129.91 2100L129.91 2175L64.95 2212.5L0 2175L0 2100zM0 2175L64.95 2212.5L64.95 2287.5L0 2325L-64.95 2287.5L-64.95 2212.5zM64.95 2287.5L129.91 2325L129.91 2400L64.95 2437.5L0 2400L0 2325zM0 2400L64.95 2437.5L64.95 2512.5L0 2550L-64.95 2512.5L-64.95 2437.5zM64.95 2512.5L129.91 2550L129.91 2625L64.95 2662.5L0 2625L0 2550zM129.91 -75L194.86 -37.5L194.86 37.5L129.91 75L64.95 37.5L64.95 -37.5zM194.86 37.5L259.81 75L259.81 150L194.86 187.5L129.91 150L129.91 75zM129.91 150L194.86 187.5L194.86 262.5L129.91 300L64.95 262.5L64.95 187.5zM194.86 262.5L259.81 300L259.81 375L194.86 412.5L129.91 375L129.91 300zM129.91 375L194.86 412.5L194.86 487.5L129.91 525L64.95 487.5L64.95 412.5zM194.86 487.5L259.81 525L259.81 600L194.86 637.5L129.91 600L129.91 525zM129.91 600L194.86 637.5L194.86 712.5L129.91 750L64.95 712.5L64.95 637.5zM194.86 712.5L259.81 750L259.81 825L194.86 862.5L129.91 825L129.91 750zM129.91 825L194.86 862.5L194.86 937.5L129.91 975L64.95 937.5L64.95 862.5zM194.86 937.5L259.81 975L259.81 1050L194.86 1087.5L129.91 1050L129.91 975zM129.91 1050L194.86 1087.5L194.86 1162.5L129.91 1200L64.95 1162.5L64.95 1087.5zM194.86 1162.5L259.81 1200L259.81 1275L194.86 1312.5L129.91 1275L129.91 1200zM129.91 1275L194.86 1312.5L194.86 1387.5L129.91 1425L64.95 1387.5L64.95 1312.5zM194.86 1387.5L259.81 1425L259.81 1500L194.86 1537.5L129.91 1500L129.91 1425zM129.91 1500L194.86 1537.5L194.86 1612.5L129.91 1650L64.95 1612.5L64.95 1537.5zM194.86 1612.5L259.81 1650L259.81 1725L194.86 1762.5L129.91 1725L129.91 1650zM129.91 1725L194.86 1762.5L194.86 1837.5L129.91 1875L64.95 1837.5L64.95 1762.5zM194.86 1837.5L259.81 1875L259.81 1950L194.86 1987.5L129.91 1950L129.91 1875zM129.91 1950L194.86 1987.5L194.86 2062.5L129.91 2100L64.95 2062.5L64.95 1987.5zM194.86 2062.5L259.81 2100L259.81 2175L194.86 2212.5L129.91 2175L129.91 2100zM129.91 2175L194.86 2212.5L194.86 2287.5L129.91 2325L64.95 2287.5L64.95 2212.5zM194.86 2287.5L259.81 2325L259.81 2400L194.86 2437.5L129.91 2400L129.91 2325zM129.91 2400L194.86 2437.5L194.86 2512.5L129.91 2550L64.95 2512.5L64.95 2437.5zM194.86 2512.5L259.81 2550L259.81 2625L194.86 2662.5L129.91 2625L129.91 2550zM259.81 -75L324.77 -37.5L324.77 37.5L259.81 75L194.86 37.5L194.86 -37.5zM324.77 37.5L389.72 75L389.72 150L324.77 187.5L259.81 150L259.81 75zM259.81 150L324.77 187.5L324.77 262.5L259.81 300L194.86 262.5L194.86 187.5zM324.77 262.5L389.72 300L389.72 375L324.77 412.5L259.81 375L259.81 300zM259.81 375L324.77 412.5L324.77 487.5L259.81 525L194.86 487.5L194.86 412.5zM324.77 487.5L389.72 525L389.72 600L324.77 637.5L259.81 600L259.81 525zM259.81 600L324.77 637.5L324.77 712.5L259.81 750L194.86 712.5L194.86 637.5zM324.77 712.5L389.72 750L389.72 825L324.77 862.5L259.81 825L259.81 750zM259.81 825L324.77 862.5L324.77 937.5L259.81 975L194.86 937.5L194.86 862.5zM324.77 937.5L389.72 975L389.72 1050L324.77 1087.5L259.81 1050L259.81 975zM259.81 1050L324.77 1087.5L324.77 1162.5L259.81 1200L194.86 1162.5L194.86 1087.5zM324.77 1162.5L389.72 1200L389.72 1275L324.77 1312.5L259.81 1275L259.81 1200zM259.81 1275L324.77 1312.5L324.77 1387.5L259.81 1425L194.86 1387.5L194.86 1312.5zM324.77 1387.5L389.72 1425L389.72 1500L324.77 1537.5L259.81 1500L259.81 1425zM259.81 1500L324.77 1537.5L324.77 1612.5L259.81 1650L194.86 1612.5L194.86 1537.5zM324.77 1612.5L389.72 1650L389.72 1725L324.77 1762.5L259.81 1725L259.81 1650zM259.81 1725L324.77 1762.5L324.77 1837.5L259.81 1875L194.86 1837.5L194.86 1762.5zM324.77 1837.5L389.72 1875L389.72 1950L324.77 1987.5L259.81 1950L259.81 1875zM259.81 1950L324.77 1987.5L324.77 2062.5L259.81 2100L194.86 2062.5L194.86 1987.5zM324.77 2062.5L389.72 2100L389.72 2175L324.77 2212.5L259.81 2175L259.81 2100zM259.81 2175L324.77 2212.5L324.77 2287.5L259.81 2325L194.86 2287.5L194.86 2212.5zM324.77 2287.5L389.72 2325L389.72 2400L324.77 2437.5L259.81 2400L259.81 2325zM259.81 2400L324.77 2437.5L324.77 2512.5L259.81 2550L194.86 2512.5L194.86 2437.5zM324.77 2512.5L389.72 2550L389.72 2625L324.77 2662.5L259.81 2625L259.81 2550zM389.72 -75L454.68 -37.5L454.68 37.5L389.72 75L324.77 37.5L324.77 -37.5zM454.68 37.5L519.63 75L519.63 150L454.68 187.5L389.72 150L389.72 75zM389.72 150L454.68 187.5L454.68 262.5L389.72 300L324.77 262.5L324.77 187.5zM454.68 262.5L519.63 300L519.63 375L454.68 412.5L389.72 375L389.72 300zM389.72 375L454.68 412.5L454.68 487.5L389.72 525L324.77 487.5L324.77 412.5zM454.68 487.5L519.63 525L519.63 600L454.68 637.5L389.72 600L389.72 525zM389.72 600L454.68 637.5L454.68 712.5L389.72 750L324.77 712.5L324.77 637.5zM454.68 712.5L519.63 750L519.63 825L454.68 862.5L389.72 825L389.72 750zM389.72 825L454.68 862.5L454.68 937.5L389.72 975L324.77 937.5L324.77 862.5zM454.68 937.5L519.63 975L519.63 1050L454.68 1087.5L389.72 1050L389.72 975zM389.72 1050L454.68 1087.5L454.68 1162.5L389.72 1200L324.77 1162.5L324.77 1087.5zM454.68 1162.5L519.63 1200L519.63 1275L454.68 1312.5L389.72 1275L389.72 1200zM389.72 1275L454.68 1312.5L454.68 1387.5L389.72 1425L324.77 1387.5L324.77 1312.5zM454.68 1387.5L519.63 1425L519.63 1500L454.68 1537.5L389.72 1500L389.72 1425zM389.72 1500L454.68 1537.5L454.68 1612.5L389.72 1650L324.77 1612.5L324.77 1537.5zM454.68 1612.5L519.63 1650L519.63 1725L454.68 1762.5L389.72 1725L389.72 1650zM389.72 1725L454.68 1762.5L454.68 1837.5L389.72 1875L324.77 1837.5L324.77 1762.5zM454.68 1837.5L519.63 1875L519.63 1950L454.68 1987.5L389.72 1950L389.72 1875zM389.72 1950L454.68 1987.5L454.68 2062.5L389.72 2100L324.77 2062.5L324.77 1987.5zM454.68 2062.5L519.63 2100L519.63 2175L454.68 2212.5L389.72 2175L389.72 2100zM389.72 2175L454.68 2212.5L454.68 2287.5L389.72 2325L324.77 2287.5L324.77 2212.5zM454.68 2287.5L519.63 2325L519.63 2400L454.68 2437.5L389.72 2400L389.72 2325zM389.72 2400L454.68 2437.5L454.68 2512.5L389.72 2550L324.77 2512.5L324.77 2437.5zM454.68 2512.5L519.63 2550L519.63 2625L454.68 2662.5L389.72 2625L389.72 2550zM519.63 -75L584.58 -37.5L584.58 37.5L519.63 75L454.68 37.5L454.68 -37.5zM584.58 37.5L649.54 75L649.54 150L584.58 187.5L519.63 150L519.63 75zM519.63 150L584.58 187.5L584.58 262.5L519.63 300L454.68 262.5L454.68 187.5zM584.58 262.5L649.54 300L649.54 375L584.58 412.5L519.63 375L519.63 300zM519.63 375L584.58 412.5L584.58 487.5L519.63 525L454.68 487.5L454.68 412.5zM584.58 487.5L649.54 525L649.54 600L584.58 637.5L519.63 600L519.63 525zM519.63 600L584.58 637.5L584.58 712.5L519.63 750L454.68 712.5L454.68 637.5zM584.58 712.5L649.54 750L649.54 825L584.58 862.5L519.63 825L519.63 750zM519.63 825L584.58 862.5L584.58 937.5L519.63 975L454.68 937.5L454.68 862.5zM584.58 937.5L649.54 975L649.54 1050L584.58 1087.5L519.63 1050L519.63 975zM519.63 1050L584.58 1087.5L584.58 1162.5L519.63 1200L454.68 1162.5L454.68 1087.5zM584.58 1162.5L649.54 1200L649.54 1275L584.58 1312.5L519.63 1275L519.63 1200zM519.63 1275L584.58 1312.5L584.58 1387.5L519.63 1425L454.68 1387.5L454.68 1312.5zM584.58 1387.5L649.54 1425L649.54 1500L584.58 1537.5L519.63 1500L519.63 1425zM519.63 1500L584.58 1537.5L584.58 1612.5L519.63 1650L454.68 1612.5L454.68 1537.5zM584.58 1612.5L649.54 1650L649.54 1725L584.58 1762.5L519.63 1725L519.63 1650zM519.63 1725L584.58 1762.5L584.58 1837.5L519.63 1875L454.68 1837.5L454.68 1762.5zM584.58 1837.5L649.54 1875L649.54 1950L584.58 1987.5L519.63 1950L519.63 1875zM519.63 1950L584.58 1987.5L584.58 2062.5L519.63 2100L454.68 2062.5L454.68 1987.5zM584.58 2062.5L649.54 2100L649.54 2175L584.58 2212.5L519.63 2175L519.63 2100zM519.63 2175L584.58 2212.5L584.58 2287.5L519.63 2325L454.68 2287.5L454.68 2212.5zM584.58 2287.5L649.54 2325L649.54 2400L584.58 2437.5L519.63 2400L519.63 2325zM519.63 2400L584.58 2437.5L584.58 2512.5L519.63 2550L454.68 2512.5L454.68 2437.5zM584.58 2512.5L649.54 2550L649.54 2625L584.58 2662.5L519.63 2625L519.63 2550zM649.54 -75L714.49 -37.5L714.49 37.5L649.54 75L584.58 37.5L584.58 -37.5zM714.49 37.5L779.45 75L779.45 150L714.49 187.5L649.54 150L649.54 75zM649.54 150L714.49 187.5L714.49 262.5L649.54 300L584.58 262.5L584.58 187.5zM714.49 262.5L779.45 300L779.45 375L714.49 412.5L649.54 375L649.54 300zM649.54 375L714.49 412.5L714.49 487.5L649.54 525L584.58 487.5L584.58 412.5zM714.49 487.5L779.45 525L779.45 600L714.49 637.5L649.54 600L649.54 525zM649.54 600L714.49 637.5L714.49 712.5L649.54 750L584.58 712.5L584.58 637.5zM714.49 712.5L779.45 750L779.45 825L714.49 862.5L649.54 825L649.54 750zM649.54 825L714.49 862.5L714.49 937.5L649.54 975L584.58 937.5L584.58 862.5zM714.49 937.5L779.45 975L779.45 1050L714.49 1087.5L649.54 1050L649.54 975zM649.54 1050L714.49 1087.5L714.49 1162.5L649.54 1200L584.58 1162.5L584.58 1087.5zM714.49 1162.5L779.45 1200L779.45 1275L714.49 1312.5L649.54 1275L649.54 1200zM649.54 1275L714.49 1312.5L714.49 1387.5L649.54 1425L584.58 1387.5L584.58 1312.5zM714.49 1387.5L779.45 1425L779.45 1500L714.49 1537.5L649.54 1500L649.54 1425zM649.54 1500L714.49 1537.5L714.49 1612.5L649.54 1650L584.58 1612.5L584.58 1537.5zM714.49 1612.5L779.45 1650L779.45 1725L714.49 1762.5L649.54 1725L649.54 1650zM649.54 1725L714.49 1762.5L714.49 1837.5L649.54 1875L584.58 1837.5L584.58 1762.5zM714.49 1837.5L779.45 1875L779.45 1950L714.49 1987.5L649.54 1950L649.54 1875zM649.54 1950L714.49 1987.5L714.49 2062.5L649.54 2100L584.58 2062.5L584.58 1987.5zM714.49 2062.5L779.45 2100L779.45 2175L714.49 2212.5L649.54 2175L649.54 2100zM649.54 2175L714.49 2212.5L714.49 2287.5L649.54 2325L584.58 2287.5L584.58 2212.5zM714.49 2287.5L779.45 2325L779.45 2400L714.49 2437.5L649.54 2400L649.54 2325zM649.54 2400L714.49 2437.5L714.49 2512.5L649.54 2550L584.58 2512.5L584.58 2437.5zM714.49 2512.5L779.45 2550L779.45 2625L714.49 2662.5L649.54 2625L649.54 2550zM779.44 -75L844.4 -37.5L844.4 37.5L779.44 75L714.49 37.5L714.49 -37.5zM844.4 37.5L909.35 75L909.35 150L844.4 187.5L779.44 150L779.44 75zM779.44 150L844.4 187.5L844.4 262.5L779.44 300L714.49 262.5L714.49 187.5zM844.4 262.5L909.35 300L909.35 375L844.4 412.5L779.44 375L779.44 300zM779.44 375L844.4 412.5L844.4 487.5L779.44 525L714.49 487.5L714.49 412.5zM844.4 487.5L909.35 525L909.35 600L844.4 637.5L779.44 600L779.44 525zM779.44 600L844.4 637.5L844.4 712.5L779.44 750L714.49 712.5L714.49 637.5zM844.4 712.5L909.35 750L909.35 825L844.4 862.5L779.44 825L779.44 750zM779.44 825L844.4 862.5L844.4 937.5L779.44 975L714.49 937.5L714.49 862.5zM844.4 937.5L909.35 975L909.35 1050L844.4 1087.5L779.44 1050L779.44 975zM779.44 1050L844.4 1087.5L844.4 1162.5L779.44 1200L714.49 1162.5L714.49 1087.5zM844.4 1162.5L909.35 1200L909.35 1275L844.4 1312.5L779.44 1275L779.44 1200zM779.44 1275L844.4 1312.5L844.4 1387.5L779.44 1425L714.49 1387.5L714.49 1312.5zM844.4 1387.5L909.35 1425L909.35 1500L844.4 1537.5L779.44 1500L779.44 1425zM779.44 1500L844.4 1537.5L844.4 1612.5L779.44 1650L714.49 1612.5L714.49 1537.5zM844.4 1612.5L909.35 1650L909.35 1725L844.4 1762.5L779.44 1725L779.44 1650zM779.44 1725L844.4 1762.5L844.4 1837.5L779.44 1875L714.49 1837.5L714.49 1762.5zM844.4 1837.5L909.35 1875L909.35 1950L844.4 1987.5L779.44 1950L779.44 1875zM779.44 1950L844.4 1987.5L844.4 2062.5L779.44 2100L714.49 2062.5L714.49 1987.5zM844.4 2062.5L909.35 2100L909.35 2175L844.4 2212.5L779.44 2175L779.44 2100zM779.44 2175L844.4 2212.5L844.4 2287.5L779.44 2325L714.49 2287.5L714.49 2212.5zM844.4 2287.5L909.35 2325L909.35 2400L844.4 2437.5L779.44 2400L779.44 2325zM779.44 2400L844.4 2437.5L844.4 2512.5L779.44 2550L714.49 2512.5L714.49 2437.5zM844.4 2512.5L909.35 2550L909.35 2625L844.4 2662.5L779.44 2625L779.44 2550zM909.35 -75L974.31 -37.5L974.31 37.5L909.35 75L844.4 37.5L844.4 -37.5zM974.31 37.5L1039.26 75L1039.26 150L974.31 187.5L909.35 150L909.35 75zM909.35 150L974.31 187.5L974.31 262.5L909.35 300L844.4 262.5L844.4 187.5zM974.31 262.5L1039.26 300L1039.26 375L974.31 412.5L909.35 375L909.35 300zM909.35 375L974.31 412.5L974.31 487.5L909.35 525L844.4 487.5L844.4 412.5zM974.31 487.5L1039.26 525L1039.26 600L974.31 637.5L909.35 600L909.35 525zM909.35 600L974.31 637.5L974.31 712.5L909.35 750L844.4 712.5L844.4 637.5zM974.31 712.5L1039.26 750L1039.26 825L974.31 862.5L909.35 825L909.35 750zM909.35 825L974.31 862.5L974.31 937.5L909.35 975L844.4 937.5L844.4 862.5zM974.31 937.5L1039.26 975L1039.26 1050L974.31 1087.5L909.35 1050L909.35 975zM909.35 1050L974.31 1087.5L974.31 1162.5L909.35 1200L844.4 1162.5L844.4 1087.5zM974.31 1162.5L1039.26 1200L1039.26 1275L974.31 1312.5L909.35 1275L909.35 1200zM909.35 1275L974.31 1312.5L974.31 1387.5L909.35 1425L844.4 1387.5L844.4 1312.5zM974.31 1387.5L1039.26 1425L1039.26 1500L974.31 1537.5L909.35 1500L909.35 1425zM909.35 1500L974.31 1537.5L974.31 1612.5L909.35 1650L844.4 1612.5L844.4 1537.5zM974.31 1612.5L1039.26 1650L1039.26 1725L974.31 1762.5L909.35 1725L909.35 1650zM909.35 1725L974.31 1762.5L974.31 1837.5L909.35 1875L844.4 1837.5L844.4 1762.5zM974.31 1837.5L1039.26 1875L1039.26 1950L974.31 1987.5L909.35 1950L909.35 1875zM909.35 1950L974.31 1987.5L974.31 2062.5L909.35 2100L844.4 2062.5L844.4 1987.5zM974.31 2062.5L1039.26 2100L1039.26 2175L974.31 2212.5L909.35 2175L909.35 2100zM909.35 2175L974.31 2212.5L974.31 2287.5L909.35 2325L844.4 2287.5L844.4 2212.5zM974.31 2287.5L1039.26 2325L1039.26 2400L974.31 2437.5L909.35 2400L909.35 2325zM909.35 2400L974.31 2437.5L974.31 2512.5L909.35 2550L844.4 2512.5L844.4 2437.5zM974.31 2512.5L1039.26 2550L1039.26 2625L974.31 2662.5L909.35 2625L909.35 2550zM1039.26 -75L1104.21 -37.5L1104.21 37.5L1039.26 75L974.31 37.5L974.31 -37.5zM1104.21 37.5L1169.17 75L1169.17 150L1104.21 187.5L1039.26 150L1039.26 75zM1039.26 150L1104.21 187.5L1104.21 262.5L1039.26 300L974.31 262.5L974.31 187.5zM1104.21 262.5L1169.17 300L1169.17 375L1104.21 412.5L1039.26 375L1039.26 300zM1039.26 375L1104.21 412.5L1104.21 487.5L1039.26 525L974.31 487.5L974.31 412.5zM1104.21 487.5L1169.17 525L1169.17 600L1104.21 637.5L1039.26 600L1039.26 525zM1039.26 600L1104.21 637.5L1104.21 712.5L1039.26 750L974.31 712.5L974.31 637.5zM1104.21 712.5L1169.17 750L1169.17 825L1104.21 862.5L1039.26 825L1039.26 750zM1039.26 825L1104.21 862.5L1104.21 937.5L1039.26 975L974.31 937.5L974.31 862.5zM1104.21 937.5L1169.17 975L1169.17 1050L1104.21 1087.5L1039.26 1050L1039.26 975zM1039.26 1050L1104.21 1087.5L1104.21 1162.5L1039.26 1200L974.31 1162.5L974.31 1087.5zM1104.21 1162.5L1169.17 1200L1169.17 1275L1104.21 1312.5L1039.26 1275L1039.26 1200zM1039.26 1275L1104.21 1312.5L1104.21 1387.5L1039.26 1425L974.31 1387.5L974.31 1312.5zM1104.21 1387.5L1169.17 1425L1169.17 1500L1104.21 1537.5L1039.26 1500L1039.26 1425zM1039.26 1500L1104.21 1537.5L1104.21 1612.5L1039.26 1650L974.31 1612.5L974.31 1537.5zM1104.21 1612.5L1169.17 1650L1169.17 1725L1104.21 1762.5L1039.26 1725L1039.26 1650zM1039.26 1725L1104.21 1762.5L1104.21 1837.5L1039.26 1875L974.31 1837.5L974.31 1762.5zM1104.21 1837.5L1169.17 1875L1169.17 1950L1104.21 1987.5L1039.26 1950L1039.26 1875zM1039.26 1950L1104.21 1987.5L1104.21 2062.5L1039.26 2100L974.31 2062.5L974.31 1987.5zM1104.21 2062.5L1169.17 2100L1169.17 2175L1104.21 2212.5L1039.26 2175L1039.26 2100zM1039.26 2175L1104.21 2212.5L1104.21 2287.5L1039.26 2325L974.31 2287.5L974.31 2212.5zM1104.21 2287.5L1169.17 2325L1169.17 2400L1104.21 2437.5L1039.26 2400L1039.26 2325zM1039.26 2400L1104.21 2437.5L1104.21 2512.5L1039.26 2550L974.31 2512.5L974.31 2437.5zM1104.21 2512.5L1169.17 2550L1169.17 2625L1104.21 2662.5L1039.26 2625L1039.26 2550zM1169.17 -75L1234.12 -37.5L1234.12 37.5L1169.17 75L1104.21 37.5L1104.21 -37.5zM1234.12 37.5L1299.07 75L1299.07 150L1234.12 187.5L1169.17 150L1169.17 75zM1169.17 150L1234.12 187.5L1234.12 262.5L1169.17 300L1104.21 262.5L1104.21 187.5zM1234.12 262.5L1299.07 300L1299.07 375L1234.12 412.5L1169.17 375L1169.17 300zM1169.17 375L1234.12 412.5L1234.12 487.5L1169.17 525L1104.21 487.5L1104.21 412.5zM1234.12 487.5L1299.07 525L1299.07 600L1234.12 637.5L1169.17 600L1169.17 525zM1169.17 600L1234.12 637.5L1234.12 712.5L1169.17 750L1104.21 712.5L1104.21 637.5zM1234.12 712.5L1299.07 750L1299.07 825L1234.12 862.5L1169.17 825L1169.17 750zM1169.17 825L1234.12 862.5L1234.12 937.5L1169.17 975L1104.21 937.5L1104.21 862.5zM1234.12 937.5L1299.07 975L1299.07 1050L1234.12 1087.5L1169.17 1050L1169.17 975zM1169.17 1050L1234.12 1087.5L1234.12 1162.5L1169.17 1200L1104.21 1162.5L1104.21 1087.5zM1234.12 1162.5L1299.07 1200L1299.07 1275L1234.12 1312.5L1169.17 1275L1169.17 1200zM1169.17 1275L1234.12 1312.5L1234.12 1387.5L1169.17 1425L1104.21 1387.5L1104.21 1312.5zM1234.12 1387.5L1299.07 1425L1299.07 1500L1234.12 1537.5L1169.17 1500L1169.17 1425zM1169.17 1500L1234.12 1537.5L1234.12 1612.5L1169.17 1650L1104.21 1612.5L1104.21 1537.5zM1234.12 1612.5L1299.07 1650L1299.07 1725L1234.12 1762.5L1169.17 1725L1169.17 1650zM1169.17 1725L1234.12 1762.5L1234.12 1837.5L1169.17 1875L1104.21 1837.5L1104.21 1762.5zM1234.12 1837.5L1299.07 1875L1299.07 1950L1234.12 1987.5L1169.17 1950L1169.17 1875zM1169.17 1950L1234.12 1987.5L1234.12 2062.5L1169.17 2100L1104.21 2062.5L1104.21 1987.5zM1234.12 2062.5L1299.07 2100L1299.07 2175L1234.12 2212.5L1169.17 2175L1169.17 2100zM1169.17 2175L1234.12 2212.5L1234.12 2287.5L1169.17 2325L1104.21 2287.5L1104.21 2212.5zM1234.12 2287.5L1299.07 2325L1299.07 2400L1234.12 2437.5L1169.17 2400L1169.17 2325zM1169.17 2400L1234.12 2437.5L1234.12 2512.5L1169.17 2550L1104.21 2512.5L1104.21 2437.5zM1234.12 2512.5L1299.07 2550L1299.07 2625L1234.12 2662.5L1169.17 2625L1169.17 2550zM1299.08 -75L1364.03 -37.5L1364.03 37.5L1299.08 75L1234.12 37.5L1234.12 -37.5zM1364.03 37.5L1428.98 75L1428.98 150L1364.03 187.5L1299.08 150L1299.08 75zM1299.08 150L1364.03 187.5L1364.03 262.5L1299.08 300L1234.12 262.5L1234.12 187.5zM1364.03 262.5L1428.98 300L1428.98 375L1364.03 412.5L1299.08 375L1299.08 300zM1299.08 375L1364.03 412.5L1364.03 487.5L1299.08 525L1234.12 487.5L1234.12 412.5zM1364.03 487.5L1428.98 525L1428.98 600L1364.03 637.5L1299.08 600L1299.08 525zM1299.08 600L1364.03 637.5L1364.03 712.5L1299.08 750L1234.12 712.5L1234.12 637.5zM1364.03 712.5L1428.98 750L1428.98 825L1364.03 862.5L1299.08 825L1299.08 750zM1299.08 825L1364.03 862.5L1364.03 937.5L1299.08 975L1234.12 937.5L1234.12 862.5zM1364.03 937.5L1428.98 975L1428.98 1050L1364.03 1087.5L1299.08 1050L1299.08 975zM1299.08 1050L1364.03 1087.5L1364.03 1162.5L1299.08 1200L1234.12 1162.5L1234.12 1087.5zM1364.03 1162.5L1428.98 1200L1428.98 1275L1364.03 1312.5L1299.08 1275L1299.08 1200zM1299.08 1275L1364.03 1312.5L1364.03 1387.5L1299.08 1425L1234.12 1387.5L1234.12 1312.5zM1364.03 1387.5L1428.98 1425L1428.98 1500L1364.03 1537.5L1299.08 1500L1299.08 1425zM1299.08 1500L1364.03 1537.5L1364.03 1612.5L1299.08 1650L1234.12 1612.5L1234.12 1537.5zM1364.03 1612.5L1428.98 1650L1428.98 1725L1364.03 1762.5L1299.08 1725L1299.08 1650zM1299.08 1725L1364.03 1762.5L1364.03 1837.5L1299.08 1875L1234.12 1837.5L1234.12 1762.5zM1364.03 1837.5L1428.98 1875L1428.98 1950L1364.03 1987.5L1299.08 1950L1299.08 1875zM1299.08 1950L1364.03 1987.5L1364.03 2062.5L1299.08 2100L1234.12 2062.5L1234.12 1987.5zM1364.03 2062.5L1428.98 2100L1428.98 2175L1364.03 2212.5L1299.08 2175L1299.08 2100zM1299.08 2175L1364.03 2212.5L1364.03 2287.5L1299.08 2325L1234.12 2287.5L1234.12 2212.5zM1364.03 2287.5L1428.98 2325L1428.98 2400L1364.03 2437.5L1299.08 2400L1299.08 2325zM1299.08 2400L1364.03 2437.5L1364.03 2512.5L1299.08 2550L1234.12 2512.5L1234.12 2437.5zM1364.03 2512.5L1428.98 2550L1428.98 2625L1364.03 2662.5L1299.08 2625L1299.08 2550zM1428.98 -75L1493.94 -37.5L1493.94 37.5L1428.98 75L1364.03 37.5L1364.03 -37.5zM1493.94 37.5L1558.89 75L1558.89 150L1493.94 187.5L1428.98 150L1428.98 75zM1428.98 150L1493.94 187.5L1493.94 262.5L1428.98 300L1364.03 262.5L1364.03 187.5zM1493.94 262.5L1558.89 300L1558.89 375L1493.94 412.5L1428.98 375L1428.98 300zM1428.98 375L1493.94 412.5L1493.94 487.5L1428.98 525L1364.03 487.5L1364.03 412.5zM1493.94 487.5L1558.89 525L1558.89 600L1493.94 637.5L1428.98 600L1428.98 525zM1428.98 600L1493.94 637.5L1493.94 712.5L1428.98 750L1364.03 712.5L1364.03 637.5zM1493.94 712.5L1558.89 750L1558.89 825L1493.94 862.5L1428.98 825L1428.98 750zM1428.98 825L1493.94 862.5L1493.94 937.5L1428.98 975L1364.03 937.5L1364.03 862.5zM1493.94 937.5L1558.89 975L1558.89 1050L1493.94 1087.5L1428.98 1050L1428.98 975zM1428.98 1050L1493.94 1087.5L1493.94 1162.5L1428.98 1200L1364.03 1162.5L1364.03 1087.5zM1493.94 1162.5L1558.89 1200L1558.89 1275L1493.94 1312.5L1428.98 1275L1428.98 1200zM1428.98 1275L1493.94 1312.5L1493.94 1387.5L1428.98 1425L1364.03 1387.5L1364.03 1312.5zM1493.94 1387.5L1558.89 1425L1558.89 1500L1493.94 1537.5L1428.98 1500L1428.98 1425zM1428.98 1500L1493.94 1537.5L1493.94 1612.5L1428.98 1650L1364.03 1612.5L1364.03 1537.5zM1493.94 1612.5L1558.89 1650L1558.89 1725L1493.94 1762.5L1428.98 1725L1428.98 1650zM1428.98 1725L1493.94 1762.5L1493.94 1837.5L1428.98 1875L1364.03 1837.5L1364.03 1762.5zM1493.94 1837.5L1558.89 1875L1558.89 1950L1493.94 1987.5L1428.98 1950L1428.98 1875zM1428.98 1950L1493.94 1987.5L1493.94 2062.5L1428.98 2100L1364.03 2062.5L1364.03 1987.5zM1493.94 2062.5L1558.89 2100L1558.89 2175L1493.94 2212.5L1428.98 2175L1428.98 2100zM1428.98 2175L1493.94 2212.5L1493.94 2287.5L1428.98 2325L1364.03 2287.5L1364.03 2212.5zM1493.94 2287.5L1558.89 2325L1558.89 2400L1493.94 2437.5L1428.98 2400L1428.98 2325zM1428.98 2400L1493.94 2437.5L1493.94 2512.5L1428.98 2550L1364.03 2512.5L1364.03 2437.5zM1493.94 2512.5L1558.89 2550L1558.89 2625L1493.94 2662.5L1428.98 2625L1428.98 2550z" stroke="rgba(216, 224, 232, 1)" stroke-width="2"></path><path d="M-7.5 -75 a7.5 7.5 0 1 0 15 0 a7.5 7.5 0 1 0 -15 0zM57.45 -37.5 a7.5 7.5 0 1 0 15 0 a7.5 7.5 0 1 0 -15 0zM57.45 37.5 a7.5 7.5 0 1 0 15 0 a7.5 7.5 0 1 0 -15 0zM-7.5 75 a7.5 7.5 0 1 0 15 0 a7.5 7.5 0 1 0 -15 0zM-72.45 37.5 a7.5 7.5 0 1 0 15 0 a7.5 7.5 0 1 0 -15 0zM-72.45 -37.5 a7.5 7.5 0 1 0 15 0 a7.5 7.5 0 1 0 -15 0zM122.41 75 a7.5 7.5 0 1 0 15 0 a7.5 7.5 0 1 0 -15 0zM122.41 150 a7.5 7.5 0 1 0 15 0 a7.5 7.5 0 1 0 -15 0zM57.45 187.5 a7.5 7.5 0 1 0 15 0 a7.5 7.5 0 1 0 -15 0zM-7.5 150 a7.5 7.5 0 1 0 15 0 a7.5 7.5 0 1 0 -15 0zM57.45 262.5 a7.5 7.5 0 1 0 15 0 a7.5 7.5 0 1 0 -15 0zM-7.5 300 a7.5 7.5 0 1 0 15 0 a7.5 7.5 0 1 0 -15 0zM-72.45 262.5 a7.5 7.5 0 1 0 15 0 a7.5 7.5 0 1 0 -15 0zM-72.45 187.5 a7.5 7.5 0 1 0 15 0 a7.5 7.5 0 1 0 -15 0zM122.41 300 a7.5 7.5 0 1 0 15 0 a7.5 7.5 0 1 0 -15 0zM122.41 375 a7.5 7.5 0 1 0 15 0 a7.5 7.5 0 1 0 -15 0zM57.45 412.5 a7.5 7.5 0 1 0 15 0 a7.5 7.5 0 1 0 -15 0zM-7.5 375 a7.5 7.5 0 1 0 15 0 a7.5 7.5 0 1 0 -15 0zM57.45 487.5 a7.5 7.5 0 1 0 15 0 a7.5 7.5 0 1 0 -15 0zM-7.5 525 a7.5 7.5 0 1 0 15 0 a7.5 7.5 0 1 0 -15 0zM-72.45 487.5 a7.5 7.5 0 1 0 15 0 a7.5 7.5 0 1 0 -15 0zM-72.45 412.5 a7.5 7.5 0 1 0 15 0 a7.5 7.5 0 1 0 -15 0zM122.41 525 a7.5 7.5 0 1 0 15 0 a7.5 7.5 0 1 0 -15 0zM122.41 600 a7.5 7.5 0 1 0 15 0 a7.5 7.5 0 1 0 -15 0zM57.45 637.5 a7.5 7.5 0 1 0 15 0 a7.5 7.5 0 1 0 -15 0zM-7.5 600 a7.5 7.5 0 1 0 15 0 a7.5 7.5 0 1 0 -15 0zM57.45 712.5 a7.5 7.5 0 1 0 15 0 a7.5 7.5 0 1 0 -15 0zM-7.5 750 a7.5 7.5 0 1 0 15 0 a7.5 7.5 0 1 0 -15 0zM-72.45 712.5 a7.5 7.5 0 1 0 15 0 a7.5 7.5 0 1 0 -15 0zM-72.45 637.5 a7.5 7.5 0 1 0 15 0 a7.5 7.5 0 1 0 -15 0zM122.41 750 a7.5 7.5 0 1 0 15 0 a7.5 7.5 0 1 0 -15 0zM122.41 825 a7.5 7.5 0 1 0 15 0 a7.5 7.5 0 1 0 -15 0zM57.45 862.5 a7.5 7.5 0 1 0 15 0 a7.5 7.5 0 1 0 -15 0zM-7.5 825 a7.5 7.5 0 1 0 15 0 a7.5 7.5 0 1 0 -15 0zM57.45 937.5 a7.5 7.5 0 1 0 15 0 a7.5 7.5 0 1 0 -15 0zM-7.5 975 a7.5 7.5 0 1 0 15 0 a7.5 7.5 0 1 0 -15 0zM-72.45 937.5 a7.5 7.5 0 1 0 15 0 a7.5 7.5 0 1 0 -15 0zM-72.45 862.5 a7.5 7.5 0 1 0 15 0 a7.5 7.5 0 1 0 -15 0zM122.41 975 a7.5 7.5 0 1 0 15 0 a7.5 7.5 0 1 0 -15 0zM122.41 1050 a7.5 7.5 0 1 0 15 0 a7.5 7.5 0 1 0 -15 0zM57.45 1087.5 a7.5 7.5 0 1 0 15 0 a7.5 7.5 0 1 0 -15 0zM-7.5 1050 a7.5 7.5 0 1 0 15 0 a7.5 7.5 0 1 0 -15 0zM57.45 1162.5 a7.5 7.5 0 1 0 15 0 a7.5 7.5 0 1 0 -15 0zM-7.5 1200 a7.5 7.5 0 1 0 15 0 a7.5 7.5 0 1 0 -15 0zM-72.45 1162.5 a7.5 7.5 0 1 0 15 0 a7.5 7.5 0 1 0 -15 0zM-72.45 1087.5 a7.5 7.5 0 1 0 15 0 a7.5 7.5 0 1 0 -15 0zM122.41 1200 a7.5 7.5 0 1 0 15 0 a7.5 7.5 0 1 0 -15 0zM122.41 1275 a7.5 7.5 0 1 0 15 0 a7.5 7.5 0 1 0 -15 0zM57.45 1312.5 a7.5 7.5 0 1 0 15 0 a7.5 7.5 0 1 0 -15 0zM-7.5 1275 a7.5 7.5 0 1 0 15 0 a7.5 7.5 0 1 0 -15 0zM57.45 1387.5 a7.5 7.5 0 1 0 15 0 a7.5 7.5 0 1 0 -15 0zM-7.5 1425 a7.5 7.5 0 1 0 15 0 a7.5 7.5 0 1 0 -15 0zM-72.45 1387.5 a7.5 7.5 0 1 0 15 0 a7.5 7.5 0 1 0 -15 0zM-72.45 1312.5 a7.5 7.5 0 1 0 15 0 a7.5 7.5 0 1 0 -15 0zM122.41 1425 a7.5 7.5 0 1 0 15 0 a7.5 7.5 0 1 0 -15 0zM122.41 1500 a7.5 7.5 0 1 0 15 0 a7.5 7.5 0 1 0 -15 0zM57.45 1537.5 a7.5 7.5 0 1 0 15 0 a7.5 7.5 0 1 0 -15 0zM-7.5 1500 a7.5 7.5 0 1 0 15 0 a7.5 7.5 0 1 0 -15 0zM57.45 1612.5 a7.5 7.5 0 1 0 15 0 a7.5 7.5 0 1 0 -15 0zM-7.5 1650 a7.5 7.5 0 1 0 15 0 a7.5 7.5 0 1 0 -15 0zM-72.45 1612.5 a7.5 7.5 0 1 0 15 0 a7.5 7.5 0 1 0 -15 0zM-72.45 1537.5 a7.5 7.5 0 1 0 15 0 a7.5 7.5 0 1 0 -15 0zM122.41 1650 a7.5 7.5 0 1 0 15 0 a7.5 7.5 0 1 0 -15 0zM122.41 1725 a7.5 7.5 0 1 0 15 0 a7.5 7.5 0 1 0 -15 0zM57.45 1762.5 a7.5 7.5 0 1 0 15 0 a7.5 7.5 0 1 0 -15 0zM-7.5 1725 a7.5 7.5 0 1 0 15 0 a7.5 7.5 0 1 0 -15 0zM57.45 1837.5 a7.5 7.5 0 1 0 15 0 a7.5 7.5 0 1 0 -15 0zM-7.5 1875 a7.5 7.5 0 1 0 15 0 a7.5 7.5 0 1 0 -15 0zM-72.45 1837.5 a7.5 7.5 0 1 0 15 0 a7.5 7.5 0 1 0 -15 0zM-72.45 1762.5 a7.5 7.5 0 1 0 15 0 a7.5 7.5 0 1 0 -15 0zM122.41 1875 a7.5 7.5 0 1 0 15 0 a7.5 7.5 0 1 0 -15 0zM122.41 1950 a7.5 7.5 0 1 0 15 0 a7.5 7.5 0 1 0 -15 0zM57.45 1987.5 a7.5 7.5 0 1 0 15 0 a7.5 7.5 0 1 0 -15 0zM-7.5 1950 a7.5 7.5 0 1 0 15 0 a7.5 7.5 0 1 0 -15 0zM57.45 2062.5 a7.5 7.5 0 1 0 15 0 a7.5 7.5 0 1 0 -15 0zM-7.5 2100 a7.5 7.5 0 1 0 15 0 a7.5 7.5 0 1 0 -15 0zM-72.45 2062.5 a7.5 7.5 0 1 0 15 0 a7.5 7.5 0 1 0 -15 0zM-72.45 1987.5 a7.5 7.5 0 1 0 15 0 a7.5 7.5 0 1 0 -15 0zM122.41 2100 a7.5 7.5 0 1 0 15 0 a7.5 7.5 0 1 0 -15 0zM122.41 2175 a7.5 7.5 0 1 0 15 0 a7.5 7.5 0 1 0 -15 0zM57.45 2212.5 a7.5 7.5 0 1 0 15 0 a7.5 7.5 0 1 0 -15 0zM-7.5 2175 a7.5 7.5 0 1 0 15 0 a7.5 7.5 0 1 0 -15 0zM57.45 2287.5 a7.5 7.5 0 1 0 15 0 a7.5 7.5 0 1 0 -15 0zM-7.5 2325 a7.5 7.5 0 1 0 15 0 a7.5 7.5 0 1 0 -15 0zM-72.45 2287.5 a7.5 7.5 0 1 0 15 0 a7.5 7.5 0 1 0 -15 0zM-72.45 2212.5 a7.5 7.5 0 1 0 15 0 a7.5 7.5 0 1 0 -15 0zM122.41 2325 a7.5 7.5 0 1 0 15 0 a7.5 7.5 0 1 0 -15 0zM122.41 2400 a7.5 7.5 0 1 0 15 0 a7.5 7.5 0 1 0 -15 0zM57.45 2437.5 a7.5 7.5 0 1 0 15 0 a7.5 7.5 0 1 0 -15 0zM-7.5 2400 a7.5 7.5 0 1 0 15 0 a7.5 7.5 0 1 0 -15 0zM57.45 2512.5 a7.5 7.5 0 1 0 15 0 a7.5 7.5 0 1 0 -15 0zM-7.5 2550 a7.5 7.5 0 1 0 15 0 a7.5 7.5 0 1 0 -15 0zM-72.45 2512.5 a7.5 7.5 0 1 0 15 0 a7.5 7.5 0 1 0 -15 0zM-72.45 2437.5 a7.5 7.5 0 1 0 15 0 a7.5 7.5 0 1 0 -15 0zM122.41 2550 a7.5 7.5 0 1 0 15 0 a7.5 7.5 0 1 0 -15 0zM122.41 2625 a7.5 7.5 0 1 0 15 0 a7.5 7.5 0 1 0 -15 0zM57.45 2662.5 a7.5 7.5 0 1 0 15 0 a7.5 7.5 0 1 0 -15 0zM-7.5 2625 a7.5 7.5 0 1 0 15 0 a7.5 7.5 0 1 0 -15 0zM122.41 -75 a7.5 7.5 0 1 0 15 0 a7.5 7.5 0 1 0 -15 0zM187.36 -37.5 a7.5 7.5 0 1 0 15 0 a7.5 7.5 0 1 0 -15 0zM187.36 37.5 a7.5 7.5 0 1 0 15 0 a7.5 7.5 0 1 0 -15 0zM252.31 75 a7.5 7.5 0 1 0 15 0 a7.5 7.5 0 1 0 -15 0zM252.31 150 a7.5 7.5 0 1 0 15 0 a7.5 7.5 0 1 0 -15 0zM187.36 187.5 a7.5 7.5 0 1 0 15 0 a7.5 7.5 0 1 0 -15 0zM187.36 262.5 a7.5 7.5 0 1 0 15 0 a7.5 7.5 0 1 0 -15 0zM252.31 300 a7.5 7.5 0 1 0 15 0 a7.5 7.5 0 1 0 -15 0zM252.31 375 a7.5 7.5 0 1 0 15 0 a7.5 7.5 0 1 0 -15 0zM187.36 412.5 a7.5 7.5 0 1 0 15 0 a7.5 7.5 0 1 0 -15 0zM187.36 487.5 a7.5 7.5 0 1 0 15 0 a7.5 7.5 0 1 0 -15 0zM252.31 525 a7.5 7.5 0 1 0 15 0 a7.5 7.5 0 1 0 -15 0zM252.31 600 a7.5 7.5 0 1 0 15 0 a7.5 7.5 0 1 0 -15 0zM187.36 637.5 a7.5 7.5 0 1 0 15 0 a7.5 7.5 0 1 0 -15 0zM187.36 712.5 a7.5 7.5 0 1 0 15 0 a7.5 7.5 0 1 0 -15 0zM252.31 750 a7.5 7.5 0 1 0 15 0 a7.5 7.5 0 1 0 -15 0zM252.31 825 a7.5 7.5 0 1 0 15 0 a7.5 7.5 0 1 0 -15 0zM187.36 862.5 a7.5 7.5 0 1 0 15 0 a7.5 7.5 0 1 0 -15 0zM187.36 937.5 a7.5 7.5 0 1 0 15 0 a7.5 7.5 0 1 0 -15 0zM252.31 975 a7.5 7.5 0 1 0 15 0 a7.5 7.5 0 1 0 -15 0zM252.31 1050 a7.5 7.5 0 1 0 15 0 a7.5 7.5 0 1 0 -15 0zM187.36 1087.5 a7.5 7.5 0 1 0 15 0 a7.5 7.5 0 1 0 -15 0zM187.36 1162.5 a7.5 7.5 0 1 0 15 0 a7.5 7.5 0 1 0 -15 0zM252.31 1200 a7.5 7.5 0 1 0 15 0 a7.5 7.5 0 1 0 -15 0zM252.31 1275 a7.5 7.5 0 1 0 15 0 a7.5 7.5 0 1 0 -15 0zM187.36 1312.5 a7.5 7.5 0 1 0 15 0 a7.5 7.5 0 1 0 -15 0zM187.36 1387.5 a7.5 7.5 0 1 0 15 0 a7.5 7.5 0 1 0 -15 0zM252.31 1425 a7.5 7.5 0 1 0 15 0 a7.5 7.5 0 1 0 -15 0zM252.31 1500 a7.5 7.5 0 1 0 15 0 a7.5 7.5 0 1 0 -15 0zM187.36 1537.5 a7.5 7.5 0 1 0 15 0 a7.5 7.5 0 1 0 -15 0zM187.36 1612.5 a7.5 7.5 0 1 0 15 0 a7.5 7.5 0 1 0 -15 0zM252.31 1650 a7.5 7.5 0 1 0 15 0 a7.5 7.5 0 1 0 -15 0zM252.31 1725 a7.5 7.5 0 1 0 15 0 a7.5 7.5 0 1 0 -15 0zM187.36 1762.5 a7.5 7.5 0 1 0 15 0 a7.5 7.5 0 1 0 -15 0zM187.36 1837.5 a7.5 7.5 0 1 0 15 0 a7.5 7.5 0 1 0 -15 0zM252.31 1875 a7.5 7.5 0 1 0 15 0 a7.5 7.5 0 1 0 -15 0zM252.31 1950 a7.5 7.5 0 1 0 15 0 a7.5 7.5 0 1 0 -15 0zM187.36 1987.5 a7.5 7.5 0 1 0 15 0 a7.5 7.5 0 1 0 -15 0zM187.36 2062.5 a7.5 7.5 0 1 0 15 0 a7.5 7.5 0 1 0 -15 0zM252.31 2100 a7.5 7.5 0 1 0 15 0 a7.5 7.5 0 1 0 -15 0zM252.31 2175 a7.5 7.5 0 1 0 15 0 a7.5 7.5 0 1 0 -15 0zM187.36 2212.5 a7.5 7.5 0 1 0 15 0 a7.5 7.5 0 1 0 -15 0zM187.36 2287.5 a7.5 7.5 0 1 0 15 0 a7.5 7.5 0 1 0 -15 0zM252.31 2325 a7.5 7.5 0 1 0 15 0 a7.5 7.5 0 1 0 -15 0zM252.31 2400 a7.5 7.5 0 1 0 15 0 a7.5 7.5 0 1 0 -15 0zM187.36 2437.5 a7.5 7.5 0 1 0 15 0 a7.5 7.5 0 1 0 -15 0zM187.36 2512.5 a7.5 7.5 0 1 0 15 0 a7.5 7.5 0 1 0 -15 0zM252.31 2550 a7.5 7.5 0 1 0 15 0 a7.5 7.5 0 1 0 -15 0zM252.31 2625 a7.5 7.5 0 1 0 15 0 a7.5 7.5 0 1 0 -15 0zM187.36 2662.5 a7.5 7.5 0 1 0 15 0 a7.5 7.5 0 1 0 -15 0zM252.31 -75 a7.5 7.5 0 1 0 15 0 a7.5 7.5 0 1 0 -15 0zM317.27 -37.5 a7.5 7.5 0 1 0 15 0 a7.5 7.5 0 1 0 -15 0zM317.27 37.5 a7.5 7.5 0 1 0 15 0 a7.5 7.5 0 1 0 -15 0zM382.22 75 a7.5 7.5 0 1 0 15 0 a7.5 7.5 0 1 0 -15 0zM382.22 150 a7.5 7.5 0 1 0 15 0 a7.5 7.5 0 1 0 -15 0zM317.27 187.5 a7.5 7.5 0 1 0 15 0 a7.5 7.5 0 1 0 -15 0zM317.27 262.5 a7.5 7.5 0 1 0 15 0 a7.5 7.5 0 1 0 -15 0zM382.22 300 a7.5 7.5 0 1 0 15 0 a7.5 7.5 0 1 0 -15 0zM382.22 375 a7.5 7.5 0 1 0 15 0 a7.5 7.5 0 1 0 -15 0zM317.27 412.5 a7.5 7.5 0 1 0 15 0 a7.5 7.5 0 1 0 -15 0zM317.27 487.5 a7.5 7.5 0 1 0 15 0 a7.5 7.5 0 1 0 -15 0zM382.22 525 a7.5 7.5 0 1 0 15 0 a7.5 7.5 0 1 0 -15 0zM382.22 600 a7.5 7.5 0 1 0 15 0 a7.5 7.5 0 1 0 -15 0zM317.27 637.5 a7.5 7.5 0 1 0 15 0 a7.5 7.5 0 1 0 -15 0zM317.27 712.5 a7.5 7.5 0 1 0 15 0 a7.5 7.5 0 1 0 -15 0zM382.22 750 a7.5 7.5 0 1 0 15 0 a7.5 7.5 0 1 0 -15 0zM382.22 825 a7.5 7.5 0 1 0 15 0 a7.5 7.5 0 1 0 -15 0zM317.27 862.5 a7.5 7.5 0 1 0 15 0 a7.5 7.5 0 1 0 -15 0zM317.27 937.5 a7.5 7.5 0 1 0 15 0 a7.5 7.5 0 1 0 -15 0zM382.22 975 a7.5 7.5 0 1 0 15 0 a7.5 7.5 0 1 0 -15 0zM382.22 1050 a7.5 7.5 0 1 0 15 0 a7.5 7.5 0 1 0 -15 0zM317.27 1087.5 a7.5 7.5 0 1 0 15 0 a7.5 7.5 0 1 0 -15 0zM317.27 1162.5 a7.5 7.5 0 1 0 15 0 a7.5 7.5 0 1 0 -15 0zM382.22 1200 a7.5 7.5 0 1 0 15 0 a7.5 7.5 0 1 0 -15 0zM382.22 1275 a7.5 7.5 0 1 0 15 0 a7.5 7.5 0 1 0 -15 0zM317.27 1312.5 a7.5 7.5 0 1 0 15 0 a7.5 7.5 0 1 0 -15 0zM317.27 1387.5 a7.5 7.5 0 1 0 15 0 a7.5 7.5 0 1 0 -15 0zM382.22 1425 a7.5 7.5 0 1 0 15 0 a7.5 7.5 0 1 0 -15 0zM382.22 1500 a7.5 7.5 0 1 0 15 0 a7.5 7.5 0 1 0 -15 0zM317.27 1537.5 a7.5 7.5 0 1 0 15 0 a7.5 7.5 0 1 0 -15 0zM317.27 1612.5 a7.5 7.5 0 1 0 15 0 a7.5 7.5 0 1 0 -15 0zM382.22 1650 a7.5 7.5 0 1 0 15 0 a7.5 7.5 0 1 0 -15 0zM382.22 1725 a7.5 7.5 0 1 0 15 0 a7.5 7.5 0 1 0 -15 0zM317.27 1762.5 a7.5 7.5 0 1 0 15 0 a7.5 7.5 0 1 0 -15 0zM317.27 1837.5 a7.5 7.5 0 1 0 15 0 a7.5 7.5 0 1 0 -15 0zM382.22 1875 a7.5 7.5 0 1 0 15 0 a7.5 7.5 0 1 0 -15 0zM382.22 1950 a7.5 7.5 0 1 0 15 0 a7.5 7.5 0 1 0 -15 0zM317.27 1987.5 a7.5 7.5 0 1 0 15 0 a7.5 7.5 0 1 0 -15 0zM317.27 2062.5 a7.5 7.5 0 1 0 15 0 a7.5 7.5 0 1 0 -15 0zM382.22 2100 a7.5 7.5 0 1 0 15 0 a7.5 7.5 0 1 0 -15 0zM382.22 2175 a7.5 7.5 0 1 0 15 0 a7.5 7.5 0 1 0 -15 0zM317.27 2212.5 a7.5 7.5 0 1 0 15 0 a7.5 7.5 0 1 0 -15 0zM317.27 2287.5 a7.5 7.5 0 1 0 15 0 a7.5 7.5 0 1 0 -15 0zM382.22 2325 a7.5 7.5 0 1 0 15 0 a7.5 7.5 0 1 0 -15 0zM382.22 2400 a7.5 7.5 0 1 0 15 0 a7.5 7.5 0 1 0 -15 0zM317.27 2437.5 a7.5 7.5 0 1 0 15 0 a7.5 7.5 0 1 0 -15 0zM317.27 2512.5 a7.5 7.5 0 1 0 15 0 a7.5 7.5 0 1 0 -15 0zM382.22 2550 a7.5 7.5 0 1 0 15 0 a7.5 7.5 0 1 0 -15 0zM382.22 2625 a7.5 7.5 0 1 0 15 0 a7.5 7.5 0 1 0 -15 0zM317.27 2662.5 a7.5 7.5 0 1 0 15 0 a7.5 7.5 0 1 0 -15 0zM382.22 -75 a7.5 7.5 0 1 0 15 0 a7.5 7.5 0 1 0 -15 0zM447.18 -37.5 a7.5 7.5 0 1 0 15 0 a7.5 7.5 0 1 0 -15 0zM447.18 37.5 a7.5 7.5 0 1 0 15 0 a7.5 7.5 0 1 0 -15 0zM512.13 75 a7.5 7.5 0 1 0 15 0 a7.5 7.5 0 1 0 -15 0zM512.13 150 a7.5 7.5 0 1 0 15 0 a7.5 7.5 0 1 0 -15 0zM447.18 187.5 a7.5 7.5 0 1 0 15 0 a7.5 7.5 0 1 0 -15 0zM447.18 262.5 a7.5 7.5 0 1 0 15 0 a7.5 7.5 0 1 0 -15 0zM512.13 300 a7.5 7.5 0 1 0 15 0 a7.5 7.5 0 1 0 -15 0zM512.13 375 a7.5 7.5 0 1 0 15 0 a7.5 7.5 0 1 0 -15 0zM447.18 412.5 a7.5 7.5 0 1 0 15 0 a7.5 7.5 0 1 0 -15 0zM447.18 487.5 a7.5 7.5 0 1 0 15 0 a7.5 7.5 0 1 0 -15 0zM512.13 525 a7.5 7.5 0 1 0 15 0 a7.5 7.5 0 1 0 -15 0zM512.13 600 a7.5 7.5 0 1 0 15 0 a7.5 7.5 0 1 0 -15 0zM447.18 637.5 a7.5 7.5 0 1 0 15 0 a7.5 7.5 0 1 0 -15 0zM447.18 712.5 a7.5 7.5 0 1 0 15 0 a7.5 7.5 0 1 0 -15 0zM512.13 750 a7.5 7.5 0 1 0 15 0 a7.5 7.5 0 1 0 -15 0zM512.13 825 a7.5 7.5 0 1 0 15 0 a7.5 7.5 0 1 0 -15 0zM447.18 862.5 a7.5 7.5 0 1 0 15 0 a7.5 7.5 0 1 0 -15 0zM447.18 937.5 a7.5 7.5 0 1 0 15 0 a7.5 7.5 0 1 0 -15 0zM512.13 975 a7.5 7.5 0 1 0 15 0 a7.5 7.5 0 1 0 -15 0zM512.13 1050 a7.5 7.5 0 1 0 15 0 a7.5 7.5 0 1 0 -15 0zM447.18 1087.5 a7.5 7.5 0 1 0 15 0 a7.5 7.5 0 1 0 -15 0zM447.18 1162.5 a7.5 7.5 0 1 0 15 0 a7.5 7.5 0 1 0 -15 0zM512.13 1200 a7.5 7.5 0 1 0 15 0 a7.5 7.5 0 1 0 -15 0zM512.13 1275 a7.5 7.5 0 1 0 15 0 a7.5 7.5 0 1 0 -15 0zM447.18 1312.5 a7.5 7.5 0 1 0 15 0 a7.5 7.5 0 1 0 -15 0zM447.18 1387.5 a7.5 7.5 0 1 0 15 0 a7.5 7.5 0 1 0 -15 0zM512.13 1425 a7.5 7.5 0 1 0 15 0 a7.5 7.5 0 1 0 -15 0zM512.13 1500 a7.5 7.5 0 1 0 15 0 a7.5 7.5 0 1 0 -15 0zM447.18 1537.5 a7.5 7.5 0 1 0 15 0 a7.5 7.5 0 1 0 -15 0zM447.18 1612.5 a7.5 7.5 0 1 0 15 0 a7.5 7.5 0 1 0 -15 0zM512.13 1650 a7.5 7.5 0 1 0 15 0 a7.5 7.5 0 1 0 -15 0zM512.13 1725 a7.5 7.5 0 1 0 15 0 a7.5 7.5 0 1 0 -15 0zM447.18 1762.5 a7.5 7.5 0 1 0 15 0 a7.5 7.5 0 1 0 -15 0zM447.18 1837.5 a7.5 7.5 0 1 0 15 0 a7.5 7.5 0 1 0 -15 0zM512.13 1875 a7.5 7.5 0 1 0 15 0 a7.5 7.5 0 1 0 -15 0zM512.13 1950 a7.5 7.5 0 1 0 15 0 a7.5 7.5 0 1 0 -15 0zM447.18 1987.5 a7.5 7.5 0 1 0 15 0 a7.5 7.5 0 1 0 -15 0zM447.18 2062.5 a7.5 7.5 0 1 0 15 0 a7.5 7.5 0 1 0 -15 0zM512.13 2100 a7.5 7.5 0 1 0 15 0 a7.5 7.5 0 1 0 -15 0zM512.13 2175 a7.5 7.5 0 1 0 15 0 a7.5 7.5 0 1 0 -15 0zM447.18 2212.5 a7.5 7.5 0 1 0 15 0 a7.5 7.5 0 1 0 -15 0zM447.18 2287.5 a7.5 7.5 0 1 0 15 0 a7.5 7.5 0 1 0 -15 0zM512.13 2325 a7.5 7.5 0 1 0 15 0 a7.5 7.5 0 1 0 -15 0zM512.13 2400 a7.5 7.5 0 1 0 15 0 a7.5 7.5 0 1 0 -15 0zM447.18 2437.5 a7.5 7.5 0 1 0 15 0 a7.5 7.5 0 1 0 -15 0zM447.18 2512.5 a7.5 7.5 0 1 0 15 0 a7.5 7.5 0 1 0 -15 0zM512.13 2550 a7.5 7.5 0 1 0 15 0 a7.5 7.5 0 1 0 -15 0zM512.13 2625 a7.5 7.5 0 1 0 15 0 a7.5 7.5 0 1 0 -15 0zM447.18 2662.5 a7.5 7.5 0 1 0 15 0 a7.5 7.5 0 1 0 -15 0zM512.13 -75 a7.5 7.5 0 1 0 15 0 a7.5 7.5 0 1 0 -15 0zM577.08 -37.5 a7.5 7.5 0 1 0 15 0 a7.5 7.5 0 1 0 -15 0zM577.08 37.5 a7.5 7.5 0 1 0 15 0 a7.5 7.5 0 1 0 -15 0zM642.04 75 a7.5 7.5 0 1 0 15 0 a7.5 7.5 0 1 0 -15 0zM642.04 150 a7.5 7.5 0 1 0 15 0 a7.5 7.5 0 1 0 -15 0zM577.08 187.5 a7.5 7.5 0 1 0 15 0 a7.5 7.5 0 1 0 -15 0zM577.08 262.5 a7.5 7.5 0 1 0 15 0 a7.5 7.5 0 1 0 -15 0zM642.04 300 a7.5 7.5 0 1 0 15 0 a7.5 7.5 0 1 0 -15 0zM642.04 375 a7.5 7.5 0 1 0 15 0 a7.5 7.5 0 1 0 -15 0zM577.08 412.5 a7.5 7.5 0 1 0 15 0 a7.5 7.5 0 1 0 -15 0zM577.08 487.5 a7.5 7.5 0 1 0 15 0 a7.5 7.5 0 1 0 -15 0zM642.04 525 a7.5 7.5 0 1 0 15 0 a7.5 7.5 0 1 0 -15 0zM642.04 600 a7.5 7.5 0 1 0 15 0 a7.5 7.5 0 1 0 -15 0zM577.08 637.5 a7.5 7.5 0 1 0 15 0 a7.5 7.5 0 1 0 -15 0zM577.08 712.5 a7.5 7.5 0 1 0 15 0 a7.5 7.5 0 1 0 -15 0zM642.04 750 a7.5 7.5 0 1 0 15 0 a7.5 7.5 0 1 0 -15 0zM642.04 825 a7.5 7.5 0 1 0 15 0 a7.5 7.5 0 1 0 -15 0zM577.08 862.5 a7.5 7.5 0 1 0 15 0 a7.5 7.5 0 1 0 -15 0zM577.08 937.5 a7.5 7.5 0 1 0 15 0 a7.5 7.5 0 1 0 -15 0zM642.04 975 a7.5 7.5 0 1 0 15 0 a7.5 7.5 0 1 0 -15 0zM642.04 1050 a7.5 7.5 0 1 0 15 0 a7.5 7.5 0 1 0 -15 0zM577.08 1087.5 a7.5 7.5 0 1 0 15 0 a7.5 7.5 0 1 0 -15 0zM577.08 1162.5 a7.5 7.5 0 1 0 15 0 a7.5 7.5 0 1 0 -15 0zM642.04 1200 a7.5 7.5 0 1 0 15 0 a7.5 7.5 0 1 0 -15 0zM642.04 1275 a7.5 7.5 0 1 0 15 0 a7.5 7.5 0 1 0 -15 0zM577.08 1312.5 a7.5 7.5 0 1 0 15 0 a7.5 7.5 0 1 0 -15 0zM577.08 1387.5 a7.5 7.5 0 1 0 15 0 a7.5 7.5 0 1 0 -15 0zM642.04 1425 a7.5 7.5 0 1 0 15 0 a7.5 7.5 0 1 0 -15 0zM642.04 1500 a7.5 7.5 0 1 0 15 0 a7.5 7.5 0 1 0 -15 0zM577.08 1537.5 a7.5 7.5 0 1 0 15 0 a7.5 7.5 0 1 0 -15 0zM577.08 1612.5 a7.5 7.5 0 1 0 15 0 a7.5 7.5 0 1 0 -15 0zM642.04 1650 a7.5 7.5 0 1 0 15 0 a7.5 7.5 0 1 0 -15 0zM642.04 1725 a7.5 7.5 0 1 0 15 0 a7.5 7.5 0 1 0 -15 0zM577.08 1762.5 a7.5 7.5 0 1 0 15 0 a7.5 7.5 0 1 0 -15 0zM577.08 1837.5 a7.5 7.5 0 1 0 15 0 a7.5 7.5 0 1 0 -15 0zM642.04 1875 a7.5 7.5 0 1 0 15 0 a7.5 7.5 0 1 0 -15 0zM642.04 1950 a7.5 7.5 0 1 0 15 0 a7.5 7.5 0 1 0 -15 0zM577.08 1987.5 a7.5 7.5 0 1 0 15 0 a7.5 7.5 0 1 0 -15 0zM577.08 2062.5 a7.5 7.5 0 1 0 15 0 a7.5 7.5 0 1 0 -15 0zM642.04 2100 a7.5 7.5 0 1 0 15 0 a7.5 7.5 0 1 0 -15 0zM642.04 2175 a7.5 7.5 0 1 0 15 0 a7.5 7.5 0 1 0 -15 0zM577.08 2212.5 a7.5 7.5 0 1 0 15 0 a7.5 7.5 0 1 0 -15 0zM577.08 2287.5 a7.5 7.5 0 1 0 15 0 a7.5 7.5 0 1 0 -15 0zM642.04 2325 a7.5 7.5 0 1 0 15 0 a7.5 7.5 0 1 0 -15 0zM642.04 2400 a7.5 7.5 0 1 0 15 0 a7.5 7.5 0 1 0 -15 0zM577.08 2437.5 a7.5 7.5 0 1 0 15 0 a7.5 7.5 0 1 0 -15 0zM577.08 2512.5 a7.5 7.5 0 1 0 15 0 a7.5 7.5 0 1 0 -15 0zM642.04 2550 a7.5 7.5 0 1 0 15 0 a7.5 7.5 0 1 0 -15 0zM642.04 2625 a7.5 7.5 0 1 0 15 0 a7.5 7.5 0 1 0 -15 0zM577.08 2662.5 a7.5 7.5 0 1 0 15 0 a7.5 7.5 0 1 0 -15 0zM642.04 -75 a7.5 7.5 0 1 0 15 0 a7.5 7.5 0 1 0 -15 0zM706.99 -37.5 a7.5 7.5 0 1 0 15 0 a7.5 7.5 0 1 0 -15 0zM706.99 37.5 a7.5 7.5 0 1 0 15 0 a7.5 7.5 0 1 0 -15 0zM771.95 75 a7.5 7.5 0 1 0 15 0 a7.5 7.5 0 1 0 -15 0zM771.95 150 a7.5 7.5 0 1 0 15 0 a7.5 7.5 0 1 0 -15 0zM706.99 187.5 a7.5 7.5 0 1 0 15 0 a7.5 7.5 0 1 0 -15 0zM706.99 262.5 a7.5 7.5 0 1 0 15 0 a7.5 7.5 0 1 0 -15 0zM771.95 300 a7.5 7.5 0 1 0 15 0 a7.5 7.5 0 1 0 -15 0zM771.95 375 a7.5 7.5 0 1 0 15 0 a7.5 7.5 0 1 0 -15 0zM706.99 412.5 a7.5 7.5 0 1 0 15 0 a7.5 7.5 0 1 0 -15 0zM706.99 487.5 a7.5 7.5 0 1 0 15 0 a7.5 7.5 0 1 0 -15 0zM771.95 525 a7.5 7.5 0 1 0 15 0 a7.5 7.5 0 1 0 -15 0zM771.95 600 a7.5 7.5 0 1 0 15 0 a7.5 7.5 0 1 0 -15 0zM706.99 637.5 a7.5 7.5 0 1 0 15 0 a7.5 7.5 0 1 0 -15 0zM706.99 712.5 a7.5 7.5 0 1 0 15 0 a7.5 7.5 0 1 0 -15 0zM771.95 750 a7.5 7.5 0 1 0 15 0 a7.5 7.5 0 1 0 -15 0zM771.95 825 a7.5 7.5 0 1 0 15 0 a7.5 7.5 0 1 0 -15 0zM706.99 862.5 a7.5 7.5 0 1 0 15 0 a7.5 7.5 0 1 0 -15 0zM706.99 937.5 a7.5 7.5 0 1 0 15 0 a7.5 7.5 0 1 0 -15 0zM771.95 975 a7.5 7.5 0 1 0 15 0 a7.5 7.5 0 1 0 -15 0zM771.95 1050 a7.5 7.5 0 1 0 15 0 a7.5 7.5 0 1 0 -15 0zM706.99 1087.5 a7.5 7.5 0 1 0 15 0 a7.5 7.5 0 1 0 -15 0zM706.99 1162.5 a7.5 7.5 0 1 0 15 0 a7.5 7.5 0 1 0 -15 0zM771.95 1200 a7.5 7.5 0 1 0 15 0 a7.5 7.5 0 1 0 -15 0zM771.95 1275 a7.5 7.5 0 1 0 15 0 a7.5 7.5 0 1 0 -15 0zM706.99 1312.5 a7.5 7.5 0 1 0 15 0 a7.5 7.5 0 1 0 -15 0zM706.99 1387.5 a7.5 7.5 0 1 0 15 0 a7.5 7.5 0 1 0 -15 0zM771.95 1425 a7.5 7.5 0 1 0 15 0 a7.5 7.5 0 1 0 -15 0zM771.95 1500 a7.5 7.5 0 1 0 15 0 a7.5 7.5 0 1 0 -15 0zM706.99 1537.5 a7.5 7.5 0 1 0 15 0 a7.5 7.5 0 1 0 -15 0zM706.99 1612.5 a7.5 7.5 0 1 0 15 0 a7.5 7.5 0 1 0 -15 0zM771.95 1650 a7.5 7.5 0 1 0 15 0 a7.5 7.5 0 1 0 -15 0zM771.95 1725 a7.5 7.5 0 1 0 15 0 a7.5 7.5 0 1 0 -15 0zM706.99 1762.5 a7.5 7.5 0 1 0 15 0 a7.5 7.5 0 1 0 -15 0zM706.99 1837.5 a7.5 7.5 0 1 0 15 0 a7.5 7.5 0 1 0 -15 0zM771.95 1875 a7.5 7.5 0 1 0 15 0 a7.5 7.5 0 1 0 -15 0zM771.95 1950 a7.5 7.5 0 1 0 15 0 a7.5 7.5 0 1 0 -15 0zM706.99 1987.5 a7.5 7.5 0 1 0 15 0 a7.5 7.5 0 1 0 -15 0zM706.99 2062.5 a7.5 7.5 0 1 0 15 0 a7.5 7.5 0 1 0 -15 0zM771.95 2100 a7.5 7.5 0 1 0 15 0 a7.5 7.5 0 1 0 -15 0zM771.95 2175 a7.5 7.5 0 1 0 15 0 a7.5 7.5 0 1 0 -15 0zM706.99 2212.5 a7.5 7.5 0 1 0 15 0 a7.5 7.5 0 1 0 -15 0zM706.99 2287.5 a7.5 7.5 0 1 0 15 0 a7.5 7.5 0 1 0 -15 0zM771.95 2325 a7.5 7.5 0 1 0 15 0 a7.5 7.5 0 1 0 -15 0zM771.95 2400 a7.5 7.5 0 1 0 15 0 a7.5 7.5 0 1 0 -15 0zM706.99 2437.5 a7.5 7.5 0 1 0 15 0 a7.5 7.5 0 1 0 -15 0zM706.99 2512.5 a7.5 7.5 0 1 0 15 0 a7.5 7.5 0 1 0 -15 0zM771.95 2550 a7.5 7.5 0 1 0 15 0 a7.5 7.5 0 1 0 -15 0zM771.95 2625 a7.5 7.5 0 1 0 15 0 a7.5 7.5 0 1 0 -15 0zM706.99 2662.5 a7.5 7.5 0 1 0 15 0 a7.5 7.5 0 1 0 -15 0zM771.94 -75 a7.5 7.5 0 1 0 15 0 a7.5 7.5 0 1 0 -15 0zM836.9 -37.5 a7.5 7.5 0 1 0 15 0 a7.5 7.5 0 1 0 -15 0zM836.9 37.5 a7.5 7.5 0 1 0 15 0 a7.5 7.5 0 1 0 -15 0zM771.94 75 a7.5 7.5 0 1 0 15 0 a7.5 7.5 0 1 0 -15 0zM901.85 75 a7.5 7.5 0 1 0 15 0 a7.5 7.5 0 1 0 -15 0zM901.85 150 a7.5 7.5 0 1 0 15 0 a7.5 7.5 0 1 0 -15 0zM836.9 187.5 a7.5 7.5 0 1 0 15 0 a7.5 7.5 0 1 0 -15 0zM771.94 150 a7.5 7.5 0 1 0 15 0 a7.5 7.5 0 1 0 -15 0zM836.9 262.5 a7.5 7.5 0 1 0 15 0 a7.5 7.5 0 1 0 -15 0zM771.94 300 a7.5 7.5 0 1 0 15 0 a7.5 7.5 0 1 0 -15 0zM901.85 300 a7.5 7.5 0 1 0 15 0 a7.5 7.5 0 1 0 -15 0zM901.85 375 a7.5 7.5 0 1 0 15 0 a7.5 7.5 0 1 0 -15 0zM836.9 412.5 a7.5 7.5 0 1 0 15 0 a7.5 7.5 0 1 0 -15 0zM771.94 375 a7.5 7.5 0 1 0 15 0 a7.5 7.5 0 1 0 -15 0zM836.9 487.5 a7.5 7.5 0 1 0 15 0 a7.5 7.5 0 1 0 -15 0zM771.94 525 a7.5 7.5 0 1 0 15 0 a7.5 7.5 0 1 0 -15 0zM901.85 525 a7.5 7.5 0 1 0 15 0 a7.5 7.5 0 1 0 -15 0zM901.85 600 a7.5 7.5 0 1 0 15 0 a7.5 7.5 0 1 0 -15 0zM836.9 637.5 a7.5 7.5 0 1 0 15 0 a7.5 7.5 0 1 0 -15 0zM771.94 600 a7.5 7.5 0 1 0 15 0 a7.5 7.5 0 1 0 -15 0zM836.9 712.5 a7.5 7.5 0 1 0 15 0 a7.5 7.5 0 1 0 -15 0zM771.94 750 a7.5 7.5 0 1 0 15 0 a7.5 7.5 0 1 0 -15 0zM901.85 750 a7.5 7.5 0 1 0 15 0 a7.5 7.5 0 1 0 -15 0zM901.85 825 a7.5 7.5 0 1 0 15 0 a7.5 7.5 0 1 0 -15 0zM836.9 862.5 a7.5 7.5 0 1 0 15 0 a7.5 7.5 0 1 0 -15 0zM771.94 825 a7.5 7.5 0 1 0 15 0 a7.5 7.5 0 1 0 -15 0zM836.9 937.5 a7.5 7.5 0 1 0 15 0 a7.5 7.5 0 1 0 -15 0zM771.94 975 a7.5 7.5 0 1 0 15 0 a7.5 7.5 0 1 0 -15 0zM901.85 975 a7.5 7.5 0 1 0 15 0 a7.5 7.5 0 1 0 -15 0zM901.85 1050 a7.5 7.5 0 1 0 15 0 a7.5 7.5 0 1 0 -15 0zM836.9 1087.5 a7.5 7.5 0 1 0 15 0 a7.5 7.5 0 1 0 -15 0zM771.94 1050 a7.5 7.5 0 1 0 15 0 a7.5 7.5 0 1 0 -15 0zM836.9 1162.5 a7.5 7.5 0 1 0 15 0 a7.5 7.5 0 1 0 -15 0zM771.94 1200 a7.5 7.5 0 1 0 15 0 a7.5 7.5 0 1 0 -15 0zM901.85 1200 a7.5 7.5 0 1 0 15 0 a7.5 7.5 0 1 0 -15 0zM901.85 1275 a7.5 7.5 0 1 0 15 0 a7.5 7.5 0 1 0 -15 0zM836.9 1312.5 a7.5 7.5 0 1 0 15 0 a7.5 7.5 0 1 0 -15 0zM771.94 1275 a7.5 7.5 0 1 0 15 0 a7.5 7.5 0 1 0 -15 0zM836.9 1387.5 a7.5 7.5 0 1 0 15 0 a7.5 7.5 0 1 0 -15 0zM771.94 1425 a7.5 7.5 0 1 0 15 0 a7.5 7.5 0 1 0 -15 0zM901.85 1425 a7.5 7.5 0 1 0 15 0 a7.5 7.5 0 1 0 -15 0zM901.85 1500 a7.5 7.5 0 1 0 15 0 a7.5 7.5 0 1 0 -15 0zM836.9 1537.5 a7.5 7.5 0 1 0 15 0 a7.5 7.5 0 1 0 -15 0zM771.94 1500 a7.5 7.5 0 1 0 15 0 a7.5 7.5 0 1 0 -15 0zM836.9 1612.5 a7.5 7.5 0 1 0 15 0 a7.5 7.5 0 1 0 -15 0zM771.94 1650 a7.5 7.5 0 1 0 15 0 a7.5 7.5 0 1 0 -15 0zM901.85 1650 a7.5 7.5 0 1 0 15 0 a7.5 7.5 0 1 0 -15 0zM901.85 1725 a7.5 7.5 0 1 0 15 0 a7.5 7.5 0 1 0 -15 0zM836.9 1762.5 a7.5 7.5 0 1 0 15 0 a7.5 7.5 0 1 0 -15 0zM771.94 1725 a7.5 7.5 0 1 0 15 0 a7.5 7.5 0 1 0 -15 0zM836.9 1837.5 a7.5 7.5 0 1 0 15 0 a7.5 7.5 0 1 0 -15 0zM771.94 1875 a7.5 7.5 0 1 0 15 0 a7.5 7.5 0 1 0 -15 0zM901.85 1875 a7.5 7.5 0 1 0 15 0 a7.5 7.5 0 1 0 -15 0zM901.85 1950 a7.5 7.5 0 1 0 15 0 a7.5 7.5 0 1 0 -15 0zM836.9 1987.5 a7.5 7.5 0 1 0 15 0 a7.5 7.5 0 1 0 -15 0zM771.94 1950 a7.5 7.5 0 1 0 15 0 a7.5 7.5 0 1 0 -15 0zM836.9 2062.5 a7.5 7.5 0 1 0 15 0 a7.5 7.5 0 1 0 -15 0zM771.94 2100 a7.5 7.5 0 1 0 15 0 a7.5 7.5 0 1 0 -15 0zM901.85 2100 a7.5 7.5 0 1 0 15 0 a7.5 7.5 0 1 0 -15 0zM901.85 2175 a7.5 7.5 0 1 0 15 0 a7.5 7.5 0 1 0 -15 0zM836.9 2212.5 a7.5 7.5 0 1 0 15 0 a7.5 7.5 0 1 0 -15 0zM771.94 2175 a7.5 7.5 0 1 0 15 0 a7.5 7.5 0 1 0 -15 0zM836.9 2287.5 a7.5 7.5 0 1 0 15 0 a7.5 7.5 0 1 0 -15 0zM771.94 2325 a7.5 7.5 0 1 0 15 0 a7.5 7.5 0 1 0 -15 0zM901.85 2325 a7.5 7.5 0 1 0 15 0 a7.5 7.5 0 1 0 -15 0zM901.85 2400 a7.5 7.5 0 1 0 15 0 a7.5 7.5 0 1 0 -15 0zM836.9 2437.5 a7.5 7.5 0 1 0 15 0 a7.5 7.5 0 1 0 -15 0zM771.94 2400 a7.5 7.5 0 1 0 15 0 a7.5 7.5 0 1 0 -15 0zM836.9 2512.5 a7.5 7.5 0 1 0 15 0 a7.5 7.5 0 1 0 -15 0zM771.94 2550 a7.5 7.5 0 1 0 15 0 a7.5 7.5 0 1 0 -15 0zM901.85 2550 a7.5 7.5 0 1 0 15 0 a7.5 7.5 0 1 0 -15 0zM901.85 2625 a7.5 7.5 0 1 0 15 0 a7.5 7.5 0 1 0 -15 0zM836.9 2662.5 a7.5 7.5 0 1 0 15 0 a7.5 7.5 0 1 0 -15 0zM771.94 2625 a7.5 7.5 0 1 0 15 0 a7.5 7.5 0 1 0 -15 0zM901.85 -75 a7.5 7.5 0 1 0 15 0 a7.5 7.5 0 1 0 -15 0zM966.81 -37.5 a7.5 7.5 0 1 0 15 0 a7.5 7.5 0 1 0 -15 0zM966.81 37.5 a7.5 7.5 0 1 0 15 0 a7.5 7.5 0 1 0 -15 0zM1031.76 75 a7.5 7.5 0 1 0 15 0 a7.5 7.5 0 1 0 -15 0zM1031.76 150 a7.5 7.5 0 1 0 15 0 a7.5 7.5 0 1 0 -15 0zM966.81 187.5 a7.5 7.5 0 1 0 15 0 a7.5 7.5 0 1 0 -15 0zM966.81 262.5 a7.5 7.5 0 1 0 15 0 a7.5 7.5 0 1 0 -15 0zM1031.76 300 a7.5 7.5 0 1 0 15 0 a7.5 7.5 0 1 0 -15 0zM1031.76 375 a7.5 7.5 0 1 0 15 0 a7.5 7.5 0 1 0 -15 0zM966.81 412.5 a7.5 7.5 0 1 0 15 0 a7.5 7.5 0 1 0 -15 0zM966.81 487.5 a7.5 7.5 0 1 0 15 0 a7.5 7.5 0 1 0 -15 0zM1031.76 525 a7.5 7.5 0 1 0 15 0 a7.5 7.5 0 1 0 -15 0zM1031.76 600 a7.5 7.5 0 1 0 15 0 a7.5 7.5 0 1 0 -15 0zM966.81 637.5 a7.5 7.5 0 1 0 15 0 a7.5 7.5 0 1 0 -15 0zM966.81 712.5 a7.5 7.5 0 1 0 15 0 a7.5 7.5 0 1 0 -15 0zM1031.76 750 a7.5 7.5 0 1 0 15 0 a7.5 7.5 0 1 0 -15 0zM1031.76 825 a7.5 7.5 0 1 0 15 0 a7.5 7.5 0 1 0 -15 0zM966.81 862.5 a7.5 7.5 0 1 0 15 0 a7.5 7.5 0 1 0 -15 0zM966.81 937.5 a7.5 7.5 0 1 0 15 0 a7.5 7.5 0 1 0 -15 0zM1031.76 975 a7.5 7.5 0 1 0 15 0 a7.5 7.5 0 1 0 -15 0zM1031.76 1050 a7.5 7.5 0 1 0 15 0 a7.5 7.5 0 1 0 -15 0zM966.81 1087.5 a7.5 7.5 0 1 0 15 0 a7.5 7.5 0 1 0 -15 0zM966.81 1162.5 a7.5 7.5 0 1 0 15 0 a7.5 7.5 0 1 0 -15 0zM1031.76 1200 a7.5 7.5 0 1 0 15 0 a7.5 7.5 0 1 0 -15 0zM1031.76 1275 a7.5 7.5 0 1 0 15 0 a7.5 7.5 0 1 0 -15 0zM966.81 1312.5 a7.5 7.5 0 1 0 15 0 a7.5 7.5 0 1 0 -15 0zM966.81 1387.5 a7.5 7.5 0 1 0 15 0 a7.5 7.5 0 1 0 -15 0zM1031.76 1425 a7.5 7.5 0 1 0 15 0 a7.5 7.5 0 1 0 -15 0zM1031.76 1500 a7.5 7.5 0 1 0 15 0 a7.5 7.5 0 1 0 -15 0zM966.81 1537.5 a7.5 7.5 0 1 0 15 0 a7.5 7.5 0 1 0 -15 0zM966.81 1612.5 a7.5 7.5 0 1 0 15 0 a7.5 7.5 0 1 0 -15 0zM1031.76 1650 a7.5 7.5 0 1 0 15 0 a7.5 7.5 0 1 0 -15 0zM1031.76 1725 a7.5 7.5 0 1 0 15 0 a7.5 7.5 0 1 0 -15 0zM966.81 1762.5 a7.5 7.5 0 1 0 15 0 a7.5 7.5 0 1 0 -15 0zM966.81 1837.5 a7.5 7.5 0 1 0 15 0 a7.5 7.5 0 1 0 -15 0zM1031.76 1875 a7.5 7.5 0 1 0 15 0 a7.5 7.5 0 1 0 -15 0zM1031.76 1950 a7.5 7.5 0 1 0 15 0 a7.5 7.5 0 1 0 -15 0zM966.81 1987.5 a7.5 7.5 0 1 0 15 0 a7.5 7.5 0 1 0 -15 0zM966.81 2062.5 a7.5 7.5 0 1 0 15 0 a7.5 7.5 0 1 0 -15 0zM1031.76 2100 a7.5 7.5 0 1 0 15 0 a7.5 7.5 0 1 0 -15 0zM1031.76 2175 a7.5 7.5 0 1 0 15 0 a7.5 7.5 0 1 0 -15 0zM966.81 2212.5 a7.5 7.5 0 1 0 15 0 a7.5 7.5 0 1 0 -15 0zM966.81 2287.5 a7.5 7.5 0 1 0 15 0 a7.5 7.5 0 1 0 -15 0zM1031.76 2325 a7.5 7.5 0 1 0 15 0 a7.5 7.5 0 1 0 -15 0zM1031.76 2400 a7.5 7.5 0 1 0 15 0 a7.5 7.5 0 1 0 -15 0zM966.81 2437.5 a7.5 7.5 0 1 0 15 0 a7.5 7.5 0 1 0 -15 0zM966.81 2512.5 a7.5 7.5 0 1 0 15 0 a7.5 7.5 0 1 0 -15 0zM1031.76 2550 a7.5 7.5 0 1 0 15 0 a7.5 7.5 0 1 0 -15 0zM1031.76 2625 a7.5 7.5 0 1 0 15 0 a7.5 7.5 0 1 0 -15 0zM966.81 2662.5 a7.5 7.5 0 1 0 15 0 a7.5 7.5 0 1 0 -15 0zM1031.76 -75 a7.5 7.5 0 1 0 15 0 a7.5 7.5 0 1 0 -15 0zM1096.71 -37.5 a7.5 7.5 0 1 0 15 0 a7.5 7.5 0 1 0 -15 0zM1096.71 37.5 a7.5 7.5 0 1 0 15 0 a7.5 7.5 0 1 0 -15 0zM1161.67 75 a7.5 7.5 0 1 0 15 0 a7.5 7.5 0 1 0 -15 0zM1161.67 150 a7.5 7.5 0 1 0 15 0 a7.5 7.5 0 1 0 -15 0zM1096.71 187.5 a7.5 7.5 0 1 0 15 0 a7.5 7.5 0 1 0 -15 0zM1096.71 262.5 a7.5 7.5 0 1 0 15 0 a7.5 7.5 0 1 0 -15 0zM1161.67 300 a7.5 7.5 0 1 0 15 0 a7.5 7.5 0 1 0 -15 0zM1161.67 375 a7.5 7.5 0 1 0 15 0 a7.5 7.5 0 1 0 -15 0zM1096.71 412.5 a7.5 7.5 0 1 0 15 0 a7.5 7.5 0 1 0 -15 0zM1096.71 487.5 a7.5 7.5 0 1 0 15 0 a7.5 7.5 0 1 0 -15 0zM1161.67 525 a7.5 7.5 0 1 0 15 0 a7.5 7.5 0 1 0 -15 0zM1161.67 600 a7.5 7.5 0 1 0 15 0 a7.5 7.5 0 1 0 -15 0zM1096.71 637.5 a7.5 7.5 0 1 0 15 0 a7.5 7.5 0 1 0 -15 0zM1096.71 712.5 a7.5 7.5 0 1 0 15 0 a7.5 7.5 0 1 0 -15 0zM1161.67 750 a7.5 7.5 0 1 0 15 0 a7.5 7.5 0 1 0 -15 0zM1161.67 825 a7.5 7.5 0 1 0 15 0 a7.5 7.5 0 1 0 -15 0zM1096.71 862.5 a7.5 7.5 0 1 0 15 0 a7.5 7.5 0 1 0 -15 0zM1096.71 937.5 a7.5 7.5 0 1 0 15 0 a7.5 7.5 0 1 0 -15 0zM1161.67 975 a7.5 7.5 0 1 0 15 0 a7.5 7.5 0 1 0 -15 0zM1161.67 1050 a7.5 7.5 0 1 0 15 0 a7.5 7.5 0 1 0 -15 0zM1096.71 1087.5 a7.5 7.5 0 1 0 15 0 a7.5 7.5 0 1 0 -15 0zM1096.71 1162.5 a7.5 7.5 0 1 0 15 0 a7.5 7.5 0 1 0 -15 0zM1161.67 1200 a7.5 7.5 0 1 0 15 0 a7.5 7.5 0 1 0 -15 0zM1161.67 1275 a7.5 7.5 0 1 0 15 0 a7.5 7.5 0 1 0 -15 0zM1096.71 1312.5 a7.5 7.5 0 1 0 15 0 a7.5 7.5 0 1 0 -15 0zM1096.71 1387.5 a7.5 7.5 0 1 0 15 0 a7.5 7.5 0 1 0 -15 0zM1161.67 1425 a7.5 7.5 0 1 0 15 0 a7.5 7.5 0 1 0 -15 0zM1161.67 1500 a7.5 7.5 0 1 0 15 0 a7.5 7.5 0 1 0 -15 0zM1096.71 1537.5 a7.5 7.5 0 1 0 15 0 a7.5 7.5 0 1 0 -15 0zM1096.71 1612.5 a7.5 7.5 0 1 0 15 0 a7.5 7.5 0 1 0 -15 0zM1161.67 1650 a7.5 7.5 0 1 0 15 0 a7.5 7.5 0 1 0 -15 0zM1161.67 1725 a7.5 7.5 0 1 0 15 0 a7.5 7.5 0 1 0 -15 0zM1096.71 1762.5 a7.5 7.5 0 1 0 15 0 a7.5 7.5 0 1 0 -15 0zM1096.71 1837.5 a7.5 7.5 0 1 0 15 0 a7.5 7.5 0 1 0 -15 0zM1161.67 1875 a7.5 7.5 0 1 0 15 0 a7.5 7.5 0 1 0 -15 0zM1161.67 1950 a7.5 7.5 0 1 0 15 0 a7.5 7.5 0 1 0 -15 0zM1096.71 1987.5 a7.5 7.5 0 1 0 15 0 a7.5 7.5 0 1 0 -15 0zM1096.71 2062.5 a7.5 7.5 0 1 0 15 0 a7.5 7.5 0 1 0 -15 0zM1161.67 2100 a7.5 7.5 0 1 0 15 0 a7.5 7.5 0 1 0 -15 0zM1161.67 2175 a7.5 7.5 0 1 0 15 0 a7.5 7.5 0 1 0 -15 0zM1096.71 2212.5 a7.5 7.5 0 1 0 15 0 a7.5 7.5 0 1 0 -15 0zM1096.71 2287.5 a7.5 7.5 0 1 0 15 0 a7.5 7.5 0 1 0 -15 0zM1161.67 2325 a7.5 7.5 0 1 0 15 0 a7.5 7.5 0 1 0 -15 0zM1161.67 2400 a7.5 7.5 0 1 0 15 0 a7.5 7.5 0 1 0 -15 0zM1096.71 2437.5 a7.5 7.5 0 1 0 15 0 a7.5 7.5 0 1 0 -15 0zM1096.71 2512.5 a7.5 7.5 0 1 0 15 0 a7.5 7.5 0 1 0 -15 0zM1161.67 2550 a7.5 7.5 0 1 0 15 0 a7.5 7.5 0 1 0 -15 0zM1161.67 2625 a7.5 7.5 0 1 0 15 0 a7.5 7.5 0 1 0 -15 0zM1096.71 2662.5 a7.5 7.5 0 1 0 15 0 a7.5 7.5 0 1 0 -15 0zM1161.67 -75 a7.5 7.5 0 1 0 15 0 a7.5 7.5 0 1 0 -15 0zM1226.62 -37.5 a7.5 7.5 0 1 0 15 0 a7.5 7.5 0 1 0 -15 0zM1226.62 37.5 a7.5 7.5 0 1 0 15 0 a7.5 7.5 0 1 0 -15 0zM1291.57 75 a7.5 7.5 0 1 0 15 0 a7.5 7.5 0 1 0 -15 0zM1291.57 150 a7.5 7.5 0 1 0 15 0 a7.5 7.5 0 1 0 -15 0zM1226.62 187.5 a7.5 7.5 0 1 0 15 0 a7.5 7.5 0 1 0 -15 0zM1226.62 262.5 a7.5 7.5 0 1 0 15 0 a7.5 7.5 0 1 0 -15 0zM1291.57 300 a7.5 7.5 0 1 0 15 0 a7.5 7.5 0 1 0 -15 0zM1291.57 375 a7.5 7.5 0 1 0 15 0 a7.5 7.5 0 1 0 -15 0zM1226.62 412.5 a7.5 7.5 0 1 0 15 0 a7.5 7.5 0 1 0 -15 0zM1226.62 487.5 a7.5 7.5 0 1 0 15 0 a7.5 7.5 0 1 0 -15 0zM1291.57 525 a7.5 7.5 0 1 0 15 0 a7.5 7.5 0 1 0 -15 0zM1291.57 600 a7.5 7.5 0 1 0 15 0 a7.5 7.5 0 1 0 -15 0zM1226.62 637.5 a7.5 7.5 0 1 0 15 0 a7.5 7.5 0 1 0 -15 0zM1226.62 712.5 a7.5 7.5 0 1 0 15 0 a7.5 7.5 0 1 0 -15 0zM1291.57 750 a7.5 7.5 0 1 0 15 0 a7.5 7.5 0 1 0 -15 0zM1291.57 825 a7.5 7.5 0 1 0 15 0 a7.5 7.5 0 1 0 -15 0zM1226.62 862.5 a7.5 7.5 0 1 0 15 0 a7.5 7.5 0 1 0 -15 0zM1226.62 937.5 a7.5 7.5 0 1 0 15 0 a7.5 7.5 0 1 0 -15 0zM1291.57 975 a7.5 7.5 0 1 0 15 0 a7.5 7.5 0 1 0 -15 0zM1291.57 1050 a7.5 7.5 0 1 0 15 0 a7.5 7.5 0 1 0 -15 0zM1226.62 1087.5 a7.5 7.5 0 1 0 15 0 a7.5 7.5 0 1 0 -15 0zM1226.62 1162.5 a7.5 7.5 0 1 0 15 0 a7.5 7.5 0 1 0 -15 0zM1291.57 1200 a7.5 7.5 0 1 0 15 0 a7.5 7.5 0 1 0 -15 0zM1291.57 1275 a7.5 7.5 0 1 0 15 0 a7.5 7.5 0 1 0 -15 0zM1226.62 1312.5 a7.5 7.5 0 1 0 15 0 a7.5 7.5 0 1 0 -15 0zM1226.62 1387.5 a7.5 7.5 0 1 0 15 0 a7.5 7.5 0 1 0 -15 0zM1291.57 1425 a7.5 7.5 0 1 0 15 0 a7.5 7.5 0 1 0 -15 0zM1291.57 1500 a7.5 7.5 0 1 0 15 0 a7.5 7.5 0 1 0 -15 0zM1226.62 1537.5 a7.5 7.5 0 1 0 15 0 a7.5 7.5 0 1 0 -15 0zM1226.62 1612.5 a7.5 7.5 0 1 0 15 0 a7.5 7.5 0 1 0 -15 0zM1291.57 1650 a7.5 7.5 0 1 0 15 0 a7.5 7.5 0 1 0 -15 0zM1291.57 1725 a7.5 7.5 0 1 0 15 0 a7.5 7.5 0 1 0 -15 0zM1226.62 1762.5 a7.5 7.5 0 1 0 15 0 a7.5 7.5 0 1 0 -15 0zM1226.62 1837.5 a7.5 7.5 0 1 0 15 0 a7.5 7.5 0 1 0 -15 0zM1291.57 1875 a7.5 7.5 0 1 0 15 0 a7.5 7.5 0 1 0 -15 0zM1291.57 1950 a7.5 7.5 0 1 0 15 0 a7.5 7.5 0 1 0 -15 0zM1226.62 1987.5 a7.5 7.5 0 1 0 15 0 a7.5 7.5 0 1 0 -15 0zM1226.62 2062.5 a7.5 7.5 0 1 0 15 0 a7.5 7.5 0 1 0 -15 0zM1291.57 2100 a7.5 7.5 0 1 0 15 0 a7.5 7.5 0 1 0 -15 0zM1291.57 2175 a7.5 7.5 0 1 0 15 0 a7.5 7.5 0 1 0 -15 0zM1226.62 2212.5 a7.5 7.5 0 1 0 15 0 a7.5 7.5 0 1 0 -15 0zM1226.62 2287.5 a7.5 7.5 0 1 0 15 0 a7.5 7.5 0 1 0 -15 0zM1291.57 2325 a7.5 7.5 0 1 0 15 0 a7.5 7.5 0 1 0 -15 0zM1291.57 2400 a7.5 7.5 0 1 0 15 0 a7.5 7.5 0 1 0 -15 0zM1226.62 2437.5 a7.5 7.5 0 1 0 15 0 a7.5 7.5 0 1 0 -15 0zM1226.62 2512.5 a7.5 7.5 0 1 0 15 0 a7.5 7.5 0 1 0 -15 0zM1291.57 2550 a7.5 7.5 0 1 0 15 0 a7.5 7.5 0 1 0 -15 0zM1291.57 2625 a7.5 7.5 0 1 0 15 0 a7.5 7.5 0 1 0 -15 0zM1226.62 2662.5 a7.5 7.5 0 1 0 15 0 a7.5 7.5 0 1 0 -15 0zM1291.58 -75 a7.5 7.5 0 1 0 15 0 a7.5 7.5 0 1 0 -15 0zM1356.53 -37.5 a7.5 7.5 0 1 0 15 0 a7.5 7.5 0 1 0 -15 0zM1356.53 37.5 a7.5 7.5 0 1 0 15 0 a7.5 7.5 0 1 0 -15 0zM1291.58 75 a7.5 7.5 0 1 0 15 0 a7.5 7.5 0 1 0 -15 0zM1421.48 75 a7.5 7.5 0 1 0 15 0 a7.5 7.5 0 1 0 -15 0zM1421.48 150 a7.5 7.5 0 1 0 15 0 a7.5 7.5 0 1 0 -15 0zM1356.53 187.5 a7.5 7.5 0 1 0 15 0 a7.5 7.5 0 1 0 -15 0zM1291.58 150 a7.5 7.5 0 1 0 15 0 a7.5 7.5 0 1 0 -15 0zM1356.53 262.5 a7.5 7.5 0 1 0 15 0 a7.5 7.5 0 1 0 -15 0zM1291.58 300 a7.5 7.5 0 1 0 15 0 a7.5 7.5 0 1 0 -15 0zM1421.48 300 a7.5 7.5 0 1 0 15 0 a7.5 7.5 0 1 0 -15 0zM1421.48 375 a7.5 7.5 0 1 0 15 0 a7.5 7.5 0 1 0 -15 0zM1356.53 412.5 a7.5 7.5 0 1 0 15 0 a7.5 7.5 0 1 0 -15 0zM1291.58 375 a7.5 7.5 0 1 0 15 0 a7.5 7.5 0 1 0 -15 0zM1356.53 487.5 a7.5 7.5 0 1 0 15 0 a7.5 7.5 0 1 0 -15 0zM1291.58 525 a7.5 7.5 0 1 0 15 0 a7.5 7.5 0 1 0 -15 0zM1421.48 525 a7.5 7.5 0 1 0 15 0 a7.5 7.5 0 1 0 -15 0zM1421.48 600 a7.5 7.5 0 1 0 15 0 a7.5 7.5 0 1 0 -15 0zM1356.53 637.5 a7.5 7.5 0 1 0 15 0 a7.5 7.5 0 1 0 -15 0zM1291.58 600 a7.5 7.5 0 1 0 15 0 a7.5 7.5 0 1 0 -15 0zM1356.53 712.5 a7.5 7.5 0 1 0 15 0 a7.5 7.5 0 1 0 -15 0zM1291.58 750 a7.5 7.5 0 1 0 15 0 a7.5 7.5 0 1 0 -15 0zM1421.48 750 a7.5 7.5 0 1 0 15 0 a7.5 7.5 0 1 0 -15 0zM1421.48 825 a7.5 7.5 0 1 0 15 0 a7.5 7.5 0 1 0 -15 0zM1356.53 862.5 a7.5 7.5 0 1 0 15 0 a7.5 7.5 0 1 0 -15 0zM1291.58 825 a7.5 7.5 0 1 0 15 0 a7.5 7.5 0 1 0 -15 0zM1356.53 937.5 a7.5 7.5 0 1 0 15 0 a7.5 7.5 0 1 0 -15 0zM1291.58 975 a7.5 7.5 0 1 0 15 0 a7.5 7.5 0 1 0 -15 0zM1421.48 975 a7.5 7.5 0 1 0 15 0 a7.5 7.5 0 1 0 -15 0zM1421.48 1050 a7.5 7.5 0 1 0 15 0 a7.5 7.5 0 1 0 -15 0zM1356.53 1087.5 a7.5 7.5 0 1 0 15 0 a7.5 7.5 0 1 0 -15 0zM1291.58 1050 a7.5 7.5 0 1 0 15 0 a7.5 7.5 0 1 0 -15 0zM1356.53 1162.5 a7.5 7.5 0 1 0 15 0 a7.5 7.5 0 1 0 -15 0zM1291.58 1200 a7.5 7.5 0 1 0 15 0 a7.5 7.5 0 1 0 -15 0zM1421.48 1200 a7.5 7.5 0 1 0 15 0 a7.5 7.5 0 1 0 -15 0zM1421.48 1275 a7.5 7.5 0 1 0 15 0 a7.5 7.5 0 1 0 -15 0zM1356.53 1312.5 a7.5 7.5 0 1 0 15 0 a7.5 7.5 0 1 0 -15 0zM1291.58 1275 a7.5 7.5 0 1 0 15 0 a7.5 7.5 0 1 0 -15 0zM1356.53 1387.5 a7.5 7.5 0 1 0 15 0 a7.5 7.5 0 1 0 -15 0zM1291.58 1425 a7.5 7.5 0 1 0 15 0 a7.5 7.5 0 1 0 -15 0zM1421.48 1425 a7.5 7.5 0 1 0 15 0 a7.5 7.5 0 1 0 -15 0zM1421.48 1500 a7.5 7.5 0 1 0 15 0 a7.5 7.5 0 1 0 -15 0zM1356.53 1537.5 a7.5 7.5 0 1 0 15 0 a7.5 7.5 0 1 0 -15 0zM1291.58 1500 a7.5 7.5 0 1 0 15 0 a7.5 7.5 0 1 0 -15 0zM1356.53 1612.5 a7.5 7.5 0 1 0 15 0 a7.5 7.5 0 1 0 -15 0zM1291.58 1650 a7.5 7.5 0 1 0 15 0 a7.5 7.5 0 1 0 -15 0zM1421.48 1650 a7.5 7.5 0 1 0 15 0 a7.5 7.5 0 1 0 -15 0zM1421.48 1725 a7.5 7.5 0 1 0 15 0 a7.5 7.5 0 1 0 -15 0zM1356.53 1762.5 a7.5 7.5 0 1 0 15 0 a7.5 7.5 0 1 0 -15 0zM1291.58 1725 a7.5 7.5 0 1 0 15 0 a7.5 7.5 0 1 0 -15 0zM1356.53 1837.5 a7.5 7.5 0 1 0 15 0 a7.5 7.5 0 1 0 -15 0zM1291.58 1875 a7.5 7.5 0 1 0 15 0 a7.5 7.5 0 1 0 -15 0zM1421.48 1875 a7.5 7.5 0 1 0 15 0 a7.5 7.5 0 1 0 -15 0zM1421.48 1950 a7.5 7.5 0 1 0 15 0 a7.5 7.5 0 1 0 -15 0zM1356.53 1987.5 a7.5 7.5 0 1 0 15 0 a7.5 7.5 0 1 0 -15 0zM1291.58 1950 a7.5 7.5 0 1 0 15 0 a7.5 7.5 0 1 0 -15 0zM1356.53 2062.5 a7.5 7.5 0 1 0 15 0 a7.5 7.5 0 1 0 -15 0zM1291.58 2100 a7.5 7.5 0 1 0 15 0 a7.5 7.5 0 1 0 -15 0zM1421.48 2100 a7.5 7.5 0 1 0 15 0 a7.5 7.5 0 1 0 -15 0zM1421.48 2175 a7.5 7.5 0 1 0 15 0 a7.5 7.5 0 1 0 -15 0zM1356.53 2212.5 a7.5 7.5 0 1 0 15 0 a7.5 7.5 0 1 0 -15 0zM1291.58 2175 a7.5 7.5 0 1 0 15 0 a7.5 7.5 0 1 0 -15 0zM1356.53 2287.5 a7.5 7.5 0 1 0 15 0 a7.5 7.5 0 1 0 -15 0zM1291.58 2325 a7.5 7.5 0 1 0 15 0 a7.5 7.5 0 1 0 -15 0zM1421.48 2325 a7.5 7.5 0 1 0 15 0 a7.5 7.5 0 1 0 -15 0zM1421.48 2400 a7.5 7.5 0 1 0 15 0 a7.5 7.5 0 1 0 -15 0zM1356.53 2437.5 a7.5 7.5 0 1 0 15 0 a7.5 7.5 0 1 0 -15 0zM1291.58 2400 a7.5 7.5 0 1 0 15 0 a7.5 7.5 0 1 0 -15 0zM1356.53 2512.5 a7.5 7.5 0 1 0 15 0 a7.5 7.5 0 1 0 -15 0zM1291.58 2550 a7.5 7.5 0 1 0 15 0 a7.5 7.5 0 1 0 -15 0zM1421.48 2550 a7.5 7.5 0 1 0 15 0 a7.5 7.5 0 1 0 -15 0zM1421.48 2625 a7.5 7.5 0 1 0 15 0 a7.5 7.5 0 1 0 -15 0zM1356.53 2662.5 a7.5 7.5 0 1 0 15 0 a7.5 7.5 0 1 0 -15 0zM1291.58 2625 a7.5 7.5 0 1 0 15 0 a7.5 7.5 0 1 0 -15 0zM1421.48 -75 a7.5 7.5 0 1 0 15 0 a7.5 7.5 0 1 0 -15 0zM1486.44 -37.5 a7.5 7.5 0 1 0 15 0 a7.5 7.5 0 1 0 -15 0zM1486.44 37.5 a7.5 7.5 0 1 0 15 0 a7.5 7.5 0 1 0 -15 0zM1551.39 75 a7.5 7.5 0 1 0 15 0 a7.5 7.5 0 1 0 -15 0zM1551.39 150 a7.5 7.5 0 1 0 15 0 a7.5 7.5 0 1 0 -15 0zM1486.44 187.5 a7.5 7.5 0 1 0 15 0 a7.5 7.5 0 1 0 -15 0zM1486.44 262.5 a7.5 7.5 0 1 0 15 0 a7.5 7.5 0 1 0 -15 0zM1551.39 300 a7.5 7.5 0 1 0 15 0 a7.5 7.5 0 1 0 -15 0zM1551.39 375 a7.5 7.5 0 1 0 15 0 a7.5 7.5 0 1 0 -15 0zM1486.44 412.5 a7.5 7.5 0 1 0 15 0 a7.5 7.5 0 1 0 -15 0zM1486.44 487.5 a7.5 7.5 0 1 0 15 0 a7.5 7.5 0 1 0 -15 0zM1551.39 525 a7.5 7.5 0 1 0 15 0 a7.5 7.5 0 1 0 -15 0zM1551.39 600 a7.5 7.5 0 1 0 15 0 a7.5 7.5 0 1 0 -15 0zM1486.44 637.5 a7.5 7.5 0 1 0 15 0 a7.5 7.5 0 1 0 -15 0zM1486.44 712.5 a7.5 7.5 0 1 0 15 0 a7.5 7.5 0 1 0 -15 0zM1551.39 750 a7.5 7.5 0 1 0 15 0 a7.5 7.5 0 1 0 -15 0zM1551.39 825 a7.5 7.5 0 1 0 15 0 a7.5 7.5 0 1 0 -15 0zM1486.44 862.5 a7.5 7.5 0 1 0 15 0 a7.5 7.5 0 1 0 -15 0zM1486.44 937.5 a7.5 7.5 0 1 0 15 0 a7.5 7.5 0 1 0 -15 0zM1551.39 975 a7.5 7.5 0 1 0 15 0 a7.5 7.5 0 1 0 -15 0zM1551.39 1050 a7.5 7.5 0 1 0 15 0 a7.5 7.5 0 1 0 -15 0zM1486.44 1087.5 a7.5 7.5 0 1 0 15 0 a7.5 7.5 0 1 0 -15 0zM1486.44 1162.5 a7.5 7.5 0 1 0 15 0 a7.5 7.5 0 1 0 -15 0zM1551.39 1200 a7.5 7.5 0 1 0 15 0 a7.5 7.5 0 1 0 -15 0zM1551.39 1275 a7.5 7.5 0 1 0 15 0 a7.5 7.5 0 1 0 -15 0zM1486.44 1312.5 a7.5 7.5 0 1 0 15 0 a7.5 7.5 0 1 0 -15 0zM1486.44 1387.5 a7.5 7.5 0 1 0 15 0 a7.5 7.5 0 1 0 -15 0zM1551.39 1425 a7.5 7.5 0 1 0 15 0 a7.5 7.5 0 1 0 -15 0zM1551.39 1500 a7.5 7.5 0 1 0 15 0 a7.5 7.5 0 1 0 -15 0zM1486.44 1537.5 a7.5 7.5 0 1 0 15 0 a7.5 7.5 0 1 0 -15 0zM1486.44 1612.5 a7.5 7.5 0 1 0 15 0 a7.5 7.5 0 1 0 -15 0zM1551.39 1650 a7.5 7.5 0 1 0 15 0 a7.5 7.5 0 1 0 -15 0zM1551.39 1725 a7.5 7.5 0 1 0 15 0 a7.5 7.5 0 1 0 -15 0zM1486.44 1762.5 a7.5 7.5 0 1 0 15 0 a7.5 7.5 0 1 0 -15 0zM1486.44 1837.5 a7.5 7.5 0 1 0 15 0 a7.5 7.5 0 1 0 -15 0zM1551.39 1875 a7.5 7.5 0 1 0 15 0 a7.5 7.5 0 1 0 -15 0zM1551.39 1950 a7.5 7.5 0 1 0 15 0 a7.5 7.5 0 1 0 -15 0zM1486.44 1987.5 a7.5 7.5 0 1 0 15 0 a7.5 7.5 0 1 0 -15 0zM1486.44 2062.5 a7.5 7.5 0 1 0 15 0 a7.5 7.5 0 1 0 -15 0zM1551.39 2100 a7.5 7.5 0 1 0 15 0 a7.5 7.5 0 1 0 -15 0zM1551.39 2175 a7.5 7.5 0 1 0 15 0 a7.5 7.5 0 1 0 -15 0zM1486.44 2212.5 a7.5 7.5 0 1 0 15 0 a7.5 7.5 0 1 0 -15 0zM1486.44 2287.5 a7.5 7.5 0 1 0 15 0 a7.5 7.5 0 1 0 -15 0zM1551.39 2325 a7.5 7.5 0 1 0 15 0 a7.5 7.5 0 1 0 -15 0zM1551.39 2400 a7.5 7.5 0 1 0 15 0 a7.5 7.5 0 1 0 -15 0zM1486.44 2437.5 a7.5 7.5 0 1 0 15 0 a7.5 7.5 0 1 0 -15 0zM1486.44 2512.5 a7.5 7.5 0 1 0 15 0 a7.5 7.5 0 1 0 -15 0zM1551.39 2550 a7.5 7.5 0 1 0 15 0 a7.5 7.5 0 1 0 -15 0zM1551.39 2625 a7.5 7.5 0 1 0 15 0 a7.5 7.5 0 1 0 -15 0zM1486.44 2662.5 a7.5 7.5 0 1 0 15 0 a7.5 7.5 0 1 0 -15 0z" fill="rgba(216, 224, 232, 1)"></path><path d="M99.84 195.01L147.48 222.51L147.48 277.51L99.84 305.01L52.21 277.51L52.21 222.51zM99.84 360.01L147.48 387.51L147.48 442.51L99.84 470.01L52.21 442.51L52.21 387.51zM52.21 607.51L99.84 635.01L99.84 690.01L52.21 717.51L4.58 690.01L4.58 635.01zM52.21 1102.51L99.84 1130.01L99.84 1185.01L52.21 1212.51L4.58 1185.01L4.58 1130.01zM99.84 1185.01L147.48 1212.51L147.48 1267.51L99.84 1295.01L52.21 1267.51L52.21 1212.51zM99.84 1350.01L147.48 1377.51L147.48 1432.51L99.84 1460.01L52.21 1432.51L52.21 1377.51zM99.84 2010.01L147.48 2037.51L147.48 2092.51L99.84 2120.01L52.21 2092.51L52.21 2037.51zM52.21 2422.51L99.84 2450.01L99.84 2505.01L52.21 2532.51L4.58 2505.01L4.58 2450.01zM99.84 2505.01L147.48 2532.51L147.48 2587.51L99.84 2615.01L52.21 2587.51L52.21 2532.51zM195.11 30.01L242.74 57.51L242.74 112.51L195.11 140.01L147.48 112.51L147.48 57.51zM195.11 195.01L242.74 222.51L242.74 277.51L195.11 305.01L147.48 277.51L147.48 222.51zM147.48 607.51L195.11 635.01L195.11 690.01L147.48 717.51L99.84 690.01L99.84 635.01zM195.11 690.01L242.74 717.51L242.74 772.51L195.11 800.01L147.48 772.51L147.48 717.51zM147.48 772.51L195.11 800.01L195.11 855.01L147.48 882.51L99.84 855.01L99.84 800.01zM195.11 855.01L242.74 882.51L242.74 937.51L195.11 965.01L147.48 937.51L147.48 882.51zM147.48 937.51L195.11 965.01L195.11 1020.01L147.48 1047.51L99.84 1020.01L99.84 965.01zM195.11 1020.01L242.74 1047.51L242.74 1102.51L195.11 1130.01L147.48 1102.51L147.48 1047.51zM147.48 1102.51L195.11 1130.01L195.11 1185.01L147.48 1212.51L99.84 1185.01L99.84 1130.01zM195.11 1350.01L242.74 1377.51L242.74 1432.51L195.11 1460.01L147.48 1432.51L147.48 1377.51zM147.48 1927.51L195.11 1955.01L195.11 2010.01L147.48 2037.51L99.84 2010.01L99.84 1955.01zM195.11 2010.01L242.74 2037.51L242.74 2092.51L195.11 2120.01L147.48 2092.51L147.48 2037.51zM147.48 2092.51L195.11 2120.01L195.11 2175.01L147.48 2202.51L99.84 2175.01L99.84 2120.01zM195.11 2175.01L242.74 2202.51L242.74 2257.51L195.11 2285.01L147.48 2257.51L147.48 2202.51zM147.48 2257.51L195.11 2285.01L195.11 2340.01L147.48 2367.51L99.84 2340.01L99.84 2285.01zM195.11 2340.01L242.74 2367.51L242.74 2422.51L195.11 2450.01L147.48 2422.51L147.48 2367.51zM290.37 195.01L338.01 222.51L338.01 277.51L290.37 305.01L242.74 277.51L242.74 222.51zM242.74 277.51L290.37 305.01L290.37 360.01L242.74 387.51L195.11 360.01L195.11 305.01zM290.37 855.01L338.01 882.51L338.01 937.51L290.37 965.01L242.74 937.51L242.74 882.51zM242.74 937.51L290.37 965.01L290.37 1020.01L242.74 1047.51L195.11 1020.01L195.11 965.01zM290.37 1020.01L338.01 1047.51L338.01 1102.51L290.37 1130.01L242.74 1102.51L242.74 1047.51zM290.37 1185.01L338.01 1212.51L338.01 1267.51L290.37 1295.01L242.74 1267.51L242.74 1212.51zM242.74 1267.51L290.37 1295.01L290.37 1350.01L242.74 1377.51L195.11 1350.01L195.11 1295.01zM290.37 1350.01L338.01 1377.51L338.01 1432.51L290.37 1460.01L242.74 1432.51L242.74 1377.51zM242.74 1927.51L290.37 1955.01L290.37 2010.01L242.74 2037.51L195.11 2010.01L195.11 1955.01zM290.37 2010.01L338.01 2037.51L338.01 2092.51L290.37 2120.01L242.74 2092.51L242.74 2037.51zM242.74 2092.51L290.37 2120.01L290.37 2175.01L242.74 2202.51L195.11 2175.01L195.11 2120.01zM242.74 2257.51L290.37 2285.01L290.37 2340.01L242.74 2367.51L195.11 2340.01L195.11 2285.01zM242.74 2422.51L290.37 2450.01L290.37 2505.01L242.74 2532.51L195.11 2505.01L195.11 2450.01zM290.37 2505.01L338.01 2532.51L338.01 2587.51L290.37 2615.01L242.74 2587.51L242.74 2532.51zM338.01 112.51L385.64 140.01L385.64 195.01L338.01 222.51L290.37 195.01L290.37 140.01zM338.01 277.51L385.64 305.01L385.64 360.01L338.01 387.51L290.37 360.01L290.37 305.01zM338.01 442.51L385.64 470.01L385.64 525.01L338.01 552.51L290.37 525.01L290.37 470.01zM385.64 525.01L433.27 552.51L433.27 607.51L385.64 635.01L338.01 607.51L338.01 552.51zM338.01 607.51L385.64 635.01L385.64 690.01L338.01 717.51L290.37 690.01L290.37 635.01zM385.64 690.01L433.27 717.51L433.27 772.51L385.64 800.01L338.01 772.51L338.01 717.51zM338.01 937.51L385.64 965.01L385.64 1020.01L338.01 1047.51L290.37 1020.01L290.37 965.01zM385.64 1020.01L433.27 1047.51L433.27 1102.51L385.64 1130.01L338.01 1102.51L338.01 1047.51zM385.64 1185.01L433.27 1212.51L433.27 1267.51L385.64 1295.01L338.01 1267.51L338.01 1212.51zM385.64 1350.01L433.27 1377.51L433.27 1432.51L385.64 1460.01L338.01 1432.51L338.01 1377.51zM385.64 1515.01L433.27 1542.51L433.27 1597.51L385.64 1625.01L338.01 1597.51L338.01 1542.51zM385.64 1680.01L433.27 1707.51L433.27 1762.51L385.64 1790.01L338.01 1762.51L338.01 1707.51zM338.01 1762.51L385.64 1790.01L385.64 1845.01L338.01 1872.51L290.37 1845.01L290.37 1790.01zM338.01 2092.51L385.64 2120.01L385.64 2175.01L338.01 2202.51L290.37 2175.01L290.37 2120.01zM338.01 2257.51L385.64 2285.01L385.64 2340.01L338.01 2367.51L290.37 2340.01L290.37 2285.01zM385.64 2340.01L433.27 2367.51L433.27 2422.51L385.64 2450.01L338.01 2422.51L338.01 2367.51zM480.9 30.01L528.54 57.51L528.54 112.51L480.9 140.01L433.27 112.51L433.27 57.51zM480.9 690.01L528.54 717.51L528.54 772.51L480.9 800.01L433.27 772.51L433.27 717.51zM480.9 855.01L528.54 882.51L528.54 937.51L480.9 965.01L433.27 937.51L433.27 882.51zM433.27 937.51L480.9 965.01L480.9 1020.01L433.27 1047.51L385.64 1020.01L385.64 965.01zM433.27 1102.51L480.9 1130.01L480.9 1185.01L433.27 1212.51L385.64 1185.01L385.64 1130.01zM433.27 1267.51L480.9 1295.01L480.9 1350.01L433.27 1377.51L385.64 1350.01L385.64 1295.01zM480.9 1350.01L528.54 1377.51L528.54 1432.51L480.9 1460.01L433.27 1432.51L433.27 1377.51zM433.27 1432.51L480.9 1460.01L480.9 1515.01L433.27 1542.51L385.64 1515.01L385.64 1460.01zM480.9 1680.01L528.54 1707.51L528.54 1762.51L480.9 1790.01L433.27 1762.51L433.27 1707.51zM480.9 2010.01L528.54 2037.51L528.54 2092.51L480.9 2120.01L433.27 2092.51L433.27 2037.51zM480.9 2175.01L528.54 2202.51L528.54 2257.51L480.9 2285.01L433.27 2257.51L433.27 2202.51zM433.27 2422.51L480.9 2450.01L480.9 2505.01L433.27 2532.51L385.64 2505.01L385.64 2450.01zM480.9 2505.01L528.54 2532.51L528.54 2587.51L480.9 2615.01L433.27 2587.51L433.27 2532.51zM528.54 -52.49L576.17 -24.99L576.17 30.01L528.54 57.51L480.9 30.01L480.9 -24.99zM576.17 525.01L623.8 552.51L623.8 607.51L576.17 635.01L528.54 607.51L528.54 552.51zM576.17 690.01L623.8 717.51L623.8 772.51L576.17 800.01L528.54 772.51L528.54 717.51zM528.54 772.51L576.17 800.01L576.17 855.01L528.54 882.51L480.9 855.01L480.9 800.01zM528.54 937.51L576.17 965.01L576.17 1020.01L528.54 1047.51L480.9 1020.01L480.9 965.01zM528.54 1267.51L576.17 1295.01L576.17 1350.01L528.54 1377.51L480.9 1350.01L480.9 1295.01zM576.17 1515.01L623.8 1542.51L623.8 1597.51L576.17 1625.01L528.54 1597.51L528.54 1542.51zM576.17 1845.01L623.8 1872.51L623.8 1927.51L576.17 1955.01L528.54 1927.51L528.54 1872.51zM576.17 2175.01L623.8 2202.51L623.8 2257.51L576.17 2285.01L528.54 2257.51L528.54 2202.51zM528.54 2257.51L576.17 2285.01L576.17 2340.01L528.54 2367.51L480.9 2340.01L480.9 2285.01zM576.17 2340.01L623.8 2367.51L623.8 2422.51L576.17 2450.01L528.54 2422.51L528.54 2367.51zM671.44 30.01L719.07 57.51L719.07 112.51L671.44 140.01L623.8 112.51L623.8 57.51zM623.8 277.51L671.44 305.01L671.44 360.01L623.8 387.51L576.17 360.01L576.17 305.01zM671.44 690.01L719.07 717.51L719.07 772.51L671.44 800.01L623.8 772.51L623.8 717.51zM671.44 1020.01L719.07 1047.51L719.07 1102.51L671.44 1130.01L623.8 1102.51L623.8 1047.51zM623.8 1102.51L671.44 1130.01L671.44 1185.01L623.8 1212.51L576.17 1185.01L576.17 1130.01zM671.44 1185.01L719.07 1212.51L719.07 1267.51L671.44 1295.01L623.8 1267.51L623.8 1212.51zM623.8 1267.51L671.44 1295.01L671.44 1350.01L623.8 1377.51L576.17 1350.01L576.17 1295.01zM623.8 1432.51L671.44 1460.01L671.44 1515.01L623.8 1542.51L576.17 1515.01L576.17 1460.01zM671.44 1680.01L719.07 1707.51L719.07 1762.51L671.44 1790.01L623.8 1762.51L623.8 1707.51zM623.8 1762.51L671.44 1790.01L671.44 1845.01L623.8 1872.51L576.17 1845.01L576.17 1790.01zM671.44 1845.01L719.07 1872.51L719.07 1927.51L671.44 1955.01L623.8 1927.51L623.8 1872.51zM623.8 1927.51L671.44 1955.01L671.44 2010.01L623.8 2037.51L576.17 2010.01L576.17 1955.01zM623.8 2257.51L671.44 2285.01L671.44 2340.01L623.8 2367.51L576.17 2340.01L576.17 2285.01zM671.44 2340.01L719.07 2367.51L719.07 2422.51L671.44 2450.01L623.8 2422.51L623.8 2367.51zM623.8 2422.51L671.44 2450.01L671.44 2505.01L623.8 2532.51L576.17 2505.01L576.17 2450.01zM766.7 195.01L814.33 222.51L814.33 277.51L766.7 305.01L719.07 277.51L719.07 222.51zM766.7 360.01L814.33 387.51L814.33 442.51L766.7 470.01L719.07 442.51L719.07 387.51zM766.7 525.01L814.33 552.51L814.33 607.51L766.7 635.01L719.07 607.51L719.07 552.51zM766.7 855.01L814.33 882.51L814.33 937.51L766.7 965.01L719.07 937.51L719.07 882.51zM719.07 1102.51L766.7 1130.01L766.7 1185.01L719.07 1212.51L671.44 1185.01L671.44 1130.01zM719.07 1597.51L766.7 1625.01L766.7 1680.01L719.07 1707.51L671.44 1680.01L671.44 1625.01zM766.7 1680.01L814.33 1707.51L814.33 1762.51L766.7 1790.01L719.07 1762.51L719.07 1707.51zM766.7 2340.01L814.33 2367.51L814.33 2422.51L766.7 2450.01L719.07 2422.51L719.07 2367.51zM766.7 2505.01L814.33 2532.51L814.33 2587.51L766.7 2615.01L719.07 2587.51L719.07 2532.51zM814.33 112.51L861.97 140.01L861.97 195.01L814.33 222.51L766.7 195.01L766.7 140.01zM861.97 195.01L909.6 222.51L909.6 277.51L861.97 305.01L814.33 277.51L814.33 222.51zM861.97 360.01L909.6 387.51L909.6 442.51L861.97 470.01L814.33 442.51L814.33 387.51zM861.97 525.01L909.6 552.51L909.6 607.51L861.97 635.01L814.33 607.51L814.33 552.51zM814.33 772.51L861.97 800.01L861.97 855.01L814.33 882.51L766.7 855.01L766.7 800.01zM861.97 1020.01L909.6 1047.51L909.6 1102.51L861.97 1130.01L814.33 1102.51L814.33 1047.51zM814.33 1102.51L861.97 1130.01L861.97 1185.01L814.33 1212.51L766.7 1185.01L766.7 1130.01zM861.97 1350.01L909.6 1377.51L909.6 1432.51L861.97 1460.01L814.33 1432.51L814.33 1377.51zM861.97 1515.01L909.6 1542.51L909.6 1597.51L861.97 1625.01L814.33 1597.51L814.33 1542.51zM814.33 1597.51L861.97 1625.01L861.97 1680.01L814.33 1707.51L766.7 1680.01L766.7 1625.01zM861.97 2175.01L909.6 2202.51L909.6 2257.51L861.97 2285.01L814.33 2257.51L814.33 2202.51zM861.97 2340.01L909.6 2367.51L909.6 2422.51L861.97 2450.01L814.33 2422.51L814.33 2367.51zM861.97 2505.01L909.6 2532.51L909.6 2587.51L861.97 2615.01L814.33 2587.51L814.33 2532.51zM909.6 277.51L957.23 305.01L957.23 360.01L909.6 387.51L861.97 360.01L861.97 305.01zM957.23 360.01L1004.87 387.51L1004.87 442.51L957.23 470.01L909.6 442.51L909.6 387.51zM909.6 442.51L957.23 470.01L957.23 525.01L909.6 552.51L861.97 525.01L861.97 470.01zM957.23 525.01L1004.87 552.51L1004.87 607.51L957.23 635.01L909.6 607.51L909.6 552.51zM909.6 607.51L957.23 635.01L957.23 690.01L909.6 717.51L861.97 690.01L861.97 635.01zM909.6 772.51L957.23 800.01L957.23 855.01L909.6 882.51L861.97 855.01L861.97 800.01zM957.23 855.01L1004.87 882.51L1004.87 937.51L957.23 965.01L909.6 937.51L909.6 882.51zM909.6 937.51L957.23 965.01L957.23 1020.01L909.6 1047.51L861.97 1020.01L861.97 965.01zM957.23 1185.01L1004.87 1212.51L1004.87 1267.51L957.23 1295.01L909.6 1267.51L909.6 1212.51zM909.6 1267.51L957.23 1295.01L957.23 1350.01L909.6 1377.51L861.97 1350.01L861.97 1295.01zM957.23 1515.01L1004.87 1542.51L1004.87 1597.51L957.23 1625.01L909.6 1597.51L909.6 1542.51zM957.23 1680.01L1004.87 1707.51L1004.87 1762.51L957.23 1790.01L909.6 1762.51L909.6 1707.51zM909.6 1762.51L957.23 1790.01L957.23 1845.01L909.6 1872.51L861.97 1845.01L861.97 1790.01zM957.23 2010.01L1004.87 2037.51L1004.87 2092.51L957.23 2120.01L909.6 2092.51L909.6 2037.51zM909.6 2092.51L957.23 2120.01L957.23 2175.01L909.6 2202.51L861.97 2175.01L861.97 2120.01zM957.23 2505.01L1004.87 2532.51L1004.87 2587.51L957.23 2615.01L909.6 2587.51L909.6 2532.51zM1052.5 30.01L1100.13 57.51L1100.13 112.51L1052.5 140.01L1004.87 112.51L1004.87 57.51zM1052.5 195.01L1100.13 222.51L1100.13 277.51L1052.5 305.01L1004.87 277.51L1004.87 222.51zM1004.87 277.51L1052.5 305.01L1052.5 360.01L1004.87 387.51L957.23 360.01L957.23 305.01zM1052.5 525.01L1100.13 552.51L1100.13 607.51L1052.5 635.01L1004.87 607.51L1004.87 552.51zM1052.5 690.01L1100.13 717.51L1100.13 772.51L1052.5 800.01L1004.87 772.51L1004.87 717.51zM1052.5 1185.01L1100.13 1212.51L1100.13 1267.51L1052.5 1295.01L1004.87 1267.51L1004.87 1212.51zM1052.5 1350.01L1100.13 1377.51L1100.13 1432.51L1052.5 1460.01L1004.87 1432.51L1004.87 1377.51zM1004.87 1432.51L1052.5 1460.01L1052.5 1515.01L1004.87 1542.51L957.23 1515.01L957.23 1460.01zM1052.5 1515.01L1100.13 1542.51L1100.13 1597.51L1052.5 1625.01L1004.87 1597.51L1004.87 1542.51zM1052.5 1680.01L1100.13 1707.51L1100.13 1762.51L1052.5 1790.01L1004.87 1762.51L1004.87 1707.51zM1004.87 1762.51L1052.5 1790.01L1052.5 1845.01L1004.87 1872.51L957.23 1845.01L957.23 1790.01zM1052.5 2010.01L1100.13 2037.51L1100.13 2092.51L1052.5 2120.01L1004.87 2092.51L1004.87 2037.51zM1004.87 2092.51L1052.5 2120.01L1052.5 2175.01L1004.87 2202.51L957.23 2175.01L957.23 2120.01zM1052.5 2340.01L1100.13 2367.51L1100.13 2422.51L1052.5 2450.01L1004.87 2422.51L1004.87 2367.51zM1004.87 2422.51L1052.5 2450.01L1052.5 2505.01L1004.87 2532.51L957.23 2505.01L957.23 2450.01zM1052.5 2505.01L1100.13 2532.51L1100.13 2587.51L1052.5 2615.01L1004.87 2587.51L1004.87 2532.51zM1100.13 -52.49L1147.76 -24.99L1147.76 30.01L1100.13 57.51L1052.5 30.01L1052.5 -24.99zM1100.13 277.51L1147.76 305.01L1147.76 360.01L1100.13 387.51L1052.5 360.01L1052.5 305.01zM1100.13 937.51L1147.76 965.01L1147.76 1020.01L1100.13 1047.51L1052.5 1020.01L1052.5 965.01zM1100.13 1102.51L1147.76 1130.01L1147.76 1185.01L1100.13 1212.51L1052.5 1185.01L1052.5 1130.01zM1100.13 1267.51L1147.76 1295.01L1147.76 1350.01L1100.13 1377.51L1052.5 1350.01L1052.5 1295.01zM1147.76 1680.01L1195.4 1707.51L1195.4 1762.51L1147.76 1790.01L1100.13 1762.51L1100.13 1707.51zM1100.13 1762.51L1147.76 1790.01L1147.76 1845.01L1100.13 1872.51L1052.5 1845.01L1052.5 1790.01zM1100.13 1927.51L1147.76 1955.01L1147.76 2010.01L1100.13 2037.51L1052.5 2010.01L1052.5 1955.01zM1147.76 2010.01L1195.4 2037.51L1195.4 2092.51L1147.76 2120.01L1100.13 2092.51L1100.13 2037.51zM1100.13 2092.51L1147.76 2120.01L1147.76 2175.01L1100.13 2202.51L1052.5 2175.01L1052.5 2120.01zM1100.13 2257.51L1147.76 2285.01L1147.76 2340.01L1100.13 2367.51L1052.5 2340.01L1052.5 2285.01zM1100.13 2422.51L1147.76 2450.01L1147.76 2505.01L1100.13 2532.51L1052.5 2505.01L1052.5 2450.01zM1147.76 2505.01L1195.4 2532.51L1195.4 2587.51L1147.76 2615.01L1100.13 2587.51L1100.13 2532.51zM1195.4 112.51L1243.03 140.01L1243.03 195.01L1195.4 222.51L1147.76 195.01L1147.76 140.01zM1243.03 195.01L1290.66 222.51L1290.66 277.51L1243.03 305.01L1195.4 277.51L1195.4 222.51zM1195.4 277.51L1243.03 305.01L1243.03 360.01L1195.4 387.51L1147.76 360.01L1147.76 305.01zM1243.03 360.01L1290.66 387.51L1290.66 442.51L1243.03 470.01L1195.4 442.51L1195.4 387.51zM1195.4 442.51L1243.03 470.01L1243.03 525.01L1195.4 552.51L1147.76 525.01L1147.76 470.01zM1243.03 525.01L1290.66 552.51L1290.66 607.51L1243.03 635.01L1195.4 607.51L1195.4 552.51zM1195.4 772.51L1243.03 800.01L1243.03 855.01L1195.4 882.51L1147.76 855.01L1147.76 800.01zM1195.4 937.51L1243.03 965.01L1243.03 1020.01L1195.4 1047.51L1147.76 1020.01L1147.76 965.01zM1243.03 1020.01L1290.66 1047.51L1290.66 1102.51L1243.03 1130.01L1195.4 1102.51L1195.4 1047.51zM1195.4 1102.51L1243.03 1130.01L1243.03 1185.01L1195.4 1212.51L1147.76 1185.01L1147.76 1130.01zM1243.03 1350.01L1290.66 1377.51L1290.66 1432.51L1243.03 1460.01L1195.4 1432.51L1195.4 1377.51zM1195.4 1432.51L1243.03 1460.01L1243.03 1515.01L1195.4 1542.51L1147.76 1515.01L1147.76 1460.01zM1243.03 1515.01L1290.66 1542.51L1290.66 1597.51L1243.03 1625.01L1195.4 1597.51L1195.4 1542.51zM1243.03 1680.01L1290.66 1707.51L1290.66 1762.51L1243.03 1790.01L1195.4 1762.51L1195.4 1707.51zM1195.4 1762.51L1243.03 1790.01L1243.03 1845.01L1195.4 1872.51L1147.76 1845.01L1147.76 1790.01zM1195.4 2257.51L1243.03 2285.01L1243.03 2340.01L1195.4 2367.51L1147.76 2340.01L1147.76 2285.01zM1243.03 2340.01L1290.66 2367.51L1290.66 2422.51L1243.03 2450.01L1195.4 2422.51L1195.4 2367.51zM1195.4 2422.51L1243.03 2450.01L1243.03 2505.01L1195.4 2532.51L1147.76 2505.01L1147.76 2450.01zM1243.03 2505.01L1290.66 2532.51L1290.66 2587.51L1243.03 2615.01L1195.4 2587.51L1195.4 2532.51zM1338.29 30.01L1385.93 57.51L1385.93 112.51L1338.29 140.01L1290.66 112.51L1290.66 57.51zM1290.66 112.51L1338.29 140.01L1338.29 195.01L1290.66 222.51L1243.03 195.01L1243.03 140.01zM1338.29 195.01L1385.93 222.51L1385.93 277.51L1338.29 305.01L1290.66 277.51L1290.66 222.51zM1338.29 360.01L1385.93 387.51L1385.93 442.51L1338.29 470.01L1290.66 442.51L1290.66 387.51zM1338.29 525.01L1385.93 552.51L1385.93 607.51L1338.29 635.01L1290.66 607.51L1290.66 552.51zM1338.29 690.01L1385.93 717.51L1385.93 772.51L1338.29 800.01L1290.66 772.51L1290.66 717.51zM1290.66 772.51L1338.29 800.01L1338.29 855.01L1290.66 882.51L1243.03 855.01L1243.03 800.01zM1338.29 855.01L1385.93 882.51L1385.93 937.51L1338.29 965.01L1290.66 937.51L1290.66 882.51zM1290.66 937.51L1338.29 965.01L1338.29 1020.01L1290.66 1047.51L1243.03 1020.01L1243.03 965.01zM1290.66 1102.51L1338.29 1130.01L1338.29 1185.01L1290.66 1212.51L1243.03 1185.01L1243.03 1130.01zM1290.66 1597.51L1338.29 1625.01L1338.29 1680.01L1290.66 1707.51L1243.03 1680.01L1243.03 1625.01zM1338.29 1680.01L1385.93 1707.51L1385.93 1762.51L1338.29 1790.01L1290.66 1762.51L1290.66 1707.51zM1290.66 1927.51L1338.29 1955.01L1338.29 2010.01L1290.66 2037.51L1243.03 2010.01L1243.03 1955.01zM1338.29 2175.01L1385.93 2202.51L1385.93 2257.51L1338.29 2285.01L1290.66 2257.51L1290.66 2202.51zM1290.66 2422.51L1338.29 2450.01L1338.29 2505.01L1290.66 2532.51L1243.03 2505.01L1243.03 2450.01zM1385.93 -52.49L1433.56 -24.99L1433.56 30.01L1385.93 57.51L1338.29 30.01L1338.29 -24.99zM1385.93 112.51L1433.56 140.01L1433.56 195.01L1385.93 222.51L1338.29 195.01L1338.29 140.01zM1385.93 277.51L1433.56 305.01L1433.56 360.01L1385.93 387.51L1338.29 360.01L1338.29 305.01zM1433.56 360.01L1481.19 387.51L1481.19 442.51L1433.56 470.01L1385.93 442.51L1385.93 387.51zM1433.56 690.01L1481.19 717.51L1481.19 772.51L1433.56 800.01L1385.93 772.51L1385.93 717.51zM1385.93 772.51L1433.56 800.01L1433.56 855.01L1385.93 882.51L1338.29 855.01L1338.29 800.01zM1433.56 855.01L1481.19 882.51L1481.19 937.51L1433.56 965.01L1385.93 937.51L1385.93 882.51zM1433.56 1020.01L1481.19 1047.51L1481.19 1102.51L1433.56 1130.01L1385.93 1102.51L1385.93 1047.51zM1385.93 1267.51L1433.56 1295.01L1433.56 1350.01L1385.93 1377.51L1338.29 1350.01L1338.29 1295.01zM1385.93 1432.51L1433.56 1460.01L1433.56 1515.01L1385.93 1542.51L1338.29 1515.01L1338.29 1460.01zM1433.56 1680.01L1481.19 1707.51L1481.19 1762.51L1433.56 1790.01L1385.93 1762.51L1385.93 1707.51zM1385.93 2092.51L1433.56 2120.01L1433.56 2175.01L1385.93 2202.51L1338.29 2175.01L1338.29 2120.01zM1433.56 2175.01L1481.19 2202.51L1481.19 2257.51L1433.56 2285.01L1385.93 2257.51L1385.93 2202.51zM1385.93 2257.51L1433.56 2285.01L1433.56 2340.01L1385.93 2367.51L1338.29 2340.01L1338.29 2285.01zM1433.56 2340.01L1481.19 2367.51L1481.19 2422.51L1433.56 2450.01L1385.93 2422.51L1385.93 2367.51zM1481.19 112.51L1528.83 140.01L1528.83 195.01L1481.19 222.51L1433.56 195.01L1433.56 140.01zM1481.19 277.51L1528.83 305.01L1528.83 360.01L1481.19 387.51L1433.56 360.01L1433.56 305.01zM1481.19 442.51L1528.83 470.01L1528.83 525.01L1481.19 552.51L1433.56 525.01L1433.56 470.01zM1528.83 525.01L1576.46 552.51L1576.46 607.51L1528.83 635.01L1481.19 607.51L1481.19 552.51zM1528.83 855.01L1576.46 882.51L1576.46 937.51L1528.83 965.01L1481.19 937.51L1481.19 882.51zM1528.83 1020.01L1576.46 1047.51L1576.46 1102.51L1528.83 1130.01L1481.19 1102.51L1481.19 1047.51zM1528.83 1185.01L1576.46 1212.51L1576.46 1267.51L1528.83 1295.01L1481.19 1267.51L1481.19 1212.51zM1481.19 1597.51L1528.83 1625.01L1528.83 1680.01L1481.19 1707.51L1433.56 1680.01L1433.56 1625.01zM1528.83 1845.01L1576.46 1872.51L1576.46 1927.51L1528.83 1955.01L1481.19 1927.51L1481.19 1872.51zM1481.19 1927.51L1528.83 1955.01L1528.83 2010.01L1481.19 2037.51L1433.56 2010.01L1433.56 1955.01zM1528.83 2175.01L1576.46 2202.51L1576.46 2257.51L1528.83 2285.01L1481.19 2257.51L1481.19 2202.51zM1481.19 2257.51L1528.83 2285.01L1528.83 2340.01L1481.19 2367.51L1433.56 2340.01L1433.56 2285.01zM1481.19 2422.51L1528.83 2450.01L1528.83 2505.01L1481.19 2532.51L1433.56 2505.01L1433.56 2450.01z" stroke="rgba(131, 200, 194, 0.86)" stroke-width="2"></path></g><defs><mask id="SvgjsMask1051"><rect width="1440" height="2580" fill="#ffffff"></rect></mask></defs></svg>