<svg xmlns="http://www.w3.org/2000/svg" version="1.1" xmlns:xlink="http://www.w3.org/1999/xlink" xmlns:svgjs="http://svgjs.dev/svgjs" width="1440" height="2580" preserveAspectRatio="none" viewBox="0 0 1440 2580"><g mask="url(&quot;#SvgjsMask1194&quot;)" fill="none"><rect width="1440" height="2580" x="0" y="0" fill="rgba(0, 255, 248, 0.86)"></rect><use xlink:href="#SvgjsSymbol1201" x="0" y="0"></use><use xlink:href="#SvgjsSymbol1201" x="0" y="720"></use><use xlink:href="#SvgjsSymbol1201" x="0" y="1440"></use><use xlink:href="#SvgjsSymbol1201" x="0" y="2160"></use><use xlink:href="#SvgjsSymbol1201" x="720" y="0"></use><use xlink:href="#SvgjsSymbol1201" x="720" y="720"></use><use xlink:href="#SvgjsSymbol1201" x="720" y="1440"></use><use xlink:href="#SvgjsSymbol1201" x="720" y="2160"></use></g><defs><mask id="SvgjsMask1194"><rect width="1440" height="2580" fill="#ffffff"></rect></mask><path d="M-1 0 a1 1 0 1 0 2 0 a1 1 0 1 0 -2 0z" id="SvgjsPath1198"></path><path d="M-3 0 a3 3 0 1 0 6 0 a3 3 0 1 0 -6 0z" id="SvgjsPath1199"></path><path d="M-5 0 a5 5 0 1 0 10 0 a5 5 0 1 0 -10 0z" id="SvgjsPath1196"></path><path d="M2 -2 L-2 2z" id="SvgjsPath1200"></path><path d="M6 -6 L-6 6z" id="SvgjsPath1195"></path><path d="M30 -30 L-30 30z" id="SvgjsPath1197"></path></defs><symbol id="SvgjsSymbol1201"><use xlink:href="#SvgjsPath1195" x="30" y="30" stroke="rgba(176, 190, 205, 0.91)"></use><use xlink:href="#SvgjsPath1196" x="30" y="90" stroke="rgba(176, 190, 205, 0.91)"></use><use xlink:href="#SvgjsPath1197" x="30" y="150" stroke="rgba(176, 190, 205, 0.91)" stroke-width="3"></use><use xlink:href="#SvgjsPath1196" x="30" y="210" stroke="rgba(176, 190, 205, 0.91)"></use><use xlink:href="#SvgjsPath1196" x="30" y="270" stroke="rgba(176, 190, 205, 0.91)"></use><use xlink:href="#SvgjsPath1195" x="30" y="330" stroke="rgba(176, 190, 205, 0.91)"></use><use xlink:href="#SvgjsPath1198" x="30" y="390" stroke="rgba(176, 190, 205, 0.91)"></use><use xlink:href="#SvgjsPath1199" x="30" y="450" stroke="rgba(176, 190, 205, 0.91)"></use><use xlink:href="#SvgjsPath1195" x="30" y="510" stroke="rgba(176, 190, 205, 0.91)"></use><use xlink:href="#SvgjsPath1196" x="30" y="570" stroke="rgba(176, 190, 205, 0.91)"></use><use xlink:href="#SvgjsPath1199" x="30" y="630" stroke="rgba(176, 190, 205, 0.91)"></use><use xlink:href="#SvgjsPath1199" x="30" y="690" stroke="rgba(176, 190, 205, 0.91)"></use><use xlink:href="#SvgjsPath1195" x="90" y="30" stroke="rgba(176, 190, 205, 0.91)"></use><use xlink:href="#SvgjsPath1198" x="90" y="90" stroke="rgba(176, 190, 205, 0.91)"></use><use xlink:href="#SvgjsPath1195" x="90" y="150" stroke="rgba(176, 190, 205, 0.91)"></use><use xlink:href="#SvgjsPath1195" x="90" y="210" stroke="rgba(176, 190, 205, 0.91)"></use><use xlink:href="#SvgjsPath1195" x="90" y="270" stroke="rgba(176, 190, 205, 0.91)"></use><use xlink:href="#SvgjsPath1196" x="90" y="330" stroke="rgba(176, 190, 205, 0.91)"></use><use xlink:href="#SvgjsPath1199" x="90" y="390" stroke="rgba(176, 190, 205, 0.91)"></use><use xlink:href="#SvgjsPath1195" x="90" y="450" stroke="rgba(176, 190, 205, 0.91)"></use><use xlink:href="#SvgjsPath1196" x="90" y="510" stroke="rgba(176, 190, 205, 0.91)"></use><use xlink:href="#SvgjsPath1199" x="90" y="570" stroke="rgba(176, 190, 205, 0.91)"></use><use xlink:href="#SvgjsPath1200" x="90" y="630" stroke="rgba(176, 190, 205, 0.91)"></use><use xlink:href="#SvgjsPath1196" x="90" y="690" stroke="rgba(176, 190, 205, 0.91)"></use><use xlink:href="#SvgjsPath1196" x="150" y="30" stroke="rgba(176, 190, 205, 0.91)"></use><use xlink:href="#SvgjsPath1195" x="150" y="90" stroke="rgba(176, 190, 205, 0.91)"></use><use xlink:href="#SvgjsPath1198" x="150" y="150" stroke="rgba(176, 190, 205, 0.91)"></use><use xlink:href="#SvgjsPath1198" x="150" y="210" stroke="rgba(176, 190, 205, 0.91)"></use><use xlink:href="#SvgjsPath1196" x="150" y="270" stroke="rgba(176, 190, 205, 0.91)"></use><use xlink:href="#SvgjsPath1200" x="150" y="330" stroke="rgba(176, 190, 205, 0.91)"></use><use xlink:href="#SvgjsPath1195" x="150" y="390" stroke="rgba(176, 190, 205, 0.91)"></use><use xlink:href="#SvgjsPath1196" x="150" y="450" stroke="rgba(176, 190, 205, 0.91)"></use><use xlink:href="#SvgjsPath1196" x="150" y="510" stroke="rgba(176, 190, 205, 0.91)"></use><use xlink:href="#SvgjsPath1198" x="150" y="570" stroke="rgba(176, 190, 205, 0.91)"></use><use xlink:href="#SvgjsPath1196" x="150" y="630" stroke="rgba(176, 190, 205, 0.91)"></use><use xlink:href="#SvgjsPath1200" x="150" y="690" stroke="rgba(176, 190, 205, 0.91)"></use><use xlink:href="#SvgjsPath1197" x="210" y="30" stroke="rgba(176, 190, 205, 0.91)" stroke-width="3"></use><use xlink:href="#SvgjsPath1196" x="210" y="90" stroke="rgba(176, 190, 205, 0.91)"></use><use xlink:href="#SvgjsPath1195" x="210" y="150" stroke="rgba(176, 190, 205, 0.91)"></use><use xlink:href="#SvgjsPath1196" x="210" y="210" stroke="rgba(176, 190, 205, 0.91)"></use><use xlink:href="#SvgjsPath1196" x="210" y="270" stroke="rgba(176, 190, 205, 0.91)"></use><use xlink:href="#SvgjsPath1200" x="210" y="330" stroke="rgba(176, 190, 205, 0.91)"></use><use xlink:href="#SvgjsPath1196" x="210" y="390" stroke="rgba(176, 190, 205, 0.91)"></use><use xlink:href="#SvgjsPath1196" x="210" y="450" stroke="rgba(176, 190, 205, 0.91)"></use><use xlink:href="#SvgjsPath1196" x="210" y="510" stroke="rgba(176, 190, 205, 0.91)"></use><use xlink:href="#SvgjsPath1195" x="210" y="570" stroke="rgba(176, 190, 205, 0.91)"></use><use xlink:href="#SvgjsPath1199" x="210" y="630" stroke="rgba(176, 190, 205, 0.91)"></use><use xlink:href="#SvgjsPath1200" x="210" y="690" stroke="rgba(176, 190, 205, 0.91)"></use><use xlink:href="#SvgjsPath1200" x="270" y="30" stroke="rgba(176, 190, 205, 0.91)"></use><use xlink:href="#SvgjsPath1195" x="270" y="90" stroke="rgba(176, 190, 205, 0.91)"></use><use xlink:href="#SvgjsPath1196" x="270" y="150" stroke="rgba(176, 190, 205, 0.91)"></use><use xlink:href="#SvgjsPath1198" x="270" y="210" stroke="rgba(176, 190, 205, 0.91)"></use><use xlink:href="#SvgjsPath1199" x="270" y="270" stroke="rgba(176, 190, 205, 0.91)"></use><use xlink:href="#SvgjsPath1196" x="270" y="330" stroke="rgba(176, 190, 205, 0.91)"></use><use xlink:href="#SvgjsPath1196" x="270" y="390" stroke="rgba(176, 190, 205, 0.91)"></use><use xlink:href="#SvgjsPath1197" x="270" y="450" stroke="rgba(176, 190, 205, 0.91)" stroke-width="3"></use><use xlink:href="#SvgjsPath1200" x="270" y="510" stroke="rgba(176, 190, 205, 0.91)"></use><use xlink:href="#SvgjsPath1196" x="270" y="570" stroke="rgba(176, 190, 205, 0.91)"></use><use xlink:href="#SvgjsPath1196" x="270" y="630" stroke="rgba(176, 190, 205, 0.91)"></use><use xlink:href="#SvgjsPath1195" x="270" y="690" stroke="rgba(176, 190, 205, 0.91)"></use><use xlink:href="#SvgjsPath1196" x="330" y="30" stroke="rgba(176, 190, 205, 0.91)"></use><use xlink:href="#SvgjsPath1196" x="330" y="90" stroke="rgba(176, 190, 205, 0.91)"></use><use xlink:href="#SvgjsPath1197" x="330" y="150" stroke="rgba(176, 190, 205, 0.91)" stroke-width="3"></use><use xlink:href="#SvgjsPath1195" x="330" y="210" stroke="rgba(176, 190, 205, 0.91)"></use><use xlink:href="#SvgjsPath1195" x="330" y="270" stroke="rgba(176, 190, 205, 0.91)"></use><use xlink:href="#SvgjsPath1198" x="330" y="330" stroke="rgba(176, 190, 205, 0.91)"></use><use xlink:href="#SvgjsPath1195" x="330" y="390" stroke="rgba(176, 190, 205, 0.91)"></use><use xlink:href="#SvgjsPath1195" x="330" y="450" stroke="rgba(176, 190, 205, 0.91)"></use><use xlink:href="#SvgjsPath1196" x="330" y="510" stroke="rgba(176, 190, 205, 0.91)"></use><use xlink:href="#SvgjsPath1196" x="330" y="570" stroke="rgba(176, 190, 205, 0.91)"></use><use xlink:href="#SvgjsPath1195" x="330" y="630" stroke="rgba(176, 190, 205, 0.91)"></use><use xlink:href="#SvgjsPath1199" x="330" y="690" stroke="rgba(176, 190, 205, 0.91)"></use><use xlink:href="#SvgjsPath1196" x="390" y="30" stroke="rgba(176, 190, 205, 0.91)"></use><use xlink:href="#SvgjsPath1195" x="390" y="90" stroke="rgba(176, 190, 205, 0.91)"></use><use xlink:href="#SvgjsPath1198" x="390" y="150" stroke="rgba(176, 190, 205, 0.91)"></use><use xlink:href="#SvgjsPath1195" x="390" y="210" stroke="rgba(176, 190, 205, 0.91)"></use><use xlink:href="#SvgjsPath1195" x="390" y="270" stroke="rgba(176, 190, 205, 0.91)"></use><use xlink:href="#SvgjsPath1198" x="390" y="330" stroke="rgba(176, 190, 205, 0.91)"></use><use xlink:href="#SvgjsPath1200" x="390" y="390" stroke="rgba(176, 190, 205, 0.91)"></use><use xlink:href="#SvgjsPath1195" x="390" y="450" stroke="rgba(176, 190, 205, 0.91)"></use><use xlink:href="#SvgjsPath1196" x="390" y="510" stroke="rgba(176, 190, 205, 0.91)"></use><use xlink:href="#SvgjsPath1196" x="390" y="570" stroke="rgba(176, 190, 205, 0.91)"></use><use xlink:href="#SvgjsPath1196" x="390" y="630" stroke="rgba(176, 190, 205, 0.91)"></use><use xlink:href="#SvgjsPath1199" x="390" y="690" stroke="rgba(176, 190, 205, 0.91)"></use><use xlink:href="#SvgjsPath1195" x="450" y="30" stroke="rgba(176, 190, 205, 0.91)"></use><use xlink:href="#SvgjsPath1195" x="450" y="90" stroke="rgba(176, 190, 205, 0.91)"></use><use xlink:href="#SvgjsPath1200" x="450" y="150" stroke="rgba(176, 190, 205, 0.91)"></use><use xlink:href="#SvgjsPath1196" x="450" y="210" stroke="rgba(176, 190, 205, 0.91)"></use><use xlink:href="#SvgjsPath1200" x="450" y="270" stroke="rgba(176, 190, 205, 0.91)"></use><use xlink:href="#SvgjsPath1195" x="450" y="330" stroke="rgba(176, 190, 205, 0.91)"></use><use xlink:href="#SvgjsPath1196" x="450" y="390" stroke="rgba(176, 190, 205, 0.91)"></use><use xlink:href="#SvgjsPath1199" x="450" y="450" stroke="rgba(176, 190, 205, 0.91)"></use><use xlink:href="#SvgjsPath1200" x="450" y="510" stroke="rgba(176, 190, 205, 0.91)"></use><use xlink:href="#SvgjsPath1195" x="450" y="570" stroke="rgba(176, 190, 205, 0.91)"></use><use xlink:href="#SvgjsPath1199" x="450" y="630" stroke="rgba(176, 190, 205, 0.91)"></use><use xlink:href="#SvgjsPath1195" x="450" y="690" stroke="rgba(176, 190, 205, 0.91)"></use><use xlink:href="#SvgjsPath1196" x="510" y="30" stroke="rgba(176, 190, 205, 0.91)"></use><use xlink:href="#SvgjsPath1199" x="510" y="90" stroke="rgba(176, 190, 205, 0.91)"></use><use xlink:href="#SvgjsPath1200" x="510" y="150" stroke="rgba(176, 190, 205, 0.91)"></use><use xlink:href="#SvgjsPath1197" x="510" y="210" stroke="rgba(176, 190, 205, 0.91)" stroke-width="3"></use><use xlink:href="#SvgjsPath1196" x="510" y="270" stroke="rgba(176, 190, 205, 0.91)"></use><use xlink:href="#SvgjsPath1198" x="510" y="330" stroke="rgba(176, 190, 205, 0.91)"></use><use xlink:href="#SvgjsPath1196" x="510" y="390" stroke="rgba(176, 190, 205, 0.91)"></use><use xlink:href="#SvgjsPath1196" x="510" y="450" stroke="rgba(176, 190, 205, 0.91)"></use><use xlink:href="#SvgjsPath1196" x="510" y="510" stroke="rgba(176, 190, 205, 0.91)"></use><use xlink:href="#SvgjsPath1195" x="510" y="570" stroke="rgba(176, 190, 205, 0.91)"></use><use xlink:href="#SvgjsPath1199" x="510" y="630" stroke="rgba(176, 190, 205, 0.91)"></use><use xlink:href="#SvgjsPath1196" x="510" y="690" stroke="rgba(176, 190, 205, 0.91)"></use><use xlink:href="#SvgjsPath1195" x="570" y="30" stroke="rgba(176, 190, 205, 0.91)"></use><use xlink:href="#SvgjsPath1196" x="570" y="90" stroke="rgba(176, 190, 205, 0.91)"></use><use xlink:href="#SvgjsPath1195" x="570" y="150" stroke="rgba(176, 190, 205, 0.91)"></use><use xlink:href="#SvgjsPath1199" x="570" y="210" stroke="rgba(176, 190, 205, 0.91)"></use><use xlink:href="#SvgjsPath1196" x="570" y="270" stroke="rgba(176, 190, 205, 0.91)"></use><use xlink:href="#SvgjsPath1200" x="570" y="330" stroke="rgba(176, 190, 205, 0.91)"></use><use xlink:href="#SvgjsPath1195" x="570" y="390" stroke="rgba(176, 190, 205, 0.91)"></use><use xlink:href="#SvgjsPath1200" x="570" y="450" stroke="rgba(176, 190, 205, 0.91)"></use><use xlink:href="#SvgjsPath1200" x="570" y="510" stroke="rgba(176, 190, 205, 0.91)"></use><use xlink:href="#SvgjsPath1196" x="570" y="570" stroke="rgba(176, 190, 205, 0.91)"></use><use xlink:href="#SvgjsPath1195" x="570" y="630" stroke="rgba(176, 190, 205, 0.91)"></use><use xlink:href="#SvgjsPath1195" x="570" y="690" stroke="rgba(176, 190, 205, 0.91)"></use><use xlink:href="#SvgjsPath1198" x="630" y="30" stroke="rgba(176, 190, 205, 0.91)"></use><use xlink:href="#SvgjsPath1195" x="630" y="90" stroke="rgba(176, 190, 205, 0.91)"></use><use xlink:href="#SvgjsPath1199" x="630" y="150" stroke="rgba(176, 190, 205, 0.91)"></use><use xlink:href="#SvgjsPath1195" x="630" y="210" stroke="rgba(176, 190, 205, 0.91)"></use><use xlink:href="#SvgjsPath1200" x="630" y="270" stroke="rgba(176, 190, 205, 0.91)"></use><use xlink:href="#SvgjsPath1196" x="630" y="330" stroke="rgba(176, 190, 205, 0.91)"></use><use xlink:href="#SvgjsPath1198" x="630" y="390" stroke="rgba(176, 190, 205, 0.91)"></use><use xlink:href="#SvgjsPath1195" x="630" y="450" stroke="rgba(176, 190, 205, 0.91)"></use><use xlink:href="#SvgjsPath1198" x="630" y="510" stroke="rgba(176, 190, 205, 0.91)"></use><use xlink:href="#SvgjsPath1195" x="630" y="570" stroke="rgba(176, 190, 205, 0.91)"></use><use xlink:href="#SvgjsPath1196" x="630" y="630" stroke="rgba(176, 190, 205, 0.91)"></use><use xlink:href="#SvgjsPath1195" x="630" y="690" stroke="rgba(176, 190, 205, 0.91)"></use><use xlink:href="#SvgjsPath1198" x="690" y="30" stroke="rgba(176, 190, 205, 0.91)"></use><use xlink:href="#SvgjsPath1196" x="690" y="90" stroke="rgba(176, 190, 205, 0.91)"></use><use xlink:href="#SvgjsPath1195" x="690" y="150" stroke="rgba(176, 190, 205, 0.91)"></use><use xlink:href="#SvgjsPath1195" x="690" y="210" stroke="rgba(176, 190, 205, 0.91)"></use><use xlink:href="#SvgjsPath1196" x="690" y="270" stroke="rgba(176, 190, 205, 0.91)"></use><use xlink:href="#SvgjsPath1196" x="690" y="330" stroke="rgba(176, 190, 205, 0.91)"></use><use xlink:href="#SvgjsPath1195" x="690" y="390" stroke="rgba(176, 190, 205, 0.91)"></use><use xlink:href="#SvgjsPath1196" x="690" y="450" stroke="rgba(176, 190, 205, 0.91)"></use><use xlink:href="#SvgjsPath1197" x="690" y="510" stroke="rgba(176, 190, 205, 0.91)" stroke-width="3"></use><use xlink:href="#SvgjsPath1196" x="690" y="570" stroke="rgba(176, 190, 205, 0.91)"></use><use xlink:href="#SvgjsPath1196" x="690" y="630" stroke="rgba(176, 190, 205, 0.91)"></use><use xlink:href="#SvgjsPath1196" x="690" y="690" stroke="rgba(176, 190, 205, 0.91)"></use></symbol></svg>