<svg xmlns="http://www.w3.org/2000/svg" version="1.1" xmlns:xlink="http://www.w3.org/1999/xlink" xmlns:svgjs="http://svgjs.dev/svgjs" width="1440" height="2580" preserveAspectRatio="none" viewBox="0 0 1440 2580"><g mask="url(&quot;#SvgjsMask5552&quot;)" fill="none"><rect width="1440" height="2580" x="0" y="0" fill="rgba(59, 198, 202, 1)"></rect><rect width="279.6" height="279.6" clip-path="url(&quot;#SvgjsClipPath5553&quot;)" x="-33.56" y="1949.82" fill="url(&quot;#SvgjsPattern5554&quot;)" transform="rotate(351.44, 106.24, 2089.62)"></rect><rect width="513" height="513" clip-path="url(&quot;#SvgjsClipPath5555&quot;)" x="-170.87" y="2185.62" fill="url(&quot;#SvgjsPattern5556&quot;)" transform="rotate(49.35, 85.63, 2442.12)"></rect><rect width="732" height="732" clip-path="url(&quot;#SvgjsClipPath5557&quot;)" x="-128.43" y="-214.32" fill="url(&quot;#SvgjsPattern5558&quot;)" transform="rotate(274.55, 237.57, 151.68)"></rect><rect width="576" height="576" clip-path="url(&quot;#SvgjsClipPath5559&quot;)" x="472.61" y="122.87" fill="url(&quot;#SvgjsPattern5560&quot;)" transform="rotate(168.95, 760.61, 410.87)"></rect><rect width="849.6" height="849.6" clip-path="url(&quot;#SvgjsClipPath5561&quot;)" x="905.02" y="1020.97" fill="url(&quot;#SvgjsPattern5562&quot;)" transform="rotate(19.6, 1329.82, 1445.77)"></rect><path d="M1181.26 13.28a5.6 5.6 0 1 0 1.64 11.08 5.6 5.6 0 1 0-1.64-11.08zM1183.6 29.11a5.6 5.6 0 1 0 1.64 11.08 5.6 5.6 0 1 0-1.64-11.08zM1185.94 44.93a5.6 5.6 0 1 0 1.64 11.08 5.6 5.6 0 1 0-1.64-11.08zM1188.28 60.76a5.6 5.6 0 1 0 1.64 11.08 5.6 5.6 0 1 0-1.64-11.08zM1160.74-16.03a5.6 5.6 0 1 0 1.64 11.08 5.6 5.6 0 1 0-1.64-11.08zM1163.08-0.21a5.6 5.6 0 1 0 1.64 11.08 5.6 5.6 0 1 0-1.64-11.08zM1165.43 15.62a5.6 5.6 0 1 0 1.64 11.08 5.6 5.6 0 1 0-1.64-11.08zM1167.77 31.45a5.6 5.6 0 1 0 1.64 11.08 5.6 5.6 0 1 0-1.64-11.08z" fill="rgba(60, 187, 204, 1)"></path><path d="M195.31 2215.23L195.16 2228.04 182.63 2230.7 182.47 2243.5 169.95 2246.17 169.79 2258.97 157.27 2261.63" stroke="rgba(110, 154, 218, 1)" stroke-width="2.5"></path><rect width="480" height="480" clip-path="url(&quot;#SvgjsClipPath5563&quot;)" x="-22.91" y="737.63" fill="url(&quot;#SvgjsPattern5564&quot;)" transform="rotate(112.79, 217.09, 977.63)"></rect><circle r="120" cx="667.85" cy="521.93" fill="rgba(60, 187, 204, 1)"></circle></g><defs><mask id="SvgjsMask5552"><rect width="1440" height="2580" fill="#ffffff"></rect></mask><pattern x="0" y="0" width="13.98" height="13.98" patternUnits="userSpaceOnUse" id="SvgjsPattern5554"><path d="M6.99 1L6.99 12.98M1 6.99L12.98 6.99" stroke="rgba(110, 154, 218, 1)" fill="none" stroke-width="4.03"></path></pattern><clipPath id="SvgjsClipPath5553"><circle r="69.9" cx="106.24" cy="2089.62"></circle></clipPath><pattern x="0" y="0" width="10.26" height="10.26" patternUnits="userSpaceOnUse" id="SvgjsPattern5556"><path d="M5.13 1L5.13 9.26M1 5.13L9.26 5.13" stroke="rgba(181, 210, 216, 1)" fill="none" stroke-width="3.06"></path></pattern><clipPath id="SvgjsClipPath5555"><circle r="128.25" cx="85.63" cy="2442.12"></circle></clipPath><pattern x="0" y="0" width="6" height="6" patternUnits="userSpaceOnUse" id="SvgjsPattern5558"><path d="M3 1L3 5M1 3L5 3" stroke="rgba(60, 187, 204, 1)" fill="none" stroke-width="1"></path></pattern><clipPath id="SvgjsClipPath5557"><circle r="183" cx="237.57" cy="151.68"></circle></clipPath><pattern x="0" y="0" width="6" height="6" patternUnits="userSpaceOnUse" id="SvgjsPattern5560"><path d="M3 1L3 5M1 3L5 3" stroke="rgba(181, 210, 216, 1)" fill="none" stroke-width="1"></path></pattern><clipPath id="SvgjsClipPath5559"><circle r="144" cx="760.61" cy="410.87"></circle></clipPath><pattern x="0" y="0" width="849.6" height="7.2" patternUnits="userSpaceOnUse" id="SvgjsPattern5562"><rect width="849.6" height="3.6" x="0" y="0" fill="rgba(110, 154, 218, 1)"></rect><rect width="849.6" height="3.6" x="0" y="3.6" fill="rgba(0, 0, 0, 0)"></rect></pattern><clipPath id="SvgjsClipPath5561"><circle r="212.4" cx="1329.82" cy="1445.77"></circle></clipPath><pattern x="0" y="0" width="480" height="6" patternUnits="userSpaceOnUse" id="SvgjsPattern5564"><rect width="480" height="3" x="0" y="0" fill="rgba(181, 210, 216, 1)"></rect><rect width="480" height="3" x="0" y="3" fill="rgba(0, 0, 0, 0)"></rect></pattern><clipPath id="SvgjsClipPath5563"><circle r="120" cx="217.09" cy="977.63"></circle></clipPath></defs></svg>