<svg xmlns="http://www.w3.org/2000/svg" version="1.1" xmlns:xlink="http://www.w3.org/1999/xlink" xmlns:svgjs="http://svgjs.dev/svgjs" width="1440" height="2580" preserveAspectRatio="none" viewBox="0 0 1440 2580"><g mask="url(&quot;#SvgjsMask1268&quot;)" fill="none"><rect width="1440" height="2580" x="0" y="0" fill="rgba(188, 213, 218, 1)"></rect><rect width="132" height="132" clip-path="url(&quot;#SvgjsClipPath1269&quot;)" x="502.97" y="2409.53" fill="url(&quot;#SvgjsPattern1270&quot;)" transform="rotate(228.63, 568.97, 2475.53)"></rect><rect width="396" height="396" clip-path="url(&quot;#SvgjsClipPath1271&quot;)" x="220.02" y="1227.66" fill="url(&quot;#SvgjsPattern1272&quot;)" transform="rotate(45.5, 418.02, 1425.66)"></rect><rect width="858" height="858" clip-path="url(&quot;#SvgjsClipPath1273&quot;)" x="298.09" y="1587.84" fill="url(&quot;#SvgjsPattern1274&quot;)" transform="rotate(266.19, 727.09, 2016.84)"></rect><rect width="312" height="312" clip-path="url(&quot;#SvgjsClipPath1275&quot;)" x="1040.61" y="498.89" fill="url(&quot;#SvgjsPattern1276&quot;)" transform="rotate(279.8, 1196.61, 654.89)"></rect><circle r="120" cx="578.66" cy="1511.05" stroke="rgba(213, 219, 225, 1)" stroke-width="1"></circle><rect width="708" height="708" clip-path="url(&quot;#SvgjsClipPath1277&quot;)" x="65.65" y="-60.66" fill="url(&quot;#SvgjsPattern1278&quot;)" transform="rotate(333.58, 419.65, 293.34)"></rect><rect width="77.4" height="77.4" clip-path="url(&quot;#SvgjsClipPath1279&quot;)" x="1124.22" y="2309.25" fill="url(&quot;#SvgjsPattern1280&quot;)" transform="rotate(88.3, 1162.92, 2347.95)"></rect><path d="M1414.48 1761.49L1401.82 1759.56 1400.92 1746.79 1388.26 1744.86 1387.36 1732.09 1374.7 1730.16 1373.8 1717.39M1420.36 1756.06L1407.7 1754.14 1406.8 1741.36 1394.14 1739.44 1393.24 1726.66 1380.58 1724.74 1379.68 1711.96" stroke="rgba(211, 224, 226, 1)" stroke-width="1" stroke-dasharray="3, 2"></path><path d="M1274.6699999999998 1756.85 L1473.34 1757.05L1296.1212326151317 1834.833767384868z" stroke="rgba(211, 224, 226, 1)" stroke-width="1.53" stroke-dasharray="3, 2"></path></g><defs><mask id="SvgjsMask1268"><rect width="1440" height="2580" fill="#ffffff"></rect></mask><pattern x="0" y="0" width="132" height="6" patternUnits="userSpaceOnUse" id="SvgjsPattern1270"><rect width="132" height="3" x="0" y="0" fill="rgba(211, 224, 226, 1)"></rect><rect width="132" height="3" x="0" y="3" fill="rgba(0, 0, 0, 0)"></rect></pattern><clipPath id="SvgjsClipPath1269"><circle r="33" cx="568.97" cy="2475.53"></circle></clipPath><pattern x="0" y="0" width="6.6" height="6.6" patternUnits="userSpaceOnUse" id="SvgjsPattern1272"><path d="M0 6.6L3.3 0L6.6 6.6" stroke="rgba(211, 224, 226, 1)" fill="none"></path></pattern><clipPath id="SvgjsClipPath1271"><circle r="99" cx="418.02" cy="1425.66"></circle></clipPath><pattern x="0" y="0" width="6.6" height="6.6" patternUnits="userSpaceOnUse" id="SvgjsPattern1274"><path d="M0 6.6L3.3 0L6.6 6.6" stroke="rgba(213, 219, 225, 1)" fill="none"></path></pattern><clipPath id="SvgjsClipPath1273"><circle r="214.5" cx="727.09" cy="2016.84"></circle></clipPath><pattern x="0" y="0" width="6" height="6" patternUnits="userSpaceOnUse" id="SvgjsPattern1276"><path d="M3 1L3 5M1 3L5 3" stroke="rgba(175, 201, 206, 1)" fill="none" stroke-width="1.93"></path></pattern><clipPath id="SvgjsClipPath1275"><circle r="78" cx="1196.61" cy="654.89"></circle></clipPath><pattern x="0" y="0" width="708" height="6" patternUnits="userSpaceOnUse" id="SvgjsPattern1278"><rect width="708" height="3" x="0" y="0" fill="rgba(213, 219, 225, 1)"></rect><rect width="708" height="3" x="0" y="3" fill="rgba(0, 0, 0, 0)"></rect></pattern><clipPath id="SvgjsClipPath1277"><circle r="177" cx="419.65" cy="293.34"></circle></clipPath><pattern x="0" y="0" width="7.74" height="7.74" patternUnits="userSpaceOnUse" id="SvgjsPattern1280"><path d="M0 7.74L3.87 0L7.74 7.74" stroke="rgba(211, 224, 226, 1)" fill="none"></path></pattern><clipPath id="SvgjsClipPath1279"><circle r="19.35" cx="1162.92" cy="2347.95"></circle></clipPath></defs></svg>