<svg xmlns="http://www.w3.org/2000/svg" version="1.1" xmlns:xlink="http://www.w3.org/1999/xlink" xmlns:svgjs="http://svgjs.dev/svgjs" width="1440" height="2580" preserveAspectRatio="none" viewBox="0 0 1440 2580"><g mask="url(&quot;#SvgjsMask1018&quot;)" fill="none"><rect width="1440" height="2580" x="0" y="0" fill="rgba(189, 198, 208, 1)"></rect><path d="M65.34 2440.06L118.73 2440.06L118.73 2472.23L65.34 2472.23z" fill="rgba(3, 123, 11, 0.21)"></path><path d="M616.8 1240.4L667.94 1240.4L667.94 1291.54L616.8 1291.54z" fill="rgba(231, 54, 53, 0.22)"></path><path d="M1270.3 1385.8 a84.25 84.25 0 1 0 168.5 0 a84.25 84.25 0 1 0 -168.5 0z" fill="rgba(3, 123, 11, 0.21)"></path><path d="M368.59 1378.27L401.18 1378.27L401.18 1410.86L368.59 1410.86z" stroke="rgba(231, 54, 53, 0.22)"></path><path d="M401.75 431.17 a61.03 61.03 0 1 0 122.06 0 a61.03 61.03 0 1 0 -122.06 0z" stroke="rgba(231, 54, 53, 0.22)"></path><path d="M1203.16 1584.07a7.16 7.16 0 1 0 13.58 4.54z" fill="rgba(231, 54, 53, 0.22)"></path><path d="M912.04 889.32 a82.79 82.79 0 1 0 165.58 0 a82.79 82.79 0 1 0 -165.58 0z" fill="rgba(211, 183, 20, 0.2)"></path><path d="M619.69 325.24a21.15 21.15 0 1 0-30.03-29.79z" fill="rgba(211, 183, 20, 0.2)"></path><path d="M965.76 1422.37a11.58 11.58 0 1 0 19.3-12.8z" fill="rgba(231, 54, 53, 0.22)"></path><path d="M940.19 102.14L978.72 102.14L978.72 140.67L940.19 140.67z" fill="rgba(231, 54, 53, 0.22)"></path><path d="M153.37 1780.08 a121.16 121.16 0 1 0 242.32 0 a121.16 121.16 0 1 0 -242.32 0z" fill="rgba(211, 183, 20, 0.2)"></path><path d="M1134.8 1657.58 a68.01 68.01 0 1 0 136.02 0 a68.01 68.01 0 1 0 -136.02 0z" fill="rgba(3, 123, 11, 0.21)"></path><path d="M483.05 1637.41L543.95 1637.41L543.95 1691.4L483.05 1691.4z" fill="rgba(3, 123, 11, 0.21)"></path><path d="M987.82 982.43L1008.13 982.43L1008.13 1106.63L987.82 1106.63z" stroke="rgba(211, 183, 20, 0.2)"></path><path d="M512.06 326.57a99.51 99.51 0 1 0-197.43-25.09z" fill="rgba(211, 183, 20, 0.2)"></path><path d="M1068.35 925.27a66.81 66.81 0 1 0 133.32-9z" stroke="rgba(3, 123, 11, 0.21)"></path><path d="M553.9 522.19L565.64 522.19L565.64 533.93L553.9 533.93z" stroke="rgba(3, 123, 11, 0.21)"></path><path d="M449.43 1811.39L459.98 1811.39L459.98 1821.94L449.43 1821.94z" fill="rgba(211, 183, 20, 0.2)"></path><path d="M167.31 1305.99 a4.43 4.43 0 1 0 8.86 0 a4.43 4.43 0 1 0 -8.86 0z" fill="rgba(3, 123, 11, 0.21)"></path><path d="M1094.43 891.35L1177.79 891.35L1177.79 974.71L1094.43 974.71z" stroke="rgba(231, 54, 53, 0.22)"></path><path d="M575.95 1426.02L591.18 1426.02L591.18 1480.35L575.95 1480.35z" stroke="rgba(231, 54, 53, 0.22)"></path><path d="M310.17 55.81a46.67 46.67 0 1 0-4.84 93.22z" stroke="rgba(231, 54, 53, 0.22)"></path><path d="M872.66 268.32L872.99 268.32L872.99 268.65L872.66 268.65z" fill="rgba(231, 54, 53, 0.22)"></path></g><defs><mask id="SvgjsMask1018"><rect width="1440" height="2580" fill="#ffffff"></rect></mask></defs></svg>