<svg xmlns="http://www.w3.org/2000/svg" version="1.1" xmlns:xlink="http://www.w3.org/1999/xlink" xmlns:svgjs="http://svgjs.dev/svgjs" width="1440" height="2580" preserveAspectRatio="none" viewBox="0 0 1440 2580"><g mask="url(&quot;#SvgjsMask1049&quot;)" fill="none"><rect width="1440" height="2580" x="0" y="0" fill="rgba(29, 68, 107, 1)"></rect><path d="M322.78 1396.6499999999999 L564.02 1462.83L616.5323254818907 1256.607674518109z" stroke="rgba(13, 128, 144, 1)" stroke-width="1.29" stroke-dasharray="2, 2"></path><path d="M564.42 2469.23a5.6 5.6 0 1 0 8.66-7.11 5.6 5.6 0 1 0-8.66 7.11zM576.79 2459.07a5.6 5.6 0 1 0 8.65-7.1 5.6 5.6 0 1 0-8.65 7.1zM589.15 2448.92a5.6 5.6 0 1 0 8.66-7.11 5.6 5.6 0 1 0-8.66 7.11zM601.52 2438.77a5.6 5.6 0 1 0 8.65-7.11 5.6 5.6 0 1 0-8.65 7.11zM549.84 2501.9a5.6 5.6 0 1 0 8.66-7.11 5.6 5.6 0 1 0-8.66 7.11zM562.21 2491.75a5.6 5.6 0 1 0 8.66-7.11 5.6 5.6 0 1 0-8.66 7.11zM574.57 2481.59a5.6 5.6 0 1 0 8.66-7.1 5.6 5.6 0 1 0-8.66 7.1zM586.94 2471.44a5.6 5.6 0 1 0 8.66-7.11 5.6 5.6 0 1 0-8.66 7.11zM535.27 2534.57a5.6 5.6 0 1 0 8.65-7.11 5.6 5.6 0 1 0-8.65 7.11zM547.63 2524.42a5.6 5.6 0 1 0 8.66-7.11 5.6 5.6 0 1 0-8.66 7.11zM560 2514.27a5.6 5.6 0 1 0 8.65-7.11 5.6 5.6 0 1 0-8.65 7.11zM572.36 2504.11a5.6 5.6 0 1 0 8.66-7.11 5.6 5.6 0 1 0-8.66 7.11z" fill="rgba(33, 139, 156, 1)"></path><rect width="624" height="624" clip-path="url(&quot;#SvgjsClipPath1050&quot;)" x="-38.57" y="705.13" fill="url(&quot;#SvgjsPattern1051&quot;)" transform="rotate(87.61, 273.43, 1017.13)"></rect><rect width="444.64000000000004" height="444.64000000000004" clip-path="url(&quot;#SvgjsClipPath1052&quot;)" x="553.18" y="1615.47" fill="url(&quot;#SvgjsPattern1053&quot;)" transform="rotate(288.16, 775.5, 1837.79)"></rect><rect width="269.36" height="269.36" clip-path="url(&quot;#SvgjsClipPath1054&quot;)" x="507.15" y="1724.85" fill="url(&quot;#SvgjsPattern1055&quot;)" transform="rotate(277.58, 641.83, 1859.53)"></rect><path d="M788.18 852.59a5.6 5.6 0 1 0 11.12 1.32 5.6 5.6 0 1 0-11.12-1.32zM804.07 854.48a5.6 5.6 0 1 0 11.12 1.32 5.6 5.6 0 1 0-11.12-1.32zM819.96 856.37a5.6 5.6 0 1 0 11.12 1.32 5.6 5.6 0 1 0-11.12-1.32zM835.85 858.26a5.6 5.6 0 1 0 11.12 1.32 5.6 5.6 0 1 0-11.12-1.32zM754.52 864.7a5.6 5.6 0 1 0 11.12 1.32 5.6 5.6 0 1 0-11.12-1.32zM770.41 866.59a5.6 5.6 0 1 0 11.12 1.32 5.6 5.6 0 1 0-11.12-1.32zM786.29 868.48a5.6 5.6 0 1 0 11.13 1.32 5.6 5.6 0 1 0-11.13-1.32zM802.18 870.37a5.6 5.6 0 1 0 11.12 1.32 5.6 5.6 0 1 0-11.12-1.32z" stroke="rgba(13, 128, 144, 1)" stroke-width="2.62" stroke-dasharray="3, 3"></path><path d="M1058.34 2046.39a5.6 5.6 0 1 0-9.52 5.89 5.6 5.6 0 1 0 9.52-5.89zM1044.73 2054.81a5.6 5.6 0 1 0-9.52 5.89 5.6 5.6 0 1 0 9.52-5.89zM1031.13 2063.22a5.6 5.6 0 1 0-9.53 5.89 5.6 5.6 0 1 0 9.53-5.89zM1017.52 2071.64a5.6 5.6 0 1 0-9.53 5.89 5.6 5.6 0 1 0 9.53-5.89zM1077.14 2015.95a5.6 5.6 0 1 0-9.53 5.89 5.6 5.6 0 1 0 9.53-5.89zM1063.53 2024.36a5.6 5.6 0 1 0-9.52 5.9 5.6 5.6 0 1 0 9.52-5.9zM1049.92 2032.78a5.6 5.6 0 1 0-9.52 5.89 5.6 5.6 0 1 0 9.52-5.89zM1036.32 2041.2a5.6 5.6 0 1 0-9.53 5.89 5.6 5.6 0 1 0 9.53-5.89z" stroke="rgba(33, 139, 156, 1)" stroke-width="1.43" stroke-dasharray="3, 3"></path><rect width="477.28" height="477.28" clip-path="url(&quot;#SvgjsClipPath1056&quot;)" x="442.39" y="396.7" fill="url(&quot;#SvgjsPattern1057&quot;)" transform="rotate(211.23, 681.03, 635.34)"></rect><rect width="265.72" height="265.72" clip-path="url(&quot;#SvgjsClipPath1058&quot;)" x="1086.75" y="1020.13" fill="url(&quot;#SvgjsPattern1059&quot;)" transform="rotate(341.41, 1219.61, 1152.99)"></rect></g><defs><mask id="SvgjsMask1049"><rect width="1440" height="2580" fill="#ffffff"></rect></mask><pattern x="0" y="0" width="6" height="6" patternUnits="userSpaceOnUse" id="SvgjsPattern1051"><path d="M0 6L3 0L6 6" stroke="rgba(13, 128, 144, 1)" fill="none"></path></pattern><clipPath id="SvgjsClipPath1050"><circle r="156" cx="273.43" cy="1017.13"></circle></clipPath><pattern x="0" y="0" width="7.94" height="7.94" patternUnits="userSpaceOnUse" id="SvgjsPattern1053"><path d="M0 7.94L3.97 0L7.94 7.94" stroke="rgba(137, 148, 164, 1)" fill="none"></path></pattern><clipPath id="SvgjsClipPath1052"><circle r="111.16000000000001" cx="775.5" cy="1837.79"></circle></clipPath><pattern x="0" y="0" width="269.36" height="10.36" patternUnits="userSpaceOnUse" id="SvgjsPattern1055"><rect width="269.36" height="5.18" x="0" y="0" fill="rgba(33, 139, 156, 1)"></rect><rect width="269.36" height="5.18" x="0" y="5.18" fill="rgba(0, 0, 0, 0)"></rect></pattern><clipPath id="SvgjsClipPath1054"><circle r="67.34" cx="641.83" cy="1859.53"></circle></clipPath><pattern x="0" y="0" width="477.28" height="6.28" patternUnits="userSpaceOnUse" id="SvgjsPattern1057"><rect width="477.28" height="3.14" x="0" y="0" fill="rgba(33, 139, 156, 1)"></rect><rect width="477.28" height="3.14" x="0" y="3.14" fill="rgba(0, 0, 0, 0)"></rect></pattern><clipPath id="SvgjsClipPath1056"><circle r="119.32" cx="681.03" cy="635.34"></circle></clipPath><pattern x="0" y="0" width="10.22" height="10.22" patternUnits="userSpaceOnUse" id="SvgjsPattern1059"><path d="M0 10.22L5.11 0L10.22 10.22" stroke="rgba(33, 139, 156, 1)" fill="none"></path></pattern><clipPath id="SvgjsClipPath1058"><circle r="66.43" cx="1219.61" cy="1152.99"></circle></clipPath></defs></svg>