<svg xmlns="http://www.w3.org/2000/svg" version="1.1" xmlns:xlink="http://www.w3.org/1999/xlink" xmlns:svgjs="http://svgjs.dev/svgjs" width="1440" height="2580" preserveAspectRatio="none" viewBox="0 0 1440 2580"><g mask="url(&quot;#SvgjsMask1039&quot;)" fill="none"><rect width="1440" height="2580" x="0" y="0" fill="#0e2a47"></rect><path d="M0 -75L64.95 -37.5L64.95 37.5L0 75L-64.95 37.5L-64.95 -37.5zM64.95 37.5L129.91 75L129.91 150L64.95 187.5L0 150L0 75zM0 150L64.95 187.5L64.95 262.5L0 300L-64.95 262.5L-64.95 187.5zM64.95 262.5L129.91 300L129.91 375L64.95 412.5L0 375L0 300zM0 375L64.95 412.5L64.95 487.5L0 525L-64.95 487.5L-64.95 412.5zM64.95 487.5L129.91 525L129.91 600L64.95 637.5L0 600L0 525zM0 600L64.95 637.5L64.95 712.5L0 750L-64.95 712.5L-64.95 637.5zM64.95 712.5L129.91 750L129.91 825L64.95 862.5L0 825L0 750zM0 825L64.95 862.5L64.95 937.5L0 975L-64.95 937.5L-64.95 862.5zM64.95 937.5L129.91 975L129.91 1050L64.95 1087.5L0 1050L0 975zM0 1050L64.95 1087.5L64.95 1162.5L0 1200L-64.95 1162.5L-64.95 1087.5zM64.95 1162.5L129.91 1200L129.91 1275L64.95 1312.5L0 1275L0 1200zM0 1275L64.95 1312.5L64.95 1387.5L0 1425L-64.95 1387.5L-64.95 1312.5zM64.95 1387.5L129.91 1425L129.91 1500L64.95 1537.5L0 1500L0 1425zM0 1500L64.95 1537.5L64.95 1612.5L0 1650L-64.95 1612.5L-64.95 1537.5zM64.95 1612.5L129.91 1650L129.91 1725L64.95 1762.5L0 1725L0 1650zM0 1725L64.95 1762.5L64.95 1837.5L0 1875L-64.95 1837.5L-64.95 1762.5zM64.95 1837.5L129.91 1875L129.91 1950L64.95 1987.5L0 1950L0 1875zM0 1950L64.95 1987.5L64.95 2062.5L0 2100L-64.95 2062.5L-64.95 1987.5zM64.95 2062.5L129.91 2100L129.91 2175L64.95 2212.5L0 2175L0 2100zM0 2175L64.95 2212.5L64.95 2287.5L0 2325L-64.95 2287.5L-64.95 2212.5zM64.95 2287.5L129.91 2325L129.91 2400L64.95 2437.5L0 2400L0 2325zM0 2400L64.95 2437.5L64.95 2512.5L0 2550L-64.95 2512.5L-64.95 2437.5zM64.95 2512.5L129.91 2550L129.91 2625L64.95 2662.5L0 2625L0 2550zM129.91 -75L194.86 -37.5L194.86 37.5L129.91 75L64.95 37.5L64.95 -37.5zM194.86 37.5L259.81 75L259.81 150L194.86 187.5L129.91 150L129.91 75zM129.91 150L194.86 187.5L194.86 262.5L129.91 300L64.95 262.5L64.95 187.5zM194.86 262.5L259.81 300L259.81 375L194.86 412.5L129.91 375L129.91 300zM129.91 375L194.86 412.5L194.86 487.5L129.91 525L64.95 487.5L64.95 412.5zM194.86 487.5L259.81 525L259.81 600L194.86 637.5L129.91 600L129.91 525zM129.91 600L194.86 637.5L194.86 712.5L129.91 750L64.95 712.5L64.95 637.5zM194.86 712.5L259.81 750L259.81 825L194.86 862.5L129.91 825L129.91 750zM129.91 825L194.86 862.5L194.86 937.5L129.91 975L64.95 937.5L64.95 862.5zM194.86 937.5L259.81 975L259.81 1050L194.86 1087.5L129.91 1050L129.91 975zM129.91 1050L194.86 1087.5L194.86 1162.5L129.91 1200L64.95 1162.5L64.95 1087.5zM194.86 1162.5L259.81 1200L259.81 1275L194.86 1312.5L129.91 1275L129.91 1200zM129.91 1275L194.86 1312.5L194.86 1387.5L129.91 1425L64.95 1387.5L64.95 1312.5zM194.86 1387.5L259.81 1425L259.81 1500L194.86 1537.5L129.91 1500L129.91 1425zM129.91 1500L194.86 1537.5L194.86 1612.5L129.91 1650L64.95 1612.5L64.95 1537.5zM194.86 1612.5L259.81 1650L259.81 1725L194.86 1762.5L129.91 1725L129.91 1650zM129.91 1725L194.86 1762.5L194.86 1837.5L129.91 1875L64.95 1837.5L64.95 1762.5zM194.86 1837.5L259.81 1875L259.81 1950L194.86 1987.5L129.91 1950L129.91 1875zM129.91 1950L194.86 1987.5L194.86 2062.5L129.91 2100L64.95 2062.5L64.95 1987.5zM194.86 2062.5L259.81 2100L259.81 2175L194.86 2212.5L129.91 2175L129.91 2100zM129.91 2175L194.86 2212.5L194.86 2287.5L129.91 2325L64.95 2287.5L64.95 2212.5zM194.86 2287.5L259.81 2325L259.81 2400L194.86 2437.5L129.91 2400L129.91 2325zM129.91 2400L194.86 2437.5L194.86 2512.5L129.91 2550L64.95 2512.5L64.95 2437.5zM194.86 2512.5L259.81 2550L259.81 2625L194.86 2662.5L129.91 2625L129.91 2550zM259.81 -75L324.77 -37.5L324.77 37.5L259.81 75L194.86 37.5L194.86 -37.5zM324.77 37.5L389.72 75L389.72 150L324.77 187.5L259.81 150L259.81 75zM259.81 150L324.77 187.5L324.77 262.5L259.81 300L194.86 262.5L194.86 187.5zM324.77 262.5L389.72 300L389.72 375L324.77 412.5L259.81 375L259.81 300zM259.81 375L324.77 412.5L324.77 487.5L259.81 525L194.86 487.5L194.86 412.5zM324.77 487.5L389.72 525L389.72 600L324.77 637.5L259.81 600L259.81 525zM259.81 600L324.77 637.5L324.77 712.5L259.81 750L194.86 712.5L194.86 637.5zM324.77 712.5L389.72 750L389.72 825L324.77 862.5L259.81 825L259.81 750zM259.81 825L324.77 862.5L324.77 937.5L259.81 975L194.86 937.5L194.86 862.5zM324.77 937.5L389.72 975L389.72 1050L324.77 1087.5L259.81 1050L259.81 975zM259.81 1050L324.77 1087.5L324.77 1162.5L259.81 1200L194.86 1162.5L194.86 1087.5zM324.77 1162.5L389.72 1200L389.72 1275L324.77 1312.5L259.81 1275L259.81 1200zM259.81 1275L324.77 1312.5L324.77 1387.5L259.81 1425L194.86 1387.5L194.86 1312.5zM324.77 1387.5L389.72 1425L389.72 1500L324.77 1537.5L259.81 1500L259.81 1425zM259.81 1500L324.77 1537.5L324.77 1612.5L259.81 1650L194.86 1612.5L194.86 1537.5zM324.77 1612.5L389.72 1650L389.72 1725L324.77 1762.5L259.81 1725L259.81 1650zM259.81 1725L324.77 1762.5L324.77 1837.5L259.81 1875L194.86 1837.5L194.86 1762.5zM324.77 1837.5L389.72 1875L389.72 1950L324.77 1987.5L259.81 1950L259.81 1875zM259.81 1950L324.77 1987.5L324.77 2062.5L259.81 2100L194.86 2062.5L194.86 1987.5zM324.77 2062.5L389.72 2100L389.72 2175L324.77 2212.5L259.81 2175L259.81 2100zM259.81 2175L324.77 2212.5L324.77 2287.5L259.81 2325L194.86 2287.5L194.86 2212.5zM324.77 2287.5L389.72 2325L389.72 2400L324.77 2437.5L259.81 2400L259.81 2325zM259.81 2400L324.77 2437.5L324.77 2512.5L259.81 2550L194.86 2512.5L194.86 2437.5zM324.77 2512.5L389.72 2550L389.72 2625L324.77 2662.5L259.81 2625L259.81 2550zM389.72 -75L454.68 -37.5L454.68 37.5L389.72 75L324.77 37.5L324.77 -37.5zM454.68 37.5L519.63 75L519.63 150L454.68 187.5L389.72 150L389.72 75zM389.72 150L454.68 187.5L454.68 262.5L389.72 300L324.77 262.5L324.77 187.5zM454.68 262.5L519.63 300L519.63 375L454.68 412.5L389.72 375L389.72 300zM389.72 375L454.68 412.5L454.68 487.5L389.72 525L324.77 487.5L324.77 412.5zM454.68 487.5L519.63 525L519.63 600L454.68 637.5L389.72 600L389.72 525zM389.72 600L454.68 637.5L454.68 712.5L389.72 750L324.77 712.5L324.77 637.5zM454.68 712.5L519.63 750L519.63 825L454.68 862.5L389.72 825L389.72 750zM389.72 825L454.68 862.5L454.68 937.5L389.72 975L324.77 937.5L324.77 862.5zM454.68 937.5L519.63 975L519.63 1050L454.68 1087.5L389.72 1050L389.72 975zM389.72 1050L454.68 1087.5L454.68 1162.5L389.72 1200L324.77 1162.5L324.77 1087.5zM454.68 1162.5L519.63 1200L519.63 1275L454.68 1312.5L389.72 1275L389.72 1200zM389.72 1275L454.68 1312.5L454.68 1387.5L389.72 1425L324.77 1387.5L324.77 1312.5zM454.68 1387.5L519.63 1425L519.63 1500L454.68 1537.5L389.72 1500L389.72 1425zM389.72 1500L454.68 1537.5L454.68 1612.5L389.72 1650L324.77 1612.5L324.77 1537.5zM454.68 1612.5L519.63 1650L519.63 1725L454.68 1762.5L389.72 1725L389.72 1650zM389.72 1725L454.68 1762.5L454.68 1837.5L389.72 1875L324.77 1837.5L324.77 1762.5zM454.68 1837.5L519.63 1875L519.63 1950L454.68 1987.5L389.72 1950L389.72 1875zM389.72 1950L454.68 1987.5L454.68 2062.5L389.72 2100L324.77 2062.5L324.77 1987.5zM454.68 2062.5L519.63 2100L519.63 2175L454.68 2212.5L389.72 2175L389.72 2100zM389.72 2175L454.68 2212.5L454.68 2287.5L389.72 2325L324.77 2287.5L324.77 2212.5zM454.68 2287.5L519.63 2325L519.63 2400L454.68 2437.5L389.72 2400L389.72 2325zM389.72 2400L454.68 2437.5L454.68 2512.5L389.72 2550L324.77 2512.5L324.77 2437.5zM454.68 2512.5L519.63 2550L519.63 2625L454.68 2662.5L389.72 2625L389.72 2550zM519.63 -75L584.58 -37.5L584.58 37.5L519.63 75L454.68 37.5L454.68 -37.5zM584.58 37.5L649.54 75L649.54 150L584.58 187.5L519.63 150L519.63 75zM519.63 150L584.58 187.5L584.58 262.5L519.63 300L454.68 262.5L454.68 187.5zM584.58 262.5L649.54 300L649.54 375L584.58 412.5L519.63 375L519.63 300zM519.63 375L584.58 412.5L584.58 487.5L519.63 525L454.68 487.5L454.68 412.5zM584.58 487.5L649.54 525L649.54 600L584.58 637.5L519.63 600L519.63 525zM519.63 600L584.58 637.5L584.58 712.5L519.63 750L454.68 712.5L454.68 637.5zM584.58 712.5L649.54 750L649.54 825L584.58 862.5L519.63 825L519.63 750zM519.63 825L584.58 862.5L584.58 937.5L519.63 975L454.68 937.5L454.68 862.5zM584.58 937.5L649.54 975L649.54 1050L584.58 1087.5L519.63 1050L519.63 975zM519.63 1050L584.58 1087.5L584.58 1162.5L519.63 1200L454.68 1162.5L454.68 1087.5zM584.58 1162.5L649.54 1200L649.54 1275L584.58 1312.5L519.63 1275L519.63 1200zM519.63 1275L584.58 1312.5L584.58 1387.5L519.63 1425L454.68 1387.5L454.68 1312.5zM584.58 1387.5L649.54 1425L649.54 1500L584.58 1537.5L519.63 1500L519.63 1425zM519.63 1500L584.58 1537.5L584.58 1612.5L519.63 1650L454.68 1612.5L454.68 1537.5zM584.58 1612.5L649.54 1650L649.54 1725L584.58 1762.5L519.63 1725L519.63 1650zM519.63 1725L584.58 1762.5L584.58 1837.5L519.63 1875L454.68 1837.5L454.68 1762.5zM584.58 1837.5L649.54 1875L649.54 1950L584.58 1987.5L519.63 1950L519.63 1875zM519.63 1950L584.58 1987.5L584.58 2062.5L519.63 2100L454.68 2062.5L454.68 1987.5zM584.58 2062.5L649.54 2100L649.54 2175L584.58 2212.5L519.63 2175L519.63 2100zM519.63 2175L584.58 2212.5L584.58 2287.5L519.63 2325L454.68 2287.5L454.68 2212.5zM584.58 2287.5L649.54 2325L649.54 2400L584.58 2437.5L519.63 2400L519.63 2325zM519.63 2400L584.58 2437.5L584.58 2512.5L519.63 2550L454.68 2512.5L454.68 2437.5zM584.58 2512.5L649.54 2550L649.54 2625L584.58 2662.5L519.63 2625L519.63 2550zM649.54 -75L714.49 -37.5L714.49 37.5L649.54 75L584.58 37.5L584.58 -37.5zM714.49 37.5L779.45 75L779.45 150L714.49 187.5L649.54 150L649.54 75zM649.54 150L714.49 187.5L714.49 262.5L649.54 300L584.58 262.5L584.58 187.5zM714.49 262.5L779.45 300L779.45 375L714.49 412.5L649.54 375L649.54 300zM649.54 375L714.49 412.5L714.49 487.5L649.54 525L584.58 487.5L584.58 412.5zM714.49 487.5L779.45 525L779.45 600L714.49 637.5L649.54 600L649.54 525zM649.54 600L714.49 637.5L714.49 712.5L649.54 750L584.58 712.5L584.58 637.5zM714.49 712.5L779.45 750L779.45 825L714.49 862.5L649.54 825L649.54 750zM649.54 825L714.49 862.5L714.49 937.5L649.54 975L584.58 937.5L584.58 862.5zM714.49 937.5L779.45 975L779.45 1050L714.49 1087.5L649.54 1050L649.54 975zM649.54 1050L714.49 1087.5L714.49 1162.5L649.54 1200L584.58 1162.5L584.58 1087.5zM714.49 1162.5L779.45 1200L779.45 1275L714.49 1312.5L649.54 1275L649.54 1200zM649.54 1275L714.49 1312.5L714.49 1387.5L649.54 1425L584.58 1387.5L584.58 1312.5zM714.49 1387.5L779.45 1425L779.45 1500L714.49 1537.5L649.54 1500L649.54 1425zM649.54 1500L714.49 1537.5L714.49 1612.5L649.54 1650L584.58 1612.5L584.58 1537.5zM714.49 1612.5L779.45 1650L779.45 1725L714.49 1762.5L649.54 1725L649.54 1650zM649.54 1725L714.49 1762.5L714.49 1837.5L649.54 1875L584.58 1837.5L584.58 1762.5zM714.49 1837.5L779.45 1875L779.45 1950L714.49 1987.5L649.54 1950L649.54 1875zM649.54 1950L714.49 1987.5L714.49 2062.5L649.54 2100L584.58 2062.5L584.58 1987.5zM714.49 2062.5L779.45 2100L779.45 2175L714.49 2212.5L649.54 2175L649.54 2100zM649.54 2175L714.49 2212.5L714.49 2287.5L649.54 2325L584.58 2287.5L584.58 2212.5zM714.49 2287.5L779.45 2325L779.45 2400L714.49 2437.5L649.54 2400L649.54 2325zM649.54 2400L714.49 2437.5L714.49 2512.5L649.54 2550L584.58 2512.5L584.58 2437.5zM714.49 2512.5L779.45 2550L779.45 2625L714.49 2662.5L649.54 2625L649.54 2550zM779.44 -75L844.4 -37.5L844.4 37.5L779.44 75L714.49 37.5L714.49 -37.5zM844.4 37.5L909.35 75L909.35 150L844.4 187.5L779.44 150L779.44 75zM779.44 150L844.4 187.5L844.4 262.5L779.44 300L714.49 262.5L714.49 187.5zM844.4 262.5L909.35 300L909.35 375L844.4 412.5L779.44 375L779.44 300zM779.44 375L844.4 412.5L844.4 487.5L779.44 525L714.49 487.5L714.49 412.5zM844.4 487.5L909.35 525L909.35 600L844.4 637.5L779.44 600L779.44 525zM779.44 600L844.4 637.5L844.4 712.5L779.44 750L714.49 712.5L714.49 637.5zM844.4 712.5L909.35 750L909.35 825L844.4 862.5L779.44 825L779.44 750zM779.44 825L844.4 862.5L844.4 937.5L779.44 975L714.49 937.5L714.49 862.5zM844.4 937.5L909.35 975L909.35 1050L844.4 1087.5L779.44 1050L779.44 975zM779.44 1050L844.4 1087.5L844.4 1162.5L779.44 1200L714.49 1162.5L714.49 1087.5zM844.4 1162.5L909.35 1200L909.35 1275L844.4 1312.5L779.44 1275L779.44 1200zM779.44 1275L844.4 1312.5L844.4 1387.5L779.44 1425L714.49 1387.5L714.49 1312.5zM844.4 1387.5L909.35 1425L909.35 1500L844.4 1537.5L779.44 1500L779.44 1425zM779.44 1500L844.4 1537.5L844.4 1612.5L779.44 1650L714.49 1612.5L714.49 1537.5zM844.4 1612.5L909.35 1650L909.35 1725L844.4 1762.5L779.44 1725L779.44 1650zM779.44 1725L844.4 1762.5L844.4 1837.5L779.44 1875L714.49 1837.5L714.49 1762.5zM844.4 1837.5L909.35 1875L909.35 1950L844.4 1987.5L779.44 1950L779.44 1875zM779.44 1950L844.4 1987.5L844.4 2062.5L779.44 2100L714.49 2062.5L714.49 1987.5zM844.4 2062.5L909.35 2100L909.35 2175L844.4 2212.5L779.44 2175L779.44 2100zM779.44 2175L844.4 2212.5L844.4 2287.5L779.44 2325L714.49 2287.5L714.49 2212.5zM844.4 2287.5L909.35 2325L909.35 2400L844.4 2437.5L779.44 2400L779.44 2325zM779.44 2400L844.4 2437.5L844.4 2512.5L779.44 2550L714.49 2512.5L714.49 2437.5zM844.4 2512.5L909.35 2550L909.35 2625L844.4 2662.5L779.44 2625L779.44 2550zM909.35 -75L974.31 -37.5L974.31 37.5L909.35 75L844.4 37.5L844.4 -37.5zM974.31 37.5L1039.26 75L1039.26 150L974.31 187.5L909.35 150L909.35 75zM909.35 150L974.31 187.5L974.31 262.5L909.35 300L844.4 262.5L844.4 187.5zM974.31 262.5L1039.26 300L1039.26 375L974.31 412.5L909.35 375L909.35 300zM909.35 375L974.31 412.5L974.31 487.5L909.35 525L844.4 487.5L844.4 412.5zM974.31 487.5L1039.26 525L1039.26 600L974.31 637.5L909.35 600L909.35 525zM909.35 600L974.31 637.5L974.31 712.5L909.35 750L844.4 712.5L844.4 637.5zM974.31 712.5L1039.26 750L1039.26 825L974.31 862.5L909.35 825L909.35 750zM909.35 825L974.31 862.5L974.31 937.5L909.35 975L844.4 937.5L844.4 862.5zM974.31 937.5L1039.26 975L1039.26 1050L974.31 1087.5L909.35 1050L909.35 975zM909.35 1050L974.31 1087.5L974.31 1162.5L909.35 1200L844.4 1162.5L844.4 1087.5zM974.31 1162.5L1039.26 1200L1039.26 1275L974.31 1312.5L909.35 1275L909.35 1200zM909.35 1275L974.31 1312.5L974.31 1387.5L909.35 1425L844.4 1387.5L844.4 1312.5zM974.31 1387.5L1039.26 1425L1039.26 1500L974.31 1537.5L909.35 1500L909.35 1425zM909.35 1500L974.31 1537.5L974.31 1612.5L909.35 1650L844.4 1612.5L844.4 1537.5zM974.31 1612.5L1039.26 1650L1039.26 1725L974.31 1762.5L909.35 1725L909.35 1650zM909.35 1725L974.31 1762.5L974.31 1837.5L909.35 1875L844.4 1837.5L844.4 1762.5zM974.31 1837.5L1039.26 1875L1039.26 1950L974.31 1987.5L909.35 1950L909.35 1875zM909.35 1950L974.31 1987.5L974.31 2062.5L909.35 2100L844.4 2062.5L844.4 1987.5zM974.31 2062.5L1039.26 2100L1039.26 2175L974.31 2212.5L909.35 2175L909.35 2100zM909.35 2175L974.31 2212.5L974.31 2287.5L909.35 2325L844.4 2287.5L844.4 2212.5zM974.31 2287.5L1039.26 2325L1039.26 2400L974.31 2437.5L909.35 2400L909.35 2325zM909.35 2400L974.31 2437.5L974.31 2512.5L909.35 2550L844.4 2512.5L844.4 2437.5zM974.31 2512.5L1039.26 2550L1039.26 2625L974.31 2662.5L909.35 2625L909.35 2550zM1039.26 -75L1104.21 -37.5L1104.21 37.5L1039.26 75L974.31 37.5L974.31 -37.5zM1104.21 37.5L1169.17 75L1169.17 150L1104.21 187.5L1039.26 150L1039.26 75zM1039.26 150L1104.21 187.5L1104.21 262.5L1039.26 300L974.31 262.5L974.31 187.5zM1104.21 262.5L1169.17 300L1169.17 375L1104.21 412.5L1039.26 375L1039.26 300zM1039.26 375L1104.21 412.5L1104.21 487.5L1039.26 525L974.31 487.5L974.31 412.5zM1104.21 487.5L1169.17 525L1169.17 600L1104.21 637.5L1039.26 600L1039.26 525zM1039.26 600L1104.21 637.5L1104.21 712.5L1039.26 750L974.31 712.5L974.31 637.5zM1104.21 712.5L1169.17 750L1169.17 825L1104.21 862.5L1039.26 825L1039.26 750zM1039.26 825L1104.21 862.5L1104.21 937.5L1039.26 975L974.31 937.5L974.31 862.5zM1104.21 937.5L1169.17 975L1169.17 1050L1104.21 1087.5L1039.26 1050L1039.26 975zM1039.26 1050L1104.21 1087.5L1104.21 1162.5L1039.26 1200L974.31 1162.5L974.31 1087.5zM1104.21 1162.5L1169.17 1200L1169.17 1275L1104.21 1312.5L1039.26 1275L1039.26 1200zM1039.26 1275L1104.21 1312.5L1104.21 1387.5L1039.26 1425L974.31 1387.5L974.31 1312.5zM1104.21 1387.5L1169.17 1425L1169.17 1500L1104.21 1537.5L1039.26 1500L1039.26 1425zM1039.26 1500L1104.21 1537.5L1104.21 1612.5L1039.26 1650L974.31 1612.5L974.31 1537.5zM1104.21 1612.5L1169.17 1650L1169.17 1725L1104.21 1762.5L1039.26 1725L1039.26 1650zM1039.26 1725L1104.21 1762.5L1104.21 1837.5L1039.26 1875L974.31 1837.5L974.31 1762.5zM1104.21 1837.5L1169.17 1875L1169.17 1950L1104.21 1987.5L1039.26 1950L1039.26 1875zM1039.26 1950L1104.21 1987.5L1104.21 2062.5L1039.26 2100L974.31 2062.5L974.31 1987.5zM1104.21 2062.5L1169.17 2100L1169.17 2175L1104.21 2212.5L1039.26 2175L1039.26 2100zM1039.26 2175L1104.21 2212.5L1104.21 2287.5L1039.26 2325L974.31 2287.5L974.31 2212.5zM1104.21 2287.5L1169.17 2325L1169.17 2400L1104.21 2437.5L1039.26 2400L1039.26 2325zM1039.26 2400L1104.21 2437.5L1104.21 2512.5L1039.26 2550L974.31 2512.5L974.31 2437.5zM1104.21 2512.5L1169.17 2550L1169.17 2625L1104.21 2662.5L1039.26 2625L1039.26 2550zM1169.17 -75L1234.12 -37.5L1234.12 37.5L1169.17 75L1104.21 37.5L1104.21 -37.5zM1234.12 37.5L1299.07 75L1299.07 150L1234.12 187.5L1169.17 150L1169.17 75zM1169.17 150L1234.12 187.5L1234.12 262.5L1169.17 300L1104.21 262.5L1104.21 187.5zM1234.12 262.5L1299.07 300L1299.07 375L1234.12 412.5L1169.17 375L1169.17 300zM1169.17 375L1234.12 412.5L1234.12 487.5L1169.17 525L1104.21 487.5L1104.21 412.5zM1234.12 487.5L1299.07 525L1299.07 600L1234.12 637.5L1169.17 600L1169.17 525zM1169.17 600L1234.12 637.5L1234.12 712.5L1169.17 750L1104.21 712.5L1104.21 637.5zM1234.12 712.5L1299.07 750L1299.07 825L1234.12 862.5L1169.17 825L1169.17 750zM1169.17 825L1234.12 862.5L1234.12 937.5L1169.17 975L1104.21 937.5L1104.21 862.5zM1234.12 937.5L1299.07 975L1299.07 1050L1234.12 1087.5L1169.17 1050L1169.17 975zM1169.17 1050L1234.12 1087.5L1234.12 1162.5L1169.17 1200L1104.21 1162.5L1104.21 1087.5zM1234.12 1162.5L1299.07 1200L1299.07 1275L1234.12 1312.5L1169.17 1275L1169.17 1200zM1169.17 1275L1234.12 1312.5L1234.12 1387.5L1169.17 1425L1104.21 1387.5L1104.21 1312.5zM1234.12 1387.5L1299.07 1425L1299.07 1500L1234.12 1537.5L1169.17 1500L1169.17 1425zM1169.17 1500L1234.12 1537.5L1234.12 1612.5L1169.17 1650L1104.21 1612.5L1104.21 1537.5zM1234.12 1612.5L1299.07 1650L1299.07 1725L1234.12 1762.5L1169.17 1725L1169.17 1650zM1169.17 1725L1234.12 1762.5L1234.12 1837.5L1169.17 1875L1104.21 1837.5L1104.21 1762.5zM1234.12 1837.5L1299.07 1875L1299.07 1950L1234.12 1987.5L1169.17 1950L1169.17 1875zM1169.17 1950L1234.12 1987.5L1234.12 2062.5L1169.17 2100L1104.21 2062.5L1104.21 1987.5zM1234.12 2062.5L1299.07 2100L1299.07 2175L1234.12 2212.5L1169.17 2175L1169.17 2100zM1169.17 2175L1234.12 2212.5L1234.12 2287.5L1169.17 2325L1104.21 2287.5L1104.21 2212.5zM1234.12 2287.5L1299.07 2325L1299.07 2400L1234.12 2437.5L1169.17 2400L1169.17 2325zM1169.17 2400L1234.12 2437.5L1234.12 2512.5L1169.17 2550L1104.21 2512.5L1104.21 2437.5zM1234.12 2512.5L1299.07 2550L1299.07 2625L1234.12 2662.5L1169.17 2625L1169.17 2550zM1299.08 -75L1364.03 -37.5L1364.03 37.5L1299.08 75L1234.12 37.5L1234.12 -37.5zM1364.03 37.5L1428.98 75L1428.98 150L1364.03 187.5L1299.08 150L1299.08 75zM1299.08 150L1364.03 187.5L1364.03 262.5L1299.08 300L1234.12 262.5L1234.12 187.5zM1364.03 262.5L1428.98 300L1428.98 375L1364.03 412.5L1299.08 375L1299.08 300zM1299.08 375L1364.03 412.5L1364.03 487.5L1299.08 525L1234.12 487.5L1234.12 412.5zM1364.03 487.5L1428.98 525L1428.98 600L1364.03 637.5L1299.08 600L1299.08 525zM1299.08 600L1364.03 637.5L1364.03 712.5L1299.08 750L1234.12 712.5L1234.12 637.5zM1364.03 712.5L1428.98 750L1428.98 825L1364.03 862.5L1299.08 825L1299.08 750zM1299.08 825L1364.03 862.5L1364.03 937.5L1299.08 975L1234.12 937.5L1234.12 862.5zM1364.03 937.5L1428.98 975L1428.98 1050L1364.03 1087.5L1299.08 1050L1299.08 975zM1299.08 1050L1364.03 1087.5L1364.03 1162.5L1299.08 1200L1234.12 1162.5L1234.12 1087.5zM1364.03 1162.5L1428.98 1200L1428.98 1275L1364.03 1312.5L1299.08 1275L1299.08 1200zM1299.08 1275L1364.03 1312.5L1364.03 1387.5L1299.08 1425L1234.12 1387.5L1234.12 1312.5zM1364.03 1387.5L1428.98 1425L1428.98 1500L1364.03 1537.5L1299.08 1500L1299.08 1425zM1299.08 1500L1364.03 1537.5L1364.03 1612.5L1299.08 1650L1234.12 1612.5L1234.12 1537.5zM1364.03 1612.5L1428.98 1650L1428.98 1725L1364.03 1762.5L1299.08 1725L1299.08 1650zM1299.08 1725L1364.03 1762.5L1364.03 1837.5L1299.08 1875L1234.12 1837.5L1234.12 1762.5zM1364.03 1837.5L1428.98 1875L1428.98 1950L1364.03 1987.5L1299.08 1950L1299.08 1875zM1299.08 1950L1364.03 1987.5L1364.03 2062.5L1299.08 2100L1234.12 2062.5L1234.12 1987.5zM1364.03 2062.5L1428.98 2100L1428.98 2175L1364.03 2212.5L1299.08 2175L1299.08 2100zM1299.08 2175L1364.03 2212.5L1364.03 2287.5L1299.08 2325L1234.12 2287.5L1234.12 2212.5zM1364.03 2287.5L1428.98 2325L1428.98 2400L1364.03 2437.5L1299.08 2400L1299.08 2325zM1299.08 2400L1364.03 2437.5L1364.03 2512.5L1299.08 2550L1234.12 2512.5L1234.12 2437.5zM1364.03 2512.5L1428.98 2550L1428.98 2625L1364.03 2662.5L1299.08 2625L1299.08 2550zM1428.98 -75L1493.94 -37.5L1493.94 37.5L1428.98 75L1364.03 37.5L1364.03 -37.5zM1493.94 37.5L1558.89 75L1558.89 150L1493.94 187.5L1428.98 150L1428.98 75zM1428.98 150L1493.94 187.5L1493.94 262.5L1428.98 300L1364.03 262.5L1364.03 187.5zM1493.94 262.5L1558.89 300L1558.89 375L1493.94 412.5L1428.98 375L1428.98 300zM1428.98 375L1493.94 412.5L1493.94 487.5L1428.98 525L1364.03 487.5L1364.03 412.5zM1493.94 487.5L1558.89 525L1558.89 600L1493.94 637.5L1428.98 600L1428.98 525zM1428.98 600L1493.94 637.5L1493.94 712.5L1428.98 750L1364.03 712.5L1364.03 637.5zM1493.94 712.5L1558.89 750L1558.89 825L1493.94 862.5L1428.98 825L1428.98 750zM1428.98 825L1493.94 862.5L1493.94 937.5L1428.98 975L1364.03 937.5L1364.03 862.5zM1493.94 937.5L1558.89 975L1558.89 1050L1493.94 1087.5L1428.98 1050L1428.98 975zM1428.98 1050L1493.94 1087.5L1493.94 1162.5L1428.98 1200L1364.03 1162.5L1364.03 1087.5zM1493.94 1162.5L1558.89 1200L1558.89 1275L1493.94 1312.5L1428.98 1275L1428.98 1200zM1428.98 1275L1493.94 1312.5L1493.94 1387.5L1428.98 1425L1364.03 1387.5L1364.03 1312.5zM1493.94 1387.5L1558.89 1425L1558.89 1500L1493.94 1537.5L1428.98 1500L1428.98 1425zM1428.98 1500L1493.94 1537.5L1493.94 1612.5L1428.98 1650L1364.03 1612.5L1364.03 1537.5zM1493.94 1612.5L1558.89 1650L1558.89 1725L1493.94 1762.5L1428.98 1725L1428.98 1650zM1428.98 1725L1493.94 1762.5L1493.94 1837.5L1428.98 1875L1364.03 1837.5L1364.03 1762.5zM1493.94 1837.5L1558.89 1875L1558.89 1950L1493.94 1987.5L1428.98 1950L1428.98 1875zM1428.98 1950L1493.94 1987.5L1493.94 2062.5L1428.98 2100L1364.03 2062.5L1364.03 1987.5zM1493.94 2062.5L1558.89 2100L1558.89 2175L1493.94 2212.5L1428.98 2175L1428.98 2100zM1428.98 2175L1493.94 2212.5L1493.94 2287.5L1428.98 2325L1364.03 2287.5L1364.03 2212.5zM1493.94 2287.5L1558.89 2325L1558.89 2400L1493.94 2437.5L1428.98 2400L1428.98 2325zM1428.98 2400L1493.94 2437.5L1493.94 2512.5L1428.98 2550L1364.03 2512.5L1364.03 2437.5zM1493.94 2512.5L1558.89 2550L1558.89 2625L1493.94 2662.5L1428.98 2625L1428.98 2550z" stroke="#03305d" stroke-width="2"></path><path d="M-7.5 -75 a7.5 7.5 0 1 0 15 0 a7.5 7.5 0 1 0 -15 0zM57.45 -37.5 a7.5 7.5 0 1 0 15 0 a7.5 7.5 0 1 0 -15 0zM57.45 37.5 a7.5 7.5 0 1 0 15 0 a7.5 7.5 0 1 0 -15 0zM-7.5 75 a7.5 7.5 0 1 0 15 0 a7.5 7.5 0 1 0 -15 0zM-72.45 37.5 a7.5 7.5 0 1 0 15 0 a7.5 7.5 0 1 0 -15 0zM-72.45 -37.5 a7.5 7.5 0 1 0 15 0 a7.5 7.5 0 1 0 -15 0zM122.41 75 a7.5 7.5 0 1 0 15 0 a7.5 7.5 0 1 0 -15 0zM122.41 150 a7.5 7.5 0 1 0 15 0 a7.5 7.5 0 1 0 -15 0zM57.45 187.5 a7.5 7.5 0 1 0 15 0 a7.5 7.5 0 1 0 -15 0zM-7.5 150 a7.5 7.5 0 1 0 15 0 a7.5 7.5 0 1 0 -15 0zM57.45 262.5 a7.5 7.5 0 1 0 15 0 a7.5 7.5 0 1 0 -15 0zM-7.5 300 a7.5 7.5 0 1 0 15 0 a7.5 7.5 0 1 0 -15 0zM-72.45 262.5 a7.5 7.5 0 1 0 15 0 a7.5 7.5 0 1 0 -15 0zM-72.45 187.5 a7.5 7.5 0 1 0 15 0 a7.5 7.5 0 1 0 -15 0zM122.41 300 a7.5 7.5 0 1 0 15 0 a7.5 7.5 0 1 0 -15 0zM122.41 375 a7.5 7.5 0 1 0 15 0 a7.5 7.5 0 1 0 -15 0zM57.45 412.5 a7.5 7.5 0 1 0 15 0 a7.5 7.5 0 1 0 -15 0zM-7.5 375 a7.5 7.5 0 1 0 15 0 a7.5 7.5 0 1 0 -15 0zM57.45 487.5 a7.5 7.5 0 1 0 15 0 a7.5 7.5 0 1 0 -15 0zM-7.5 525 a7.5 7.5 0 1 0 15 0 a7.5 7.5 0 1 0 -15 0zM-72.45 487.5 a7.5 7.5 0 1 0 15 0 a7.5 7.5 0 1 0 -15 0zM-72.45 412.5 a7.5 7.5 0 1 0 15 0 a7.5 7.5 0 1 0 -15 0zM122.41 525 a7.5 7.5 0 1 0 15 0 a7.5 7.5 0 1 0 -15 0zM122.41 600 a7.5 7.5 0 1 0 15 0 a7.5 7.5 0 1 0 -15 0zM57.45 637.5 a7.5 7.5 0 1 0 15 0 a7.5 7.5 0 1 0 -15 0zM-7.5 600 a7.5 7.5 0 1 0 15 0 a7.5 7.5 0 1 0 -15 0zM57.45 712.5 a7.5 7.5 0 1 0 15 0 a7.5 7.5 0 1 0 -15 0zM-7.5 750 a7.5 7.5 0 1 0 15 0 a7.5 7.5 0 1 0 -15 0zM-72.45 712.5 a7.5 7.5 0 1 0 15 0 a7.5 7.5 0 1 0 -15 0zM-72.45 637.5 a7.5 7.5 0 1 0 15 0 a7.5 7.5 0 1 0 -15 0zM122.41 750 a7.5 7.5 0 1 0 15 0 a7.5 7.5 0 1 0 -15 0zM122.41 825 a7.5 7.5 0 1 0 15 0 a7.5 7.5 0 1 0 -15 0zM57.45 862.5 a7.5 7.5 0 1 0 15 0 a7.5 7.5 0 1 0 -15 0zM-7.5 825 a7.5 7.5 0 1 0 15 0 a7.5 7.5 0 1 0 -15 0zM57.45 937.5 a7.5 7.5 0 1 0 15 0 a7.5 7.5 0 1 0 -15 0zM-7.5 975 a7.5 7.5 0 1 0 15 0 a7.5 7.5 0 1 0 -15 0zM-72.45 937.5 a7.5 7.5 0 1 0 15 0 a7.5 7.5 0 1 0 -15 0zM-72.45 862.5 a7.5 7.5 0 1 0 15 0 a7.5 7.5 0 1 0 -15 0zM122.41 975 a7.5 7.5 0 1 0 15 0 a7.5 7.5 0 1 0 -15 0zM122.41 1050 a7.5 7.5 0 1 0 15 0 a7.5 7.5 0 1 0 -15 0zM57.45 1087.5 a7.5 7.5 0 1 0 15 0 a7.5 7.5 0 1 0 -15 0zM-7.5 1050 a7.5 7.5 0 1 0 15 0 a7.5 7.5 0 1 0 -15 0zM57.45 1162.5 a7.5 7.5 0 1 0 15 0 a7.5 7.5 0 1 0 -15 0zM-7.5 1200 a7.5 7.5 0 1 0 15 0 a7.5 7.5 0 1 0 -15 0zM-72.45 1162.5 a7.5 7.5 0 1 0 15 0 a7.5 7.5 0 1 0 -15 0zM-72.45 1087.5 a7.5 7.5 0 1 0 15 0 a7.5 7.5 0 1 0 -15 0zM122.41 1200 a7.5 7.5 0 1 0 15 0 a7.5 7.5 0 1 0 -15 0zM122.41 1275 a7.5 7.5 0 1 0 15 0 a7.5 7.5 0 1 0 -15 0zM57.45 1312.5 a7.5 7.5 0 1 0 15 0 a7.5 7.5 0 1 0 -15 0zM-7.5 1275 a7.5 7.5 0 1 0 15 0 a7.5 7.5 0 1 0 -15 0zM57.45 1387.5 a7.5 7.5 0 1 0 15 0 a7.5 7.5 0 1 0 -15 0zM-7.5 1425 a7.5 7.5 0 1 0 15 0 a7.5 7.5 0 1 0 -15 0zM-72.45 1387.5 a7.5 7.5 0 1 0 15 0 a7.5 7.5 0 1 0 -15 0zM-72.45 1312.5 a7.5 7.5 0 1 0 15 0 a7.5 7.5 0 1 0 -15 0zM122.41 1425 a7.5 7.5 0 1 0 15 0 a7.5 7.5 0 1 0 -15 0zM122.41 1500 a7.5 7.5 0 1 0 15 0 a7.5 7.5 0 1 0 -15 0zM57.45 1537.5 a7.5 7.5 0 1 0 15 0 a7.5 7.5 0 1 0 -15 0zM-7.5 1500 a7.5 7.5 0 1 0 15 0 a7.5 7.5 0 1 0 -15 0zM57.45 1612.5 a7.5 7.5 0 1 0 15 0 a7.5 7.5 0 1 0 -15 0zM-7.5 1650 a7.5 7.5 0 1 0 15 0 a7.5 7.5 0 1 0 -15 0zM-72.45 1612.5 a7.5 7.5 0 1 0 15 0 a7.5 7.5 0 1 0 -15 0zM-72.45 1537.5 a7.5 7.5 0 1 0 15 0 a7.5 7.5 0 1 0 -15 0zM122.41 1650 a7.5 7.5 0 1 0 15 0 a7.5 7.5 0 1 0 -15 0zM122.41 1725 a7.5 7.5 0 1 0 15 0 a7.5 7.5 0 1 0 -15 0zM57.45 1762.5 a7.5 7.5 0 1 0 15 0 a7.5 7.5 0 1 0 -15 0zM-7.5 1725 a7.5 7.5 0 1 0 15 0 a7.5 7.5 0 1 0 -15 0zM57.45 1837.5 a7.5 7.5 0 1 0 15 0 a7.5 7.5 0 1 0 -15 0zM-7.5 1875 a7.5 7.5 0 1 0 15 0 a7.5 7.5 0 1 0 -15 0zM-72.45 1837.5 a7.5 7.5 0 1 0 15 0 a7.5 7.5 0 1 0 -15 0zM-72.45 1762.5 a7.5 7.5 0 1 0 15 0 a7.5 7.5 0 1 0 -15 0zM122.41 1875 a7.5 7.5 0 1 0 15 0 a7.5 7.5 0 1 0 -15 0zM122.41 1950 a7.5 7.5 0 1 0 15 0 a7.5 7.5 0 1 0 -15 0zM57.45 1987.5 a7.5 7.5 0 1 0 15 0 a7.5 7.5 0 1 0 -15 0zM-7.5 1950 a7.5 7.5 0 1 0 15 0 a7.5 7.5 0 1 0 -15 0zM57.45 2062.5 a7.5 7.5 0 1 0 15 0 a7.5 7.5 0 1 0 -15 0zM-7.5 2100 a7.5 7.5 0 1 0 15 0 a7.5 7.5 0 1 0 -15 0zM-72.45 2062.5 a7.5 7.5 0 1 0 15 0 a7.5 7.5 0 1 0 -15 0zM-72.45 1987.5 a7.5 7.5 0 1 0 15 0 a7.5 7.5 0 1 0 -15 0zM122.41 2100 a7.5 7.5 0 1 0 15 0 a7.5 7.5 0 1 0 -15 0zM122.41 2175 a7.5 7.5 0 1 0 15 0 a7.5 7.5 0 1 0 -15 0zM57.45 2212.5 a7.5 7.5 0 1 0 15 0 a7.5 7.5 0 1 0 -15 0zM-7.5 2175 a7.5 7.5 0 1 0 15 0 a7.5 7.5 0 1 0 -15 0zM57.45 2287.5 a7.5 7.5 0 1 0 15 0 a7.5 7.5 0 1 0 -15 0zM-7.5 2325 a7.5 7.5 0 1 0 15 0 a7.5 7.5 0 1 0 -15 0zM-72.45 2287.5 a7.5 7.5 0 1 0 15 0 a7.5 7.5 0 1 0 -15 0zM-72.45 2212.5 a7.5 7.5 0 1 0 15 0 a7.5 7.5 0 1 0 -15 0zM122.41 2325 a7.5 7.5 0 1 0 15 0 a7.5 7.5 0 1 0 -15 0zM122.41 2400 a7.5 7.5 0 1 0 15 0 a7.5 7.5 0 1 0 -15 0zM57.45 2437.5 a7.5 7.5 0 1 0 15 0 a7.5 7.5 0 1 0 -15 0zM-7.5 2400 a7.5 7.5 0 1 0 15 0 a7.5 7.5 0 1 0 -15 0zM57.45 2512.5 a7.5 7.5 0 1 0 15 0 a7.5 7.5 0 1 0 -15 0zM-7.5 2550 a7.5 7.5 0 1 0 15 0 a7.5 7.5 0 1 0 -15 0zM-72.45 2512.5 a7.5 7.5 0 1 0 15 0 a7.5 7.5 0 1 0 -15 0zM-72.45 2437.5 a7.5 7.5 0 1 0 15 0 a7.5 7.5 0 1 0 -15 0zM122.41 2550 a7.5 7.5 0 1 0 15 0 a7.5 7.5 0 1 0 -15 0zM122.41 2625 a7.5 7.5 0 1 0 15 0 a7.5 7.5 0 1 0 -15 0zM57.45 2662.5 a7.5 7.5 0 1 0 15 0 a7.5 7.5 0 1 0 -15 0zM-7.5 2625 a7.5 7.5 0 1 0 15 0 a7.5 7.5 0 1 0 -15 0zM122.41 -75 a7.5 7.5 0 1 0 15 0 a7.5 7.5 0 1 0 -15 0zM187.36 -37.5 a7.5 7.5 0 1 0 15 0 a7.5 7.5 0 1 0 -15 0zM187.36 37.5 a7.5 7.5 0 1 0 15 0 a7.5 7.5 0 1 0 -15 0zM252.31 75 a7.5 7.5 0 1 0 15 0 a7.5 7.5 0 1 0 -15 0zM252.31 150 a7.5 7.5 0 1 0 15 0 a7.5 7.5 0 1 0 -15 0zM187.36 187.5 a7.5 7.5 0 1 0 15 0 a7.5 7.5 0 1 0 -15 0zM187.36 262.5 a7.5 7.5 0 1 0 15 0 a7.5 7.5 0 1 0 -15 0zM252.31 300 a7.5 7.5 0 1 0 15 0 a7.5 7.5 0 1 0 -15 0zM252.31 375 a7.5 7.5 0 1 0 15 0 a7.5 7.5 0 1 0 -15 0zM187.36 412.5 a7.5 7.5 0 1 0 15 0 a7.5 7.5 0 1 0 -15 0zM187.36 487.5 a7.5 7.5 0 1 0 15 0 a7.5 7.5 0 1 0 -15 0zM252.31 525 a7.5 7.5 0 1 0 15 0 a7.5 7.5 0 1 0 -15 0zM252.31 600 a7.5 7.5 0 1 0 15 0 a7.5 7.5 0 1 0 -15 0zM187.36 637.5 a7.5 7.5 0 1 0 15 0 a7.5 7.5 0 1 0 -15 0zM187.36 712.5 a7.5 7.5 0 1 0 15 0 a7.5 7.5 0 1 0 -15 0zM252.31 750 a7.5 7.5 0 1 0 15 0 a7.5 7.5 0 1 0 -15 0zM252.31 825 a7.5 7.5 0 1 0 15 0 a7.5 7.5 0 1 0 -15 0zM187.36 862.5 a7.5 7.5 0 1 0 15 0 a7.5 7.5 0 1 0 -15 0zM187.36 937.5 a7.5 7.5 0 1 0 15 0 a7.5 7.5 0 1 0 -15 0zM252.31 975 a7.5 7.5 0 1 0 15 0 a7.5 7.5 0 1 0 -15 0zM252.31 1050 a7.5 7.5 0 1 0 15 0 a7.5 7.5 0 1 0 -15 0zM187.36 1087.5 a7.5 7.5 0 1 0 15 0 a7.5 7.5 0 1 0 -15 0zM187.36 1162.5 a7.5 7.5 0 1 0 15 0 a7.5 7.5 0 1 0 -15 0zM252.31 1200 a7.5 7.5 0 1 0 15 0 a7.5 7.5 0 1 0 -15 0zM252.31 1275 a7.5 7.5 0 1 0 15 0 a7.5 7.5 0 1 0 -15 0zM187.36 1312.5 a7.5 7.5 0 1 0 15 0 a7.5 7.5 0 1 0 -15 0zM187.36 1387.5 a7.5 7.5 0 1 0 15 0 a7.5 7.5 0 1 0 -15 0zM252.31 1425 a7.5 7.5 0 1 0 15 0 a7.5 7.5 0 1 0 -15 0zM252.31 1500 a7.5 7.5 0 1 0 15 0 a7.5 7.5 0 1 0 -15 0zM187.36 1537.5 a7.5 7.5 0 1 0 15 0 a7.5 7.5 0 1 0 -15 0zM187.36 1612.5 a7.5 7.5 0 1 0 15 0 a7.5 7.5 0 1 0 -15 0zM252.31 1650 a7.5 7.5 0 1 0 15 0 a7.5 7.5 0 1 0 -15 0zM252.31 1725 a7.5 7.5 0 1 0 15 0 a7.5 7.5 0 1 0 -15 0zM187.36 1762.5 a7.5 7.5 0 1 0 15 0 a7.5 7.5 0 1 0 -15 0zM187.36 1837.5 a7.5 7.5 0 1 0 15 0 a7.5 7.5 0 1 0 -15 0zM252.31 1875 a7.5 7.5 0 1 0 15 0 a7.5 7.5 0 1 0 -15 0zM252.31 1950 a7.5 7.5 0 1 0 15 0 a7.5 7.5 0 1 0 -15 0zM187.36 1987.5 a7.5 7.5 0 1 0 15 0 a7.5 7.5 0 1 0 -15 0zM187.36 2062.5 a7.5 7.5 0 1 0 15 0 a7.5 7.5 0 1 0 -15 0zM252.31 2100 a7.5 7.5 0 1 0 15 0 a7.5 7.5 0 1 0 -15 0zM252.31 2175 a7.5 7.5 0 1 0 15 0 a7.5 7.5 0 1 0 -15 0zM187.36 2212.5 a7.5 7.5 0 1 0 15 0 a7.5 7.5 0 1 0 -15 0zM187.36 2287.5 a7.5 7.5 0 1 0 15 0 a7.5 7.5 0 1 0 -15 0zM252.31 2325 a7.5 7.5 0 1 0 15 0 a7.5 7.5 0 1 0 -15 0zM252.31 2400 a7.5 7.5 0 1 0 15 0 a7.5 7.5 0 1 0 -15 0zM187.36 2437.5 a7.5 7.5 0 1 0 15 0 a7.5 7.5 0 1 0 -15 0zM187.36 2512.5 a7.5 7.5 0 1 0 15 0 a7.5 7.5 0 1 0 -15 0zM252.31 2550 a7.5 7.5 0 1 0 15 0 a7.5 7.5 0 1 0 -15 0zM252.31 2625 a7.5 7.5 0 1 0 15 0 a7.5 7.5 0 1 0 -15 0zM187.36 2662.5 a7.5 7.5 0 1 0 15 0 a7.5 7.5 0 1 0 -15 0zM252.31 -75 a7.5 7.5 0 1 0 15 0 a7.5 7.5 0 1 0 -15 0zM317.27 -37.5 a7.5 7.5 0 1 0 15 0 a7.5 7.5 0 1 0 -15 0zM317.27 37.5 a7.5 7.5 0 1 0 15 0 a7.5 7.5 0 1 0 -15 0zM382.22 75 a7.5 7.5 0 1 0 15 0 a7.5 7.5 0 1 0 -15 0zM382.22 150 a7.5 7.5 0 1 0 15 0 a7.5 7.5 0 1 0 -15 0zM317.27 187.5 a7.5 7.5 0 1 0 15 0 a7.5 7.5 0 1 0 -15 0zM317.27 262.5 a7.5 7.5 0 1 0 15 0 a7.5 7.5 0 1 0 -15 0zM382.22 300 a7.5 7.5 0 1 0 15 0 a7.5 7.5 0 1 0 -15 0zM382.22 375 a7.5 7.5 0 1 0 15 0 a7.5 7.5 0 1 0 -15 0zM317.27 412.5 a7.5 7.5 0 1 0 15 0 a7.5 7.5 0 1 0 -15 0zM317.27 487.5 a7.5 7.5 0 1 0 15 0 a7.5 7.5 0 1 0 -15 0zM382.22 525 a7.5 7.5 0 1 0 15 0 a7.5 7.5 0 1 0 -15 0zM382.22 600 a7.5 7.5 0 1 0 15 0 a7.5 7.5 0 1 0 -15 0zM317.27 637.5 a7.5 7.5 0 1 0 15 0 a7.5 7.5 0 1 0 -15 0zM317.27 712.5 a7.5 7.5 0 1 0 15 0 a7.5 7.5 0 1 0 -15 0zM382.22 750 a7.5 7.5 0 1 0 15 0 a7.5 7.5 0 1 0 -15 0zM382.22 825 a7.5 7.5 0 1 0 15 0 a7.5 7.5 0 1 0 -15 0zM317.27 862.5 a7.5 7.5 0 1 0 15 0 a7.5 7.5 0 1 0 -15 0zM317.27 937.5 a7.5 7.5 0 1 0 15 0 a7.5 7.5 0 1 0 -15 0zM382.22 975 a7.5 7.5 0 1 0 15 0 a7.5 7.5 0 1 0 -15 0zM382.22 1050 a7.5 7.5 0 1 0 15 0 a7.5 7.5 0 1 0 -15 0zM317.27 1087.5 a7.5 7.5 0 1 0 15 0 a7.5 7.5 0 1 0 -15 0zM317.27 1162.5 a7.5 7.5 0 1 0 15 0 a7.5 7.5 0 1 0 -15 0zM382.22 1200 a7.5 7.5 0 1 0 15 0 a7.5 7.5 0 1 0 -15 0zM382.22 1275 a7.5 7.5 0 1 0 15 0 a7.5 7.5 0 1 0 -15 0zM317.27 1312.5 a7.5 7.5 0 1 0 15 0 a7.5 7.5 0 1 0 -15 0zM317.27 1387.5 a7.5 7.5 0 1 0 15 0 a7.5 7.5 0 1 0 -15 0zM382.22 1425 a7.5 7.5 0 1 0 15 0 a7.5 7.5 0 1 0 -15 0zM382.22 1500 a7.5 7.5 0 1 0 15 0 a7.5 7.5 0 1 0 -15 0zM317.27 1537.5 a7.5 7.5 0 1 0 15 0 a7.5 7.5 0 1 0 -15 0zM317.27 1612.5 a7.5 7.5 0 1 0 15 0 a7.5 7.5 0 1 0 -15 0zM382.22 1650 a7.5 7.5 0 1 0 15 0 a7.5 7.5 0 1 0 -15 0zM382.22 1725 a7.5 7.5 0 1 0 15 0 a7.5 7.5 0 1 0 -15 0zM317.27 1762.5 a7.5 7.5 0 1 0 15 0 a7.5 7.5 0 1 0 -15 0zM317.27 1837.5 a7.5 7.5 0 1 0 15 0 a7.5 7.5 0 1 0 -15 0zM382.22 1875 a7.5 7.5 0 1 0 15 0 a7.5 7.5 0 1 0 -15 0zM382.22 1950 a7.5 7.5 0 1 0 15 0 a7.5 7.5 0 1 0 -15 0zM317.27 1987.5 a7.5 7.5 0 1 0 15 0 a7.5 7.5 0 1 0 -15 0zM317.27 2062.5 a7.5 7.5 0 1 0 15 0 a7.5 7.5 0 1 0 -15 0zM382.22 2100 a7.5 7.5 0 1 0 15 0 a7.5 7.5 0 1 0 -15 0zM382.22 2175 a7.5 7.5 0 1 0 15 0 a7.5 7.5 0 1 0 -15 0zM317.27 2212.5 a7.5 7.5 0 1 0 15 0 a7.5 7.5 0 1 0 -15 0zM317.27 2287.5 a7.5 7.5 0 1 0 15 0 a7.5 7.5 0 1 0 -15 0zM382.22 2325 a7.5 7.5 0 1 0 15 0 a7.5 7.5 0 1 0 -15 0zM382.22 2400 a7.5 7.5 0 1 0 15 0 a7.5 7.5 0 1 0 -15 0zM317.27 2437.5 a7.5 7.5 0 1 0 15 0 a7.5 7.5 0 1 0 -15 0zM317.27 2512.5 a7.5 7.5 0 1 0 15 0 a7.5 7.5 0 1 0 -15 0zM382.22 2550 a7.5 7.5 0 1 0 15 0 a7.5 7.5 0 1 0 -15 0zM382.22 2625 a7.5 7.5 0 1 0 15 0 a7.5 7.5 0 1 0 -15 0zM317.27 2662.5 a7.5 7.5 0 1 0 15 0 a7.5 7.5 0 1 0 -15 0zM382.22 -75 a7.5 7.5 0 1 0 15 0 a7.5 7.5 0 1 0 -15 0zM447.18 -37.5 a7.5 7.5 0 1 0 15 0 a7.5 7.5 0 1 0 -15 0zM447.18 37.5 a7.5 7.5 0 1 0 15 0 a7.5 7.5 0 1 0 -15 0zM512.13 75 a7.5 7.5 0 1 0 15 0 a7.5 7.5 0 1 0 -15 0zM512.13 150 a7.5 7.5 0 1 0 15 0 a7.5 7.5 0 1 0 -15 0zM447.18 187.5 a7.5 7.5 0 1 0 15 0 a7.5 7.5 0 1 0 -15 0zM447.18 262.5 a7.5 7.5 0 1 0 15 0 a7.5 7.5 0 1 0 -15 0zM512.13 300 a7.5 7.5 0 1 0 15 0 a7.5 7.5 0 1 0 -15 0zM512.13 375 a7.5 7.5 0 1 0 15 0 a7.5 7.5 0 1 0 -15 0zM447.18 412.5 a7.5 7.5 0 1 0 15 0 a7.5 7.5 0 1 0 -15 0zM447.18 487.5 a7.5 7.5 0 1 0 15 0 a7.5 7.5 0 1 0 -15 0zM512.13 525 a7.5 7.5 0 1 0 15 0 a7.5 7.5 0 1 0 -15 0zM512.13 600 a7.5 7.5 0 1 0 15 0 a7.5 7.5 0 1 0 -15 0zM447.18 637.5 a7.5 7.5 0 1 0 15 0 a7.5 7.5 0 1 0 -15 0zM447.18 712.5 a7.5 7.5 0 1 0 15 0 a7.5 7.5 0 1 0 -15 0zM512.13 750 a7.5 7.5 0 1 0 15 0 a7.5 7.5 0 1 0 -15 0zM512.13 825 a7.5 7.5 0 1 0 15 0 a7.5 7.5 0 1 0 -15 0zM447.18 862.5 a7.5 7.5 0 1 0 15 0 a7.5 7.5 0 1 0 -15 0zM447.18 937.5 a7.5 7.5 0 1 0 15 0 a7.5 7.5 0 1 0 -15 0zM512.13 975 a7.5 7.5 0 1 0 15 0 a7.5 7.5 0 1 0 -15 0zM512.13 1050 a7.5 7.5 0 1 0 15 0 a7.5 7.5 0 1 0 -15 0zM447.18 1087.5 a7.5 7.5 0 1 0 15 0 a7.5 7.5 0 1 0 -15 0zM447.18 1162.5 a7.5 7.5 0 1 0 15 0 a7.5 7.5 0 1 0 -15 0zM512.13 1200 a7.5 7.5 0 1 0 15 0 a7.5 7.5 0 1 0 -15 0zM512.13 1275 a7.5 7.5 0 1 0 15 0 a7.5 7.5 0 1 0 -15 0zM447.18 1312.5 a7.5 7.5 0 1 0 15 0 a7.5 7.5 0 1 0 -15 0zM447.18 1387.5 a7.5 7.5 0 1 0 15 0 a7.5 7.5 0 1 0 -15 0zM512.13 1425 a7.5 7.5 0 1 0 15 0 a7.5 7.5 0 1 0 -15 0zM512.13 1500 a7.5 7.5 0 1 0 15 0 a7.5 7.5 0 1 0 -15 0zM447.18 1537.5 a7.5 7.5 0 1 0 15 0 a7.5 7.5 0 1 0 -15 0zM447.18 1612.5 a7.5 7.5 0 1 0 15 0 a7.5 7.5 0 1 0 -15 0zM512.13 1650 a7.5 7.5 0 1 0 15 0 a7.5 7.5 0 1 0 -15 0zM512.13 1725 a7.5 7.5 0 1 0 15 0 a7.5 7.5 0 1 0 -15 0zM447.18 1762.5 a7.5 7.5 0 1 0 15 0 a7.5 7.5 0 1 0 -15 0zM447.18 1837.5 a7.5 7.5 0 1 0 15 0 a7.5 7.5 0 1 0 -15 0zM512.13 1875 a7.5 7.5 0 1 0 15 0 a7.5 7.5 0 1 0 -15 0zM512.13 1950 a7.5 7.5 0 1 0 15 0 a7.5 7.5 0 1 0 -15 0zM447.18 1987.5 a7.5 7.5 0 1 0 15 0 a7.5 7.5 0 1 0 -15 0zM447.18 2062.5 a7.5 7.5 0 1 0 15 0 a7.5 7.5 0 1 0 -15 0zM512.13 2100 a7.5 7.5 0 1 0 15 0 a7.5 7.5 0 1 0 -15 0zM512.13 2175 a7.5 7.5 0 1 0 15 0 a7.5 7.5 0 1 0 -15 0zM447.18 2212.5 a7.5 7.5 0 1 0 15 0 a7.5 7.5 0 1 0 -15 0zM447.18 2287.5 a7.5 7.5 0 1 0 15 0 a7.5 7.5 0 1 0 -15 0zM512.13 2325 a7.5 7.5 0 1 0 15 0 a7.5 7.5 0 1 0 -15 0zM512.13 2400 a7.5 7.5 0 1 0 15 0 a7.5 7.5 0 1 0 -15 0zM447.18 2437.5 a7.5 7.5 0 1 0 15 0 a7.5 7.5 0 1 0 -15 0zM447.18 2512.5 a7.5 7.5 0 1 0 15 0 a7.5 7.5 0 1 0 -15 0zM512.13 2550 a7.5 7.5 0 1 0 15 0 a7.5 7.5 0 1 0 -15 0zM512.13 2625 a7.5 7.5 0 1 0 15 0 a7.5 7.5 0 1 0 -15 0zM447.18 2662.5 a7.5 7.5 0 1 0 15 0 a7.5 7.5 0 1 0 -15 0zM512.13 -75 a7.5 7.5 0 1 0 15 0 a7.5 7.5 0 1 0 -15 0zM577.08 -37.5 a7.5 7.5 0 1 0 15 0 a7.5 7.5 0 1 0 -15 0zM577.08 37.5 a7.5 7.5 0 1 0 15 0 a7.5 7.5 0 1 0 -15 0zM642.04 75 a7.5 7.5 0 1 0 15 0 a7.5 7.5 0 1 0 -15 0zM642.04 150 a7.5 7.5 0 1 0 15 0 a7.5 7.5 0 1 0 -15 0zM577.08 187.5 a7.5 7.5 0 1 0 15 0 a7.5 7.5 0 1 0 -15 0zM577.08 262.5 a7.5 7.5 0 1 0 15 0 a7.5 7.5 0 1 0 -15 0zM642.04 300 a7.5 7.5 0 1 0 15 0 a7.5 7.5 0 1 0 -15 0zM642.04 375 a7.5 7.5 0 1 0 15 0 a7.5 7.5 0 1 0 -15 0zM577.08 412.5 a7.5 7.5 0 1 0 15 0 a7.5 7.5 0 1 0 -15 0zM577.08 487.5 a7.5 7.5 0 1 0 15 0 a7.5 7.5 0 1 0 -15 0zM642.04 525 a7.5 7.5 0 1 0 15 0 a7.5 7.5 0 1 0 -15 0zM642.04 600 a7.5 7.5 0 1 0 15 0 a7.5 7.5 0 1 0 -15 0zM577.08 637.5 a7.5 7.5 0 1 0 15 0 a7.5 7.5 0 1 0 -15 0zM577.08 712.5 a7.5 7.5 0 1 0 15 0 a7.5 7.5 0 1 0 -15 0zM642.04 750 a7.5 7.5 0 1 0 15 0 a7.5 7.5 0 1 0 -15 0zM642.04 825 a7.5 7.5 0 1 0 15 0 a7.5 7.5 0 1 0 -15 0zM577.08 862.5 a7.5 7.5 0 1 0 15 0 a7.5 7.5 0 1 0 -15 0zM577.08 937.5 a7.5 7.5 0 1 0 15 0 a7.5 7.5 0 1 0 -15 0zM642.04 975 a7.5 7.5 0 1 0 15 0 a7.5 7.5 0 1 0 -15 0zM642.04 1050 a7.5 7.5 0 1 0 15 0 a7.5 7.5 0 1 0 -15 0zM577.08 1087.5 a7.5 7.5 0 1 0 15 0 a7.5 7.5 0 1 0 -15 0zM577.08 1162.5 a7.5 7.5 0 1 0 15 0 a7.5 7.5 0 1 0 -15 0zM642.04 1200 a7.5 7.5 0 1 0 15 0 a7.5 7.5 0 1 0 -15 0zM642.04 1275 a7.5 7.5 0 1 0 15 0 a7.5 7.5 0 1 0 -15 0zM577.08 1312.5 a7.5 7.5 0 1 0 15 0 a7.5 7.5 0 1 0 -15 0zM577.08 1387.5 a7.5 7.5 0 1 0 15 0 a7.5 7.5 0 1 0 -15 0zM642.04 1425 a7.5 7.5 0 1 0 15 0 a7.5 7.5 0 1 0 -15 0zM642.04 1500 a7.5 7.5 0 1 0 15 0 a7.5 7.5 0 1 0 -15 0zM577.08 1537.5 a7.5 7.5 0 1 0 15 0 a7.5 7.5 0 1 0 -15 0zM577.08 1612.5 a7.5 7.5 0 1 0 15 0 a7.5 7.5 0 1 0 -15 0zM642.04 1650 a7.5 7.5 0 1 0 15 0 a7.5 7.5 0 1 0 -15 0zM642.04 1725 a7.5 7.5 0 1 0 15 0 a7.5 7.5 0 1 0 -15 0zM577.08 1762.5 a7.5 7.5 0 1 0 15 0 a7.5 7.5 0 1 0 -15 0zM577.08 1837.5 a7.5 7.5 0 1 0 15 0 a7.5 7.5 0 1 0 -15 0zM642.04 1875 a7.5 7.5 0 1 0 15 0 a7.5 7.5 0 1 0 -15 0zM642.04 1950 a7.5 7.5 0 1 0 15 0 a7.5 7.5 0 1 0 -15 0zM577.08 1987.5 a7.5 7.5 0 1 0 15 0 a7.5 7.5 0 1 0 -15 0zM577.08 2062.5 a7.5 7.5 0 1 0 15 0 a7.5 7.5 0 1 0 -15 0zM642.04 2100 a7.5 7.5 0 1 0 15 0 a7.5 7.5 0 1 0 -15 0zM642.04 2175 a7.5 7.5 0 1 0 15 0 a7.5 7.5 0 1 0 -15 0zM577.08 2212.5 a7.5 7.5 0 1 0 15 0 a7.5 7.5 0 1 0 -15 0zM577.08 2287.5 a7.5 7.5 0 1 0 15 0 a7.5 7.5 0 1 0 -15 0zM642.04 2325 a7.5 7.5 0 1 0 15 0 a7.5 7.5 0 1 0 -15 0zM642.04 2400 a7.5 7.5 0 1 0 15 0 a7.5 7.5 0 1 0 -15 0zM577.08 2437.5 a7.5 7.5 0 1 0 15 0 a7.5 7.5 0 1 0 -15 0zM577.08 2512.5 a7.5 7.5 0 1 0 15 0 a7.5 7.5 0 1 0 -15 0zM642.04 2550 a7.5 7.5 0 1 0 15 0 a7.5 7.5 0 1 0 -15 0zM642.04 2625 a7.5 7.5 0 1 0 15 0 a7.5 7.5 0 1 0 -15 0zM577.08 2662.5 a7.5 7.5 0 1 0 15 0 a7.5 7.5 0 1 0 -15 0zM642.04 -75 a7.5 7.5 0 1 0 15 0 a7.5 7.5 0 1 0 -15 0zM706.99 -37.5 a7.5 7.5 0 1 0 15 0 a7.5 7.5 0 1 0 -15 0zM706.99 37.5 a7.5 7.5 0 1 0 15 0 a7.5 7.5 0 1 0 -15 0zM771.95 75 a7.5 7.5 0 1 0 15 0 a7.5 7.5 0 1 0 -15 0zM771.95 150 a7.5 7.5 0 1 0 15 0 a7.5 7.5 0 1 0 -15 0zM706.99 187.5 a7.5 7.5 0 1 0 15 0 a7.5 7.5 0 1 0 -15 0zM706.99 262.5 a7.5 7.5 0 1 0 15 0 a7.5 7.5 0 1 0 -15 0zM771.95 300 a7.5 7.5 0 1 0 15 0 a7.5 7.5 0 1 0 -15 0zM771.95 375 a7.5 7.5 0 1 0 15 0 a7.5 7.5 0 1 0 -15 0zM706.99 412.5 a7.5 7.5 0 1 0 15 0 a7.5 7.5 0 1 0 -15 0zM706.99 487.5 a7.5 7.5 0 1 0 15 0 a7.5 7.5 0 1 0 -15 0zM771.95 525 a7.5 7.5 0 1 0 15 0 a7.5 7.5 0 1 0 -15 0zM771.95 600 a7.5 7.5 0 1 0 15 0 a7.5 7.5 0 1 0 -15 0zM706.99 637.5 a7.5 7.5 0 1 0 15 0 a7.5 7.5 0 1 0 -15 0zM706.99 712.5 a7.5 7.5 0 1 0 15 0 a7.5 7.5 0 1 0 -15 0zM771.95 750 a7.5 7.5 0 1 0 15 0 a7.5 7.5 0 1 0 -15 0zM771.95 825 a7.5 7.5 0 1 0 15 0 a7.5 7.5 0 1 0 -15 0zM706.99 862.5 a7.5 7.5 0 1 0 15 0 a7.5 7.5 0 1 0 -15 0zM706.99 937.5 a7.5 7.5 0 1 0 15 0 a7.5 7.5 0 1 0 -15 0zM771.95 975 a7.5 7.5 0 1 0 15 0 a7.5 7.5 0 1 0 -15 0zM771.95 1050 a7.5 7.5 0 1 0 15 0 a7.5 7.5 0 1 0 -15 0zM706.99 1087.5 a7.5 7.5 0 1 0 15 0 a7.5 7.5 0 1 0 -15 0zM706.99 1162.5 a7.5 7.5 0 1 0 15 0 a7.5 7.5 0 1 0 -15 0zM771.95 1200 a7.5 7.5 0 1 0 15 0 a7.5 7.5 0 1 0 -15 0zM771.95 1275 a7.5 7.5 0 1 0 15 0 a7.5 7.5 0 1 0 -15 0zM706.99 1312.5 a7.5 7.5 0 1 0 15 0 a7.5 7.5 0 1 0 -15 0zM706.99 1387.5 a7.5 7.5 0 1 0 15 0 a7.5 7.5 0 1 0 -15 0zM771.95 1425 a7.5 7.5 0 1 0 15 0 a7.5 7.5 0 1 0 -15 0zM771.95 1500 a7.5 7.5 0 1 0 15 0 a7.5 7.5 0 1 0 -15 0zM706.99 1537.5 a7.5 7.5 0 1 0 15 0 a7.5 7.5 0 1 0 -15 0zM706.99 1612.5 a7.5 7.5 0 1 0 15 0 a7.5 7.5 0 1 0 -15 0zM771.95 1650 a7.5 7.5 0 1 0 15 0 a7.5 7.5 0 1 0 -15 0zM771.95 1725 a7.5 7.5 0 1 0 15 0 a7.5 7.5 0 1 0 -15 0zM706.99 1762.5 a7.5 7.5 0 1 0 15 0 a7.5 7.5 0 1 0 -15 0zM706.99 1837.5 a7.5 7.5 0 1 0 15 0 a7.5 7.5 0 1 0 -15 0zM771.95 1875 a7.5 7.5 0 1 0 15 0 a7.5 7.5 0 1 0 -15 0zM771.95 1950 a7.5 7.5 0 1 0 15 0 a7.5 7.5 0 1 0 -15 0zM706.99 1987.5 a7.5 7.5 0 1 0 15 0 a7.5 7.5 0 1 0 -15 0zM706.99 2062.5 a7.5 7.5 0 1 0 15 0 a7.5 7.5 0 1 0 -15 0zM771.95 2100 a7.5 7.5 0 1 0 15 0 a7.5 7.5 0 1 0 -15 0zM771.95 2175 a7.5 7.5 0 1 0 15 0 a7.5 7.5 0 1 0 -15 0zM706.99 2212.5 a7.5 7.5 0 1 0 15 0 a7.5 7.5 0 1 0 -15 0zM706.99 2287.5 a7.5 7.5 0 1 0 15 0 a7.5 7.5 0 1 0 -15 0zM771.95 2325 a7.5 7.5 0 1 0 15 0 a7.5 7.5 0 1 0 -15 0zM771.95 2400 a7.5 7.5 0 1 0 15 0 a7.5 7.5 0 1 0 -15 0zM706.99 2437.5 a7.5 7.5 0 1 0 15 0 a7.5 7.5 0 1 0 -15 0zM706.99 2512.5 a7.5 7.5 0 1 0 15 0 a7.5 7.5 0 1 0 -15 0zM771.95 2550 a7.5 7.5 0 1 0 15 0 a7.5 7.5 0 1 0 -15 0zM771.95 2625 a7.5 7.5 0 1 0 15 0 a7.5 7.5 0 1 0 -15 0zM706.99 2662.5 a7.5 7.5 0 1 0 15 0 a7.5 7.5 0 1 0 -15 0zM771.94 -75 a7.5 7.5 0 1 0 15 0 a7.5 7.5 0 1 0 -15 0zM836.9 -37.5 a7.5 7.5 0 1 0 15 0 a7.5 7.5 0 1 0 -15 0zM836.9 37.5 a7.5 7.5 0 1 0 15 0 a7.5 7.5 0 1 0 -15 0zM771.94 75 a7.5 7.5 0 1 0 15 0 a7.5 7.5 0 1 0 -15 0zM901.85 75 a7.5 7.5 0 1 0 15 0 a7.5 7.5 0 1 0 -15 0zM901.85 150 a7.5 7.5 0 1 0 15 0 a7.5 7.5 0 1 0 -15 0zM836.9 187.5 a7.5 7.5 0 1 0 15 0 a7.5 7.5 0 1 0 -15 0zM771.94 150 a7.5 7.5 0 1 0 15 0 a7.5 7.5 0 1 0 -15 0zM836.9 262.5 a7.5 7.5 0 1 0 15 0 a7.5 7.5 0 1 0 -15 0zM771.94 300 a7.5 7.5 0 1 0 15 0 a7.5 7.5 0 1 0 -15 0zM901.85 300 a7.5 7.5 0 1 0 15 0 a7.5 7.5 0 1 0 -15 0zM901.85 375 a7.5 7.5 0 1 0 15 0 a7.5 7.5 0 1 0 -15 0zM836.9 412.5 a7.5 7.5 0 1 0 15 0 a7.5 7.5 0 1 0 -15 0zM771.94 375 a7.5 7.5 0 1 0 15 0 a7.5 7.5 0 1 0 -15 0zM836.9 487.5 a7.5 7.5 0 1 0 15 0 a7.5 7.5 0 1 0 -15 0zM771.94 525 a7.5 7.5 0 1 0 15 0 a7.5 7.5 0 1 0 -15 0zM901.85 525 a7.5 7.5 0 1 0 15 0 a7.5 7.5 0 1 0 -15 0zM901.85 600 a7.5 7.5 0 1 0 15 0 a7.5 7.5 0 1 0 -15 0zM836.9 637.5 a7.5 7.5 0 1 0 15 0 a7.5 7.5 0 1 0 -15 0zM771.94 600 a7.5 7.5 0 1 0 15 0 a7.5 7.5 0 1 0 -15 0zM836.9 712.5 a7.5 7.5 0 1 0 15 0 a7.5 7.5 0 1 0 -15 0zM771.94 750 a7.5 7.5 0 1 0 15 0 a7.5 7.5 0 1 0 -15 0zM901.85 750 a7.5 7.5 0 1 0 15 0 a7.5 7.5 0 1 0 -15 0zM901.85 825 a7.5 7.5 0 1 0 15 0 a7.5 7.5 0 1 0 -15 0zM836.9 862.5 a7.5 7.5 0 1 0 15 0 a7.5 7.5 0 1 0 -15 0zM771.94 825 a7.5 7.5 0 1 0 15 0 a7.5 7.5 0 1 0 -15 0zM836.9 937.5 a7.5 7.5 0 1 0 15 0 a7.5 7.5 0 1 0 -15 0zM771.94 975 a7.5 7.5 0 1 0 15 0 a7.5 7.5 0 1 0 -15 0zM901.85 975 a7.5 7.5 0 1 0 15 0 a7.5 7.5 0 1 0 -15 0zM901.85 1050 a7.5 7.5 0 1 0 15 0 a7.5 7.5 0 1 0 -15 0zM836.9 1087.5 a7.5 7.5 0 1 0 15 0 a7.5 7.5 0 1 0 -15 0zM771.94 1050 a7.5 7.5 0 1 0 15 0 a7.5 7.5 0 1 0 -15 0zM836.9 1162.5 a7.5 7.5 0 1 0 15 0 a7.5 7.5 0 1 0 -15 0zM771.94 1200 a7.5 7.5 0 1 0 15 0 a7.5 7.5 0 1 0 -15 0zM901.85 1200 a7.5 7.5 0 1 0 15 0 a7.5 7.5 0 1 0 -15 0zM901.85 1275 a7.5 7.5 0 1 0 15 0 a7.5 7.5 0 1 0 -15 0zM836.9 1312.5 a7.5 7.5 0 1 0 15 0 a7.5 7.5 0 1 0 -15 0zM771.94 1275 a7.5 7.5 0 1 0 15 0 a7.5 7.5 0 1 0 -15 0zM836.9 1387.5 a7.5 7.5 0 1 0 15 0 a7.5 7.5 0 1 0 -15 0zM771.94 1425 a7.5 7.5 0 1 0 15 0 a7.5 7.5 0 1 0 -15 0zM901.85 1425 a7.5 7.5 0 1 0 15 0 a7.5 7.5 0 1 0 -15 0zM901.85 1500 a7.5 7.5 0 1 0 15 0 a7.5 7.5 0 1 0 -15 0zM836.9 1537.5 a7.5 7.5 0 1 0 15 0 a7.5 7.5 0 1 0 -15 0zM771.94 1500 a7.5 7.5 0 1 0 15 0 a7.5 7.5 0 1 0 -15 0zM836.9 1612.5 a7.5 7.5 0 1 0 15 0 a7.5 7.5 0 1 0 -15 0zM771.94 1650 a7.5 7.5 0 1 0 15 0 a7.5 7.5 0 1 0 -15 0zM901.85 1650 a7.5 7.5 0 1 0 15 0 a7.5 7.5 0 1 0 -15 0zM901.85 1725 a7.5 7.5 0 1 0 15 0 a7.5 7.5 0 1 0 -15 0zM836.9 1762.5 a7.5 7.5 0 1 0 15 0 a7.5 7.5 0 1 0 -15 0zM771.94 1725 a7.5 7.5 0 1 0 15 0 a7.5 7.5 0 1 0 -15 0zM836.9 1837.5 a7.5 7.5 0 1 0 15 0 a7.5 7.5 0 1 0 -15 0zM771.94 1875 a7.5 7.5 0 1 0 15 0 a7.5 7.5 0 1 0 -15 0zM901.85 1875 a7.5 7.5 0 1 0 15 0 a7.5 7.5 0 1 0 -15 0zM901.85 1950 a7.5 7.5 0 1 0 15 0 a7.5 7.5 0 1 0 -15 0zM836.9 1987.5 a7.5 7.5 0 1 0 15 0 a7.5 7.5 0 1 0 -15 0zM771.94 1950 a7.5 7.5 0 1 0 15 0 a7.5 7.5 0 1 0 -15 0zM836.9 2062.5 a7.5 7.5 0 1 0 15 0 a7.5 7.5 0 1 0 -15 0zM771.94 2100 a7.5 7.5 0 1 0 15 0 a7.5 7.5 0 1 0 -15 0zM901.85 2100 a7.5 7.5 0 1 0 15 0 a7.5 7.5 0 1 0 -15 0zM901.85 2175 a7.5 7.5 0 1 0 15 0 a7.5 7.5 0 1 0 -15 0zM836.9 2212.5 a7.5 7.5 0 1 0 15 0 a7.5 7.5 0 1 0 -15 0zM771.94 2175 a7.5 7.5 0 1 0 15 0 a7.5 7.5 0 1 0 -15 0zM836.9 2287.5 a7.5 7.5 0 1 0 15 0 a7.5 7.5 0 1 0 -15 0zM771.94 2325 a7.5 7.5 0 1 0 15 0 a7.5 7.5 0 1 0 -15 0zM901.85 2325 a7.5 7.5 0 1 0 15 0 a7.5 7.5 0 1 0 -15 0zM901.85 2400 a7.5 7.5 0 1 0 15 0 a7.5 7.5 0 1 0 -15 0zM836.9 2437.5 a7.5 7.5 0 1 0 15 0 a7.5 7.5 0 1 0 -15 0zM771.94 2400 a7.5 7.5 0 1 0 15 0 a7.5 7.5 0 1 0 -15 0zM836.9 2512.5 a7.5 7.5 0 1 0 15 0 a7.5 7.5 0 1 0 -15 0zM771.94 2550 a7.5 7.5 0 1 0 15 0 a7.5 7.5 0 1 0 -15 0zM901.85 2550 a7.5 7.5 0 1 0 15 0 a7.5 7.5 0 1 0 -15 0zM901.85 2625 a7.5 7.5 0 1 0 15 0 a7.5 7.5 0 1 0 -15 0zM836.9 2662.5 a7.5 7.5 0 1 0 15 0 a7.5 7.5 0 1 0 -15 0zM771.94 2625 a7.5 7.5 0 1 0 15 0 a7.5 7.5 0 1 0 -15 0zM901.85 -75 a7.5 7.5 0 1 0 15 0 a7.5 7.5 0 1 0 -15 0zM966.81 -37.5 a7.5 7.5 0 1 0 15 0 a7.5 7.5 0 1 0 -15 0zM966.81 37.5 a7.5 7.5 0 1 0 15 0 a7.5 7.5 0 1 0 -15 0zM1031.76 75 a7.5 7.5 0 1 0 15 0 a7.5 7.5 0 1 0 -15 0zM1031.76 150 a7.5 7.5 0 1 0 15 0 a7.5 7.5 0 1 0 -15 0zM966.81 187.5 a7.5 7.5 0 1 0 15 0 a7.5 7.5 0 1 0 -15 0zM966.81 262.5 a7.5 7.5 0 1 0 15 0 a7.5 7.5 0 1 0 -15 0zM1031.76 300 a7.5 7.5 0 1 0 15 0 a7.5 7.5 0 1 0 -15 0zM1031.76 375 a7.5 7.5 0 1 0 15 0 a7.5 7.5 0 1 0 -15 0zM966.81 412.5 a7.5 7.5 0 1 0 15 0 a7.5 7.5 0 1 0 -15 0zM966.81 487.5 a7.5 7.5 0 1 0 15 0 a7.5 7.5 0 1 0 -15 0zM1031.76 525 a7.5 7.5 0 1 0 15 0 a7.5 7.5 0 1 0 -15 0zM1031.76 600 a7.5 7.5 0 1 0 15 0 a7.5 7.5 0 1 0 -15 0zM966.81 637.5 a7.5 7.5 0 1 0 15 0 a7.5 7.5 0 1 0 -15 0zM966.81 712.5 a7.5 7.5 0 1 0 15 0 a7.5 7.5 0 1 0 -15 0zM1031.76 750 a7.5 7.5 0 1 0 15 0 a7.5 7.5 0 1 0 -15 0zM1031.76 825 a7.5 7.5 0 1 0 15 0 a7.5 7.5 0 1 0 -15 0zM966.81 862.5 a7.5 7.5 0 1 0 15 0 a7.5 7.5 0 1 0 -15 0zM966.81 937.5 a7.5 7.5 0 1 0 15 0 a7.5 7.5 0 1 0 -15 0zM1031.76 975 a7.5 7.5 0 1 0 15 0 a7.5 7.5 0 1 0 -15 0zM1031.76 1050 a7.5 7.5 0 1 0 15 0 a7.5 7.5 0 1 0 -15 0zM966.81 1087.5 a7.5 7.5 0 1 0 15 0 a7.5 7.5 0 1 0 -15 0zM966.81 1162.5 a7.5 7.5 0 1 0 15 0 a7.5 7.5 0 1 0 -15 0zM1031.76 1200 a7.5 7.5 0 1 0 15 0 a7.5 7.5 0 1 0 -15 0zM1031.76 1275 a7.5 7.5 0 1 0 15 0 a7.5 7.5 0 1 0 -15 0zM966.81 1312.5 a7.5 7.5 0 1 0 15 0 a7.5 7.5 0 1 0 -15 0zM966.81 1387.5 a7.5 7.5 0 1 0 15 0 a7.5 7.5 0 1 0 -15 0zM1031.76 1425 a7.5 7.5 0 1 0 15 0 a7.5 7.5 0 1 0 -15 0zM1031.76 1500 a7.5 7.5 0 1 0 15 0 a7.5 7.5 0 1 0 -15 0zM966.81 1537.5 a7.5 7.5 0 1 0 15 0 a7.5 7.5 0 1 0 -15 0zM966.81 1612.5 a7.5 7.5 0 1 0 15 0 a7.5 7.5 0 1 0 -15 0zM1031.76 1650 a7.5 7.5 0 1 0 15 0 a7.5 7.5 0 1 0 -15 0zM1031.76 1725 a7.5 7.5 0 1 0 15 0 a7.5 7.5 0 1 0 -15 0zM966.81 1762.5 a7.5 7.5 0 1 0 15 0 a7.5 7.5 0 1 0 -15 0zM966.81 1837.5 a7.5 7.5 0 1 0 15 0 a7.5 7.5 0 1 0 -15 0zM1031.76 1875 a7.5 7.5 0 1 0 15 0 a7.5 7.5 0 1 0 -15 0zM1031.76 1950 a7.5 7.5 0 1 0 15 0 a7.5 7.5 0 1 0 -15 0zM966.81 1987.5 a7.5 7.5 0 1 0 15 0 a7.5 7.5 0 1 0 -15 0zM966.81 2062.5 a7.5 7.5 0 1 0 15 0 a7.5 7.5 0 1 0 -15 0zM1031.76 2100 a7.5 7.5 0 1 0 15 0 a7.5 7.5 0 1 0 -15 0zM1031.76 2175 a7.5 7.5 0 1 0 15 0 a7.5 7.5 0 1 0 -15 0zM966.81 2212.5 a7.5 7.5 0 1 0 15 0 a7.5 7.5 0 1 0 -15 0zM966.81 2287.5 a7.5 7.5 0 1 0 15 0 a7.5 7.5 0 1 0 -15 0zM1031.76 2325 a7.5 7.5 0 1 0 15 0 a7.5 7.5 0 1 0 -15 0zM1031.76 2400 a7.5 7.5 0 1 0 15 0 a7.5 7.5 0 1 0 -15 0zM966.81 2437.5 a7.5 7.5 0 1 0 15 0 a7.5 7.5 0 1 0 -15 0zM966.81 2512.5 a7.5 7.5 0 1 0 15 0 a7.5 7.5 0 1 0 -15 0zM1031.76 2550 a7.5 7.5 0 1 0 15 0 a7.5 7.5 0 1 0 -15 0zM1031.76 2625 a7.5 7.5 0 1 0 15 0 a7.5 7.5 0 1 0 -15 0zM966.81 2662.5 a7.5 7.5 0 1 0 15 0 a7.5 7.5 0 1 0 -15 0zM1031.76 -75 a7.5 7.5 0 1 0 15 0 a7.5 7.5 0 1 0 -15 0zM1096.71 -37.5 a7.5 7.5 0 1 0 15 0 a7.5 7.5 0 1 0 -15 0zM1096.71 37.5 a7.5 7.5 0 1 0 15 0 a7.5 7.5 0 1 0 -15 0zM1161.67 75 a7.5 7.5 0 1 0 15 0 a7.5 7.5 0 1 0 -15 0zM1161.67 150 a7.5 7.5 0 1 0 15 0 a7.5 7.5 0 1 0 -15 0zM1096.71 187.5 a7.5 7.5 0 1 0 15 0 a7.5 7.5 0 1 0 -15 0zM1096.71 262.5 a7.5 7.5 0 1 0 15 0 a7.5 7.5 0 1 0 -15 0zM1161.67 300 a7.5 7.5 0 1 0 15 0 a7.5 7.5 0 1 0 -15 0zM1161.67 375 a7.5 7.5 0 1 0 15 0 a7.5 7.5 0 1 0 -15 0zM1096.71 412.5 a7.5 7.5 0 1 0 15 0 a7.5 7.5 0 1 0 -15 0zM1096.71 487.5 a7.5 7.5 0 1 0 15 0 a7.5 7.5 0 1 0 -15 0zM1161.67 525 a7.5 7.5 0 1 0 15 0 a7.5 7.5 0 1 0 -15 0zM1161.67 600 a7.5 7.5 0 1 0 15 0 a7.5 7.5 0 1 0 -15 0zM1096.71 637.5 a7.5 7.5 0 1 0 15 0 a7.5 7.5 0 1 0 -15 0zM1096.71 712.5 a7.5 7.5 0 1 0 15 0 a7.5 7.5 0 1 0 -15 0zM1161.67 750 a7.5 7.5 0 1 0 15 0 a7.5 7.5 0 1 0 -15 0zM1161.67 825 a7.5 7.5 0 1 0 15 0 a7.5 7.5 0 1 0 -15 0zM1096.71 862.5 a7.5 7.5 0 1 0 15 0 a7.5 7.5 0 1 0 -15 0zM1096.71 937.5 a7.5 7.5 0 1 0 15 0 a7.5 7.5 0 1 0 -15 0zM1161.67 975 a7.5 7.5 0 1 0 15 0 a7.5 7.5 0 1 0 -15 0zM1161.67 1050 a7.5 7.5 0 1 0 15 0 a7.5 7.5 0 1 0 -15 0zM1096.71 1087.5 a7.5 7.5 0 1 0 15 0 a7.5 7.5 0 1 0 -15 0zM1096.71 1162.5 a7.5 7.5 0 1 0 15 0 a7.5 7.5 0 1 0 -15 0zM1161.67 1200 a7.5 7.5 0 1 0 15 0 a7.5 7.5 0 1 0 -15 0zM1161.67 1275 a7.5 7.5 0 1 0 15 0 a7.5 7.5 0 1 0 -15 0zM1096.71 1312.5 a7.5 7.5 0 1 0 15 0 a7.5 7.5 0 1 0 -15 0zM1096.71 1387.5 a7.5 7.5 0 1 0 15 0 a7.5 7.5 0 1 0 -15 0zM1161.67 1425 a7.5 7.5 0 1 0 15 0 a7.5 7.5 0 1 0 -15 0zM1161.67 1500 a7.5 7.5 0 1 0 15 0 a7.5 7.5 0 1 0 -15 0zM1096.71 1537.5 a7.5 7.5 0 1 0 15 0 a7.5 7.5 0 1 0 -15 0zM1096.71 1612.5 a7.5 7.5 0 1 0 15 0 a7.5 7.5 0 1 0 -15 0zM1161.67 1650 a7.5 7.5 0 1 0 15 0 a7.5 7.5 0 1 0 -15 0zM1161.67 1725 a7.5 7.5 0 1 0 15 0 a7.5 7.5 0 1 0 -15 0zM1096.71 1762.5 a7.5 7.5 0 1 0 15 0 a7.5 7.5 0 1 0 -15 0zM1096.71 1837.5 a7.5 7.5 0 1 0 15 0 a7.5 7.5 0 1 0 -15 0zM1161.67 1875 a7.5 7.5 0 1 0 15 0 a7.5 7.5 0 1 0 -15 0zM1161.67 1950 a7.5 7.5 0 1 0 15 0 a7.5 7.5 0 1 0 -15 0zM1096.71 1987.5 a7.5 7.5 0 1 0 15 0 a7.5 7.5 0 1 0 -15 0zM1096.71 2062.5 a7.5 7.5 0 1 0 15 0 a7.5 7.5 0 1 0 -15 0zM1161.67 2100 a7.5 7.5 0 1 0 15 0 a7.5 7.5 0 1 0 -15 0zM1161.67 2175 a7.5 7.5 0 1 0 15 0 a7.5 7.5 0 1 0 -15 0zM1096.71 2212.5 a7.5 7.5 0 1 0 15 0 a7.5 7.5 0 1 0 -15 0zM1096.71 2287.5 a7.5 7.5 0 1 0 15 0 a7.5 7.5 0 1 0 -15 0zM1161.67 2325 a7.5 7.5 0 1 0 15 0 a7.5 7.5 0 1 0 -15 0zM1161.67 2400 a7.5 7.5 0 1 0 15 0 a7.5 7.5 0 1 0 -15 0zM1096.71 2437.5 a7.5 7.5 0 1 0 15 0 a7.5 7.5 0 1 0 -15 0zM1096.71 2512.5 a7.5 7.5 0 1 0 15 0 a7.5 7.5 0 1 0 -15 0zM1161.67 2550 a7.5 7.5 0 1 0 15 0 a7.5 7.5 0 1 0 -15 0zM1161.67 2625 a7.5 7.5 0 1 0 15 0 a7.5 7.5 0 1 0 -15 0zM1096.71 2662.5 a7.5 7.5 0 1 0 15 0 a7.5 7.5 0 1 0 -15 0zM1161.67 -75 a7.5 7.5 0 1 0 15 0 a7.5 7.5 0 1 0 -15 0zM1226.62 -37.5 a7.5 7.5 0 1 0 15 0 a7.5 7.5 0 1 0 -15 0zM1226.62 37.5 a7.5 7.5 0 1 0 15 0 a7.5 7.5 0 1 0 -15 0zM1291.57 75 a7.5 7.5 0 1 0 15 0 a7.5 7.5 0 1 0 -15 0zM1291.57 150 a7.5 7.5 0 1 0 15 0 a7.5 7.5 0 1 0 -15 0zM1226.62 187.5 a7.5 7.5 0 1 0 15 0 a7.5 7.5 0 1 0 -15 0zM1226.62 262.5 a7.5 7.5 0 1 0 15 0 a7.5 7.5 0 1 0 -15 0zM1291.57 300 a7.5 7.5 0 1 0 15 0 a7.5 7.5 0 1 0 -15 0zM1291.57 375 a7.5 7.5 0 1 0 15 0 a7.5 7.5 0 1 0 -15 0zM1226.62 412.5 a7.5 7.5 0 1 0 15 0 a7.5 7.5 0 1 0 -15 0zM1226.62 487.5 a7.5 7.5 0 1 0 15 0 a7.5 7.5 0 1 0 -15 0zM1291.57 525 a7.5 7.5 0 1 0 15 0 a7.5 7.5 0 1 0 -15 0zM1291.57 600 a7.5 7.5 0 1 0 15 0 a7.5 7.5 0 1 0 -15 0zM1226.62 637.5 a7.5 7.5 0 1 0 15 0 a7.5 7.5 0 1 0 -15 0zM1226.62 712.5 a7.5 7.5 0 1 0 15 0 a7.5 7.5 0 1 0 -15 0zM1291.57 750 a7.5 7.5 0 1 0 15 0 a7.5 7.5 0 1 0 -15 0zM1291.57 825 a7.5 7.5 0 1 0 15 0 a7.5 7.5 0 1 0 -15 0zM1226.62 862.5 a7.5 7.5 0 1 0 15 0 a7.5 7.5 0 1 0 -15 0zM1226.62 937.5 a7.5 7.5 0 1 0 15 0 a7.5 7.5 0 1 0 -15 0zM1291.57 975 a7.5 7.5 0 1 0 15 0 a7.5 7.5 0 1 0 -15 0zM1291.57 1050 a7.5 7.5 0 1 0 15 0 a7.5 7.5 0 1 0 -15 0zM1226.62 1087.5 a7.5 7.5 0 1 0 15 0 a7.5 7.5 0 1 0 -15 0zM1226.62 1162.5 a7.5 7.5 0 1 0 15 0 a7.5 7.5 0 1 0 -15 0zM1291.57 1200 a7.5 7.5 0 1 0 15 0 a7.5 7.5 0 1 0 -15 0zM1291.57 1275 a7.5 7.5 0 1 0 15 0 a7.5 7.5 0 1 0 -15 0zM1226.62 1312.5 a7.5 7.5 0 1 0 15 0 a7.5 7.5 0 1 0 -15 0zM1226.62 1387.5 a7.5 7.5 0 1 0 15 0 a7.5 7.5 0 1 0 -15 0zM1291.57 1425 a7.5 7.5 0 1 0 15 0 a7.5 7.5 0 1 0 -15 0zM1291.57 1500 a7.5 7.5 0 1 0 15 0 a7.5 7.5 0 1 0 -15 0zM1226.62 1537.5 a7.5 7.5 0 1 0 15 0 a7.5 7.5 0 1 0 -15 0zM1226.62 1612.5 a7.5 7.5 0 1 0 15 0 a7.5 7.5 0 1 0 -15 0zM1291.57 1650 a7.5 7.5 0 1 0 15 0 a7.5 7.5 0 1 0 -15 0zM1291.57 1725 a7.5 7.5 0 1 0 15 0 a7.5 7.5 0 1 0 -15 0zM1226.62 1762.5 a7.5 7.5 0 1 0 15 0 a7.5 7.5 0 1 0 -15 0zM1226.62 1837.5 a7.5 7.5 0 1 0 15 0 a7.5 7.5 0 1 0 -15 0zM1291.57 1875 a7.5 7.5 0 1 0 15 0 a7.5 7.5 0 1 0 -15 0zM1291.57 1950 a7.5 7.5 0 1 0 15 0 a7.5 7.5 0 1 0 -15 0zM1226.62 1987.5 a7.5 7.5 0 1 0 15 0 a7.5 7.5 0 1 0 -15 0zM1226.62 2062.5 a7.5 7.5 0 1 0 15 0 a7.5 7.5 0 1 0 -15 0zM1291.57 2100 a7.5 7.5 0 1 0 15 0 a7.5 7.5 0 1 0 -15 0zM1291.57 2175 a7.5 7.5 0 1 0 15 0 a7.5 7.5 0 1 0 -15 0zM1226.62 2212.5 a7.5 7.5 0 1 0 15 0 a7.5 7.5 0 1 0 -15 0zM1226.62 2287.5 a7.5 7.5 0 1 0 15 0 a7.5 7.5 0 1 0 -15 0zM1291.57 2325 a7.5 7.5 0 1 0 15 0 a7.5 7.5 0 1 0 -15 0zM1291.57 2400 a7.5 7.5 0 1 0 15 0 a7.5 7.5 0 1 0 -15 0zM1226.62 2437.5 a7.5 7.5 0 1 0 15 0 a7.5 7.5 0 1 0 -15 0zM1226.62 2512.5 a7.5 7.5 0 1 0 15 0 a7.5 7.5 0 1 0 -15 0zM1291.57 2550 a7.5 7.5 0 1 0 15 0 a7.5 7.5 0 1 0 -15 0zM1291.57 2625 a7.5 7.5 0 1 0 15 0 a7.5 7.5 0 1 0 -15 0zM1226.62 2662.5 a7.5 7.5 0 1 0 15 0 a7.5 7.5 0 1 0 -15 0zM1291.58 -75 a7.5 7.5 0 1 0 15 0 a7.5 7.5 0 1 0 -15 0zM1356.53 -37.5 a7.5 7.5 0 1 0 15 0 a7.5 7.5 0 1 0 -15 0zM1356.53 37.5 a7.5 7.5 0 1 0 15 0 a7.5 7.5 0 1 0 -15 0zM1291.58 75 a7.5 7.5 0 1 0 15 0 a7.5 7.5 0 1 0 -15 0zM1421.48 75 a7.5 7.5 0 1 0 15 0 a7.5 7.5 0 1 0 -15 0zM1421.48 150 a7.5 7.5 0 1 0 15 0 a7.5 7.5 0 1 0 -15 0zM1356.53 187.5 a7.5 7.5 0 1 0 15 0 a7.5 7.5 0 1 0 -15 0zM1291.58 150 a7.5 7.5 0 1 0 15 0 a7.5 7.5 0 1 0 -15 0zM1356.53 262.5 a7.5 7.5 0 1 0 15 0 a7.5 7.5 0 1 0 -15 0zM1291.58 300 a7.5 7.5 0 1 0 15 0 a7.5 7.5 0 1 0 -15 0zM1421.48 300 a7.5 7.5 0 1 0 15 0 a7.5 7.5 0 1 0 -15 0zM1421.48 375 a7.5 7.5 0 1 0 15 0 a7.5 7.5 0 1 0 -15 0zM1356.53 412.5 a7.5 7.5 0 1 0 15 0 a7.5 7.5 0 1 0 -15 0zM1291.58 375 a7.5 7.5 0 1 0 15 0 a7.5 7.5 0 1 0 -15 0zM1356.53 487.5 a7.5 7.5 0 1 0 15 0 a7.5 7.5 0 1 0 -15 0zM1291.58 525 a7.5 7.5 0 1 0 15 0 a7.5 7.5 0 1 0 -15 0zM1421.48 525 a7.5 7.5 0 1 0 15 0 a7.5 7.5 0 1 0 -15 0zM1421.48 600 a7.5 7.5 0 1 0 15 0 a7.5 7.5 0 1 0 -15 0zM1356.53 637.5 a7.5 7.5 0 1 0 15 0 a7.5 7.5 0 1 0 -15 0zM1291.58 600 a7.5 7.5 0 1 0 15 0 a7.5 7.5 0 1 0 -15 0zM1356.53 712.5 a7.5 7.5 0 1 0 15 0 a7.5 7.5 0 1 0 -15 0zM1291.58 750 a7.5 7.5 0 1 0 15 0 a7.5 7.5 0 1 0 -15 0zM1421.48 750 a7.5 7.5 0 1 0 15 0 a7.5 7.5 0 1 0 -15 0zM1421.48 825 a7.5 7.5 0 1 0 15 0 a7.5 7.5 0 1 0 -15 0zM1356.53 862.5 a7.5 7.5 0 1 0 15 0 a7.5 7.5 0 1 0 -15 0zM1291.58 825 a7.5 7.5 0 1 0 15 0 a7.5 7.5 0 1 0 -15 0zM1356.53 937.5 a7.5 7.5 0 1 0 15 0 a7.5 7.5 0 1 0 -15 0zM1291.58 975 a7.5 7.5 0 1 0 15 0 a7.5 7.5 0 1 0 -15 0zM1421.48 975 a7.5 7.5 0 1 0 15 0 a7.5 7.5 0 1 0 -15 0zM1421.48 1050 a7.5 7.5 0 1 0 15 0 a7.5 7.5 0 1 0 -15 0zM1356.53 1087.5 a7.5 7.5 0 1 0 15 0 a7.5 7.5 0 1 0 -15 0zM1291.58 1050 a7.5 7.5 0 1 0 15 0 a7.5 7.5 0 1 0 -15 0zM1356.53 1162.5 a7.5 7.5 0 1 0 15 0 a7.5 7.5 0 1 0 -15 0zM1291.58 1200 a7.5 7.5 0 1 0 15 0 a7.5 7.5 0 1 0 -15 0zM1421.48 1200 a7.5 7.5 0 1 0 15 0 a7.5 7.5 0 1 0 -15 0zM1421.48 1275 a7.5 7.5 0 1 0 15 0 a7.5 7.5 0 1 0 -15 0zM1356.53 1312.5 a7.5 7.5 0 1 0 15 0 a7.5 7.5 0 1 0 -15 0zM1291.58 1275 a7.5 7.5 0 1 0 15 0 a7.5 7.5 0 1 0 -15 0zM1356.53 1387.5 a7.5 7.5 0 1 0 15 0 a7.5 7.5 0 1 0 -15 0zM1291.58 1425 a7.5 7.5 0 1 0 15 0 a7.5 7.5 0 1 0 -15 0zM1421.48 1425 a7.5 7.5 0 1 0 15 0 a7.5 7.5 0 1 0 -15 0zM1421.48 1500 a7.5 7.5 0 1 0 15 0 a7.5 7.5 0 1 0 -15 0zM1356.53 1537.5 a7.5 7.5 0 1 0 15 0 a7.5 7.5 0 1 0 -15 0zM1291.58 1500 a7.5 7.5 0 1 0 15 0 a7.5 7.5 0 1 0 -15 0zM1356.53 1612.5 a7.5 7.5 0 1 0 15 0 a7.5 7.5 0 1 0 -15 0zM1291.58 1650 a7.5 7.5 0 1 0 15 0 a7.5 7.5 0 1 0 -15 0zM1421.48 1650 a7.5 7.5 0 1 0 15 0 a7.5 7.5 0 1 0 -15 0zM1421.48 1725 a7.5 7.5 0 1 0 15 0 a7.5 7.5 0 1 0 -15 0zM1356.53 1762.5 a7.5 7.5 0 1 0 15 0 a7.5 7.5 0 1 0 -15 0zM1291.58 1725 a7.5 7.5 0 1 0 15 0 a7.5 7.5 0 1 0 -15 0zM1356.53 1837.5 a7.5 7.5 0 1 0 15 0 a7.5 7.5 0 1 0 -15 0zM1291.58 1875 a7.5 7.5 0 1 0 15 0 a7.5 7.5 0 1 0 -15 0zM1421.48 1875 a7.5 7.5 0 1 0 15 0 a7.5 7.5 0 1 0 -15 0zM1421.48 1950 a7.5 7.5 0 1 0 15 0 a7.5 7.5 0 1 0 -15 0zM1356.53 1987.5 a7.5 7.5 0 1 0 15 0 a7.5 7.5 0 1 0 -15 0zM1291.58 1950 a7.5 7.5 0 1 0 15 0 a7.5 7.5 0 1 0 -15 0zM1356.53 2062.5 a7.5 7.5 0 1 0 15 0 a7.5 7.5 0 1 0 -15 0zM1291.58 2100 a7.5 7.5 0 1 0 15 0 a7.5 7.5 0 1 0 -15 0zM1421.48 2100 a7.5 7.5 0 1 0 15 0 a7.5 7.5 0 1 0 -15 0zM1421.48 2175 a7.5 7.5 0 1 0 15 0 a7.5 7.5 0 1 0 -15 0zM1356.53 2212.5 a7.5 7.5 0 1 0 15 0 a7.5 7.5 0 1 0 -15 0zM1291.58 2175 a7.5 7.5 0 1 0 15 0 a7.5 7.5 0 1 0 -15 0zM1356.53 2287.5 a7.5 7.5 0 1 0 15 0 a7.5 7.5 0 1 0 -15 0zM1291.58 2325 a7.5 7.5 0 1 0 15 0 a7.5 7.5 0 1 0 -15 0zM1421.48 2325 a7.5 7.5 0 1 0 15 0 a7.5 7.5 0 1 0 -15 0zM1421.48 2400 a7.5 7.5 0 1 0 15 0 a7.5 7.5 0 1 0 -15 0zM1356.53 2437.5 a7.5 7.5 0 1 0 15 0 a7.5 7.5 0 1 0 -15 0zM1291.58 2400 a7.5 7.5 0 1 0 15 0 a7.5 7.5 0 1 0 -15 0zM1356.53 2512.5 a7.5 7.5 0 1 0 15 0 a7.5 7.5 0 1 0 -15 0zM1291.58 2550 a7.5 7.5 0 1 0 15 0 a7.5 7.5 0 1 0 -15 0zM1421.48 2550 a7.5 7.5 0 1 0 15 0 a7.5 7.5 0 1 0 -15 0zM1421.48 2625 a7.5 7.5 0 1 0 15 0 a7.5 7.5 0 1 0 -15 0zM1356.53 2662.5 a7.5 7.5 0 1 0 15 0 a7.5 7.5 0 1 0 -15 0zM1291.58 2625 a7.5 7.5 0 1 0 15 0 a7.5 7.5 0 1 0 -15 0zM1421.48 -75 a7.5 7.5 0 1 0 15 0 a7.5 7.5 0 1 0 -15 0zM1486.44 -37.5 a7.5 7.5 0 1 0 15 0 a7.5 7.5 0 1 0 -15 0zM1486.44 37.5 a7.5 7.5 0 1 0 15 0 a7.5 7.5 0 1 0 -15 0zM1551.39 75 a7.5 7.5 0 1 0 15 0 a7.5 7.5 0 1 0 -15 0zM1551.39 150 a7.5 7.5 0 1 0 15 0 a7.5 7.5 0 1 0 -15 0zM1486.44 187.5 a7.5 7.5 0 1 0 15 0 a7.5 7.5 0 1 0 -15 0zM1486.44 262.5 a7.5 7.5 0 1 0 15 0 a7.5 7.5 0 1 0 -15 0zM1551.39 300 a7.5 7.5 0 1 0 15 0 a7.5 7.5 0 1 0 -15 0zM1551.39 375 a7.5 7.5 0 1 0 15 0 a7.5 7.5 0 1 0 -15 0zM1486.44 412.5 a7.5 7.5 0 1 0 15 0 a7.5 7.5 0 1 0 -15 0zM1486.44 487.5 a7.5 7.5 0 1 0 15 0 a7.5 7.5 0 1 0 -15 0zM1551.39 525 a7.5 7.5 0 1 0 15 0 a7.5 7.5 0 1 0 -15 0zM1551.39 600 a7.5 7.5 0 1 0 15 0 a7.5 7.5 0 1 0 -15 0zM1486.44 637.5 a7.5 7.5 0 1 0 15 0 a7.5 7.5 0 1 0 -15 0zM1486.44 712.5 a7.5 7.5 0 1 0 15 0 a7.5 7.5 0 1 0 -15 0zM1551.39 750 a7.5 7.5 0 1 0 15 0 a7.5 7.5 0 1 0 -15 0zM1551.39 825 a7.5 7.5 0 1 0 15 0 a7.5 7.5 0 1 0 -15 0zM1486.44 862.5 a7.5 7.5 0 1 0 15 0 a7.5 7.5 0 1 0 -15 0zM1486.44 937.5 a7.5 7.5 0 1 0 15 0 a7.5 7.5 0 1 0 -15 0zM1551.39 975 a7.5 7.5 0 1 0 15 0 a7.5 7.5 0 1 0 -15 0zM1551.39 1050 a7.5 7.5 0 1 0 15 0 a7.5 7.5 0 1 0 -15 0zM1486.44 1087.5 a7.5 7.5 0 1 0 15 0 a7.5 7.5 0 1 0 -15 0zM1486.44 1162.5 a7.5 7.5 0 1 0 15 0 a7.5 7.5 0 1 0 -15 0zM1551.39 1200 a7.5 7.5 0 1 0 15 0 a7.5 7.5 0 1 0 -15 0zM1551.39 1275 a7.5 7.5 0 1 0 15 0 a7.5 7.5 0 1 0 -15 0zM1486.44 1312.5 a7.5 7.5 0 1 0 15 0 a7.5 7.5 0 1 0 -15 0zM1486.44 1387.5 a7.5 7.5 0 1 0 15 0 a7.5 7.5 0 1 0 -15 0zM1551.39 1425 a7.5 7.5 0 1 0 15 0 a7.5 7.5 0 1 0 -15 0zM1551.39 1500 a7.5 7.5 0 1 0 15 0 a7.5 7.5 0 1 0 -15 0zM1486.44 1537.5 a7.5 7.5 0 1 0 15 0 a7.5 7.5 0 1 0 -15 0zM1486.44 1612.5 a7.5 7.5 0 1 0 15 0 a7.5 7.5 0 1 0 -15 0zM1551.39 1650 a7.5 7.5 0 1 0 15 0 a7.5 7.5 0 1 0 -15 0zM1551.39 1725 a7.5 7.5 0 1 0 15 0 a7.5 7.5 0 1 0 -15 0zM1486.44 1762.5 a7.5 7.5 0 1 0 15 0 a7.5 7.5 0 1 0 -15 0zM1486.44 1837.5 a7.5 7.5 0 1 0 15 0 a7.5 7.5 0 1 0 -15 0zM1551.39 1875 a7.5 7.5 0 1 0 15 0 a7.5 7.5 0 1 0 -15 0zM1551.39 1950 a7.5 7.5 0 1 0 15 0 a7.5 7.5 0 1 0 -15 0zM1486.44 1987.5 a7.5 7.5 0 1 0 15 0 a7.5 7.5 0 1 0 -15 0zM1486.44 2062.5 a7.5 7.5 0 1 0 15 0 a7.5 7.5 0 1 0 -15 0zM1551.39 2100 a7.5 7.5 0 1 0 15 0 a7.5 7.5 0 1 0 -15 0zM1551.39 2175 a7.5 7.5 0 1 0 15 0 a7.5 7.5 0 1 0 -15 0zM1486.44 2212.5 a7.5 7.5 0 1 0 15 0 a7.5 7.5 0 1 0 -15 0zM1486.44 2287.5 a7.5 7.5 0 1 0 15 0 a7.5 7.5 0 1 0 -15 0zM1551.39 2325 a7.5 7.5 0 1 0 15 0 a7.5 7.5 0 1 0 -15 0zM1551.39 2400 a7.5 7.5 0 1 0 15 0 a7.5 7.5 0 1 0 -15 0zM1486.44 2437.5 a7.5 7.5 0 1 0 15 0 a7.5 7.5 0 1 0 -15 0zM1486.44 2512.5 a7.5 7.5 0 1 0 15 0 a7.5 7.5 0 1 0 -15 0zM1551.39 2550 a7.5 7.5 0 1 0 15 0 a7.5 7.5 0 1 0 -15 0zM1551.39 2625 a7.5 7.5 0 1 0 15 0 a7.5 7.5 0 1 0 -15 0zM1486.44 2662.5 a7.5 7.5 0 1 0 15 0 a7.5 7.5 0 1 0 -15 0z" fill="#03305d"></path><path d="M48.36 385.39L96 412.89L96 467.89L48.36 495.39L0.73 467.89L0.73 412.89zM0.73 962.89L48.36 990.39L48.36 1045.39L0.73 1072.89L-46.9 1045.39L-46.9 990.39zM48.36 1540.39L96 1567.89L96 1622.89L48.36 1650.39L0.73 1622.89L0.73 1567.89zM0.73 1952.89L48.36 1980.39L48.36 2035.39L0.73 2062.89L-46.9 2035.39L-46.9 1980.39zM48.36 2035.39L96 2062.89L96 2117.89L48.36 2145.39L0.73 2117.89L0.73 2062.89zM0.73 2117.89L48.36 2145.39L48.36 2200.39L0.73 2227.89L-46.9 2200.39L-46.9 2145.39zM96 797.89L143.63 825.39L143.63 880.39L96 907.89L48.36 880.39L48.36 825.39zM143.63 2365.39L191.26 2392.89L191.26 2447.89L143.63 2475.39L96 2447.89L96 2392.89zM238.89 550.39L286.53 577.89L286.53 632.89L238.89 660.39L191.26 632.89L191.26 577.89zM238.89 1540.39L286.53 1567.89L286.53 1622.89L238.89 1650.39L191.26 1622.89L191.26 1567.89zM286.53 962.89L334.16 990.39L334.16 1045.39L286.53 1072.89L238.89 1045.39L238.89 990.39zM286.53 1127.89L334.16 1155.39L334.16 1210.39L286.53 1237.89L238.89 1210.39L238.89 1155.39zM334.16 1870.39L381.79 1897.89L381.79 1952.89L334.16 1980.39L286.53 1952.89L286.53 1897.89zM334.16 2035.39L381.79 2062.89L381.79 2117.89L334.16 2145.39L286.53 2117.89L286.53 2062.89zM334.16 2530.39L381.79 2557.89L381.79 2612.89L334.16 2640.39L286.53 2612.89L286.53 2557.89zM429.42 715.39L477.06 742.89L477.06 797.89L429.42 825.39L381.79 797.89L381.79 742.89zM381.79 797.89L429.42 825.39L429.42 880.39L381.79 907.89L334.16 880.39L334.16 825.39zM429.42 1045.39L477.06 1072.89L477.06 1127.89L429.42 1155.39L381.79 1127.89L381.79 1072.89zM429.42 2530.39L477.06 2557.89L477.06 2612.89L429.42 2640.39L381.79 2612.89L381.79 2557.89zM477.06 632.89L524.69 660.39L524.69 715.39L477.06 742.89L429.42 715.39L429.42 660.39zM477.06 797.89L524.69 825.39L524.69 880.39L477.06 907.89L429.42 880.39L429.42 825.39zM524.69 1540.39L572.32 1567.89L572.32 1622.89L524.69 1650.39L477.06 1622.89L477.06 1567.89zM477.06 1622.89L524.69 1650.39L524.69 1705.39L477.06 1732.89L429.42 1705.39L429.42 1650.39zM477.06 2282.89L524.69 2310.39L524.69 2365.39L477.06 2392.89L429.42 2365.39L429.42 2310.39zM572.32 797.89L619.96 825.39L619.96 880.39L572.32 907.89L524.69 880.39L524.69 825.39zM572.32 1127.89L619.96 1155.39L619.96 1210.39L572.32 1237.89L524.69 1210.39L524.69 1155.39zM619.96 1210.39L667.59 1237.89L667.59 1292.89L619.96 1320.39L572.32 1292.89L572.32 1237.89zM667.59 1622.89L715.22 1650.39L715.22 1705.39L667.59 1732.89L619.96 1705.39L619.96 1650.39zM715.22 1870.39L762.85 1897.89L762.85 1952.89L715.22 1980.39L667.59 1952.89L667.59 1897.89zM715.22 2035.39L762.85 2062.89L762.85 2117.89L715.22 2145.39L667.59 2117.89L667.59 2062.89zM715.22 2200.39L762.85 2227.89L762.85 2282.89L715.22 2310.39L667.59 2282.89L667.59 2227.89zM715.22 2530.39L762.85 2557.89L762.85 2612.89L715.22 2640.39L667.59 2612.89L667.59 2557.89zM810.49 550.39L858.12 577.89L858.12 632.89L810.49 660.39L762.85 632.89L762.85 577.89zM810.49 1540.39L858.12 1567.89L858.12 1622.89L810.49 1650.39L762.85 1622.89L762.85 1567.89zM762.85 1622.89L810.49 1650.39L810.49 1705.39L762.85 1732.89L715.22 1705.39L715.22 1650.39zM858.12 -27.11L905.75 0.39L905.75 55.39L858.12 82.89L810.49 55.39L810.49 0.39zM858.12 1127.89L905.75 1155.39L905.75 1210.39L858.12 1237.89L810.49 1210.39L810.49 1155.39zM905.75 1540.39L953.38 1567.89L953.38 1622.89L905.75 1650.39L858.12 1622.89L858.12 1567.89zM905.75 2530.39L953.38 2557.89L953.38 2612.89L905.75 2640.39L858.12 2612.89L858.12 2557.89zM1001.02 385.39L1048.65 412.89L1048.65 467.89L1001.02 495.39L953.38 467.89L953.38 412.89zM1001.02 1540.39L1048.65 1567.89L1048.65 1622.89L1001.02 1650.39L953.38 1622.89L953.38 1567.89zM1048.65 -27.11L1096.28 0.39L1096.28 55.39L1048.65 82.89L1001.02 55.39L1001.02 0.39zM1096.28 55.39L1143.92 82.89L1143.92 137.89L1096.28 165.39L1048.65 137.89L1048.65 82.89zM1096.28 220.39L1143.92 247.89L1143.92 302.89L1096.28 330.39L1048.65 302.89L1048.65 247.89zM1048.65 1787.89L1096.28 1815.39L1096.28 1870.39L1048.65 1897.89L1001.02 1870.39L1001.02 1815.39zM1048.65 2447.89L1096.28 2475.39L1096.28 2530.39L1048.65 2557.89L1001.02 2530.39L1001.02 2475.39zM1143.92 1457.89L1191.55 1485.39L1191.55 1540.39L1143.92 1567.89L1096.28 1540.39L1096.28 1485.39zM1143.92 1787.89L1191.55 1815.39L1191.55 1870.39L1143.92 1897.89L1096.28 1870.39L1096.28 1815.39zM1239.18 797.89L1286.81 825.39L1286.81 880.39L1239.18 907.89L1191.55 880.39L1191.55 825.39zM1239.18 1292.89L1286.81 1320.39L1286.81 1375.39L1239.18 1402.89L1191.55 1375.39L1191.55 1320.39zM1286.81 1540.39L1334.45 1567.89L1334.45 1622.89L1286.81 1650.39L1239.18 1622.89L1239.18 1567.89zM1286.81 2365.39L1334.45 2392.89L1334.45 2447.89L1286.81 2475.39L1239.18 2447.89L1239.18 2392.89zM1382.08 1045.39L1429.71 1072.89L1429.71 1127.89L1382.08 1155.39L1334.45 1127.89L1334.45 1072.89zM1382.08 1540.39L1429.71 1567.89L1429.71 1622.89L1382.08 1650.39L1334.45 1622.89L1334.45 1567.89zM1382.08 2365.39L1429.71 2392.89L1429.71 2447.89L1382.08 2475.39L1334.45 2447.89L1334.45 2392.89zM1477.35 2200.39L1524.98 2227.89L1524.98 2282.89L1477.35 2310.39L1429.71 2282.89L1429.71 2227.89z" stroke="rgba(6, 80, 156, 0.93)" stroke-width="2"></path></g><defs><mask id="SvgjsMask1039"><rect width="1440" height="2580" fill="#ffffff"></rect></mask></defs></svg>