<svg xmlns="http://www.w3.org/2000/svg" version="1.1" xmlns:xlink="http://www.w3.org/1999/xlink" xmlns:svgjs="http://svgjs.dev/svgjs" width="1440" height="2580" preserveAspectRatio="none" viewBox="0 0 1440 2580"><g mask="url(&quot;#SvgjsMask5366&quot;)" fill="none"><rect width="1440" height="2580" x="0" y="0" fill="#0e2a47"></rect><circle r="227.66249225905577" cx="1377.3" cy="1653.03" fill="rgba(15, 53, 108, 1)"></circle><path d="M641.1 1251.8899999999999 L382.3 1152.79L658.7891974721879 1055.250802527812z" stroke="rgba(11, 103, 122, 1)" stroke-width="2.86"></path><path d="M925.13 2477.34 L768.96 2382.81L767.2088803389975 2509.9111196610024z" fill="rgba(41, 107, 116, 1)"></path><rect width="876" height="876" clip-path="url(&quot;#SvgjsClipPath5367&quot;)" x="-278.96" y="764.44" fill="url(&quot;#SvgjsPattern5368&quot;)" transform="rotate(300.99, 159.04, 1202.44)"></rect><rect width="74.6" height="74.6" clip-path="url(&quot;#SvgjsClipPath5369&quot;)" x="710.39" y="705.89" fill="url(&quot;#SvgjsPattern5370&quot;)" transform="rotate(178.94, 747.69, 743.19)"></rect><circle r="198.67598173597744" cx="326.12" cy="2331.59" stroke="rgba(15, 53, 108, 1)" stroke-width="1" stroke-dasharray="2, 2"></circle><circle r="214.88427655028872" cx="270.99" cy="1265.83" stroke="rgba(41, 107, 116, 1)" stroke-width="1"></circle><path d="M444.76 1538a5.6 5.6 0 1 0-9.62-5.74 5.6 5.6 0 1 0 9.62 5.74zM431.02 1529.8a5.6 5.6 0 1 0-9.62-5.74 5.6 5.6 0 1 0 9.62 5.74zM417.28 1521.6a5.6 5.6 0 1 0-9.62-5.74 5.6 5.6 0 1 0 9.62 5.74zM403.54 1513.4a5.6 5.6 0 1 0-9.62-5.74 5.6 5.6 0 1 0 9.62 5.74z" fill="rgba(11, 103, 122, 1)"></path><rect width="198" height="198" clip-path="url(&quot;#SvgjsClipPath5371&quot;)" x="819.45" y="1720.1" fill="url(&quot;#SvgjsPattern5372&quot;)" transform="rotate(353.48, 918.45, 1819.1)"></rect></g><defs><mask id="SvgjsMask5366"><rect width="1440" height="2580" fill="#ffffff"></rect></mask><pattern x="0" y="0" width="6" height="6" patternUnits="userSpaceOnUse" id="SvgjsPattern5368"><path d="M0 6L3 0L6 6" stroke="rgba(11, 103, 122, 1)" fill="none"></path></pattern><clipPath id="SvgjsClipPath5367"><circle r="219" cx="159.04" cy="1202.44"></circle></clipPath><pattern x="0" y="0" width="74.6" height="7.46" patternUnits="userSpaceOnUse" id="SvgjsPattern5370"><rect width="74.6" height="3.73" x="0" y="0" fill="rgba(15, 53, 108, 1)"></rect><rect width="74.6" height="3.73" x="0" y="3.73" fill="rgba(0, 0, 0, 0)"></rect></pattern><clipPath id="SvgjsClipPath5369"><circle r="18.65" cx="747.69" cy="743.19"></circle></clipPath><pattern x="0" y="0" width="6.6" height="6.6" patternUnits="userSpaceOnUse" id="SvgjsPattern5372"><path d="M3.3 1L3.3 5.6M1 3.3L5.6 3.3" stroke="rgba(11, 103, 122, 1)" fill="none" stroke-width="1"></path></pattern><clipPath id="SvgjsClipPath5371"><circle r="49.5" cx="918.45" cy="1819.1"></circle></clipPath></defs></svg>