<svg xmlns="http://www.w3.org/2000/svg" version="1.1" xmlns:xlink="http://www.w3.org/1999/xlink" xmlns:svgjs="http://svgjs.dev/svgjs" width="1440" height="2580" preserveAspectRatio="none" viewBox="0 0 1440 2580"><g mask="url(&quot;#SvgjsMask1429&quot;)" fill="none"><rect width="1440" height="2580" x="0" y="0" fill="rgba(29, 68, 107, 1)"></rect><path d="M840.17 498.36L852.97 498.53 855.62 511.06 868.42 511.23 871.06 523.76 883.87 523.93 886.51 536.47" stroke="rgba(137, 148, 164, 1)" stroke-width="1" stroke-dasharray="4, 4"></path><rect width="460.8" height="460.8" clip-path="url(&quot;#SvgjsClipPath1430&quot;)" x="618.08" y="120.21" fill="url(&quot;#SvgjsPattern1431&quot;)" transform="rotate(235.6, 848.48, 350.61)"></rect><rect width="182.8" height="182.8" clip-path="url(&quot;#SvgjsClipPath1432&quot;)" x="1029.84" y="149.26" fill="url(&quot;#SvgjsPattern1433&quot;)" transform="rotate(222.94, 1121.24, 240.66)"></rect><circle r="120" cx="357.07" cy="2446.63" fill="rgba(33, 139, 156, 1)"></circle><rect width="624" height="624" clip-path="url(&quot;#SvgjsClipPath1434&quot;)" x="108.35" y="971.38" fill="url(&quot;#SvgjsPattern1435&quot;)" transform="rotate(79.93, 420.35, 1283.38)"></rect><rect width="552" height="552" clip-path="url(&quot;#SvgjsClipPath1436&quot;)" x="803.55" y="1037.31" fill="url(&quot;#SvgjsPattern1437&quot;)" transform="rotate(255.14, 1079.55, 1313.31)"></rect><path d="M393.58000000000004 2499.59 L124.91000000000001 2455.06L109.21192646280437 2627.3580735371957z" fill="rgba(33, 139, 156, 1)"></path><path d="M242.94 981.74 L497.16 1127.6L565.6201423604456 859.0998576395546z" stroke="rgba(13, 128, 144, 1)" stroke-width="2.16"></path><path d="M949.18 873.45 L839.6 884.12L963.7882881957244 948.1832881957243z" stroke="rgba(137, 148, 164, 1)" stroke-width="2.22" stroke-dasharray="4, 4"></path></g><defs><mask id="SvgjsMask1429"><rect width="1440" height="2580" fill="#ffffff"></rect></mask><pattern x="0" y="0" width="460.8" height="7.2" patternUnits="userSpaceOnUse" id="SvgjsPattern1431"><rect width="460.8" height="3.6" x="0" y="0" fill="rgba(33, 139, 156, 1)"></rect><rect width="460.8" height="3.6" x="0" y="3.6" fill="rgba(0, 0, 0, 0)"></rect></pattern><clipPath id="SvgjsClipPath1430"><circle r="115.2" cx="848.48" cy="350.61"></circle></clipPath><pattern x="0" y="0" width="9.14" height="9.14" patternUnits="userSpaceOnUse" id="SvgjsPattern1433"><path d="M0 9.14L4.57 0L9.14 9.14" stroke="rgba(33, 139, 156, 1)" fill="none"></path></pattern><clipPath id="SvgjsClipPath1432"><circle r="45.7" cx="1121.24" cy="240.66"></circle></clipPath><pattern x="0" y="0" width="12" height="12" patternUnits="userSpaceOnUse" id="SvgjsPattern1435"><path d="M0 12L6 0L12 12" stroke="rgba(33, 139, 156, 1)" fill="none"></path></pattern><clipPath id="SvgjsClipPath1434"><circle r="156" cx="420.35" cy="1283.38"></circle></clipPath><pattern x="0" y="0" width="6" height="6" patternUnits="userSpaceOnUse" id="SvgjsPattern1437"><path d="M3 1L3 5M1 3L5 3" stroke="rgba(13, 128, 144, 1)" fill="none" stroke-width="1"></path></pattern><clipPath id="SvgjsClipPath1436"><circle r="138" cx="1079.55" cy="1313.31"></circle></clipPath></defs></svg>