<svg xmlns="http://www.w3.org/2000/svg"
     xmlns:xlink="http://www.w3.org/1999/xlink"
     x="0"
     y="0"
     width="661.3333740234375"
     height="477.66668701171875">
    <!-- 内联样式 -->
    <style type="text/css">
        .connection {
            stroke: rgb(20, 20, 20);
        }

        .connection-fill {
            fill: rgb(20, 20, 20);
        }

        .char {
            stroke: rgb(0, 0, 0);
            fill: rgb(0, 0, 0);
        }

        @media (prefers-color-scheme: dark) {
            .connection {
                stroke: rgb(200, 200, 200);
            }

            .connection-fill {
                fill: rgb(200, 200, 200);
            }

            .char {
                stroke: rgb(239, 239, 239);
                fill: rgb(239, 239, 239);
            }
        }
    </style>
    <g class="shapes-region"
       style="stroke: black; fill: none;">
        <g class="arrow-line">
            <path class="connection"
                  stroke-dasharray="6 6"
                  d="  M267.33,132.33 L267.33,159.67"
                  style="stroke-width: 1; fill: none; fill-opacity: 1;" />
        </g>
        <g class="arrow-line">
            <path class="connection"
                  stroke-dasharray="6 6"
                  d="  M61.33,132.33 L267.33,132.33"
                  style="stroke-width: 1; fill: none; fill-opacity: 1;" />
        </g>
        <g class="composite-shape"
           data-amt="diagram/shapes/plot"
           transform="matrix(1,0,0,1,20,10)">
            <g>
                <g />
                <g>
                    <g class="test-xti"
                       style="font-family: Asana-Math, Asana;">
                        <line x1="0"
                              y1="149.97931341844958"
                              x2="616"
                              y2="149.97931341844958"
                              fill="none"
                              class="connection"
                              stroke-opacity="1"
                              stroke-width="1" />
                        <line x1="116.9481452196445"
                              y1="145.97931341844958"
                              x2="116.9481452196445"
                              y2="153.97931341844958"
                              fill="none"
                              class="connection"
                              stroke-opacity="1"
                              stroke-width="1" />
                        <line x1="192.76845695629126"
                              y1="145.97931341844958"
                              x2="192.76845695629126"
                              y2="153.97931341844958"
                              fill="none"
                              class="connection"
                              stroke-opacity="1"
                              stroke-width="1" />
                        <line x1="268.58876869293806"
                              y1="145.97931341844958"
                              x2="268.58876869293806"
                              y2="153.97931341844958"
                              fill="none"
                              class="connection"
                              stroke-opacity="1"
                              stroke-width="1" />
                        <line x1="344.40908042958483"
                              y1="145.97931341844958"
                              x2="344.40908042958483"
                              y2="153.97931341844958"
                              fill="none"
                              class="connection"
                              stroke-opacity="1"
                              stroke-width="1" />
                        <line x1="420.2293921662316"
                              y1="145.97931341844958"
                              x2="420.2293921662316"
                              y2="153.97931341844958"
                              fill="none"
                              class="connection"
                              stroke-opacity="1"
                              stroke-width="1" />
                        <line x1="496.0497039028784"
                              y1="145.97931341844958"
                              x2="496.0497039028784"
                              y2="153.97931341844958"
                              fill="none"
                              class="connection"
                              stroke-opacity="1"
                              stroke-width="1" />
                        <line x1="571.8700156395251"
                              y1="145.97931341844958"
                              x2="571.8700156395251"
                              y2="153.97931341844958"
                              fill="none"
                              class="connection"
                              stroke-opacity="1"
                              stroke-width="1" />
                        <path d="M611,146.37931341844958 L619,149.97931341844958 L611,153.57931341844957 Z"
                              stroke="none"
                              stroke-width="1"
                              class="connection-fill"
                              fill-opacity="1" />
                    </g>
                    <g class="test-yti"
                       style="font-family: Asana-Math, Asana;">
                        <line x1="41.127833482997715"
                              y1="4"
                              x2="41.127833482997715"
                              y2="446"
                              fill="none"
                              class="connection"
                              stroke-opacity="1"
                              stroke-width="1" />
                        <line x1="37.127833482997715"
                              y1="377.4402486283899"
                              x2="45.127833482997715"
                              y2="377.4402486283899"
                              fill="none"
                              class="connection"
                              stroke-opacity="1"
                              stroke-width="1" />
                        <line x1="37.127833482997715"
                              y1="301.6199368917431"
                              x2="45.127833482997715"
                              y2="301.6199368917431"
                              fill="none"
                              class="connection"
                              stroke-opacity="1"
                              stroke-width="1" />
                        <line x1="37.127833482997715"
                              y1="225.79962515509635"
                              x2="45.127833482997715"
                              y2="225.79962515509635"
                              fill="none"
                              class="connection"
                              stroke-opacity="1"
                              stroke-width="1" />
                        <line x1="37.127833482997715"
                              y1="74.1590016818028"
                              x2="45.127833482997715"
                              y2="74.1590016818028"
                              fill="none"
                              class="connection"
                              stroke-opacity="1"
                              stroke-width="1" />
                        <path d="M37.527833482997714,9 L41.127833482997715,1 L44.72783348299772,9 Z"
                              stroke="none"
                              stroke-width="1"
                              class="connection-fill"
                              fill-opacity="1" />
                    </g>
                    <g class="test-plot-expression">
                        <defs>
                            <clipPath id="cp0vntujad2">
                                <rect x="1"
                                      y="1"
                                      width="618"
                                      height="444" />
                            </clipPath>
                        </defs>
                        <g clip-path="url(#cp0vntujad2)">
                            <path d=" M41.18,892.00 L41.75,892.00 L42.31,892.00 L42.88,892.00 L43.44,892.00 L44.00,892.00 L44.57,892.00 L45.13,892.00 L45.70,892.00 L46.26,892.00 L46.82,892.00 L47.39,892.00 L47.95,892.00 L48.52,892.00 L49.08,892.00 L49.65,892.00 L50.21,892.00 L50.77,892.00 L51.34,892.00 L51.90,892.00 L52.47,892.00 L53.03,892.00 L53.59,892.00 L54.16,892.00 L54.72,876.76 L55.29,831.29 L55.85,789.93 L56.41,752.17 L56.98,717.60 L57.54,685.84 L58.11,656.60 L58.67,629.60 L59.24,604.61 L59.80,581.42 L60.36,559.87 L60.93,539.80 L61.49,521.07 L62.06,503.56 L62.62,487.17 L63.18,471.79 L63.75,457.35 L64.31,443.76 L64.88,430.96 L65.44,418.89 L66.01,407.49 L66.57,396.72 L67.13,386.52 L67.70,376.85 L68.26,367.68 L68.83,358.98 L69.39,350.70 L69.95,342.83 L70.52,335.34 L71.08,328.20 L71.65,321.39 L72.21,314.89 L72.78,308.69 L73.34,302.75 L73.90,297.08 L74.47,291.65 L75.03,286.45 L75.60,281.46 L76.16,276.68 L76.72,272.09 L77.29,267.69 L77.85,263.45 L78.42,259.39 L78.98,255.48 L79.55,251.71 L80.11,248.09 L80.67,244.60 L81.24,241.24 L81.80,238.00 L82.37,234.88 L82.93,231.86 L83.49,228.95 L84.06,226.14 L84.62,223.43 L85.19,220.81 L85.75,218.27 L86.31,215.82 L86.88,213.45 L87.44,211.16 L88.01,208.94 L88.57,206.79 L89.14,204.70 L89.70,202.69 L90.26,200.73 L90.83,198.83 L91.39,196.99 L91.96,195.21 L92.52,193.48 L93.08,191.80 L93.65,190.17 L94.21,188.58 L94.78,187.04 L95.34,185.55 L95.91,184.10 L96.47,182.68 L97.03,181.31 L97.60,179.98 L98.16,178.68 L98.73,177.41 L99.29,176.18 L99.85,174.99 L100.42,173.82 L100.98,172.69 L101.55,171.58 L102.11,170.51 L102.68,169.46 L103.24,168.44 L103.80,167.44 L104.37,166.47 L104.93,165.53 L105.50,164.60 L106.06,163.70 L106.62,162.83 L107.19,161.97 L107.75,161.14 L108.32,160.32 L108.88,159.52 L109.44,158.75 L110.01,157.99 L110.57,157.25 L111.14,156.53 L111.70,155.82 L112.27,155.13 L112.83,154.46 L113.39,153.80 L113.96,153.16 L114.52,152.53 L115.09,151.91 L115.65,151.31 L116.21,150.72 L116.78,150.15 L117.34,149.59 L117.91,149.04 L118.47,148.50 L119.04,147.98 L119.60,147.46 L120.16,146.96 L120.73,146.47 L121.29,145.98 L121.86,145.51 L122.42,145.05 L122.98,144.60 L123.55,144.16 L124.11,143.72 L124.68,143.30 L125.24,142.89 L125.81,142.48 L126.37,142.08 L126.93,141.69 L127.50,141.31 L128.06,140.93 L128.63,140.57 L129.19,140.21 L129.75,139.86 L130.32,139.51 L130.88,139.17 L131.45,138.84 L132.01,138.52 L132.58,138.20 L133.14,137.89 L133.70,137.58 L134.27,137.28 L134.83,136.99 L135.40,136.70 L135.96,136.42 L136.52,136.14 L137.09,135.87 L137.65,135.60 L138.22,135.34 L138.78,135.08 L139.34,134.83 L139.91,134.58 L140.47,134.34 L141.04,134.10 L141.60,133.87 L142.17,133.64 L142.73,133.42 L143.29,133.20 L143.86,132.98 L144.42,132.77 L144.99,132.56 L145.55,132.36 L146.11,132.16 L146.68,131.96 L147.24,131.77 L147.81,131.58 L148.37,131.39 L148.94,131.21 L149.50,131.03 L150.06,130.86 L150.63,130.68 L151.19,130.51 L151.76,130.35 L152.32,130.18 L152.88,130.02 L153.45,129.87 L154.01,129.71 L154.58,129.56 L155.14,129.41 L155.71,129.26 L156.27,129.12 L156.83,128.98 L157.40,128.84 L157.96,128.70 L158.53,128.57 L159.09,128.44 L159.65,128.31 L160.22,128.18 L160.78,128.06 L161.35,127.94 L161.91,127.82 L162.47,127.70 L163.04,127.58 L163.60,127.47 L164.17,127.36 L164.73,127.25 L165.30,127.14 L165.86,127.04 L166.42,126.93 L166.99,126.83 L167.55,126.73 L168.12,126.63 L168.68,126.54 L169.24,126.44 L169.81,126.35 L170.37,126.26 L170.94,126.17 L171.50,126.08 L172.07,125.99 L172.63,125.91 L173.19,125.82 L173.76,125.74 L174.32,125.66 L174.89,125.58 L175.45,125.50 L176.01,125.43 L176.58,125.35 L177.14,125.28 L177.71,125.21 L178.27,125.14 L178.84,125.07 L179.40,125.00 L179.96,124.93 L180.53,124.87 L181.09,124.80 L181.66,124.74 L182.22,124.68 L182.78,124.61 L183.35,124.55 L183.91,124.49 L184.48,124.44 L185.04,124.38 L185.61,124.32 L186.17,124.27 L186.73,124.22 L187.30,124.16 L187.86,124.11 L188.43,124.06 L188.99,124.01 L189.55,123.96 L190.12,123.91 L190.68,123.87 L191.25,123.82 L191.81,123.78 L192.37,123.73 L192.94,123.69 L193.50,123.65 L194.07,123.60 L194.63,123.56 L195.20,123.52 L195.76,123.48 L196.32,123.45 L196.89,123.41 L197.45,123.37 L198.02,123.33 L198.58,123.30 L199.14,123.26 L199.71,123.23 L200.27,123.20 L200.84,123.16 L201.40,123.13 L201.97,123.10 L202.53,123.07 L203.09,123.04 L203.66,123.01 L204.22,122.98 L204.79,122.95 L205.35,122.92 L205.91,122.90 L206.48,122.87 L207.04,122.85 L207.61,122.82 L208.17,122.80 L208.74,122.77 L209.30,122.75 L209.86,122.72 L210.43,122.70 L210.99,122.68 L211.56,122.66 L212.12,122.64 L212.68,122.62 L213.25,122.60 L213.81,122.58 L214.38,122.56 L214.94,122.54 L215.51,122.52 L216.07,122.50 L216.63,122.49 L217.20,122.47 L217.76,122.45 L218.33,122.44 L218.89,122.42 L219.45,122.41 L220.02,122.39 L220.58,122.38 L221.15,122.37 L221.71,122.35 L222.27,122.34 L222.84,122.33 L223.40,122.32 L223.97,122.30 L224.53,122.29 L225.10,122.28 L225.66,122.27 L226.22,122.26 L226.79,122.25 L227.35,122.24 L227.92,122.23 L228.48,122.22 L229.04,122.21 L229.61,122.20 L230.17,122.20 L230.74,122.19 L231.30,122.18 L231.87,122.17 L232.43,122.17 L232.99,122.16 L233.56,122.16 L234.12,122.15 L234.69,122.14 L235.25,122.14 L235.81,122.13 L236.38,122.13 L236.94,122.12 L237.51,122.12 L238.07,122.12 L238.64,122.11 L239.20,122.11 L239.76,122.11 L240.33,122.10 L240.89,122.10 L241.46,122.10 L242.02,122.10 L242.58,122.09 L243.15,122.09 L243.71,122.09 L244.28,122.09 L244.84,122.09 L245.40,122.09 L245.97,122.09 L246.53,122.09 L247.10,122.09 L247.66,122.09 L248.23,122.09 L248.79,122.09 L249.35,122.09 L249.92,122.09 L250.48,122.09 L251.05,122.09 L251.61,122.09 L252.17,122.09 L252.74,122.10 L253.30,122.10 L253.87,122.10 L254.43,122.10 L255.00,122.11 L255.56,122.11 L256.12,122.11 L256.69,122.11 L257.25,122.12 L257.82,122.12 L258.38,122.12 L258.94,122.13 L259.51,122.13 L260.07,122.14 L260.64,122.14 L261.20,122.14 L261.77,122.15 L262.33,122.15 L262.89,122.16 L263.46,122.16 L264.02,122.17 L264.59,122.17 L265.15,122.18 L265.71,122.18 L266.28,122.19 L266.84,122.20 L267.41,122.20 L267.97,122.21 L268.54,122.21 L269.10,122.22 L269.66,122.23 L270.23,122.23 L270.79,122.24 L271.36,122.25 L271.92,122.25 L272.48,122.26 L273.05,122.27 L273.61,122.27 L274.18,122.28 L274.74,122.29 L275.30,122.30 L275.87,122.30 L276.43,122.31 L277.00,122.32 L277.56,122.33 L278.13,122.33 L278.69,122.34 L279.25,122.35 L279.82,122.36 L280.38,122.37 L280.95,122.38 L281.51,122.38 L282.07,122.39 L282.64,122.40 L283.20,122.41 L283.77,122.42 L284.33,122.43 L284.90,122.44 L285.46,122.45 L286.02,122.46 L286.59,122.47 L287.15,122.48 L287.72,122.49 L288.28,122.49 L288.84,122.50 L289.41,122.51 L289.97,122.52 L290.54,122.53 L291.10,122.54 L291.67,122.55 L292.23,122.56 L292.79,122.57 L293.36,122.58 L293.92,122.59 L294.49,122.61 L295.05,122.62 L295.61,122.63 L296.18,122.64 L296.74,122.65 L297.31,122.66 L297.87,122.67 L298.43,122.68 L299.00,122.69 L299.56,122.70 L300.13,122.71 L300.69,122.72 L301.26,122.73 L301.82,122.75 L302.38,122.76 L302.95,122.77 L303.51,122.78 L304.08,122.79 L304.64,122.80 L305.20,122.81 L305.77,122.83 L306.33,122.84 L306.90,122.85 L307.46,122.86 L308.03,122.87 L308.59,122.88 L309.15,122.90 L309.72,122.91 L310.28,122.92 L310.85,122.93 L311.41,122.94 L311.97,122.96 L312.54,122.97 L313.10,122.98 L313.67,122.99 L314.23,123.00 L314.80,123.02 L315.36,123.03 L315.92,123.04 L316.49,123.05 L317.05,123.07 L317.62,123.08 L318.18,123.09 L318.74,123.10 L319.31,123.12 L319.87,123.13 L320.44,123.14 L321.00,123.15 L321.57,123.17 L322.13,123.18 L322.69,123.19 L323.26,123.21 L323.82,123.22 L324.39,123.23 L324.95,123.24 L325.51,123.26 L326.08,123.27 L326.64,123.28 L327.21,123.30 L327.77,123.31 L328.33,123.32 L328.90,123.33 L329.46,123.35 L330.03,123.36 L330.59,123.37 L331.16,123.39 L331.72,123.40 L332.28,123.41 L332.85,123.43 L333.41,123.44 L333.98,123.45 L334.54,123.47 L335.10,123.48 L335.67,123.49 L336.23,123.51 L336.80,123.52 L337.36,123.53 L337.93,123.55 L338.49,123.56 L339.05,123.57 L339.62,123.59 L340.18,123.60 L340.75,123.61 L341.31,123.63 L341.87,123.64 L342.44,123.65 L343.00,123.67 L343.57,123.68 L344.13,123.70 L344.70,123.71 L345.26,123.72 L345.82,123.74 L346.39,123.75 L346.95,123.76 L347.52,123.78 L348.08,123.79 L348.64,123.80 L349.21,123.82 L349.77,123.83 L350.34,123.85 L350.90,123.86 L351.46,123.87 L352.03,123.89 L352.59,123.90 L353.16,123.91 L353.72,123.93 L354.29,123.94 L354.85,123.96 L355.41,123.97 L355.98,123.98 L356.54,124.00 L357.11,124.01 L357.67,124.03 L358.23,124.04 L358.80,124.05 L359.36,124.07 L359.93,124.08 L360.49,124.10 L361.06,124.11 L361.62,124.12 L362.18,124.14 L362.75,124.15 L363.31,124.16 L363.88,124.18 L364.44,124.19 L365.00,124.21 L365.57,124.22 L366.13,124.23 L366.70,124.25 L367.26,124.26 L367.83,124.28 L368.39,124.29 L368.95,124.30 L369.52,124.32 L370.08,124.33 L370.65,124.35 L371.21,124.36 L371.77,124.37 L372.34,124.39 L372.90,124.40 L373.47,124.42 L374.03,124.43 L374.60,124.44 L375.16,124.46 L375.72,124.47 L376.29,124.49 L376.85,124.50 L377.42,124.52 L377.98,124.53 L378.54,124.54 L379.11,124.56 L379.67,124.57 L380.24,124.59 L380.80,124.60 L381.36,124.61 L381.93,124.63 L382.49,124.64 L383.06,124.66 L383.62,124.67 L384.19,124.68 L384.75,124.70 L385.31,124.71 L385.88,124.73 L386.44,124.74 L387.01,124.75 L387.57,124.77 L388.13,124.78 L388.70,124.80 L389.26,124.81 L389.83,124.82 L390.39,124.84 L390.96,124.85 L391.52,124.87 L392.08,124.88 L392.65,124.89 L393.21,124.91 L393.78,124.92 L394.34,124.94 L394.90,124.95 L395.47,124.96 L396.03,124.98 L396.60,124.99 L397.16,125.01 L397.73,125.02 L398.29,125.03 L398.85,125.05 L399.42,125.06 L399.98,125.08 L400.55,125.09 L401.11,125.10 L401.67,125.12 L402.24,125.13 L402.80,125.15 L403.37,125.16 L403.93,125.17 L404.49,125.19 L405.06,125.20 L405.62,125.22 L406.19,125.23 L406.75,125.24 L407.32,125.26 L407.88,125.27 L408.44,125.28 L409.01,125.30 L409.57,125.31 L410.14,125.33 L410.70,125.34 L411.26,125.35 L411.83,125.37 L412.39,125.38 L412.96,125.40 L413.52,125.41 L414.09,125.42 L414.65,125.44 L415.21,125.45 L415.78,125.46 L416.34,125.48 L416.91,125.49 L417.47,125.51 L418.03,125.52 L418.60,125.53 L419.16,125.55 L419.73,125.56 L420.29,125.58 L420.86,125.59 L421.42,125.60 L421.98,125.62 L422.55,125.63 L423.11,125.64 L423.68,125.66 L424.24,125.67 L424.80,125.68 L425.37,125.70 L425.93,125.71 L426.50,125.73 L427.06,125.74 L427.63,125.75 L428.19,125.77 L428.75,125.78 L429.32,125.79 L429.88,125.81 L430.45,125.82 L431.01,125.84 L431.57,125.85 L432.14,125.86 L432.70,125.88 L433.27,125.89 L433.83,125.90 L434.39,125.92 L434.96,125.93 L435.52,125.94 L436.09,125.96 L436.65,125.97 L437.22,125.98 L437.78,126.00 L438.34,126.01 L438.91,126.02 L439.47,126.04 L440.04,126.05 L440.60,126.07 L441.16,126.08 L441.73,126.09 L442.29,126.11 L442.86,126.12 L443.42,126.13 L443.99,126.15 L444.55,126.16 L445.11,126.17 L445.68,126.19 L446.24,126.20 L446.81,126.21 L447.37,126.23 L447.93,126.24 L448.50,126.25 L449.06,126.27 L449.63,126.28 L450.19,126.29 L450.76,126.31 L451.32,126.32 L451.88,126.33 L452.45,126.35 L453.01,126.36 L453.58,126.37 L454.14,126.39 L454.70,126.40 L455.27,126.41 L455.83,126.42 L456.40,126.44 L456.96,126.45 L457.53,126.46 L458.09,126.48 L458.65,126.49 L459.22,126.50 L459.78,126.52 L460.35,126.53 L460.91,126.54 L461.47,126.56 L462.04,126.57 L462.60,126.58 L463.17,126.60 L463.73,126.61 L464.29,126.62 L464.86,126.63 L465.42,126.65 L465.99,126.66 L466.55,126.67 L467.12,126.69 L467.68,126.70 L468.24,126.71 L468.81,126.73 L469.37,126.74 L469.94,126.75 L470.50,126.76 L471.06,126.78 L471.63,126.79 L472.19,126.80 L472.76,126.82 L473.32,126.83 L473.89,126.84 L474.45,126.85 L475.01,126.87 L475.58,126.88 L476.14,126.89 L476.71,126.91 L477.27,126.92 L477.83,126.93 L478.40,126.94 L478.96,126.96 L479.53,126.97 L480.09,126.98 L480.66,126.99 L481.22,127.01 L481.78,127.02 L482.35,127.03 L482.91,127.05 L483.48,127.06 L484.04,127.07 L484.60,127.08 L485.17,127.10 L485.73,127.11 L486.30,127.12 L486.86,127.13 L487.42,127.15 L487.99,127.16 L488.55,127.17 L489.12,127.18 L489.68,127.20 L490.25,127.21 L490.81,127.22 L491.37,127.23 L491.94,127.25 L492.50,127.26 L493.07,127.27 L493.63,127.28 L494.19,127.30 L494.76,127.31 L495.32,127.32 L495.89,127.33 L496.45,127.35 L497.02,127.36 L497.58,127.37 L498.14,127.38 L498.71,127.40 L499.27,127.41 L499.84,127.42 L500.40,127.43 L500.96,127.45 L501.53,127.46 L502.09,127.47 L502.66,127.48 L503.22,127.49 L503.79,127.51 L504.35,127.52 L504.91,127.53 L505.48,127.54 L506.04,127.56 L506.61,127.57 L507.17,127.58 L507.73,127.59 L508.30,127.60 L508.86,127.62 L509.43,127.63 L509.99,127.64 L510.56,127.65 L511.12,127.66 L511.68,127.68 L512.25,127.69 L512.81,127.70 L513.38,127.71 L513.94,127.73 L514.50,127.74 L515.07,127.75 L515.63,127.76 L516.20,127.77 L516.76,127.79 L517.32,127.80 L517.89,127.81 L518.45,127.82 L519.02,127.83 L519.58,127.84 L520.15,127.86 L520.71,127.87 L521.27,127.88 L521.84,127.89 L522.40,127.90 L522.97,127.92 L523.53,127.93 L524.09,127.94 L524.66,127.95 L525.22,127.96 L525.79,127.98 L526.35,127.99 L526.92,128.00 L527.48,128.01 L528.04,128.02 L528.61,128.03 L529.17,128.05 L529.74,128.06 L530.30,128.07 L530.86,128.08 L531.43,128.09 L531.99,128.10 L532.56,128.12 L533.12,128.13 L533.69,128.14 L534.25,128.15 L534.81,128.16 L535.38,128.17 L535.94,128.19 L536.51,128.20 L537.07,128.21 L537.63,128.22 L538.20,128.23 L538.76,128.24 L539.33,128.26 L539.89,128.27 L540.45,128.28 L541.02,128.29 L541.58,128.30 L542.15,128.31 L542.71,128.32 L543.28,128.34 L543.84,128.35 L544.40,128.36 L544.97,128.37 L545.53,128.38 L546.10,128.39 L546.66,128.40 L547.22,128.42 L547.79,128.43 L548.35,128.44 L548.92,128.45 L549.48,128.46 L550.05,128.47 L550.61,128.48 L551.17,128.50 L551.74,128.51 L552.30,128.52 L552.87,128.53 L553.43,128.54 L553.99,128.55 L554.56,128.56 L555.12,128.57 L555.69,128.59 L556.25,128.60 L556.82,128.61 L557.38,128.62 L557.94,128.63 L558.51,128.64 L559.07,128.65 L559.64,128.66 L560.20,128.67 L560.76,128.69 L561.33,128.70 L561.89,128.71 L562.46,128.72 L563.02,128.73 L563.59,128.74 L564.15,128.75 L564.71,128.76 L565.28,128.77 L565.84,128.79 L566.41,128.80 L566.97,128.81 L567.53,128.82 L568.10,128.83 L568.66,128.84 L569.23,128.85 L569.79,128.86 L570.35,128.87 L570.92,128.88 L571.48,128.89 L572.05,128.91 L572.61,128.92 L573.18,128.93 L573.74,128.94 L574.30,128.95 L574.87,128.96 L575.43,128.97 L576.00,128.98 L576.56,128.99 L577.12,129.00 L577.69,129.01 L578.25,129.02 L578.82,129.04 L579.38,129.05 L579.95,129.06 L580.51,129.07 L581.07,129.08 L581.64,129.09 L582.20,129.10 L582.77,129.11 L583.33,129.12 L583.89,129.13 L584.46,129.14 L585.02,129.15 L585.59,129.16 L586.15,129.17 L586.72,129.19 L587.28,129.20 L587.84,129.21 L588.41,129.22 L588.97,129.23 L589.54,129.24 L590.10,129.25 L590.66,129.26 L591.23,129.27 L591.79,129.28 L592.36,129.29 L592.92,129.30 L593.48,129.31 L594.05,129.32 L594.61,129.33 L595.18,129.34 L595.74,129.35 L596.31,129.36 L596.87,129.37 L597.43,129.38 L598.00,129.40 L598.56,129.41 L599.13,129.42 L599.69,129.43 L600.25,129.44 L600.82,129.45 L601.38,129.46 L601.95,129.47 L602.51,129.48 L603.08,129.49 L603.64,129.50 L604.20,129.51 L604.77,129.52 L605.33,129.53 L605.90,129.54 L606.46,129.55 L607.02,129.56 L607.59,129.57 L608.15,129.58 L608.72,129.59 L609.28,129.60 L609.85,129.61 L610.41,129.62 L610.97,129.63 L611.54,129.64 L612.10,129.65 L612.67,129.66 L613.23,129.67 L613.79,129.68 L614.36,129.69 L614.92,129.70 L615.49,129.71 L616.05,129.72 L616.62,129.73 L617.18,129.74 L617.74,129.75 L618.31,129.76 L618.87,129.77 L619.44,129.78 L620.00,129.79"
                                  style="stroke-width: 2; stroke: rgb(74, 144, 226); stroke-opacity: 0.8;" />
                            <g>
                                <circle cx="247.22880910482468"
                                        cy="122.08657950732737"
                                        r="1.5"
                                        style="stroke-width: 3; stroke: rgb(60, 180, 75); stroke-opacity: 0.8; fill: rgb(60, 180, 75); fill-opacity: 0.15;" />
                            </g>
                        </g>
                    </g>
                    <g class="test-xtl"
                       style="font-family: &quot;Open Sans&quot;, verdana, arial, sans-serif;" />
                    <g class="test-ytl"
                       style="font-family: &quot;Open Sans&quot;, verdana, arial, sans-serif;" />
                    <rect class="real"
                          x="1"
                          y="1"
                          width="618"
                          height="444"
                          style="fill: transparent; stroke: none;" />
                </g>
            </g>
        </g>
        <g />
    </g>
    <g />
    <g />
    <g />
    <g>
        <g>
            <g>
                <g transform="matrix(1,0,0,1,545.6666870117188,47.39582824707031)">
                    <path transform="matrix(0.017,0,0,-0.017,0,0)"
                          d="M345 437L329 437L350 549C366 635 394 673 440 673C470 673 497 658 512 634L522 638C527 654 537 685 545 705L550 720C534 727 503 733 480 733C469 733 453 730 445 726C421 715 339 654 316 630C294 608 282 578 271 521L256 442C215 422 195 414 170 405L165 383L246 383L237 327C207 132 170 -54 148 -123C130 -182 100 -213 64 -213C41 -213 30 -206 12 -184L-2 -188C-6 -211 -20 -259 -25 -268C-16 -273 -1 -276 10 -276C51 -276 105 -245 144 -198C215 -114 235 -18 319 383L423 383C427 402 434 425 440 439L436 446C407 439 408 437 345 437Z"
                          class="char"
                          stroke-opacity="1"
                          stroke-width="8"
                          fill-opacity="1" />
                </g>
            </g>
            <g>
                <g transform="matrix(1,0,0,1,555.0208129882812,48.0625)">
                    <path transform="matrix(0.017,0,0,-0.017,0,0)"
                          d="M146 266C146 526 243 632 301 700L282 726C225 675 60 542 60 266C60 159 85 58 133 -32C168 -99 200 -138 282 -215L301 -194C255 -137 146 -15 146 266Z"
                          class="char"
                          stroke-opacity="1"
                          stroke-width="8"
                          fill-opacity="1" />
                </g>
            </g>
            <g>
                <g transform="matrix(1,0,0,1,560.6666870117188,47.39582824707031)">
                    <path transform="matrix(0.017,0,0,-0.017,0,0)"
                          d="M9 1C24 -7 40 -11 52 -11C85 -11 124 18 155 65L231 182L242 113C255 28 278 -11 314 -11C336 -11 368 6 400 35L449 79L440 98C404 68 379 53 363 53C348 53 335 63 325 83C316 102 305 139 300 168L282 269L317 318C364 383 391 406 422 406C438 406 450 398 455 383L469 387L484 472C472 479 463 482 454 482C414 482 374 446 312 354L275 299L269 347C257 446 230 482 171 482C145 482 123 474 114 461L56 378L73 368C103 402 123 416 142 416C175 416 197 375 214 277L225 215L185 153C142 86 108 54 80 54C65 54 54 58 52 63L41 91L21 88C21 53 13 27 9 1Z"
                          class="char"
                          stroke-opacity="1"
                          stroke-width="8"
                          fill-opacity="1" />
                </g>
            </g>
            <g>
                <g transform="matrix(1,0,0,1,569.15625,48.0625)">
                    <path transform="matrix(0.017,0,0,-0.017,0,0)"
                          d="M51 726L32 700C87 636 187 526 187 266C187 -10 83 -131 32 -194L51 -215C104 -165 273 -23 273 265C273 542 108 675 51 726Z"
                          class="char"
                          stroke-opacity="1"
                          stroke-width="8"
                          fill-opacity="1" />
                </g>
            </g>
            <g>
                <g transform="matrix(1,0,0,1,579.8958129882812,47.39582824707031)">
                    <path transform="matrix(0.017,0,0,-0.017,0,0)"
                          d="M604 347L604 406L65 406L65 347ZM604 134L604 193L65 193L65 134Z"
                          class="char"
                          stroke-opacity="1"
                          stroke-width="8"
                          fill-opacity="1" />
                </g>
            </g>
            <g>
                <g>
                    <g>
                        <g>
                            <g>
                                <g transform="matrix(1,0,0,1,598.0520629882812,35)">
                                    <path transform="matrix(0.017,0,0,-0.017,0,0)"
                                          d="M23 661L79 661C97 661 104 650 104 620L104 102C104 39 101 32 67 30L21 27L21 -3C121 0 121 0 146 0C171 0 171 0 271 -3L271 27L225 30C191 32 188 39 188 102L188 718L179 726C135 709 102 701 23 689ZM700 -3C761 0 762 0 779 0C793 0 793 0 862 -3L862 27L821 30C787 32 784 38 784 102L784 295C784 412 729 469 617 469C580 469 559 462 538 444L462 378L462 465L453 469C402 448 350 434 297 428L297 400L334 400C374 400 378 393 378 327L378 102C378 39 375 32 341 30L296 27L296 -3C364 -1 391 0 420 0C449 0 476 -1 544 -3L544 27L499 30C465 32 462 39 462 102L462 314C462 359 528 408 589 408C656 408 700 358 700 281Z"
                                          class="char"
                                          stroke-opacity="1"
                                          stroke-width="8"
                                          fill-opacity="1" />
                                </g>
                            </g>
                        </g>
                        <g>
                            <g transform="matrix(1,0,0,1,616.2604370117188,35)">
                                <path transform="matrix(0.017,0,0,-0.017,0,0)"
                                      d="M9 1C24 -7 40 -11 52 -11C85 -11 124 18 155 65L231 182L242 113C255 28 278 -11 314 -11C336 -11 368 6 400 35L449 79L440 98C404 68 379 53 363 53C348 53 335 63 325 83C316 102 305 139 300 168L282 269L317 318C364 383 391 406 422 406C438 406 450 398 455 383L469 387L484 472C472 479 463 482 454 482C414 482 374 446 312 354L275 299L269 347C257 446 230 482 171 482C145 482 123 474 114 461L56 378L73 368C103 402 123 416 142 416C175 416 197 375 214 277L225 215L185 153C142 86 108 54 80 54C65 54 54 58 52 63L41 91L21 88C21 53 13 27 9 1Z"
                                      class="char"
                                      stroke-opacity="1"
                                      stroke-width="8"
                                      fill-opacity="1" />
                            </g>
                        </g>
                    </g>
                </g>
                <g>
                    <g>
                        <g>
                            <g transform="matrix(1,0,0,1,607.15625,60.791656494140625)">
                                <path transform="matrix(0.017,0,0,-0.017,0,0)"
                                      d="M9 1C24 -7 40 -11 52 -11C85 -11 124 18 155 65L231 182L242 113C255 28 278 -11 314 -11C336 -11 368 6 400 35L449 79L440 98C404 68 379 53 363 53C348 53 335 63 325 83C316 102 305 139 300 168L282 269L317 318C364 383 391 406 422 406C438 406 450 398 455 383L469 387L484 472C472 479 463 482 454 482C414 482 374 446 312 354L275 299L269 347C257 446 230 482 171 482C145 482 123 474 114 461L56 378L73 368C103 402 123 416 142 416C175 416 197 375 214 277L225 215L185 153C142 86 108 54 80 54C65 54 54 58 52 63L41 91L21 88C21 53 13 27 9 1Z"
                                      class="char"
                                      stroke-opacity="1"
                                      stroke-width="8"
                                      fill-opacity="1" />
                            </g>
                        </g>
                    </g>
                </g>
                <line class="char" style="fill:none;stroke-width:0.666667px;"
                      x1="598.0520629882812"
                      y1="43.47916668653488"
                      x2="624.7499809265137"
                      y2="43.47916668653488" />
            </g>
        </g>
    </g>
    <g>
        <g>
            <g>
                <g transform="matrix(1,0,0,1,264.66668701171875,175.3)">
                    <path transform="matrix(0.015300000000000001,0,0,-0.015300000000000001,0,0)"
                          d="M328 111L304 94C251 56 203 36 167 36C120 36 91 73 91 133C91 158 94 185 99 214C116 218 225 248 250 259C335 296 374 342 374 404C374 451 340 482 290 482C222 496 112 423 75 349C45 299 15 180 15 113C15 35 59 -11 131 -11C188 -11 244 17 336 92ZM113 274C130 343 150 386 179 412C197 428 228 440 252 440C281 440 300 420 300 388C300 344 265 297 213 272C185 258 149 247 104 237Z"
                          class="char"
                          stroke-opacity="1"
                          stroke-width="8"
                          fill-opacity="1" />
                </g>
            </g>
        </g>
    </g>
    <g>
        <g>
            <g>
                <g>
                    <g>
                        <g>
                            <g transform="matrix(1,0,0,1,48.1875,126.3)">
                                <path transform="matrix(0.015300000000000001,0,0,-0.015300000000000001,0,0)"
                                      d="M418 -3L418 27L366 30C311 33 301 44 301 96L301 700L60 598L67 548L217 614L217 96C217 44 206 33 152 30L96 27L96 -3C250 0 250 0 261 0C292 0 402 -3 418 -3Z"
                                      class="char"
                                      stroke-opacity="1"
                                      stroke-width="8"
                                      fill-opacity="1" />
                            </g>
                        </g>
                    </g>
                </g>
                <g>
                    <g>
                        <g>
                            <g transform="matrix(1,0,0,1,49.03125,149.0083435058594)">
                                <path transform="matrix(0.015300000000000001,0,0,-0.015300000000000001,0,0)"
                                      d="M328 111L304 94C251 56 203 36 167 36C120 36 91 73 91 133C91 158 94 185 99 214C116 218 225 248 250 259C335 296 374 342 374 404C374 451 340 482 290 482C222 496 112 423 75 349C45 299 15 180 15 113C15 35 59 -11 131 -11C188 -11 244 17 336 92ZM113 274C130 343 150 386 179 412C197 428 228 440 252 440C281 440 300 420 300 388C300 344 265 297 213 272C185 258 149 247 104 237Z"
                                      class="char"
                                      stroke-opacity="1"
                                      stroke-width="8"
                                      fill-opacity="1" />
                            </g>
                        </g>
                    </g>
                </g>
                <line class="char" style="fill:none;stroke-width:0.666667px;"
                      x1="48.1875"
                      y1="132.8645731806755"
                      x2="55.822916984558105"
                      y2="132.8645731806755" />
            </g>
        </g>
    </g>
</svg>