<svg xmlns="http://www.w3.org/2000/svg"
     xmlns:xlink="http://www.w3.org/1999/xlink"
     x="0"
     y="0"
     width="661.3333740234375"
     height="477.66668701171875">
    <!-- 内联样式 -->
    <style type="text/css">
        .connection {
            stroke: rgb(20, 20, 20);
        }

        .connection-fill {
            fill: rgb(20, 20, 20);
        }

        .char {
            stroke: rgb(0, 0, 0);
            fill: rgb(0, 0, 0);
        }

        @media (prefers-color-scheme: dark) {
            .connection {
                stroke: rgb(200, 200, 200);
            }

            .connection-fill {
                fill: rgb(200, 200, 200);
            }

            .char {
                stroke: rgb(239, 239, 239);
                fill: rgb(239, 239, 239);
            }
        }
    </style>
    <g class="shapes-region"
       style="stroke: black; fill: none;">
        <g class="arrow-line">
            <path class="connection"
                  stroke-dasharray="6 6"
                  d="  M199.33,151.33 L199.33,269.67"
                  style="stroke-width: 1; fill: none; fill-opacity: 1;" />
        </g>
        <g class="arrow-line">
            <path class="connection"
                  stroke-dasharray="6 6"
                  d="  M80.33,151.33 L199.33,151.33"
                  style="stroke-width: 1; fill: none; fill-opacity: 1;" />
        </g>
        <g class="arrow-line">
            <path class="connection real"
                  stroke-dasharray="6 6"
                  d="  M124.33,11.33 L124.33,262.67"
                  style="stroke: rgb(245, 166, 35); stroke-width: 1; fill: none; fill-opacity: 1; stroke-opacity: 1;" />
        </g>
        <g class="arrow-line">
            <path class="connection real"
                  stroke-dasharray="6 6"
                  d="  M124.33,280.67 L124.33,458"
                  style="stroke: rgb(245, 166, 35); stroke-width: 1; fill: none; fill-opacity: 1; stroke-opacity: 1;" />
        </g>
        <g class="composite-shape"
           data-amt="diagram/shapes/plot"
           transform="matrix(1,0,0,1,20,10)">
            <g>
                <g />
                <g>
                    <g class="test-xti"
                       style="font-family: Asana-Math, Asana;">
                        <line x1="0"
                              y1="259.835852932836"
                              x2="616"
                              y2="259.835852932836"
                              fill="none"
                              class="connection"
                              stroke-opacity="1"
                              stroke-width="1" />
                        <line x1="16.985395623716695"
                              y1="255.83585293283602"
                              x2="16.985395623716695"
                              y2="263.835852932836"
                              fill="none"
                              class="connection"
                              stroke-opacity="1"
                              stroke-width="1" />
                        <line x1="104.24294795265209"
                              y1="255.83585293283602"
                              x2="104.24294795265209"
                              y2="263.835852932836"
                              fill="none"
                              class="connection"
                              stroke-opacity="1"
                              stroke-width="1" />
                        <line x1="147.8717241171198"
                              y1="255.83585293283602"
                              x2="147.8717241171198"
                              y2="263.835852932836"
                              fill="none"
                              class="connection"
                              stroke-opacity="1"
                              stroke-width="1" />
                        <line x1="191.50050028158748"
                              y1="255.83585293283602"
                              x2="191.50050028158748"
                              y2="263.835852932836"
                              fill="none"
                              class="connection"
                              stroke-opacity="1"
                              stroke-width="1" />
                        <line x1="235.12927644605523"
                              y1="255.83585293283602"
                              x2="235.12927644605523"
                              y2="263.835852932836"
                              fill="none"
                              class="connection"
                              stroke-opacity="1"
                              stroke-width="1" />
                        <line x1="278.7580526105229"
                              y1="255.83585293283602"
                              x2="278.7580526105229"
                              y2="263.835852932836"
                              fill="none"
                              class="connection"
                              stroke-opacity="1"
                              stroke-width="1" />
                        <line x1="322.3868287749906"
                              y1="255.83585293283602"
                              x2="322.3868287749906"
                              y2="263.835852932836"
                              fill="none"
                              class="connection"
                              stroke-opacity="1"
                              stroke-width="1" />
                        <line x1="366.0156049394583"
                              y1="255.83585293283602"
                              x2="366.0156049394583"
                              y2="263.835852932836"
                              fill="none"
                              class="connection"
                              stroke-opacity="1"
                              stroke-width="1" />
                        <line x1="409.64438110392604"
                              y1="255.83585293283602"
                              x2="409.64438110392604"
                              y2="263.835852932836"
                              fill="none"
                              class="connection"
                              stroke-opacity="1"
                              stroke-width="1" />
                        <line x1="453.27315726839373"
                              y1="255.83585293283602"
                              x2="453.27315726839373"
                              y2="263.835852932836"
                              fill="none"
                              class="connection"
                              stroke-opacity="1"
                              stroke-width="1" />
                        <line x1="496.9019334328614"
                              y1="255.83585293283602"
                              x2="496.9019334328614"
                              y2="263.835852932836"
                              fill="none"
                              class="connection"
                              stroke-opacity="1"
                              stroke-width="1" />
                        <line x1="540.5307095973292"
                              y1="255.83585293283602"
                              x2="540.5307095973292"
                              y2="263.835852932836"
                              fill="none"
                              class="connection"
                              stroke-opacity="1"
                              stroke-width="1" />
                        <line x1="584.1594857617969"
                              y1="255.83585293283602"
                              x2="584.1594857617969"
                              y2="263.835852932836"
                              fill="none"
                              class="connection"
                              stroke-opacity="1"
                              stroke-width="1" />
                        <path d="M611,256.235852932836 L619,259.835852932836 L611,263.43585293283604 Z"
                              stroke="none"
                              stroke-width="1"
                              class="connection-fill"
                              fill-opacity="1" />
                    </g>
                    <g class="test-yti"
                       style="font-family: Asana-Math, Asana;">
                        <line x1="60.61417178818439"
                              y1="4"
                              x2="60.61417178818439"
                              y2="446"
                              fill="none"
                              class="connection"
                              stroke-opacity="1"
                              stroke-width="1" />
                        <line x1="56.61417178818439"
                              y1="434.3509575907068"
                              x2="64.6141717881844"
                              y2="434.3509575907068"
                              fill="none"
                              class="connection"
                              stroke-opacity="1"
                              stroke-width="1" />
                        <line x1="56.61417178818439"
                              y1="390.7221814262391"
                              x2="64.6141717881844"
                              y2="390.7221814262391"
                              fill="none"
                              class="connection"
                              stroke-opacity="1"
                              stroke-width="1" />
                        <line x1="56.61417178818439"
                              y1="347.0934052617714"
                              x2="64.6141717881844"
                              y2="347.0934052617714"
                              fill="none"
                              class="connection"
                              stroke-opacity="1"
                              stroke-width="1" />
                        <line x1="56.61417178818439"
                              y1="303.4646290973037"
                              x2="64.6141717881844"
                              y2="303.4646290973037"
                              fill="none"
                              class="connection"
                              stroke-opacity="1"
                              stroke-width="1" />
                        <line x1="56.61417178818439"
                              y1="216.2070767683683"
                              x2="64.6141717881844"
                              y2="216.2070767683683"
                              fill="none"
                              class="connection"
                              stroke-opacity="1"
                              stroke-width="1" />
                        <line x1="56.61417178818439"
                              y1="172.57830060390057"
                              x2="64.6141717881844"
                              y2="172.57830060390057"
                              fill="none"
                              class="connection"
                              stroke-opacity="1"
                              stroke-width="1" />
                        <line x1="56.61417178818439"
                              y1="128.94952443943288"
                              x2="64.6141717881844"
                              y2="128.94952443943288"
                              fill="none"
                              class="connection"
                              stroke-opacity="1"
                              stroke-width="1" />
                        <line x1="56.61417178818439"
                              y1="85.32074827496518"
                              x2="64.6141717881844"
                              y2="85.32074827496518"
                              fill="none"
                              class="connection"
                              stroke-opacity="1"
                              stroke-width="1" />
                        <line x1="56.61417178818439"
                              y1="41.69197211049749"
                              x2="64.6141717881844"
                              y2="41.69197211049749"
                              fill="none"
                              class="connection"
                              stroke-opacity="1"
                              stroke-width="1" />
                        <path d="M57.01417178818439,9 L60.61417178818439,1 L64.21417178818439,9 Z"
                              stroke="none"
                              stroke-width="1"
                              class="connection-fill"
                              fill-opacity="1" />
                    </g>
                    <g class="test-plot-expression">
                        <defs>
                            <clipPath id="cp0vntujad2">
                                <rect x="1"
                                      y="1"
                                      width="618"
                                      height="444" />
                            </clipPath>
                        </defs>
                        <g clip-path="url(#cp0vntujad2)">
                            <path d=" M60.93,259.90 L61.49,260.06 L62.06,260.26 L62.62,260.49 L63.18,260.74 L63.75,261.03 L64.31,261.33 L64.88,261.67 L65.44,262.03 L66.01,262.41 L66.57,262.83 L67.13,263.27 L67.70,263.73 L68.26,264.23 L68.83,264.75 L69.39,265.31 L69.95,265.90 L70.52,266.52 L71.08,267.17 L71.65,267.86 L72.21,268.59 L72.78,269.36 L73.34,270.16 L73.90,271.02 L74.47,271.91 L75.03,272.86 L75.60,273.85 L76.16,274.90 L76.72,276.01 L77.29,277.17 L77.85,278.40 L78.42,279.70 L78.98,281.06 L79.55,282.51 L80.11,284.04 L80.67,285.65 L81.24,287.36 L81.80,289.17 L82.37,291.09 L82.93,293.12 L83.49,295.28 L84.06,297.58 L84.62,300.03 L85.19,302.64 L85.75,305.42 L86.31,308.40 L86.88,311.59 L87.44,315.01 L88.01,318.69 L88.57,322.66 L89.14,326.94 L89.70,331.57 L90.26,336.60 L90.83,342.07 L91.39,348.05 L91.96,354.60 L92.52,361.80 L93.08,369.76 L93.65,378.60 L94.21,388.45 L94.78,399.52 L95.34,412.02 L95.91,426.24 L96.47,442.56 L97.03,461.48 L97.60,483.65 L98.16,509.98 L98.73,541.75 L99.29,580.81 L99.85,629.98 L100.42,693.72 L100.98,779.61 L101.55,892.00 L102.11,892.00 L102.68,892.00 L103.24,892.00 L103.80,892.00 L104.37,892.00 M104.37,-446.00 L104.37,-446.00 L104.93,-446.00 M104.93,-446.00 L104.93,-446.00 L105.50,-446.00 L106.06,-446.00 L106.62,-446.00 L107.19,-446.00 L107.75,-349.43 L108.32,-274.55 L108.88,-217.94 L109.44,-173.66 L110.01,-138.09 L110.57,-108.90 L111.14,-84.52 L111.70,-63.87 L112.27,-46.15 L112.83,-30.79 L113.39,-17.35 L113.96,-5.50 L114.52,5.03 L115.09,14.44 L115.65,22.89 L116.21,30.53 L116.78,37.46 L117.34,43.78 L117.91,49.56 L118.47,54.86 L119.04,59.74 L119.60,64.24 L120.16,68.42 L120.73,72.29 L121.29,75.89 L121.86,79.24 L122.42,82.38 L122.98,85.31 L123.55,88.06 L124.11,90.64 L124.68,93.07 L125.24,95.35 L125.81,97.51 L126.37,99.54 L126.93,101.47 L127.50,103.29 L128.06,105.01 L128.63,106.64 L129.19,108.19 L129.75,109.67 L130.32,111.07 L130.88,112.40 L131.45,113.67 L132.01,114.88 L132.58,116.03 L133.14,117.13 L133.70,118.18 L134.27,119.18 L134.83,120.14 L135.40,121.06 L135.96,121.93 L136.52,122.77 L137.09,123.58 L137.65,124.34 L138.22,125.08 L138.78,125.79 L139.34,126.47 L139.91,127.12 L140.47,127.74 L141.04,128.34 L141.60,128.91 L142.17,129.46 L142.73,129.99 L143.29,130.50 L143.86,130.99 L144.42,131.46 L144.99,131.91 L145.55,132.34 L146.11,132.76 L146.68,133.16 L147.24,133.54 L147.81,133.91 L148.37,134.26 L148.94,134.60 L149.50,134.93 L150.06,135.25 L150.63,135.55 L151.19,135.84 L151.76,136.12 L152.32,136.39 L152.88,136.65 L153.45,136.89 L154.01,137.13 L154.58,137.36 L155.14,137.58 L155.71,137.79 L156.27,137.99 L156.83,138.18 L157.40,138.36 L157.96,138.54 L158.53,138.71 L159.09,138.87 L159.65,139.03 L160.22,139.17 L160.78,139.32 L161.35,139.45 L161.91,139.58 L162.47,139.70 L163.04,139.82 L163.60,139.93 L164.17,140.03 L164.73,140.13 L165.30,140.23 L165.86,140.32 L166.42,140.40 L166.99,140.48 L167.55,140.56 L168.12,140.63 L168.68,140.69 L169.24,140.75 L169.81,140.81 L170.37,140.86 L170.94,140.91 L171.50,140.96 L172.07,141.00 L172.63,141.04 L173.19,141.07 L173.76,141.10 L174.32,141.13 L174.89,141.16 L175.45,141.18 L176.01,141.20 L176.58,141.21 L177.14,141.22 L177.71,141.23 L178.27,141.24 L178.84,141.24 L179.40,141.24 L179.96,141.24 L180.53,141.23 L181.09,141.23 L181.66,141.22 L182.22,141.20 L182.78,141.19 L183.35,141.17 L183.91,141.15 L184.48,141.13 L185.04,141.11 L185.61,141.08 L186.17,141.05 L186.73,141.02 L187.30,140.99 L187.86,140.96 L188.43,140.92 L188.99,140.89 L189.55,140.85 L190.12,140.81 L190.68,140.76 L191.25,140.72 L191.81,140.67 L192.37,140.62 L192.94,140.58 L193.50,140.52 L194.07,140.47 L194.63,140.42 L195.20,140.36 L195.76,140.31 L196.32,140.25 L196.89,140.19 L197.45,140.13 L198.02,140.06 L198.58,140.00 L199.14,139.93 L199.71,139.87 L200.27,139.80 L200.84,139.73 L201.40,139.66 L201.97,139.59 L202.53,139.52 L203.09,139.45 L203.66,139.37 L204.22,139.30 L204.79,139.22 L205.35,139.14 L205.91,139.06 L206.48,138.98 L207.04,138.90 L207.61,138.82 L208.17,138.74 L208.74,138.65 L209.30,138.57 L209.86,138.49 L210.43,138.40 L210.99,138.31 L211.56,138.22 L212.12,138.14 L212.68,138.05 L213.25,137.96 L213.81,137.86 L214.38,137.77 L214.94,137.68 L215.51,137.59 L216.07,137.49 L216.63,137.40 L217.20,137.30 L217.76,137.21 L218.33,137.11 L218.89,137.01 L219.45,136.91 L220.02,136.81 L220.58,136.71 L221.15,136.61 L221.71,136.51 L222.27,136.41 L222.84,136.31 L223.40,136.21 L223.97,136.10 L224.53,136.00 L225.10,135.89 L225.66,135.79 L226.22,135.68 L226.79,135.58 L227.35,135.47 L227.92,135.36 L228.48,135.26 L229.04,135.15 L229.61,135.04 L230.17,134.93 L230.74,134.82 L231.30,134.71 L231.87,134.60 L232.43,134.49 L232.99,134.38 L233.56,134.26 L234.12,134.15 L234.69,134.04 L235.25,133.93 L235.81,133.81 L236.38,133.70 L236.94,133.58 L237.51,133.47 L238.07,133.35 L238.64,133.24 L239.20,133.12 L239.76,133.00 L240.33,132.89 L240.89,132.77 L241.46,132.65 L242.02,132.54 L242.58,132.42 L243.15,132.30 L243.71,132.18 L244.28,132.06 L244.84,131.94 L245.40,131.82 L245.97,131.70 L246.53,131.58 L247.10,131.46 L247.66,131.34 L248.23,131.22 L248.79,131.09 L249.35,130.97 L249.92,130.85 L250.48,130.73 L251.05,130.60 L251.61,130.48 L252.17,130.36 L252.74,130.23 L253.30,130.11 L253.87,129.99 L254.43,129.86 L255.00,129.74 L255.56,129.61 L256.12,129.49 L256.69,129.36 L257.25,129.24 L257.82,129.11 L258.38,128.98 L258.94,128.86 L259.51,128.73 L260.07,128.60 L260.64,128.48 L261.20,128.35 L261.77,128.22 L262.33,128.09 L262.89,127.97 L263.46,127.84 L264.02,127.71 L264.59,127.58 L265.15,127.45 L265.71,127.32 L266.28,127.19 L266.84,127.07 L267.41,126.94 L267.97,126.81 L268.54,126.68 L269.10,126.55 L269.66,126.42 L270.23,126.29 L270.79,126.16 L271.36,126.02 L271.92,125.89 L272.48,125.76 L273.05,125.63 L273.61,125.50 L274.18,125.37 L274.74,125.24 L275.30,125.11 L275.87,124.97 L276.43,124.84 L277.00,124.71 L277.56,124.58 L278.13,124.44 L278.69,124.31 L279.25,124.18 L279.82,124.05 L280.38,123.91 L280.95,123.78 L281.51,123.65 L282.07,123.51 L282.64,123.38 L283.20,123.25 L283.77,123.11 L284.33,122.98 L284.90,122.84 L285.46,122.71 L286.02,122.58 L286.59,122.44 L287.15,122.31 L287.72,122.17 L288.28,122.04 L288.84,121.90 L289.41,121.77 L289.97,121.63 L290.54,121.50 L291.10,121.36 L291.67,121.23 L292.23,121.09 L292.79,120.96 L293.36,120.82 L293.92,120.68 L294.49,120.55 L295.05,120.41 L295.61,120.28 L296.18,120.14 L296.74,120.00 L297.31,119.87 L297.87,119.73 L298.43,119.59 L299.00,119.46 L299.56,119.32 L300.13,119.18 L300.69,119.05 L301.26,118.91 L301.82,118.77 L302.38,118.64 L302.95,118.50 L303.51,118.36 L304.08,118.23 L304.64,118.09 L305.20,117.95 L305.77,117.81 L306.33,117.68 L306.90,117.54 L307.46,117.40 L308.03,117.26 L308.59,117.13 L309.15,116.99 L309.72,116.85 L310.28,116.71 L310.85,116.57 L311.41,116.44 L311.97,116.30 L312.54,116.16 L313.10,116.02 L313.67,115.88 L314.23,115.74 L314.80,115.61 L315.36,115.47 L315.92,115.33 L316.49,115.19 L317.05,115.05 L317.62,114.91 L318.18,114.77 L318.74,114.64 L319.31,114.50 L319.87,114.36 L320.44,114.22 L321.00,114.08 L321.57,113.94 L322.13,113.80 L322.69,113.66 L323.26,113.52 L323.82,113.38 L324.39,113.24 L324.95,113.11 L325.51,112.97 L326.08,112.83 L326.64,112.69 L327.21,112.55 L327.77,112.41 L328.33,112.27 L328.90,112.13 L329.46,111.99 L330.03,111.85 L330.59,111.71 L331.16,111.57 L331.72,111.43 L332.28,111.29 L332.85,111.15 L333.41,111.01 L333.98,110.87 L334.54,110.73 L335.10,110.59 L335.67,110.45 L336.23,110.31 L336.80,110.17 L337.36,110.03 L337.93,109.89 L338.49,109.75 L339.05,109.61 L339.62,109.47 L340.18,109.33 L340.75,109.19 L341.31,109.05 L341.87,108.91 L342.44,108.77 L343.00,108.63 L343.57,108.49 L344.13,108.35 L344.70,108.21 L345.26,108.07 L345.82,107.93 L346.39,107.79 L346.95,107.65 L347.52,107.51 L348.08,107.37 L348.64,107.22 L349.21,107.08 L349.77,106.94 L350.34,106.80 L350.90,106.66 L351.46,106.52 L352.03,106.38 L352.59,106.24 L353.16,106.10 L353.72,105.96 L354.29,105.82 L354.85,105.68 L355.41,105.54 L355.98,105.40 L356.54,105.26 L357.11,105.11 L357.67,104.97 L358.23,104.83 L358.80,104.69 L359.36,104.55 L359.93,104.41 L360.49,104.27 L361.06,104.13 L361.62,103.99 L362.18,103.85 L362.75,103.71 L363.31,103.57 L363.88,103.42 L364.44,103.28 L365.00,103.14 L365.57,103.00 L366.13,102.86 L366.70,102.72 L367.26,102.58 L367.83,102.44 L368.39,102.30 L368.95,102.16 L369.52,102.02 L370.08,101.87 L370.65,101.73 L371.21,101.59 L371.77,101.45 L372.34,101.31 L372.90,101.17 L373.47,101.03 L374.03,100.89 L374.60,100.75 L375.16,100.61 L375.72,100.46 L376.29,100.32 L376.85,100.18 L377.42,100.04 L377.98,99.90 L378.54,99.76 L379.11,99.62 L379.67,99.48 L380.24,99.34 L380.80,99.20 L381.36,99.05 L381.93,98.91 L382.49,98.77 L383.06,98.63 L383.62,98.49 L384.19,98.35 L384.75,98.21 L385.31,98.07 L385.88,97.93 L386.44,97.78 L387.01,97.64 L387.57,97.50 L388.13,97.36 L388.70,97.22 L389.26,97.08 L389.83,96.94 L390.39,96.80 L390.96,96.66 L391.52,96.52 L392.08,96.37 L392.65,96.23 L393.21,96.09 L393.78,95.95 L394.34,95.81 L394.90,95.67 L395.47,95.53 L396.03,95.39 L396.60,95.25 L397.16,95.11 L397.73,94.96 L398.29,94.82 L398.85,94.68 L399.42,94.54 L399.98,94.40 L400.55,94.26 L401.11,94.12 L401.67,93.98 L402.24,93.84 L402.80,93.70 L403.37,93.56 L403.93,93.41 L404.49,93.27 L405.06,93.13 L405.62,92.99 L406.19,92.85 L406.75,92.71 L407.32,92.57 L407.88,92.43 L408.44,92.29 L409.01,92.15 L409.57,92.01 L410.14,91.86 L410.70,91.72 L411.26,91.58 L411.83,91.44 L412.39,91.30 L412.96,91.16 L413.52,91.02 L414.09,90.88 L414.65,90.74 L415.21,90.60 L415.78,90.46 L416.34,90.32 L416.91,90.18 L417.47,90.03 L418.03,89.89 L418.60,89.75 L419.16,89.61 L419.73,89.47 L420.29,89.33 L420.86,89.19 L421.42,89.05 L421.98,88.91 L422.55,88.77 L423.11,88.63 L423.68,88.49 L424.24,88.35 L424.80,88.21 L425.37,88.07 L425.93,87.93 L426.50,87.78 L427.06,87.64 L427.63,87.50 L428.19,87.36 L428.75,87.22 L429.32,87.08 L429.88,86.94 L430.45,86.80 L431.01,86.66 L431.57,86.52 L432.14,86.38 L432.70,86.24 L433.27,86.10 L433.83,85.96 L434.39,85.82 L434.96,85.68 L435.52,85.54 L436.09,85.40 L436.65,85.26 L437.22,85.12 L437.78,84.98 L438.34,84.84 L438.91,84.70 L439.47,84.56 L440.04,84.42 L440.60,84.28 L441.16,84.14 L441.73,83.99 L442.29,83.85 L442.86,83.71 L443.42,83.57 L443.99,83.43 L444.55,83.29 L445.11,83.15 L445.68,83.01 L446.24,82.87 L446.81,82.73 L447.37,82.59 L447.93,82.45 L448.50,82.31 L449.06,82.17 L449.63,82.03 L450.19,81.89 L450.76,81.75 L451.32,81.61 L451.88,81.47 L452.45,81.33 L453.01,81.19 L453.58,81.05 L454.14,80.91 L454.70,80.77 L455.27,80.63 L455.83,80.49 L456.40,80.35 L456.96,80.21 L457.53,80.08 L458.09,79.94 L458.65,79.80 L459.22,79.66 L459.78,79.52 L460.35,79.38 L460.91,79.24 L461.47,79.10 L462.04,78.96 L462.60,78.82 L463.17,78.68 L463.73,78.54 L464.29,78.40 L464.86,78.26 L465.42,78.12 L465.99,77.98 L466.55,77.84 L467.12,77.70 L467.68,77.56 L468.24,77.42 L468.81,77.28 L469.37,77.14 L469.94,77.00 L470.50,76.86 L471.06,76.72 L471.63,76.59 L472.19,76.45 L472.76,76.31 L473.32,76.17 L473.89,76.03 L474.45,75.89 L475.01,75.75 L475.58,75.61 L476.14,75.47 L476.71,75.33 L477.27,75.19 L477.83,75.05 L478.40,74.91 L478.96,74.77 L479.53,74.64 L480.09,74.50 L480.66,74.36 L481.22,74.22 L481.78,74.08 L482.35,73.94 L482.91,73.80 L483.48,73.66 L484.04,73.52 L484.60,73.38 L485.17,73.25 L485.73,73.11 L486.30,72.97 L486.86,72.83 L487.42,72.69 L487.99,72.55 L488.55,72.41 L489.12,72.27 L489.68,72.13 L490.25,72.00 L490.81,71.86 L491.37,71.72 L491.94,71.58 L492.50,71.44 L493.07,71.30 L493.63,71.16 L494.19,71.02 L494.76,70.89 L495.32,70.75 L495.89,70.61 L496.45,70.47 L497.02,70.33 L497.58,70.19 L498.14,70.05 L498.71,69.91 L499.27,69.78 L499.84,69.64 L500.40,69.50 L500.96,69.36 L501.53,69.22 L502.09,69.08 L502.66,68.95 L503.22,68.81 L503.79,68.67 L504.35,68.53 L504.91,68.39 L505.48,68.25 L506.04,68.12 L506.61,67.98 L507.17,67.84 L507.73,67.70 L508.30,67.56 L508.86,67.42 L509.43,67.29 L509.99,67.15 L510.56,67.01 L511.12,66.87 L511.68,66.73 L512.25,66.60 L512.81,66.46 L513.38,66.32 L513.94,66.18 L514.50,66.04 L515.07,65.90 L515.63,65.77 L516.20,65.63 L516.76,65.49 L517.32,65.35 L517.89,65.22 L518.45,65.08 L519.02,64.94 L519.58,64.80 L520.15,64.66 L520.71,64.53 L521.27,64.39 L521.84,64.25 L522.40,64.11 L522.97,63.97 L523.53,63.84 L524.09,63.70 L524.66,63.56 L525.22,63.42 L525.79,63.29 L526.35,63.15 L526.92,63.01 L527.48,62.87 L528.04,62.74 L528.61,62.60 L529.17,62.46 L529.74,62.32 L530.30,62.19 L530.86,62.05 L531.43,61.91 L531.99,61.77 L532.56,61.64 L533.12,61.50 L533.69,61.36 L534.25,61.22 L534.81,61.09 L535.38,60.95 L535.94,60.81 L536.51,60.67 L537.07,60.54 L537.63,60.40 L538.20,60.26 L538.76,60.13 L539.33,59.99 L539.89,59.85 L540.45,59.71 L541.02,59.58 L541.58,59.44 L542.15,59.30 L542.71,59.17 L543.28,59.03 L543.84,58.89 L544.40,58.75 L544.97,58.62 L545.53,58.48 L546.10,58.34 L546.66,58.21 L547.22,58.07 L547.79,57.93 L548.35,57.80 L548.92,57.66 L549.48,57.52 L550.05,57.38 L550.61,57.25 L551.17,57.11 L551.74,56.97 L552.30,56.84 L552.87,56.70 L553.43,56.56 L553.99,56.43 L554.56,56.29 L555.12,56.15 L555.69,56.02 L556.25,55.88 L556.82,55.74 L557.38,55.61 L557.94,55.47 L558.51,55.33 L559.07,55.20 L559.64,55.06 L560.20,54.92 L560.76,54.79 L561.33,54.65 L561.89,54.52 L562.46,54.38 L563.02,54.24 L563.59,54.11 L564.15,53.97 L564.71,53.83 L565.28,53.70 L565.84,53.56 L566.41,53.42 L566.97,53.29 L567.53,53.15 L568.10,53.02 L568.66,52.88 L569.23,52.74 L569.79,52.61 L570.35,52.47 L570.92,52.34 L571.48,52.20 L572.05,52.06 L572.61,51.93 L573.18,51.79 L573.74,51.65 L574.30,51.52 L574.87,51.38 L575.43,51.25 L576.00,51.11 L576.56,50.97 L577.12,50.84 L577.69,50.70 L578.25,50.57 L578.82,50.43 L579.38,50.30 L579.95,50.16 L580.51,50.02 L581.07,49.89 L581.64,49.75 L582.20,49.62 L582.77,49.48 L583.33,49.35 L583.89,49.21 L584.46,49.07 L585.02,48.94 L585.59,48.80 L586.15,48.67 L586.72,48.53 L587.28,48.40 L587.84,48.26 L588.41,48.12 L588.97,47.99 L589.54,47.85 L590.10,47.72 L590.66,47.58 L591.23,47.45 L591.79,47.31 L592.36,47.18 L592.92,47.04 L593.48,46.91 L594.05,46.77 L594.61,46.64 L595.18,46.50 L595.74,46.36 L596.31,46.23 L596.87,46.09 L597.43,45.96 L598.00,45.82 L598.56,45.69 L599.13,45.55 L599.69,45.42 L600.25,45.28 L600.82,45.15 L601.38,45.01 L601.95,44.88 L602.51,44.74 L603.08,44.61 L603.64,44.47 L604.20,44.34 L604.77,44.20 L605.33,44.07 L605.90,43.93 L606.46,43.80 L607.02,43.66 L607.59,43.53 L608.15,43.39 L608.72,43.26 L609.28,43.12 L609.85,42.99 L610.41,42.85 L610.97,42.72 L611.54,42.58 L612.10,42.45 L612.67,42.31 L613.23,42.18 L613.79,42.05 L614.36,41.91 L614.92,41.78 L615.49,41.64 L616.05,41.51 L616.62,41.37 L617.18,41.24 L617.74,41.10 L618.31,40.97 L618.87,40.83 L619.44,40.70 L620.00,40.57"
                                  style="stroke-width: 2; stroke: rgb(74, 144, 226); stroke-opacity: 0.8;" />
                            <g>
                                <circle cx="179.20948123396406"
                                        cy="141.24054348705636"
                                        r="1.5"
                                        style="stroke-width: 3; stroke: rgb(60, 180, 75); stroke-opacity: 0.8; fill: rgb(60, 180, 75); fill-opacity: 0.15;" />
                            </g>
                            <path d=" M60.64,262.89 L60.62,262.89 L60.61,262.89 L60.59,262.89 L60.58,262.89 L60.56,262.89 L60.55,262.89 L60.53,262.89 L60.52,262.89 L60.50,262.89 L60.48,262.89 L60.47,262.89 L60.45,262.89 L60.44,262.88 L60.42,262.88 L60.41,262.88 L60.39,262.88 L60.38,262.88 L60.36,262.88 L60.35,262.88 L60.33,262.88 L60.31,262.88 L60.30,262.87 L60.28,262.87 L60.27,262.87 L60.25,262.87 L60.24,262.87 L60.22,262.86 L60.21,262.86 L60.19,262.86 L60.18,262.86 L60.16,262.86 L60.14,262.85 L60.13,262.85 L60.11,262.85 L60.10,262.85 L60.08,262.84 L60.07,262.84 L60.05,262.84 L60.04,262.83 L60.02,262.83 L60.01,262.83 L59.99,262.83 L59.98,262.82 L59.96,262.82 L59.95,262.82 L59.93,262.81 L59.92,262.81 L59.90,262.81 L59.89,262.80 L59.87,262.80 L59.86,262.79 L59.84,262.79 L59.83,262.79 L59.81,262.78 L59.80,262.78 L59.78,262.77 L59.77,262.77 L59.75,262.77 L59.74,262.76 L59.72,262.76 L59.71,262.75 L59.69,262.75 L59.68,262.74 L59.66,262.74 L59.65,262.73 L59.63,262.73 L59.62,262.72 L59.60,262.72 L59.59,262.71 L59.57,262.71 L59.56,262.70 L59.54,262.70 L59.53,262.69 L59.52,262.69 L59.50,262.68 L59.49,262.67 L59.47,262.67 L59.46,262.66 L59.44,262.66 L59.43,262.65 L59.42,262.64 L59.40,262.64 L59.39,262.63 L59.37,262.63 L59.36,262.62 L59.34,262.61 L59.33,262.61 L59.32,262.60 L59.30,262.59 L59.29,262.59 L59.27,262.58 L59.26,262.57 L59.25,262.57 L59.23,262.56 L59.22,262.55 L59.20,262.55 L59.19,262.54 L59.18,262.53 L59.16,262.52 L59.15,262.52 L59.14,262.51 L59.12,262.50 L59.11,262.49 L59.10,262.49 L59.08,262.48 L59.07,262.47 L59.06,262.46 L59.04,262.45 L59.03,262.45 L59.02,262.44 L59.00,262.43 L58.99,262.42 L58.98,262.41 L58.96,262.40 L58.95,262.40 L58.94,262.39 L58.92,262.38 L58.91,262.37 L58.90,262.36 L58.89,262.35 L58.87,262.34 L58.86,262.34 L58.85,262.33 L58.83,262.32 L58.82,262.31 L58.81,262.30 L58.80,262.29 L58.78,262.28 L58.77,262.27 L58.76,262.26 L58.75,262.25 L58.74,262.24 L58.72,262.23 L58.71,262.22 L58.70,262.21 L58.69,262.20 L58.67,262.19 L58.66,262.18 L58.65,262.17 L58.64,262.16 L58.63,262.15 L58.62,262.14 L58.60,262.13 L58.59,262.12 L58.58,262.11 L58.57,262.10 L58.56,262.09 L58.55,262.08 L58.53,262.07 L58.52,262.06 L58.51,262.05 L58.50,262.04 L58.49,262.03 L58.48,262.02 L58.47,262.01 L58.46,262.00 L58.44,261.99 L58.43,261.97 L58.42,261.96 L58.41,261.95 L58.40,261.94 L58.39,261.93 L58.38,261.92 L58.37,261.91 L58.36,261.90 L58.35,261.88 L58.34,261.87 L58.33,261.86 L58.32,261.85 L58.31,261.84 L58.30,261.83 L58.29,261.81 L58.28,261.80 L58.27,261.79 L58.26,261.78 L58.25,261.77 L58.24,261.75 L58.23,261.74 L58.22,261.73 L58.21,261.72 L58.20,261.71 L58.19,261.69 L58.18,261.68 L58.17,261.67 L58.16,261.66 L58.15,261.64 L58.14,261.63 L58.13,261.62 L58.13,261.61 L58.12,261.59 L58.11,261.58 L58.10,261.57 L58.09,261.55 L58.08,261.54 L58.07,261.53 L58.06,261.52 L58.06,261.50 L58.05,261.49 L58.04,261.48 L58.03,261.46 L58.02,261.45 L58.01,261.44 L58.01,261.42 L58.00,261.41 L57.99,261.40 L57.98,261.38 L57.97,261.37 L57.97,261.36 L57.96,261.34 L57.95,261.33 L57.94,261.32 L57.94,261.30 L57.93,261.29 L57.92,261.28 L57.91,261.26 L57.91,261.25 L57.90,261.23 L57.89,261.22 L57.89,261.21 L57.88,261.19 L57.87,261.18 L57.86,261.17 L57.86,261.15 L57.85,261.14 L57.84,261.12 L57.84,261.11 L57.83,261.09 L57.83,261.08 L57.82,261.07 L57.81,261.05 L57.81,261.04 L57.80,261.02 L57.79,261.01 L57.79,261.00 L57.78,260.98 L57.78,260.97 L57.77,260.95 L57.77,260.94 L57.76,260.92 L57.75,260.91 L57.75,260.89 L57.74,260.88 L57.74,260.86 L57.73,260.85 L57.73,260.84 L57.72,260.82 L57.72,260.81 L57.71,260.79 L57.71,260.78 L57.70,260.76 L57.70,260.75 L57.69,260.73 L57.69,260.72 L57.69,260.70 L57.68,260.69 L57.68,260.67 L57.67,260.66 L57.67,260.64 L57.66,260.63 L57.66,260.61 L57.66,260.60 L57.65,260.58 L57.65,260.57 L57.65,260.55 L57.64,260.54 L57.64,260.52 L57.63,260.51 L57.63,260.49 L57.63,260.48 L57.62,260.46 L57.62,260.45 L57.62,260.43 L57.62,260.42 L57.61,260.40 L57.61,260.39 L57.61,260.37 L57.60,260.35 L57.60,260.34 L57.60,260.32 L57.60,260.31 L57.59,260.29 L57.59,260.28 L57.59,260.26 L57.59,260.25 L57.59,260.23 L57.58,260.22 L57.58,260.20 L57.58,260.19 L57.58,260.17 L57.58,260.15 L57.58,260.14 L57.57,260.12 L57.57,260.11 L57.57,260.09 L57.57,260.08 L57.57,260.06 L57.57,260.05 L57.57,260.03 L57.57,260.02 L57.56,260.00 L57.56,259.98 L57.56,259.97 L57.56,259.95 L57.56,259.94 L57.56,259.92 L57.56,259.91 L57.56,259.89 L57.56,259.88 L57.56,259.86 L57.56,259.84 L57.56,259.83 L57.56,259.81 L57.56,259.80 L57.56,259.78 L57.56,259.77 L57.56,259.75 L57.56,259.74 L57.56,259.72 L57.56,259.71 L57.56,259.69 L57.56,259.67 L57.57,259.66 L57.57,259.64 L57.57,259.63 L57.57,259.61 L57.57,259.60 L57.57,259.58 L57.57,259.57 L57.57,259.55 L57.58,259.53 L57.58,259.52 L57.58,259.50 L57.58,259.49 L57.58,259.47 L57.58,259.46 L57.59,259.44 L57.59,259.43 L57.59,259.41 L57.59,259.40 L57.59,259.38 L57.60,259.37 L57.60,259.35 L57.60,259.33 L57.60,259.32 L57.61,259.30 L57.61,259.29 L57.61,259.27 L57.62,259.26 L57.62,259.24 L57.62,259.23 L57.62,259.21 L57.63,259.20 L57.63,259.18 L57.63,259.17 L57.64,259.15 L57.64,259.14 L57.64,259.12 L57.65,259.11 L57.65,259.09 L57.66,259.08 L57.66,259.06 L57.66,259.05 L57.67,259.03 L57.67,259.02 L57.68,259.00 L57.68,258.99 L57.68,258.97 L57.69,258.96 L57.69,258.94 L57.70,258.93 L57.70,258.91 L57.71,258.90 L57.71,258.88 L57.72,258.87 L57.72,258.85 L57.73,258.84 L57.73,258.82 L57.74,258.81 L57.74,258.79 L57.75,258.78 L57.75,258.77 L57.76,258.75 L57.76,258.74 L57.77,258.72 L57.78,258.71 L57.78,258.69 L57.79,258.68 L57.79,258.66 L57.80,258.65 L57.81,258.64 L57.81,258.62 L57.82,258.61 L57.82,258.59 L57.83,258.58 L57.84,258.56 L57.84,258.55 L57.85,258.54 L57.86,258.52 L57.86,258.51 L57.87,258.49 L57.88,258.48 L57.88,258.47 L57.89,258.45 L57.90,258.44 L57.91,258.43 L57.91,258.41 L57.92,258.40 L57.93,258.38 L57.93,258.37 L57.94,258.36 L57.95,258.34 L57.96,258.33 L57.97,258.32 L57.97,258.30 L57.98,258.29 L57.99,258.28 L58.00,258.26 L58.00,258.25 L58.01,258.24 L58.02,258.22 L58.03,258.21 L58.04,258.20 L58.05,258.18 L58.05,258.17 L58.06,258.16 L58.07,258.14 L58.08,258.13 L58.09,258.12 L58.10,258.11 L58.11,258.09 L58.12,258.08 L58.12,258.07 L58.13,258.06 L58.14,258.04 L58.15,258.03 L58.16,258.02 L58.17,258.01 L58.18,257.99 L58.19,257.98 L58.20,257.97 L58.21,257.96 L58.22,257.94 L58.23,257.93 L58.24,257.92 L58.25,257.91 L58.26,257.90 L58.27,257.88 L58.28,257.87 L58.29,257.86 L58.30,257.85 L58.31,257.84 L58.32,257.82 L58.33,257.81 L58.34,257.80 L58.35,257.79 L58.36,257.78 L58.37,257.77 L58.38,257.75 L58.39,257.74 L58.40,257.73 L58.41,257.72 L58.42,257.71 L58.43,257.70 L58.44,257.69 L58.45,257.68 L58.47,257.67 L58.48,257.65 L58.49,257.64 L58.50,257.63 L58.51,257.62 L58.52,257.61 L58.53,257.60 L58.54,257.59 L58.56,257.58 L58.57,257.57 L58.58,257.56 L58.59,257.55 L58.60,257.54 L58.61,257.53 L58.63,257.52 L58.64,257.51 L58.65,257.50 L58.66,257.49 L58.67,257.48 L58.68,257.47 L58.70,257.46 L58.71,257.45 L58.72,257.44 L58.73,257.43 L58.75,257.42 L58.76,257.41 L58.77,257.40 L58.78,257.39 L58.79,257.38 L58.81,257.37 L58.82,257.36 L58.83,257.36 L58.85,257.35 L58.86,257.34 L58.87,257.33 L58.88,257.32 L58.90,257.31 L58.91,257.30 L58.92,257.29 L58.93,257.28 L58.95,257.28 L58.96,257.27 L58.97,257.26 L58.99,257.25 L59.00,257.24 L59.01,257.23 L59.03,257.23 L59.04,257.22 L59.05,257.21 L59.07,257.20 L59.08,257.20 L59.09,257.19 L59.11,257.18 L59.12,257.17 L59.13,257.16 L59.15,257.16 L59.16,257.15 L59.18,257.14 L59.19,257.13 L59.20,257.13 L59.22,257.12 L59.23,257.11 L59.24,257.11 L59.26,257.10 L59.27,257.09 L59.29,257.09 L59.30,257.08 L59.31,257.07 L59.33,257.07 L59.34,257.06 L59.36,257.05 L59.37,257.05 L59.38,257.04 L59.40,257.03 L59.41,257.03 L59.43,257.02 L59.44,257.02 L59.46,257.01 L59.47,257.00 L59.48,257.00 L59.50,256.99 L59.51,256.99 L59.53,256.98 L59.54,256.98 L59.56,256.97 L59.57,256.97 L59.59,256.96 L59.60,256.95 L59.62,256.95 L59.63,256.94 L59.65,256.94 L59.66,256.93 L59.67,256.93 L59.69,256.93 L59.70,256.92 L59.72,256.92 L59.73,256.91 L59.75,256.91 L59.76,256.90 L59.78,256.90 L59.79,256.89 L59.81,256.89 L59.82,256.89 L59.84,256.88 L59.85,256.88 L59.87,256.87 L59.88,256.87 L59.90,256.87 L59.91,256.86 L59.93,256.86 L59.94,256.86 L59.96,256.85 L59.97,256.85 L59.99,256.85 L60.00,256.84 L60.02,256.84 L60.04,256.84 L60.05,256.83 L60.07,256.83 L60.08,256.83 L60.10,256.83 L60.11,256.82 L60.13,256.82 L60.14,256.82 L60.16,256.82 L60.17,256.81 L60.19,256.81 L60.20,256.81 L60.22,256.81 L60.23,256.81 L60.25,256.80 L60.27,256.80 L60.28,256.80 L60.30,256.80 L60.31,256.80 L60.33,256.80 L60.34,256.79 L60.36,256.79 L60.37,256.79 L60.39,256.79 L60.40,256.79 L60.42,256.79 L60.44,256.79 L60.45,256.79 L60.47,256.79 L60.48,256.78 L60.50,256.78 L60.51,256.78 L60.53,256.78 L60.54,256.78 L60.56,256.78 L60.58,256.78 L60.59,256.78 L60.61,256.78 L60.62,256.78 L60.64,256.78 L60.65,256.78 L60.67,256.78 L60.68,256.78 L60.70,256.78 L60.72,256.78 L60.73,256.78 L60.75,256.78 L60.76,256.79 L60.78,256.79 L60.79,256.79 L60.81,256.79 L60.82,256.79 L60.84,256.79 L60.85,256.79 L60.87,256.79 L60.89,256.79 L60.90,256.80 L60.92,256.80 L60.93,256.80 L60.95,256.80 L60.96,256.80 L60.98,256.80 L60.99,256.81 L61.01,256.81 L61.02,256.81 L61.04,256.81 L61.06,256.81 L61.07,256.82 L61.09,256.82 L61.10,256.82 L61.12,256.82 L61.13,256.83 L61.15,256.83 L61.16,256.83 L61.18,256.83 L61.19,256.84 L61.21,256.84 L61.22,256.84 L61.24,256.85 L61.25,256.85 L61.27,256.85 L61.28,256.86 L61.30,256.86 L61.31,256.86 L61.33,256.87 L61.34,256.87 L61.36,256.87 L61.37,256.88 L61.39,256.88 L61.40,256.89 L61.42,256.89 L61.43,256.89 L61.45,256.90 L61.46,256.90 L61.48,256.91 L61.49,256.91 L61.51,256.92 L61.52,256.92 L61.54,256.93 L61.55,256.93 L61.57,256.93 L61.58,256.94 L61.60,256.94 L61.61,256.95 L61.63,256.95 L61.64,256.96 L61.66,256.97 L61.67,256.97 L61.69,256.98 L61.70,256.98 L61.71,256.99 L61.73,256.99 L61.74,257.00 L61.76,257.00 L61.77,257.01 L61.79,257.02 L61.80,257.02 L61.82,257.03 L61.83,257.03 L61.84,257.04 L61.86,257.05 L61.87,257.05 L61.89,257.06 L61.90,257.07 L61.91,257.07 L61.93,257.08 L61.94,257.09 L61.96,257.09 L61.97,257.10 L61.98,257.11 L62.00,257.11 L62.01,257.12 L62.03,257.13 L62.04,257.13 L62.05,257.14 L62.07,257.15 L62.08,257.16 L62.09,257.16 L62.11,257.17 L62.12,257.18 L62.13,257.19 L62.15,257.20 L62.16,257.20 L62.18,257.21 L62.19,257.22 L62.20,257.23 L62.21,257.23 L62.23,257.24 L62.24,257.25 L62.25,257.26 L62.27,257.27 L62.28,257.28 L62.29,257.28 L62.31,257.29 L62.32,257.30 L62.33,257.31 L62.35,257.32 L62.36,257.33 L62.37,257.34 L62.38,257.35 L62.40,257.36 L62.41,257.36 L62.42,257.37 L62.43,257.38 L62.45,257.39 L62.46,257.40 L62.47,257.41 L62.48,257.42 L62.50,257.43 L62.51,257.44 L62.52,257.45 L62.53,257.46 L62.54,257.47 L62.56,257.48 L62.57,257.49 L62.58,257.50 L62.59,257.51 L62.60,257.52 L62.62,257.53 L62.63,257.54 L62.64,257.55 L62.65,257.56 L62.66,257.57 L62.67,257.58 L62.68,257.59 L62.70,257.60 L62.71,257.61 L62.72,257.62 L62.73,257.63 L62.74,257.64 L62.75,257.65 L62.76,257.67 L62.77,257.68 L62.79,257.69 L62.80,257.70 L62.81,257.71 L62.82,257.72 L62.83,257.73 L62.84,257.74 L62.85,257.75 L62.86,257.77 L62.87,257.78 L62.88,257.79 L62.89,257.80 L62.90,257.81 L62.91,257.82 L62.92,257.84 L62.93,257.85 L62.94,257.86 L62.95,257.87 L62.96,257.88 L62.97,257.90 L62.98,257.91 L62.99,257.92 L63.00,257.93 L63.01,257.94 L63.02,257.96 L63.03,257.97 L63.04,257.98 L63.05,257.99 L63.06,258.01 L63.07,258.02 L63.08,258.03 L63.09,258.04 L63.10,258.06 L63.10,258.07 L63.11,258.08 L63.12,258.09 L63.13,258.11 L63.14,258.12 L63.15,258.13 L63.16,258.14 L63.17,258.16 L63.17,258.17 L63.18,258.18 L63.19,258.20 L63.20,258.21 L63.21,258.22 L63.22,258.24 L63.22,258.25 L63.23,258.26 L63.24,258.28 L63.25,258.29 L63.26,258.30 L63.26,258.32 L63.27,258.33 L63.28,258.34 L63.29,258.36 L63.29,258.37 L63.30,258.38 L63.31,258.40 L63.32,258.41 L63.32,258.43 L63.33,258.44 L63.34,258.45 L63.34,258.47 L63.35,258.48 L63.36,258.49 L63.36,258.51 L63.37,258.52 L63.38,258.54 L63.38,258.55 L63.39,258.56 L63.40,258.58 L63.40,258.59 L63.41,258.61 L63.42,258.62 L63.42,258.64 L63.43,258.65 L63.43,258.66 L63.44,258.68 L63.45,258.69 L63.45,258.71 L63.46,258.72 L63.46,258.74 L63.47,258.75 L63.47,258.77 L63.48,258.78 L63.49,258.79 L63.49,258.81 L63.50,258.82 L63.50,258.84 L63.51,258.85 L63.51,258.87 L63.52,258.88 L63.52,258.90 L63.53,258.91 L63.53,258.93 L63.53,258.94 L63.54,258.96 L63.54,258.97 L63.55,258.99 L63.55,259.00 L63.56,259.02 L63.56,259.03 L63.56,259.05 L63.57,259.06 L63.57,259.08 L63.58,259.09 L63.58,259.11 L63.58,259.12 L63.59,259.14 L63.59,259.15 L63.59,259.17 L63.60,259.18 L63.60,259.20 L63.60,259.21 L63.61,259.23 L63.61,259.24 L63.61,259.26 L63.62,259.27 L63.62,259.29 L63.62,259.30 L63.62,259.32 L63.63,259.33 L63.63,259.35 L63.63,259.37 L63.63,259.38 L63.64,259.40 L63.64,259.41 L63.64,259.43 L63.64,259.44 L63.64,259.46 L63.65,259.47 L63.65,259.49 L63.65,259.50 L63.65,259.52 L63.65,259.53 L63.65,259.55 L63.66,259.57 L63.66,259.58 L63.66,259.60 L63.66,259.61 L63.66,259.63 L63.66,259.64 L63.66,259.66 L63.66,259.67 L63.66,259.69 L63.67,259.71 L63.67,259.72 L63.67,259.74 L63.67,259.75 L63.67,259.77 L63.67,259.78 L63.67,259.80 L63.67,259.81 L63.67,259.83 L63.67,259.84 L63.67,259.86 L63.67,259.88 L63.67,259.89 L63.67,259.91 L63.67,259.92 L63.67,259.94 L63.67,259.95 L63.67,259.97 L63.66,259.98 L63.66,260.00 L63.66,260.02 L63.66,260.03 L63.66,260.05 L63.66,260.06 L63.66,260.08 L63.66,260.09 L63.66,260.11 L63.65,260.12 L63.65,260.14 L63.65,260.15 L63.65,260.17 L63.65,260.19 L63.65,260.20 L63.64,260.22 L63.64,260.23 L63.64,260.25 L63.64,260.26 L63.64,260.28 L63.63,260.29 L63.63,260.31 L63.63,260.32 L63.63,260.34 L63.62,260.35 L63.62,260.37 L63.62,260.39 L63.62,260.40 L63.61,260.42 L63.61,260.43 L63.61,260.45 L63.60,260.46 L63.60,260.48 L63.60,260.49 L63.59,260.51 L63.59,260.52 L63.59,260.54 L63.58,260.55 L63.58,260.57 L63.58,260.58 L63.57,260.60 L63.57,260.61 L63.56,260.63 L63.56,260.64 L63.56,260.66 L63.55,260.67 L63.55,260.69 L63.54,260.70 L63.54,260.72 L63.53,260.73 L63.53,260.75 L63.52,260.76 L63.52,260.78 L63.51,260.79 L63.51,260.81 L63.51,260.82 L63.50,260.84 L63.49,260.85 L63.49,260.86 L63.48,260.88 L63.48,260.89 L63.47,260.91 L63.47,260.92 L63.46,260.94 L63.46,260.95 L63.45,260.97 L63.45,260.98 L63.44,261.00 L63.43,261.01 L63.43,261.02 L63.42,261.04 L63.42,261.05 L63.41,261.07 L63.40,261.08 L63.40,261.09 L63.39,261.11 L63.38,261.12 L63.38,261.14 L63.37,261.15 L63.36,261.17 L63.36,261.18 L63.35,261.19 L63.34,261.21 L63.34,261.22 L63.33,261.23 L63.32,261.25 L63.31,261.26 L63.31,261.28 L63.30,261.29 L63.29,261.30 L63.29,261.32 L63.28,261.33 L63.27,261.34 L63.26,261.36 L63.25,261.37 L63.25,261.38 L63.24,261.40 L63.23,261.41 L63.22,261.42 L63.21,261.44 L63.21,261.45 L63.20,261.46 L63.19,261.48 L63.18,261.49 L63.17,261.50 L63.16,261.52 L63.16,261.53 L63.15,261.54 L63.14,261.55 L63.13,261.57 L63.12,261.58 L63.11,261.59 L63.10,261.61 L63.09,261.62 L63.08,261.63 L63.08,261.64 L63.07,261.66 L63.06,261.67 L63.05,261.68 L63.04,261.69 L63.03,261.71 L63.02,261.72 L63.01,261.73 L63.00,261.74 L62.99,261.75 L62.98,261.77 L62.97,261.78 L62.96,261.79 L62.95,261.80 L62.94,261.81 L62.93,261.83 L62.92,261.84 L62.91,261.85 L62.90,261.86 L62.89,261.87 L62.88,261.88 L62.87,261.90 L62.86,261.91 L62.85,261.92 L62.84,261.93 L62.83,261.94 L62.82,261.95 L62.81,261.96 L62.79,261.97 L62.78,261.99 L62.77,262.00 L62.76,262.01 L62.75,262.02 L62.74,262.03 L62.73,262.04 L62.72,262.05 L62.71,262.06 L62.69,262.07 L62.68,262.08 L62.67,262.09 L62.66,262.10 L62.65,262.11 L62.64,262.12 L62.62,262.13 L62.61,262.14 L62.60,262.15 L62.59,262.16 L62.58,262.17 L62.57,262.18 L62.55,262.19 L62.54,262.20 L62.53,262.21 L62.52,262.22 L62.51,262.23 L62.49,262.24 L62.48,262.25 L62.47,262.26 L62.46,262.27 L62.44,262.28 L62.43,262.29 L62.42,262.30 L62.41,262.31 L62.39,262.32 L62.38,262.33 L62.37,262.34 L62.36,262.34 L62.34,262.35 L62.33,262.36 L62.32,262.37 L62.30,262.38 L62.29,262.39 L62.28,262.40 L62.27,262.40 L62.25,262.41 L62.24,262.42 L62.23,262.43 L62.21,262.44 L62.20,262.45 L62.19,262.45 L62.17,262.46 L62.16,262.47 L62.15,262.48 L62.13,262.49 L62.12,262.49 L62.11,262.50 L62.09,262.51 L62.08,262.52 L62.06,262.52 L62.05,262.53 L62.04,262.54 L62.02,262.55 L62.01,262.55 L62.00,262.56 L61.98,262.57 L61.97,262.57 L61.95,262.58 L61.94,262.59 L61.93,262.59 L61.91,262.60 L61.90,262.61 L61.88,262.61 L61.87,262.62 L61.86,262.63 L61.84,262.63 L61.83,262.64 L61.81,262.64 L61.80,262.65 L61.78,262.66 L61.77,262.66 L61.76,262.67 L61.74,262.67 L61.73,262.68 L61.71,262.69 L61.70,262.69 L61.68,262.70 L61.67,262.70 L61.65,262.71 L61.64,262.71 L61.63,262.72 L61.61,262.72 L61.60,262.73 L61.58,262.73 L61.57,262.74 L61.55,262.74 L61.54,262.75 L61.52,262.75 L61.51,262.76 L61.49,262.76 L61.48,262.77 L61.46,262.77 L61.45,262.77 L61.43,262.78 L61.42,262.78 L61.40,262.79 L61.39,262.79 L61.37,262.79 L61.36,262.80 L61.34,262.80 L61.33,262.81 L61.31,262.81 L61.30,262.81 L61.28,262.82 L61.27,262.82 L61.25,262.82 L61.24,262.83 L61.22,262.83 L61.21,262.83 L61.19,262.83 L61.18,262.84 L61.16,262.84 L61.14,262.84 L61.13,262.85 L61.11,262.85 L61.10,262.85 L61.08,262.85 L61.07,262.86 L61.05,262.86 L61.04,262.86 L61.02,262.86 L61.01,262.86 L60.99,262.87 L60.98,262.87 L60.96,262.87 L60.95,262.87 L60.93,262.87 L60.91,262.88 L60.90,262.88 L60.88,262.88 L60.87,262.88 L60.85,262.88 L60.84,262.88 L60.82,262.88 L60.81,262.88 L60.79,262.88 L60.77,262.89 L60.76,262.89 L60.74,262.89 L60.73,262.89 L60.71,262.89 L60.70,262.89 L60.68,262.89 L60.67,262.89 L60.65,262.89 L60.64,262.89 L60.62,262.89 L60.60,262.89 L60.59,262.89"
                                  style="stroke-width: 2; stroke: rgb(74, 144, 226); stroke-opacity: 0.8;" />
                        </g>
                    </g>
                    <g class="test-xtl"
                       style="font-family: &quot;Open Sans&quot;, verdana, arial, sans-serif;" />
                    <g class="test-ytl"
                       style="font-family: &quot;Open Sans&quot;, verdana, arial, sans-serif;" />
                    <rect class="real"
                          x="1"
                          y="1"
                          width="618"
                          height="444"
                          style="fill: transparent; stroke: none;" />
                </g>
            </g>
        </g>
        <g />
    </g>
    <g />
    <g />
    <g />
    <g>
        <g>
            <g>
                <g transform="matrix(1,0,0,1,446.66668701171875,43.39582824707031)">
                    <path transform="matrix(0.017,0,0,-0.017,0,0)"
                          d="M345 437L329 437L350 549C366 635 394 673 440 673C470 673 497 658 512 634L522 638C527 654 537 685 545 705L550 720C534 727 503 733 480 733C469 733 453 730 445 726C421 715 339 654 316 630C294 608 282 578 271 521L256 442C215 422 195 414 170 405L165 383L246 383L237 327C207 132 170 -54 148 -123C130 -182 100 -213 64 -213C41 -213 30 -206 12 -184L-2 -188C-6 -211 -20 -259 -25 -268C-16 -273 -1 -276 10 -276C51 -276 105 -245 144 -198C215 -114 235 -18 319 383L423 383C427 402 434 425 440 439L436 446C407 439 408 437 345 437Z"
                          class="char"
                          stroke-opacity="1"
                          stroke-width="8"
                          fill-opacity="1" />
                </g>
            </g>
            <g>
                <g transform="matrix(1,0,0,1,456.02081298828125,44.0625)">
                    <path transform="matrix(0.017,0,0,-0.017,0,0)"
                          d="M146 266C146 526 243 632 301 700L282 726C225 675 60 542 60 266C60 159 85 58 133 -32C168 -99 200 -138 282 -215L301 -194C255 -137 146 -15 146 266Z"
                          class="char"
                          stroke-opacity="1"
                          stroke-width="8"
                          fill-opacity="1" />
                </g>
            </g>
            <g>
                <g transform="matrix(1,0,0,1,461.66668701171875,43.39582824707031)">
                    <path transform="matrix(0.017,0,0,-0.017,0,0)"
                          d="M9 1C24 -7 40 -11 52 -11C85 -11 124 18 155 65L231 182L242 113C255 28 278 -11 314 -11C336 -11 368 6 400 35L449 79L440 98C404 68 379 53 363 53C348 53 335 63 325 83C316 102 305 139 300 168L282 269L317 318C364 383 391 406 422 406C438 406 450 398 455 383L469 387L484 472C472 479 463 482 454 482C414 482 374 446 312 354L275 299L269 347C257 446 230 482 171 482C145 482 123 474 114 461L56 378L73 368C103 402 123 416 142 416C175 416 197 375 214 277L225 215L185 153C142 86 108 54 80 54C65 54 54 58 52 63L41 91L21 88C21 53 13 27 9 1Z"
                          class="char"
                          stroke-opacity="1"
                          stroke-width="8"
                          fill-opacity="1" />
                </g>
            </g>
            <g>
                <g transform="matrix(1,0,0,1,470.15625,44.0625)">
                    <path transform="matrix(0.017,0,0,-0.017,0,0)"
                          d="M51 726L32 700C87 636 187 526 187 266C187 -10 83 -131 32 -194L51 -215C104 -165 273 -23 273 265C273 542 108 675 51 726Z"
                          class="char"
                          stroke-opacity="1"
                          stroke-width="8"
                          fill-opacity="1" />
                </g>
            </g>
            <g>
                <g transform="matrix(1,0,0,1,480.89581298828125,43.39582824707031)">
                    <path transform="matrix(0.017,0,0,-0.017,0,0)"
                          d="M604 347L604 406L65 406L65 347ZM604 134L604 193L65 193L65 134Z"
                          class="char"
                          stroke-opacity="1"
                          stroke-width="8"
                          fill-opacity="1" />
                </g>
            </g>
            <g>
                <g>
                    <g>
                        <g>
                            <g transform="matrix(1,0,0,1,508.15625,31)">
                                <path transform="matrix(0.017,0,0,-0.017,0,0)"
                                      d="M9 1C24 -7 40 -11 52 -11C85 -11 124 18 155 65L231 182L242 113C255 28 278 -11 314 -11C336 -11 368 6 400 35L449 79L440 98C404 68 379 53 363 53C348 53 335 63 325 83C316 102 305 139 300 168L282 269L317 318C364 383 391 406 422 406C438 406 450 398 455 383L469 387L484 472C472 479 463 482 454 482C414 482 374 446 312 354L275 299L269 347C257 446 230 482 171 482C145 482 123 474 114 461L56 378L73 368C103 402 123 416 142 416C175 416 197 375 214 277L225 215L185 153C142 86 108 54 80 54C65 54 54 58 52 63L41 91L21 88C21 53 13 27 9 1Z"
                                      class="char"
                                      stroke-opacity="1"
                                      stroke-width="8"
                                      fill-opacity="1" />
                            </g>
                        </g>
                    </g>
                </g>
                <g>
                    <g>
                        <g>
                            <g>
                                <g transform="matrix(1,0,0,1,499.05206298828125,56.79167175292969)">
                                    <path transform="matrix(0.017,0,0,-0.017,0,0)"
                                          d="M23 661L79 661C97 661 104 650 104 620L104 102C104 39 101 32 67 30L21 27L21 -3C121 0 121 0 146 0C171 0 171 0 271 -3L271 27L225 30C191 32 188 39 188 102L188 718L179 726C135 709 102 701 23 689ZM700 -3C761 0 762 0 779 0C793 0 793 0 862 -3L862 27L821 30C787 32 784 38 784 102L784 295C784 412 729 469 617 469C580 469 559 462 538 444L462 378L462 465L453 469C402 448 350 434 297 428L297 400L334 400C374 400 378 393 378 327L378 102C378 39 375 32 341 30L296 27L296 -3C364 -1 391 0 420 0C449 0 476 -1 544 -3L544 27L499 30C465 32 462 39 462 102L462 314C462 359 528 408 589 408C656 408 700 358 700 281Z"
                                          class="char"
                                          stroke-opacity="1"
                                          stroke-width="8"
                                          fill-opacity="1" />
                                </g>
                            </g>
                        </g>
                        <g>
                            <g transform="matrix(1,0,0,1,517.2604370117188,56.79167175292969)">
                                <path transform="matrix(0.017,0,0,-0.017,0,0)"
                                      d="M9 1C24 -7 40 -11 52 -11C85 -11 124 18 155 65L231 182L242 113C255 28 278 -11 314 -11C336 -11 368 6 400 35L449 79L440 98C404 68 379 53 363 53C348 53 335 63 325 83C316 102 305 139 300 168L282 269L317 318C364 383 391 406 422 406C438 406 450 398 455 383L469 387L484 472C472 479 463 482 454 482C414 482 374 446 312 354L275 299L269 347C257 446 230 482 171 482C145 482 123 474 114 461L56 378L73 368C103 402 123 416 142 416C175 416 197 375 214 277L225 215L185 153C142 86 108 54 80 54C65 54 54 58 52 63L41 91L21 88C21 53 13 27 9 1Z"
                                      class="char"
                                      stroke-opacity="1"
                                      stroke-width="8"
                                      fill-opacity="1" />
                            </g>
                        </g>
                    </g>
                </g>
                <line class="char" style="fill:none;stroke-width:0.666667px;"
                      x1="499.05206298828125"
                      y1="39.47916668653488"
                      x2="525.7499809265137"
                      y2="39.47916668653488" />
            </g>
        </g>
    </g>
    <g>
        <g>
            <g>
                <g transform="matrix(1,0,0,1,196.66668701171875,286.3000152587891)">
                    <path transform="matrix(0.015300000000000001,0,0,-0.015300000000000001,0,0)"
                          d="M328 111L304 94C251 56 203 36 167 36C120 36 91 73 91 133C91 158 94 185 99 214C116 218 225 248 250 259C335 296 374 342 374 404C374 451 340 482 290 482C222 496 112 423 75 349C45 299 15 180 15 113C15 35 59 -11 131 -11C188 -11 244 17 336 92ZM113 274C130 343 150 386 179 412C197 428 228 440 252 440C281 440 300 420 300 388C300 344 265 297 213 272C185 258 149 247 104 237Z"
                          class="char"
                          stroke-opacity="1"
                          stroke-width="8"
                          fill-opacity="1" />
                </g>
            </g>
        </g>
    </g>
    <g>
        <g>
            <g>
                <g transform="matrix(1,0,0,1,66.66665649414062,155.30001525878907)">
                    <path transform="matrix(0.015300000000000001,0,0,-0.015300000000000001,0,0)"
                          d="M328 111L304 94C251 56 203 36 167 36C120 36 91 73 91 133C91 158 94 185 99 214C116 218 225 248 250 259C335 296 374 342 374 404C374 451 340 482 290 482C222 496 112 423 75 349C45 299 15 180 15 113C15 35 59 -11 131 -11C188 -11 244 17 336 92ZM113 274C130 343 150 386 179 412C197 428 228 440 252 440C281 440 300 420 300 388C300 344 265 297 213 272C185 258 149 247 104 237Z"
                          class="char"
                          stroke-opacity="1"
                          stroke-width="8"
                          fill-opacity="1" />
                </g>
            </g>
        </g>
    </g>
    <g>
        <g>
            <g>
                <g transform="matrix(1,0,0,1,132.66668701171875,449.00001525878906)">
                    <path transform="matrix(0.017,0,0,-0.017,0,0)"
                          d="M9 1C24 -7 40 -11 52 -11C85 -11 124 18 155 65L231 182L242 113C255 28 278 -11 314 -11C336 -11 368 6 400 35L449 79L440 98C404 68 379 53 363 53C348 53 335 63 325 83C316 102 305 139 300 168L282 269L317 318C364 383 391 406 422 406C438 406 450 398 455 383L469 387L484 472C472 479 463 482 454 482C414 482 374 446 312 354L275 299L269 347C257 446 230 482 171 482C145 482 123 474 114 461L56 378L73 368C103 402 123 416 142 416C175 416 197 375 214 277L225 215L185 153C142 86 108 54 80 54C65 54 54 58 52 63L41 91L21 88C21 53 13 27 9 1Z"
                          class="char"
                          stroke-opacity="1"
                          stroke-width="8"
                          fill-opacity="1" />
                </g>
            </g>
            <g>
                <g transform="matrix(1,0,0,1,146.25,449.00001525878906)">
                    <path transform="matrix(0.017,0,0,-0.017,0,0)"
                          d="M604 347L604 406L65 406L65 347ZM604 134L604 193L65 193L65 134Z"
                          class="char"
                          stroke-opacity="1"
                          stroke-width="8"
                          fill-opacity="1" />
                </g>
            </g>
            <g>
                <g transform="matrix(1,0,0,1,162.70831298828125,449.00001525878906)">
                    <path transform="matrix(0.017,0,0,-0.017,0,0)"
                          d="M418 -3L418 27L366 30C311 33 301 44 301 96L301 700L60 598L67 548L217 614L217 96C217 44 206 33 152 30L96 27L96 -3C250 0 250 0 261 0C292 0 402 -3 418 -3Z"
                          class="char"
                          stroke-opacity="1"
                          stroke-width="8"
                          fill-opacity="1" />
                </g>
            </g>
        </g>
    </g>
</svg>