<svg xmlns="http://www.w3.org/2000/svg"
     xmlns:xlink="http://www.w3.org/1999/xlink"
     x="0"
     y="0"
     width="661.3333740234375"
     height="477.66668701171875">
    <!-- 内联样式 -->
    <style type="text/css">
        .connection {
            stroke: rgb(20, 20, 20);
        }

        .connection-fill {
            fill: rgb(20, 20, 20);
        }

        .char {
            stroke: rgb(0, 0, 0);
            fill: rgb(0, 0, 0);
        }

        @media (prefers-color-scheme: dark) {
            .connection {
                stroke: rgb(200, 200, 200);
            }

            .connection-fill {
                fill: rgb(200, 200, 200);
            }

            .char {
                stroke: rgb(239, 239, 239);
                fill: rgb(239, 239, 239);
            }
        }
    </style>
    <g class="shapes-region"
       style="stroke: black; fill: none;">
        <g class="arrow-line">
            <path class="connection"
                  stroke-dasharray="6 6"
                  d="  M350.33,344.67 L427.33,344.67"
                  style="stroke-width: 1; fill: none; fill-opacity: 1;" />
        </g>
        <g class="arrow-line">
            <path class="connection"
                  stroke-dasharray="6 6"
                  d="  M350.33,344.67 L350.33,314.67"
                  style="stroke-width: 1; fill: none; fill-opacity: 1;" />
        </g>
        <g class="composite-shape"
           data-amt="diagram/shapes/plot"
           transform="matrix(1,0,0,1,20,10)">
            <g>
                <g />
                <g>
                    <g class="test-xti"
                       style="font-family: Asana-Math, Asana;">
                        <line x1="0"
                              y1="305.97017856547546"
                              x2="616"
                              y2="305.97017856547546"
                              fill="none"
                              class="connection"
                              stroke-opacity="1"
                              stroke-width="1" />
                        <line x1="23.319233966851588"
                              y1="301.97017856547546"
                              x2="23.319233966851588"
                              y2="309.97017856547546"
                              fill="none"
                              class="connection"
                              stroke-opacity="1"
                              stroke-width="1" />
                        <line x1="100.02190927093505"
                              y1="301.97017856547546"
                              x2="100.02190927093505"
                              y2="309.97017856547546"
                              fill="none"
                              class="connection"
                              stroke-opacity="1"
                              stroke-width="1" />
                        <line x1="176.72458457501853"
                              y1="301.97017856547546"
                              x2="176.72458457501853"
                              y2="309.97017856547546"
                              fill="none"
                              class="connection"
                              stroke-opacity="1"
                              stroke-width="1" />
                        <line x1="253.42725987910197"
                              y1="301.97017856547546"
                              x2="253.42725987910197"
                              y2="309.97017856547546"
                              fill="none"
                              class="connection"
                              stroke-opacity="1"
                              stroke-width="1" />
                        <line x1="330.1299351831854"
                              y1="301.97017856547546"
                              x2="330.1299351831854"
                              y2="309.97017856547546"
                              fill="none"
                              class="connection"
                              stroke-opacity="1"
                              stroke-width="1" />
                        <line x1="483.5352857913524"
                              y1="301.97017856547546"
                              x2="483.5352857913524"
                              y2="309.97017856547546"
                              fill="none"
                              class="connection"
                              stroke-opacity="1"
                              stroke-width="1" />
                        <line x1="560.2379610954358"
                              y1="301.97017856547546"
                              x2="560.2379610954358"
                              y2="309.97017856547546"
                              fill="none"
                              class="connection"
                              stroke-opacity="1"
                              stroke-width="1" />
                        <path d="M611,302.37017856547544 L619,305.97017856547546 L611,309.5701785654755 Z"
                              stroke="none"
                              stroke-width="1"
                              class="connection-fill"
                              fill-opacity="1" />
                    </g>
                    <g class="test-yti"
                       style="font-family: Asana-Math, Asana;">
                        <line x1="406.83261048726894"
                              y1="4"
                              x2="406.83261048726894"
                              y2="446"
                              fill="none"
                              class="connection"
                              stroke-opacity="1"
                              stroke-width="1" />
                        <line x1="402.83261048726894"
                              y1="382.67285386955894"
                              x2="410.83261048726894"
                              y2="382.67285386955894"
                              fill="none"
                              class="connection"
                              stroke-opacity="1"
                              stroke-width="1" />
                        <line x1="402.83261048726894"
                              y1="229.267503261392"
                              x2="410.83261048726894"
                              y2="229.267503261392"
                              fill="none"
                              class="connection"
                              stroke-opacity="1"
                              stroke-width="1" />
                        <line x1="402.83261048726894"
                              y1="152.56482795730852"
                              x2="410.83261048726894"
                              y2="152.56482795730852"
                              fill="none"
                              class="connection"
                              stroke-opacity="1"
                              stroke-width="1" />
                        <line x1="402.83261048726894"
                              y1="75.86215265322505"
                              x2="410.83261048726894"
                              y2="75.86215265322505"
                              fill="none"
                              class="connection"
                              stroke-opacity="1"
                              stroke-width="1" />
                        <path d="M403.2326104872689,9 L406.83261048726894,1 L410.43261048726896,9 Z"
                              stroke="none"
                              stroke-width="1"
                              class="connection-fill"
                              fill-opacity="1" />
                    </g>
                    <g class="test-plot-expression">
                        <defs>
                            <clipPath id="cpirbg5gvhb">
                                <rect x="1"
                                      y="1"
                                      width="618"
                                      height="444" />
                            </clipPath>
                        </defs>
                        <g clip-path="url(#cpirbg5gvhb)">
                            <path d=" M0.00,307.99 L0.56,308.00 L1.13,308.02 L1.69,308.03 L2.26,308.04 L2.82,308.05 L3.38,308.07 L3.95,308.08 L4.51,308.09 L5.08,308.10 L5.64,308.12 L6.21,308.13 L6.77,308.14 L7.33,308.16 L7.90,308.17 L8.46,308.18 L9.03,308.19 L9.59,308.21 L10.15,308.22 L10.72,308.23 L11.28,308.25 L11.85,308.26 L12.41,308.28 L12.98,308.29 L13.54,308.30 L14.10,308.32 L14.67,308.33 L15.23,308.34 L15.80,308.36 L16.36,308.37 L16.92,308.39 L17.49,308.40 L18.05,308.42 L18.62,308.43 L19.18,308.44 L19.75,308.46 L20.31,308.47 L20.87,308.49 L21.44,308.50 L22.00,308.52 L22.57,308.53 L23.13,308.55 L23.69,308.56 L24.26,308.58 L24.82,308.60 L25.39,308.61 L25.95,308.63 L26.52,308.64 L27.08,308.66 L27.64,308.67 L28.21,308.69 L28.77,308.71 L29.34,308.72 L29.90,308.74 L30.46,308.75 L31.03,308.77 L31.59,308.79 L32.16,308.80 L32.72,308.82 L33.28,308.84 L33.85,308.85 L34.41,308.87 L34.98,308.89 L35.54,308.90 L36.11,308.92 L36.67,308.94 L37.23,308.96 L37.80,308.97 L38.36,308.99 L38.93,309.01 L39.49,309.03 L40.05,309.04 L40.62,309.06 L41.18,309.08 L41.75,309.10 L42.31,309.12 L42.88,309.13 L43.44,309.15 L44.00,309.17 L44.57,309.19 L45.13,309.21 L45.70,309.23 L46.26,309.25 L46.82,309.27 L47.39,309.28 L47.95,309.30 L48.52,309.32 L49.08,309.34 L49.65,309.36 L50.21,309.38 L50.77,309.40 L51.34,309.42 L51.90,309.44 L52.47,309.46 L53.03,309.48 L53.59,309.50 L54.16,309.52 L54.72,309.54 L55.29,309.56 L55.85,309.58 L56.41,309.61 L56.98,309.63 L57.54,309.65 L58.11,309.67 L58.67,309.69 L59.24,309.71 L59.80,309.73 L60.36,309.75 L60.93,309.78 L61.49,309.80 L62.06,309.82 L62.62,309.84 L63.18,309.86 L63.75,309.89 L64.31,309.91 L64.88,309.93 L65.44,309.95 L66.01,309.98 L66.57,310.00 L67.13,310.02 L67.70,310.05 L68.26,310.07 L68.83,310.09 L69.39,310.12 L69.95,310.14 L70.52,310.16 L71.08,310.19 L71.65,310.21 L72.21,310.24 L72.78,310.26 L73.34,310.28 L73.90,310.31 L74.47,310.33 L75.03,310.36 L75.60,310.38 L76.16,310.41 L76.72,310.43 L77.29,310.46 L77.85,310.48 L78.42,310.51 L78.98,310.53 L79.55,310.56 L80.11,310.59 L80.67,310.61 L81.24,310.64 L81.80,310.66 L82.37,310.69 L82.93,310.72 L83.49,310.74 L84.06,310.77 L84.62,310.80 L85.19,310.83 L85.75,310.85 L86.31,310.88 L86.88,310.91 L87.44,310.94 L88.01,310.96 L88.57,310.99 L89.14,311.02 L89.70,311.05 L90.26,311.08 L90.83,311.10 L91.39,311.13 L91.96,311.16 L92.52,311.19 L93.08,311.22 L93.65,311.25 L94.21,311.28 L94.78,311.31 L95.34,311.34 L95.91,311.37 L96.47,311.40 L97.03,311.43 L97.60,311.46 L98.16,311.49 L98.73,311.52 L99.29,311.55 L99.85,311.58 L100.42,311.61 L100.98,311.64 L101.55,311.67 L102.11,311.71 L102.68,311.74 L103.24,311.77 L103.80,311.80 L104.37,311.83 L104.93,311.87 L105.50,311.90 L106.06,311.93 L106.62,311.96 L107.19,312.00 L107.75,312.03 L108.32,312.06 L108.88,312.10 L109.44,312.13 L110.01,312.16 L110.57,312.20 L111.14,312.23 L111.70,312.26 L112.27,312.30 L112.83,312.33 L113.39,312.37 L113.96,312.40 L114.52,312.44 L115.09,312.47 L115.65,312.51 L116.21,312.54 L116.78,312.58 L117.34,312.62 L117.91,312.65 L118.47,312.69 L119.04,312.72 L119.60,312.76 L120.16,312.80 L120.73,312.83 L121.29,312.87 L121.86,312.91 L122.42,312.95 L122.98,312.98 L123.55,313.02 L124.11,313.06 L124.68,313.10 L125.24,313.14 L125.81,313.17 L126.37,313.21 L126.93,313.25 L127.50,313.29 L128.06,313.33 L128.63,313.37 L129.19,313.41 L129.75,313.45 L130.32,313.49 L130.88,313.53 L131.45,313.57 L132.01,313.61 L132.58,313.65 L133.14,313.69 L133.70,313.73 L134.27,313.77 L134.83,313.81 L135.40,313.85 L135.96,313.90 L136.52,313.94 L137.09,313.98 L137.65,314.02 L138.22,314.07 L138.78,314.11 L139.34,314.15 L139.91,314.19 L140.47,314.24 L141.04,314.28 L141.60,314.32 L142.17,314.37 L142.73,314.41 L143.29,314.46 L143.86,314.50 L144.42,314.54 L144.99,314.59 L145.55,314.63 L146.11,314.68 L146.68,314.72 L147.24,314.77 L147.81,314.82 L148.37,314.86 L148.94,314.91 L149.50,314.95 L150.06,315.00 L150.63,315.05 L151.19,315.09 L151.76,315.14 L152.32,315.19 L152.88,315.24 L153.45,315.28 L154.01,315.33 L154.58,315.38 L155.14,315.43 L155.71,315.48 L156.27,315.52 L156.83,315.57 L157.40,315.62 L157.96,315.67 L158.53,315.72 L159.09,315.77 L159.65,315.82 L160.22,315.87 L160.78,315.92 L161.35,315.97 L161.91,316.02 L162.47,316.07 L163.04,316.12 L163.60,316.18 L164.17,316.23 L164.73,316.28 L165.30,316.33 L165.86,316.38 L166.42,316.44 L166.99,316.49 L167.55,316.54 L168.12,316.59 L168.68,316.65 L169.24,316.70 L169.81,316.75 L170.37,316.81 L170.94,316.86 L171.50,316.92 L172.07,316.97 L172.63,317.02 L173.19,317.08 L173.76,317.13 L174.32,317.19 L174.89,317.24 L175.45,317.30 L176.01,317.36 L176.58,317.41 L177.14,317.47 L177.71,317.52 L178.27,317.58 L178.84,317.64 L179.40,317.70 L179.96,317.75 L180.53,317.81 L181.09,317.87 L181.66,317.93 L182.22,317.98 L182.78,318.04 L183.35,318.10 L183.91,318.16 L184.48,318.22 L185.04,318.28 L185.61,318.34 L186.17,318.40 L186.73,318.46 L187.30,318.52 L187.86,318.58 L188.43,318.64 L188.99,318.70 L189.55,318.76 L190.12,318.82 L190.68,318.88 L191.25,318.94 L191.81,319.00 L192.37,319.06 L192.94,319.13 L193.50,319.19 L194.07,319.25 L194.63,319.31 L195.20,319.38 L195.76,319.44 L196.32,319.50 L196.89,319.57 L197.45,319.63 L198.02,319.69 L198.58,319.76 L199.14,319.82 L199.71,319.89 L200.27,319.95 L200.84,320.01 L201.40,320.08 L201.97,320.14 L202.53,320.21 L203.09,320.28 L203.66,320.34 L204.22,320.41 L204.79,320.47 L205.35,320.54 L205.91,320.61 L206.48,320.67 L207.04,320.74 L207.61,320.81 L208.17,320.87 L208.74,320.94 L209.30,321.01 L209.86,321.08 L210.43,321.14 L210.99,321.21 L211.56,321.28 L212.12,321.35 L212.68,321.42 L213.25,321.49 L213.81,321.56 L214.38,321.62 L214.94,321.69 L215.51,321.76 L216.07,321.83 L216.63,321.90 L217.20,321.97 L217.76,322.04 L218.33,322.11 L218.89,322.18 L219.45,322.25 L220.02,322.33 L220.58,322.40 L221.15,322.47 L221.71,322.54 L222.27,322.61 L222.84,322.68 L223.40,322.75 L223.97,322.83 L224.53,322.90 L225.10,322.97 L225.66,323.04 L226.22,323.11 L226.79,323.19 L227.35,323.26 L227.92,323.33 L228.48,323.41 L229.04,323.48 L229.61,323.55 L230.17,323.63 L230.74,323.70 L231.30,323.77 L231.87,323.85 L232.43,323.92 L232.99,323.99 L233.56,324.07 L234.12,324.14 L234.69,324.22 L235.25,324.29 L235.81,324.37 L236.38,324.44 L236.94,324.52 L237.51,324.59 L238.07,324.67 L238.64,324.74 L239.20,324.82 L239.76,324.89 L240.33,324.97 L240.89,325.04 L241.46,325.12 L242.02,325.19 L242.58,325.27 L243.15,325.34 L243.71,325.42 L244.28,325.50 L244.84,325.57 L245.40,325.65 L245.97,325.72 L246.53,325.80 L247.10,325.88 L247.66,325.95 L248.23,326.03 L248.79,326.10 L249.35,326.18 L249.92,326.26 L250.48,326.33 L251.05,326.41 L251.61,326.49 L252.17,326.56 L252.74,326.64 L253.30,326.71 L253.87,326.79 L254.43,326.87 L255.00,326.94 L255.56,327.02 L256.12,327.10 L256.69,327.17 L257.25,327.25 L257.82,327.32 L258.38,327.40 L258.94,327.48 L259.51,327.55 L260.07,327.63 L260.64,327.71 L261.20,327.78 L261.77,327.86 L262.33,327.93 L262.89,328.01 L263.46,328.08 L264.02,328.16 L264.59,328.24 L265.15,328.31 L265.71,328.39 L266.28,328.46 L266.84,328.54 L267.41,328.61 L267.97,328.69 L268.54,328.76 L269.10,328.84 L269.66,328.91 L270.23,328.98 L270.79,329.06 L271.36,329.13 L271.92,329.21 L272.48,329.28 L273.05,329.35 L273.61,329.43 L274.18,329.50 L274.74,329.57 L275.30,329.65 L275.87,329.72 L276.43,329.79 L277.00,329.86 L277.56,329.93 L278.13,330.01 L278.69,330.08 L279.25,330.15 L279.82,330.22 L280.38,330.29 L280.95,330.36 L281.51,330.43 L282.07,330.50 L282.64,330.57 L283.20,330.64 L283.77,330.71 L284.33,330.77 L284.90,330.84 L285.46,330.91 L286.02,330.98 L286.59,331.04 L287.15,331.11 L287.72,331.18 L288.28,331.24 L288.84,331.31 L289.41,331.37 L289.97,331.44 L290.54,331.50 L291.10,331.57 L291.67,331.63 L292.23,331.69 L292.79,331.75 L293.36,331.82 L293.92,331.88 L294.49,331.94 L295.05,332.00 L295.61,332.06 L296.18,332.12 L296.74,332.18 L297.31,332.24 L297.87,332.29 L298.43,332.35 L299.00,332.41 L299.56,332.46 L300.13,332.52 L300.69,332.57 L301.26,332.63 L301.82,332.68 L302.38,332.73 L302.95,332.78 L303.51,332.83 L304.08,332.89 L304.64,332.94 L305.20,332.98 L305.77,333.03 L306.33,333.08 L306.90,333.13 L307.46,333.17 L308.03,333.22 L308.59,333.26 L309.15,333.31 L309.72,333.35 L310.28,333.39 L310.85,333.43 L311.41,333.47 L311.97,333.51 L312.54,333.55 L313.10,333.59 L313.67,333.62 L314.23,333.66 L314.80,333.69 L315.36,333.73 L315.92,333.76 L316.49,333.79 L317.05,333.82 L317.62,333.85 L318.18,333.88 L318.74,333.91 L319.31,333.93 L319.87,333.96 L320.44,333.98 L321.00,334.00 L321.57,334.02 L322.13,334.04 L322.69,334.06 L323.26,334.08 L323.82,334.10 L324.39,334.11 L324.95,334.13 L325.51,334.14 L326.08,334.15 L326.64,334.16 L327.21,334.17 L327.77,334.17 L328.33,334.18 L328.90,334.18 L329.46,334.19 L330.03,334.19 L330.59,334.19 L331.16,334.18 L331.72,334.18 L332.28,334.18 L332.85,334.17 L333.41,334.16 L333.98,334.15 L334.54,334.14 L335.10,334.13 L335.67,334.11 L336.23,334.09 L336.80,334.07 L337.36,334.05 L337.93,334.03 L338.49,334.01 L339.05,333.98 L339.62,333.95 L340.18,333.92 L340.75,333.89 L341.31,333.86 L341.87,333.82 L342.44,333.78 L343.00,333.74 L343.57,333.70 L344.13,333.66 L344.70,333.61 L345.26,333.56 L345.82,333.51 L346.39,333.46 L346.95,333.40 L347.52,333.34 L348.08,333.28 L348.64,333.22 L349.21,333.16 L349.77,333.09 L350.34,333.02 L350.90,332.95 L351.46,332.87 L352.03,332.79 L352.59,332.71 L353.16,332.63 L353.72,332.54 L354.29,332.46 L354.85,332.37 L355.41,332.27 L355.98,332.18 L356.54,332.08 L357.11,331.97 L357.67,331.87 L358.23,331.76 L358.80,331.65 L359.36,331.53 L359.93,331.42 L360.49,331.30 L361.06,331.17 L361.62,331.05 L362.18,330.92 L362.75,330.78 L363.31,330.65 L363.88,330.51 L364.44,330.36 L365.00,330.22 L365.57,330.07 L366.13,329.91 L366.70,329.75 L367.26,329.59 L367.83,329.43 L368.39,329.26 L368.95,329.09 L369.52,328.91 L370.08,328.73 L370.65,328.55 L371.21,328.36 L371.77,328.17 L372.34,327.97 L372.90,327.77 L373.47,327.57 L374.03,327.36 L374.60,327.15 L375.16,326.93 L375.72,326.71 L376.29,326.48 L376.85,326.25 L377.42,326.02 L377.98,325.78 L378.54,325.53 L379.11,325.28 L379.67,325.03 L380.24,324.77 L380.80,324.51 L381.36,324.24 L381.93,323.97 L382.49,323.69 L383.06,323.41 L383.62,323.12 L384.19,322.83 L384.75,322.53 L385.31,322.22 L385.88,321.92 L386.44,321.60 L387.01,321.28 L387.57,320.95 L388.13,320.62 L388.70,320.29 L389.26,319.94 L389.83,319.59 L390.39,319.24 L390.96,318.88 L391.52,318.51 L392.08,318.14 L392.65,317.76 L393.21,317.37 L393.78,316.98 L394.34,316.58 L394.90,316.18 L395.47,315.77 L396.03,315.35 L396.60,314.93 L397.16,314.50 L397.73,314.06 L398.29,313.61 L398.85,313.16 L399.42,312.70 L399.98,312.24 L400.55,311.76 L401.11,311.28 L401.67,310.79 L402.24,310.30 L402.80,309.79 L403.37,309.28 L403.93,308.76 L404.49,308.24 L405.06,307.70 L405.62,307.16 L406.19,306.61 L406.75,306.05 L407.32,305.48 L407.88,304.91 L408.44,304.32 L409.01,303.73 L409.57,303.13 L410.14,302.52 L410.70,301.90 L411.26,301.27 L411.83,300.64 L412.39,299.99 L412.96,299.34 L413.52,298.67 L414.09,298.00 L414.65,297.31 L415.21,296.62 L415.78,295.92 L416.34,295.21 L416.91,294.48 L417.47,293.75 L418.03,293.01 L418.60,292.25 L419.16,291.49 L419.73,290.72 L420.29,289.93 L420.86,289.13 L421.42,288.33 L421.98,287.51 L422.55,286.68 L423.11,285.84 L423.68,284.99 L424.24,284.13 L424.80,283.25 L425.37,282.37 L425.93,281.47 L426.50,280.56 L427.06,279.64 L427.63,278.70 L428.19,277.76 L428.75,276.80 L429.32,275.83 L429.88,274.84 L430.45,273.84 L431.01,272.83 L431.57,271.81 L432.14,270.77 L432.70,269.72 L433.27,268.66 L433.83,267.58 L434.39,266.49 L434.96,265.38 L435.52,264.27 L436.09,263.13 L436.65,261.98 L437.22,260.82 L437.78,259.64 L438.34,258.45 L438.91,257.24 L439.47,256.02 L440.04,254.78 L440.60,253.53 L441.16,252.26 L441.73,250.97 L442.29,249.67 L442.86,248.35 L443.42,247.02 L443.99,245.67 L444.55,244.30 L445.11,242.91 L445.68,241.51 L446.24,240.09 L446.81,238.66 L447.37,237.20 L447.93,235.73 L448.50,234.24 L449.06,232.73 L449.63,231.21 L450.19,229.66 L450.76,228.10 L451.32,226.52 L451.88,224.91 L452.45,223.29 L453.01,221.65 L453.58,219.99 L454.14,218.31 L454.70,216.61 L455.27,214.89 L455.83,213.15 L456.40,211.39 L456.96,209.61 L457.53,207.80 L458.09,205.98 L458.65,204.13 L459.22,202.26 L459.78,200.37 L460.35,198.46 L460.91,196.52 L461.47,194.57 L462.04,192.58 L462.60,190.58 L463.17,188.55 L463.73,186.50 L464.29,184.43 L464.86,182.33 L465.42,180.20 L465.99,178.05 L466.55,175.88 L467.12,173.68 L467.68,171.46 L468.24,169.21 L468.81,166.93 L469.37,164.63 L469.94,162.31 L470.50,159.95 L471.06,157.57 L471.63,155.16 L472.19,152.72 L472.76,150.26 L473.32,147.77 L473.89,145.25 L474.45,142.70 L475.01,140.12 L475.58,137.52 L476.14,134.88 L476.71,132.21 L477.27,129.52 L477.83,126.79 L478.40,124.04 L478.96,121.25 L479.53,118.43 L480.09,115.58 L480.66,112.70 L481.22,109.78 L481.78,106.83 L482.35,103.85 L482.91,100.84 L483.48,97.79 L484.04,94.71 L484.60,91.60 L485.17,88.45 L485.73,85.27 L486.30,82.05 L486.86,78.79 L487.42,75.50 L487.99,72.18 L488.55,68.81 L489.12,65.41 L489.68,61.97 L490.25,58.50 L490.81,54.99 L491.37,51.44 L491.94,47.85 L492.50,44.22 L493.07,40.55 L493.63,36.84 L494.19,33.09 L494.76,29.30 L495.32,25.47 L495.89,21.60 L496.45,17.68 L497.02,13.73 L497.58,9.73 L498.14,5.69 L498.71,1.60 L499.27,-2.53 L499.84,-6.70 L500.40,-10.92 L500.96,-15.19 L501.53,-19.50 L502.09,-23.85 L502.66,-28.25 L503.22,-32.70 L503.79,-37.20 L504.35,-41.75 L504.91,-46.34 L505.48,-50.98 L506.04,-55.67 L506.61,-60.41 L507.17,-65.21 L507.73,-70.05 L508.30,-74.94 L508.86,-79.89 L509.43,-84.88 L509.99,-89.94 L510.56,-95.04 L511.12,-100.20 L511.68,-105.41 L512.25,-110.68 L512.81,-116.00 L513.38,-121.37 L513.94,-126.81 L514.50,-132.30 L515.07,-137.85 L515.63,-143.46 L516.20,-149.12 L516.76,-154.85 L517.32,-160.63 L517.89,-166.47 L518.45,-172.38 L519.02,-178.35 L519.58,-184.37 L520.15,-190.47 L520.71,-196.62 L521.27,-202.84 L521.84,-209.12 L522.40,-215.47 L522.97,-221.88 L523.53,-228.36 L524.09,-234.91 L524.66,-241.52 L525.22,-248.21 L525.79,-254.96 L526.35,-261.78 L526.92,-268.67 L527.48,-275.63 L528.04,-282.66 L528.61,-289.77 L529.17,-296.95 L529.74,-304.20 L530.30,-311.52 L530.86,-318.93 L531.43,-326.40 L531.99,-333.95 L532.56,-341.58 L533.12,-349.29 L533.69,-357.08 L534.25,-364.94 L534.81,-372.89 L535.38,-380.91 L535.94,-389.02 L536.51,-397.21 L537.07,-405.48 L537.63,-413.84 L538.20,-422.28 L538.76,-430.81 L539.33,-439.42 L539.89,-446.00 L540.45,-446.00 L541.02,-446.00 L541.58,-446.00 L542.15,-446.00 L542.71,-446.00 L543.28,-446.00 L543.84,-446.00 L544.40,-446.00 L544.97,-446.00 L545.53,-446.00 L546.10,-446.00 L546.66,-446.00 L547.22,-446.00 L547.79,-446.00 L548.35,-446.00 L548.92,-446.00 L549.48,-446.00 L550.05,-446.00 L550.61,-446.00 L551.17,-446.00 L551.74,-446.00 L552.30,-446.00 L552.87,-446.00 L553.43,-446.00 L553.99,-446.00 L554.56,-446.00 L555.12,-446.00 L555.69,-446.00 L556.25,-446.00 L556.82,-446.00 L557.38,-446.00 L557.94,-446.00 L558.51,-446.00 L559.07,-446.00 L559.64,-446.00 L560.20,-446.00 L560.76,-446.00 L561.33,-446.00 L561.89,-446.00 L562.46,-446.00 L563.02,-446.00 L563.59,-446.00 L564.15,-446.00 L564.71,-446.00 L565.28,-446.00 L565.84,-446.00 L566.41,-446.00 L566.97,-446.00 L567.53,-446.00 L568.10,-446.00 L568.66,-446.00 L569.23,-446.00 L569.79,-446.00 L570.35,-446.00 L570.92,-446.00 L571.48,-446.00 L572.05,-446.00 L572.61,-446.00 L573.18,-446.00 L573.74,-446.00 L574.30,-446.00 L574.87,-446.00 L575.43,-446.00 L576.00,-446.00 L576.56,-446.00 L577.12,-446.00 L577.69,-446.00 L578.25,-446.00 L578.82,-446.00 L579.38,-446.00 L579.95,-446.00 L580.51,-446.00 L581.07,-446.00 L581.64,-446.00 L582.20,-446.00 L582.77,-446.00 L583.33,-446.00 L583.89,-446.00 L584.46,-446.00 L585.02,-446.00 L585.59,-446.00 L586.15,-446.00 L586.72,-446.00 L587.28,-446.00 L587.84,-446.00 L588.41,-446.00 L588.97,-446.00 L589.54,-446.00 L590.10,-446.00 L590.66,-446.00 L591.23,-446.00 L591.79,-446.00 L592.36,-446.00 L592.92,-446.00 L593.48,-446.00 L594.05,-446.00 L594.61,-446.00 L595.18,-446.00 L595.74,-446.00 L596.31,-446.00 L596.87,-446.00 L597.43,-446.00 L598.00,-446.00 L598.56,-446.00 L599.13,-446.00 L599.69,-446.00 L600.25,-446.00 L600.82,-446.00 L601.38,-446.00 L601.95,-446.00 L602.51,-446.00 L603.08,-446.00 L603.64,-446.00 L604.20,-446.00 L604.77,-446.00 L605.33,-446.00 L605.90,-446.00 L606.46,-446.00 L607.02,-446.00 L607.59,-446.00 L608.15,-446.00 L608.72,-446.00 L609.28,-446.00 L609.85,-446.00 L610.41,-446.00 L610.97,-446.00 L611.54,-446.00 L612.10,-446.00 L612.67,-446.00 L613.23,-446.00 L613.79,-446.00 L614.36,-446.00 L614.92,-446.00 L615.49,-446.00 L616.05,-446.00 L616.62,-446.00 L617.18,-446.00 L617.74,-446.00 L618.31,-446.00 L618.87,-446.00 L619.44,-446.00 L620.00,-446.00"
                                  style="stroke-width: 2; stroke: rgb(74, 144, 226); stroke-opacity: 0.8;" />
                            <g>
                                <circle cx="330.12993518318547"
                                        cy="334.1875158926963"
                                        r="1.5"
                                        style="stroke-width: 3; stroke: rgb(60, 180, 75); stroke-opacity: 0.8; fill: rgb(60, 180, 75); fill-opacity: 0.15;" />
                            </g>
                        </g>
                    </g>
                    <g class="test-xtl"
                       style="font-family: &quot;Open Sans&quot;, verdana, arial, sans-serif;" />
                    <g class="test-ytl"
                       style="font-family: &quot;Open Sans&quot;, verdana, arial, sans-serif;" />
                    <rect class="real"
                          x="1"
                          y="1"
                          width="618"
                          height="444"
                          style="fill: transparent; stroke: none;" />
                </g>
            </g>
        </g>
        <g />
    </g>
    <g />
    <g />
    <g />
    <g>
        <g>
            <g>
                <g transform="matrix(1,0,0,1,552.6666870117188,36.59375)">
                    <path transform="matrix(0.017,0,0,-0.017,0,0)"
                          d="M345 437L329 437L350 549C366 635 394 673 440 673C470 673 497 658 512 634L522 638C527 654 537 685 545 705L550 720C534 727 503 733 480 733C469 733 453 730 445 726C421 715 339 654 316 630C294 608 282 578 271 521L256 442C215 422 195 414 170 405L165 383L246 383L237 327C207 132 170 -54 148 -123C130 -182 100 -213 64 -213C41 -213 30 -206 12 -184L-2 -188C-6 -211 -20 -259 -25 -268C-16 -273 -1 -276 10 -276C51 -276 105 -245 144 -198C215 -114 235 -18 319 383L423 383C427 402 434 425 440 439L436 446C407 439 408 437 345 437Z"
                          class="char"
                          stroke-opacity="1"
                          stroke-width="8"
                          fill-opacity="1" />
                </g>
            </g>
            <g>
                <g transform="matrix(1,0,0,1,562.0208129882812,37.26042175292969)">
                    <path transform="matrix(0.017,0,0,-0.017,0,0)"
                          d="M146 266C146 526 243 632 301 700L282 726C225 675 60 542 60 266C60 159 85 58 133 -32C168 -99 200 -138 282 -215L301 -194C255 -137 146 -15 146 266Z"
                          class="char"
                          stroke-opacity="1"
                          stroke-width="8"
                          fill-opacity="1" />
                </g>
            </g>
            <g>
                <g transform="matrix(1,0,0,1,567.6666870117188,36.59375)">
                    <path transform="matrix(0.017,0,0,-0.017,0,0)"
                          d="M9 1C24 -7 40 -11 52 -11C85 -11 124 18 155 65L231 182L242 113C255 28 278 -11 314 -11C336 -11 368 6 400 35L449 79L440 98C404 68 379 53 363 53C348 53 335 63 325 83C316 102 305 139 300 168L282 269L317 318C364 383 391 406 422 406C438 406 450 398 455 383L469 387L484 472C472 479 463 482 454 482C414 482 374 446 312 354L275 299L269 347C257 446 230 482 171 482C145 482 123 474 114 461L56 378L73 368C103 402 123 416 142 416C175 416 197 375 214 277L225 215L185 153C142 86 108 54 80 54C65 54 54 58 52 63L41 91L21 88C21 53 13 27 9 1Z"
                          class="char"
                          stroke-opacity="1"
                          stroke-width="8"
                          fill-opacity="1" />
                </g>
            </g>
            <g>
                <g transform="matrix(1,0,0,1,576.15625,37.26042175292969)">
                    <path transform="matrix(0.017,0,0,-0.017,0,0)"
                          d="M51 726L32 700C87 636 187 526 187 266C187 -10 83 -131 32 -194L51 -215C104 -165 273 -23 273 265C273 542 108 675 51 726Z"
                          class="char"
                          stroke-opacity="1"
                          stroke-width="8"
                          fill-opacity="1" />
                </g>
            </g>
            <g>
                <g transform="matrix(1,0,0,1,586.8958129882812,36.59375)">
                    <path transform="matrix(0.017,0,0,-0.017,0,0)"
                          d="M604 347L604 406L65 406L65 347ZM604 134L604 193L65 193L65 134Z"
                          class="char"
                          stroke-opacity="1"
                          stroke-width="8"
                          fill-opacity="1" />
                </g>
            </g>
            <g>
                <g transform="matrix(1,0,0,1,603.3541870117188,36.59375)">
                    <path transform="matrix(0.017,0,0,-0.017,0,0)"
                          d="M9 1C24 -7 40 -11 52 -11C85 -11 124 18 155 65L231 182L242 113C255 28 278 -11 314 -11C336 -11 368 6 400 35L449 79L440 98C404 68 379 53 363 53C348 53 335 63 325 83C316 102 305 139 300 168L282 269L317 318C364 383 391 406 422 406C438 406 450 398 455 383L469 387L484 472C472 479 463 482 454 482C414 482 374 446 312 354L275 299L269 347C257 446 230 482 171 482C145 482 123 474 114 461L56 378L73 368C103 402 123 416 142 416C175 416 197 375 214 277L225 215L185 153C142 86 108 54 80 54C65 54 54 58 52 63L41 91L21 88C21 53 13 27 9 1ZM827 111L803 94C750 56 702 36 666 36C619 36 590 73 590 133C590 158 593 185 598 214C615 218 724 248 749 259C834 296 873 342 873 404C873 451 839 482 789 482C721 496 611 423 574 349C544 299 514 180 514 113C514 35 558 -11 630 -11C687 -11 743 17 835 92ZM612 274C629 343 649 386 678 412C696 428 727 440 751 440C780 440 799 420 799 388C799 344 764 297 712 272C684 258 648 247 603 237Z"
                          class="char"
                          stroke-opacity="1"
                          stroke-width="8"
                          fill-opacity="1" />
                </g>
            </g>
            <g>
                <g>
                    <g>
                        <g>
                            <g transform="matrix(1,0,0,1,619.4063110351562,30.566671752929686)">
                                <path transform="matrix(0.0119,0,0,-0.0119,0,0)"
                                      d="M9 1C24 -7 40 -11 52 -11C85 -11 124 18 155 65L231 182L242 113C255 28 278 -11 314 -11C336 -11 368 6 400 35L449 79L440 98C404 68 379 53 363 53C348 53 335 63 325 83C316 102 305 139 300 168L282 269L317 318C364 383 391 406 422 406C438 406 450 398 455 383L469 387L484 472C472 479 463 482 454 482C414 482 374 446 312 354L275 299L269 347C257 446 230 482 171 482C145 482 123 474 114 461L56 378L73 368C103 402 123 416 142 416C175 416 197 375 214 277L225 215L185 153C142 86 108 54 80 54C65 54 54 58 52 63L41 91L21 88C21 53 13 27 9 1Z"
                                      class="char"
                                      stroke-opacity="1"
                                      stroke-width="8"
                                      fill-opacity="1" />
                            </g>
                        </g>
                    </g>
                </g>
            </g>
        </g>
    </g>
    <g>
        <g>
            <g>
                <g transform="matrix(1,0,0,1,342.66668701171875,304.3000152587891)">
                    <path transform="matrix(0.015300000000000001,0,0,-0.015300000000000001,0,0)"
                          d="M555 243L555 299L51 299L51 243Z"
                          class="char"
                          stroke-opacity="1"
                          stroke-width="8"
                          fill-opacity="1" />
                </g>
            </g>
            <g>
                <g transform="matrix(1,0,0,1,351.92706298828125,304.3000152587891)">
                    <path transform="matrix(0.015300000000000001,0,0,-0.015300000000000001,0,0)"
                          d="M418 -3L418 27L366 30C311 33 301 44 301 96L301 700L60 598L67 548L217 614L217 96C217 44 206 33 152 30L96 27L96 -3C250 0 250 0 261 0C292 0 402 -3 418 -3Z"
                          class="char"
                          stroke-opacity="1"
                          stroke-width="8"
                          fill-opacity="1" />
                </g>
            </g>
        </g>
    </g>
    <g>
        <g>
            <g>
                <g transform="matrix(1,0,0,1,433.66668701171875,348.6541717529297)">
                    <path transform="matrix(0.015300000000000001,0,0,-0.015300000000000001,0,0)"
                          d="M555 243L555 299L51 299L51 243Z"
                          class="char"
                          stroke-opacity="1"
                          stroke-width="8"
                          fill-opacity="1" />
                </g>
            </g>
            <g>
                <g>
                    <g>
                        <g>
                            <g transform="matrix(1,0,0,1,444.44793701171875,338.3000152587891)">
                                <path transform="matrix(0.015300000000000001,0,0,-0.015300000000000001,0,0)"
                                      d="M418 -3L418 27L366 30C311 33 301 44 301 96L301 700L60 598L67 548L217 614L217 96C217 44 206 33 152 30L96 27L96 -3C250 0 250 0 261 0C292 0 402 -3 418 -3Z"
                                      class="char"
                                      stroke-opacity="1"
                                      stroke-width="8"
                                      fill-opacity="1" />
                            </g>
                        </g>
                    </g>
                </g>
                <g>
                    <g>
                        <g>
                            <g transform="matrix(1,0,0,1,445.29168701171875,361.0083282470703)">
                                <path transform="matrix(0.015300000000000001,0,0,-0.015300000000000001,0,0)"
                                      d="M328 111L304 94C251 56 203 36 167 36C120 36 91 73 91 133C91 158 94 185 99 214C116 218 225 248 250 259C335 296 374 342 374 404C374 451 340 482 290 482C222 496 112 423 75 349C45 299 15 180 15 113C15 35 59 -11 131 -11C188 -11 244 17 336 92ZM113 274C130 343 150 386 179 412C197 428 228 440 252 440C281 440 300 420 300 388C300 344 265 297 213 272C185 258 149 247 104 237Z"
                                      class="char"
                                      stroke-opacity="1"
                                      stroke-width="8"
                                      fill-opacity="1" />
                            </g>
                        </g>
                    </g>
                </g>
                <line class="char" style="fill:none;stroke-width:0.666667px;"
                      x1="444.44793701171875"
                      y1="344.86458843946457"
                      x2="452.08335399627686"
                      y2="344.86458843946457" />
            </g>
        </g>
    </g>
</svg>