<svg xmlns="http://www.w3.org/2000/svg"
     xmlns:xlink="http://www.w3.org/1999/xlink"
     x="0"
     y="0"
     width="661.3333740234375"
     height="477.66668701171875">
    <!-- 内联样式 -->
    <style type="text/css">
        .connection {
            stroke: rgb(20, 20, 20);
        }

        .connection-fill {
            fill: rgb(20, 20, 20);
        }

        .char {
            stroke: rgb(0, 0, 0);
            fill: rgb(0, 0, 0);
        }

        @media (prefers-color-scheme: dark) {
            .connection {
                stroke: rgb(200, 200, 200);
            }

            .connection-fill {
                fill: rgb(200, 200, 200);
            }

            .char {
                stroke: rgb(239, 239, 239);
                fill: rgb(239, 239, 239);
            }
        }
    </style>
    <g class="shapes-region"
       style="stroke: black; fill: none;">
        <g class="arrow-line">
            <path class="connection"
                  stroke-dasharray="6 6"
                  d="  M179.33,291.33 L179.33,346.67"
                  style="stroke-width: 1; fill: none; fill-opacity: 1;" />
        </g>
        <g class="arrow-line">
            <path class="connection"
                  stroke-dasharray="6 6"
                  d="  M124.33,346.67 L179.33,346.67"
                  style="stroke-width: 1; fill: none; fill-opacity: 1;" />
        </g>
        <g class="composite-shape"
           data-amt="diagram/shapes/plot"
           transform="matrix(1,0,0,1,20,10)">
            <g>
                <g />
                <g>
                    <g class="test-xti"
                       style="font-family: Asana-Math, Asana;">
                        <line x1="0"
                              y1="281.12481209379155"
                              x2="616"
                              y2="281.12481209379155"
                              fill="none"
                              class="connection"
                              stroke-opacity="1"
                              stroke-width="1" />
                        <line x1="29.59911104632192"
                              y1="277.12481209379155"
                              x2="29.59911104632192"
                              y2="285.12481209379155"
                              fill="none"
                              class="connection"
                              stroke-opacity="1"
                              stroke-width="1" />
                        <line x1="179.29140776272635"
                              y1="277.12481209379155"
                              x2="179.29140776272635"
                              y2="285.12481209379155"
                              fill="none"
                              class="connection"
                              stroke-opacity="1"
                              stroke-width="1" />
                        <line x1="254.1375561209285"
                              y1="277.12481209379155"
                              x2="254.1375561209285"
                              y2="285.12481209379155"
                              fill="none"
                              class="connection"
                              stroke-opacity="1"
                              stroke-width="1" />
                        <line x1="328.9837044791307"
                              y1="277.12481209379155"
                              x2="328.9837044791307"
                              y2="285.12481209379155"
                              fill="none"
                              class="connection"
                              stroke-opacity="1"
                              stroke-width="1" />
                        <line x1="403.8298528373329"
                              y1="277.12481209379155"
                              x2="403.8298528373329"
                              y2="285.12481209379155"
                              fill="none"
                              class="connection"
                              stroke-opacity="1"
                              stroke-width="1" />
                        <line x1="478.67600119553515"
                              y1="277.12481209379155"
                              x2="478.67600119553515"
                              y2="285.12481209379155"
                              fill="none"
                              class="connection"
                              stroke-opacity="1"
                              stroke-width="1" />
                        <line x1="553.5221495537373"
                              y1="277.12481209379155"
                              x2="553.5221495537373"
                              y2="285.12481209379155"
                              fill="none"
                              class="connection"
                              stroke-opacity="1"
                              stroke-width="1" />
                        <path d="M611,277.5248120937915 L619,281.12481209379155 L611,284.72481209379157 Z"
                              stroke="none"
                              stroke-width="1"
                              class="connection-fill"
                              fill-opacity="1" />
                    </g>
                    <g class="test-yti"
                       style="font-family: Asana-Math, Asana;">
                        <line x1="104.44525940452414"
                              y1="4"
                              x2="104.44525940452414"
                              y2="446"
                              fill="none"
                              class="connection"
                              stroke-opacity="1"
                              stroke-width="1" />
                        <line x1="100.44525940452414"
                              y1="430.817108810196"
                              x2="108.44525940452414"
                              y2="430.817108810196"
                              fill="none"
                              class="connection"
                              stroke-opacity="1"
                              stroke-width="1" />
                        <line x1="100.44525940452414"
                              y1="355.97096045199373"
                              x2="108.44525940452414"
                              y2="355.97096045199373"
                              fill="none"
                              class="connection"
                              stroke-opacity="1"
                              stroke-width="1" />
                        <line x1="100.44525940452414"
                              y1="206.27866373558936"
                              x2="108.44525940452414"
                              y2="206.27866373558936"
                              fill="none"
                              class="connection"
                              stroke-opacity="1"
                              stroke-width="1" />
                        <line x1="100.44525940452414"
                              y1="131.43251537738706"
                              x2="108.44525940452414"
                              y2="131.43251537738706"
                              fill="none"
                              class="connection"
                              stroke-opacity="1"
                              stroke-width="1" />
                        <line x1="100.44525940452414"
                              y1="56.58636701918482"
                              x2="108.44525940452414"
                              y2="56.58636701918482"
                              fill="none"
                              class="connection"
                              stroke-opacity="1"
                              stroke-width="1" />
                        <path d="M100.84525940452414,9 L104.44525940452414,1 L108.04525940452413,9 Z"
                              stroke="none"
                              stroke-width="1"
                              class="connection-fill"
                              fill-opacity="1" />
                    </g>
                    <g class="test-plot-expression">
                        <defs>
                            <clipPath id="cp0vntujad2">
                                <rect x="1"
                                      y="1"
                                      width="618"
                                      height="444" />
                            </clipPath>
                        </defs>
                        <g clip-path="url(#cp0vntujad2)">
                            <path d=" M104.93,283.91 L105.50,286.34 L106.06,288.44 L106.62,290.34 L107.19,292.10 L107.75,293.73 L108.32,295.27 L108.88,296.73 L109.44,298.12 L110.01,299.44 L110.57,300.71 L111.14,301.92 L111.70,303.09 L112.27,304.21 L112.83,305.29 L113.39,306.33 L113.96,307.34 L114.52,308.32 L115.09,309.26 L115.65,310.17 L116.21,311.06 L116.78,311.91 L117.34,312.74 L117.91,313.55 L118.47,314.33 L119.04,315.09 L119.60,315.83 L120.16,316.55 L120.73,317.25 L121.29,317.93 L121.86,318.58 L122.42,319.22 L122.98,319.85 L123.55,320.45 L124.11,321.04 L124.68,321.62 L125.24,322.17 L125.81,322.71 L126.37,323.24 L126.93,323.75 L127.50,324.25 L128.06,324.74 L128.63,325.21 L129.19,325.66 L129.75,326.11 L130.32,326.54 L130.88,326.96 L131.45,327.37 L132.01,327.77 L132.58,328.15 L133.14,328.52 L133.70,328.89 L134.27,329.24 L134.83,329.58 L135.40,329.91 L135.96,330.23 L136.52,330.54 L137.09,330.84 L137.65,331.13 L138.22,331.41 L138.78,331.68 L139.34,331.94 L139.91,332.20 L140.47,332.44 L141.04,332.67 L141.60,332.90 L142.17,333.12 L142.73,333.33 L143.29,333.53 L143.86,333.72 L144.42,333.91 L144.99,334.08 L145.55,334.25 L146.11,334.41 L146.68,334.57 L147.24,334.71 L147.81,334.85 L148.37,334.98 L148.94,335.11 L149.50,335.22 L150.06,335.33 L150.63,335.43 L151.19,335.53 L151.76,335.62 L152.32,335.70 L152.88,335.78 L153.45,335.85 L154.01,335.91 L154.58,335.97 L155.14,336.02 L155.71,336.06 L156.27,336.10 L156.83,336.13 L157.40,336.15 L157.96,336.17 L158.53,336.18 L159.09,336.19 L159.65,336.19 L160.22,336.19 L160.78,336.18 L161.35,336.16 L161.91,336.14 L162.47,336.12 L163.04,336.08 L163.60,336.05 L164.17,336.00 L164.73,335.95 L165.30,335.90 L165.86,335.84 L166.42,335.78 L166.99,335.71 L167.55,335.63 L168.12,335.55 L168.68,335.47 L169.24,335.38 L169.81,335.29 L170.37,335.19 L170.94,335.08 L171.50,334.97 L172.07,334.86 L172.63,334.74 L173.19,334.62 L173.76,334.49 L174.32,334.36 L174.89,334.22 L175.45,334.08 L176.01,333.94 L176.58,333.79 L177.14,333.63 L177.71,333.47 L178.27,333.31 L178.84,333.14 L179.40,332.97 L179.96,332.79 L180.53,332.61 L181.09,332.43 L181.66,332.24 L182.22,332.05 L182.78,331.85 L183.35,331.65 L183.91,331.45 L184.48,331.24 L185.04,331.02 L185.61,330.81 L186.17,330.59 L186.73,330.36 L187.30,330.13 L187.86,329.90 L188.43,329.67 L188.99,329.43 L189.55,329.18 L190.12,328.93 L190.68,328.68 L191.25,328.43 L191.81,328.17 L192.37,327.91 L192.94,327.64 L193.50,327.37 L194.07,327.10 L194.63,326.82 L195.20,326.54 L195.76,326.26 L196.32,325.97 L196.89,325.68 L197.45,325.39 L198.02,325.09 L198.58,324.79 L199.14,324.49 L199.71,324.18 L200.27,323.87 L200.84,323.55 L201.40,323.24 L201.97,322.91 L202.53,322.59 L203.09,322.26 L203.66,321.93 L204.22,321.60 L204.79,321.26 L205.35,320.92 L205.91,320.58 L206.48,320.23 L207.04,319.88 L207.61,319.53 L208.17,319.17 L208.74,318.82 L209.30,318.45 L209.86,318.09 L210.43,317.72 L210.99,317.35 L211.56,316.98 L212.12,316.60 L212.68,316.22 L213.25,315.84 L213.81,315.45 L214.38,315.06 L214.94,314.67 L215.51,314.28 L216.07,313.88 L216.63,313.48 L217.20,313.08 L217.76,312.67 L218.33,312.26 L218.89,311.85 L219.45,311.44 L220.02,311.02 L220.58,310.60 L221.15,310.18 L221.71,309.75 L222.27,309.33 L222.84,308.90 L223.40,308.46 L223.97,308.03 L224.53,307.59 L225.10,307.15 L225.66,306.70 L226.22,306.26 L226.79,305.81 L227.35,305.36 L227.92,304.90 L228.48,304.45 L229.04,303.99 L229.61,303.52 L230.17,303.06 L230.74,302.59 L231.30,302.12 L231.87,301.65 L232.43,301.18 L232.99,300.70 L233.56,300.22 L234.12,299.74 L234.69,299.25 L235.25,298.77 L235.81,298.28 L236.38,297.79 L236.94,297.29 L237.51,296.80 L238.07,296.30 L238.64,295.80 L239.20,295.29 L239.76,294.79 L240.33,294.28 L240.89,293.77 L241.46,293.25 L242.02,292.74 L242.58,292.22 L243.15,291.70 L243.71,291.18 L244.28,290.65 L244.84,290.13 L245.40,289.60 L245.97,289.07 L246.53,288.53 L247.10,288.00 L247.66,287.46 L248.23,286.92 L248.79,286.38 L249.35,285.83 L249.92,285.28 L250.48,284.74 L251.05,284.18 L251.61,283.63 L252.17,283.07 L252.74,282.52 L253.30,281.96 L253.87,281.39 L254.43,280.83 L255.00,280.26 L255.56,279.70 L256.12,279.13 L256.69,278.55 L257.25,277.98 L257.82,277.40 L258.38,276.82 L258.94,276.24 L259.51,275.66 L260.07,275.07 L260.64,274.49 L261.20,273.90 L261.77,273.31 L262.33,272.71 L262.89,272.12 L263.46,271.52 L264.02,270.92 L264.59,270.32 L265.15,269.72 L265.71,269.11 L266.28,268.50 L266.84,267.90 L267.41,267.28 L267.97,266.67 L268.54,266.06 L269.10,265.44 L269.66,264.82 L270.23,264.20 L270.79,263.58 L271.36,262.95 L271.92,262.33 L272.48,261.70 L273.05,261.07 L273.61,260.43 L274.18,259.80 L274.74,259.16 L275.30,258.53 L275.87,257.89 L276.43,257.25 L277.00,256.60 L277.56,255.96 L278.13,255.31 L278.69,254.66 L279.25,254.01 L279.82,253.36 L280.38,252.70 L280.95,252.05 L281.51,251.39 L282.07,250.73 L282.64,250.07 L283.20,249.40 L283.77,248.74 L284.33,248.07 L284.90,247.40 L285.46,246.73 L286.02,246.06 L286.59,245.39 L287.15,244.71 L287.72,244.03 L288.28,243.35 L288.84,242.67 L289.41,241.99 L289.97,241.31 L290.54,240.62 L291.10,239.93 L291.67,239.24 L292.23,238.55 L292.79,237.86 L293.36,237.16 L293.92,236.47 L294.49,235.77 L295.05,235.07 L295.61,234.37 L296.18,233.67 L296.74,232.96 L297.31,232.26 L297.87,231.55 L298.43,230.84 L299.00,230.13 L299.56,229.41 L300.13,228.70 L300.69,227.98 L301.26,227.27 L301.82,226.55 L302.38,225.83 L302.95,225.10 L303.51,224.38 L304.08,223.65 L304.64,222.93 L305.20,222.20 L305.77,221.47 L306.33,220.73 L306.90,220.00 L307.46,219.27 L308.03,218.53 L308.59,217.79 L309.15,217.05 L309.72,216.31 L310.28,215.57 L310.85,214.82 L311.41,214.07 L311.97,213.33 L312.54,212.58 L313.10,211.83 L313.67,211.07 L314.23,210.32 L314.80,209.57 L315.36,208.81 L315.92,208.05 L316.49,207.29 L317.05,206.53 L317.62,205.77 L318.18,205.00 L318.74,204.24 L319.31,203.47 L319.87,202.70 L320.44,201.93 L321.00,201.16 L321.57,200.39 L322.13,199.61 L322.69,198.83 L323.26,198.06 L323.82,197.28 L324.39,196.50 L324.95,195.72 L325.51,194.93 L326.08,194.15 L326.64,193.36 L327.21,192.57 L327.77,191.78 L328.33,190.99 L328.90,190.20 L329.46,189.41 L330.03,188.61 L330.59,187.82 L331.16,187.02 L331.72,186.22 L332.28,185.42 L332.85,184.62 L333.41,183.81 L333.98,183.01 L334.54,182.20 L335.10,181.40 L335.67,180.59 L336.23,179.78 L336.80,178.97 L337.36,178.15 L337.93,177.34 L338.49,176.52 L339.05,175.71 L339.62,174.89 L340.18,174.07 L340.75,173.25 L341.31,172.43 L341.87,171.60 L342.44,170.78 L343.00,169.95 L343.57,169.12 L344.13,168.29 L344.70,167.46 L345.26,166.63 L345.82,165.80 L346.39,164.96 L346.95,164.13 L347.52,163.29 L348.08,162.45 L348.64,161.61 L349.21,160.77 L349.77,159.93 L350.34,159.09 L350.90,158.24 L351.46,157.40 L352.03,156.55 L352.59,155.70 L353.16,154.85 L353.72,154.00 L354.29,153.15 L354.85,152.29 L355.41,151.44 L355.98,150.58 L356.54,149.72 L357.11,148.86 L357.67,148.00 L358.23,147.14 L358.80,146.28 L359.36,145.42 L359.93,144.55 L360.49,143.69 L361.06,142.82 L361.62,141.95 L362.18,141.08 L362.75,140.21 L363.31,139.34 L363.88,138.46 L364.44,137.59 L365.00,136.71 L365.57,135.83 L366.13,134.95 L366.70,134.07 L367.26,133.19 L367.83,132.31 L368.39,131.43 L368.95,130.54 L369.52,129.66 L370.08,128.77 L370.65,127.88 L371.21,126.99 L371.77,126.10 L372.34,125.21 L372.90,124.32 L373.47,123.42 L374.03,122.53 L374.60,121.63 L375.16,120.73 L375.72,119.83 L376.29,118.93 L376.85,118.03 L377.42,117.13 L377.98,116.23 L378.54,115.32 L379.11,114.41 L379.67,113.51 L380.24,112.60 L380.80,111.69 L381.36,110.78 L381.93,109.87 L382.49,108.95 L383.06,108.04 L383.62,107.13 L384.19,106.21 L384.75,105.29 L385.31,104.37 L385.88,103.45 L386.44,102.53 L387.01,101.61 L387.57,100.69 L388.13,99.76 L388.70,98.84 L389.26,97.91 L389.83,96.98 L390.39,96.05 L390.96,95.12 L391.52,94.19 L392.08,93.26 L392.65,92.33 L393.21,91.39 L393.78,90.46 L394.34,89.52 L394.90,88.58 L395.47,87.65 L396.03,86.71 L396.60,85.77 L397.16,84.82 L397.73,83.88 L398.29,82.94 L398.85,81.99 L399.42,81.05 L399.98,80.10 L400.55,79.15 L401.11,78.20 L401.67,77.25 L402.24,76.30 L402.80,75.34 L403.37,74.39 L403.93,73.44 L404.49,72.48 L405.06,71.52 L405.62,70.57 L406.19,69.61 L406.75,68.65 L407.32,67.68 L407.88,66.72 L408.44,65.76 L409.01,64.80 L409.57,63.83 L410.14,62.86 L410.70,61.90 L411.26,60.93 L411.83,59.96 L412.39,58.99 L412.96,58.02 L413.52,57.04 L414.09,56.07 L414.65,55.09 L415.21,54.12 L415.78,53.14 L416.34,52.16 L416.91,51.19 L417.47,50.21 L418.03,49.22 L418.60,48.24 L419.16,47.26 L419.73,46.28 L420.29,45.29 L420.86,44.31 L421.42,43.32 L421.98,42.33 L422.55,41.34 L423.11,40.35 L423.68,39.36 L424.24,38.37 L424.80,37.38 L425.37,36.38 L425.93,35.39 L426.50,34.39 L427.06,33.39 L427.63,32.40 L428.19,31.40 L428.75,30.40 L429.32,29.40 L429.88,28.40 L430.45,27.39 L431.01,26.39 L431.57,25.38 L432.14,24.38 L432.70,23.37 L433.27,22.36 L433.83,21.36 L434.39,20.35 L434.96,19.34 L435.52,18.32 L436.09,17.31 L436.65,16.30 L437.22,15.28 L437.78,14.27 L438.34,13.25 L438.91,12.24 L439.47,11.22 L440.04,10.20 L440.60,9.18 L441.16,8.16 L441.73,7.14 L442.29,6.11 L442.86,5.09 L443.42,4.06 L443.99,3.04 L444.55,2.01 L445.11,0.98 L445.68,-0.04 L446.24,-1.07 L446.81,-2.10 L447.37,-3.14 L447.93,-4.17 L448.50,-5.20 L449.06,-6.24 L449.63,-7.27 L450.19,-8.31 L450.76,-9.34 L451.32,-10.38 L451.88,-11.42 L452.45,-12.46 L453.01,-13.50 L453.58,-14.54 L454.14,-15.58 L454.70,-16.63 L455.27,-17.67 L455.83,-18.72 L456.40,-19.76 L456.96,-20.81 L457.53,-21.86 L458.09,-22.91 L458.65,-23.96 L459.22,-25.01 L459.78,-26.06 L460.35,-27.11 L460.91,-28.16 L461.47,-29.22 L462.04,-30.27 L462.60,-31.33 L463.17,-32.38 L463.73,-33.44 L464.29,-34.50 L464.86,-35.56 L465.42,-36.62 L465.99,-37.68 L466.55,-38.74 L467.12,-39.81 L467.68,-40.87 L468.24,-41.94 L468.81,-43.00 L469.37,-44.07 L469.94,-45.13 L470.50,-46.20 L471.06,-47.27 L471.63,-48.34 L472.19,-49.41 L472.76,-50.48 L473.32,-51.56 L473.89,-52.63 L474.45,-53.70 L475.01,-54.78 L475.58,-55.86 L476.14,-56.93 L476.71,-58.01 L477.27,-59.09 L477.83,-60.17 L478.40,-61.25 L478.96,-62.33 L479.53,-63.41 L480.09,-64.49 L480.66,-65.58 L481.22,-66.66 L481.78,-67.75 L482.35,-68.83 L482.91,-69.92 L483.48,-71.01 L484.04,-72.10 L484.60,-73.19 L485.17,-74.28 L485.73,-75.37 L486.30,-76.46 L486.86,-77.55 L487.42,-78.65 L487.99,-79.74 L488.55,-80.84 L489.12,-81.93 L489.68,-83.03 L490.25,-84.13 L490.81,-85.23 L491.37,-86.33 L491.94,-87.43 L492.50,-88.53 L493.07,-89.63 L493.63,-90.73 L494.19,-91.84 L494.76,-92.94 L495.32,-94.04 L495.89,-95.15 L496.45,-96.26 L497.02,-97.37 L497.58,-98.47 L498.14,-99.58 L498.71,-100.69 L499.27,-101.80 L499.84,-102.92 L500.40,-104.03 L500.96,-105.14 L501.53,-106.26 L502.09,-107.37 L502.66,-108.49 L503.22,-109.60 L503.79,-110.72 L504.35,-111.84 L504.91,-112.96 L505.48,-114.08 L506.04,-115.20 L506.61,-116.32 L507.17,-117.44 L507.73,-118.56 L508.30,-119.69 L508.86,-120.81 L509.43,-121.94 L509.99,-123.06 L510.56,-124.19 L511.12,-125.32 L511.68,-126.45 L512.25,-127.57 L512.81,-128.70 L513.38,-129.84 L513.94,-130.97 L514.50,-132.10 L515.07,-133.23 L515.63,-134.37 L516.20,-135.50 L516.76,-136.64 L517.32,-137.77 L517.89,-138.91 L518.45,-140.05 L519.02,-141.19 L519.58,-142.32 L520.15,-143.46 L520.71,-144.61 L521.27,-145.75 L521.84,-146.89 L522.40,-148.03 L522.97,-149.18 L523.53,-150.32 L524.09,-151.47 L524.66,-152.61 L525.22,-153.76 L525.79,-154.91 L526.35,-156.05 L526.92,-157.20 L527.48,-158.35 L528.04,-159.50 L528.61,-160.66 L529.17,-161.81 L529.74,-162.96 L530.30,-164.11 L530.86,-165.27 L531.43,-166.42 L531.99,-167.58 L532.56,-168.74 L533.12,-169.89 L533.69,-171.05 L534.25,-172.21 L534.81,-173.37 L535.38,-174.53 L535.94,-175.69 L536.51,-176.85 L537.07,-178.02 L537.63,-179.18 L538.20,-180.34 L538.76,-181.51 L539.33,-182.67 L539.89,-183.84 L540.45,-185.01 L541.02,-186.17 L541.58,-187.34 L542.15,-188.51 L542.71,-189.68 L543.28,-190.85 L543.84,-192.02 L544.40,-193.19 L544.97,-194.37 L545.53,-195.54 L546.10,-196.71 L546.66,-197.89 L547.22,-199.07 L547.79,-200.24 L548.35,-201.42 L548.92,-202.60 L549.48,-203.77 L550.05,-204.95 L550.61,-206.13 L551.17,-207.31 L551.74,-208.50 L552.30,-209.68 L552.87,-210.86 L553.43,-212.04 L553.99,-213.23 L554.56,-214.41 L555.12,-215.60 L555.69,-216.78 L556.25,-217.97 L556.82,-219.16 L557.38,-220.35 L557.94,-221.54 L558.51,-222.73 L559.07,-223.92 L559.64,-225.11 L560.20,-226.30 L560.76,-227.49 L561.33,-228.69 L561.89,-229.88 L562.46,-231.08 L563.02,-232.27 L563.59,-233.47 L564.15,-234.66 L564.71,-235.86 L565.28,-237.06 L565.84,-238.26 L566.41,-239.46 L566.97,-240.66 L567.53,-241.86 L568.10,-243.06 L568.66,-244.26 L569.23,-245.47 L569.79,-246.67 L570.35,-247.87 L570.92,-249.08 L571.48,-250.28 L572.05,-251.49 L572.61,-252.70 L573.18,-253.91 L573.74,-255.11 L574.30,-256.32 L574.87,-257.53 L575.43,-258.74 L576.00,-259.95 L576.56,-261.17 L577.12,-262.38 L577.69,-263.59 L578.25,-264.81 L578.82,-266.02 L579.38,-267.24 L579.95,-268.45 L580.51,-269.67 L581.07,-270.88 L581.64,-272.10 L582.20,-273.32 L582.77,-274.54 L583.33,-275.76 L583.89,-276.98 L584.46,-278.20 L585.02,-279.42 L585.59,-280.65 L586.15,-281.87 L586.72,-283.09 L587.28,-284.32 L587.84,-285.54 L588.41,-286.77 L588.97,-288.00 L589.54,-289.22 L590.10,-290.45 L590.66,-291.68 L591.23,-292.91 L591.79,-294.14 L592.36,-295.37 L592.92,-296.60 L593.48,-297.83 L594.05,-299.06 L594.61,-300.30 L595.18,-301.53 L595.74,-302.76 L596.31,-304.00 L596.87,-305.23 L597.43,-306.47 L598.00,-307.71 L598.56,-308.95 L599.13,-310.18 L599.69,-311.42 L600.25,-312.66 L600.82,-313.90 L601.38,-315.14 L601.95,-316.38 L602.51,-317.63 L603.08,-318.87 L603.64,-320.11 L604.20,-321.36 L604.77,-322.60 L605.33,-323.85 L605.90,-325.09 L606.46,-326.34 L607.02,-327.58 L607.59,-328.83 L608.15,-330.08 L608.72,-331.33 L609.28,-332.58 L609.85,-333.83 L610.41,-335.08 L610.97,-336.33 L611.54,-337.58 L612.10,-338.84 L612.67,-340.09 L613.23,-341.34 L613.79,-342.60 L614.36,-343.85 L614.92,-345.11 L615.49,-346.37 L616.05,-347.62 L616.62,-348.88 L617.18,-350.14 L617.74,-351.40 L618.31,-352.66 L618.87,-353.92 L619.44,-355.18 L620.00,-356.44"
                                  style="stroke-width: 2; stroke: rgb(74, 144, 226); stroke-opacity: 0.8;" />
                            <g>
                                <circle cx="159.5139778682247"
                                        cy="336.1935305574922"
                                        r="1.5"
                                        style="stroke-width: 3; stroke: rgb(60, 180, 75); stroke-opacity: 0.8; fill: rgb(60, 180, 75); fill-opacity: 0.15;" />
                            </g>
                            <path d=" M104.47,284.12 L104.46,284.12 L104.44,284.12 L104.42,284.12 L104.41,284.12 L104.39,284.12 L104.38,284.12 L104.36,284.12 L104.35,284.12 L104.33,284.12 L104.32,284.12 L104.30,284.12 L104.29,284.11 L104.27,284.11 L104.26,284.11 L104.24,284.11 L104.23,284.11 L104.21,284.11 L104.20,284.11 L104.18,284.11 L104.17,284.11 L104.15,284.10 L104.14,284.10 L104.12,284.10 L104.11,284.10 L104.09,284.10 L104.08,284.10 L104.06,284.09 L104.05,284.09 L104.03,284.09 L104.02,284.09 L104.00,284.09 L103.99,284.08 L103.97,284.08 L103.96,284.08 L103.94,284.08 L103.93,284.07 L103.91,284.07 L103.90,284.07 L103.88,284.06 L103.87,284.06 L103.85,284.06 L103.84,284.06 L103.82,284.05 L103.81,284.05 L103.79,284.05 L103.78,284.04 L103.76,284.04 L103.75,284.04 L103.73,284.03 L103.72,284.03 L103.70,284.02 L103.69,284.02 L103.67,284.02 L103.66,284.01 L103.64,284.01 L103.63,284.01 L103.61,284.00 L103.60,284.00 L103.58,283.99 L103.57,283.99 L103.56,283.98 L103.54,283.98 L103.53,283.97 L103.51,283.97 L103.50,283.96 L103.48,283.96 L103.47,283.95 L103.45,283.95 L103.44,283.94 L103.43,283.94 L103.41,283.93 L103.40,283.93 L103.38,283.92 L103.37,283.92 L103.35,283.91 L103.34,283.91 L103.33,283.90 L103.31,283.90 L103.30,283.89 L103.28,283.88 L103.27,283.88 L103.26,283.87 L103.24,283.87 L103.23,283.86 L103.21,283.85 L103.20,283.85 L103.19,283.84 L103.17,283.83 L103.16,283.83 L103.15,283.82 L103.13,283.81 L103.12,283.81 L103.10,283.80 L103.09,283.79 L103.08,283.79 L103.06,283.78 L103.05,283.77 L103.04,283.77 L103.02,283.76 L103.01,283.75 L103.00,283.74 L102.98,283.74 L102.97,283.73 L102.96,283.72 L102.94,283.71 L102.93,283.71 L102.92,283.70 L102.90,283.69 L102.89,283.68 L102.88,283.68 L102.87,283.67 L102.85,283.66 L102.84,283.65 L102.83,283.64 L102.81,283.64 L102.80,283.63 L102.79,283.62 L102.78,283.61 L102.76,283.60 L102.75,283.59 L102.74,283.58 L102.73,283.58 L102.71,283.57 L102.70,283.56 L102.69,283.55 L102.68,283.54 L102.66,283.53 L102.65,283.52 L102.64,283.51 L102.63,283.50 L102.62,283.49 L102.60,283.48 L102.59,283.48 L102.58,283.47 L102.57,283.46 L102.56,283.45 L102.54,283.44 L102.53,283.43 L102.52,283.42 L102.51,283.41 L102.50,283.40 L102.49,283.39 L102.47,283.38 L102.46,283.37 L102.45,283.36 L102.44,283.35 L102.43,283.34 L102.42,283.33 L102.41,283.32 L102.40,283.31 L102.38,283.30 L102.37,283.29 L102.36,283.28 L102.35,283.26 L102.34,283.25 L102.33,283.24 L102.32,283.23 L102.31,283.22 L102.30,283.21 L102.29,283.20 L102.28,283.19 L102.27,283.18 L102.26,283.17 L102.25,283.16 L102.23,283.14 L102.22,283.13 L102.21,283.12 L102.20,283.11 L102.19,283.10 L102.18,283.09 L102.17,283.08 L102.16,283.06 L102.15,283.05 L102.14,283.04 L102.14,283.03 L102.13,283.02 L102.12,283.01 L102.11,282.99 L102.10,282.98 L102.09,282.97 L102.08,282.96 L102.07,282.95 L102.06,282.93 L102.05,282.92 L102.04,282.91 L102.03,282.90 L102.02,282.88 L102.01,282.87 L102.01,282.86 L102.00,282.85 L101.99,282.84 L101.98,282.82 L101.97,282.81 L101.96,282.80 L101.95,282.78 L101.95,282.77 L101.94,282.76 L101.93,282.75 L101.92,282.73 L101.91,282.72 L101.90,282.71 L101.90,282.69 L101.89,282.68 L101.88,282.67 L101.87,282.66 L101.86,282.64 L101.86,282.63 L101.85,282.62 L101.84,282.60 L101.83,282.59 L101.83,282.58 L101.82,282.56 L101.81,282.55 L101.81,282.54 L101.80,282.52 L101.79,282.51 L101.78,282.50 L101.78,282.48 L101.77,282.47 L101.76,282.46 L101.76,282.44 L101.75,282.43 L101.74,282.41 L101.74,282.40 L101.73,282.39 L101.72,282.37 L101.72,282.36 L101.71,282.35 L101.71,282.33 L101.70,282.32 L101.69,282.30 L101.69,282.29 L101.68,282.28 L101.68,282.26 L101.67,282.25 L101.66,282.23 L101.66,282.22 L101.65,282.20 L101.65,282.19 L101.64,282.18 L101.64,282.16 L101.63,282.15 L101.63,282.13 L101.62,282.12 L101.62,282.10 L101.61,282.09 L101.61,282.08 L101.60,282.06 L101.60,282.05 L101.59,282.03 L101.59,282.02 L101.58,282.00 L101.58,281.99 L101.57,281.97 L101.57,281.96 L101.57,281.95 L101.56,281.93 L101.56,281.92 L101.55,281.90 L101.55,281.89 L101.55,281.87 L101.54,281.86 L101.54,281.84 L101.53,281.83 L101.53,281.81 L101.53,281.80 L101.52,281.78 L101.52,281.77 L101.52,281.75 L101.51,281.74 L101.51,281.72 L101.51,281.71 L101.51,281.69 L101.50,281.68 L101.50,281.66 L101.50,281.65 L101.49,281.63 L101.49,281.62 L101.49,281.60 L101.49,281.59 L101.49,281.57 L101.48,281.56 L101.48,281.54 L101.48,281.53 L101.48,281.51 L101.47,281.50 L101.47,281.48 L101.47,281.47 L101.47,281.45 L101.47,281.44 L101.47,281.42 L101.46,281.41 L101.46,281.39 L101.46,281.38 L101.46,281.36 L101.46,281.35 L101.46,281.33 L101.46,281.32 L101.46,281.30 L101.46,281.29 L101.45,281.27 L101.45,281.26 L101.45,281.24 L101.45,281.22 L101.45,281.21 L101.45,281.19 L101.45,281.18 L101.45,281.16 L101.45,281.15 L101.45,281.13 L101.45,281.12 L101.45,281.10 L101.45,281.09 L101.45,281.07 L101.45,281.06 L101.45,281.04 L101.45,281.03 L101.45,281.01 L101.45,281.00 L101.45,280.98 L101.46,280.97 L101.46,280.95 L101.46,280.94 L101.46,280.92 L101.46,280.91 L101.46,280.89 L101.46,280.88 L101.46,280.86 L101.46,280.84 L101.47,280.83 L101.47,280.81 L101.47,280.80 L101.47,280.78 L101.47,280.77 L101.47,280.75 L101.48,280.74 L101.48,280.72 L101.48,280.71 L101.48,280.69 L101.48,280.68 L101.49,280.66 L101.49,280.65 L101.49,280.63 L101.49,280.62 L101.50,280.60 L101.50,280.59 L101.50,280.57 L101.51,280.56 L101.51,280.54 L101.51,280.53 L101.51,280.51 L101.52,280.50 L101.52,280.48 L101.52,280.47 L101.53,280.45 L101.53,280.44 L101.53,280.42 L101.54,280.41 L101.54,280.40 L101.55,280.38 L101.55,280.37 L101.55,280.35 L101.56,280.34 L101.56,280.32 L101.57,280.31 L101.57,280.29 L101.57,280.28 L101.58,280.26 L101.58,280.25 L101.59,280.23 L101.59,280.22 L101.60,280.20 L101.60,280.19 L101.61,280.18 L101.61,280.16 L101.62,280.15 L101.62,280.13 L101.63,280.12 L101.63,280.10 L101.64,280.09 L101.64,280.08 L101.65,280.06 L101.65,280.05 L101.66,280.03 L101.66,280.02 L101.67,280.00 L101.67,279.99 L101.68,279.98 L101.69,279.96 L101.69,279.95 L101.70,279.93 L101.70,279.92 L101.71,279.91 L101.72,279.89 L101.72,279.88 L101.73,279.86 L101.74,279.85 L101.74,279.84 L101.75,279.82 L101.76,279.81 L101.76,279.80 L101.77,279.78 L101.78,279.77 L101.78,279.76 L101.79,279.74 L101.80,279.73 L101.80,279.72 L101.81,279.70 L101.82,279.69 L101.83,279.67 L101.83,279.66 L101.84,279.65 L101.85,279.64 L101.86,279.62 L101.86,279.61 L101.87,279.60 L101.88,279.58 L101.89,279.57 L101.89,279.56 L101.90,279.54 L101.91,279.53 L101.92,279.52 L101.93,279.51 L101.94,279.49 L101.94,279.48 L101.95,279.47 L101.96,279.45 L101.97,279.44 L101.98,279.43 L101.99,279.42 L102.00,279.40 L102.00,279.39 L102.01,279.38 L102.02,279.37 L102.03,279.35 L102.04,279.34 L102.05,279.33 L102.06,279.32 L102.07,279.31 L102.08,279.29 L102.09,279.28 L102.10,279.27 L102.10,279.26 L102.11,279.25 L102.12,279.23 L102.13,279.22 L102.14,279.21 L102.15,279.20 L102.16,279.19 L102.17,279.18 L102.18,279.16 L102.19,279.15 L102.20,279.14 L102.21,279.13 L102.22,279.12 L102.23,279.11 L102.24,279.10 L102.25,279.08 L102.26,279.07 L102.27,279.06 L102.29,279.05 L102.30,279.04 L102.31,279.03 L102.32,279.02 L102.33,279.01 L102.34,279.00 L102.35,278.99 L102.36,278.98 L102.37,278.97 L102.38,278.96 L102.39,278.94 L102.40,278.93 L102.42,278.92 L102.43,278.91 L102.44,278.90 L102.45,278.89 L102.46,278.88 L102.47,278.87 L102.48,278.86 L102.50,278.85 L102.51,278.84 L102.52,278.83 L102.53,278.82 L102.54,278.81 L102.55,278.80 L102.57,278.79 L102.58,278.79 L102.59,278.78 L102.60,278.77 L102.61,278.76 L102.63,278.75 L102.64,278.74 L102.65,278.73 L102.66,278.72 L102.67,278.71 L102.69,278.70 L102.70,278.69 L102.71,278.68 L102.72,278.68 L102.74,278.67 L102.75,278.66 L102.76,278.65 L102.77,278.64 L102.79,278.63 L102.80,278.62 L102.81,278.62 L102.82,278.61 L102.84,278.60 L102.85,278.59 L102.86,278.58 L102.88,278.58 L102.89,278.57 L102.90,278.56 L102.92,278.55 L102.93,278.54 L102.94,278.54 L102.95,278.53 L102.97,278.52 L102.98,278.51 L102.99,278.51 L103.01,278.50 L103.02,278.49 L103.03,278.48 L103.05,278.48 L103.06,278.47 L103.07,278.46 L103.09,278.46 L103.10,278.45 L103.12,278.44 L103.13,278.44 L103.14,278.43 L103.16,278.42 L103.17,278.42 L103.18,278.41 L103.20,278.40 L103.21,278.40 L103.23,278.39 L103.24,278.38 L103.25,278.38 L103.27,278.37 L103.28,278.37 L103.30,278.36 L103.31,278.35 L103.32,278.35 L103.34,278.34 L103.35,278.34 L103.37,278.33 L103.38,278.33 L103.39,278.32 L103.41,278.32 L103.42,278.31 L103.44,278.31 L103.45,278.30 L103.47,278.30 L103.48,278.29 L103.50,278.29 L103.51,278.28 L103.52,278.28 L103.54,278.27 L103.55,278.27 L103.57,278.26 L103.58,278.26 L103.60,278.25 L103.61,278.25 L103.63,278.25 L103.64,278.24 L103.66,278.24 L103.67,278.23 L103.68,278.23 L103.70,278.23 L103.71,278.22 L103.73,278.22 L103.74,278.21 L103.76,278.21 L103.77,278.21 L103.79,278.20 L103.80,278.20 L103.82,278.20 L103.83,278.19 L103.85,278.19 L103.86,278.19 L103.88,278.19 L103.89,278.18 L103.91,278.18 L103.92,278.18 L103.94,278.17 L103.95,278.17 L103.97,278.17 L103.98,278.17 L104.00,278.16 L104.01,278.16 L104.03,278.16 L104.04,278.16 L104.06,278.16 L104.07,278.15 L104.09,278.15 L104.10,278.15 L104.12,278.15 L104.13,278.15 L104.15,278.15 L104.16,278.14 L104.18,278.14 L104.19,278.14 L104.21,278.14 L104.22,278.14 L104.24,278.14 L104.26,278.14 L104.27,278.14 L104.29,278.14 L104.30,278.13 L104.32,278.13 L104.33,278.13 L104.35,278.13 L104.36,278.13 L104.38,278.13 L104.39,278.13 L104.41,278.13 L104.42,278.13 L104.44,278.13 L104.45,278.13 L104.47,278.13 L104.48,278.13 L104.50,278.13 L104.51,278.13 L104.53,278.13 L104.54,278.13 L104.56,278.13 L104.57,278.13 L104.59,278.13 L104.61,278.14 L104.62,278.14 L104.64,278.14 L104.65,278.14 L104.67,278.14 L104.68,278.14 L104.70,278.14 L104.71,278.14 L104.73,278.14 L104.74,278.15 L104.76,278.15 L104.77,278.15 L104.79,278.15 L104.80,278.15 L104.82,278.15 L104.83,278.16 L104.85,278.16 L104.86,278.16 L104.88,278.16 L104.89,278.16 L104.91,278.17 L104.92,278.17 L104.94,278.17 L104.95,278.17 L104.97,278.18 L104.98,278.18 L105.00,278.18 L105.01,278.19 L105.03,278.19 L105.04,278.19 L105.06,278.19 L105.07,278.20 L105.09,278.20 L105.10,278.20 L105.12,278.21 L105.13,278.21 L105.15,278.21 L105.16,278.22 L105.18,278.22 L105.19,278.23 L105.21,278.23 L105.22,278.23 L105.24,278.24 L105.25,278.24 L105.26,278.25 L105.28,278.25 L105.29,278.25 L105.31,278.26 L105.32,278.26 L105.34,278.27 L105.35,278.27 L105.37,278.28 L105.38,278.28 L105.40,278.29 L105.41,278.29 L105.42,278.30 L105.44,278.30 L105.45,278.31 L105.47,278.31 L105.48,278.32 L105.50,278.32 L105.51,278.33 L105.52,278.33 L105.54,278.34 L105.55,278.34 L105.57,278.35 L105.58,278.35 L105.59,278.36 L105.61,278.37 L105.62,278.37 L105.64,278.38 L105.65,278.38 L105.66,278.39 L105.68,278.40 L105.69,278.40 L105.71,278.41 L105.72,278.42 L105.73,278.42 L105.75,278.43 L105.76,278.44 L105.77,278.44 L105.79,278.45 L105.80,278.46 L105.82,278.46 L105.83,278.47 L105.84,278.48 L105.86,278.48 L105.87,278.49 L105.88,278.50 L105.90,278.51 L105.91,278.51 L105.92,278.52 L105.94,278.53 L105.95,278.54 L105.96,278.54 L105.98,278.55 L105.99,278.56 L106.00,278.57 L106.01,278.58 L106.03,278.58 L106.04,278.59 L106.05,278.60 L106.07,278.61 L106.08,278.62 L106.09,278.62 L106.10,278.63 L106.12,278.64 L106.13,278.65 L106.14,278.66 L106.15,278.67 L106.17,278.68 L106.18,278.68 L106.19,278.69 L106.20,278.70 L106.22,278.71 L106.23,278.72 L106.24,278.73 L106.25,278.74 L106.27,278.75 L106.28,278.76 L106.29,278.77 L106.30,278.78 L106.31,278.79 L106.33,278.79 L106.34,278.80 L106.35,278.81 L106.36,278.82 L106.37,278.83 L106.38,278.84 L106.40,278.85 L106.41,278.86 L106.42,278.87 L106.43,278.88 L106.44,278.89 L106.45,278.90 L106.46,278.91 L106.47,278.92 L106.49,278.93 L106.50,278.94 L106.51,278.96 L106.52,278.97 L106.53,278.98 L106.54,278.99 L106.55,279.00 L106.56,279.01 L106.57,279.02 L106.58,279.03 L106.59,279.04 L106.61,279.05 L106.62,279.06 L106.63,279.07 L106.64,279.08 L106.65,279.10 L106.66,279.11 L106.67,279.12 L106.68,279.13 L106.69,279.14 L106.70,279.15 L106.71,279.16 L106.72,279.18 L106.73,279.19 L106.74,279.20 L106.75,279.21 L106.76,279.22 L106.77,279.23 L106.78,279.25 L106.79,279.26 L106.80,279.27 L106.80,279.28 L106.81,279.29 L106.82,279.31 L106.83,279.32 L106.84,279.33 L106.85,279.34 L106.86,279.35 L106.87,279.37 L106.88,279.38 L106.89,279.39 L106.90,279.40 L106.90,279.42 L106.91,279.43 L106.92,279.44 L106.93,279.45 L106.94,279.47 L106.95,279.48 L106.95,279.49 L106.96,279.51 L106.97,279.52 L106.98,279.53 L106.99,279.54 L107.00,279.56 L107.00,279.57 L107.01,279.58 L107.02,279.60 L107.03,279.61 L107.03,279.62 L107.04,279.64 L107.05,279.65 L107.06,279.66 L107.06,279.67 L107.07,279.69 L107.08,279.70 L107.09,279.72 L107.09,279.73 L107.10,279.74 L107.11,279.76 L107.11,279.77 L107.12,279.78 L107.13,279.80 L107.13,279.81 L107.14,279.82 L107.15,279.84 L107.15,279.85 L107.16,279.86 L107.17,279.88 L107.17,279.89 L107.18,279.91 L107.19,279.92 L107.19,279.93 L107.20,279.95 L107.20,279.96 L107.21,279.98 L107.22,279.99 L107.22,280.00 L107.23,280.02 L107.23,280.03 L107.24,280.05 L107.24,280.06 L107.25,280.08 L107.25,280.09 L107.26,280.10 L107.26,280.12 L107.27,280.13 L107.27,280.15 L107.28,280.16 L107.28,280.18 L107.29,280.19 L107.29,280.20 L107.30,280.22 L107.30,280.23 L107.31,280.25 L107.31,280.26 L107.32,280.28 L107.32,280.29 L107.33,280.31 L107.33,280.32 L107.33,280.34 L107.34,280.35 L107.34,280.37 L107.35,280.38 L107.35,280.40 L107.35,280.41 L107.36,280.42 L107.36,280.44 L107.36,280.45 L107.37,280.47 L107.37,280.48 L107.37,280.50 L107.38,280.51 L107.38,280.53 L107.38,280.54 L107.39,280.56 L107.39,280.57 L107.39,280.59 L107.39,280.60 L107.40,280.62 L107.40,280.63 L107.40,280.65 L107.40,280.66 L107.41,280.68 L107.41,280.69 L107.41,280.71 L107.41,280.72 L107.41,280.74 L107.42,280.75 L107.42,280.77 L107.42,280.78 L107.42,280.80 L107.42,280.81 L107.42,280.83 L107.43,280.84 L107.43,280.86 L107.43,280.88 L107.43,280.89 L107.43,280.91 L107.43,280.92 L107.43,280.94 L107.43,280.95 L107.43,280.97 L107.44,280.98 L107.44,281.00 L107.44,281.01 L107.44,281.03 L107.44,281.04 L107.44,281.06 L107.44,281.07 L107.44,281.09 L107.44,281.10 L107.44,281.12 L107.44,281.13 L107.44,281.15 L107.44,281.16 L107.44,281.18 L107.44,281.19 L107.44,281.21 L107.44,281.22 L107.44,281.24 L107.44,281.26 L107.44,281.27 L107.43,281.29 L107.43,281.30 L107.43,281.32 L107.43,281.33 L107.43,281.35 L107.43,281.36 L107.43,281.38 L107.43,281.39 L107.43,281.41 L107.42,281.42 L107.42,281.44 L107.42,281.45 L107.42,281.47 L107.42,281.48 L107.42,281.50 L107.41,281.51 L107.41,281.53 L107.41,281.54 L107.41,281.56 L107.41,281.57 L107.40,281.59 L107.40,281.60 L107.40,281.62 L107.40,281.63 L107.39,281.65 L107.39,281.66 L107.39,281.68 L107.38,281.69 L107.38,281.71 L107.38,281.72 L107.38,281.74 L107.37,281.75 L107.37,281.77 L107.37,281.78 L107.36,281.80 L107.36,281.81 L107.36,281.83 L107.35,281.84 L107.35,281.86 L107.34,281.87 L107.34,281.89 L107.34,281.90 L107.33,281.92 L107.33,281.93 L107.32,281.95 L107.32,281.96 L107.32,281.97 L107.31,281.99 L107.31,282.00 L107.30,282.02 L107.30,282.03 L107.29,282.05 L107.29,282.06 L107.28,282.08 L107.28,282.09 L107.27,282.10 L107.27,282.12 L107.26,282.13 L107.26,282.15 L107.25,282.16 L107.25,282.18 L107.24,282.19 L107.24,282.20 L107.23,282.22 L107.23,282.23 L107.22,282.25 L107.22,282.26 L107.21,282.28 L107.20,282.29 L107.20,282.30 L107.19,282.32 L107.19,282.33 L107.18,282.35 L107.17,282.36 L107.17,282.37 L107.16,282.39 L107.15,282.40 L107.15,282.41 L107.14,282.43 L107.13,282.44 L107.13,282.46 L107.12,282.47 L107.11,282.48 L107.11,282.50 L107.10,282.51 L107.09,282.52 L107.09,282.54 L107.08,282.55 L107.07,282.56 L107.06,282.58 L107.06,282.59 L107.05,282.60 L107.04,282.62 L107.03,282.63 L107.03,282.64 L107.02,282.66 L107.01,282.67 L107.00,282.68 L106.99,282.69 L106.99,282.71 L106.98,282.72 L106.97,282.73 L106.96,282.75 L106.95,282.76 L106.95,282.77 L106.94,282.78 L106.93,282.80 L106.92,282.81 L106.91,282.82 L106.90,282.84 L106.89,282.85 L106.89,282.86 L106.88,282.87 L106.87,282.88 L106.86,282.90 L106.85,282.91 L106.84,282.92 L106.83,282.93 L106.82,282.95 L106.81,282.96 L106.80,282.97 L106.79,282.98 L106.78,282.99 L106.77,283.01 L106.77,283.02 L106.76,283.03 L106.75,283.04 L106.74,283.05 L106.73,283.06 L106.72,283.08 L106.71,283.09 L106.70,283.10 L106.69,283.11 L106.68,283.12 L106.67,283.13 L106.66,283.14 L106.65,283.16 L106.64,283.17 L106.62,283.18 L106.61,283.19 L106.60,283.20 L106.59,283.21 L106.58,283.22 L106.57,283.23 L106.56,283.24 L106.55,283.25 L106.54,283.26 L106.53,283.28 L106.52,283.29 L106.51,283.30 L106.50,283.31 L106.48,283.32 L106.47,283.33 L106.46,283.34 L106.45,283.35 L106.44,283.36 L106.43,283.37 L106.42,283.38 L106.40,283.39 L106.39,283.40 L106.38,283.41 L106.37,283.42 L106.36,283.43 L106.35,283.44 L106.34,283.45 L106.32,283.46 L106.31,283.47 L106.30,283.48 L106.29,283.48 L106.28,283.49 L106.26,283.50 L106.25,283.51 L106.24,283.52 L106.23,283.53 L106.21,283.54 L106.20,283.55 L106.19,283.56 L106.18,283.57 L106.17,283.58 L106.15,283.58 L106.14,283.59 L106.13,283.60 L106.11,283.61 L106.10,283.62 L106.09,283.63 L106.08,283.64 L106.06,283.64 L106.05,283.65 L106.04,283.66 L106.03,283.67 L106.01,283.68 L106.00,283.68 L105.99,283.69 L105.97,283.70 L105.96,283.71 L105.95,283.71 L105.93,283.72 L105.92,283.73 L105.91,283.74 L105.89,283.74 L105.88,283.75 L105.87,283.76 L105.85,283.77 L105.84,283.77 L105.83,283.78 L105.81,283.79 L105.80,283.79 L105.79,283.80 L105.77,283.81 L105.76,283.81 L105.75,283.82 L105.73,283.83 L105.72,283.83 L105.70,283.84 L105.69,283.85 L105.68,283.85 L105.66,283.86 L105.65,283.87 L105.63,283.87 L105.62,283.88 L105.61,283.88 L105.59,283.89 L105.58,283.90 L105.56,283.90 L105.55,283.91 L105.54,283.91 L105.52,283.92 L105.51,283.92 L105.49,283.93 L105.48,283.93 L105.46,283.94 L105.45,283.94 L105.44,283.95 L105.42,283.95 L105.41,283.96 L105.39,283.96 L105.38,283.97 L105.36,283.97 L105.35,283.98 L105.34,283.98 L105.32,283.99 L105.31,283.99 L105.29,284.00 L105.28,284.00 L105.26,284.01 L105.25,284.01 L105.23,284.01 L105.22,284.02 L105.20,284.02 L105.19,284.02 L105.17,284.03 L105.16,284.03 L105.14,284.04 L105.13,284.04 L105.11,284.04 L105.10,284.05 L105.08,284.05 L105.07,284.05 L105.06,284.06 L105.04,284.06 L105.03,284.06 L105.01,284.06 L105.00,284.07 L104.98,284.07 L104.97,284.07 L104.95,284.08 L104.94,284.08 L104.92,284.08 L104.91,284.08 L104.89,284.09 L104.88,284.09 L104.86,284.09 L104.85,284.09 L104.83,284.09 L104.81,284.10 L104.80,284.10 L104.78,284.10 L104.77,284.10 L104.75,284.10 L104.74,284.10 L104.72,284.11 L104.71,284.11 L104.69,284.11 L104.68,284.11 L104.66,284.11 L104.65,284.11 L104.63,284.11 L104.62,284.11 L104.60,284.11 L104.59,284.12 L104.57,284.12 L104.56,284.12 L104.54,284.12 L104.53,284.12 L104.51,284.12 L104.50,284.12 L104.48,284.12 L104.47,284.12 L104.45,284.12 L104.44,284.12 L104.42,284.12"
                                  style="stroke-width: 2; stroke: rgb(74, 144, 226); stroke-opacity: 0.8;" />
                        </g>
                    </g>
                    <g class="test-xtl"
                       style="font-family: &quot;Open Sans&quot;, verdana, arial, sans-serif;" />
                    <g class="test-ytl"
                       style="font-family: &quot;Open Sans&quot;, verdana, arial, sans-serif;" />
                    <rect class="real"
                          x="1"
                          y="1"
                          width="618"
                          height="444"
                          style="fill: transparent; stroke: none;" />
                </g>
            </g>
        </g>
        <g />
    </g>
    <g />
    <g />
    <g />
    <g>
        <g>
            <g>
                <g transform="matrix(1,0,0,1,498.66668701171875,35)">
                    <path transform="matrix(0.017,0,0,-0.017,0,0)"
                          d="M345 437L329 437L350 549C366 635 394 673 440 673C470 673 497 658 512 634L522 638C527 654 537 685 545 705L550 720C534 727 503 733 480 733C469 733 453 730 445 726C421 715 339 654 316 630C294 608 282 578 271 521L256 442C215 422 195 414 170 405L165 383L246 383L237 327C207 132 170 -54 148 -123C130 -182 100 -213 64 -213C41 -213 30 -206 12 -184L-2 -188C-6 -211 -20 -259 -25 -268C-16 -273 -1 -276 10 -276C51 -276 105 -245 144 -198C215 -114 235 -18 319 383L423 383C427 402 434 425 440 439L436 446C407 439 408 437 345 437Z"
                          class="char"
                          stroke-opacity="1"
                          stroke-width="8"
                          fill-opacity="1" />
                </g>
            </g>
            <g>
                <g transform="matrix(1,0,0,1,508.02081298828125,35.66667175292969)">
                    <path transform="matrix(0.017,0,0,-0.017,0,0)"
                          d="M146 266C146 526 243 632 301 700L282 726C225 675 60 542 60 266C60 159 85 58 133 -32C168 -99 200 -138 282 -215L301 -194C255 -137 146 -15 146 266Z"
                          class="char"
                          stroke-opacity="1"
                          stroke-width="8"
                          fill-opacity="1" />
                </g>
            </g>
            <g>
                <g transform="matrix(1,0,0,1,513.6666870117188,35)">
                    <path transform="matrix(0.017,0,0,-0.017,0,0)"
                          d="M9 1C24 -7 40 -11 52 -11C85 -11 124 18 155 65L231 182L242 113C255 28 278 -11 314 -11C336 -11 368 6 400 35L449 79L440 98C404 68 379 53 363 53C348 53 335 63 325 83C316 102 305 139 300 168L282 269L317 318C364 383 391 406 422 406C438 406 450 398 455 383L469 387L484 472C472 479 463 482 454 482C414 482 374 446 312 354L275 299L269 347C257 446 230 482 171 482C145 482 123 474 114 461L56 378L73 368C103 402 123 416 142 416C175 416 197 375 214 277L225 215L185 153C142 86 108 54 80 54C65 54 54 58 52 63L41 91L21 88C21 53 13 27 9 1Z"
                          class="char"
                          stroke-opacity="1"
                          stroke-width="8"
                          fill-opacity="1" />
                </g>
            </g>
            <g>
                <g transform="matrix(1,0,0,1,522.15625,35.66667175292969)">
                    <path transform="matrix(0.017,0,0,-0.017,0,0)"
                          d="M51 726L32 700C87 636 187 526 187 266C187 -10 83 -131 32 -194L51 -215C104 -165 273 -23 273 265C273 542 108 675 51 726Z"
                          class="char"
                          stroke-opacity="1"
                          stroke-width="8"
                          fill-opacity="1" />
                </g>
            </g>
            <g>
                <g transform="matrix(1,0,0,1,532.8958129882812,35)">
                    <path transform="matrix(0.017,0,0,-0.017,0,0)"
                          d="M604 347L604 406L65 406L65 347ZM604 134L604 193L65 193L65 134Z"
                          class="char"
                          stroke-opacity="1"
                          stroke-width="8"
                          fill-opacity="1" />
                </g>
            </g>
            <g>
                <g transform="matrix(1,0,0,1,549.3541870117188,35)">
                    <path transform="matrix(0.017,0,0,-0.017,0,0)"
                          d="M9 1C24 -7 40 -11 52 -11C85 -11 124 18 155 65L231 182L242 113C255 28 278 -11 314 -11C336 -11 368 6 400 35L449 79L440 98C404 68 379 53 363 53C348 53 335 63 325 83C316 102 305 139 300 168L282 269L317 318C364 383 391 406 422 406C438 406 450 398 455 383L469 387L484 472C472 479 463 482 454 482C414 482 374 446 312 354L275 299L269 347C257 446 230 482 171 482C145 482 123 474 114 461L56 378L73 368C103 402 123 416 142 416C175 416 197 375 214 277L225 215L185 153C142 86 108 54 80 54C65 54 54 58 52 63L41 91L21 88C21 53 13 27 9 1Z"
                          class="char"
                          stroke-opacity="1"
                          stroke-width="8"
                          fill-opacity="1" />
                </g>
            </g>
            <g>
                <g>
                    <g transform="matrix(1,0,0,1,561.2395629882812,35)">
                        <path transform="matrix(0.017,0,0,-0.017,0,0)"
                              d="M23 661L79 661C97 661 104 650 104 620L104 102C104 39 101 32 67 30L21 27L21 -3C121 0 121 0 146 0C171 0 171 0 271 -3L271 27L225 30C191 32 188 39 188 102L188 718L179 726C135 709 102 701 23 689ZM700 -3C761 0 762 0 779 0C793 0 793 0 862 -3L862 27L821 30C787 32 784 38 784 102L784 295C784 412 729 469 617 469C580 469 559 462 538 444L462 378L462 465L453 469C402 448 350 434 297 428L297 400L334 400C374 400 378 393 378 327L378 102C378 39 375 32 341 30L296 27L296 -3C364 -1 391 0 420 0C449 0 476 -1 544 -3L544 27L499 30C465 32 462 39 462 102L462 314C462 359 528 408 589 408C656 408 700 358 700 281Z"
                              class="char"
                              stroke-opacity="1"
                              stroke-width="8"
                              fill-opacity="1" />
                    </g>
                </g>
            </g>
            <g>
                <g transform="matrix(1,0,0,1,579.4479370117188,35)">
                    <path transform="matrix(0.017,0,0,-0.017,0,0)"
                          d="M9 1C24 -7 40 -11 52 -11C85 -11 124 18 155 65L231 182L242 113C255 28 278 -11 314 -11C336 -11 368 6 400 35L449 79L440 98C404 68 379 53 363 53C348 53 335 63 325 83C316 102 305 139 300 168L282 269L317 318C364 383 391 406 422 406C438 406 450 398 455 383L469 387L484 472C472 479 463 482 454 482C414 482 374 446 312 354L275 299L269 347C257 446 230 482 171 482C145 482 123 474 114 461L56 378L73 368C103 402 123 416 142 416C175 416 197 375 214 277L225 215L185 153C142 86 108 54 80 54C65 54 54 58 52 63L41 91L21 88C21 53 13 27 9 1Z"
                          class="char"
                          stroke-opacity="1"
                          stroke-width="8"
                          fill-opacity="1" />
                </g>
            </g>
        </g>
    </g>
    <g>
        <g>
            <g>
                <g transform="matrix(1,0,0,1,96.66665649414062,350.65418701171876)">
                    <path transform="matrix(0.015300000000000001,0,0,-0.015300000000000001,0,0)"
                          d="M555 243L555 299L51 299L51 243Z"
                          class="char"
                          stroke-opacity="1"
                          stroke-width="8"
                          fill-opacity="1" />
                </g>
            </g>
            <g>
                <g>
                    <g>
                        <g>
                            <g transform="matrix(1,0,0,1,107.44793701171875,340.3)">
                                <path transform="matrix(0.015300000000000001,0,0,-0.015300000000000001,0,0)"
                                      d="M418 -3L418 27L366 30C311 33 301 44 301 96L301 700L60 598L67 548L217 614L217 96C217 44 206 33 152 30L96 27L96 -3C250 0 250 0 261 0C292 0 402 -3 418 -3Z"
                                      class="char"
                                      stroke-opacity="1"
                                      stroke-width="8"
                                      fill-opacity="1" />
                            </g>
                        </g>
                    </g>
                </g>
                <g>
                    <g>
                        <g>
                            <g transform="matrix(1,0,0,1,108.29168701171875,363.0083435058594)">
                                <path transform="matrix(0.015300000000000001,0,0,-0.015300000000000001,0,0)"
                                      d="M328 111L304 94C251 56 203 36 167 36C120 36 91 73 91 133C91 158 94 185 99 214C116 218 225 248 250 259C335 296 374 342 374 404C374 451 340 482 290 482C222 496 112 423 75 349C45 299 15 180 15 113C15 35 59 -11 131 -11C188 -11 244 17 336 92ZM113 274C130 343 150 386 179 412C197 428 228 440 252 440C281 440 300 420 300 388C300 344 265 297 213 272C185 258 149 247 104 237Z"
                                      class="char"
                                      stroke-opacity="1"
                                      stroke-width="8"
                                      fill-opacity="1" />
                            </g>
                        </g>
                    </g>
                </g>
                <line class="char" style="fill:none;stroke-width:0.666667px;"
                      x1="107.44793701171875"
                      y1="346.86460369825363"
                      x2="115.08335399627686"
                      y2="346.86460369825363" />
            </g>
        </g>
    </g>
    <g>
        <g>
            <g>
                <g>
                    <g>
                        <g>
                            <g transform="matrix(1,0,0,1,176.1875,259.3)">
                                <path transform="matrix(0.015300000000000001,0,0,-0.015300000000000001,0,0)"
                                      d="M418 -3L418 27L366 30C311 33 301 44 301 96L301 700L60 598L67 548L217 614L217 96C217 44 206 33 152 30L96 27L96 -3C250 0 250 0 261 0C292 0 402 -3 418 -3Z"
                                      class="char"
                                      stroke-opacity="1"
                                      stroke-width="8"
                                      fill-opacity="1" />
                            </g>
                        </g>
                    </g>
                </g>
                <g>
                    <g>
                        <g>
                            <g transform="matrix(1,0,0,1,177.03125,282.0083435058594)">
                                <path transform="matrix(0.015300000000000001,0,0,-0.015300000000000001,0,0)"
                                      d="M328 111L304 94C251 56 203 36 167 36C120 36 91 73 91 133C91 158 94 185 99 214C116 218 225 248 250 259C335 296 374 342 374 404C374 451 340 482 290 482C222 496 112 423 75 349C45 299 15 180 15 113C15 35 59 -11 131 -11C188 -11 244 17 336 92ZM113 274C130 343 150 386 179 412C197 428 228 440 252 440C281 440 300 420 300 388C300 344 265 297 213 272C185 258 149 247 104 237Z"
                                      class="char"
                                      stroke-opacity="1"
                                      stroke-width="8"
                                      fill-opacity="1" />
                            </g>
                        </g>
                    </g>
                </g>
                <line class="char" style="fill:none;stroke-width:0.666667px;"
                      x1="176.1875"
                      y1="265.86460369825363"
                      x2="183.8229169845581"
                      y2="265.86460369825363" />
            </g>
        </g>
    </g>
</svg>