<svg xmlns="http://www.w3.org/2000/svg" version="1.1" xmlns:xlink="http://www.w3.org/1999/xlink" xmlns:svgjs="http://svgjs.dev/svgjs" width="1440" height="2580" preserveAspectRatio="none" viewBox="0 0 1440 2580"><g mask="url(&quot;#SvgjsMask1014&quot;)" fill="none"><rect width="1440" height="2580" x="0" y="0" fill="#0e2a47"></rect><circle r="12.935" cx="1142.395" cy="1237.355" filter="url(#SvgjsFilter1015)" fill="rgba(51, 121, 194, 0.58)"></circle><circle r="15.975" cx="268.695" cy="1336.655" filter="url(#SvgjsFilter1015)" fill="rgba(51, 121, 194, 0.58)"></circle><circle r="19.705" cx="295.715" cy="438.935" filter="url(#SvgjsFilter1015)" fill="rgba(51, 121, 194, 0.58)"></circle><circle r="23.705" cx="1143.445" cy="2019.3049999999998" filter="url(#SvgjsFilter1015)" fill="rgba(51, 121, 194, 0.58)"></circle><circle r="16.255" cx="595.825" cy="1022.735" filter="url(#SvgjsFilter1015)" fill="rgba(51, 121, 194, 0.58)"></circle><circle r="15.015" cx="1362.375" cy="1045.1850000000002" filter="url(#SvgjsFilter1015)" fill="rgba(51, 121, 194, 0.58)"></circle><circle r="22.535" cx="614.0949999999999" cy="2563.6749999999997" filter="url(#SvgjsFilter1015)" fill="rgba(51, 121, 194, 0.58)"></circle><circle r="13.315" cx="1360.4450000000002" cy="665.1750000000001" filter="url(#SvgjsFilter1015)" fill="rgba(51, 121, 194, 0.58)"></circle><circle r="14.755" cx="714.605" cy="404.365" filter="url(#SvgjsFilter1015)" fill="rgba(51, 121, 194, 0.58)"></circle><circle r="19.86" cx="373.85" cy="53.04" filter="url(#SvgjsFilter1015)" fill="rgba(51, 121, 194, 0.58)"></circle><circle r="21.8" cx="1385.68" cy="103.53" filter="url(#SvgjsFilter1015)" fill="rgba(51, 121, 194, 0.58)"></circle><circle r="15.575" cx="1161.335" cy="1573.935" filter="url(#SvgjsFilter1015)" fill="rgba(51, 121, 194, 0.58)"></circle><circle r="13.215" cx="1065.3349999999998" cy="2449.155" filter="url(#SvgjsFilter1015)" fill="rgba(51, 121, 194, 0.58)"></circle><circle r="22.435" cx="547.8349999999999" cy="34.375" filter="url(#SvgjsFilter1015)" fill="rgba(51, 121, 194, 0.58)"></circle><circle r="16.865" cx="1211.925" cy="47.584999999999994" filter="url(#SvgjsFilter1015)" fill="rgba(51, 121, 194, 0.58)"></circle><circle r="22.32" cx="1219.57" cy="322.49" filter="url(#SvgjsFilter1015)" fill="rgba(51, 121, 194, 0.58)"></circle><circle r="13.685" cx="690.155" cy="1128.415" filter="url(#SvgjsFilter1015)" fill="rgba(51, 121, 194, 0.58)"></circle><circle r="14.515" cx="711.285" cy="1108.125" filter="url(#SvgjsFilter1015)" fill="rgba(51, 121, 194, 0.58)"></circle><circle r="20.26" cx="457.15" cy="1756.02" filter="url(#SvgjsFilter1015)" fill="rgba(51, 121, 194, 0.58)"></circle><circle r="20.92" cx="1254.8000000000002" cy="193.57999999999998" filter="url(#SvgjsFilter1015)" fill="rgba(51, 121, 194, 0.58)"></circle><path d="M151.4 1892.5L179.3 1840.2 194.8 1835 221.6 1859.8 218.2 1876.2 167.7 1907.6C167.3 1908.1 167.3 1908.1 166.8 1908.6 165.8 1909.7 165.4 1911.2 166.5 1913.2 168 1914.7 169.6 1915.1 171.6 1914L215.6 1886.4 210 1911.5 190.7 1923.9C190.7 1923.9 190.2 1924.4 190.2 1924.4 189.3 1925.5 188.8 1927 189.9 1929 190.5 1930.5 193 1930.9 195 1929.8L207.9 1922.2 203.6 1940.6C203.1 1942.2 204.2 1944.2 206.3 1945.1S210.3 1943.9 211.2 1941.9L215.1 1924 223.2 1936.3C224.3 1938.3 226.8 1938.7 228.8 1937.6 229.8 1936.6 230.7 1934.5 229.6 1932.5L217.2 1913.2 223.2 1887.6 250.9 1931.7C252 1933.6 254.5 1934.1 256 1933.5 257.5 1931.9 258.4 1929.8 257.3 1927.9L225.4 1877.9 229.3 1861 263.4 1850.5 276 1862.2 278.9 1921.4C278.9 1923.4 280.5 1924.9 282.5 1924.8S286 1923.2 285.9 1921.1L283.4 1869 302.8 1887 303.7 1909.3C303.8 1911.3 305.4 1912.8 307.9 1913.2S311.4 1911.5 311.3 1909.5L310.2 1893.8 324.4 1906.9C326 1908.4 328.5 1907.8 330 1906.2 331.4 1904.6 331.4 1902.6 329.8 1901.1L315.6 1888 330.8 1887.4C333.3 1887.8 334.8 1886.2 334.2 1883.7 334.1 1881.7 332.5 1880.2 330.5 1880.3L308.2 1881.2 288.7 1863.2 340.9 1861.6C342.9 1861.6 344.9 1859.5 344.8 1857.4S343.1 1853.9 341.1 1854L281.3 1856.4 268.7 1844.7 276.9 1809.4 293 1804.7 345.3 1832.6C347.4 1833.5 349.4 1832.4 350.8 1830.8 351.8 1828.8 350.7 1826.8 349.1 1825.3L303 1801.3 327.5 1793.7 347.7 1804.6C349.8 1805.5 351.8 1804.4 353.3 1802.8 353.7 1801.3 353.1 1798.8 351 1797.8L338.1 1790.8 356.1 1785C357.6 1784.4 358.5 1782.3 358.4 1780.3 357.4 1778.3 355.3 1777.4 353.8 1778L335.8 1783.7 342.8 1769.8C343.3 1768.2 342.6 1765.7 341.1 1765.3 339.5 1763.8 338 1764.4 336.6 1766 336.6 1766 336.1 1766.5 336.1 1766.5L325.2 1786.7 300.7 1794.3 324.7 1748.2C325.6 1746.1 325.6 1744.1 323.5 1743.2 321.4 1742.2 319.9 1742.8 319 1743.8 318.5 1744.4 318.5 1744.4 318.5 1744.4L290.7 1797.7 274.6 1802.4 247.8 1777.6 251.7 1761.7 302.1 1729.3C303.6 1728.7 304.1 1726.2 303.5 1724.7 302.4 1722.7 299.8 1722.3 297.9 1723.4L253.8 1751 259.4 1725.9 278.7 1713.5C280.7 1712.4 281.6 1710.3 280 1708.9 278.9 1706.9 276.4 1706.5 274.9 1707.1L262 1715.7 266.4 1697.2C266.3 1695.2 265.2 1693.2 263.1 1692.3 262.1 1692.3 260.6 1692.9 259.7 1694 259.2 1694.5 259.2 1694.5 259.2 1695.5L254.9 1713.9 246.3 1701.1C245.2 1699.1 243.1 1699.2 241.6 1699.8 241.1 1700.3 241.1 1700.3 240.7 1700.8 239.7 1701.9 239.2 1703.4 239.8 1704.9L252.2 1724.2 246.6 1749.3 219 1705.2C217.4 1703.8 215.4 1702.8 213.9 1704.4 212.9 1704.4 212.9 1704.4 212.4 1705 211.5 1706 211.5 1708.1 212.1 1709.6L244.5 1760 240.6 1775.9 206.1 1786.9 193.9 1775.7 191.6 1715.9C191.5 1713.9 189.4 1712 187.3 1712.1S183.4 1714.2 183.5 1716.3L186 1768.4 167.1 1750.9 165.7 1728.1C165.6 1726.1 164 1724.7 162 1724.7 160 1724.8 158.5 1726.4 158.6 1728.4L159.2 1743.6 145 1730.5C143.9 1729.5 141.4 1729.1 139.9 1730.7 138.5 1732.3 138.6 1735.3 139.6 1736.3L153.8 1749.4 138.7 1750C137.6 1750 136.6 1750.1 136.1 1750.6 135.2 1751.7 135.2 1752.7 135.2 1753.7 135.3 1755.7 136.9 1757.2 138.9 1757.1L161.7 1756.7 180.7 1774.2 128.5 1775.8C127.5 1775.8 127 1776.3 126 1777.4 125.6 1777.9 125.1 1778.4 125.1 1779.5 125.2 1781.5 127.3 1783.4 129.3 1783.3L188.6 1781.5 200.7 1792.7 193 1827.5 177 1833.2 124.1 1804.9C122.6 1804.4 120.5 1804.5 119.6 1805.5 119.1 1806.1 119.1 1806.1 119.6 1806.6 118.1 1808.1 118.8 1810.6 120.8 1811.6L166.9 1835.6 141.9 1843.7 121.7 1832.8C120.1 1832.4 118.6 1833 117.7 1834 117.7 1834 117.2 1834.5 117.2 1834.5 115.7 1836.1 116.3 1838.6 118.4 1839.6L132.4 1846.6 114.3 1852.4C113.3 1852.4 112.8 1853 112.3 1853.5 111.4 1854.6 110.9 1856.1 111.5 1856.6 112.1 1859.1 114.1 1860 116.1 1859.9L134.2 1854.2 127.1 1867.1C126.2 1869.2 126.8 1871.7 128.8 1872.6 130.4 1873.1 132.9 1872.5 133.3 1870.9L144.2 1850.7 168.7 1843.1 144.7 1889.2C143.8 1891.3 144.9 1893.3 146.4 1894.7 148 1895.2 150.5 1894.6 151.4 1892.5ZM223.8 1851.1L203.3 1832.1 200.1 1829.2 201 1825.1 207 1798.5 208.4 1793.9 212.4 1792.7 238.4 1784.6 242.4 1783.4 245.6 1786.3 266.1 1805.3 269.3 1808.2 268.4 1812.3 262.4 1838.9 261.5 1843 257 1844.7 231 1852.8 227 1854 223.8 1851.1Z" fill="rgba(51, 121, 194, 0.58)"></path><path d="M1347.9 2232.6L1295.9 2157.3 1302.6 2124.6 1320 2150C1321.2 2153.3 1324.8 2153.2 1328.1 2152.1 1329.8 2150.2 1330.9 2146.2 1329 2144.4L1305.5 2108.9 1311.1 2076.6 1335.8 2098.3 1338.7 2141C1338.7 2141 1339.1 2142.1 1339.1 2142.1 1339.9 2144.2 1342.8 2145.6 1345.4 2146 1348.6 2144.8 1350.4 2143 1350.3 2139.4L1348 2108.6 1372.6 2130.3 1380.4 2221.2C1380.4 2221.2 1379.7 2222.6 1379.7 2222.6 1380.5 2224.8 1383.4 2226.2 1385.9 2226.5 1389.5 2226.4 1392 2223.1 1390.9 2219.9L1384.8 2140.6 1415.7 2166.1 1418.5 2201.6C1418.5 2201.6 1418.5 2201.6 1418.9 2202.7 1419.6 2204.9 1421.5 2206.7 1424 2207 1427.3 2205.8 1430.1 2203.6 1430.1 2200L1427.8 2176.4 1450.3 2195.3C1452.5 2198.1 1455.8 2197 1457.5 2195.2 1460.4 2192.9 1460.3 2189.3 1457 2186.8L1435.7 2167.6 1458.5 2166.9C1461.7 2165.7 1464.6 2163.5 1463.5 2160.2 1463.4 2156.6 1461.6 2154.8 1457.9 2154.9L1422.4 2157.7 1392.6 2131.7 1473 2125.3C1475.6 2125.6 1478 2122.3 1478 2118.6 1477.2 2116.5 1475 2113.6 1471.4 2113.7L1380.5 2121.4 1355.8 2099.7 1386.6 2097.4C1390.2 2097.3 1391.6 2094.4 1391.5 2090.8 1391.9 2088.2 1388.6 2085.7 1386 2085.4L1343.6 2089.4 1317.9 2068.1 1349.3 2057 1387.3 2075.2C1390.2 2076.6 1393.5 2075.5 1394.9 2072.6 1396.6 2070.7 1395.1 2066.4 1392.2 2065L1364.4 2051.7 1395.7 2040.6 1478 2080.9C1481 2082.3 1484.2 2081.2 1485.6 2078.3 1487 2075.3 1485.9 2072.1 1482.9 2070.7L1410.9 2035.3 1447.7 2022.3 1479.8 2037.7C1482.8 2039.1 1486 2038 1487.4 2035.1 1488.8 2032.1 1487.7 2028.9 1484.7 2027.5L1463.9 2016.6 1490.9 2007.1C1494.2 2005.9 1495.6 2003 1494.4 1999.8 1493.3 1996.5 1490.3 1995.1 1487.1 1996.3L1460.1 2005.8 1469.9 1985.3C1471.3 1982.4 1470.1 1979.2 1467.2 1977.8S1461 1977.5 1459.6 1980.4L1444.9 2011.1 1407.1 2024.5 1441.4 1952.8C1442.8 1949.9 1441.6 1946.6 1438.7 1945.2 1435.8 1943.8 1432.5 1945 1431.1 1947.9L1391.9 2029.8 1360.6 2040.9 1373.9 2013.1C1375.3 2010.2 1374.1 2006.9 1371.2 2005.5 1368.3 2004.1 1365 2005.3 1363.6 2008.2L1345.4 2046.2 1315.2 2056.9 1321.1 2025.6 1356.3 2001.1C1358 1999.2 1359.1 1995.2 1357.2 1993.4 1355 1990.6 1352.4 1990.3 1349.2 1991.4L1323.8 2008.9 1329.7 1977.6 1405 1925.5C1407.9 1923.3 1408.2 1920.8 1407 1917.5 1404.8 1914.6 1401.2 1914.7 1399 1915.5L1332.3 1960.9 1340.4 1921.6 1368.7 1901.9C1371.9 1900.7 1371.9 1897.1 1370.7 1893.8 1368.9 1892.1 1364.9 1891 1362 1893.3L1343.4 1905.9 1347.9 1877.6C1349.3 1874.6 1347.1 1871.8 1343.1 1870.7 1340.6 1870.4 1337.7 1872.7 1337.4 1875.2L1331.7 1903.9 1318.7 1884.2C1316.5 1881.4 1312.8 1881.4 1311.1 1883.3 1307.8 1884.4 1307.5 1887 1308.3 1889.1 1308.6 1890.2 1308.6 1890.2 1309 1891.3L1328.7 1919.6 1320.7 1958.9 1275.7 1893.3C1274.5 1890.1 1270.9 1890.1 1267.7 1891.3 1265.9 1893.1 1265.6 1895.7 1266.3 1897.8 1266.7 1898.9 1266.7 1898.9 1266.7 1898.9L1318.1 1975.6 1312.1 2006.9 1294.6 1981.5C1292.4 1978.6 1289.9 1978.3 1286.6 1979.4 1284.8 1981.3 1283.4 1984.2 1284.2 1986.4 1284.6 1987.5 1284.6 1987.5 1285 1988.5L1309.5 2023.6 1303.5 2054.9 1279.2 2034.3 1275.2 1992C1275.2 1988.3 1271.9 1985.9 1269.3 1985.5 1266.1 1986.7 1263.2 1988.9 1264.3 1992.2L1266.7 2022.9 1241.3 2002.7 1234.3 1910.4C1234.6 1907.8 1231.3 1905.3 1228.7 1905 1225.5 1906.2 1222.6 1908.4 1222.7 1912L1228.8 1991.3 1199 1965.4 1196.6 1931C1196.5 1927.3 1193.2 1924.8 1189.9 1926 1187.4 1925.7 1184.5 1927.9 1184.6 1931.5L1186.8 1955.1 1164.4 1936.2C1162.5 1934.4 1158.9 1934.5 1156 1936.7 1155.3 1938.2 1155 1940.7 1155.8 1942.9 1155.8 1942.9 1156.2 1944 1156.5 1945.1L1179 1963.9 1155.5 1966.1C1152.9 1965.8 1150.4 1969.1 1150.1 1971.7 1150.5 1972.7 1150.5 1972.7 1150.5 1972.7 1151.6 1976 1154.6 1977.4 1156.7 1976.6L1191.1 1974.2 1222 1999.8 1141.7 2006.3C1138.4 2007.4 1136.6 2009.2 1136.7 2012.9 1136.7 2012.9 1137.1 2013.9 1137.1 2013.9 1137.8 2016.1 1139.7 2017.9 1143.3 2017.8L1234.6 2011.2 1258.9 2031.8 1228.1 2034.1C1224.8 2035.3 1222 2037.5 1223.1 2040.7 1222 2041.1 1222.4 2042.2 1222.4 2042.2 1223.2 2044.4 1226.1 2045.8 1228.7 2046.1L1271 2042.1 1295.7 2063.8 1265.4 2074.5 1227.4 2056.3C1224.5 2054.9 1220.1 2056.4 1218.7 2059.3 1218.4 2061.9 1219.6 2065.1 1221.4 2066.9L1250.3 2079.8 1218.9 2090.9 1137 2051.7C1134.1 2050.3 1130.8 2051.4 1129.4 2054.3 1128 2057.3 1129.2 2060.5 1132.1 2061.9L1203.8 2096.2 1165.9 2109.6 1135.2 2094.9C1132.3 2093.5 1129 2094.6 1127.6 2097.5S1127.4 2103.7 1130.3 2105.1L1150.8 2114.9 1123.8 2124.4C1120.5 2125.6 1119.1 2128.5 1120.3 2131.7 1121.4 2135 1124.3 2136.4 1127.6 2135.2L1154.6 2125.7 1145.2 2147.3C1144.5 2148.7 1143.8 2150.2 1144.2 2151.3 1144.6 2152.4 1146.4 2154.1 1147.9 2154.8 1150.8 2156.2 1154 2155.1 1155.4 2152.2L1169.7 2120.4 1207.6 2107 1173.7 2179.8C1173 2181.2 1172.3 2182.7 1172.7 2183.8 1173 2184.9 1174.9 2186.6 1176.3 2187.3 1179.3 2188.7 1182.5 2187.6 1183.9 2184.7L1222.7 2101.7 1254.1 2090.6 1239.7 2118.8C1239 2120.3 1239.8 2122.4 1240.2 2123.5 1240.5 2124.6 1240.9 2125.7 1242.4 2126.4 1245.3 2127.8 1249.6 2126.2 1250 2123.7L1269.2 2085.3 1299.5 2074.6 1293.9 2107 1258.4 2130.4C1256.6 2132.3 1255.2 2135.2 1256 2137.4 1256.4 2138.4 1256.4 2138.4 1257.5 2138.1 1258.6 2141.3 1262.6 2142.3 1265.5 2140.1L1290.9 2122.6 1285.3 2155 1208.6 2206.4C1206.8 2208.2 1206.5 2210.8 1207.3 2212.9 1207.6 2214 1207.6 2214 1207.6 2214 1209.9 2216.9 1212.8 2218.3 1215.7 2216L1282.3 2170.6 1274.3 2209.9 1246 2229.7C1243.1 2231.9 1242.8 2234.4 1243.6 2236.6 1243.6 2236.6 1244 2237.7 1244 2237.7 1246.2 2240.5 1249.8 2240.5 1252 2239.7L1271.3 2225.6 1265.6 2254.3C1266 2255.4 1266.4 2256.5 1266.8 2257.6 1267.2 2258.7 1269 2260.4 1270.5 2261.1 1274.1 2261.1 1277.3 2259.9 1277.3 2256.3L1282.9 2227.6 1296 2247.3C1298.2 2250.1 1301.8 2250.1 1304 2249.3 1306.9 2247.1 1306.8 2243.5 1305.6 2240.2L1285.9 2211.9 1292.9 2173 1337.9 2238.6C1340.1 2241.4 1344.1 2242.5 1345.9 2240.6 1348.8 2238.4 1350.2 2235.5 1347.9 2232.6Z" fill="rgba(51, 121, 194, 0.58)"></path><path d="M860.7 1407.3L955.5 1410.2 974 1428.8 957.4 1484.9 931.5 1491.6 850.7 1441.4C849.6 1441.1 849.6 1441.1 848.5 1440.7 846.3 1440.1 843.7 1440.5 841.7 1443.5 840.7 1446.8 841.1 1449.3 844.1 1451.4L914.9 1495.1 875 1504.8 843.5 1485.9C843.5 1485.9 842.4 1485.6 842.4 1485.6 840.2 1484.9 837.7 1485.4 835.6 1488.4 833.8 1490.2 835.1 1494.2 838 1496.3L858.1 1509.4 828.6 1516.2C826 1516.6 824 1519.6 824.1 1523.2S828.6 1528.1 832.2 1528L860.7 1520.9 848.7 1541.2C846.6 1544.2 847.8 1548.2 850.8 1550.2 853 1550.9 856.6 1550.8 858.7 1547.8L877.6 1516.3 918.6 1506.9 875 1577.7C872.9 1580.7 874.1 1584.6 876 1586.4 879.3 1587.4 882.9 1587.2 885 1584.3L934.1 1503.1 961.1 1496.7 1000.2 1538.2 992.4 1564.6 909.5 1610.6C906.6 1612.2 905.7 1615.5 907.2 1618.3S912 1622.1 914.9 1620.6L987.9 1580 975.9 1620.7 944.5 1637.7C941.7 1639.3 940.7 1642.6 941.9 1646.5S946.8 1650.3 949.6 1648.8L971.3 1636.1 962.5 1665.8C961.6 1669.1 964.2 1672.2 967.5 1673.2 970.8 1674.2 973.7 1672.6 974.6 1669.3L983.4 1639.6 995 1661C996.2 1665 999.5 1665.9 1002.7 1663.3 1005.6 1661.7 1006.5 1658.4 1005 1655.6L988 1624.2 1000 1583.6 1039.2 1657.3C1040.7 1660.2 1045.1 1661.5 1048 1659.9S1051.8 1655.1 1050.2 1652.2L1004.5 1568.2 1012.3 1541.8 1068.8 1528.6 1086.9 1548.3 1084 1643.1C1084.1 1646.7 1087.1 1648.8 1090.4 1649.7 1094 1649.6 1096.1 1646.6 1097.1 1643.3L1098.9 1560.2 1127.2 1590.1 1125.9 1626.7C1126 1630.4 1129 1632.4 1132.3 1633.4 1134.8 1633 1138 1630.3 1137.9 1626.7L1138.9 1603.1 1160 1624.8C1161.8 1626.6 1165.4 1626.5 1168.3 1624.9 1170.4 1621.9 1170.2 1618.3 1168.4 1616.6L1147.3 1594.8 1172.3 1595C1174.9 1594.6 1178 1591.9 1177.6 1589.4 1178.6 1586.1 1176.7 1584.4 1173.4 1583.4 1173.4 1583.4 1172.3 1583.1 1172.3 1583.1L1135.6 1581.8 1107.4 1551.9 1190.5 1553.8C1194.1 1553.6 1197 1552.1 1196.9 1548.5 1196.7 1544.8 1194.9 1543.1 1192.7 1542.4 1191.6 1542.1 1191.6 1542.1 1191.6 1542.1L1095.3 1540 1077.2 1520.3 1093.8 1464.2 1119.4 1458.6 1201.6 1508C1203.5 1509.8 1207.5 1508.6 1209.2 1506.7 1211.3 1503.7 1210.1 1499.8 1207.1 1497.7L1136.3 1454 1176.2 1444.3 1207.7 1463.2C1210.7 1465.3 1214.3 1465.1 1215.3 1461.8 1217.4 1458.9 1216.1 1454.9 1214.3 1453.2L1192.8 1440.8 1222.3 1434C1225.2 1432.5 1227.2 1429.5 1227.1 1425.9 1226.3 1424.5 1224.5 1422.7 1222.3 1422.1 1221.2 1421.7 1221.2 1421.7 1219.7 1422.5L1190.2 1429.3 1202.5 1407.9C1204.6 1404.9 1203.1 1402 1201.2 1400.3 1200.1 1400 1200.1 1400 1199 1399.6 1196.8 1399 1194.3 1399.4 1192.5 1401.3L1173.6 1432.8 1133.7 1442.5 1177.3 1371.7C1178.3 1368.4 1178.2 1364.8 1174.9 1363.8 1174.1 1362.4 1174.1 1362.4 1173 1362.1 1170.8 1361.4 1168 1363 1166.2 1364.8L1116.8 1447.1 1091.2 1452.7 1051 1410.9 1058.5 1385.6 1142.5 1339.9C1145.4 1338.4 1146.7 1334 1145.1 1331.1S1139.2 1327 1136.3 1328.5L1063.3 1369.1 1075 1329.5 1106.7 1311.4C1109.5 1309.8 1110.5 1306.5 1109 1303.7 1107.4 1300.8 1104.1 1299.9 1101.3 1301.4L1079.9 1313 1088.7 1283.3C1089.3 1281.1 1088.1 1277.2 1084.8 1276.2 1081.5 1275.2 1077.2 1277.6 1076.6 1279.8L1067.8 1309.5 1056.2 1288.1C1055.4 1286.7 1054.6 1285.2 1053.5 1284.9 1051.3 1284.3 1049.9 1285 1048.5 1285.8 1045.6 1287.4 1044.7 1290.7 1046.2 1293.5L1062.9 1326 1051.2 1365.5 1012 1291.8C1011.3 1290.4 1010.2 1290 1008 1289.4 1006.9 1289.1 1005.8 1288.7 1004.3 1289.5 1001.5 1291.1 1000.2 1295.5 1001.7 1298.3L1046.4 1382 1038.9 1407.3 983.5 1420.9 964 1401.9 967.2 1306C966.7 1303.5 965.2 1300.7 963 1300 961.9 1299.7 961.9 1299.7 961.6 1300.8 958.3 1299.8 955.1 1302.5 955.2 1306.1L953.4 1389.2 924 1359 925.3 1322.4C924.8 1319.8 923 1318.1 920.8 1317.4 920.8 1317.4 919.7 1317.1 919.7 1317.1 916.4 1316.1 913.2 1318.8 913.3 1322.4L913.1 1347.5 892 1325.7C891.3 1324.3 890.2 1323.9 889.1 1323.6 886.9 1323 884.3 1323.4 884 1324.5 880.8 1327.2 881 1330.8 882.5 1333.6L903.6 1355.4 880 1354.4C876.3 1354.5 873.2 1357.2 873.3 1360.8 873.7 1363.3 876.4 1366.5 878.9 1366L915.6 1367.3 943.8 1397.2 860.7 1395.3C857.1 1395.5 855 1398.4 854 1401.7 854.5 1404.3 857.1 1407.4 860.7 1407.3ZM971.4 1481.9L984.1 1439 986.1 1432.4 992.5 1430.7 1035 1420.5 1042.6 1419.2 1047.1 1424.1 1077.2 1455.7 1081.7 1460.6 1079.8 1467.2 1067.1 1510.1 1065.2 1516.7 1058.7 1518.4 1016.2 1528.6 1009.7 1530.2 1004.1 1525 974 1493.4 969.5 1488.5 971.4 1481.9Z" fill="rgba(51, 121, 194, 0.58)"></path><path d="M915.1 680.4L882.6 704 879.1 680.1C879 677.5 876.2 675.1 872.6 674.8 869.6 676 867.2 678.7 868.4 681.7L871.8 711.8 847.3 731.3 840.4 668.5C839.2 665.5 836.5 663.1 833.9 663.3 829.9 664.1 827.4 666.8 828.7 669.8L836.5 739.2 798.2 767.7 797.9 712.8 758.1 750.6 752.1 703.2 807.6 660.8C808.6 661.2 809.1 660.2 809.5 659.1 810.4 657 810.3 654.5 808.6 652.5 806.9 650.6 803.3 650.3 800.3 651.5L750.3 690 747.3 658.8 771.4 640.4C772.9 639.8 773.3 638.7 773.8 637.7 774.2 636.6 774.1 634.1 772.4 632.1 770.8 630.2 767.1 629.9 765.2 631.5L745.5 645.6 740 605.8C740.3 602.2 737.1 600.9 733.5 600.6 730.9 600.7 728.5 603.5 729.3 607.5L733.8 646.8 711.6 637.4C708.4 636 705 638.3 704.1 640.4 702.7 643.6 703.9 646.6 707.1 647.9L735.6 660 738.5 691.2 681.6 666.9C678.4 665.6 675.4 666.8 674 670 673.1 672.1 673.9 676.1 677.1 677.5L740.4 704.5 746.3 751.9 699 725.5 711.5 778.1 667.2 759.3 658.9 690.9C658.1 686.9 654.9 685.5 652.4 685.7 649.8 685.8 647.4 688.6 647.1 692.2L655.5 754.3 627.1 742.2 622.6 711.6C622.9 708 620.2 705.6 616.1 706.4 613.6 706.5 611.2 709.3 611.9 713.3L614.4 736.8 577.5 721.1C574.3 719.7 571.3 720.9 570 724.1S569.8 730.3 573 731.6L609.9 747.4 591.3 761.9C587.8 764.1 587.5 767.7 589.2 769.7 591.4 773.1 595.1 773.4 597.5 770.7L622.6 752.7 651.1 764.9 600.4 801.9C598 804.6 597.7 808.2 599.4 810.2 601.6 813.6 605.2 813.9 607.6 811.2L662.7 769.8 707 788.7 660.4 816.2 712.2 832 673.9 860.6 610.6 833.6C607.4 832.3 603.9 834.5 603 836.7 601.7 839.8 602.9 842.8 606.1 844.2L664.1 868.9 638.5 887.9 610 875.8C606.9 874.4 603.9 875.7 602.5 878.8 601.6 880.9 602.4 885 605.6 886.3L627.7 895.8 596.3 919.8C592.8 922.1 592.5 925.7 595.3 928.1 596.9 930 600.1 931.4 602.5 928.7L635 905.1 638.5 929C638.6 931.6 641.3 934 643.9 933.8 646.5 933.7 648.4 932 648.9 931 649.3 929.9 649.8 928.8 649.2 927.3L645.8 897.2 670.3 877.8 677.2 940.5C678.4 943.5 681.1 945.9 683.7 945.8 686.2 945.6 688.2 944 689.1 941.9 689.5 940.8 689.5 940.8 688.9 939.3L681.1 869.9 719.4 841.4 719.7 896.3 759.5 858.4 765.5 905.9 710 948.3C708.1 949.9 706.7 953.1 709 956.6 710.7 958.5 714.3 958.8 717.3 957.6L767.3 919.1 770.3 950.3 746.2 968.7C743.2 969.9 742.9 973.5 745.2 977 746.8 978.9 750.5 979.2 753.5 978L772.1 963.5 777.6 1003.2C777.3 1006.9 780.5 1008.2 784.1 1008.5 785.6 1007.9 787.6 1006.2 788 1005.2 788.5 1004.1 788.9 1003.1 788.3 1001.6L783.8 962.3 806 971.7C809.2 973.1 812.6 970.8 813.5 968.7L813.5 968.7C814.9 965.5 813.7 962.5 810.5 961.2L782 949 779.1 917.9 836 942.1C839.2 943.5 842.2 942.3 843.6 939.1S843.7 932.9 840.5 931.6L777.2 904.6 771.3 857.2 818.6 883.6 806.1 830.9 850.4 849.8 858.7 918.1C859.5 922.2 862.7 923.6 865.2 923.4 867.8 923.2 870.2 920.5 870.5 916.9L863.1 855.2 890.5 866.9 895 897.4C894.7 901 897.4 903.4 901.5 902.7 904 902.5 906.4 899.8 906.7 896.2L903.2 872.3 940.1 888C943.3 889.3 946.3 888.1 947.6 885S947.8 878.8 944.6 877.4L907.7 861.7 926.3 847.2C927.8 846.6 928.3 845.6 928.7 844.5 929.6 842.4 929 840.9 928.4 839.4 926.1 835.9 922.5 835.6 920.1 838.4L895 856.3 866.5 844.2 917.2 807.2C917.6 806.1 918.1 805.1 918.5 804 919.4 801.9 918.8 800.4 918.2 798.9 916 795.5 912.4 795.2 910 797.9L854.9 839.3 810.6 820.4 857.2 792.9 805.4 777 843.7 748.5 907 775.4C910.2 776.8 913.7 774.5 914.6 772.4 915.9 769.3 914.7 766.2 911.5 764.9L854.6 740.6 879.1 721.2 907.5 733.3C910.7 734.6 913.7 733.4 915.1 730.3S915.2 724.1 912 722.7L889.9 713.3 921.3 689.3C922.8 688.7 923.3 687.6 923.7 686.6 924.2 685.5 924 683 922.3 681 920.7 679.1 917.5 677.7 915.1 680.4ZM829.7 796.1L791.5 818.5 801.8 861.5 762.5 839.8 730.9 869.9 729.8 825.8 687.9 813 726.1 790.6 715.8 747.6 754.1 768.9 786.7 739.1 786.8 782.8 829.7 796.1Z" fill="rgba(51, 121, 194, 0.58)"></path><path d="M815 339.3L837.4 341.5 829.1 354.1C828.1 355.3 828.3 357.6 829.9 359.2 831.8 359.9 834.1 359.7 835.1 358.4L846.4 342 867.2 344.2 843.9 377.2C842.5 379.4 842.8 381.7 844.7 382.4 846.3 384 848.5 383.8 849.8 381.5L875.5 345 894.4 346.5 912.9 386.1 903.5 399.9 856.2 395.2C855.6 395.5 854.9 395.8 854.3 396.1 853.6 396.4 852.6 397.7 852.3 398.6 851.9 401.2 853.5 402.8 855.7 402.5L898.9 406.9 886.9 423.5 864.8 422C864.5 421.4 863.9 421.7 863.2 422 861.9 422.6 860.9 423.8 860.9 425.4 860.8 427 862.4 428.7 864.3 429.4L882.2 430.5 867.6 451.6C866.6 452.8 866.9 455.1 868.4 456.7 870.3 457.4 872.6 457.2 873.6 455.9L887.2 436.1 893.6 449.7C894.5 451.6 897.1 452 898.4 451.4 900.3 450.5 901.7 448.3 900.7 446.3L892.5 428.8 904.5 412.1 921.5 448.5C922.4 450.4 924.3 451.1 926.3 450.2 928.2 449.3 928.9 447.4 928 445.5L909.2 405.2 918.9 390.4 962.7 394.4 969.7 409.3 943.7 446.8C942 448.4 942.6 451.3 944.5 452 946.1 453.6 948 452.7 949.7 451.1L973.3 417.1 982.1 436 970.2 452.6C969.2 453.9 969.7 456.8 971 457.8S975.1 458.2 976.8 456.7L985.8 443.7 996.4 466.5C997.3 468.4 999.9 468.8 1001.8 467.9 1003.1 467.3 1004.5 465.1 1003.5 463.1L992.9 440.4 1009.2 441.5C1010.8 441.5 1012.8 440.6 1013.2 438 1013.2 436.4 1011.3 434.1 1009.7 434.1L989.3 432.6 980.5 413.8 1021.7 417.4C1024 417.2 1025.9 416.3 1026.3 413.7 1026.3 412.1 1024.5 409.8 1022.9 409.8L976.8 406 969.8 391.1 994.8 354.8 1012.4 356.9 1031.2 397.2C1032.1 399.1 1034 399.8 1036 398.9 1037.9 398 1039.3 395.8 1038.4 393.8L1021.4 357.5 1041.8 359 1050 376.5C1050.9 378.4 1052.9 379.1 1054.8 378.2 1056.7 377.3 1057.4 375.4 1056.5 373.4L1050.1 359.8 1074.1 362C1075.7 362.1 1078 360.2 1078.1 358.6 1077.8 356.4 1076.9 354.4 1074.6 354.7L1049.7 352.1 1059.7 337.9C1060.4 336 1060.1 333.8 1058.9 332.8 1057.6 331.8 1056 331.7 1054.7 332.4 1054.7 332.4 1054.1 332.7 1053.7 333.6L1040.7 351.6 1020.3 350.1 1044.6 314.1C1046.2 312.6 1046 310.3 1043.8 309 1042.8 308.6 1041.9 308.3 1040.6 308.9 1039.9 309.2 1039.3 309.5 1038.6 309.8L1011.9 349.2 995.3 347.5 976.8 307.9 987.8 292.5 1032.2 296.2C1034.8 296.6 1036.4 295 1036.2 292.8 1036.9 290.9 1035.3 289.2 1032.7 288.8L992.4 285.5 1004.1 268.2 1023.9 270C1025.5 270 1027.2 268.5 1027.9 266.6 1027.6 264.3 1026.7 262.4 1024.5 262.6L1009.4 261 1022.1 242.4C1023.7 240.8 1022.8 238.9 1021.3 237.2 1020.3 236.9 1018.7 236.8 1017.4 237.5 1017.4 237.5 1016.8 237.8 1016.1 238.1L1002.5 257.9 994.9 241.7C994.3 240.4 992 239 990.1 239.9 988.1 240.9 987.8 243.4 988.4 244.7L997.8 264.8 986.1 282.2 967.6 242.6C966.7 240.6 964.1 240.2 962.2 241.1S959.5 244 960.4 245.9L980.8 289.4 970.8 303.6 927 299.5 919.1 282.7 945.7 244.9C946.4 243 946.1 240.7 944.6 239.1 943.6 238.7 942 238.7 940.7 239.3 940.1 239.6 939.4 239.9 939.1 240.9L915.4 274.9 906.6 256.1 918.3 238.7C919.3 237.5 919 235.2 917.5 233.6 915.6 232.9 913.3 233.1 912.3 234.4L903 248.3 893.3 227.5C892.7 226.2 889.8 225.2 888.5 225.8 886.6 226.7 885.5 229.5 886.1 230.8L895.9 251.6 879.9 249.6C879.2 249.9 878.6 250.2 877.9 250.5 876.6 251.1 875.6 252.4 875.3 253.3 875.6 255.6 877.1 257.2 879 257.9L899.5 259.4 908.3 278.2 867 274.6C864.5 274.2 862.8 275.8 862.8 277.4 862.4 279.9 864 281.6 865.9 282.3L912 286 919.9 302.9 894.9 339.1 877.6 337.7 857.2 294.2C856.3 292.3 854.4 291.6 852.5 292.5 850.5 293.4 849.8 295.3 850.7 297.3L869.3 336.8 848.5 334.7 839.1 314.6C838.5 313.3 835.6 312.2 833.7 313.2 831.7 314.1 831.3 316.6 831.9 317.9L839.5 334.2 815.5 331.9C814.9 332.2 814.9 332.2 814.2 332.5 812.9 333.1 812 334.4 811.6 335.4 811.9 337.6 813.4 339.2 815 339.3ZM923.5 310.7L926.5 306.9 930.6 307.3 966.1 310.5 970.3 310.9 972.1 314.8 987 346.6 988.8 350.5 986.5 354 966.2 383.3 963.8 386.7 959 386.6 924.2 383.2 919.4 383 917.6 379.1 902.7 347.3 900.8 343.4 903.8 339.7 923.5 310.7Z" fill="rgba(51, 121, 194, 0.58)"></path><path d="M562.2 1383.6L549.8 1361.8 564.9 1361.3C566.5 1361.3 568.2 1359.8 568.6 1357.6 568 1355.6 566.5 1354 564.6 1354.5L545.6 1354.6 535.2 1338 574.7 1338C576.6 1337.4 578.3 1335.9 578.4 1334.3 578.2 1331.7 576.6 1330.1 574.7 1330.6L531.1 1330.8 515.9 1305 550.1 1308.6 529.3 1281.3 559.1 1280.8 581.7 1318.1C581.4 1318.7 582 1319.1 582.6 1319.4 583.9 1320.1 585.5 1320.2 586.8 1319.3 588.1 1318.4 588.5 1316.2 588 1314.3L567.5 1280.5 587 1280.8 596.8 1297C597.1 1298 597.7 1298.4 598.4 1298.7 599 1299.1 600.6 1299.1 601.9 1298.2 603.3 1297.3 603.7 1295.1 602.8 1293.8L595.4 1280.6 620.5 1279.9C622.7 1280.3 623.7 1278.4 624.2 1276.2 624.2 1274.6 622.7 1272.9 620.1 1273.1L595.4 1273.2 602.8 1260.1C603.9 1258.2 602.7 1255.9 601.4 1255.2 599.6 1254.2 597.6 1254.7 596.5 1256.6L587.1 1273.5 567.5 1273.2 586.5 1239.4C587.5 1237.5 587 1235.6 585.1 1234.5 583.8 1233.8 581.3 1234 580.2 1235.9L559.2 1273.4 529.3 1273.9 548.9 1246.3 515.3 1250.4 530.1 1224.2 573.1 1223.7C575.7 1223.5 576.7 1221.6 576.8 1220 576.9 1218.4 575.4 1216.7 573.1 1216.3L533.9 1217.3 543.4 1200.4 562.7 1199.8C564.9 1200.2 566.6 1198.7 566.4 1196.1 566.5 1194.5 565 1192.8 562.4 1193L547.6 1192.9 559.9 1171.1C561 1169.2 560.4 1167.2 558.5 1166.2S554.7 1165.7 553.7 1167.6L541.4 1189.4 533.6 1176.9C532.5 1174.6 530.2 1174.1 528.9 1175 526.6 1176.2 526.2 1178.4 527.7 1180.1L537.2 1196.9 527.7 1213.8 508.2 1179.8C506.6 1178.1 504.4 1177.7 503.1 1178.6 500.8 1179.8 500.3 1182 501.9 1183.7L523.8 1220.7 509.1 1246.9 495.2 1216.1 481.8 1247.2 466.7 1221.5 487.7 1184C488.8 1182.1 487.6 1179.8 486.4 1179.1 484.5 1178 482.5 1178.6 481.5 1180.5L462.2 1214.8 452.1 1197.7 461.6 1180.8C462.6 1178.9 462.1 1177 460.2 1175.9 459 1175.2 456.4 1175.4 455.3 1177.3L448 1190.4 435.2 1169.2C434 1166.9 431.8 1166.5 430.1 1168 428.8 1168.9 427.7 1170.8 429.2 1172.5L441.7 1194.3 426.6 1194.8C425 1194.7 423.3 1196.3 423.2 1197.9 423.1 1199.5 424 1200.8 424.7 1201.1 425.3 1201.5 425.9 1201.8 426.9 1201.6L445.8 1201.5 456.3 1218.1 416.8 1218.1C414.8 1218.6 413.2 1220.2 413.1 1221.8 413 1223.4 413.9 1224.7 415.2 1225.4 415.8 1225.7 415.8 1225.7 416.8 1225.5L460.4 1225.3 475.5 1251.1 441.4 1247.5 462.2 1274.8 432.3 1275.3 409.7 1238C408.8 1236.6 407 1235.6 404.7 1236.8 403.3 1237.7 402.9 1239.9 403.5 1241.8L424 1275.6 404.4 1275.3 394.6 1259.1C394.1 1257.1 391.8 1256.7 389.5 1257.9 388.2 1258.8 387.8 1261 388.3 1262.9L396.1 1275.5 371 1276.2C368.8 1275.8 367.7 1277.7 367.3 1279.9 367.6 1280.9 368.5 1282.2 369.1 1282.5 369.7 1282.9 370.3 1283.2 371.3 1283L396 1282.9 388.7 1296C387.6 1297.9 388.8 1300.2 390 1300.9L390 1300.9C391.9 1301.9 393.8 1301.4 394.9 1299.5L404.4 1282.6 423.9 1282.9 405 1316.7C403.9 1318.6 404.5 1320.5 406.4 1321.6S410.2 1322.1 411.2 1320.2L432.3 1282.7 462.2 1282.2 442.5 1309.8 476.1 1305.7 461.4 1331.9 418.3 1332.4C415.8 1332.6 414.7 1334.5 414.6 1336.1 414.6 1337.7 416.1 1339.4 418.3 1339.8L457.2 1339.4 448 1355.6 428.7 1356.3C426.5 1355.9 424.8 1357.4 425 1360 425 1361.6 426.5 1363.3 428.7 1363.7L443.8 1363.1 431.5 1385C430.5 1386.9 431 1388.8 432.9 1389.9S436.7 1390.4 437.8 1388.5L450.1 1366.7 457.8 1379.2C458.1 1380.2 458.7 1380.5 459.3 1380.9 460.6 1381.6 461.6 1381.3 462.5 1381.1 464.8 1379.9 465.3 1377.7 463.7 1376L454.3 1359.2 463.8 1342.3 483.3 1376.3C483.9 1376.6 484.5 1377 485.2 1377.3 486.4 1378 487.4 1377.8 488.4 1377.5 490.7 1376.3 491.1 1374.1 489.6 1372.4L467.6 1335.4 482.4 1309.2 496.3 1340 509.6 1308.9 524.8 1334.6 503.7 1372.1C502.7 1374 503.8 1376.3 505.1 1377 507 1378.1 508.9 1377.5 510 1375.6L528.9 1341.9 539.3 1358.4 529.9 1375.3C528.8 1377.2 529.4 1379.1 531.2 1380.2S535.1 1380.7 536.1 1378.8L543.5 1365.7 556.3 1386.8C556.5 1387.8 557.2 1388.2 557.8 1388.5 558.4 1388.9 560 1389 561.3 1388.1 562.7 1387.2 563.7 1385.3 562.2 1383.6ZM496.1 1322.7L484.8 1297.4 457.4 1300.9 473.6 1277.9 457 1256.3 484.5 1258.6 495.3 1233.4 506.6 1258.7 534 1255.2 518.2 1277.5 534.5 1299.8 507.3 1296.9 496.1 1322.7Z" fill="rgba(51, 121, 194, 0.58)"></path><path d="M1398.3 935.8L1370.9 913.8 1390.3 905.3C1392.5 904.6 1393.9 901.7 1393.3 898.6 1391.6 896.3 1388.7 894.9 1386.5 896.7L1361.8 906.4 1339.7 890.2 1391.1 870C1393.4 868.2 1394.8 865.4 1394.1 863.3 1392.5 860 1389.6 858.6 1387.4 860.3L1330.6 882.9 1297.7 857.1 1344 844.2 1302.9 819.4 1341.5 803.4 1390.1 840.4C1390 841.4 1391 841.6 1392 841.7 1394 842 1396.1 841.3 1397.3 839.4 1398.6 837.6 1398 834.4 1396.3 832.2L1352.3 798.8 1377.9 789.1 1399 805.2C1399.9 806.3 1400.9 806.5 1401.8 806.6 1402.8 806.7 1405 806 1406.2 804.2 1407.5 802.3 1406.9 799.2 1405.1 797.9L1388.7 784.5 1420.9 770.7C1424.1 770.2 1424.5 767.2 1423.9 764.1 1423.2 761.9 1420.3 760.5 1417.1 762.1L1384.9 774.9 1387.8 754C1388.2 751.1 1385.5 748.7 1383.5 748.4 1380.5 748 1378.3 749.7 1377.8 752.7L1374.2 779.5 1348.5 789.2 1355.9 735.5C1356.3 732.5 1354.6 730.2 1351.6 729.8 1349.6 729.6 1346.4 731.1 1346 734.1L1337.8 793.8 1299.1 809.7 1310.5 763.7 1268.9 786.3 1274.6 744.6 1330.4 721.9C1333.7 720.3 1334.1 717.3 1333.4 715.2 1332.6 713.1 1329.8 711.7 1326.7 712.2L1276.1 733.7 1279.8 706.8 1304.6 696C1307.7 695.5 1309.1 692.6 1307.5 689.4 1306.8 687.2 1304 685.8 1300.7 687.4L1281.5 694.9 1286.2 660.1C1286.6 657.1 1284.9 654.9 1281.9 654.5S1276.7 655.8 1276.3 658.7L1271.5 693.5 1255 681.1C1252.3 678.7 1249.2 679.3 1247.9 681.2 1245.5 683.9 1246.1 687 1248.9 688.4L1269.9 705.5 1266.2 732.3 1223.3 698.1C1220.5 696.7 1217.3 697.2 1216.1 699.1 1213.7 701.8 1214.3 704.9 1217.1 706.3L1264.7 743.2 1259 785 1225 752 1223.6 799.4 1190.7 773.6 1198.8 713.9C1199.3 711 1196.5 708.6 1194.6 708.3 1191.6 707.9 1189.3 709.6 1188.9 712.6L1181.4 767.3 1159.5 750.1 1163.1 723.2C1163.5 720.2 1161.8 718 1158.8 717.6 1156.9 717.3 1153.6 718.9 1153.2 721.9L1150.3 742.7 1122.8 721.8C1120.1 719.4 1117 719.9 1115.6 722.8 1114.3 724.6 1113.9 727.6 1116.8 729L1144.1 751 1124.7 759.5C1122.6 760.2 1121.2 763.1 1121.9 765.2 1122.7 767.3 1124.5 768.6 1125.5 768.7 1126.5 768.8 1127.5 769 1128.6 768.1L1153.3 758.3 1175.3 774.5 1123.9 794.8C1121.7 796.5 1120.3 799.4 1121 801.5 1121.7 803.6 1123.6 804.9 1125.6 805.2 1126.6 805.3 1126.6 805.3 1127.7 804.5L1184.5 781.9 1217.4 807.6 1171.1 820.5 1212.2 845.4 1173.6 861.4 1125 824.3C1123.1 823.1 1120.1 822.7 1117.7 825.4 1116.5 827.2 1117.1 830.3 1118.8 832.6L1162.8 866 1137.2 875.6 1116.1 859.6C1114.4 857.3 1111.2 857.9 1108.8 860.6 1107.6 862.5 1108.2 865.6 1109.9 867.8L1126.4 880.2 1094.1 894C1091 894.6 1090.6 897.6 1091.2 900.7 1092.1 901.8 1093.9 903.1 1094.9 903.3 1095.9 903.4 1096.9 903.5 1098 902.7L1130.2 889.9 1127.3 910.7C1126.9 913.7 1129.6 916.1 1131.6 916.4L1131.6 916.4C1134.6 916.8 1136.8 915.1 1137.2 912.1L1140.9 885.3 1166.5 875.6 1159.2 929.3C1158.8 932.3 1160.5 934.5 1163.5 934.9S1168.7 933.6 1169.1 930.6L1177.3 871 1215.9 855 1204.6 901.1 1246.2 878.4 1240.4 920.2 1184.7 942.9C1181.4 944.5 1181 947.5 1181.7 949.6 1182.4 951.7 1185.3 953.1 1188.4 952.5L1238.8 932.1 1235.3 957.9 1210.5 968.7C1207.4 969.3 1206 972.2 1207.5 975.4 1208.3 977.5 1211.1 978.9 1214.2 978.4L1233.6 969.9 1228.8 1004.7C1228.4 1007.6 1230.2 1009.9 1233.1 1010.3S1238.4 1009 1238.8 1006L1243.6 971.2 1260.1 983.6C1260.9 984.8 1261.9 984.9 1262.9 985 1264.9 985.3 1266.1 984.5 1267.2 983.6 1269.6 980.9 1269 977.8 1266.1 976.4L1245.2 959.3 1248.9 932.5 1291.8 966.7C1292.8 966.8 1293.8 967 1294.8 967.1 1296.7 967.4 1297.9 966.5 1299 965.7 1301.4 963 1300.8 959.9 1298 958.4L1250.4 921.5 1256.1 879.8 1290.1 912.8 1291.5 865.4 1324.4 891.2 1316.2 950.8C1315.8 953.8 1318.5 956.2 1320.5 956.5 1323.5 956.9 1325.8 955.2 1326.2 952.2L1333.5 898.5 1355.6 914.7 1351.9 941.5C1351.5 944.5 1353.2 946.8 1356.2 947.2S1361.5 945.9 1361.9 942.9L1364.7 922 1392.2 943C1393.1 944.2 1394.1 944.3 1395.1 944.4 1396.1 944.6 1398.2 943.8 1399.5 942 1400.7 940.1 1401.2 937.2 1398.3 935.8ZM1281 890.3L1253.3 863.2 1219.4 881.8 1228.7 843.6 1195.9 823.9 1232.9 812.8 1234.1 774.5 1261.8 801.6 1295.7 782.9 1286.6 820.2 1319.2 840.8 1282.3 851 1281 890.3Z" fill="rgba(51, 121, 194, 0.58)"></path><path d="M885.7 2505.3L794.7 2478.6 781.5 2455.9 811.7 2405.8 838.5 2405.9 904 2474.8C905 2475.4 905 2475.4 906 2476 908 2477.2 910.5 2477.4 913.3 2475 915 2472.1 915.2 2469.5 912.9 2466.8L855.4 2406.7 896.5 2407.3 922.2 2433.5C922.2 2433.5 923.2 2434.1 923.2 2434.1 925.1 2435.3 927.7 2435.5 930.4 2433.2 932.6 2431.8 932.4 2427.7 930.1 2424.9L914 2407.2 944.3 2408C946.8 2408.2 949.6 2405.9 950.4 2402.3S947.2 2396.4 943.7 2395.6L914.4 2395.4 931.1 2378.7C933.9 2376.3 933.7 2372.2 931.3 2369.4 929.4 2368.3 925.8 2367.5 923.1 2369.8L896.9 2395.5 854.8 2394.3 914.9 2336.8C917.6 2334.4 917.4 2330.3 916.1 2328.1 913.1 2326.3 909.6 2325.6 906.8 2327.9L838.9 2394.1 811.1 2393.4 783.7 2343.4 797.9 2319.9 889.8 2296.2C892.9 2295.4 894.7 2292.5 893.9 2289.3S890.2 2284.4 887 2285.2L806.2 2306.1 828.1 2269.8 862.7 2261.2C865.8 2260.4 867.6 2257.4 867.4 2253.3S863.7 2248.4 860.5 2249.2L836.3 2256 852.3 2229.5C854.1 2226.5 852.3 2222.8 849.4 2221 846.4 2219.3 843.3 2220 841.5 2223L825.5 2249.5 819.7 2225.9C819.5 2221.8 816.5 2220 812.8 2221.8 809.7 2222.5 807.9 2225.5 808.7 2228.6L817.3 2263.3 795.4 2299.6 776 2218.4C775.3 2215.2 771.3 2212.8 768.2 2213.6S763.3 2217.3 764 2220.5L787.1 2313.4 772.9 2336.9 714.9 2335.5 702.3 2311.8 729 2220.8C729.8 2217.3 727.5 2214.5 724.5 2212.8 721 2212 718.2 2214.3 716.5 2217.3L693.7 2297.3 673.9 2261.2 684.4 2226.1C685.2 2222.5 682.8 2219.8 679.9 2218 677.3 2217.8 673.6 2219.6 672.8 2223.1L665.9 2245.7 651 2219.3C649.6 2217.2 646.1 2216.4 642.9 2217.1 640.2 2219.5 639.4 2223 640.7 2225.2L655.6 2251.6 631.5 2245.1C628.9 2244.8 625.2 2246.6 625 2249.2 623.2 2252.1 624.6 2254.3 627.5 2256.1 627.5 2256.1 628.5 2256.6 628.5 2256.6L663.7 2267.1 683.5 2303.2 603.5 2280.4C599.9 2279.6 596.8 2280.4 596 2283.9 595.2 2287.5 596.6 2289.6 598.5 2290.8 599.5 2291.4 599.5 2291.4 599.5 2291.4L692.1 2317.7 704.6 2341.3 674.5 2391.4 648.3 2390.4 581.2 2321.9C579.8 2319.7 575.7 2319.9 573.5 2321.3 570.8 2323.6 570.9 2327.7 573.3 2330.5L630.8 2390.6 589.7 2389.9 564 2363.7C561.6 2361 558.1 2360.2 556.3 2363.1 553.6 2365.5 553.8 2369.6 555.1 2371.8L572.8 2389.1 542.5 2388.3C539.4 2389 536.6 2391.4 535.8 2394.9 536.2 2396.5 537.6 2398.7 539.6 2399.9 540.5 2400.4 540.5 2400.4 542.1 2400.1L572.4 2400.9 555.1 2418.6C552.3 2420.9 553.1 2424.1 554.5 2426.2 555.4 2426.8 555.4 2426.8 556.4 2427.4 558.4 2428.6 560.9 2428.8 563.1 2427.4L589.3 2401.7 630.4 2402.4 570.3 2459.9C568.6 2462.8 567.8 2466.4 570.7 2468.1 571.1 2469.7 571.1 2469.7 572.1 2470.3 574 2471.5 577.2 2470.7 579.4 2469.3L647.9 2402.2 674.1 2403.2 702.5 2453.8 688.9 2476.4 596 2499.5C592.9 2500.2 590.5 2504.2 591.3 2507.3S596 2512.8 599.2 2512L680 2491.1 658.7 2526.5 623.5 2536.1C620.3 2536.9 618.6 2539.8 619.4 2543 620.1 2546.1 623.1 2547.9 626.2 2547.1L649.8 2541.2 633.9 2567.8C632.7 2569.7 632.9 2573.9 635.8 2575.6 638.8 2577.4 643.5 2576.2 644.7 2574.3L660.6 2547.7 666.5 2571.4C666.9 2572.9 667.3 2574.5 668.3 2575.1 670.2 2576.3 671.8 2575.9 673.4 2575.5 676.5 2574.7 678.3 2571.8 677.5 2568.6L669.5 2533 690.8 2497.7 710.1 2578.9C710.5 2580.5 711.5 2581.1 713.5 2582.2 714.5 2582.8 715.4 2583.4 717 2583 720.2 2582.3 722.5 2578.3 721.8 2575.2L699.7 2482.9 713.3 2460.3 770.3 2461.2 784.4 2484.4 757.2 2576.4C756.9 2579 757.7 2582.1 759.7 2583.3 760.7 2583.9 760.7 2583.9 761.3 2582.9 764.2 2584.7 768 2582.9 768.7 2579.4L791.5 2499.4 812.3 2536 801.8 2571.2C801.6 2573.7 803 2575.9 804.9 2577.1 804.9 2577.1 805.9 2577.7 805.9 2577.7 808.9 2579.5 812.6 2577.7 813.4 2574.2L819.9 2550 834.8 2576.4C835.2 2577.9 836.2 2578.5 837.2 2579.1 839.1 2580.3 841.7 2580.5 842.3 2579.5 846 2577.8 846.8 2574.2 846 2571.1L831.1 2544.7 853.7 2551.6C857.3 2552.4 861 2550.6 861.8 2547.1 862 2544.5 860.3 2540.8 857.7 2540.6L822.5 2530.1 802.7 2494.1 882.7 2516.9C886.3 2517.6 889 2515.3 890.8 2512.3 891 2509.8 889.2 2506 885.7 2505.3ZM797.4 2405.2L774.3 2443.5 770.7 2449.4 764.1 2449.4 720.4 2448.5 712.7 2447.9 709.6 2442 688.4 2403.8 685.3 2397.9 688.8 2392 711.9 2353.7 715.5 2347.8 722.1 2347.9 765.8 2348.7 772.5 2348.7 776.6 2355.2 797.8 2393.4 800.9 2399.3 797.4 2405.2Z" fill="rgba(51, 121, 194, 0.58)"></path><path d="M649.4 311.2L622.8 306.6 633.9 292.2C635.2 290.8 635.1 288.1 633.4 286 631.2 285 628.5 285.1 627.2 286.5L612.1 305.1 587.5 300.6 618.3 263.2C620.1 260.7 620 258 617.8 257 616.1 254.9 613.4 255 611.6 257.5L577.6 298.9 555.1 295.4 536.5 246.3 549 230.6 605.2 240.6C606 240.3 606.8 240 607.6 239.7 608.4 239.4 609.7 238 610.2 236.9 610.9 233.8 609.2 231.7 606.5 231.8L555.2 222.7 571 203.9 597.3 207.7C597.6 208.5 598.4 208.2 599.2 207.9 600.8 207.3 602.1 205.9 602.3 204 602.5 202 600.8 199.9 598.6 198.9L577.3 196 596.7 172.1C598 170.7 597.9 167.9 596.2 165.8 594 164.8 591.2 164.9 589.9 166.4L571.8 188.9 565.4 172C564.5 169.6 561.5 168.9 559.9 169.5 557.4 170.4 555.6 172.9 556.6 175.3L564.8 197 548.9 215.9 531.9 170.9C531 168.5 528.7 167.5 526.3 168.4 523.9 169.3 522.9 171.5 523.8 173.9L542.7 223.8 529.8 240.6 477.7 231.8 470.7 213.3 505.2 170.9C507.3 169.1 506.9 165.6 504.7 164.6 503 162.5 500.5 163.4 498.4 165.1L467.1 203.7 458.2 180.4 474.1 161.5C475.4 160.1 475 156.6 473.5 155.3S468.6 154.4 466.5 156.1L454.6 170.7 443.9 142.6C443 140.2 440 139.5 437.6 140.4 436 141 434.2 143.5 435.1 145.9L445.7 174.1 426.3 171.3C424.4 171.1 422 172 421.3 175.1 421.1 177 423.1 179.9 425 180.1L449.4 183.7 458.2 207 409.2 198.9C406.4 199.1 404 200 403.3 203 403.1 204.9 405.2 207.8 407.1 208L461.9 216.7 468.9 235.2 435.7 276.3 414.8 272.2 396 222.3C395 219.9 392.8 218.9 390.4 219.8 388 220.8 386.2 223.3 387.1 225.7L404.2 270.7 379.8 267.1 371.6 245.4C370.7 243 368.4 242 366 242.9 363.6 243.8 362.6 246 363.5 248.4L369.9 265.3 341.4 260.5C339.5 260.3 336.6 262.3 336.4 264.2 336.5 266.9 337.4 269.3 340.1 269.2L369.8 274.6 356.5 290.6C355.5 292.8 355.6 295.5 357 296.9 358.5 298.2 360.4 298.3 362 297.7 362 297.7 362.8 297.4 363.3 296.3L380.4 276 404.8 279.7 372.4 320.5C370.3 322.2 370.4 324.9 372.9 326.7 374 327.2 375.2 327.7 376.8 327.1 377.6 326.8 378.4 326.5 379.2 326.2L414.7 281.5 434.4 285 453 334.1 438.4 351.5 385.6 343.1C382.5 342.4 380.4 344.1 380.6 346.8 379.6 349 381.3 351.1 384.3 351.8L432.2 359.4 416.7 379.1 393.1 375.1C391.2 374.9 389.1 376.7 388.1 378.9 388.2 381.6 389.1 384 391.8 383.9L409.7 387.3 392.8 408.4C390.7 410.1 391.6 412.5 393.4 414.6 394.5 415.1 396.4 415.3 398 414.7 398 414.7 398.8 414.4 399.6 414.1L417.7 391.6 425.3 411.7C426 413.3 428.5 415.1 430.9 414.2 433.3 413.3 434 410.2 433.4 408.6L424 383.7 439.5 364 458.1 413.1C459 415.5 462 416.2 464.4 415.3S467.8 412.1 466.9 409.7L446.5 355.8 459.7 339.8 511.8 348.6 519.7 369.5 484.4 412.3C483.4 414.5 483.5 417.2 485.3 419.3 486.4 419.8 488.3 420 489.9 419.4 490.7 419.1 491.5 418.8 492 417.7L523.4 379.2 532.2 402.5 516.7 422.2C515.4 423.6 515.5 426.3 517.2 428.4 519.4 429.4 522.1 429.3 523.4 427.9L535.9 412.1 545.6 437.9C546.2 439.5 549.6 441 551.2 440.4 553.6 439.5 555.1 436.1 554.5 434.5L544.7 408.8 563.7 412.6C564.5 412.3 565.3 412 566.1 411.7 567.7 411.1 569 409.7 569.5 408.6 569.4 405.9 567.7 403.8 565.4 402.8L541.1 399.1 532.2 375.8 581.3 383.9C584.3 384.6 586.4 382.9 586.6 381 587.3 377.9 585.6 375.8 583.4 374.8L528.6 366.2 520.7 345.2 553.8 304.2 574.4 307.4 594.8 361.3C595.7 363.7 597.9 364.7 600.3 363.8 602.8 362.9 603.7 360.7 602.8 358.3L584.3 309.2 608.9 313.7 618.4 338.6C619 340.2 622.3 341.7 624.7 340.8 627.1 339.9 627.8 336.8 627.2 335.2L619.6 315.1 648.1 320C648.9 319.7 648.9 319.7 649.7 319.4 651.3 318.8 652.6 317.3 653.1 316.2 653 313.5 651.3 311.4 649.4 311.2ZM517 335.6L513.1 339.8 508.2 338.9 466 331.9 461 331 459.2 326.2 444.3 286.8 442.4 282 445.6 278 472.5 244.8 475.6 240.9 481.4 241.5 522.8 248.8 528.5 249.4 530.3 254.2 545.3 293.6 547.1 298.5 543.2 302.7 517 335.6Z" fill="rgba(51, 121, 194, 0.58)"></path><path d="M1483.9 376.3L1466.1 373.4 1473.4 363.8C1474.3 362.8 1474.2 361 1473 359.6 1471.5 359 1469.7 359.1 1468.9 360L1459 372.5 1442.5 369.7 1462.8 344.5C1464 342.8 1463.9 341 1462.4 340.4 1461.3 339 1459.4 339.1 1458.3 340.8L1435.9 368.6 1420.9 366.5 1408.2 333.9 1416.3 323.3 1453.9 329.6C1454.4 329.4 1454.9 329.2 1455.5 328.9 1456 328.7 1456.9 327.8 1457.2 327 1457.6 325 1456.5 323.6 1454.7 323.7L1420.4 318 1430.8 305.3 1448.4 307.7C1448.6 308.2 1449.1 308 1449.7 307.8 1450.7 307.4 1451.6 306.5 1451.7 305.2 1451.8 303.9 1450.7 302.5 1449.2 301.9L1434.9 300 1447.7 284C1448.6 283 1448.5 281.2 1447.3 279.8 1445.8 279.2 1444 279.2 1443.2 280.2L1431.2 295.3 1426.8 284.1C1426.2 282.5 1424.2 282.1 1423.1 282.5 1421.5 283.1 1420.3 284.8 1421 286.4L1426.6 300.8 1416.2 313.5 1404.5 283.6C1403.9 282 1402.4 281.4 1400.8 282 1399.2 282.7 1398.5 284.1 1399.1 285.7L1412.1 318.8 1403.6 330.2 1368.8 324.7 1364 312.4 1386.7 283.8C1388.1 282.7 1387.8 280.3 1386.3 279.7 1385.1 278.3 1383.5 278.9 1382.2 280.1L1361.5 306 1355.5 290.5 1365.9 277.8C1366.7 276.9 1366.4 274.5 1365.5 273.7S1362.2 273.1 1360.8 274.3L1352.9 284.1 1345.6 265.4C1345 263.8 1343 263.4 1341.4 264 1340.3 264.4 1339.1 266.1 1339.8 267.7L1347.1 286.4 1334.1 284.7C1332.8 284.6 1331.2 285.3 1330.8 287.3 1330.7 288.5 1332 290.5 1333.3 290.6L1349.6 292.8 1355.7 308.3 1322.9 303.3C1321.1 303.4 1319.5 304 1319 306 1318.9 307.3 1320.3 309.2 1321.6 309.4L1358.2 314.7 1363 327 1341.2 354.6 1327.2 352.1 1314.3 319C1313.6 317.4 1312.2 316.7 1310.5 317.4 1308.9 318 1307.8 319.7 1308.4 321.3L1320.1 351.2 1303.8 348.9 1298.2 334.5C1297.6 332.9 1296.1 332.3 1294.5 332.9 1292.9 333.5 1292.2 335 1292.8 336.6L1297.2 347.8 1278.2 344.8C1276.9 344.7 1275 346.1 1274.9 347.3 1275 349.2 1275.6 350.8 1277.4 350.7L1297.2 354 1288.5 364.8C1287.8 366.3 1287.9 368.1 1288.9 369 1289.8 369.8 1291.1 369.9 1292.2 369.5 1292.2 369.5 1292.7 369.3 1293 368.6L1304.3 354.9 1320.6 357.1 1299.3 384.6C1297.9 385.7 1298 387.5 1299.7 388.7 1300.5 389 1301.2 389.4 1302.3 389 1302.8 388.7 1303.3 388.5 1303.9 388.3L1327.2 358.3 1340.4 360.5 1353.1 393 1343.6 404.8 1308.3 399.5C1306.2 399.1 1304.8 400.3 1304.9 402.1 1304.3 403.6 1305.4 404.9 1307.5 405.4L1339.5 410.1 1329.3 423.3 1313.5 420.9C1312.3 420.8 1310.9 421.9 1310.2 423.4 1310.3 425.2 1310.9 426.8 1312.7 426.7L1324.7 428.8 1313.6 443C1312.2 444.2 1312.8 445.8 1314 447.2 1314.7 447.5 1316 447.6 1317.1 447.2 1317.1 447.2 1317.6 447 1318.1 446.8L1330.1 431.6 1335.3 445C1335.7 446.1 1337.4 447.2 1339 446.6 1340.6 446 1341 444 1340.6 442.9L1334.1 426.3 1344.4 413.1 1357.1 445.7C1357.7 447.3 1359.8 447.7 1361.4 447.1S1363.6 445 1363 443.4L1349 407.6 1357.7 396.8 1392.5 402.3 1397.9 416.2 1374.7 444.9C1374 446.4 1374.1 448.2 1375.3 449.6 1376 450 1377.3 450.1 1378.4 449.7 1378.9 449.4 1379.4 449.2 1379.8 448.5L1400.4 422.6 1406.5 438 1396.3 451.3C1395.4 452.2 1395.5 454 1396.6 455.4 1398.1 456.1 1399.9 456 1400.8 455L1409 444.4 1415.7 461.5C1416.1 462.6 1418.3 463.6 1419.4 463.2 1421 462.5 1422 460.3 1421.5 459.2L1414.8 442.1 1427.5 444.6C1428 444.4 1428.6 444.2 1429.1 444 1430.2 443.5 1431 442.6 1431.3 441.8 1431.3 440 1430.1 438.6 1428.6 438L1412.3 435.7 1406.3 420.3 1439 425.3C1441 425.7 1442.4 424.6 1442.6 423.3 1443 421.3 1441.8 419.9 1440.3 419.2L1403.8 413.9 1398.3 400 1420.1 372.3 1433.9 374.4 1447.9 410.1C1448.5 411.7 1450 412.4 1451.6 411.7 1453.2 411.1 1453.8 409.6 1453.2 408L1440.4 375.5 1456.9 378.2 1463.4 394.8C1463.8 395.9 1466.1 396.8 1467.7 396.2 1469.3 395.6 1469.7 393.6 1469.3 392.5L1464.1 379.2 1483.1 382.2C1483.6 382 1483.6 382 1484.2 381.7 1485.2 381.3 1486.1 380.4 1486.4 379.6 1486.3 377.8 1485.2 376.4 1483.9 376.3ZM1395.8 393.6L1393.2 396.4 1389.9 395.9 1361.8 391.5 1358.5 391 1357.2 387.8 1347 361.6 1345.7 358.4 1347.8 355.7 1365.5 333.4 1367.5 330.8 1371.4 331.1 1399 335.7 1402.8 336 1404.1 339.2 1414.3 365.4 1415.6 368.6 1413 371.4 1395.8 393.6Z" fill="rgba(51, 121, 194, 0.58)"></path></g><defs><mask id="SvgjsMask1014"><rect width="1440" height="2580" fill="#ffffff"></rect></mask><filter id="SvgjsFilter1015"><feGaussianBlur stdDeviation="1"></feGaussianBlur></filter></defs></svg>