<svg xmlns="http://www.w3.org/2000/svg"
     xmlns:xlink="http://www.w3.org/1999/xlink"
     x="0"
     y="0"
     width="661.3333740234375"
     height="477.66668701171875">
    <!-- 内联样式 -->
    <style type="text/css">
        .connection {
            stroke: rgb(20, 20, 20);
        }

        .connection-fill {
            fill: rgb(20, 20, 20);
        }

        .char {
            stroke: rgb(0, 0, 0);
            fill: rgb(0, 0, 0);
        }

        @media (prefers-color-scheme: dark) {
            .connection {
                stroke: rgb(200, 200, 200);
            }

            .connection-fill {
                fill: rgb(200, 200, 200);
            }

            .char {
                stroke: rgb(239, 239, 239);
                fill: rgb(239, 239, 239);
            }
        }
    </style>
    <g class="shapes-region"
       style="stroke: black; fill: none;">
        <g class="arrow-line">
            <path class="connection"
                  stroke-dasharray="6 6"
                  d="  M382.33,185.67 L382.33,303"
                  style="stroke-width: 1; fill: none; fill-opacity: 1;" />
        </g>
        <g class="arrow-line">
            <path class="connection"
                  stroke-dasharray="6 6"
                  d="  M337.33,185.67 L380.33,185.67"
                  style="stroke-width: 1; fill: none; fill-opacity: 1;" />
        </g>
        <g class="composite-shape"
           data-amt="diagram/shapes/plot"
           transform="matrix(1,0,0,1,20,10)">
            <g>
                <g />
                <g>
                    <g class="test-xti"
                       style="font-family: Asana-Math, Asana;">
                        <line x1="0"
                              y1="296.37038369041863"
                              x2="616"
                              y2="296.37038369041863"
                              fill="none"
                              class="connection"
                              stroke-opacity="1"
                              stroke-width="1" />
                        <line x1="7.422018034955226"
                              y1="292.37038369041863"
                              x2="7.422018034955226"
                              y2="300.37038369041863"
                              fill="none"
                              class="connection"
                              stroke-opacity="1"
                              stroke-width="1" />
                        <line x1="51.72542502141157"
                              y1="292.37038369041863"
                              x2="51.72542502141157"
                              y2="300.37038369041863"
                              fill="none"
                              class="connection"
                              stroke-opacity="1"
                              stroke-width="1" />
                        <line x1="96.0288320078679"
                              y1="292.37038369041863"
                              x2="96.0288320078679"
                              y2="300.37038369041863"
                              fill="none"
                              class="connection"
                              stroke-opacity="1"
                              stroke-width="1" />
                        <line x1="140.33223899432426"
                              y1="292.37038369041863"
                              x2="140.33223899432426"
                              y2="300.37038369041863"
                              fill="none"
                              class="connection"
                              stroke-opacity="1"
                              stroke-width="1" />
                        <line x1="184.63564598078057"
                              y1="292.37038369041863"
                              x2="184.63564598078057"
                              y2="300.37038369041863"
                              fill="none"
                              class="connection"
                              stroke-opacity="1"
                              stroke-width="1" />
                        <line x1="228.93905296723693"
                              y1="292.37038369041863"
                              x2="228.93905296723693"
                              y2="300.37038369041863"
                              fill="none"
                              class="connection"
                              stroke-opacity="1"
                              stroke-width="1" />
                        <line x1="273.24245995369324"
                              y1="292.37038369041863"
                              x2="273.24245995369324"
                              y2="300.37038369041863"
                              fill="none"
                              class="connection"
                              stroke-opacity="1"
                              stroke-width="1" />
                        <line x1="361.849273926606"
                              y1="292.37038369041863"
                              x2="361.849273926606"
                              y2="300.37038369041863"
                              fill="none"
                              class="connection"
                              stroke-opacity="1"
                              stroke-width="1" />
                        <line x1="406.1526809130623"
                              y1="292.37038369041863"
                              x2="406.1526809130623"
                              y2="300.37038369041863"
                              fill="none"
                              class="connection"
                              stroke-opacity="1"
                              stroke-width="1" />
                        <line x1="450.45608789951865"
                              y1="292.37038369041863"
                              x2="450.45608789951865"
                              y2="300.37038369041863"
                              fill="none"
                              class="connection"
                              stroke-opacity="1"
                              stroke-width="1" />
                        <line x1="494.75949488597496"
                              y1="292.37038369041863"
                              x2="494.75949488597496"
                              y2="300.37038369041863"
                              fill="none"
                              class="connection"
                              stroke-opacity="1"
                              stroke-width="1" />
                        <line x1="539.0629018724313"
                              y1="292.37038369041863"
                              x2="539.0629018724313"
                              y2="300.37038369041863"
                              fill="none"
                              class="connection"
                              stroke-opacity="1"
                              stroke-width="1" />
                        <line x1="583.3663088588877"
                              y1="292.37038369041863"
                              x2="583.3663088588877"
                              y2="300.37038369041863"
                              fill="none"
                              class="connection"
                              stroke-opacity="1"
                              stroke-width="1" />
                        <path d="M611,292.7703836904186 L619,296.37038369041863 L611,299.97038369041866 Z"
                              stroke="none"
                              stroke-width="1"
                              class="connection-fill"
                              fill-opacity="1" />
                    </g>
                    <g class="test-yti"
                       style="font-family: Asana-Math, Asana;">
                        <line x1="317.5458669401496"
                              y1="4"
                              x2="317.5458669401496"
                              y2="446"
                              fill="none"
                              class="connection"
                              stroke-opacity="1"
                              stroke-width="1" />
                        <line x1="313.5458669401496"
                              y1="429.2806046497877"
                              x2="321.5458669401496"
                              y2="429.2806046497877"
                              fill="none"
                              class="connection"
                              stroke-opacity="1"
                              stroke-width="1" />
                        <line x1="313.5458669401496"
                              y1="384.9771976633313"
                              x2="321.5458669401496"
                              y2="384.9771976633313"
                              fill="none"
                              class="connection"
                              stroke-opacity="1"
                              stroke-width="1" />
                        <line x1="313.5458669401496"
                              y1="340.673790676875"
                              x2="321.5458669401496"
                              y2="340.673790676875"
                              fill="none"
                              class="connection"
                              stroke-opacity="1"
                              stroke-width="1" />
                        <line x1="313.5458669401496"
                              y1="252.0669767039623"
                              x2="321.5458669401496"
                              y2="252.0669767039623"
                              fill="none"
                              class="connection"
                              stroke-opacity="1"
                              stroke-width="1" />
                        <line x1="313.5458669401496"
                              y1="207.763569717506"
                              x2="321.5458669401496"
                              y2="207.763569717506"
                              fill="none"
                              class="connection"
                              stroke-opacity="1"
                              stroke-width="1" />
                        <line x1="313.5458669401496"
                              y1="163.46016273104965"
                              x2="321.5458669401496"
                              y2="163.46016273104965"
                              fill="none"
                              class="connection"
                              stroke-opacity="1"
                              stroke-width="1" />
                        <line x1="313.5458669401496"
                              y1="119.15675574459328"
                              x2="321.5458669401496"
                              y2="119.15675574459328"
                              fill="none"
                              class="connection"
                              stroke-opacity="1"
                              stroke-width="1" />
                        <line x1="313.5458669401496"
                              y1="74.85334875813697"
                              x2="321.5458669401496"
                              y2="74.85334875813697"
                              fill="none"
                              class="connection"
                              stroke-opacity="1"
                              stroke-width="1" />
                        <line x1="313.5458669401496"
                              y1="30.549941771680665"
                              x2="321.5458669401496"
                              y2="30.549941771680665"
                              fill="none"
                              class="connection"
                              stroke-opacity="1"
                              stroke-width="1" />
                        <path d="M313.9458669401496,9 L317.5458669401496,1 L321.14586694014963,9 Z"
                              stroke="none"
                              stroke-width="1"
                              class="connection-fill"
                              fill-opacity="1" />
                    </g>
                    <g class="test-plot-expression">
                        <defs>
                            <clipPath id="cpirbg5gvhb">
                                <rect x="1"
                                      y="1"
                                      width="618"
                                      height="444" />
                            </clipPath>
                        </defs>
                        <g clip-path="url(#cpirbg5gvhb)">
                            <path d=" M0.00,296.38 L0.56,296.38 L1.13,296.38 L1.69,296.38 L2.26,296.38 L2.82,296.38 L3.38,296.38 L3.95,296.38 L4.51,296.38 L5.08,296.38 L5.64,296.38 L6.21,296.38 L6.77,296.38 L7.33,296.38 L7.90,296.38 L8.46,296.38 L9.03,296.38 L9.59,296.38 L10.15,296.38 L10.72,296.38 L11.28,296.38 L11.85,296.38 L12.41,296.38 L12.98,296.38 L13.54,296.38 L14.10,296.38 L14.67,296.38 L15.23,296.38 L15.80,296.38 L16.36,296.38 L16.92,296.38 L17.49,296.38 L18.05,296.38 L18.62,296.38 L19.18,296.38 L19.75,296.38 L20.31,296.38 L20.87,296.38 L21.44,296.38 L22.00,296.38 L22.57,296.38 L23.13,296.38 L23.69,296.38 L24.26,296.38 L24.82,296.38 L25.39,296.38 L25.95,296.38 L26.52,296.38 L27.08,296.38 L27.64,296.38 L28.21,296.38 L28.77,296.38 L29.34,296.38 L29.90,296.38 L30.46,296.38 L31.03,296.38 L31.59,296.38 L32.16,296.38 L32.72,296.38 L33.28,296.38 L33.85,296.38 L34.41,296.38 L34.98,296.38 L35.54,296.38 L36.11,296.38 L36.67,296.38 L37.23,296.38 L37.80,296.38 L38.36,296.38 L38.93,296.38 L39.49,296.38 L40.05,296.38 L40.62,296.38 L41.18,296.38 L41.75,296.38 L42.31,296.38 L42.88,296.38 L43.44,296.39 L44.00,296.39 L44.57,296.39 L45.13,296.39 L45.70,296.39 L46.26,296.39 L46.82,296.39 L47.39,296.39 L47.95,296.39 L48.52,296.39 L49.08,296.39 L49.65,296.39 L50.21,296.39 L50.77,296.39 L51.34,296.39 L51.90,296.39 L52.47,296.39 L53.03,296.39 L53.59,296.39 L54.16,296.39 L54.72,296.39 L55.29,296.39 L55.85,296.39 L56.41,296.39 L56.98,296.39 L57.54,296.39 L58.11,296.39 L58.67,296.39 L59.24,296.39 L59.80,296.39 L60.36,296.39 L60.93,296.39 L61.49,296.39 L62.06,296.39 L62.62,296.39 L63.18,296.40 L63.75,296.40 L64.31,296.40 L64.88,296.40 L65.44,296.40 L66.01,296.40 L66.57,296.40 L67.13,296.40 L67.70,296.40 L68.26,296.40 L68.83,296.40 L69.39,296.40 L69.95,296.40 L70.52,296.40 L71.08,296.40 L71.65,296.40 L72.21,296.40 L72.78,296.40 L73.34,296.40 L73.90,296.40 L74.47,296.40 L75.03,296.40 L75.60,296.40 L76.16,296.41 L76.72,296.41 L77.29,296.41 L77.85,296.41 L78.42,296.41 L78.98,296.41 L79.55,296.41 L80.11,296.41 L80.67,296.41 L81.24,296.41 L81.80,296.41 L82.37,296.41 L82.93,296.41 L83.49,296.41 L84.06,296.41 L84.62,296.41 L85.19,296.41 L85.75,296.42 L86.31,296.42 L86.88,296.42 L87.44,296.42 L88.01,296.42 L88.57,296.42 L89.14,296.42 L89.70,296.42 L90.26,296.42 L90.83,296.42 L91.39,296.42 L91.96,296.42 L92.52,296.42 L93.08,296.43 L93.65,296.43 L94.21,296.43 L94.78,296.43 L95.34,296.43 L95.91,296.43 L96.47,296.43 L97.03,296.43 L97.60,296.43 L98.16,296.43 L98.73,296.43 L99.29,296.44 L99.85,296.44 L100.42,296.44 L100.98,296.44 L101.55,296.44 L102.11,296.44 L102.68,296.44 L103.24,296.44 L103.80,296.44 L104.37,296.45 L104.93,296.45 L105.50,296.45 L106.06,296.45 L106.62,296.45 L107.19,296.45 L107.75,296.45 L108.32,296.45 L108.88,296.46 L109.44,296.46 L110.01,296.46 L110.57,296.46 L111.14,296.46 L111.70,296.46 L112.27,296.46 L112.83,296.46 L113.39,296.47 L113.96,296.47 L114.52,296.47 L115.09,296.47 L115.65,296.47 L116.21,296.47 L116.78,296.48 L117.34,296.48 L117.91,296.48 L118.47,296.48 L119.04,296.48 L119.60,296.48 L120.16,296.49 L120.73,296.49 L121.29,296.49 L121.86,296.49 L122.42,296.49 L122.98,296.50 L123.55,296.50 L124.11,296.50 L124.68,296.50 L125.24,296.50 L125.81,296.51 L126.37,296.51 L126.93,296.51 L127.50,296.51 L128.06,296.51 L128.63,296.52 L129.19,296.52 L129.75,296.52 L130.32,296.52 L130.88,296.53 L131.45,296.53 L132.01,296.53 L132.58,296.53 L133.14,296.54 L133.70,296.54 L134.27,296.54 L134.83,296.54 L135.40,296.55 L135.96,296.55 L136.52,296.55 L137.09,296.56 L137.65,296.56 L138.22,296.56 L138.78,296.56 L139.34,296.57 L139.91,296.57 L140.47,296.57 L141.04,296.58 L141.60,296.58 L142.17,296.58 L142.73,296.59 L143.29,296.59 L143.86,296.59 L144.42,296.60 L144.99,296.60 L145.55,296.61 L146.11,296.61 L146.68,296.61 L147.24,296.62 L147.81,296.62 L148.37,296.63 L148.94,296.63 L149.50,296.63 L150.06,296.64 L150.63,296.64 L151.19,296.65 L151.76,296.65 L152.32,296.66 L152.88,296.66 L153.45,296.66 L154.01,296.67 L154.58,296.67 L155.14,296.68 L155.71,296.68 L156.27,296.69 L156.83,296.70 L157.40,296.70 L157.96,296.71 L158.53,296.71 L159.09,296.72 L159.65,296.72 L160.22,296.73 L160.78,296.73 L161.35,296.74 L161.91,296.75 L162.47,296.75 L163.04,296.76 L163.60,296.77 L164.17,296.77 L164.73,296.78 L165.30,296.79 L165.86,296.79 L166.42,296.80 L166.99,296.81 L167.55,296.81 L168.12,296.82 L168.68,296.83 L169.24,296.84 L169.81,296.84 L170.37,296.85 L170.94,296.86 L171.50,296.87 L172.07,296.88 L172.63,296.88 L173.19,296.89 L173.76,296.90 L174.32,296.91 L174.89,296.92 L175.45,296.93 L176.01,296.94 L176.58,296.95 L177.14,296.96 L177.71,296.97 L178.27,296.98 L178.84,296.99 L179.40,297.00 L179.96,297.01 L180.53,297.02 L181.09,297.03 L181.66,297.04 L182.22,297.05 L182.78,297.07 L183.35,297.08 L183.91,297.09 L184.48,297.10 L185.04,297.11 L185.61,297.13 L186.17,297.14 L186.73,297.15 L187.30,297.17 L187.86,297.18 L188.43,297.19 L188.99,297.21 L189.55,297.22 L190.12,297.24 L190.68,297.25 L191.25,297.27 L191.81,297.28 L192.37,297.30 L192.94,297.32 L193.50,297.33 L194.07,297.35 L194.63,297.37 L195.20,297.38 L195.76,297.40 L196.32,297.42 L196.89,297.44 L197.45,297.46 L198.02,297.48 L198.58,297.50 L199.14,297.52 L199.71,297.54 L200.27,297.56 L200.84,297.58 L201.40,297.60 L201.97,297.62 L202.53,297.64 L203.09,297.67 L203.66,297.69 L204.22,297.71 L204.79,297.74 L205.35,297.76 L205.91,297.79 L206.48,297.81 L207.04,297.84 L207.61,297.86 L208.17,297.89 L208.74,297.92 L209.30,297.95 L209.86,297.97 L210.43,298.00 L210.99,298.03 L211.56,298.06 L212.12,298.09 L212.68,298.13 L213.25,298.16 L213.81,298.19 L214.38,298.22 L214.94,298.26 L215.51,298.29 L216.07,298.33 L216.63,298.36 L217.20,298.40 L217.76,298.44 L218.33,298.48 L218.89,298.52 L219.45,298.56 L220.02,298.60 L220.58,298.64 L221.15,298.68 L221.71,298.72 L222.27,298.77 L222.84,298.81 L223.40,298.86 L223.97,298.91 L224.53,298.96 L225.10,299.00 L225.66,299.06 L226.22,299.11 L226.79,299.16 L227.35,299.21 L227.92,299.27 L228.48,299.32 L229.04,299.38 L229.61,299.44 L230.17,299.50 L230.74,299.56 L231.30,299.62 L231.87,299.68 L232.43,299.75 L232.99,299.81 L233.56,299.88 L234.12,299.95 L234.69,300.02 L235.25,300.09 L235.81,300.17 L236.38,300.24 L236.94,300.32 L237.51,300.40 L238.07,300.48 L238.64,300.56 L239.20,300.64 L239.76,300.73 L240.33,300.82 L240.89,300.91 L241.46,301.00 L242.02,301.10 L242.58,301.19 L243.15,301.29 L243.71,301.39 L244.28,301.50 L244.84,301.60 L245.40,301.71 L245.97,301.82 L246.53,301.93 L247.10,302.05 L247.66,302.17 L248.23,302.29 L248.79,302.42 L249.35,302.55 L249.92,302.68 L250.48,302.81 L251.05,302.95 L251.61,303.09 L252.17,303.24 L252.74,303.38 L253.30,303.54 L253.87,303.69 L254.43,303.85 L255.00,304.02 L255.56,304.19 L256.12,304.36 L256.69,304.54 L257.25,304.72 L257.82,304.90 L258.38,305.10 L258.94,305.29 L259.51,305.50 L260.07,305.70 L260.64,305.92 L261.20,306.14 L261.77,306.36 L262.33,306.59 L262.89,306.83 L263.46,307.07 L264.02,307.33 L264.59,307.58 L265.15,307.85 L265.71,308.12 L266.28,308.41 L266.84,308.70 L267.41,308.99 L267.97,309.30 L268.54,309.62 L269.10,309.94 L269.66,310.28 L270.23,310.63 L270.79,310.98 L271.36,311.35 L271.92,311.73 L272.48,312.12 L273.05,312.53 L273.61,312.94 L274.18,313.37 L274.74,313.82 L275.30,314.28 L275.87,314.75 L276.43,315.25 L277.00,315.75 L277.56,316.28 L278.13,316.82 L278.69,317.38 L279.25,317.97 L279.82,318.57 L280.38,319.20 L280.95,319.85 L281.51,320.52 L282.07,321.22 L282.64,321.94 L283.20,322.70 L283.77,323.48 L284.33,324.29 L284.90,325.14 L285.46,326.02 L286.02,326.94 L286.59,327.89 L287.15,328.89 L287.72,329.93 L288.28,331.01 L288.84,332.15 L289.41,333.33 L289.97,334.57 L290.54,335.87 L291.10,337.23 L291.67,338.66 L292.23,340.15 L292.79,341.72 L293.36,343.38 L293.92,345.12 L294.49,346.95 L295.05,348.88 L295.61,350.92 L296.18,353.08 L296.74,355.36 L297.31,357.79 L297.87,360.36 L298.43,363.09 L299.00,366.00 L299.56,369.11 L300.13,372.42 L300.69,375.98 L301.26,379.79 L301.82,383.89 L302.38,388.31 L302.95,393.08 L303.51,398.26 L304.08,403.89 L304.64,410.03 L305.20,416.75 L305.77,424.13 L306.33,432.28 L306.90,441.31 L307.46,451.38 L308.03,462.67 L308.59,475.41 L309.15,489.90 L309.72,506.50 L310.28,525.72 L310.85,548.22 L311.41,574.91 L311.97,607.04 L312.54,646.47 L313.10,695.98 L313.67,759.97 L314.23,845.82 L314.80,892.00 L315.36,892.00 L315.92,892.00 L316.49,892.00 L317.05,892.00 L317.62,892.00 M317.62,-446.00 L317.62,-446.00 L318.18,-446.00 M318.18,-446.00 L318.18,-446.00 L318.74,-446.00 L319.31,-446.00 L319.87,-446.00 L320.44,-428.37 L321.00,-317.80 L321.57,-238.36 L322.13,-178.55 L322.69,-131.92 L323.26,-94.56 L323.82,-63.98 L324.39,-38.50 L324.95,-16.95 L325.51,1.51 L326.08,17.47 L326.64,31.42 L327.21,43.69 L327.77,54.57 L328.33,64.28 L328.90,72.99 L329.46,80.83 L330.03,87.94 L330.59,94.40 L331.16,100.29 L331.72,105.68 L332.28,110.63 L332.85,115.18 L333.41,119.39 L333.98,123.27 L334.54,126.88 L335.10,130.22 L335.67,133.33 L336.23,136.22 L336.80,138.92 L337.36,141.45 L337.93,143.81 L338.49,146.01 L339.05,148.08 L339.62,150.02 L340.18,151.84 L340.75,153.54 L341.31,155.15 L341.87,156.66 L342.44,158.07 L343.00,159.40 L343.57,160.66 L344.13,161.83 L344.70,162.94 L345.26,163.98 L345.82,164.96 L346.39,165.88 L346.95,166.74 L347.52,167.55 L348.08,168.31 L348.64,169.02 L349.21,169.69 L349.77,170.31 L350.34,170.89 L350.90,171.44 L351.46,171.94 L352.03,172.41 L352.59,172.84 L353.16,173.24 L353.72,173.60 L354.29,173.94 L354.85,174.25 L355.41,174.52 L355.98,174.77 L356.54,175.00 L357.11,175.20 L357.67,175.37 L358.23,175.52 L358.80,175.64 L359.36,175.74 L359.93,175.82 L360.49,175.88 L361.06,175.92 L361.62,175.94 L362.18,175.94 L362.75,175.92 L363.31,175.88 L363.88,175.82 L364.44,175.74 L365.00,175.65 L365.57,175.54 L366.13,175.41 L366.70,175.27 L367.26,175.11 L367.83,174.93 L368.39,174.74 L368.95,174.53 L369.52,174.31 L370.08,174.07 L370.65,173.82 L371.21,173.56 L371.77,173.28 L372.34,172.98 L372.90,172.68 L373.47,172.35 L374.03,172.02 L374.60,171.67 L375.16,171.31 L375.72,170.94 L376.29,170.55 L376.85,170.15 L377.42,169.74 L377.98,169.31 L378.54,168.87 L379.11,168.42 L379.67,167.96 L380.24,167.48 L380.80,167.00 L381.36,166.50 L381.93,165.98 L382.49,165.46 L383.06,164.92 L383.62,164.38 L384.19,163.82 L384.75,163.24 L385.31,162.66 L385.88,162.07 L386.44,161.46 L387.01,160.84 L387.57,160.21 L388.13,159.57 L388.70,158.91 L389.26,158.24 L389.83,157.57 L390.39,156.88 L390.96,156.17 L391.52,155.46 L392.08,154.73 L392.65,154.00 L393.21,153.25 L393.78,152.49 L394.34,151.71 L394.90,150.93 L395.47,150.13 L396.03,149.32 L396.60,148.50 L397.16,147.67 L397.73,146.82 L398.29,145.96 L398.85,145.09 L399.42,144.21 L399.98,143.31 L400.55,142.40 L401.11,141.48 L401.67,140.55 L402.24,139.61 L402.80,138.65 L403.37,137.68 L403.93,136.69 L404.49,135.70 L405.06,134.69 L405.62,133.66 L406.19,132.63 L406.75,131.58 L407.32,130.51 L407.88,129.44 L408.44,128.35 L409.01,127.24 L409.57,126.13 L410.14,125.00 L410.70,123.85 L411.26,122.69 L411.83,121.52 L412.39,120.33 L412.96,119.13 L413.52,117.91 L414.09,116.68 L414.65,115.44 L415.21,114.18 L415.78,112.90 L416.34,111.61 L416.91,110.31 L417.47,108.98 L418.03,107.65 L418.60,106.30 L419.16,104.93 L419.73,103.55 L420.29,102.15 L420.86,100.73 L421.42,99.30 L421.98,97.86 L422.55,96.39 L423.11,94.91 L423.68,93.41 L424.24,91.90 L424.80,90.37 L425.37,88.82 L425.93,87.26 L426.50,85.67 L427.06,84.07 L427.63,82.45 L428.19,80.82 L428.75,79.16 L429.32,77.49 L429.88,75.80 L430.45,74.09 L431.01,72.36 L431.57,70.61 L432.14,68.84 L432.70,67.05 L433.27,65.25 L433.83,63.42 L434.39,61.58 L434.96,59.71 L435.52,57.82 L436.09,55.92 L436.65,53.99 L437.22,52.04 L437.78,50.07 L438.34,48.08 L438.91,46.06 L439.47,44.03 L440.04,41.97 L440.60,39.89 L441.16,37.79 L441.73,35.67 L442.29,33.52 L442.86,31.35 L443.42,29.16 L443.99,26.94 L444.55,24.70 L445.11,22.44 L445.68,20.15 L446.24,17.83 L446.81,15.50 L447.37,13.13 L447.93,10.74 L448.50,8.33 L449.06,5.89 L449.63,3.42 L450.19,0.93 L450.76,-1.59 L451.32,-4.13 L451.88,-6.71 L452.45,-9.31 L453.01,-11.93 L453.58,-14.59 L454.14,-17.28 L454.70,-19.99 L455.27,-22.73 L455.83,-25.50 L456.40,-28.30 L456.96,-31.13 L457.53,-33.99 L458.09,-36.88 L458.65,-39.80 L459.22,-42.76 L459.78,-45.74 L460.35,-48.75 L460.91,-51.80 L461.47,-54.88 L462.04,-57.99 L462.60,-61.14 L463.17,-64.32 L463.73,-67.53 L464.29,-70.78 L464.86,-74.06 L465.42,-77.37 L465.99,-80.72 L466.55,-84.11 L467.12,-87.53 L467.68,-90.99 L468.24,-94.49 L468.81,-98.02 L469.37,-101.59 L469.94,-105.20 L470.50,-108.84 L471.06,-112.53 L471.63,-116.25 L472.19,-120.02 L472.76,-123.82 L473.32,-127.66 L473.89,-131.55 L474.45,-135.47 L475.01,-139.44 L475.58,-143.45 L476.14,-147.50 L476.71,-151.60 L477.27,-155.73 L477.83,-159.92 L478.40,-164.14 L478.96,-168.41 L479.53,-172.73 L480.09,-177.09 L480.66,-181.50 L481.22,-185.96 L481.78,-190.46 L482.35,-195.01 L482.91,-199.61 L483.48,-204.26 L484.04,-208.96 L484.60,-213.70 L485.17,-218.50 L485.73,-223.35 L486.30,-228.25 L486.86,-233.21 L487.42,-238.21 L487.99,-243.27 L488.55,-248.38 L489.12,-253.55 L489.68,-258.77 L490.25,-264.05 L490.81,-269.38 L491.37,-274.77 L491.94,-280.22 L492.50,-285.73 L493.07,-291.29 L493.63,-296.92 L494.19,-302.60 L494.76,-308.34 L495.32,-314.15 L495.89,-320.02 L496.45,-325.95 L497.02,-331.94 L497.58,-338.00 L498.14,-344.12 L498.71,-350.31 L499.27,-356.56 L499.84,-362.89 L500.40,-369.27 L500.96,-375.73 L501.53,-382.26 L502.09,-388.85 L502.66,-395.52 L503.22,-402.26 L503.79,-409.07 L504.35,-415.95 L504.91,-422.90 L505.48,-429.94 L506.04,-437.04 L506.61,-444.22 L507.17,-446.00 L507.73,-446.00 L508.30,-446.00 L508.86,-446.00 L509.43,-446.00 L509.99,-446.00 L510.56,-446.00 L511.12,-446.00 L511.68,-446.00 L512.25,-446.00 L512.81,-446.00 L513.38,-446.00 L513.94,-446.00 L514.50,-446.00 L515.07,-446.00 L515.63,-446.00 L516.20,-446.00 L516.76,-446.00 L517.32,-446.00 L517.89,-446.00 L518.45,-446.00 L519.02,-446.00 L519.58,-446.00 L520.15,-446.00 L520.71,-446.00 L521.27,-446.00 L521.84,-446.00 L522.40,-446.00 L522.97,-446.00 L523.53,-446.00 L524.09,-446.00 L524.66,-446.00 L525.22,-446.00 L525.79,-446.00 L526.35,-446.00 L526.92,-446.00 L527.48,-446.00 L528.04,-446.00 L528.61,-446.00 L529.17,-446.00 L529.74,-446.00 L530.30,-446.00 L530.86,-446.00 L531.43,-446.00 L531.99,-446.00 L532.56,-446.00 L533.12,-446.00 L533.69,-446.00 L534.25,-446.00 L534.81,-446.00 L535.38,-446.00 L535.94,-446.00 L536.51,-446.00 L537.07,-446.00 L537.63,-446.00 L538.20,-446.00 L538.76,-446.00 L539.33,-446.00 L539.89,-446.00 L540.45,-446.00 L541.02,-446.00 L541.58,-446.00 L542.15,-446.00 L542.71,-446.00 L543.28,-446.00 L543.84,-446.00 L544.40,-446.00 L544.97,-446.00 L545.53,-446.00 L546.10,-446.00 L546.66,-446.00 L547.22,-446.00 L547.79,-446.00 L548.35,-446.00 L548.92,-446.00 L549.48,-446.00 L550.05,-446.00 L550.61,-446.00 L551.17,-446.00 L551.74,-446.00 L552.30,-446.00 L552.87,-446.00 L553.43,-446.00 L553.99,-446.00 L554.56,-446.00 L555.12,-446.00 L555.69,-446.00 L556.25,-446.00 L556.82,-446.00 L557.38,-446.00 L557.94,-446.00 L558.51,-446.00 L559.07,-446.00 L559.64,-446.00 L560.20,-446.00 L560.76,-446.00 L561.33,-446.00 L561.89,-446.00 L562.46,-446.00 L563.02,-446.00 L563.59,-446.00 L564.15,-446.00 L564.71,-446.00 L565.28,-446.00 L565.84,-446.00 L566.41,-446.00 L566.97,-446.00 L567.53,-446.00 L568.10,-446.00 L568.66,-446.00 L569.23,-446.00 L569.79,-446.00 L570.35,-446.00 L570.92,-446.00 L571.48,-446.00 L572.05,-446.00 L572.61,-446.00 L573.18,-446.00 L573.74,-446.00 L574.30,-446.00 L574.87,-446.00 L575.43,-446.00 L576.00,-446.00 L576.56,-446.00 L577.12,-446.00 L577.69,-446.00 L578.25,-446.00 L578.82,-446.00 L579.38,-446.00 L579.95,-446.00 L580.51,-446.00 L581.07,-446.00 L581.64,-446.00 L582.20,-446.00 L582.77,-446.00 L583.33,-446.00 L583.89,-446.00 L584.46,-446.00 L585.02,-446.00 L585.59,-446.00 L586.15,-446.00 L586.72,-446.00 L587.28,-446.00 L587.84,-446.00 L588.41,-446.00 L588.97,-446.00 L589.54,-446.00 L590.10,-446.00 L590.66,-446.00 L591.23,-446.00 L591.79,-446.00 L592.36,-446.00 L592.92,-446.00 L593.48,-446.00 L594.05,-446.00 L594.61,-446.00 L595.18,-446.00 L595.74,-446.00 L596.31,-446.00 L596.87,-446.00 L597.43,-446.00 L598.00,-446.00 L598.56,-446.00 L599.13,-446.00 L599.69,-446.00 L600.25,-446.00 L600.82,-446.00 L601.38,-446.00 L601.95,-446.00 L602.51,-446.00 L603.08,-446.00 L603.64,-446.00 L604.20,-446.00 L604.77,-446.00 L605.33,-446.00 L605.90,-446.00 L606.46,-446.00 L607.02,-446.00 L607.59,-446.00 L608.15,-446.00 L608.72,-446.00 L609.28,-446.00 L609.85,-446.00 L610.41,-446.00 L610.97,-446.00 L611.54,-446.00 L612.10,-446.00 L612.67,-446.00 L613.23,-446.00 L613.79,-446.00 L614.36,-446.00 L614.92,-446.00 L615.49,-446.00 L616.05,-446.00 L616.62,-446.00 L617.18,-446.00 L617.74,-446.00 L618.31,-446.00 L618.87,-446.00 L619.44,-446.00 L620.00,-446.00"
                                  style="stroke-width: 2; stroke: rgb(74, 144, 226); stroke-opacity: 0.8;" />
                            <g>
                                <circle cx="361.8492739266059"
                                        cy="175.94123754030886"
                                        r="1.5"
                                        style="stroke-width: 3; stroke: rgb(60, 180, 75); stroke-opacity: 0.8; fill: rgb(60, 180, 75); fill-opacity: 0.15;" />
                            </g>
                        </g>
                    </g>
                    <g class="test-xtl"
                       style="font-family: &quot;Open Sans&quot;, verdana, arial, sans-serif;" />
                    <g class="test-ytl"
                       style="font-family: &quot;Open Sans&quot;, verdana, arial, sans-serif;" />
                    <rect class="real"
                          x="1"
                          y="1"
                          width="618"
                          height="444"
                          style="fill: transparent; stroke: none;" />
                </g>
            </g>
        </g>
        <g />
    </g>
    <g />
    <g />
    <g />
    <g>
        <g>
            <g>
                <g transform="matrix(1,0,0,1,487.66668701171875,48.98957824707031)">
                    <path transform="matrix(0.017,0,0,-0.017,0,0)"
                          d="M345 437L329 437L350 549C366 635 394 673 440 673C470 673 497 658 512 634L522 638C527 654 537 685 545 705L550 720C534 727 503 733 480 733C469 733 453 730 445 726C421 715 339 654 316 630C294 608 282 578 271 521L256 442C215 422 195 414 170 405L165 383L246 383L237 327C207 132 170 -54 148 -123C130 -182 100 -213 64 -213C41 -213 30 -206 12 -184L-2 -188C-6 -211 -20 -259 -25 -268C-16 -273 -1 -276 10 -276C51 -276 105 -245 144 -198C215 -114 235 -18 319 383L423 383C427 402 434 425 440 439L436 446C407 439 408 437 345 437Z"
                          class="char"
                          stroke-opacity="1"
                          stroke-width="8"
                          fill-opacity="1" />
                </g>
            </g>
            <g>
                <g transform="matrix(1,0,0,1,497.02081298828125,49.65625)">
                    <path transform="matrix(0.017,0,0,-0.017,0,0)"
                          d="M146 266C146 526 243 632 301 700L282 726C225 675 60 542 60 266C60 159 85 58 133 -32C168 -99 200 -138 282 -215L301 -194C255 -137 146 -15 146 266Z"
                          class="char"
                          stroke-opacity="1"
                          stroke-width="8"
                          fill-opacity="1" />
                </g>
            </g>
            <g>
                <g transform="matrix(1,0,0,1,502.66668701171875,48.98957824707031)">
                    <path transform="matrix(0.017,0,0,-0.017,0,0)"
                          d="M9 1C24 -7 40 -11 52 -11C85 -11 124 18 155 65L231 182L242 113C255 28 278 -11 314 -11C336 -11 368 6 400 35L449 79L440 98C404 68 379 53 363 53C348 53 335 63 325 83C316 102 305 139 300 168L282 269L317 318C364 383 391 406 422 406C438 406 450 398 455 383L469 387L484 472C472 479 463 482 454 482C414 482 374 446 312 354L275 299L269 347C257 446 230 482 171 482C145 482 123 474 114 461L56 378L73 368C103 402 123 416 142 416C175 416 197 375 214 277L225 215L185 153C142 86 108 54 80 54C65 54 54 58 52 63L41 91L21 88C21 53 13 27 9 1Z"
                          class="char"
                          stroke-opacity="1"
                          stroke-width="8"
                          fill-opacity="1" />
                </g>
            </g>
            <g>
                <g transform="matrix(1,0,0,1,511.15625,49.65625)">
                    <path transform="matrix(0.017,0,0,-0.017,0,0)"
                          d="M51 726L32 700C87 636 187 526 187 266C187 -10 83 -131 32 -194L51 -215C104 -165 273 -23 273 265C273 542 108 675 51 726Z"
                          class="char"
                          stroke-opacity="1"
                          stroke-width="8"
                          fill-opacity="1" />
                </g>
            </g>
            <g>
                <g transform="matrix(1,0,0,1,521.8958129882812,48.98957824707031)">
                    <path transform="matrix(0.017,0,0,-0.017,0,0)"
                          d="M604 347L604 406L65 406L65 347ZM604 134L604 193L65 193L65 134Z"
                          class="char"
                          stroke-opacity="1"
                          stroke-width="8"
                          fill-opacity="1" />
                </g>
            </g>
            <g>
                <g>
                    <g>
                        <g>
                            <g transform="matrix(1,0,0,1,540.0520629882812,36.59375)">
                                <path transform="matrix(0.017,0,0,-0.017,0,0)"
                                      d="M328 111L304 94C251 56 203 36 167 36C120 36 91 73 91 133C91 158 94 185 99 214C116 218 225 248 250 259C335 296 374 342 374 404C374 451 340 482 290 482C222 496 112 423 75 349C45 299 15 180 15 113C15 35 59 -11 131 -11C188 -11 244 17 336 92ZM113 274C130 343 150 386 179 412C197 428 228 440 252 440C281 440 300 420 300 388C300 344 265 297 213 272C185 258 149 247 104 237Z"
                                      class="char"
                                      stroke-opacity="1"
                                      stroke-width="8"
                                      fill-opacity="1" />
                            </g>
                        </g>
                        <g>
                            <g>
                                <g>
                                    <g>
                                        <g transform="matrix(1,0,0,1,547.625,30.566671752929686)">
                                            <path transform="matrix(0.0119,0,0,-0.0119,0,0)"
                                                  d="M9 1C24 -7 40 -11 52 -11C85 -11 124 18 155 65L231 182L242 113C255 28 278 -11 314 -11C336 -11 368 6 400 35L449 79L440 98C404 68 379 53 363 53C348 53 335 63 325 83C316 102 305 139 300 168L282 269L317 318C364 383 391 406 422 406C438 406 450 398 455 383L469 387L484 472C472 479 463 482 454 482C414 482 374 446 312 354L275 299L269 347C257 446 230 482 171 482C145 482 123 474 114 461L56 378L73 368C103 402 123 416 142 416C175 416 197 375 214 277L225 215L185 153C142 86 108 54 80 54C65 54 54 58 52 63L41 91L21 88C21 53 13 27 9 1Z"
                                                  class="char"
                                                  stroke-opacity="1"
                                                  stroke-width="8"
                                                  fill-opacity="1" />
                                        </g>
                                    </g>
                                </g>
                            </g>
                        </g>
                    </g>
                </g>
                <g>
                    <g>
                        <g>
                            <g transform="matrix(1,0,0,1,543.0625,62.38542175292969)">
                                <path transform="matrix(0.017,0,0,-0.017,0,0)"
                                      d="M9 1C24 -7 40 -11 52 -11C85 -11 124 18 155 65L231 182L242 113C255 28 278 -11 314 -11C336 -11 368 6 400 35L449 79L440 98C404 68 379 53 363 53C348 53 335 63 325 83C316 102 305 139 300 168L282 269L317 318C364 383 391 406 422 406C438 406 450 398 455 383L469 387L484 472C472 479 463 482 454 482C414 482 374 446 312 354L275 299L269 347C257 446 230 482 171 482C145 482 123 474 114 461L56 378L73 368C103 402 123 416 142 416C175 416 197 375 214 277L225 215L185 153C142 86 108 54 80 54C65 54 54 58 52 63L41 91L21 88C21 53 13 27 9 1Z"
                                      class="char"
                                      stroke-opacity="1"
                                      stroke-width="8"
                                      fill-opacity="1" />
                            </g>
                        </g>
                    </g>
                </g>
                <line class="char" style="fill:none;stroke-width:0.666667px;"
                      x1="540.0520629882812"
                      y1="45.07291668653488"
                      x2="554.5728969573975"
                      y2="45.07291668653488" />
            </g>
        </g>
    </g>
    <g>
        <g>
            <g>
                <g transform="matrix(1,0,0,1,378.66668701171875,328.3000152587891)">
                    <path transform="matrix(0.015300000000000001,0,0,-0.015300000000000001,0,0)"
                          d="M418 -3L418 27L366 30C311 33 301 44 301 96L301 700L60 598L67 548L217 614L217 96C217 44 206 33 152 30L96 27L96 -3C250 0 250 0 261 0C292 0 402 -3 418 -3Z"
                          class="char"
                          stroke-opacity="1"
                          stroke-width="8"
                          fill-opacity="1" />
                </g>
            </g>
        </g>
    </g>
    <g>
        <g>
            <g>
                <g transform="matrix(1,0,0,1,323.66668701171875,188.30001525878907)">
                    <path transform="matrix(0.015300000000000001,0,0,-0.015300000000000001,0,0)"
                          d="M328 111L304 94C251 56 203 36 167 36C120 36 91 73 91 133C91 158 94 185 99 214C116 218 225 248 250 259C335 296 374 342 374 404C374 451 340 482 290 482C222 496 112 423 75 349C45 299 15 180 15 113C15 35 59 -11 131 -11C188 -11 244 17 336 92ZM113 274C130 343 150 386 179 412C197 428 228 440 252 440C281 440 300 420 300 388C300 344 265 297 213 272C185 258 149 247 104 237Z"
                          class="char"
                          stroke-opacity="1"
                          stroke-width="8"
                          fill-opacity="1" />
                </g>
            </g>
        </g>
    </g>
</svg>