<svg xmlns="http://www.w3.org/2000/svg"
     xmlns:xlink="http://www.w3.org/1999/xlink"
     x="0"
     y="0"
     width="661.3333740234375"
     height="477.66668701171875">
    <!-- 内联样式 -->
    <style type="text/css">
        .connection {
            stroke: rgb(20, 20, 20);
        }

        .connection-fill {
            fill: rgb(20, 20, 20);
        }

        .char {
            stroke: rgb(0, 0, 0);
            fill: rgb(0, 0, 0);
        }

        @media (prefers-color-scheme: dark) {
            .connection {
                stroke: rgb(200, 200, 200);
            }

            .connection-fill {
                fill: rgb(200, 200, 200);
            }

            .char {
                stroke: rgb(239, 239, 239);
                fill: rgb(239, 239, 239);
            }
        }
    </style>
    <g class="shapes-region"
       style="stroke: black; fill: none;">
        <g class="arrow-line">
            <path class="connection"
                  stroke-dasharray="6 6"
                  d="  M261.33,127.67 L261.33,150"
                  style="stroke-width: 1; fill: none; fill-opacity: 1;" />
        </g>
        <g class="arrow-line">
            <path class="connection"
                  stroke-dasharray="6 6"
                  d="  M184.33,127.67 L261.33,127.67"
                  style="stroke-width: 1; fill: none; fill-opacity: 1;" />
        </g>
        <g class="composite-shape"
           data-amt="diagram/shapes/plot"
           transform="matrix(1,0,0,1,20,10)">
            <g>
                <g />
                <g>
                    <g class="test-xti"
                       style="font-family: Asana-Math, Asana;">
                        <line x1="0"
                              y1="146.0957965605828"
                              x2="616"
                              y2="146.0957965605828"
                              fill="none"
                              class="connection"
                              stroke-opacity="1"
                              stroke-width="1" />
                        <line x1="10.03212777180397"
                              y1="142.0957965605828"
                              x2="10.03212777180397"
                              y2="150.0957965605828"
                              fill="none"
                              class="connection"
                              stroke-opacity="1"
                              stroke-width="1" />
                        <line x1="86.99733151540991"
                              y1="142.0957965605828"
                              x2="86.99733151540991"
                              y2="150.0957965605828"
                              fill="none"
                              class="connection"
                              stroke-opacity="1"
                              stroke-width="1" />
                        <line x1="240.9277390026218"
                              y1="142.0957965605828"
                              x2="240.9277390026218"
                              y2="150.0957965605828"
                              fill="none"
                              class="connection"
                              stroke-opacity="1"
                              stroke-width="1" />
                        <line x1="317.89294274622773"
                              y1="142.0957965605828"
                              x2="317.89294274622773"
                              y2="150.0957965605828"
                              fill="none"
                              class="connection"
                              stroke-opacity="1"
                              stroke-width="1" />
                        <line x1="394.8581464898337"
                              y1="142.0957965605828"
                              x2="394.8581464898337"
                              y2="150.0957965605828"
                              fill="none"
                              class="connection"
                              stroke-opacity="1"
                              stroke-width="1" />
                        <line x1="471.8233502334396"
                              y1="142.0957965605828"
                              x2="471.8233502334396"
                              y2="150.0957965605828"
                              fill="none"
                              class="connection"
                              stroke-opacity="1"
                              stroke-width="1" />
                        <line x1="548.7885539770456"
                              y1="142.0957965605828"
                              x2="548.7885539770456"
                              y2="150.0957965605828"
                              fill="none"
                              class="connection"
                              stroke-opacity="1"
                              stroke-width="1" />
                        <path d="M611,142.49579656058282 L619,146.0957965605828 L611,149.6957965605828 Z"
                              stroke="none"
                              stroke-width="1"
                              class="connection-fill"
                              fill-opacity="1" />
                    </g>
                    <g class="test-yti"
                       style="font-family: Asana-Math, Asana;">
                        <line x1="163.96253525901585"
                              y1="4"
                              x2="163.96253525901585"
                              y2="446"
                              fill="none"
                              class="connection"
                              stroke-opacity="1"
                              stroke-width="1" />
                        <line x1="159.96253525901585"
                              y1="376.9914077914006"
                              x2="167.96253525901585"
                              y2="376.9914077914006"
                              fill="none"
                              class="connection"
                              stroke-opacity="1"
                              stroke-width="1" />
                        <line x1="159.96253525901585"
                              y1="300.02620404779464"
                              x2="167.96253525901585"
                              y2="300.02620404779464"
                              fill="none"
                              class="connection"
                              stroke-opacity="1"
                              stroke-width="1" />
                        <line x1="159.96253525901585"
                              y1="223.06100030418875"
                              x2="167.96253525901585"
                              y2="223.06100030418875"
                              fill="none"
                              class="connection"
                              stroke-opacity="1"
                              stroke-width="1" />
                        <line x1="159.96253525901585"
                              y1="69.1305928169769"
                              x2="167.96253525901585"
                              y2="69.1305928169769"
                              fill="none"
                              class="connection"
                              stroke-opacity="1"
                              stroke-width="1" />
                        <path d="M160.36253525901586,9 L163.96253525901585,1 L167.56253525901585,9 Z"
                              stroke="none"
                              stroke-width="1"
                              class="connection-fill"
                              fill-opacity="1" />
                    </g>
                    <g class="test-plot-expression">
                        <defs>
                            <clipPath id="cp0vntujad2">
                                <rect x="1"
                                      y="1"
                                      width="618"
                                      height="444" />
                            </clipPath>
                        </defs>
                        <g clip-path="url(#cp0vntujad2)">
                            <path d=" M0.00,892.00 L0.56,892.00 L1.13,892.00 L1.69,892.00 L2.26,892.00 L2.82,892.00 L3.38,892.00 L3.95,892.00 L4.51,892.00 L5.08,892.00 L5.64,892.00 L6.21,892.00 L6.77,892.00 L7.33,892.00 L7.90,892.00 L8.46,892.00 L9.03,892.00 L9.59,892.00 L10.15,892.00 L10.72,892.00 L11.28,892.00 L11.85,892.00 L12.41,892.00 L12.98,892.00 L13.54,892.00 L14.10,892.00 L14.67,892.00 L15.23,892.00 L15.80,892.00 L16.36,892.00 L16.92,892.00 L17.49,892.00 L18.05,892.00 L18.62,892.00 L19.18,892.00 L19.75,892.00 L20.31,892.00 L20.87,892.00 L21.44,892.00 L22.00,892.00 L22.57,892.00 L23.13,892.00 L23.69,892.00 L24.26,892.00 L24.82,892.00 L25.39,892.00 L25.95,892.00 L26.52,892.00 L27.08,892.00 L27.64,892.00 L28.21,892.00 L28.77,892.00 L29.34,892.00 L29.90,892.00 L30.46,892.00 L31.03,892.00 L31.59,885.23 L32.16,876.70 L32.72,868.26 L33.28,859.90 L33.85,851.63 L34.41,843.44 L34.98,835.34 L35.54,827.31 L36.11,819.36 L36.67,811.50 L37.23,803.71 L37.80,796.00 L38.36,788.37 L38.93,780.82 L39.49,773.34 L40.05,765.94 L40.62,758.61 L41.18,751.35 L41.75,744.17 L42.31,737.06 L42.88,730.03 L43.44,723.06 L44.00,716.17 L44.57,709.34 L45.13,702.59 L45.70,695.90 L46.26,689.28 L46.82,682.73 L47.39,676.25 L47.95,669.83 L48.52,663.47 L49.08,657.19 L49.65,650.96 L50.21,644.80 L50.77,638.70 L51.34,632.67 L51.90,626.70 L52.47,620.78 L53.03,614.93 L53.59,609.14 L54.16,603.41 L54.72,597.74 L55.29,592.12 L55.85,586.57 L56.41,581.07 L56.98,575.63 L57.54,570.24 L58.11,564.91 L58.67,559.64 L59.24,554.42 L59.80,549.25 L60.36,544.14 L60.93,539.08 L61.49,534.08 L62.06,529.12 L62.62,524.22 L63.18,519.37 L63.75,514.57 L64.31,509.82 L64.88,505.12 L65.44,500.47 L66.01,495.87 L66.57,491.31 L67.13,486.81 L67.70,482.35 L68.26,477.93 L68.83,473.57 L69.39,469.25 L69.95,464.98 L70.52,460.75 L71.08,456.56 L71.65,452.42 L72.21,448.33 L72.78,444.28 L73.34,440.27 L73.90,436.30 L74.47,432.38 L75.03,428.50 L75.60,424.65 L76.16,420.85 L76.72,417.10 L77.29,413.38 L77.85,409.70 L78.42,406.06 L78.98,402.46 L79.55,398.90 L80.11,395.37 L80.67,391.89 L81.24,388.44 L81.80,385.03 L82.37,381.66 L82.93,378.32 L83.49,375.02 L84.06,371.75 L84.62,368.52 L85.19,365.33 L85.75,362.17 L86.31,359.04 L86.88,355.95 L87.44,352.90 L88.01,349.87 L88.57,346.88 L89.14,343.92 L89.70,341.00 L90.26,338.10 L90.83,335.24 L91.39,332.41 L91.96,329.62 L92.52,326.85 L93.08,324.11 L93.65,321.40 L94.21,318.73 L94.78,316.08 L95.34,313.46 L95.91,310.88 L96.47,308.32 L97.03,305.78 L97.60,303.28 L98.16,300.81 L98.73,298.36 L99.29,295.94 L99.85,293.55 L100.42,291.19 L100.98,288.85 L101.55,286.54 L102.11,284.25 L102.68,281.99 L103.24,279.76 L103.80,277.55 L104.37,275.36 L104.93,273.20 L105.50,271.07 L106.06,268.96 L106.62,266.87 L107.19,264.81 L107.75,262.77 L108.32,260.76 L108.88,258.77 L109.44,256.80 L110.01,254.85 L110.57,252.93 L111.14,251.03 L111.70,249.15 L112.27,247.29 L112.83,245.46 L113.39,243.65 L113.96,241.85 L114.52,240.08 L115.09,238.33 L115.65,236.60 L116.21,234.89 L116.78,233.20 L117.34,231.53 L117.91,229.88 L118.47,228.25 L119.04,226.64 L119.60,225.05 L120.16,223.47 L120.73,221.92 L121.29,220.38 L121.86,218.86 L122.42,217.36 L122.98,215.88 L123.55,214.42 L124.11,212.97 L124.68,211.55 L125.24,210.13 L125.81,208.74 L126.37,207.36 L126.93,206.00 L127.50,204.66 L128.06,203.33 L128.63,202.02 L129.19,200.73 L129.75,199.45 L130.32,198.19 L130.88,196.94 L131.45,195.71 L132.01,194.49 L132.58,193.29 L133.14,192.10 L133.70,190.93 L134.27,189.77 L134.83,188.63 L135.40,187.50 L135.96,186.39 L136.52,185.29 L137.09,184.20 L137.65,183.13 L138.22,182.07 L138.78,181.02 L139.34,179.99 L139.91,178.97 L140.47,177.97 L141.04,176.98 L141.60,176.00 L142.17,175.03 L142.73,174.07 L143.29,173.13 L143.86,172.20 L144.42,171.28 L144.99,170.38 L145.55,169.48 L146.11,168.60 L146.68,167.73 L147.24,166.87 L147.81,166.02 L148.37,165.19 L148.94,164.36 L149.50,163.55 L150.06,162.75 L150.63,161.95 L151.19,161.17 L151.76,160.40 L152.32,159.64 L152.88,158.89 L153.45,158.15 L154.01,157.42 L154.58,156.70 L155.14,155.99 L155.71,155.29 L156.27,154.60 L156.83,153.92 L157.40,153.25 L157.96,152.58 L158.53,151.93 L159.09,151.29 L159.65,150.65 L160.22,150.03 L160.78,149.41 L161.35,148.80 L161.91,148.20 L162.47,147.61 L163.04,147.03 L163.60,146.46 L164.17,145.89 L164.73,145.33 L165.30,144.79 L165.86,144.24 L166.42,143.71 L166.99,143.19 L167.55,142.67 L168.12,142.16 L168.68,141.66 L169.24,141.16 L169.81,140.68 L170.37,140.20 L170.94,139.73 L171.50,139.26 L172.07,138.80 L172.63,138.35 L173.19,137.91 L173.76,137.47 L174.32,137.04 L174.89,136.62 L175.45,136.20 L176.01,135.79 L176.58,135.39 L177.14,134.99 L177.71,134.60 L178.27,134.21 L178.84,133.84 L179.40,133.46 L179.96,133.10 L180.53,132.74 L181.09,132.38 L181.66,132.04 L182.22,131.69 L182.78,131.36 L183.35,131.03 L183.91,130.70 L184.48,130.38 L185.04,130.07 L185.61,129.76 L186.17,129.45 L186.73,129.16 L187.30,128.86 L187.86,128.58 L188.43,128.29 L188.99,128.02 L189.55,127.74 L190.12,127.48 L190.68,127.21 L191.25,126.96 L191.81,126.70 L192.37,126.45 L192.94,126.21 L193.50,125.97 L194.07,125.74 L194.63,125.51 L195.20,125.28 L195.76,125.06 L196.32,124.84 L196.89,124.63 L197.45,124.42 L198.02,124.22 L198.58,124.02 L199.14,123.82 L199.71,123.63 L200.27,123.44 L200.84,123.26 L201.40,123.08 L201.97,122.90 L202.53,122.73 L203.09,122.56 L203.66,122.40 L204.22,122.23 L204.79,122.08 L205.35,121.92 L205.91,121.77 L206.48,121.63 L207.04,121.48 L207.61,121.34 L208.17,121.20 L208.74,121.07 L209.30,120.94 L209.86,120.81 L210.43,120.69 L210.99,120.57 L211.56,120.45 L212.12,120.34 L212.68,120.23 L213.25,120.12 L213.81,120.01 L214.38,119.91 L214.94,119.81 L215.51,119.71 L216.07,119.62 L216.63,119.53 L217.20,119.44 L217.76,119.35 L218.33,119.27 L218.89,119.19 L219.45,119.11 L220.02,119.04 L220.58,118.96 L221.15,118.89 L221.71,118.83 L222.27,118.76 L222.84,118.70 L223.40,118.64 L223.97,118.58 L224.53,118.52 L225.10,118.47 L225.66,118.42 L226.22,118.37 L226.79,118.32 L227.35,118.28 L227.92,118.24 L228.48,118.19 L229.04,118.16 L229.61,118.12 L230.17,118.09 L230.74,118.05 L231.30,118.02 L231.87,117.99 L232.43,117.97 L232.99,117.94 L233.56,117.92 L234.12,117.90 L234.69,117.88 L235.25,117.86 L235.81,117.85 L236.38,117.83 L236.94,117.82 L237.51,117.81 L238.07,117.80 L238.64,117.79 L239.20,117.79 L239.76,117.79 L240.33,117.78 L240.89,117.78 L241.46,117.78 L242.02,117.78 L242.58,117.79 L243.15,117.79 L243.71,117.80 L244.28,117.81 L244.84,117.82 L245.40,117.83 L245.97,117.84 L246.53,117.85 L247.10,117.87 L247.66,117.88 L248.23,117.90 L248.79,117.92 L249.35,117.94 L249.92,117.96 L250.48,117.98 L251.05,118.01 L251.61,118.03 L252.17,118.06 L252.74,118.08 L253.30,118.11 L253.87,118.14 L254.43,118.17 L255.00,118.20 L255.56,118.23 L256.12,118.27 L256.69,118.30 L257.25,118.34 L257.82,118.37 L258.38,118.41 L258.94,118.45 L259.51,118.49 L260.07,118.53 L260.64,118.57 L261.20,118.61 L261.77,118.65 L262.33,118.69 L262.89,118.74 L263.46,118.78 L264.02,118.83 L264.59,118.87 L265.15,118.92 L265.71,118.97 L266.28,119.02 L266.84,119.07 L267.41,119.12 L267.97,119.17 L268.54,119.22 L269.10,119.27 L269.66,119.33 L270.23,119.38 L270.79,119.43 L271.36,119.49 L271.92,119.55 L272.48,119.60 L273.05,119.66 L273.61,119.72 L274.18,119.77 L274.74,119.83 L275.30,119.89 L275.87,119.95 L276.43,120.01 L277.00,120.07 L277.56,120.13 L278.13,120.19 L278.69,120.26 L279.25,120.32 L279.82,120.38 L280.38,120.45 L280.95,120.51 L281.51,120.57 L282.07,120.64 L282.64,120.70 L283.20,120.77 L283.77,120.83 L284.33,120.90 L284.90,120.97 L285.46,121.04 L286.02,121.10 L286.59,121.17 L287.15,121.24 L287.72,121.31 L288.28,121.38 L288.84,121.45 L289.41,121.51 L289.97,121.58 L290.54,121.65 L291.10,121.73 L291.67,121.80 L292.23,121.87 L292.79,121.94 L293.36,122.01 L293.92,122.08 L294.49,122.15 L295.05,122.22 L295.61,122.30 L296.18,122.37 L296.74,122.44 L297.31,122.52 L297.87,122.59 L298.43,122.66 L299.00,122.74 L299.56,122.81 L300.13,122.88 L300.69,122.96 L301.26,123.03 L301.82,123.11 L302.38,123.18 L302.95,123.26 L303.51,123.33 L304.08,123.40 L304.64,123.48 L305.20,123.55 L305.77,123.63 L306.33,123.71 L306.90,123.78 L307.46,123.86 L308.03,123.93 L308.59,124.01 L309.15,124.08 L309.72,124.16 L310.28,124.24 L310.85,124.31 L311.41,124.39 L311.97,124.46 L312.54,124.54 L313.10,124.62 L313.67,124.69 L314.23,124.77 L314.80,124.84 L315.36,124.92 L315.92,125.00 L316.49,125.07 L317.05,125.15 L317.62,125.23 L318.18,125.30 L318.74,125.38 L319.31,125.46 L319.87,125.53 L320.44,125.61 L321.00,125.68 L321.57,125.76 L322.13,125.84 L322.69,125.91 L323.26,125.99 L323.82,126.07 L324.39,126.14 L324.95,126.22 L325.51,126.29 L326.08,126.37 L326.64,126.45 L327.21,126.52 L327.77,126.60 L328.33,126.67 L328.90,126.75 L329.46,126.82 L330.03,126.90 L330.59,126.97 L331.16,127.05 L331.72,127.13 L332.28,127.20 L332.85,127.28 L333.41,127.35 L333.98,127.43 L334.54,127.50 L335.10,127.58 L335.67,127.65 L336.23,127.72 L336.80,127.80 L337.36,127.87 L337.93,127.95 L338.49,128.02 L339.05,128.10 L339.62,128.17 L340.18,128.24 L340.75,128.32 L341.31,128.39 L341.87,128.46 L342.44,128.54 L343.00,128.61 L343.57,128.68 L344.13,128.76 L344.70,128.83 L345.26,128.90 L345.82,128.97 L346.39,129.05 L346.95,129.12 L347.52,129.19 L348.08,129.26 L348.64,129.33 L349.21,129.41 L349.77,129.48 L350.34,129.55 L350.90,129.62 L351.46,129.69 L352.03,129.76 L352.59,129.83 L353.16,129.90 L353.72,129.97 L354.29,130.04 L354.85,130.11 L355.41,130.18 L355.98,130.25 L356.54,130.32 L357.11,130.39 L357.67,130.46 L358.23,130.53 L358.80,130.60 L359.36,130.67 L359.93,130.74 L360.49,130.80 L361.06,130.87 L361.62,130.94 L362.18,131.01 L362.75,131.08 L363.31,131.14 L363.88,131.21 L364.44,131.28 L365.00,131.34 L365.57,131.41 L366.13,131.48 L366.70,131.54 L367.26,131.61 L367.83,131.67 L368.39,131.74 L368.95,131.81 L369.52,131.87 L370.08,131.94 L370.65,132.00 L371.21,132.07 L371.77,132.13 L372.34,132.20 L372.90,132.26 L373.47,132.32 L374.03,132.39 L374.60,132.45 L375.16,132.51 L375.72,132.58 L376.29,132.64 L376.85,132.70 L377.42,132.77 L377.98,132.83 L378.54,132.89 L379.11,132.95 L379.67,133.01 L380.24,133.08 L380.80,133.14 L381.36,133.20 L381.93,133.26 L382.49,133.32 L383.06,133.38 L383.62,133.44 L384.19,133.50 L384.75,133.56 L385.31,133.62 L385.88,133.68 L386.44,133.74 L387.01,133.80 L387.57,133.86 L388.13,133.92 L388.70,133.97 L389.26,134.03 L389.83,134.09 L390.39,134.15 L390.96,134.21 L391.52,134.26 L392.08,134.32 L392.65,134.38 L393.21,134.44 L393.78,134.49 L394.34,134.55 L394.90,134.60 L395.47,134.66 L396.03,134.72 L396.60,134.77 L397.16,134.83 L397.73,134.88 L398.29,134.94 L398.85,134.99 L399.42,135.05 L399.98,135.10 L400.55,135.16 L401.11,135.21 L401.67,135.26 L402.24,135.32 L402.80,135.37 L403.37,135.42 L403.93,135.48 L404.49,135.53 L405.06,135.58 L405.62,135.63 L406.19,135.69 L406.75,135.74 L407.32,135.79 L407.88,135.84 L408.44,135.89 L409.01,135.94 L409.57,136.00 L410.14,136.05 L410.70,136.10 L411.26,136.15 L411.83,136.20 L412.39,136.25 L412.96,136.30 L413.52,136.35 L414.09,136.40 L414.65,136.44 L415.21,136.49 L415.78,136.54 L416.34,136.59 L416.91,136.64 L417.47,136.69 L418.03,136.74 L418.60,136.78 L419.16,136.83 L419.73,136.88 L420.29,136.93 L420.86,136.97 L421.42,137.02 L421.98,137.07 L422.55,137.11 L423.11,137.16 L423.68,137.20 L424.24,137.25 L424.80,137.30 L425.37,137.34 L425.93,137.39 L426.50,137.43 L427.06,137.48 L427.63,137.52 L428.19,137.56 L428.75,137.61 L429.32,137.65 L429.88,137.70 L430.45,137.74 L431.01,137.78 L431.57,137.83 L432.14,137.87 L432.70,137.91 L433.27,137.96 L433.83,138.00 L434.39,138.04 L434.96,138.08 L435.52,138.12 L436.09,138.17 L436.65,138.21 L437.22,138.25 L437.78,138.29 L438.34,138.33 L438.91,138.37 L439.47,138.41 L440.04,138.45 L440.60,138.49 L441.16,138.53 L441.73,138.57 L442.29,138.61 L442.86,138.65 L443.42,138.69 L443.99,138.73 L444.55,138.77 L445.11,138.81 L445.68,138.85 L446.24,138.89 L446.81,138.93 L447.37,138.96 L447.93,139.00 L448.50,139.04 L449.06,139.08 L449.63,139.11 L450.19,139.15 L450.76,139.19 L451.32,139.23 L451.88,139.26 L452.45,139.30 L453.01,139.34 L453.58,139.37 L454.14,139.41 L454.70,139.44 L455.27,139.48 L455.83,139.52 L456.40,139.55 L456.96,139.59 L457.53,139.62 L458.09,139.66 L458.65,139.69 L459.22,139.73 L459.78,139.76 L460.35,139.79 L460.91,139.83 L461.47,139.86 L462.04,139.90 L462.60,139.93 L463.17,139.96 L463.73,140.00 L464.29,140.03 L464.86,140.06 L465.42,140.10 L465.99,140.13 L466.55,140.16 L467.12,140.19 L467.68,140.23 L468.24,140.26 L468.81,140.29 L469.37,140.32 L469.94,140.35 L470.50,140.38 L471.06,140.42 L471.63,140.45 L472.19,140.48 L472.76,140.51 L473.32,140.54 L473.89,140.57 L474.45,140.60 L475.01,140.63 L475.58,140.66 L476.14,140.69 L476.71,140.72 L477.27,140.75 L477.83,140.78 L478.40,140.81 L478.96,140.84 L479.53,140.87 L480.09,140.90 L480.66,140.92 L481.22,140.95 L481.78,140.98 L482.35,141.01 L482.91,141.04 L483.48,141.07 L484.04,141.09 L484.60,141.12 L485.17,141.15 L485.73,141.18 L486.30,141.20 L486.86,141.23 L487.42,141.26 L487.99,141.29 L488.55,141.31 L489.12,141.34 L489.68,141.37 L490.25,141.39 L490.81,141.42 L491.37,141.44 L491.94,141.47 L492.50,141.50 L493.07,141.52 L493.63,141.55 L494.19,141.57 L494.76,141.60 L495.32,141.62 L495.89,141.65 L496.45,141.67 L497.02,141.70 L497.58,141.72 L498.14,141.75 L498.71,141.77 L499.27,141.80 L499.84,141.82 L500.40,141.84 L500.96,141.87 L501.53,141.89 L502.09,141.92 L502.66,141.94 L503.22,141.96 L503.79,141.99 L504.35,142.01 L504.91,142.03 L505.48,142.06 L506.04,142.08 L506.61,142.10 L507.17,142.12 L507.73,142.15 L508.30,142.17 L508.86,142.19 L509.43,142.21 L509.99,142.24 L510.56,142.26 L511.12,142.28 L511.68,142.30 L512.25,142.32 L512.81,142.34 L513.38,142.37 L513.94,142.39 L514.50,142.41 L515.07,142.43 L515.63,142.45 L516.20,142.47 L516.76,142.49 L517.32,142.51 L517.89,142.53 L518.45,142.55 L519.02,142.57 L519.58,142.59 L520.15,142.61 L520.71,142.63 L521.27,142.65 L521.84,142.67 L522.40,142.69 L522.97,142.71 L523.53,142.73 L524.09,142.75 L524.66,142.77 L525.22,142.79 L525.79,142.81 L526.35,142.83 L526.92,142.85 L527.48,142.87 L528.04,142.88 L528.61,142.90 L529.17,142.92 L529.74,142.94 L530.30,142.96 L530.86,142.98 L531.43,142.99 L531.99,143.01 L532.56,143.03 L533.12,143.05 L533.69,143.06 L534.25,143.08 L534.81,143.10 L535.38,143.12 L535.94,143.13 L536.51,143.15 L537.07,143.17 L537.63,143.19 L538.20,143.20 L538.76,143.22 L539.33,143.24 L539.89,143.25 L540.45,143.27 L541.02,143.29 L541.58,143.30 L542.15,143.32 L542.71,143.33 L543.28,143.35 L543.84,143.37 L544.40,143.38 L544.97,143.40 L545.53,143.41 L546.10,143.43 L546.66,143.44 L547.22,143.46 L547.79,143.48 L548.35,143.49 L548.92,143.51 L549.48,143.52 L550.05,143.54 L550.61,143.55 L551.17,143.57 L551.74,143.58 L552.30,143.60 L552.87,143.61 L553.43,143.63 L553.99,143.64 L554.56,143.65 L555.12,143.67 L555.69,143.68 L556.25,143.70 L556.82,143.71 L557.38,143.72 L557.94,143.74 L558.51,143.75 L559.07,143.77 L559.64,143.78 L560.20,143.79 L560.76,143.81 L561.33,143.82 L561.89,143.83 L562.46,143.85 L563.02,143.86 L563.59,143.87 L564.15,143.89 L564.71,143.90 L565.28,143.91 L565.84,143.93 L566.41,143.94 L566.97,143.95 L567.53,143.96 L568.10,143.98 L568.66,143.99 L569.23,144.00 L569.79,144.01 L570.35,144.03 L570.92,144.04 L571.48,144.05 L572.05,144.06 L572.61,144.08 L573.18,144.09 L573.74,144.10 L574.30,144.11 L574.87,144.12 L575.43,144.13 L576.00,144.15 L576.56,144.16 L577.12,144.17 L577.69,144.18 L578.25,144.19 L578.82,144.20 L579.38,144.21 L579.95,144.23 L580.51,144.24 L581.07,144.25 L581.64,144.26 L582.20,144.27 L582.77,144.28 L583.33,144.29 L583.89,144.30 L584.46,144.31 L585.02,144.32 L585.59,144.33 L586.15,144.35 L586.72,144.36 L587.28,144.37 L587.84,144.38 L588.41,144.39 L588.97,144.40 L589.54,144.41 L590.10,144.42 L590.66,144.43 L591.23,144.44 L591.79,144.45 L592.36,144.46 L592.92,144.47 L593.48,144.48 L594.05,144.49 L594.61,144.50 L595.18,144.51 L595.74,144.52 L596.31,144.52 L596.87,144.53 L597.43,144.54 L598.00,144.55 L598.56,144.56 L599.13,144.57 L599.69,144.58 L600.25,144.59 L600.82,144.60 L601.38,144.61 L601.95,144.62 L602.51,144.63 L603.08,144.63 L603.64,144.64 L604.20,144.65 L604.77,144.66 L605.33,144.67 L605.90,144.68 L606.46,144.69 L607.02,144.69 L607.59,144.70 L608.15,144.71 L608.72,144.72 L609.28,144.73 L609.85,144.74 L610.41,144.75 L610.97,144.75 L611.54,144.76 L612.10,144.77 L612.67,144.78 L613.23,144.79 L613.79,144.79 L614.36,144.80 L614.92,144.81 L615.49,144.82 L616.05,144.82 L616.62,144.83 L617.18,144.84 L617.74,144.85 L618.31,144.86 L618.87,144.86 L619.44,144.87 L620.00,144.88"
                                  style="stroke-width: 2; stroke: rgb(74, 144, 226); stroke-opacity: 0.8;" />
                            <g>
                                <circle cx="240.9277390026218"
                                        cy="117.78188041773888"
                                        r="1.5"
                                        style="stroke-width: 3; stroke: rgb(60, 180, 75); stroke-opacity: 0.8; fill: rgb(60, 180, 75); fill-opacity: 0.15;" />
                            </g>
                        </g>
                    </g>
                    <g class="test-xtl"
                       style="font-family: &quot;Open Sans&quot;, verdana, arial, sans-serif;" />
                    <g class="test-ytl"
                       style="font-family: &quot;Open Sans&quot;, verdana, arial, sans-serif;" />
                    <rect class="real"
                          x="1"
                          y="1"
                          width="618"
                          height="444"
                          style="fill: transparent; stroke: none;" />
                </g>
            </g>
        </g>
        <g />
    </g>
    <g />
    <g />
    <g />
    <g>
        <g>
            <g>
                <g transform="matrix(1,0,0,1,556.6666870117188,43.39582824707031)">
                    <path transform="matrix(0.017,0,0,-0.017,0,0)"
                          d="M345 437L329 437L350 549C366 635 394 673 440 673C470 673 497 658 512 634L522 638C527 654 537 685 545 705L550 720C534 727 503 733 480 733C469 733 453 730 445 726C421 715 339 654 316 630C294 608 282 578 271 521L256 442C215 422 195 414 170 405L165 383L246 383L237 327C207 132 170 -54 148 -123C130 -182 100 -213 64 -213C41 -213 30 -206 12 -184L-2 -188C-6 -211 -20 -259 -25 -268C-16 -273 -1 -276 10 -276C51 -276 105 -245 144 -198C215 -114 235 -18 319 383L423 383C427 402 434 425 440 439L436 446C407 439 408 437 345 437Z"
                          class="char"
                          stroke-opacity="1"
                          stroke-width="8"
                          fill-opacity="1" />
                </g>
            </g>
            <g>
                <g transform="matrix(1,0,0,1,566.0208129882812,44.0625)">
                    <path transform="matrix(0.017,0,0,-0.017,0,0)"
                          d="M146 266C146 526 243 632 301 700L282 726C225 675 60 542 60 266C60 159 85 58 133 -32C168 -99 200 -138 282 -215L301 -194C255 -137 146 -15 146 266Z"
                          class="char"
                          stroke-opacity="1"
                          stroke-width="8"
                          fill-opacity="1" />
                </g>
            </g>
            <g>
                <g transform="matrix(1,0,0,1,571.6666870117188,43.39582824707031)">
                    <path transform="matrix(0.017,0,0,-0.017,0,0)"
                          d="M9 1C24 -7 40 -11 52 -11C85 -11 124 18 155 65L231 182L242 113C255 28 278 -11 314 -11C336 -11 368 6 400 35L449 79L440 98C404 68 379 53 363 53C348 53 335 63 325 83C316 102 305 139 300 168L282 269L317 318C364 383 391 406 422 406C438 406 450 398 455 383L469 387L484 472C472 479 463 482 454 482C414 482 374 446 312 354L275 299L269 347C257 446 230 482 171 482C145 482 123 474 114 461L56 378L73 368C103 402 123 416 142 416C175 416 197 375 214 277L225 215L185 153C142 86 108 54 80 54C65 54 54 58 52 63L41 91L21 88C21 53 13 27 9 1Z"
                          class="char"
                          stroke-opacity="1"
                          stroke-width="8"
                          fill-opacity="1" />
                </g>
            </g>
            <g>
                <g transform="matrix(1,0,0,1,580.15625,44.0625)">
                    <path transform="matrix(0.017,0,0,-0.017,0,0)"
                          d="M51 726L32 700C87 636 187 526 187 266C187 -10 83 -131 32 -194L51 -215C104 -165 273 -23 273 265C273 542 108 675 51 726Z"
                          class="char"
                          stroke-opacity="1"
                          stroke-width="8"
                          fill-opacity="1" />
                </g>
            </g>
            <g>
                <g transform="matrix(1,0,0,1,590.8958129882812,43.39582824707031)">
                    <path transform="matrix(0.017,0,0,-0.017,0,0)"
                          d="M604 347L604 406L65 406L65 347ZM604 134L604 193L65 193L65 134Z"
                          class="char"
                          stroke-opacity="1"
                          stroke-width="8"
                          fill-opacity="1" />
                </g>
            </g>
            <g>
                <g>
                    <g>
                        <g>
                            <g transform="matrix(1,0,0,1,612.0625610351562,31)">
                                <path transform="matrix(0.017,0,0,-0.017,0,0)"
                                      d="M9 1C24 -7 40 -11 52 -11C85 -11 124 18 155 65L231 182L242 113C255 28 278 -11 314 -11C336 -11 368 6 400 35L449 79L440 98C404 68 379 53 363 53C348 53 335 63 325 83C316 102 305 139 300 168L282 269L317 318C364 383 391 406 422 406C438 406 450 398 455 383L469 387L484 472C472 479 463 482 454 482C414 482 374 446 312 354L275 299L269 347C257 446 230 482 171 482C145 482 123 474 114 461L56 378L73 368C103 402 123 416 142 416C175 416 197 375 214 277L225 215L185 153C142 86 108 54 80 54C65 54 54 58 52 63L41 91L21 88C21 53 13 27 9 1Z"
                                      class="char"
                                      stroke-opacity="1"
                                      stroke-width="8"
                                      fill-opacity="1" />
                            </g>
                        </g>
                    </g>
                </g>
                <g>
                    <g>
                        <g>
                            <g transform="matrix(1,0,0,1,609.0520629882812,58.38542175292969)">
                                <path transform="matrix(0.017,0,0,-0.017,0,0)"
                                      d="M328 111L304 94C251 56 203 36 167 36C120 36 91 73 91 133C91 158 94 185 99 214C116 218 225 248 250 259C335 296 374 342 374 404C374 451 340 482 290 482C222 496 112 423 75 349C45 299 15 180 15 113C15 35 59 -11 131 -11C188 -11 244 17 336 92ZM113 274C130 343 150 386 179 412C197 428 228 440 252 440C281 440 300 420 300 388C300 344 265 297 213 272C185 258 149 247 104 237Z"
                                      class="char"
                                      stroke-opacity="1"
                                      stroke-width="8"
                                      fill-opacity="1" />
                            </g>
                        </g>
                        <g>
                            <g>
                                <g>
                                    <g>
                                        <g transform="matrix(1,0,0,1,616.6250610351562,52.35832824707031)">
                                            <path transform="matrix(0.0119,0,0,-0.0119,0,0)"
                                                  d="M9 1C24 -7 40 -11 52 -11C85 -11 124 18 155 65L231 182L242 113C255 28 278 -11 314 -11C336 -11 368 6 400 35L449 79L440 98C404 68 379 53 363 53C348 53 335 63 325 83C316 102 305 139 300 168L282 269L317 318C364 383 391 406 422 406C438 406 450 398 455 383L469 387L484 472C472 479 463 482 454 482C414 482 374 446 312 354L275 299L269 347C257 446 230 482 171 482C145 482 123 474 114 461L56 378L73 368C103 402 123 416 142 416C175 416 197 375 214 277L225 215L185 153C142 86 108 54 80 54C65 54 54 58 52 63L41 91L21 88C21 53 13 27 9 1Z"
                                                  class="char"
                                                  stroke-opacity="1"
                                                  stroke-width="8"
                                                  fill-opacity="1" />
                                        </g>
                                    </g>
                                </g>
                            </g>
                        </g>
                    </g>
                </g>
                <line class="char" style="fill:none;stroke-width:0.666667px;"
                      x1="609.0520629882812"
                      y1="39.47916668653488"
                      x2="623.5728969573975"
                      y2="39.47916668653488" />
            </g>
        </g>
    </g>
    <g>
        <g>
            <g>
                <g transform="matrix(1,0,0,1,257.66668701171875,178.30001525878907)">
                    <path transform="matrix(0.015300000000000001,0,0,-0.015300000000000001,0,0)"
                          d="M418 -3L418 27L366 30C311 33 301 44 301 96L301 700L60 598L67 548L217 614L217 96C217 44 206 33 152 30L96 27L96 -3C250 0 250 0 261 0C292 0 402 -3 418 -3Z"
                          class="char"
                          stroke-opacity="1"
                          stroke-width="8"
                          fill-opacity="1" />
                </g>
            </g>
        </g>
    </g>
    <g>
        <g>
            <g>
                <g>
                    <g>
                        <g>
                            <g transform="matrix(1,0,0,1,168.1875,121.3)">
                                <path transform="matrix(0.015300000000000001,0,0,-0.015300000000000001,0,0)"
                                      d="M418 -3L418 27L366 30C311 33 301 44 301 96L301 700L60 598L67 548L217 614L217 96C217 44 206 33 152 30L96 27L96 -3C250 0 250 0 261 0C292 0 402 -3 418 -3Z"
                                      class="char"
                                      stroke-opacity="1"
                                      stroke-width="8"
                                      fill-opacity="1" />
                            </g>
                        </g>
                    </g>
                </g>
                <g>
                    <g>
                        <g>
                            <g transform="matrix(1,0,0,1,169.03125,144.00832824707032)">
                                <path transform="matrix(0.015300000000000001,0,0,-0.015300000000000001,0,0)"
                                      d="M328 111L304 94C251 56 203 36 167 36C120 36 91 73 91 133C91 158 94 185 99 214C116 218 225 248 250 259C335 296 374 342 374 404C374 451 340 482 290 482C222 496 112 423 75 349C45 299 15 180 15 113C15 35 59 -11 131 -11C188 -11 244 17 336 92ZM113 274C130 343 150 386 179 412C197 428 228 440 252 440C281 440 300 420 300 388C300 344 265 297 213 272C185 258 149 247 104 237Z"
                                      class="char"
                                      stroke-opacity="1"
                                      stroke-width="8"
                                      fill-opacity="1" />
                            </g>
                        </g>
                    </g>
                </g>
                <line class="char" style="fill:none;stroke-width:0.666667px;"
                      x1="168.1875"
                      y1="127.86458843946457"
                      x2="175.8229169845581"
                      y2="127.86458843946457" />
            </g>
        </g>
    </g>
</svg>