<svg xmlns="http://www.w3.org/2000/svg"
     xmlns:xlink="http://www.w3.org/1999/xlink"
     x="0"
     y="0"
     width="401.3333740234375"
     height="225.33334350585938">
    <!-- 内联样式 -->
    <style type="text/css">
        .connection {
            stroke: rgb(20, 20, 20);
        }

        .connection-fill {
            fill: rgb(20, 20, 20);
        }

        .char {
            stroke: rgb(0, 0, 0);
            fill: rgb(0, 0, 0);
        }

        @media (prefers-color-scheme: dark) {
            .connection {
                stroke: rgb(200, 200, 200);
            }

            .connection-fill {
                fill: rgb(200, 200, 200);
            }

            .char {
                stroke: rgb(239, 239, 239);
                fill: rgb(239, 239, 239);
            }
        }
    </style>
    <g class="shapes-region"
       style="stroke: black; fill: none;">
        <g class="composite-shape">
            <path class="real"
                  d=" M145.49,103.15 C147.91,106.55 149.33,110.69 149.33,115.17 C149.33,115.17 149.33,115.17 149.33,115.17 L128.33,115.17 Z"
                  style="stroke-width: 1; stroke: none; fill: rgb(74, 144, 226); fill-opacity: 0.5;" />
            <path class="connection"
                  d=" M145.49,103.15 C147.91,106.55 149.33,110.69 149.33,115.17 C149.33,115.17 149.33,115.17 149.33,115.17"
                  style="stroke-width: 1; fill: none; fill-opacity: 0.5;" />
        </g>
        <g class="composite-shape">
            <path class="real"
                  d=" M250.33,115.33 C250.33,107.73 254.44,101.07 260.58,97.44 L271.33,115.33 Z"
                  style="stroke-width: 1; stroke: none; fill: rgb(74, 144, 226); fill-opacity: 0.5;" />
            <path class="connection"
                  d=" M250.33,115.33 C250.33,107.73 254.44,101.07 260.58,97.44"
                  style="stroke-width: 1; fill: none; fill-opacity: 0.5;" />
        </g>
        <g class="composite-shape">
            <path class="real"
                  d=" M239.09,64.23 C235.94,66.1 232.26,67.17 228.33,67.17 C221.38,67.17 215.21,63.81 211.39,58.64 L228.33,46.33 Z"
                  style="stroke-width: 1; stroke: none; fill: rgb(74, 144, 226); fill-opacity: 0.5;" />
            <path class="connection"
                  d=" M239.09,64.23 C235.94,66.1 232.26,67.17 228.33,67.17 C221.38,67.17 215.21,63.81 211.39,58.64"
                  style="stroke-width: 1; fill: none; fill-opacity: 0.5;" />
        </g>
        <g class="arrow-line">
            <path class="connection"
                  stroke-dasharray=""
                  d="  M128.33,115.33 L228.33,46.33"
                  style="stroke-width: 1; fill: none; fill-opacity: 1;" />
        </g>
        <g class="arrow-line">
            <path class="connection"
                  stroke-dasharray=""
                  d="  M271.33,115.33 L228.33,46.33"
                  style="stroke-width: 1; fill: none; fill-opacity: 1;" />
        </g>
        <g class="composite-shape"
           data-amt="diagram/shapes/plot"
           transform="matrix(1,0,0,1,20,10)">
            <g>
                <g />
                <g>
                    <g class="test-xti"
                       style="font-family: Asana-Math, Asana;">
                        <line x1="0"
                              y1="105.25186422773223"
                              x2="356.33331298828125"
                              y2="105.25186422773223"
                              fill="none"
                              class="connection"
                              stroke-opacity="1"
                              stroke-width="1" />
                        <path d="M351.33331298828125,101.65186422773223 L359.33331298828125,105.25186422773223 L351.33331298828125,108.85186422773222 Z"
                              stroke="none"
                              stroke-width="1"
                              class="connection-fill"
                              fill-opacity="1" />
                    </g>
                    <g class="test-yti"
                       style="font-family: Asana-Math, Asana;">
                        <line x1="179.90948309484003"
                              y1="4"
                              x2="179.90948309484003"
                              y2="200"
                              fill="none"
                              class="connection"
                              stroke-opacity="1"
                              stroke-width="1" />
                        <path d="M176.30948309484003,9 L179.90948309484003,1 L183.50948309484002,9 Z"
                              stroke="none"
                              stroke-width="1"
                              class="connection-fill"
                              fill-opacity="1" />
                    </g>
                    <g class="test-plot-expression">
                        <defs>
                            <clipPath id="cpcpvq2xyme">
                                <rect x="1"
                                      y="1"
                                      width="358.33331298828125"
                                      height="198" />
                            </clipPath>
                        </defs>
                        <g clip-path="url(#cpcpvq2xyme)">
                            <path d=" M79.27,114.63 L79.16,114.00 L79.00,113.00 L78.85,112.00 L78.73,111.00 L78.62,110.00 L78.54,109.00 L78.48,108.00 L78.43,107.00 L78.41,106.00 L78.40,105.00 L78.42,104.00 L78.45,103.00 L78.51,102.00 L78.58,101.00 L78.67,100.00 L78.79,99.00 L78.92,98.00 L79.07,97.00 L79.25,96.00 L79.27,95.87 L79.44,95.00 L79.66,94.00 L79.89,93.00 L80.15,92.00 L80.42,91.00 L80.47,90.82 L80.72,90.00 L81.04,89.00 L81.38,88.00 L81.68,87.17 L81.74,87.00 L82.12,86.00 L82.53,85.00 L82.88,84.18 L82.95,84.00 L83.40,83.00 L83.88,82.00 L84.08,81.59 L84.37,81.00 L84.89,80.00 L85.28,79.28 L85.43,79.00 L86.00,78.00 L86.48,77.19 L86.60,77.00 L87.21,76.00 L87.68,75.27 L87.86,75.00 L88.53,74.00 L88.88,73.49 L89.23,73.00 L89.95,72.00 L90.08,71.82 L90.71,71.00 L91.28,70.26 L91.49,70.00 L92.30,69.00 L92.49,68.78 L93.14,68.00 L93.69,67.38 L94.02,67.00 L94.89,66.04 L94.92,66.00 L95.87,65.00 L96.09,64.77 L96.84,64.00 L97.29,63.55 L97.85,63.00 L98.49,62.39 L98.90,62.00 L99.69,61.27 L99.99,61.00 L100.89,60.20 L101.12,60.00 L102.09,59.16 L102.29,59.00 L103.30,58.17 L103.50,58.00 L104.50,57.21 L104.76,57.00 L105.70,56.28 L106.07,56.00 L106.90,55.39 L107.43,55.00 L108.10,54.52 L108.84,54.00 L109.30,53.69 L110.32,53.00 L110.50,52.88 L111.70,52.09 L111.85,52.00 L112.90,51.34 L113.45,51.00 L114.11,50.60 L115.12,50.00 L115.31,49.89 L116.51,49.20 L116.86,49.00 L117.71,48.53 L118.69,48.00 L118.91,47.88 L120.11,47.25 L120.60,47.00 L121.31,46.64 L122.51,46.05 L122.62,46.00 L123.71,45.48 L124.74,45.00 L124.92,44.92 L126.12,44.38 L126.99,44.00 L127.32,43.86 L128.52,43.35 L129.38,43.00 L129.72,42.86 L130.92,42.39 L131.93,42.00 L132.12,41.93 L133.32,41.48 L134.52,41.05 L134.66,41.00 L135.73,40.63 L136.93,40.23 L137.62,40.00 L138.13,39.84 L139.33,39.46 L140.53,39.10 L140.86,39.00 L141.73,38.75 L142.93,38.41 L144.13,38.08 L144.44,38.00 L145.33,37.77 L146.54,37.47 L147.74,37.18 L148.49,37.00 L148.94,36.90 L150.14,36.63 L151.34,36.38 L152.54,36.13 L153.23,36.00 L153.74,35.90 L154.94,35.68 L156.14,35.47 L157.35,35.27 L158.55,35.08 L159.10,35.00 L159.75,34.90 L160.95,34.74 L162.15,34.58 L163.35,34.44 L164.55,34.30 L165.75,34.18 L166.95,34.06 L167.66,34.00 L168.16,33.96 L169.36,33.86 L170.56,33.78 L171.76,33.71 L172.96,33.64 L174.16,33.59 L175.36,33.55 L176.56,33.52 L177.76,33.49 L178.97,33.48 L180.17,33.48 L181.37,33.48 L182.57,33.50 L183.77,33.53 L184.97,33.57 L186.17,33.61 L187.37,33.67 L188.57,33.74 L189.78,33.82 L190.98,33.90 L192.17,34.00 L192.18,34.00 L193.38,34.11 L194.58,34.23 L195.78,34.36 L196.98,34.50 L198.18,34.65 L199.38,34.81 L200.59,34.98 L200.72,35.00 L201.79,35.16 L202.99,35.36 L204.19,35.56 L205.39,35.77 L206.59,36.00 L206.60,36.00 L207.79,36.24 L208.99,36.49 L210.19,36.74 L211.33,37.00 L211.40,37.01 L212.60,37.30 L213.80,37.59 L215.00,37.90 L215.38,38.00 L216.20,38.22 L217.40,38.55 L218.60,38.89 L218.96,39.00 L219.80,39.25 L221.00,39.62 L222.20,40.00 L222.21,40.00 L223.41,40.40 L224.61,40.81 L225.15,41.00 L225.81,41.23 L227.01,41.67 L227.89,42.00 L228.21,42.12 L229.41,42.59 L230.44,43.00 L230.61,43.07 L231.81,43.57 L232.83,44.00 L233.02,44.08 L234.22,44.61 L235.07,45.00 L235.42,45.16 L236.62,45.72 L237.20,46.00 L237.82,46.30 L239.02,46.90 L239.22,47.00 L240.22,47.52 L241.13,48.00 L241.42,48.16 L242.62,48.81 L242.96,49.00 L243.83,49.49 L244.70,50.00 L245.03,50.19 L246.23,50.91 L246.37,51.00 L247.43,51.66 L247.97,52.00 L248.63,52.43 L249.50,53.00 L249.83,53.22 L250.98,54.00 L251.03,54.04 L252.23,54.89 L252.39,55.00 L253.43,55.77 L253.75,56.00 L254.64,56.67 L255.06,57.00 L255.84,57.61 L256.32,58.00 L257.04,58.59 L257.53,59.00 L258.24,59.60 L258.70,60.00 L259.44,60.65 L259.83,61.00 L260.64,61.74 L260.92,62.00 L261.84,62.88 L261.97,63.00 L262.98,64.00 L263.04,64.07 L263.95,65.00 L264.24,65.31 L264.89,66.00 L265.45,66.61 L265.80,67.00 L266.65,67.96 L266.68,68.00 L267.52,69.00 L267.85,69.40 L268.33,70.00 L269.05,70.91 L269.11,71.00 L269.87,72.00 L270.25,72.52 L270.59,73.00 L271.29,74.00 L271.45,74.24 L271.96,75.00 L272.61,76.00 L272.65,76.07 L273.22,77.00 L273.82,78.00 L273.85,78.06 L274.38,79.00 L274.93,80.00 L275.05,80.24 L275.45,81.00 L275.94,82.00 L276.26,82.66 L276.42,83.00 L276.87,84.00 L277.29,85.00 L277.46,85.40 L277.70,86.00 L278.08,87.00 L278.44,88.00 L278.66,88.63 L278.78,89.00 L279.10,90.00 L279.40,91.00 L279.67,92.00 L279.86,92.73 L279.93,93.00 L280.16,94.00 L280.38,95.00 L280.57,96.00 L280.74,97.00 L280.90,98.00 L281.03,99.00 L281.06,99.24 L281.15,100.00 L281.24,101.00 L281.31,102.00 L281.37,103.00 L281.40,104.00 L281.42,105.00 L281.41,106.00 L281.39,107.00 L281.34,108.00 L281.28,109.00 L281.20,110.00 L281.09,111.00 L281.06,111.26 L280.97,112.00 L280.82,113.00 L280.66,114.00 L280.48,115.00 L280.27,116.00 L280.05,117.00 L279.86,117.78 L279.80,118.00 L279.54,119.00 L279.25,120.00 L278.94,121.00 L278.66,121.87 L278.62,122.00 L278.26,123.00 L277.89,124.00 L277.50,125.00 L277.46,125.11 L277.08,126.00 L276.65,127.00 L276.26,127.85 L276.19,128.00 L275.70,129.00 L275.19,130.00 L275.05,130.26 L274.66,131.00 L274.11,132.00 L273.85,132.44 L273.52,133.00 L272.92,134.00 L272.65,134.43 L272.29,135.00 L271.63,136.00 L271.45,136.27 L270.95,137.00 L270.25,137.98 L270.24,138.00 L269.50,139.00 L269.05,139.59 L268.73,140.00 L267.93,141.00 L267.85,141.10 L267.10,142.00 L266.65,142.54 L266.25,143.00 L265.45,143.90 L265.36,144.00 L264.43,145.00 L264.24,145.20 L263.47,146.00 L263.04,146.44 L262.48,147.00 L261.84,147.62 L261.45,148.00 L260.64,148.76 L260.38,149.00 L259.44,149.85 L259.28,150.00 L258.24,150.90 L258.13,151.00 L257.04,151.92 L256.94,152.00 L255.84,152.89 L255.70,153.00 L254.64,153.83 L254.41,154.00 L253.43,154.74 L253.08,155.00 L252.23,155.61 L251.69,156.00 L251.03,156.46 L250.25,157.00 L249.83,157.28 L248.75,158.00 L248.63,158.08 L247.43,158.85 L247.19,159.00 L246.23,159.59 L245.55,160.00 L245.03,160.31 L243.85,161.00 L243.83,161.01 L242.62,161.69 L242.06,162.00 L241.42,162.35 L240.22,162.99 L240.19,163.00 L239.02,163.60 L238.23,164.00 L237.82,164.20 L236.62,164.78 L236.16,165.00 L235.42,165.35 L234.22,165.89 L233.98,166.00 L233.02,166.42 L231.81,166.94 L231.66,167.00 L230.61,167.43 L229.41,167.92 L229.20,168.00 L228.21,168.38 L227.01,168.83 L226.56,169.00 L225.81,169.27 L224.61,169.69 L223.72,170.00 L223.41,170.10 L222.21,170.50 L221.00,170.88 L220.63,171.00 L219.80,171.25 L218.60,171.61 L217.40,171.95 L217.24,172.00 L216.20,172.28 L215.00,172.60 L213.80,172.91 L213.44,173.00 L212.60,173.21 L211.40,173.49 L210.19,173.76 L209.09,174.00 L208.99,174.02 L207.79,174.27 L206.59,174.50 L205.39,174.73 L204.19,174.95 L203.87,175.00 L202.99,175.15 L201.79,175.34 L200.59,175.52 L199.38,175.69 L198.18,175.86 L197.04,176.00 L196.98,176.01 L195.78,176.15 L194.58,176.27 L193.38,176.39 L192.18,176.50 L190.98,176.60 L189.78,176.69 L188.57,176.77 L187.37,176.83 L186.17,176.89 L184.97,176.94 L183.77,176.98 L182.78,177.00 L182.57,177.00 L181.37,177.02 L180.17,177.03 L178.97,177.03 L177.76,177.01 L177.06,177.00 L176.56,176.99 L175.36,176.96 L174.16,176.91 L172.96,176.86 L171.76,176.80 L170.56,176.72 L169.36,176.64 L168.16,176.54 L166.95,176.44 L165.75,176.33 L164.55,176.20 L163.35,176.07 L162.79,176.00 L162.15,175.92 L160.95,175.76 L159.75,175.60 L158.55,175.42 L157.35,175.23 L156.14,175.03 L155.95,175.00 L154.94,174.82 L153.74,174.60 L152.54,174.37 L151.34,174.13 L150.74,174.00 L150.14,173.87 L148.94,173.61 L147.74,173.33 L146.54,173.04 L146.38,173.00 L145.33,172.74 L144.13,172.42 L142.93,172.10 L142.59,172.00 L141.73,171.76 L140.53,171.41 L139.33,171.04 L139.19,171.00 L138.13,170.67 L136.93,170.28 L136.10,170.00 L135.73,169.87 L134.52,169.45 L133.32,169.02 L133.26,169.00 L132.12,168.58 L130.92,168.12 L130.62,168.00 L129.72,167.64 L128.52,167.15 L128.16,167.00 L127.32,166.64 L126.12,166.12 L125.84,166.00 L124.92,165.58 L123.71,165.03 L123.66,165.00 L122.51,164.45 L121.59,164.00 L121.31,163.86 L120.11,163.25 L119.63,163.00 L118.91,162.62 L117.75,162.00 L117.71,161.98 L116.51,161.30 L115.97,161.00 L115.31,160.61 L114.27,160.00 L114.11,159.90 L112.90,159.17 L112.63,159.00 L111.70,158.41 L111.07,158.00 L110.50,157.63 L109.57,157.00 L109.30,156.82 L108.12,156.00 L108.10,155.98 L106.90,155.12 L106.74,155.00 L105.70,154.22 L105.40,154.00 L104.50,153.30 L104.12,153.00 L103.30,152.34 L102.88,152.00 L102.09,151.34 L101.69,151.00 L100.89,150.31 L100.54,150.00 L99.69,149.23 L99.44,149.00 L98.49,148.12 L98.37,148.00 L97.34,147.00 L97.29,146.95 L96.35,146.00 L96.09,145.73 L95.39,145.00 L94.89,144.46 L94.46,144.00 L93.69,143.13 L93.57,143.00 L92.71,142.00 L92.49,141.73 L91.89,141.00 L91.28,140.25 L91.09,140.00 L90.32,139.00 L90.08,138.68 L89.58,138.00 L88.88,137.02 L88.87,137.00 L88.19,136.00 L87.68,135.23 L87.53,135.00 L86.90,134.00 L86.48,133.31 L86.29,133.00 L85.71,132.00 L85.28,131.22 L85.16,131.00 L84.63,130.00 L84.12,129.00 L84.08,128.92 L83.64,128.00 L83.17,127.00 L82.88,126.33 L82.73,126.00 L82.32,125.00 L81.93,124.00 L81.68,123.33 L81.55,123.00 L81.20,122.00 L80.88,121.00 L80.57,120.00 L80.47,119.68 L80.28,119.00 L80.02,118.00 L79.77,117.00 L79.55,116.00 L79.34,115.00 L79.27,114.63"
                                  style="stroke-width: 2; stroke: rgb(68, 128, 194); stroke-opacity: 1;" />
                            <g>
                                <circle cx="208.62051176527584"
                                        cy="36.40525791346414"
                                        r="1.5"
                                        style="stroke-width: 3; stroke: rgb(60, 180, 75); stroke-opacity: 0.8; fill: rgb(60, 180, 75); fill-opacity: 0.15;" />
                                <circle cx="108.13191141875052"
                                        cy="105.25186422773223"
                                        r="1.5"
                                        style="stroke-width: 3; stroke: rgb(60, 180, 75); stroke-opacity: 0.8; fill: rgb(60, 180, 75); fill-opacity: 0.15;" />
                                <circle cx="251.68705477092956"
                                        cy="105.25186422773223"
                                        r="1.5"
                                        style="stroke-width: 3; stroke: rgb(60, 180, 75); stroke-opacity: 0.8; fill: rgb(60, 180, 75); fill-opacity: 0.15;" />
                            </g>
                        </g>
                    </g>
                    <g class="test-xtl"
                       style="font-family: &quot;Open Sans&quot;, verdana, arial, sans-serif;" />
                    <g class="test-ytl"
                       style="font-family: &quot;Open Sans&quot;, verdana, arial, sans-serif;" />
                    <rect class="real"
                          x="1"
                          y="1"
                          width="358.33331298828125"
                          height="198"
                          style="fill: transparent; stroke: none;" />
                </g>
            </g>
        </g>
        <g />
    </g>
    <g />
    <g />
    <g />
    <g>
        <g>
            <g>
                <g transform="matrix(1,0,0,1,120.66668701171875,133)">
                    <path transform="matrix(0.017,0,0,-0.017,0,0)"
                          d="M286 646L392 650C454 650 494 641 495 626L503 537L527 537C530 600 537 651 548 689C526 691 498 692 481 692L440 691L275 689L246 689C221 689 181 690 143 691L94 692L91 664L147 662C171 661 182 652 182 635C182 621 178 589 173 559L98 125C81 33 81 32 40 28L4 25L0 -3L34 -2C74 -1 106 0 127 0C145 0 174 -1 213 -2L265 -3L268 25L204 28C177 29 168 37 168 57C168 63 169 74 170 78L206 301L323 301C350 301 381 300 429 298L455 297L474 342L470 349C389 345 329 343 251 343L214 343L260 614C263 630 264 635 269 646Z"
                          class="char"
                          stroke-opacity="1"
                          stroke-width="8"
                          fill-opacity="1" />
                </g>
            </g>
            <g>
                <g>
                    <g>
                        <g>
                            <g transform="matrix(1,0,0,1,130.60418701171875,136.67084350585938)">
                                <path transform="matrix(0.0119,0,0,-0.0119,0,0)"
                                      d="M418 -3L418 27L366 30C311 33 301 44 301 96L301 700L60 598L67 548L217 614L217 96C217 44 206 33 152 30L96 27L96 -3C250 0 250 0 261 0C292 0 402 -3 418 -3Z"
                                      class="char"
                                      stroke-opacity="1"
                                      stroke-width="8"
                                      fill-opacity="1" />
                            </g>
                        </g>
                    </g>
                </g>
            </g>
        </g>
    </g>
    <g>
        <g>
            <g>
                <g transform="matrix(1,0,0,1,262.66668701171875,133)">
                    <path transform="matrix(0.017,0,0,-0.017,0,0)"
                          d="M286 646L392 650C454 650 494 641 495 626L503 537L527 537C530 600 537 651 548 689C526 691 498 692 481 692L440 691L275 689L246 689C221 689 181 690 143 691L94 692L91 664L147 662C171 661 182 652 182 635C182 621 178 589 173 559L98 125C81 33 81 32 40 28L4 25L0 -3L34 -2C74 -1 106 0 127 0C145 0 174 -1 213 -2L265 -3L268 25L204 28C177 29 168 37 168 57C168 63 169 74 170 78L206 301L323 301C350 301 381 300 429 298L455 297L474 342L470 349C389 345 329 343 251 343L214 343L260 614C263 630 264 635 269 646Z"
                          class="char"
                          stroke-opacity="1"
                          stroke-width="8"
                          fill-opacity="1" />
                </g>
            </g>
            <g>
                <g>
                    <g>
                        <g>
                            <g transform="matrix(1,0,0,1,272.60418701171875,136.67084350585938)">
                                <path transform="matrix(0.0119,0,0,-0.0119,0,0)"
                                      d="M16 23L16 -3C203 -3 203 0 239 0C275 0 275 -3 468 -3L468 82C353 77 307 81 122 77L304 270C401 373 431 428 431 503C431 618 353 689 226 689C154 689 105 669 56 619L39 483L68 483L81 529C97 587 133 612 200 612C286 612 341 558 341 473C341 398 299 324 186 204Z"
                                      class="char"
                                      stroke-opacity="1"
                                      stroke-width="8"
                                      fill-opacity="1" />
                            </g>
                        </g>
                    </g>
                </g>
            </g>
        </g>
    </g>
    <g>
        <g>
            <g>
                <g transform="matrix(1,0,0,1,232.66668701171875,40)">
                    <path transform="matrix(0.017,0,0,-0.017,0,0)"
                          d="M105 664L160 662C184 661 195 653 195 635L112 125C95 34 94 31 54 28L13 25L9 -3L51 -2C92 -1 123 0 141 0C158 0 187 -1 227 -2L280 -3L283 25L218 28C192 29 182 37 182 58C182 67 183 74 186 93L284 648C320 654 336 656 355 656C457 656 506 612 506 519C506 411 434 323 346 323C324 323 304 328 267 342L269 311C306 293 326 288 355 288C484 288 594 405 594 541C594 642 531 695 412 692L108 692Z"
                          class="char"
                          stroke-opacity="1"
                          stroke-width="8"
                          fill-opacity="1" />
                </g>
            </g>
        </g>
    </g>
    <g>
        <g>
            <g>
                <g transform="matrix(1,0,0,1,181.66668701171875,133)">
                    <path transform="matrix(0.017,0,0,-0.017,0,0)"
                          d="M748 425C748 603 644 706 464 706C227 706 53 523 53 272C53 83 147 -18 323 -18C595 -18 748 207 748 425ZM660 409C660 221 571 24 360 24C216 24 141 110 141 277C141 425 199 664 433 664C549 664 660 610 660 409Z"
                          class="char"
                          stroke-opacity="1"
                          stroke-width="8"
                          fill-opacity="1" />
                </g>
            </g>
        </g>
    </g>
    <g>
        <g>
            <g>
                <g transform="matrix(1,0,0,1,152.66668701171875,110.3)">
                    <path transform="matrix(0.015300000000000001,0,0,-0.015300000000000001,0,0)"
                          d="M400 -16C446 -16 513 54 545 84L545 97L532 97C513 79 489 55 462 55C417 55 424 184 424 216C474 278 520 343 558 413C551 428 544 444 536 459L525 459C511 391 456 315 420 257C422 336 445 472 332 473C164 473 27 243 24 93C23 33 43 -16 111 -16C203 -16 297 64 357 131C357 96 348 -15 400 -16ZM284 437C371 437 358 224 357 164C314 113 233 28 162 28C109 28 98 70 99 115C100 202 175 437 284 437Z"
                          class="char"
                          stroke-opacity="1"
                          stroke-width="8"
                          fill-opacity="1" />
                </g>
            </g>
        </g>
    </g>
    <g>
        <g>
            <g>
                <g transform="matrix(1,0,0,1,241.66668701171875,105.3)">
                    <path transform="matrix(0.015300000000000001,0,0,-0.015300000000000001,0,0)"
                          d="M459 205C459 301 389 358 298 360L298 369C391 400 475 479 476 581C477 644 445 680 381 680C154 680 114 463 89 289C62 101 36 -87 -8 -273L-8 -283C18 -274 43 -265 70 -259C76 -162 90 -66 104 29C239 -84 459 37 459 205ZM216 12C159 12 123 45 124 103C126 205 190 570 278 629C337 668 411 631 406 558C398 447 310 371 204 371C201 338 204 378 200 329C294 362 383 309 378 208C374 115 322 12 216 12Z"
                          class="char"
                          stroke-opacity="1"
                          stroke-width="8"
                          fill-opacity="1" />
                </g>
            </g>
        </g>
    </g>
    <g>
        <g>
            <g>
                <g transform="matrix(1,0,0,1,218.66668701171875,78.3)">
                    <path transform="matrix(0.015300000000000001,0,0,-0.015300000000000001,0,0)"
                          d="M154 473C89 473 51 426 18 377C18 371 27 368 30 365L30 366C54 394 74 412 111 412C206 412 215 290 214 220C212 136 203 53 186 -29C140 -86 92 -181 65 -249C69 -257 74 -265 77 -273C98 -268 119 -260 139 -251C165 -183 189 -106 203 -36C387 199 540 317 547 438C550 493 485 453 459 446L459 435C502 284 287 130 220 19L220 23C302 358 258 473 154 473Z"
                          class="char"
                          stroke-opacity="1"
                          stroke-width="8"
                          fill-opacity="1" />
                </g>
            </g>
        </g>
    </g>
</svg>