<svg xmlns="http://www.w3.org/2000/svg" xmlns:xlink="http://www.w3.org/1999/xlink" x="0" y="0" width="393.3333435058594" height="329" style="
        width:393.3333435058594px;
        height:329px;
        background: transparent;
        fill: none;
">
        <svg xmlns="http://www.w3.org/2000/svg"/>
        
        <svg xmlns="http://www.w3.org/2000/svg" class="role-diagram-draw-area"><g class="shapes-region" style="stroke: black; fill: none;"><g class="composite-shape" data-amt="diagram/shapes/plot" transform="matrix(1,0,0,1,21,10)"><g><g/><g><g class="test-xti" style="font-family: Asana-Math, Asana;"><line x1="0" y1="158.9709867755759" x2="347.83331298828125" y2="158.9709867755759" fill="none" stroke="rgb(50,50,50)" stroke-opacity="1" stroke-width="1"/><path d="M342.83331298828125,155.37098677557591 L350.83331298828125,158.9709867755759 L342.83331298828125,162.5709867755759 Z" stroke="none" stroke-width="1" fill="rgb(50,50,50)" fill-opacity="1"/></g><g class="test-yti" style="font-family: Asana-Math, Asana;"><line x1="175.29783965251525" y1="4" x2="175.29783965251525" y2="305.3333320617676" fill="none" stroke="rgb(50,50,50)" stroke-opacity="1" stroke-width="1"/><path d="M171.69783965251526,9 L175.29783965251525,1 L178.89783965251524,9 Z" stroke="none" stroke-width="1" fill="rgb(50,50,50)" fill-opacity="1"/></g><g class="test-plot-expression"><defs><clipPath id="cpwy975o5m3"><rect x="1" y="1" width="349.83331298828125" height="303.3333320617676"/></clipPath></defs><g clip-path="url(#cpwy975o5m3)"><path d=" M70.37,167.41 L70.29,166.92 L70.14,165.90 L70.02,164.88 L69.92,163.86 L69.83,162.84 L69.77,161.83 L69.72,160.81 L69.70,159.79 L69.69,158.77 L69.70,157.76 L69.74,156.74 L69.79,155.72 L69.86,154.70 L69.95,153.68 L70.07,152.67 L70.20,151.65 L70.35,150.63 L70.37,150.52 L70.52,149.61 L70.71,148.60 L70.93,147.58 L71.16,146.56 L71.41,145.54 L71.54,145.06 L71.68,144.52 L71.98,143.51 L72.29,142.49 L72.63,141.47 L72.71,141.23 L72.99,140.45 L73.37,139.44 L73.77,138.42 L73.88,138.13 L74.19,137.40 L74.64,136.38 L75.06,135.46 L75.10,135.36 L75.60,134.35 L76.11,133.33 L76.23,133.10 L76.65,132.31 L77.21,131.29 L77.40,130.96 L77.80,130.28 L78.41,129.26 L78.58,128.99 L79.05,128.24 L79.71,127.22 L79.75,127.16 L80.40,126.20 L80.92,125.46 L81.11,125.19 L81.86,124.17 L82.09,123.86 L82.63,123.15 L83.27,122.34 L83.43,122.13 L84.26,121.12 L84.44,120.91 L85.13,120.10 L85.61,119.54 L86.02,119.08 L86.79,118.24 L86.94,118.06 L87.90,117.04 L87.96,116.99 L88.90,116.03 L89.13,115.79 L89.93,115.01 L90.30,114.65 L91.00,113.99 L91.48,113.55 L92.10,112.97 L92.65,112.48 L93.25,111.96 L93.82,111.46 L94.44,110.94 L94.99,110.47 L95.67,109.92 L96.17,109.52 L96.94,108.90 L97.34,108.59 L98.27,107.88 L98.51,107.70 L99.64,106.87 L99.69,106.84 L100.86,106.00 L101.07,105.85 L102.03,105.19 L102.56,104.83 L103.20,104.40 L104.10,103.81 L104.38,103.64 L105.55,102.90 L105.71,102.80 L106.72,102.18 L107.39,101.78 L107.90,101.48 L109.07,100.80 L109.14,100.76 L110.24,100.15 L110.98,99.74 L111.41,99.51 L112.59,98.89 L112.90,98.72 L113.76,98.28 L114.91,97.71 L114.93,97.70 L116.10,97.13 L117.03,96.69 L117.28,96.57 L118.45,96.04 L119.27,95.67 L119.62,95.51 L120.80,95.01 L121.64,94.65 L121.97,94.51 L123.14,94.04 L124.15,93.64 L124.31,93.57 L125.49,93.12 L126.66,92.68 L126.84,92.62 L127.83,92.26 L129.01,91.85 L129.74,91.60 L130.18,91.45 L131.35,91.07 L132.52,90.69 L132.88,90.58 L133.70,90.33 L134.87,89.98 L136.04,89.64 L136.33,89.56 L137.21,89.32 L138.39,89.00 L139.56,88.70 L140.17,88.55 L140.73,88.41 L141.91,88.13 L143.08,87.86 L144.25,87.59 L144.55,87.53 L145.42,87.34 L146.60,87.11 L147.77,86.88 L148.94,86.66 L149.76,86.51 L150.12,86.45 L151.29,86.25 L152.46,86.06 L153.63,85.88 L154.81,85.71 L155.98,85.55 L156.45,85.49 L157.15,85.40 L158.32,85.27 L159.50,85.14 L160.67,85.01 L161.84,84.90 L163.02,84.80 L164.19,84.71 L165.36,84.63 L166.53,84.55 L167.71,84.49 L167.94,84.48 L168.88,84.43 L170.05,84.39 L171.23,84.35 L172.40,84.32 L173.57,84.30 L174.74,84.30 L175.92,84.30 L177.09,84.31 L178.26,84.32 L179.43,84.35 L180.61,84.39 L181.78,84.43 L182.65,84.48 L182.95,84.49 L184.13,84.56 L185.30,84.63 L186.47,84.71 L187.64,84.81 L188.82,84.91 L189.99,85.02 L191.16,85.14 L192.34,85.27 L193.51,85.41 L194.14,85.49 L194.68,85.56 L195.85,85.72 L197.03,85.89 L198.20,86.07 L199.37,86.26 L200.54,86.46 L200.84,86.51 L201.72,86.67 L202.89,86.89 L204.06,87.12 L205.24,87.36 L206.04,87.53 L206.41,87.61 L207.58,87.87 L208.75,88.14 L209.93,88.42 L210.43,88.55 L211.10,88.72 L212.27,89.02 L213.45,89.34 L214.27,89.56 L214.62,89.66 L215.79,90.00 L216.96,90.35 L217.71,90.58 L218.14,90.71 L219.31,91.09 L220.48,91.47 L220.86,91.60 L221.65,91.87 L222.83,92.29 L223.75,92.62 L224.00,92.71 L225.17,93.15 L226.35,93.60 L226.44,93.64 L227.52,94.06 L228.69,94.54 L228.96,94.65 L229.86,95.04 L231.04,95.54 L231.33,95.67 L232.21,96.07 L233.38,96.60 L233.57,96.69 L234.56,97.16 L235.69,97.71 L235.73,97.73 L236.90,98.32 L237.70,98.72 L238.07,98.92 L239.25,99.54 L239.62,99.74 L240.42,100.18 L241.45,100.76 L241.59,100.84 L242.76,101.52 L243.20,101.78 L243.94,102.22 L244.88,102.80 L245.11,102.94 L246.28,103.68 L246.49,103.81 L247.46,104.44 L248.04,104.83 L248.63,105.23 L249.52,105.85 L249.80,106.04 L250.95,106.87 L250.97,106.88 L252.15,107.75 L252.33,107.88 L253.32,108.64 L253.65,108.90 L254.49,109.57 L254.93,109.92 L255.67,110.53 L256.16,110.94 L256.84,111.52 L257.35,111.96 L258.01,112.54 L258.49,112.97 L259.18,113.61 L259.60,113.99 L260.36,114.71 L260.67,115.01 L261.53,115.86 L261.70,116.03 L262.69,117.04 L262.70,117.05 L263.65,118.06 L263.87,118.31 L264.58,119.08 L265.05,119.61 L265.47,120.10 L266.22,120.98 L266.33,121.12 L267.16,122.13 L267.39,122.42 L267.96,123.15 L268.57,123.94 L268.74,124.17 L269.48,125.19 L269.74,125.55 L270.20,126.20 L270.89,127.22 L270.91,127.26 L271.55,128.24 L272.08,129.09 L272.19,129.26 L272.80,130.28 L273.26,131.07 L273.39,131.29 L273.95,132.31 L274.43,133.22 L274.49,133.33 L275.00,134.35 L275.49,135.36 L275.60,135.60 L275.96,136.38 L276.40,137.40 L276.78,138.29 L276.83,138.42 L277.23,139.44 L277.61,140.45 L277.95,141.42 L277.97,141.47 L278.30,142.49 L278.62,143.51 L278.91,144.52 L279.12,145.30 L279.19,145.54 L279.44,146.56 L279.67,147.58 L279.88,148.60 L280.07,149.61 L280.25,150.63 L280.29,150.94 L280.40,151.65 L280.53,152.67 L280.64,153.68 L280.73,154.70 L280.81,155.72 L280.86,156.74 L280.89,157.76 L280.91,158.77 L280.90,159.79 L280.87,160.81 L280.83,161.83 L280.76,162.84 L280.68,163.86 L280.58,164.88 L280.45,165.90 L280.31,166.92 L280.29,167.01 L280.14,167.93 L279.96,168.95 L279.75,169.97 L279.53,170.99 L279.29,172.00 L279.12,172.64 L279.02,173.02 L278.73,174.04 L278.43,175.06 L278.10,176.08 L277.95,176.52 L277.75,177.09 L277.38,178.11 L276.99,179.13 L276.78,179.65 L276.57,180.15 L276.13,181.16 L275.68,182.18 L275.60,182.34 L275.19,183.20 L274.69,184.22 L274.43,184.72 L274.16,185.24 L273.61,186.25 L273.26,186.87 L273.03,187.27 L272.43,188.29 L272.08,188.85 L271.80,189.31 L271.15,190.32 L270.91,190.68 L270.47,191.34 L269.76,192.36 L269.74,192.39 L269.03,193.38 L268.57,194.00 L268.27,194.40 L267.48,195.41 L267.39,195.52 L266.66,196.43 L266.22,196.96 L265.81,197.45 L265.05,198.33 L264.93,198.47 L264.01,199.48 L263.87,199.64 L263.07,200.50 L262.70,200.88 L262.09,201.52 L261.53,202.08 L261.07,202.54 L260.36,203.23 L260.02,203.56 L259.18,204.34 L258.93,204.57 L258.01,205.40 L257.80,205.59 L256.84,206.43 L256.63,206.61 L255.67,207.42 L255.41,207.63 L254.49,208.37 L254.15,208.64 L253.32,209.30 L252.85,209.66 L252.15,210.19 L251.49,210.68 L250.97,211.06 L250.08,211.70 L249.80,211.90 L248.63,212.71 L248.62,212.72 L247.46,213.50 L247.10,213.73 L246.28,214.26 L245.51,214.75 L245.11,215.00 L243.94,215.72 L243.86,215.77 L242.76,216.42 L242.14,216.79 L241.59,217.10 L240.42,217.76 L240.34,217.80 L239.25,218.40 L238.46,218.82 L238.07,219.02 L236.90,219.63 L236.48,219.84 L235.73,220.21 L234.56,220.78 L234.40,220.86 L233.38,221.34 L232.21,221.88 L232.21,221.88 L231.04,222.40 L229.90,222.89 L229.86,222.91 L228.69,223.40 L227.52,223.88 L227.44,223.91 L226.35,224.34 L225.17,224.80 L224.82,224.93 L224.00,225.23 L222.83,225.66 L222.01,225.95 L221.65,226.07 L220.48,226.47 L219.31,226.85 L218.97,226.96 L218.14,227.23 L216.96,227.59 L215.79,227.94 L215.65,227.98 L214.62,228.28 L213.45,228.60 L212.27,228.92 L211.97,229.00 L211.10,229.23 L209.93,229.52 L208.75,229.80 L207.82,230.02 L207.58,230.07 L206.41,230.33 L205.24,230.58 L204.06,230.82 L202.99,231.04 L202.89,231.05 L201.72,231.27 L200.54,231.48 L199.37,231.68 L198.20,231.87 L197.03,232.05 L197.01,232.05 L195.85,232.22 L194.68,232.38 L193.51,232.53 L192.34,232.67 L191.16,232.80 L189.99,232.92 L188.82,233.03 L188.39,233.07 L187.64,233.14 L186.47,233.23 L185.30,233.31 L184.13,233.39 L182.95,233.45 L181.78,233.51 L180.61,233.55 L179.43,233.59 L178.26,233.62 L177.09,233.64 L175.92,233.65 L174.74,233.65 L173.57,233.64 L172.40,233.62 L171.23,233.59 L170.05,233.55 L168.88,233.51 L167.71,233.45 L166.53,233.39 L165.36,233.32 L164.19,233.23 L163.02,233.14 L162.20,233.07 L161.84,233.04 L160.67,232.93 L159.50,232.81 L158.32,232.68 L157.15,232.54 L155.98,232.39 L154.81,232.23 L153.63,232.06 L153.59,232.05 L152.46,231.88 L151.29,231.69 L150.12,231.49 L148.94,231.28 L147.77,231.07 L147.61,231.04 L146.60,230.84 L145.42,230.60 L144.25,230.35 L143.08,230.09 L142.77,230.02 L141.91,229.82 L140.73,229.53 L139.56,229.24 L138.62,229.00 L138.39,228.94 L137.21,228.62 L136.04,228.30 L134.95,227.98 L134.87,227.96 L133.70,227.61 L132.52,227.25 L131.63,226.96 L131.35,226.88 L130.18,226.49 L129.01,226.09 L128.59,225.95 L127.83,225.68 L126.66,225.26 L125.78,224.93 L125.49,224.82 L124.31,224.37 L123.15,223.91 L123.14,223.91 L121.97,223.43 L120.80,222.94 L120.70,222.89 L119.62,222.43 L118.45,221.91 L118.38,221.88 L117.28,221.37 L116.19,220.86 L116.10,220.82 L114.93,220.24 L114.12,219.84 L113.76,219.66 L112.59,219.06 L112.14,218.82 L111.41,218.43 L110.25,217.80 L110.24,217.80 L109.07,217.14 L108.46,216.79 L107.90,216.46 L106.73,215.77 L106.72,215.76 L105.55,215.04 L105.08,214.75 L104.38,214.30 L103.50,213.73 L103.20,213.54 L102.03,212.76 L101.97,212.72 L100.86,211.94 L100.51,211.70 L99.69,211.10 L99.10,210.68 L98.51,210.24 L97.75,209.66 L97.34,209.35 L96.44,208.64 L96.17,208.43 L95.18,207.63 L94.99,207.47 L93.97,206.61 L93.82,206.48 L92.80,205.59 L92.65,205.46 L91.67,204.57 L91.48,204.40 L90.58,203.56 L90.30,203.29 L89.52,202.54 L89.13,202.15 L88.51,201.52 L87.96,200.95 L87.53,200.50 L86.79,199.71 L86.58,199.48 L85.67,198.47 L85.61,198.40 L84.79,197.45 L84.44,197.04 L83.94,196.43 L83.27,195.60 L83.12,195.41 L82.33,194.40 L82.09,194.09 L81.57,193.38 L80.92,192.49 L80.83,192.36 L80.13,191.34 L79.75,190.78 L79.45,190.32 L78.80,189.31 L78.58,188.95 L78.17,188.29 L77.57,187.27 L77.40,186.99 L76.99,186.25 L76.44,185.24 L76.23,184.84 L75.91,184.22 L75.40,183.20 L75.06,182.48 L74.92,182.18 L74.46,181.16 L74.02,180.15 L73.88,179.81 L73.61,179.13 L73.22,178.11 L72.85,177.09 L72.71,176.71 L72.50,176.08 L72.17,175.06 L71.86,174.04 L71.57,173.02 L71.54,172.89 L71.31,172.00 L71.07,170.99 L70.84,169.97 L70.64,168.95 L70.45,167.93 L70.37,167.41" style="stroke-width: 2; stroke: rgb(68, 128, 194); stroke-opacity: 1;"/><path d=" M46.91,174.68 L46.83,174.04 L46.72,173.02 L46.61,172.00 L46.51,170.99 L46.42,169.97 L46.34,168.95 L46.26,167.93 L46.20,166.92 L46.14,165.90 L46.09,164.88 L46.05,163.86 L46.01,162.84 L45.98,161.83 L45.97,160.81 L45.96,159.79 L45.95,158.77 L45.96,157.76 L45.97,156.74 L45.99,155.72 L46.02,154.70 L46.06,153.68 L46.11,152.67 L46.16,151.65 L46.22,150.63 L46.29,149.61 L46.37,148.60 L46.46,147.58 L46.55,146.56 L46.65,145.54 L46.76,144.52 L46.88,143.51 L46.91,143.26 L47.01,142.49 L47.14,141.47 L47.29,140.45 L47.44,139.44 L47.60,138.42 L47.77,137.40 L47.94,136.38 L48.08,135.59 L48.13,135.36 L48.32,134.35 L48.52,133.33 L48.73,132.31 L48.95,131.29 L49.18,130.28 L49.26,129.93 L49.41,129.26 L49.66,128.24 L49.91,127.22 L50.17,126.20 L50.43,125.24 L50.44,125.19 L50.72,124.17 L51.01,123.15 L51.31,122.13 L51.60,121.16 L51.62,121.12 L51.93,120.10 L52.26,119.08 L52.59,118.06 L52.77,117.52 L52.94,117.04 L53.29,116.03 L53.65,115.01 L53.95,114.20 L54.03,113.99 L54.41,112.97 L54.80,111.96 L55.12,111.14 L55.20,110.94 L55.62,109.92 L56.04,108.90 L56.29,108.30 L56.47,107.88 L56.91,106.87 L57.37,105.85 L57.47,105.63 L57.83,104.83 L58.30,103.81 L58.64,103.11 L58.79,102.80 L59.29,101.78 L59.79,100.76 L59.81,100.72 L60.31,99.74 L60.84,98.72 L60.98,98.45 L61.38,97.71 L61.94,96.69 L62.16,96.29 L62.50,95.67 L63.08,94.65 L63.33,94.22 L63.67,93.64 L64.27,92.62 L64.50,92.23 L64.88,91.60 L65.51,90.58 L65.68,90.32 L66.15,89.56 L66.81,88.55 L66.85,88.48 L67.47,87.53 L68.02,86.71 L68.15,86.51 L68.85,85.49 L69.19,85.00 L69.56,84.48 L70.28,83.46 L70.37,83.34 L71.02,82.44 L71.54,81.74 L71.78,81.42 L72.55,80.40 L72.71,80.19 L73.34,79.39 L73.88,78.69 L74.14,78.37 L74.96,77.35 L75.06,77.23 L75.79,76.33 L76.23,75.81 L76.65,75.32 L77.40,74.43 L77.52,74.30 L78.41,73.28 L78.58,73.09 L79.32,72.26 L79.75,71.79 L80.25,71.24 L80.92,70.52 L81.20,70.23 L82.09,69.29 L82.17,69.21 L83.16,68.19 L83.27,68.08 L84.18,67.17 L84.44,66.91 L85.21,66.16 L85.61,65.77 L86.27,65.14 L86.79,64.65 L87.36,64.12 L87.96,63.57 L88.47,63.10 L89.13,62.51 L89.61,62.08 L90.30,61.47 L90.77,61.07 L91.48,60.46 L91.97,60.05 L92.65,59.48 L93.19,59.03 L93.82,58.51 L94.44,58.01 L94.99,57.57 L95.73,57.00 L96.17,56.66 L97.05,55.98 L97.34,55.76 L98.41,54.96 L98.51,54.88 L99.69,54.03 L99.81,53.94 L100.86,53.19 L101.24,52.92 L102.03,52.38 L102.72,51.91 L103.20,51.58 L104.25,50.89 L104.38,50.80 L105.55,50.04 L105.82,49.87 L106.72,49.30 L107.45,48.85 L107.90,48.58 L109.07,47.87 L109.12,47.84 L110.24,47.18 L110.87,46.82 L111.41,46.50 L112.59,45.85 L112.67,45.80 L113.76,45.20 L114.55,44.78 L114.93,44.58 L116.10,43.97 L116.50,43.76 L117.28,43.37 L118.45,42.79 L118.54,42.75 L119.62,42.22 L120.67,41.73 L120.80,41.67 L121.97,41.13 L122.91,40.71 L123.14,40.61 L124.31,40.10 L125.27,39.69 L125.49,39.60 L126.66,39.12 L127.77,38.68 L127.83,38.65 L129.01,38.19 L130.18,37.75 L130.43,37.66 L131.35,37.32 L132.52,36.90 L133.29,36.64 L133.70,36.50 L134.87,36.11 L136.04,35.73 L136.37,35.62 L137.21,35.36 L138.39,35.00 L139.56,34.66 L139.76,34.60 L140.73,34.33 L141.91,34.01 L143.08,33.70 L143.54,33.59 L144.25,33.41 L145.42,33.12 L146.60,32.85 L147.77,32.59 L147.86,32.57 L148.94,32.34 L150.12,32.10 L151.29,31.87 L152.46,31.66 L153.07,31.55 L153.63,31.45 L154.81,31.26 L155.98,31.08 L157.15,30.91 L158.32,30.74 L159.50,30.59 L160.01,30.53 L160.67,30.46 L161.84,30.33 L163.02,30.21 L164.19,30.10 L165.36,30.01 L166.53,29.92 L167.71,29.85 L168.88,29.79 L170.05,29.73 L171.23,29.69 L172.40,29.66 L173.57,29.64 L174.74,29.63 L175.92,29.63 L177.09,29.64 L178.26,29.66 L179.43,29.69 L180.61,29.74 L181.78,29.79 L182.95,29.85 L184.13,29.93 L185.30,30.01 L186.47,30.11 L187.64,30.22 L188.82,30.33 L189.99,30.46 L190.58,30.53 L191.16,30.60 L192.34,30.75 L193.51,30.91 L194.68,31.09 L195.85,31.27 L197.03,31.46 L197.52,31.55 L198.20,31.67 L199.37,31.89 L200.54,32.11 L201.72,32.35 L202.73,32.57 L202.89,32.60 L204.06,32.87 L205.24,33.14 L206.41,33.42 L207.06,33.59 L207.58,33.72 L208.75,34.03 L209.93,34.35 L210.84,34.60 L211.10,34.68 L212.27,35.02 L213.45,35.38 L214.22,35.62 L214.62,35.75 L215.79,36.13 L216.96,36.52 L217.31,36.64 L218.14,36.93 L219.31,37.34 L220.16,37.66 L220.48,37.77 L221.65,38.22 L222.83,38.68 L222.83,38.68 L224.00,39.15 L225.17,39.63 L225.33,39.69 L226.35,40.13 L227.52,40.64 L227.69,40.71 L228.69,41.16 L229.86,41.70 L229.93,41.73 L231.04,42.25 L232.06,42.75 L232.21,42.82 L233.38,43.40 L234.10,43.76 L234.56,44.00 L235.73,44.61 L236.05,44.78 L236.90,45.24 L237.93,45.80 L238.07,45.88 L239.25,46.54 L239.73,46.82 L240.42,47.22 L241.47,47.84 L241.59,47.91 L242.76,48.62 L243.15,48.85 L243.94,49.34 L244.78,49.87 L245.11,50.08 L246.28,50.85 L246.35,50.89 L247.46,51.62 L247.87,51.91 L248.63,52.42 L249.35,52.92 L249.80,53.24 L250.79,53.94 L250.97,54.08 L252.15,54.93 L252.19,54.96 L253.32,55.81 L253.54,55.98 L254.49,56.71 L254.86,57.00 L255.67,57.63 L256.15,58.01 L256.84,58.57 L257.41,59.03 L258.01,59.53 L258.63,60.05 L259.18,60.52 L259.82,61.07 L260.36,61.53 L260.99,62.08 L261.53,62.57 L262.13,63.10 L262.70,63.63 L263.24,64.12 L263.87,64.72 L264.32,65.14 L265.05,65.83 L265.38,66.16 L266.22,66.98 L266.42,67.17 L267.39,68.15 L267.43,68.19 L268.43,69.21 L268.57,69.35 L269.40,70.23 L269.74,70.59 L270.34,71.24 L270.91,71.86 L271.27,72.26 L272.08,73.17 L272.19,73.28 L273.08,74.30 L273.26,74.51 L273.95,75.32 L274.43,75.89 L274.80,76.33 L275.60,77.31 L275.64,77.35 L276.46,78.37 L276.78,78.77 L277.26,79.39 L277.95,80.28 L278.05,80.40 L278.82,81.42 L279.12,81.83 L279.57,82.44 L280.29,83.43 L280.31,83.46 L281.03,84.48 L281.47,85.09 L281.74,85.49 L282.44,86.51 L282.64,86.81 L283.12,87.53 L283.79,88.55 L283.81,88.58 L284.44,89.56 L284.98,90.42 L285.08,90.58 L285.71,91.60 L286.16,92.34 L286.33,92.62 L286.93,93.64 L287.33,94.33 L287.52,94.65 L288.09,95.67 L288.50,96.40 L288.66,96.69 L289.21,97.71 L289.68,98.57 L289.76,98.72 L290.28,99.74 L290.80,100.76 L290.85,100.85 L291.31,101.78 L291.81,102.80 L292.02,103.24 L292.29,103.81 L292.77,104.83 L293.19,105.77 L293.23,105.85 L293.68,106.87 L294.13,107.88 L294.37,108.45 L294.56,108.90 L294.98,109.92 L295.39,110.94 L295.54,111.31 L295.79,111.96 L296.19,112.97 L296.57,113.99 L296.71,114.38 L296.94,115.01 L297.30,116.03 L297.66,117.04 L297.89,117.71 L298.00,118.06 L298.34,119.08 L298.66,120.10 L298.98,121.12 L299.06,121.38 L299.29,122.13 L299.58,123.15 L299.87,124.17 L300.15,125.19 L300.23,125.48 L300.42,126.20 L300.68,127.22 L300.94,128.24 L301.18,129.26 L301.40,130.21 L301.42,130.28 L301.65,131.29 L301.86,132.31 L302.07,133.33 L302.28,134.35 L302.47,135.36 L302.58,135.95 L302.66,136.38 L302.83,137.40 L303.00,138.42 L303.16,139.44 L303.31,140.45 L303.45,141.47 L303.59,142.49 L303.72,143.51 L303.75,143.80 L303.83,144.52 L303.94,145.54 L304.05,146.56 L304.14,147.58 L304.23,148.60 L304.30,149.61 L304.37,150.63 L304.43,151.65 L304.49,152.67 L304.53,153.68 L304.57,154.70 L304.60,155.72 L304.62,156.74 L304.64,157.76 L304.64,158.77 L304.64,159.79 L304.63,160.81 L304.61,161.83 L304.58,162.84 L304.55,163.86 L304.51,164.88 L304.46,165.90 L304.40,166.92 L304.33,167.93 L304.26,168.95 L304.17,169.97 L304.08,170.99 L303.98,172.00 L303.88,173.02 L303.76,174.04 L303.75,174.15 L303.64,175.06 L303.51,176.08 L303.37,177.09 L303.22,178.11 L303.06,179.13 L302.90,180.15 L302.72,181.16 L302.58,182.00 L302.54,182.18 L302.35,183.20 L302.15,184.22 L301.95,185.24 L301.73,186.25 L301.51,187.27 L301.40,187.73 L301.28,188.29 L301.03,189.31 L300.78,190.32 L300.53,191.34 L300.26,192.36 L300.23,192.46 L299.98,193.38 L299.70,194.40 L299.40,195.41 L299.10,196.43 L299.06,196.57 L298.79,197.45 L298.46,198.47 L298.13,199.48 L297.89,200.23 L297.79,200.50 L297.44,201.52 L297.08,202.54 L296.72,203.56 L296.71,203.56 L296.34,204.57 L295.95,205.59 L295.55,206.61 L295.54,206.64 L295.14,207.63 L294.72,208.64 L294.37,209.49 L294.30,209.66 L293.86,210.68 L293.41,211.70 L293.19,212.17 L292.95,212.72 L292.48,213.73 L292.02,214.70 L292.00,214.75 L291.50,215.77 L291.00,216.79 L290.85,217.09 L290.49,217.80 L289.96,218.82 L289.68,219.37 L289.42,219.84 L288.88,220.86 L288.50,221.54 L288.32,221.88 L287.74,222.89 L287.33,223.61 L287.16,223.91 L286.56,224.93 L286.16,225.60 L285.95,225.95 L285.33,226.96 L284.98,227.52 L284.69,227.98 L284.04,229.00 L283.81,229.36 L283.38,230.02 L282.71,231.04 L282.64,231.14 L282.02,232.05 L281.47,232.85 L281.31,233.07 L280.59,234.09 L280.29,234.51 L279.86,235.11 L279.12,236.11 L279.11,236.12 L278.35,237.14 L277.95,237.67 L277.57,238.16 L276.78,239.17 L276.77,239.18 L275.96,240.20 L275.60,240.63 L275.13,241.21 L274.43,242.05 L274.28,242.23 L273.42,243.25 L273.26,243.43 L272.53,244.27 L272.08,244.77 L271.63,245.28 L270.91,246.08 L270.71,246.30 L269.77,247.32 L269.74,247.35 L268.80,248.34 L268.57,248.59 L267.82,249.36 L267.39,249.79 L266.82,250.37 L266.22,250.97 L265.79,251.39 L265.05,252.11 L264.74,252.41 L263.87,253.23 L263.66,253.43 L262.70,254.32 L262.56,254.44 L261.53,255.38 L261.43,255.46 L260.36,256.41 L260.28,256.48 L259.18,257.43 L259.10,257.50 L258.01,258.41 L257.89,258.52 L256.84,259.38 L256.64,259.53 L255.67,260.32 L255.37,260.55 L254.49,261.24 L254.06,261.57 L253.32,262.13 L252.72,262.59 L252.15,263.01 L251.34,263.60 L250.97,263.87 L249.92,264.62 L249.80,264.70 L248.63,265.52 L248.45,265.64 L247.46,266.32 L246.95,266.66 L246.28,267.10 L245.39,267.68 L245.11,267.86 L243.94,268.60 L243.79,268.69 L242.76,269.33 L242.13,269.71 L241.59,270.03 L240.42,270.73 L240.42,270.73 L239.25,271.40 L238.63,271.75 L238.07,272.06 L236.90,272.70 L236.79,272.76 L235.73,273.33 L234.87,273.78 L234.56,273.94 L233.38,274.54 L232.86,274.80 L232.21,275.12 L231.04,275.69 L230.77,275.82 L229.86,276.24 L228.69,276.78 L228.57,276.84 L227.52,277.30 L226.35,277.82 L226.26,277.85 L225.17,278.31 L224.00,278.80 L223.82,278.87 L222.83,279.27 L221.65,279.72 L221.22,279.89 L220.48,280.17 L219.31,280.60 L218.44,280.91 L218.14,281.02 L216.96,281.42 L215.79,281.81 L215.45,281.92 L214.62,282.19 L213.45,282.56 L212.27,282.92 L212.19,282.94 L211.10,283.26 L209.93,283.59 L208.75,283.91 L208.58,283.96 L207.58,284.22 L206.41,284.52 L205.24,284.80 L204.49,284.98 L204.06,285.08 L202.89,285.34 L201.72,285.59 L200.54,285.83 L199.68,286.00 L199.37,286.06 L198.20,286.27 L197.03,286.48 L195.85,286.67 L194.68,286.86 L193.61,287.01 L193.51,287.03 L192.34,287.19 L191.16,287.34 L189.99,287.48 L188.82,287.61 L187.64,287.72 L186.47,287.83 L185.30,287.93 L184.13,288.01 L183.87,288.03 L182.95,288.09 L181.78,288.15 L180.61,288.21 L179.43,288.25 L178.26,288.28 L177.09,288.30 L175.92,288.31 L174.74,288.31 L173.57,288.30 L172.40,288.28 L171.23,288.25 L170.05,288.21 L168.88,288.16 L167.71,288.09 L166.72,288.03 L166.53,288.02 L165.36,287.93 L164.19,287.84 L163.02,287.73 L161.84,287.61 L160.67,287.49 L159.50,287.35 L158.32,287.20 L157.15,287.04 L156.99,287.01 L155.98,286.86 L154.81,286.68 L153.63,286.49 L152.46,286.28 L151.29,286.07 L150.91,286.00 L150.12,285.84 L148.94,285.60 L147.77,285.35 L146.60,285.09 L146.11,284.98 L145.42,284.82 L144.25,284.53 L143.08,284.24 L142.01,283.96 L141.91,283.93 L140.73,283.61 L139.56,283.28 L138.40,282.94 L138.39,282.94 L137.21,282.58 L136.04,282.21 L135.14,281.92 L134.87,281.84 L133.70,281.44 L132.52,281.04 L132.15,280.91 L131.35,280.62 L130.18,280.19 L129.38,279.89 L129.01,279.75 L127.83,279.29 L126.78,278.87 L126.66,278.82 L125.49,278.34 L124.34,277.85 L124.31,277.84 L123.14,277.33 L122.02,276.84 L121.97,276.81 L120.80,276.27 L119.83,275.82 L119.62,275.72 L118.45,275.15 L117.73,274.80 L117.28,274.57 L116.10,273.98 L115.73,273.78 L114.93,273.36 L113.81,272.76 L113.76,272.74 L112.59,272.10 L111.96,271.75 L111.41,271.44 L110.24,270.76 L110.18,270.73 L109.07,270.07 L108.47,269.71 L107.90,269.37 L106.81,268.69 L106.72,268.64 L105.55,267.90 L105.20,267.68 L104.38,267.14 L103.65,266.66 L103.20,266.36 L102.14,265.64 L102.03,265.56 L100.86,264.75 L100.68,264.62 L99.69,263.91 L99.26,263.60 L98.51,263.06 L97.88,262.59 L97.34,262.18 L96.54,261.57 L96.17,261.29 L95.23,260.55 L94.99,260.37 L93.95,259.53 L93.82,259.43 L92.71,258.52 L92.65,258.47 L91.50,257.50 L91.48,257.48 L90.31,256.48 L90.30,256.47 L89.16,255.46 L89.13,255.44 L88.03,254.44 L87.96,254.38 L86.93,253.43 L86.79,253.29 L85.86,252.41 L85.61,252.17 L84.81,251.39 L84.44,251.03 L83.78,250.37 L83.27,249.86 L82.77,249.36 L82.09,248.65 L81.79,248.34 L80.92,247.42 L80.83,247.32 L79.89,246.30 L79.75,246.15 L78.97,245.28 L78.58,244.85 L78.06,244.27 L77.40,243.51 L77.18,243.25 L76.31,242.23 L76.23,242.13 L75.47,241.21 L75.06,240.71 L74.64,240.20 L73.88,239.26 L73.82,239.18 L73.03,238.16 L72.71,237.75 L72.25,237.14 L71.54,236.20 L71.48,236.12 L70.74,235.11 L70.37,234.60 L70.00,234.09 L69.28,233.07 L69.19,232.94 L68.58,232.05 L68.02,231.23 L67.89,231.04 L67.21,230.02 L66.85,229.46 L66.55,229.00 L65.90,227.98 L65.68,227.62 L65.27,226.96 L64.64,225.95 L64.50,225.71 L64.03,224.93 L63.44,223.91 L63.33,223.73 L62.85,222.89 L62.28,221.88 L62.16,221.65 L61.72,220.86 L61.17,219.84 L60.98,219.49 L60.63,218.82 L60.11,217.80 L59.81,217.22 L59.59,216.79 L59.09,215.77 L58.64,214.84 L58.60,214.75 L58.12,213.73 L57.65,212.72 L57.47,212.32 L57.19,211.70 L56.74,210.68 L56.30,209.66 L56.29,209.65 L55.87,208.64 L55.45,207.63 L55.12,206.80 L55.04,206.61 L54.65,205.59 L54.26,204.57 L53.95,203.74 L53.88,203.56 L53.51,202.54 L53.15,201.52 L52.80,200.50 L52.77,200.42 L52.46,199.48 L52.13,198.47 L51.81,197.45 L51.60,196.78 L51.50,196.43 L51.19,195.41 L50.90,194.40 L50.61,193.38 L50.43,192.70 L50.34,192.36 L50.07,191.34 L49.81,190.32 L49.56,189.31 L49.32,188.29 L49.26,188.02 L49.09,187.27 L48.86,186.25 L48.65,185.24 L48.44,184.22 L48.24,183.20 L48.08,182.35 L48.05,182.18 L47.87,181.16 L47.70,180.15 L47.53,179.13 L47.38,178.11 L47.23,177.09 L47.09,176.08 L46.96,175.06 L46.91,174.68" style="stroke-width: 2; stroke: rgb(245, 130, 49); stroke-opacity: 1;"/><path d=" M114.93,167.55 L114.84,166.92 L114.72,165.90 L114.61,164.88 L114.52,163.86 L114.45,162.84 L114.39,161.83 L114.35,160.81 L114.33,159.79 L114.33,158.77 L114.34,157.76 L114.37,156.74 L114.41,155.72 L114.48,154.70 L114.56,153.68 L114.65,152.67 L114.77,151.65 L114.90,150.63 L114.93,150.39 L115.05,149.61 L115.22,148.60 L115.40,147.58 L115.60,146.56 L115.82,145.54 L116.06,144.52 L116.10,144.35 L116.32,143.51 L116.60,142.49 L116.89,141.47 L117.20,140.45 L117.28,140.23 L117.54,139.44 L117.90,138.42 L118.27,137.40 L118.45,136.93 L118.66,136.38 L119.08,135.36 L119.52,134.35 L119.62,134.11 L119.98,133.33 L120.46,132.31 L120.80,131.64 L120.97,131.29 L121.50,130.28 L121.97,129.41 L122.05,129.26 L122.64,128.24 L123.14,127.39 L123.24,127.22 L123.88,126.20 L124.31,125.53 L124.54,125.19 L125.23,124.17 L125.49,123.81 L125.96,123.15 L126.66,122.20 L126.71,122.13 L127.50,121.12 L127.83,120.70 L128.33,120.10 L129.01,119.29 L129.19,119.08 L130.09,118.06 L130.18,117.96 L131.03,117.04 L131.35,116.71 L132.02,116.03 L132.52,115.52 L133.05,115.01 L133.70,114.40 L134.14,113.99 L134.87,113.33 L135.28,112.97 L136.04,112.32 L136.48,111.96 L137.21,111.36 L137.74,110.94 L138.39,110.44 L139.08,109.92 L139.56,109.57 L140.50,108.90 L140.73,108.74 L141.91,107.95 L142.01,107.88 L143.08,107.21 L143.63,106.87 L144.25,106.50 L145.37,105.85 L145.42,105.82 L146.60,105.18 L147.26,104.83 L147.77,104.57 L148.94,103.99 L149.31,103.81 L150.12,103.44 L151.29,102.92 L151.59,102.80 L152.46,102.44 L153.63,101.98 L154.17,101.78 L154.81,101.54 L155.98,101.14 L157.15,100.76 L157.15,100.76 L158.32,100.41 L159.50,100.08 L160.67,99.78 L160.82,99.74 L161.84,99.50 L163.02,99.25 L164.19,99.02 L165.36,98.81 L165.93,98.72 L166.53,98.63 L167.71,98.47 L168.88,98.34 L170.05,98.23 L171.23,98.14 L172.40,98.07 L173.57,98.02 L174.74,98.00 L175.92,98.00 L177.09,98.03 L178.26,98.07 L179.43,98.14 L180.61,98.23 L181.78,98.34 L182.95,98.48 L184.13,98.64 L184.67,98.72 L185.30,98.82 L186.47,99.03 L187.64,99.26 L188.82,99.52 L189.77,99.74 L189.99,99.79 L191.16,100.10 L192.34,100.43 L193.44,100.76 L193.51,100.78 L194.68,101.16 L195.85,101.57 L196.43,101.78 L197.03,102.00 L198.20,102.46 L199.00,102.80 L199.37,102.95 L200.54,103.47 L201.28,103.81 L201.72,104.02 L202.89,104.60 L203.34,104.83 L204.06,105.21 L205.23,105.85 L205.24,105.85 L206.41,106.53 L206.96,106.87 L207.58,107.25 L208.58,107.88 L208.75,108.00 L209.93,108.79 L210.09,108.90 L211.10,109.62 L211.51,109.92 L212.27,110.49 L212.85,110.94 L213.45,111.41 L214.12,111.96 L214.62,112.37 L215.32,112.97 L215.79,113.39 L216.46,113.99 L216.96,114.46 L217.54,115.01 L218.14,115.58 L218.58,116.03 L219.31,116.77 L219.57,117.04 L220.48,118.03 L220.51,118.06 L221.41,119.08 L221.65,119.37 L222.27,120.10 L222.83,120.78 L223.09,121.12 L223.88,122.13 L224.00,122.29 L224.64,123.15 L225.17,123.90 L225.36,124.17 L226.05,125.19 L226.35,125.63 L226.72,126.20 L227.35,127.22 L227.52,127.50 L227.96,128.24 L228.54,129.26 L228.69,129.53 L229.09,130.28 L229.63,131.29 L229.86,131.77 L230.13,132.31 L230.62,133.33 L231.04,134.26 L231.08,134.35 L231.51,135.36 L231.93,136.38 L232.21,137.09 L232.33,137.40 L232.70,138.42 L233.06,139.44 L233.38,140.43 L233.39,140.45 L233.70,141.47 L234.00,142.49 L234.28,143.51 L234.54,144.52 L234.56,144.61 L234.77,145.54 L234.99,146.56 L235.20,147.58 L235.38,148.60 L235.55,149.61 L235.70,150.63 L235.73,150.86 L235.83,151.65 L235.94,152.67 L236.04,153.68 L236.12,154.70 L236.18,155.72 L236.23,156.74 L236.26,157.76 L236.27,158.77 L236.26,159.79 L236.24,160.81 L236.20,161.83 L236.15,162.84 L236.07,163.86 L235.98,164.88 L235.88,165.90 L235.75,166.92 L235.73,167.08 L235.61,167.93 L235.45,168.95 L235.27,169.97 L235.07,170.99 L234.86,172.00 L234.63,173.02 L234.56,173.33 L234.38,174.04 L234.11,175.06 L233.82,176.08 L233.52,177.09 L233.38,177.51 L233.19,178.11 L232.84,179.13 L232.47,180.15 L232.21,180.85 L232.09,181.16 L231.68,182.18 L231.25,183.20 L231.04,183.68 L230.80,184.22 L230.32,185.24 L229.86,186.18 L229.83,186.25 L229.30,187.27 L228.76,188.29 L228.69,188.41 L228.19,189.31 L227.59,190.32 L227.52,190.45 L226.97,191.34 L226.35,192.32 L226.32,192.36 L225.63,193.38 L225.17,194.04 L224.92,194.40 L224.18,195.41 L224.00,195.65 L223.40,196.43 L222.83,197.16 L222.60,197.45 L221.75,198.47 L221.65,198.58 L220.86,199.48 L220.48,199.91 L219.94,200.50 L219.31,201.17 L218.97,201.52 L218.14,202.36 L217.95,202.54 L216.96,203.49 L216.89,203.56 L215.79,204.56 L215.77,204.57 L214.62,205.57 L214.60,205.59 L213.45,206.54 L213.36,206.61 L212.27,207.45 L212.04,207.63 L211.10,208.32 L210.65,208.64 L209.93,209.15 L209.18,209.66 L208.75,209.94 L207.61,210.68 L207.58,210.70 L206.41,211.41 L205.91,211.70 L205.24,212.09 L204.10,212.72 L204.06,212.73 L202.89,213.34 L202.10,213.73 L201.72,213.92 L200.54,214.47 L199.92,214.75 L199.37,214.99 L198.20,215.48 L197.47,215.77 L197.03,215.94 L195.85,216.37 L194.68,216.78 L194.67,216.79 L193.51,217.16 L192.34,217.51 L191.31,217.80 L191.16,217.84 L189.99,218.15 L188.82,218.43 L187.64,218.68 L186.93,218.82 L186.47,218.91 L185.30,219.12 L184.13,219.30 L182.95,219.46 L181.78,219.60 L180.61,219.71 L179.43,219.80 L178.83,219.84 L178.26,219.87 L177.09,219.92 L175.92,219.94 L174.74,219.94 L173.57,219.92 L172.40,219.88 L171.77,219.84 L171.23,219.81 L170.05,219.72 L168.88,219.60 L167.71,219.47 L166.53,219.31 L165.36,219.13 L164.19,218.92 L163.67,218.82 L163.02,218.69 L161.84,218.44 L160.67,218.16 L159.50,217.86 L159.29,217.80 L158.32,217.53 L157.15,217.18 L155.98,216.80 L155.93,216.79 L154.81,216.40 L153.63,215.97 L153.13,215.77 L152.46,215.51 L151.29,215.02 L150.68,214.75 L150.12,214.50 L148.94,213.95 L148.49,213.73 L147.77,213.38 L146.60,212.77 L146.50,212.72 L145.42,212.12 L144.68,211.70 L144.25,211.45 L143.08,210.74 L142.99,210.68 L141.91,209.99 L141.42,209.66 L140.73,209.20 L139.94,208.64 L139.56,208.37 L138.55,207.63 L138.39,207.50 L137.24,206.61 L137.21,206.59 L136.04,205.63 L136.00,205.59 L134.87,204.61 L134.82,204.57 L133.70,203.56 L133.70,203.55 L132.64,202.54 L132.52,202.42 L131.63,201.52 L131.35,201.24 L130.66,200.50 L130.18,199.98 L129.73,199.48 L129.01,198.65 L128.85,198.47 L128.00,197.45 L127.83,197.24 L127.19,196.43 L126.66,195.74 L126.41,195.41 L125.67,194.40 L125.49,194.14 L124.96,193.38 L124.31,192.41 L124.28,192.36 L123.63,191.34 L123.14,190.55 L123.00,190.32 L122.41,189.31 L121.97,188.53 L121.84,188.29 L121.29,187.27 L120.80,186.31 L120.77,186.25 L120.27,185.24 L119.80,184.22 L119.62,183.83 L119.35,183.20 L118.92,182.18 L118.51,181.16 L118.45,181.02 L118.12,180.15 L117.76,179.13 L117.41,178.11 L117.28,177.71 L117.08,177.09 L116.78,176.08 L116.49,175.06 L116.22,174.04 L116.10,173.59 L115.97,173.02 L115.74,172.00 L115.52,170.99 L115.33,169.97 L115.15,168.95 L114.99,167.93 L114.93,167.55" style="stroke-width: 2; stroke: rgb(62, 150, 164); stroke-opacity: 0.8;"/></g></g><g class="test-xtl" style="font-family: &quot;Open Sans&quot;, verdana, arial, sans-serif;"/><g class="test-ytl" style="font-family: &quot;Open Sans&quot;, verdana, arial, sans-serif;"/><rect class="real" x="1" y="1" width="349.83331298828125" height="303.3333320617676" style="fill: transparent; stroke: none;"/></g></g></g><g class="arrow-line"><path class="connection real" stroke-dasharray="" d="  M175.33,227 L138.75,295.36" style="stroke: rgb(62, 150, 164); stroke-opacity: 0.8; stroke-width: 1; fill: none; fill-opacity: 1;"/><g stroke="none" fill="rgb(62,150,164)" fill-opacity="0.8" transform="matrix(0.4719353838833722,-0.8816331399390872,0.8816331399390872,0.4719353838833722,137.33331298828125,298)" style="stroke: none; fill: rgb(62, 150, 164); stroke-width: 1;"><path d=" M6.25,-3 L0,0 L6.25,3 Z"/></g></g><g class="arrow-line"><path class="connection real" stroke-dasharray="" d="  M255.33,230 L281.05,284.29" style="stroke: rgb(74, 144, 226); stroke-opacity: 1; stroke-width: 1; fill: none; fill-opacity: 1;"/><g stroke="none" fill="rgb(74,144,226)" fill-opacity="1" transform="matrix(-0.42814666142132307,-0.9037092653689985,0.9037092653689985,-0.42814666142132307,282.33331298828125,287)" style="stroke: none; fill: rgb(74, 144, 226); stroke-width: 1;"><path d=" M6.25,-3 L0,0 L6.25,3 Z"/></g></g><g class="composite-shape"><path class="real" d=" M162.79,54.91 C160.26,58.86 155.63,61.5 150.33,61.5 C147.92,61.5 145.65,60.95 143.65,59.98 L150.33,48 Z" style="stroke-width: 1; stroke: none; fill: rgb(74, 144, 226); fill-opacity: 0.5;"/><path class="real" d=" M162.79,54.91 C160.26,58.86 155.63,61.5 150.33,61.5 C147.92,61.5 145.65,60.95 143.65,59.98" style="stroke-width: 1; stroke: rgb(0, 0, 0); fill: none; fill-opacity: 0.5;"/></g><g class="arrow-line"><path class="connection real" stroke-dasharray="6 6" d="  M150.33,48 L266.33,113" style="stroke: rgb(0, 0, 0); stroke-width: 1; fill: none; fill-opacity: 1;"/></g><g class="arrow-line"><path class="connection real" stroke-dasharray="6 6" d="  M150.33,48 L95.33,145" style="stroke: rgb(0, 0, 0); stroke-width: 1; fill: none; fill-opacity: 1;"/></g><g class="composite-shape"><path class="real" d=" M147.58,48 C147.58,46.48 148.81,45.25 150.33,45.25 C151.85,45.25 153.08,46.48 153.08,48 C153.08,49.52 151.85,50.75 150.33,50.75 C148.81,50.75 147.58,49.52 147.58,48 Z" style="stroke-width: 1; stroke: none; stroke-opacity: 1; fill: rgb(214, 67, 102); fill-opacity: 0.8;"/></g><g class="composite-shape"><path class="real" d=" M263.58,113 C263.58,111.48 264.81,110.25 266.33,110.25 C267.85,110.25 269.08,111.48 269.08,113 C269.08,114.52 267.85,115.75 266.33,115.75 C264.81,115.75 263.58,114.52 263.58,113 Z" style="stroke-width: 1; stroke: none; stroke-opacity: 1; fill: rgb(214, 67, 102); fill-opacity: 0.8;"/></g><g class="composite-shape"><path class="real" d=" M92.58,145 C92.58,143.48 93.81,142.25 95.33,142.25 C96.85,142.25 98.08,143.48 98.08,145 C98.08,146.52 96.85,147.75 95.33,147.75 C93.81,147.75 92.58,146.52 92.58,145 Z" style="stroke-width: 1; stroke: none; stroke-opacity: 1; fill: rgb(214, 67, 102); fill-opacity: 0.8;"/></g><g class="composite-shape"><path class="real" d=" M92.58,192 C92.58,190.48 93.81,189.25 95.33,189.25 C96.85,189.25 98.08,190.48 98.08,192 C98.08,193.52 96.85,194.75 95.33,194.75 C93.81,194.75 92.58,193.52 92.58,192 Z" style="stroke-width: 1; stroke: none; stroke-opacity: 1; fill: rgb(214, 67, 102); fill-opacity: 0.8;"/></g><g class="arrow-line"><path class="connection real" stroke-dasharray="6 6" d="  M95.33,192 L215.33,243" style="stroke: rgb(0, 0, 0); stroke-width: 1; fill: none; fill-opacity: 1;"/></g><g class="composite-shape"><path class="real" d=" M212.58,243 C212.58,241.48 213.81,240.25 215.33,240.25 C216.85,240.25 218.08,241.48 218.08,243 C218.08,244.52 216.85,245.75 215.33,245.75 C213.81,245.75 212.58,244.52 212.58,243 Z" style="stroke-width: 1; stroke: none; stroke-opacity: 1; fill: rgb(214, 67, 102); fill-opacity: 0.8;"/></g><g class="composite-shape"><path class="real" d=" M170.25,225.33 C170.25,223.81 171.48,222.58 173,222.58 C174.52,222.58 175.75,223.81 175.75,225.33 C175.75,226.85 174.52,228.08 173,228.08 C171.48,228.08 170.25,226.85 170.25,225.33 Z" style="stroke-width: 1; stroke: none; stroke-opacity: 1; fill: rgb(214, 67, 102); fill-opacity: 0.8;"/></g><g class="composite-shape"><path class="real" d=" M199.75,181.78 C198.63,182.03 197.47,182.17 196.27,182.17 C189.42,182.17 183.68,177.75 182.16,171.8 L196.27,168.67 Z" style="stroke-width: 1; stroke: none; fill: rgb(74, 144, 226); fill-opacity: 0.5;"/><path class="real" d=" M199.75,181.78 C198.63,182.03 197.47,182.17 196.27,182.17 C189.42,182.17 183.68,177.75 182.16,171.8" style="stroke-width: 1; stroke: rgb(0, 0, 0); fill: none; fill-opacity: 0.5;"/></g><g class="arrow-line"><path class="connection real" stroke-dasharray="6 6" d="  M215.33,243 L196.27,168.67" style="stroke: rgb(0, 0, 0); stroke-width: 1; fill: none; fill-opacity: 1;"/></g><g class="arrow-line"><path class="connection real" stroke-dasharray="6 6" d="  M196.27,168.67 L95.33,192" style="stroke: rgb(0, 0, 0); stroke-width: 1; fill: none; fill-opacity: 1;"/></g><g/></g><g/><g/><g/></svg>
        <svg xmlns="http://www.w3.org/2000/svg" xmlns:xlink="http://www.w3.org/1999/xlink" width="392" height="327.66668701171875" style="width:392px;height:327.66668701171875px;font-family:Asana-Math, Asana;background:transparent;"><g><g><g><g transform="matrix(1,0,0,1,200.45831298828125,164.39584350585938)"><path transform="matrix(0.017,0,0,-0.017,0,0)" d="M748 425C748 603 644 706 464 706C227 706 53 523 53 272C53 83 147 -18 323 -18C595 -18 748 207 748 425ZM660 409C660 221 571 24 360 24C216 24 141 110 141 277C141 425 199 664 433 664C549 664 660 610 660 409Z" stroke="rgb(0,0,0)" stroke-opacity="1" stroke-width="8" fill="rgb(0,0,0)" fill-opacity="1"></path></g></g></g></g><g><g><g><g transform="matrix(1,0,0,1,282.66668701171875,164)"><path transform="matrix(0.017,0,0,-0.017,0,0)" d="M45 284C45 90 152 -18 343 -18C439 -18 510 5 600 67C600 67 610 103 610 103C610 103 600 110 600 110C506 53 454 35 376 35C219 35 133 131 133 309C133 447 190 653 418 653C489 653 541 639 597 603L597 519L624 519C629 576 637 619 651 665C575 694 518 706 456 706C276 706 45 578 45 284Z" stroke="rgb(74,144,226)" stroke-opacity="1" stroke-width="8" fill="rgb(74,144,226)" fill-opacity="1"></path></g></g></g></g><g><g><g><g transform="matrix(1,0,0,1,329.66668701171875,164)"><path transform="matrix(0.017,0,0,-0.017,0,0)" d="M221 334L338 334L470 330L489 375L485 382C404 378 344 376 266 376L229 376L276 646C308 647 391 650 413 650C475 650 516 641 517 626L525 537L549 537C552 601 559 651 570 689C549 691 519 692 501 692C498 692 487 692 463 691L343 690C334 689 160 691 150 691L105 692L102 664L156 662C180 661 191 653 191 635C191 621 187 589 182 559L95 55C91 37 79 30 35 23L30 -3L71 -2C102 -1 164 0 184 0L409 -3C423 -3 448 -2 481 -1L514 0L518 36C520 56 525 86 534 135L539 161L512 161L496 101C486 65 477 53 455 48C435 44 362 39 308 39C267 39 240 40 171 46Z" stroke="rgb(245,130,49)" stroke-opacity="1" stroke-width="8" fill="rgb(245,130,49)" fill-opacity="1"></path></g></g></g></g><g><g><g><g transform="matrix(1,0,0,1,239.66668701171875,164)"><path transform="matrix(0.017,0,0,-0.017,0,0)" d="M286 646L392 650C454 650 494 641 495 626L503 537L527 537C530 600 537 651 548 689C526 691 498 692 481 692L440 691L275 689L246 689C221 689 181 690 143 691L94 692L91 664L147 662C171 661 182 652 182 635C182 621 178 589 173 559L98 125C81 33 81 32 40 28L4 25L0 -3L34 -2C74 -1 106 0 127 0C145 0 174 -1 213 -2L265 -3L268 25L204 28C177 29 168 37 168 57C168 63 169 74 170 78L206 301L323 301C350 301 381 300 429 298L455 297L474 342L470 349C389 345 329 343 251 343L214 343L260 614C263 630 264 635 269 646Z" stroke="rgb(62,150,164)" stroke-opacity="1" stroke-width="8" fill="rgb(62,150,164)" fill-opacity="1"></path></g></g></g></g><g><g><g><g transform="matrix(1,0,0,1,281.66668701171875,300.09168701171876)"><path transform="matrix(0.015300000000000001,0,0,-0.015300000000000001,0,0)" d="M45 284C45 90 152 -18 343 -18C439 -18 510 5 600 67C600 67 610 103 610 103C610 103 600 110 600 110C506 53 454 35 376 35C219 35 133 131 133 309C133 447 190 653 418 653C489 653 541 639 597 603L597 519L624 519C629 576 637 619 651 665C575 694 518 706 456 706C276 706 45 578 45 284Z" stroke="rgb(74,144,226)" stroke-opacity="1" stroke-width="8" fill="rgb(74,144,226)" fill-opacity="1"></path></g></g><g><g transform="matrix(1,0,0,1,295.23956298828125,300.09168701171876)"><path transform="matrix(0.015300000000000001,0,0,-0.015300000000000001,0,0)" d="M123 111C93 111 66 83 66 53C66 23 93 -5 122 -5C154 -5 182 22 182 53C182 83 154 111 123 111ZM123 456C93 456 66 428 66 398C66 368 93 340 122 340C154 340 182 367 182 397C182 428 154 456 123 456Z" stroke="rgb(74,144,226)" stroke-opacity="1" stroke-width="8" fill="rgb(74,144,226)" fill-opacity="1"></path></g></g><g><g><g><g><g transform="matrix(1,0,0,1,303.625,289.7375)"><path transform="matrix(0.015300000000000001,0,0,-0.015300000000000001,0,0)" d="M9 1C24 -7 40 -11 52 -11C85 -11 124 18 155 65L231 182L242 113C255 28 278 -11 314 -11C336 -11 368 6 400 35L449 79L440 98C404 68 379 53 363 53C348 53 335 63 325 83C316 102 305 139 300 168L282 269L317 318C364 383 391 406 422 406C438 406 450 398 455 383L469 387L484 472C472 479 463 482 454 482C414 482 374 446 312 354L275 299L269 347C257 446 230 482 171 482C145 482 123 474 114 461L56 378L73 368C103 402 123 416 142 416C175 416 197 375 214 277L225 215L185 153C142 86 108 54 80 54C65 54 54 58 52 63L41 91L21 88C21 53 13 27 9 1Z" stroke="rgb(74,144,226)" stroke-opacity="1" stroke-width="8" fill="rgb(74,144,226)" fill-opacity="1"></path></g></g><g><g><g><g><g transform="matrix(1,0,0,1,312.14581298828125,284.37668701171873)"><path transform="matrix(0.01071,0,0,-0.01071,0,0)" d="M16 23L16 -3C203 -3 203 0 239 0C275 0 275 -3 468 -3L468 82C353 77 307 81 122 77L304 270C401 373 431 428 431 503C431 618 353 689 226 689C154 689 105 669 56 619L39 483L68 483L81 529C97 587 133 612 200 612C286 612 341 558 341 473C341 398 299 324 186 204Z" stroke="rgb(74,144,226)" stroke-opacity="1" stroke-width="8" fill="rgb(74,144,226)" fill-opacity="1"></path></g></g></g></g></g></g></g><g><g><g><g transform="matrix(1,0,0,1,304.05206298828125,313.8833435058594)"><path transform="matrix(0.015300000000000001,0,0,-0.015300000000000001,0,0)" d="M271 204L242 77C238 60 236 42 236 26C236 4 245 -9 260 -9C283 -9 324 17 406 85L399 106C375 86 346 59 324 59C315 59 309 68 309 82C309 87 309 90 310 93L402 472L392 481L359 463C318 478 301 482 274 482C246 482 226 477 199 464C137 433 104 403 79 354C35 265 4 145 4 67C4 23 19 -11 38 -11C75 -11 155 41 271 204ZM319 414C297 305 278 253 244 201C187 117 126 59 94 59C82 59 76 72 76 99C76 163 104 280 139 360C163 415 186 433 234 433C257 433 275 429 319 414Z" stroke="rgb(74,144,226)" stroke-opacity="1" stroke-width="8" fill="rgb(74,144,226)" fill-opacity="1"></path></g></g><g><g><g><g><g transform="matrix(1,0,0,1,311.71875,308.5225)"><path transform="matrix(0.01071,0,0,-0.01071,0,0)" d="M16 23L16 -3C203 -3 203 0 239 0C275 0 275 -3 468 -3L468 82C353 77 307 81 122 77L304 270C401 373 431 428 431 503C431 618 353 689 226 689C154 689 105 669 56 619L39 483L68 483L81 529C97 587 133 612 200 612C286 612 341 558 341 473C341 398 299 324 186 204Z" stroke="rgb(74,144,226)" stroke-opacity="1" stroke-width="8" fill="rgb(74,144,226)" fill-opacity="1"></path></g></g></g></g></g></g></g><line style="fill:none;stroke-width:0.666667px;stroke:rgb(74, 144, 226);" x1="303.625" y1="296.30210369825363" x2="318.40625" y2="296.30210369825363"></line></g><g><g transform="matrix(1,0,0,1,322.97918701171875,300.09168701171876)"><path transform="matrix(0.015300000000000001,0,0,-0.015300000000000001,0,0)" d="M604 241L604 300L364 300L364 538L305 538L305 300L65 300L65 241L305 241L305 0L364 0L364 241Z" stroke="rgb(74,144,226)" stroke-opacity="1" stroke-width="8" fill="rgb(74,144,226)" fill-opacity="1"></path></g></g><g><g><g><g><g transform="matrix(1,0,0,1,337.78125,289.7375)"><path transform="matrix(0.015300000000000001,0,0,-0.015300000000000001,0,0)" d="M-7 -180C-8 -187 -8 -193 -8 -198C-8 -241 29 -276 74 -276C180 -276 290 -152 349 33L490 473L479 482C450 471 427 465 405 463L370 331C358 284 323 211 290 162C255 111 206 67 184 67C172 67 163 90 164 115L180 322C182 353 184 391 184 419C184 464 177 482 160 482C147 482 133 475 85 442L3 386L14 368L64 398C69 401 80 410 89 410C103 410 111 391 111 358C111 357 111 351 110 343L93 100L92 60C92 18 110 -11 135 -11C172 -11 256 74 331 187L282 16C231 -161 181 -234 111 -234C76 -234 49 -207 49 -172C49 -167 50 -159 51 -150L41 -146Z" stroke="rgb(74,144,226)" stroke-opacity="1" stroke-width="8" fill="rgb(74,144,226)" fill-opacity="1"></path></g></g><g><g><g><g><g transform="matrix(1,0,0,1,346.30206298828125,284.37668701171873)"><path transform="matrix(0.01071,0,0,-0.01071,0,0)" d="M16 23L16 -3C203 -3 203 0 239 0C275 0 275 -3 468 -3L468 82C353 77 307 81 122 77L304 270C401 373 431 428 431 503C431 618 353 689 226 689C154 689 105 669 56 619L39 483L68 483L81 529C97 587 133 612 200 612C286 612 341 558 341 473C341 398 299 324 186 204Z" stroke="rgb(74,144,226)" stroke-opacity="1" stroke-width="8" fill="rgb(74,144,226)" fill-opacity="1"></path></g></g></g></g></g></g></g><g><g><g><g transform="matrix(1,0,0,1,338.0625,313.8833435058594)"><path transform="matrix(0.015300000000000001,0,0,-0.015300000000000001,0,0)" d="M235 722L223 733C171 707 135 698 63 691L59 670L107 670C131 670 141 663 141 646C141 639 140 628 139 622L38 71C37 68 37 64 37 61C37 22 85 -11 140 -11C177 -11 228 8 271 39C367 107 433 244 433 376C433 414 424 453 412 468C405 477 392 482 377 482C353 482 323 474 295 460C244 433 211 403 149 324ZM322 424C348 424 361 401 361 352C361 288 340 202 310 137C277 68 237 36 183 36C137 36 112 59 112 101C112 135 127 276 208 361C241 395 293 424 322 424Z" stroke="rgb(74,144,226)" stroke-opacity="1" stroke-width="8" fill="rgb(74,144,226)" fill-opacity="1"></path></g></g><g><g><g><g><g transform="matrix(1,0,0,1,346.02081298828125,308.5225)"><path transform="matrix(0.01071,0,0,-0.01071,0,0)" d="M16 23L16 -3C203 -3 203 0 239 0C275 0 275 -3 468 -3L468 82C353 77 307 81 122 77L304 270C401 373 431 428 431 503C431 618 353 689 226 689C154 689 105 669 56 619L39 483L68 483L81 529C97 587 133 612 200 612C286 612 341 558 341 473C341 398 299 324 186 204Z" stroke="rgb(74,144,226)" stroke-opacity="1" stroke-width="8" fill="rgb(74,144,226)" fill-opacity="1"></path></g></g></g></g></g></g></g><line style="fill:none;stroke-width:0.666667px;stroke:rgb(74, 144, 226);" x1="337.78125" y1="296.30210369825363" x2="352.5625" y2="296.30210369825363"></line></g><g><g transform="matrix(1,0,0,1,358.66668701171875,300.09168701171876)"><path transform="matrix(0.015300000000000001,0,0,-0.015300000000000001,0,0)" d="M604 347L604 406L65 406L65 347ZM604 134L604 193L65 193L65 134Z" stroke="rgb(74,144,226)" stroke-opacity="1" stroke-width="8" fill="rgb(74,144,226)" fill-opacity="1"></path></g></g><g><g transform="matrix(1,0,0,1,373.47918701171875,300.09168701171876)"><path transform="matrix(0.015300000000000001,0,0,-0.015300000000000001,0,0)" d="M418 -3L418 27L366 30C311 33 301 44 301 96L301 700L60 598L67 548L217 614L217 96C217 44 206 33 152 30L96 27L96 -3C250 0 250 0 261 0C292 0 402 -3 418 -3Z" stroke="rgb(74,144,226)" stroke-opacity="1" stroke-width="8" fill="rgb(74,144,226)" fill-opacity="1"></path></g></g></g></g><g><g><g><g transform="matrix(1,0,0,1,10.66668701171875,314.7375)"><path transform="matrix(0.015300000000000001,0,0,-0.015300000000000001,0,0)" d="M286 646L392 650C454 650 494 641 495 626L503 537L527 537C530 600 537 651 548 689C526 691 498 692 481 692L440 691L275 689L246 689C221 689 181 690 143 691L94 692L91 664L147 662C171 661 182 652 182 635C182 621 178 589 173 559L98 125C81 33 81 32 40 28L4 25L0 -3L34 -2C74 -1 106 0 127 0C145 0 174 -1 213 -2L265 -3L268 25L204 28C177 29 168 37 168 57C168 63 169 74 170 78L206 301L323 301C350 301 381 300 429 298L455 297L474 342L470 349C389 345 329 343 251 343L214 343L260 614C263 630 264 635 269 646Z" stroke="rgb(62,150,164)" stroke-opacity="1" stroke-width="8" fill="rgb(62,150,164)" fill-opacity="1"></path></g></g><g><g transform="matrix(1,0,0,1,22.21875,314.7375)"><path transform="matrix(0.015300000000000001,0,0,-0.015300000000000001,0,0)" d="M123 111C93 111 66 83 66 53C66 23 93 -5 122 -5C154 -5 182 22 182 53C182 83 154 111 123 111ZM123 456C93 456 66 428 66 398C66 368 93 340 122 340C154 340 182 367 182 397C182 428 154 456 123 456Z" stroke="rgb(62,150,164)" stroke-opacity="1" stroke-width="8" fill="rgb(62,150,164)" fill-opacity="1"></path></g></g><g><g transform="matrix(1,0,0,1,29.08331298828125,314.7375)"><path transform="matrix(0.015300000000000001,0,0,-0.015300000000000001,0,0)" d="M9 1C24 -7 40 -11 52 -11C85 -11 124 18 155 65L231 182L242 113C255 28 278 -11 314 -11C336 -11 368 6 400 35L449 79L440 98C404 68 379 53 363 53C348 53 335 63 325 83C316 102 305 139 300 168L282 269L317 318C364 383 391 406 422 406C438 406 450 398 455 383L469 387L484 472C472 479 463 482 454 482C414 482 374 446 312 354L275 299L269 347C257 446 230 482 171 482C145 482 123 474 114 461L56 378L73 368C103 402 123 416 142 416C175 416 197 375 214 277L225 215L185 153C142 86 108 54 80 54C65 54 54 58 52 63L41 91L21 88C21 53 13 27 9 1Z" stroke="rgb(62,150,164)" stroke-opacity="1" stroke-width="8" fill="rgb(62,150,164)" fill-opacity="1"></path></g></g><g><g><g><g><g transform="matrix(1,0,0,1,37.60418701171875,309.37668701171873)"><path transform="matrix(0.01071,0,0,-0.01071,0,0)" d="M16 23L16 -3C203 -3 203 0 239 0C275 0 275 -3 468 -3L468 82C353 77 307 81 122 77L304 270C401 373 431 428 431 503C431 618 353 689 226 689C154 689 105 669 56 619L39 483L68 483L81 529C97 587 133 612 200 612C286 612 341 558 341 473C341 398 299 324 186 204Z" stroke="rgb(62,150,164)" stroke-opacity="1" stroke-width="8" fill="rgb(62,150,164)" fill-opacity="1"></path></g></g></g></g></g><g><g transform="matrix(1,0,0,1,46.91668701171875,314.7375)"><path transform="matrix(0.015300000000000001,0,0,-0.015300000000000001,0,0)" d="M604 241L604 300L364 300L364 538L305 538L305 300L65 300L65 241L305 241L305 0L364 0L364 241Z" stroke="rgb(62,150,164)" stroke-opacity="1" stroke-width="8" fill="rgb(62,150,164)" fill-opacity="1"></path></g></g><g><g transform="matrix(1,0,0,1,60.19793701171875,314.7375)"><path transform="matrix(0.015300000000000001,0,0,-0.015300000000000001,0,0)" d="M-7 -180C-8 -187 -8 -193 -8 -198C-8 -241 29 -276 74 -276C180 -276 290 -152 349 33L490 473L479 482C450 471 427 465 405 463L370 331C358 284 323 211 290 162C255 111 206 67 184 67C172 67 163 90 164 115L180 322C182 353 184 391 184 419C184 464 177 482 160 482C147 482 133 475 85 442L3 386L14 368L64 398C69 401 80 410 89 410C103 410 111 391 111 358C111 357 111 351 110 343L93 100L92 60C92 18 110 -11 135 -11C172 -11 256 74 331 187L282 16C231 -161 181 -234 111 -234C76 -234 49 -207 49 -172C49 -167 50 -159 51 -150L41 -146Z" stroke="rgb(62,150,164)" stroke-opacity="1" stroke-width="8" fill="rgb(62,150,164)" fill-opacity="1"></path></g></g><g><g><g><g><g transform="matrix(1,0,0,1,68.71875,309.37668701171873)"><path transform="matrix(0.01071,0,0,-0.01071,0,0)" d="M16 23L16 -3C203 -3 203 0 239 0C275 0 275 -3 468 -3L468 82C353 77 307 81 122 77L304 270C401 373 431 428 431 503C431 618 353 689 226 689C154 689 105 669 56 619L39 483L68 483L81 529C97 587 133 612 200 612C286 612 341 558 341 473C341 398 299 324 186 204Z" stroke="rgb(62,150,164)" stroke-opacity="1" stroke-width="8" fill="rgb(62,150,164)" fill-opacity="1"></path></g></g></g></g></g><g><g transform="matrix(1,0,0,1,79.5625,314.7375)"><path transform="matrix(0.015300000000000001,0,0,-0.015300000000000001,0,0)" d="M604 347L604 406L65 406L65 347ZM604 134L604 193L65 193L65 134Z" stroke="rgb(62,150,164)" stroke-opacity="1" stroke-width="8" fill="rgb(62,150,164)" fill-opacity="1"></path></g></g><g><g transform="matrix(1,0,0,1,94.375,314.7375)"><path transform="matrix(0.015300000000000001,0,0,-0.015300000000000001,0,0)" d="M271 204L242 77C238 60 236 42 236 26C236 4 245 -9 260 -9C283 -9 324 17 406 85L399 106C375 86 346 59 324 59C315 59 309 68 309 82C309 87 309 90 310 93L402 472L392 481L359 463C318 478 301 482 274 482C246 482 226 477 199 464C137 433 104 403 79 354C35 265 4 145 4 67C4 23 19 -11 38 -11C75 -11 155 41 271 204ZM319 414C297 305 278 253 244 201C187 117 126 59 94 59C82 59 76 72 76 99C76 163 104 280 139 360C163 415 186 433 234 433C257 433 275 429 319 414Z" stroke="rgb(62,150,164)" stroke-opacity="1" stroke-width="8" fill="rgb(62,150,164)" fill-opacity="1"></path></g></g><g><g><g><g><g transform="matrix(1,0,0,1,102.04168701171875,309.37668701171873)"><path transform="matrix(0.01071,0,0,-0.01071,0,0)" d="M16 23L16 -3C203 -3 203 0 239 0C275 0 275 -3 468 -3L468 82C353 77 307 81 122 77L304 270C401 373 431 428 431 503C431 618 353 689 226 689C154 689 105 669 56 619L39 483L68 483L81 529C97 587 133 612 200 612C286 612 341 558 341 473C341 398 299 324 186 204Z" stroke="rgb(62,150,164)" stroke-opacity="1" stroke-width="8" fill="rgb(62,150,164)" fill-opacity="1"></path></g></g></g></g></g><g><g transform="matrix(1,0,0,1,111.35418701171875,314.7375)"><path transform="matrix(0.015300000000000001,0,0,-0.015300000000000001,0,0)" d="M604 241L604 300L364 300L364 538L305 538L305 300L65 300L65 241L305 241L305 0L364 0L364 241Z" stroke="rgb(62,150,164)" stroke-opacity="1" stroke-width="8" fill="rgb(62,150,164)" fill-opacity="1"></path></g></g><g><g transform="matrix(1,0,0,1,124.63543701171875,314.7375)"><path transform="matrix(0.015300000000000001,0,0,-0.015300000000000001,0,0)" d="M235 722L223 733C171 707 135 698 63 691L59 670L107 670C131 670 141 663 141 646C141 639 140 628 139 622L38 71C37 68 37 64 37 61C37 22 85 -11 140 -11C177 -11 228 8 271 39C367 107 433 244 433 376C433 414 424 453 412 468C405 477 392 482 377 482C353 482 323 474 295 460C244 433 211 403 149 324ZM322 424C348 424 361 401 361 352C361 288 340 202 310 137C277 68 237 36 183 36C137 36 112 59 112 101C112 135 127 276 208 361C241 395 293 424 322 424Z" stroke="rgb(62,150,164)" stroke-opacity="1" stroke-width="8" fill="rgb(62,150,164)" fill-opacity="1"></path></g></g><g><g><g><g><g transform="matrix(1,0,0,1,132.59375,309.37668701171873)"><path transform="matrix(0.01071,0,0,-0.01071,0,0)" d="M16 23L16 -3C203 -3 203 0 239 0C275 0 275 -3 468 -3L468 82C353 77 307 81 122 77L304 270C401 373 431 428 431 503C431 618 353 689 226 689C154 689 105 669 56 619L39 483L68 483L81 529C97 587 133 612 200 612C286 612 341 558 341 473C341 398 299 324 186 204Z" stroke="rgb(62,150,164)" stroke-opacity="1" stroke-width="8" fill="rgb(62,150,164)" fill-opacity="1"></path></g></g></g></g></g></g></g><g><g><g><g transform="matrix(1,0,0,1,255.66668701171875,46.091671752929685)"><path transform="matrix(0.015300000000000001,0,0,-0.015300000000000001,0,0)" d="M221 334L338 334L470 330L489 375L485 382C404 378 344 376 266 376L229 376L276 646C308 647 391 650 413 650C475 650 516 641 517 626L525 537L549 537C552 601 559 651 570 689C549 691 519 692 501 692C498 692 487 692 463 691L343 690C334 689 160 691 150 691L105 692L102 664L156 662C180 661 191 653 191 635C191 621 187 589 182 559L95 55C91 37 79 30 35 23L30 -3L71 -2C102 -1 164 0 184 0L409 -3C423 -3 448 -2 481 -1L514 0L518 36C520 56 525 86 534 135L539 161L512 161L496 101C486 65 477 53 455 48C435 44 362 39 308 39C267 39 240 40 171 46Z" stroke="rgb(245,130,49)" stroke-opacity="1" stroke-width="8" fill="rgb(245,130,49)" fill-opacity="1"></path></g></g><g><g transform="matrix(1,0,0,1,268.05206298828125,46.091671752929685)"><path transform="matrix(0.015300000000000001,0,0,-0.015300000000000001,0,0)" d="M123 111C93 111 66 83 66 53C66 23 93 -5 122 -5C154 -5 182 22 182 53C182 83 154 111 123 111ZM123 456C93 456 66 428 66 398C66 368 93 340 122 340C154 340 182 367 182 397C182 428 154 456 123 456Z" stroke="rgb(245,130,49)" stroke-opacity="1" stroke-width="8" fill="rgb(245,130,49)" fill-opacity="1"></path></g></g><g><g transform="matrix(1,0,0,1,274.91668701171875,46.091671752929685)"><path transform="matrix(0.015300000000000001,0,0,-0.015300000000000001,0,0)" d="M9 1C24 -7 40 -11 52 -11C85 -11 124 18 155 65L231 182L242 113C255 28 278 -11 314 -11C336 -11 368 6 400 35L449 79L440 98C404 68 379 53 363 53C348 53 335 63 325 83C316 102 305 139 300 168L282 269L317 318C364 383 391 406 422 406C438 406 450 398 455 383L469 387L484 472C472 479 463 482 454 482C414 482 374 446 312 354L275 299L269 347C257 446 230 482 171 482C145 482 123 474 114 461L56 378L73 368C103 402 123 416 142 416C175 416 197 375 214 277L225 215L185 153C142 86 108 54 80 54C65 54 54 58 52 63L41 91L21 88C21 53 13 27 9 1Z" stroke="rgb(245,130,49)" stroke-opacity="1" stroke-width="8" fill="rgb(245,130,49)" fill-opacity="1"></path></g></g><g><g><g><g><g transform="matrix(1,0,0,1,283.4375,40.730843505859376)"><path transform="matrix(0.01071,0,0,-0.01071,0,0)" d="M16 23L16 -3C203 -3 203 0 239 0C275 0 275 -3 468 -3L468 82C353 77 307 81 122 77L304 270C401 373 431 428 431 503C431 618 353 689 226 689C154 689 105 669 56 619L39 483L68 483L81 529C97 587 133 612 200 612C286 612 341 558 341 473C341 398 299 324 186 204Z" stroke="rgb(245,130,49)" stroke-opacity="1" stroke-width="8" fill="rgb(245,130,49)" fill-opacity="1"></path></g></g></g></g></g><g><g transform="matrix(1,0,0,1,292.75,46.091671752929685)"><path transform="matrix(0.015300000000000001,0,0,-0.015300000000000001,0,0)" d="M604 241L604 300L364 300L364 538L305 538L305 300L65 300L65 241L305 241L305 0L364 0L364 241Z" stroke="rgb(245,130,49)" stroke-opacity="1" stroke-width="8" fill="rgb(245,130,49)" fill-opacity="1"></path></g></g><g><g transform="matrix(1,0,0,1,306.03125,46.091671752929685)"><path transform="matrix(0.015300000000000001,0,0,-0.015300000000000001,0,0)" d="M-7 -180C-8 -187 -8 -193 -8 -198C-8 -241 29 -276 74 -276C180 -276 290 -152 349 33L490 473L479 482C450 471 427 465 405 463L370 331C358 284 323 211 290 162C255 111 206 67 184 67C172 67 163 90 164 115L180 322C182 353 184 391 184 419C184 464 177 482 160 482C147 482 133 475 85 442L3 386L14 368L64 398C69 401 80 410 89 410C103 410 111 391 111 358C111 357 111 351 110 343L93 100L92 60C92 18 110 -11 135 -11C172 -11 256 74 331 187L282 16C231 -161 181 -234 111 -234C76 -234 49 -207 49 -172C49 -167 50 -159 51 -150L41 -146Z" stroke="rgb(245,130,49)" stroke-opacity="1" stroke-width="8" fill="rgb(245,130,49)" fill-opacity="1"></path></g></g><g><g><g><g><g transform="matrix(1,0,0,1,314.55206298828125,40.730843505859376)"><path transform="matrix(0.01071,0,0,-0.01071,0,0)" d="M16 23L16 -3C203 -3 203 0 239 0C275 0 275 -3 468 -3L468 82C353 77 307 81 122 77L304 270C401 373 431 428 431 503C431 618 353 689 226 689C154 689 105 669 56 619L39 483L68 483L81 529C97 587 133 612 200 612C286 612 341 558 341 473C341 398 299 324 186 204Z" stroke="rgb(245,130,49)" stroke-opacity="1" stroke-width="8" fill="rgb(245,130,49)" fill-opacity="1"></path></g></g></g></g></g><g><g transform="matrix(1,0,0,1,325.39581298828125,46.091671752929685)"><path transform="matrix(0.015300000000000001,0,0,-0.015300000000000001,0,0)" d="M604 347L604 406L65 406L65 347ZM604 134L604 193L65 193L65 134Z" stroke="rgb(245,130,49)" stroke-opacity="1" stroke-width="8" fill="rgb(245,130,49)" fill-opacity="1"></path></g></g><g><g><g><g><g transform="matrix(1,0,0,1,349.89581298828125,35.7375)"><path transform="matrix(0.015300000000000001,0,0,-0.015300000000000001,0,0)" d="M271 204L242 77C238 60 236 42 236 26C236 4 245 -9 260 -9C283 -9 324 17 406 85L399 106C375 86 346 59 324 59C315 59 309 68 309 82C309 87 309 90 310 93L402 472L392 481L359 463C318 478 301 482 274 482C246 482 226 477 199 464C137 433 104 403 79 354C35 265 4 145 4 67C4 23 19 -11 38 -11C75 -11 155 41 271 204ZM319 414C297 305 278 253 244 201C187 117 126 59 94 59C82 59 76 72 76 99C76 163 104 280 139 360C163 415 186 433 234 433C257 433 275 429 319 414Z" stroke="rgb(245,130,49)" stroke-opacity="1" stroke-width="8" fill="rgb(245,130,49)" fill-opacity="1"></path></g></g><g><g><g><g><g transform="matrix(1,0,0,1,357.5625,30.37667175292969)"><path transform="matrix(0.01071,0,0,-0.01071,0,0)" d="M16 23L16 -3C203 -3 203 0 239 0C275 0 275 -3 468 -3L468 82C353 77 307 81 122 77L304 270C401 373 431 428 431 503C431 618 353 689 226 689C154 689 105 669 56 619L39 483L68 483L81 529C97 587 133 612 200 612C286 612 341 558 341 473C341 398 299 324 186 204Z" stroke="rgb(245,130,49)" stroke-opacity="1" stroke-width="8" fill="rgb(245,130,49)" fill-opacity="1"></path></g></g></g></g></g><g><g transform="matrix(1,0,0,1,363.82293701171875,35.7375)"><path transform="matrix(0.015300000000000001,0,0,-0.015300000000000001,0,0)" d="M235 722L223 733C171 707 135 698 63 691L59 670L107 670C131 670 141 663 141 646C141 639 140 628 139 622L38 71C37 68 37 64 37 61C37 22 85 -11 140 -11C177 -11 228 8 271 39C367 107 433 244 433 376C433 414 424 453 412 468C405 477 392 482 377 482C353 482 323 474 295 460C244 433 211 403 149 324ZM322 424C348 424 361 401 361 352C361 288 340 202 310 137C277 68 237 36 183 36C137 36 112 59 112 101C112 135 127 276 208 361C241 395 293 424 322 424Z" stroke="rgb(245,130,49)" stroke-opacity="1" stroke-width="8" fill="rgb(245,130,49)" fill-opacity="1"></path></g></g><g><g><g><g><g transform="matrix(1,0,0,1,371.78125,30.37667175292969)"><path transform="matrix(0.01071,0,0,-0.01071,0,0)" d="M16 23L16 -3C203 -3 203 0 239 0C275 0 275 -3 468 -3L468 82C353 77 307 81 122 77L304 270C401 373 431 428 431 503C431 618 353 689 226 689C154 689 105 669 56 619L39 483L68 483L81 529C97 587 133 612 200 612C286 612 341 558 341 473C341 398 299 324 186 204Z" stroke="rgb(245,130,49)" stroke-opacity="1" stroke-width="8" fill="rgb(245,130,49)" fill-opacity="1"></path></g></g></g></g></g></g></g><g><g><g><g transform="matrix(1,0,0,1,341.72918701171875,59.88334350585937)"><path transform="matrix(0.015300000000000001,0,0,-0.015300000000000001,0,0)" d="M271 204L242 77C238 60 236 42 236 26C236 4 245 -9 260 -9C283 -9 324 17 406 85L399 106C375 86 346 59 324 59C315 59 309 68 309 82C309 87 309 90 310 93L402 472L392 481L359 463C318 478 301 482 274 482C246 482 226 477 199 464C137 433 104 403 79 354C35 265 4 145 4 67C4 23 19 -11 38 -11C75 -11 155 41 271 204ZM319 414C297 305 278 253 244 201C187 117 126 59 94 59C82 59 76 72 76 99C76 163 104 280 139 360C163 415 186 433 234 433C257 433 275 429 319 414Z" stroke="rgb(245,130,49)" stroke-opacity="1" stroke-width="8" fill="rgb(245,130,49)" fill-opacity="1"></path></g></g><g><g><g><g><g transform="matrix(1,0,0,1,349.39581298828125,54.5225)"><path transform="matrix(0.01071,0,0,-0.01071,0,0)" d="M16 23L16 -3C203 -3 203 0 239 0C275 0 275 -3 468 -3L468 82C353 77 307 81 122 77L304 270C401 373 431 428 431 503C431 618 353 689 226 689C154 689 105 669 56 619L39 483L68 483L81 529C97 587 133 612 200 612C286 612 341 558 341 473C341 398 299 324 186 204Z" stroke="rgb(245,130,49)" stroke-opacity="1" stroke-width="8" fill="rgb(245,130,49)" fill-opacity="1"></path></g></g></g></g></g><g><g transform="matrix(1,0,0,1,358.70831298828125,59.88334350585937)"><path transform="matrix(0.015300000000000001,0,0,-0.015300000000000001,0,0)" d="M604 241L604 300L364 300L364 538L305 538L305 300L65 300L65 241L305 241L305 0L364 0L364 241Z" stroke="rgb(245,130,49)" stroke-opacity="1" stroke-width="8" fill="rgb(245,130,49)" fill-opacity="1"></path></g></g><g><g transform="matrix(1,0,0,1,371.98956298828125,59.88334350585937)"><path transform="matrix(0.015300000000000001,0,0,-0.015300000000000001,0,0)" d="M235 722L223 733C171 707 135 698 63 691L59 670L107 670C131 670 141 663 141 646C141 639 140 628 139 622L38 71C37 68 37 64 37 61C37 22 85 -11 140 -11C177 -11 228 8 271 39C367 107 433 244 433 376C433 414 424 453 412 468C405 477 392 482 377 482C353 482 323 474 295 460C244 433 211 403 149 324ZM322 424C348 424 361 401 361 352C361 288 340 202 310 137C277 68 237 36 183 36C137 36 112 59 112 101C112 135 127 276 208 361C241 395 293 424 322 424Z" stroke="rgb(245,130,49)" stroke-opacity="1" stroke-width="8" fill="rgb(245,130,49)" fill-opacity="1"></path></g></g><g><g><g><g><g transform="matrix(1,0,0,1,379.94793701171875,54.5225)"><path transform="matrix(0.01071,0,0,-0.01071,0,0)" d="M16 23L16 -3C203 -3 203 0 239 0C275 0 275 -3 468 -3L468 82C353 77 307 81 122 77L304 270C401 373 431 428 431 503C431 618 353 689 226 689C154 689 105 669 56 619L39 483L68 483L81 529C97 587 133 612 200 612C286 612 341 558 341 473C341 398 299 324 186 204Z" stroke="rgb(245,130,49)" stroke-opacity="1" stroke-width="8" fill="rgb(245,130,49)" fill-opacity="1"></path></g></g></g></g></g></g></g><line style="fill:none;stroke-width:0.666667px;stroke:rgb(245, 130, 49);" x1="341.72918701171875" y1="42.30208843946457" x2="386.2083549499512" y2="42.30208843946457"></line></g></g></g><g><g><g><g transform="matrix(1,0,0,1,144.66668701171875,42.3)"><path transform="matrix(0.015300000000000001,0,0,-0.015300000000000001,0,0)" d="M105 664L160 662C184 661 195 653 195 635L112 125C95 34 94 31 54 28L13 25L9 -3L51 -2C92 -1 123 0 141 0C158 0 187 -1 227 -2L280 -3L283 25L218 28C192 29 182 37 182 58C182 67 183 74 186 93L284 648C320 654 336 656 355 656C457 656 506 612 506 519C506 411 434 323 346 323C324 323 304 328 267 342L269 311C306 293 326 288 355 288C484 288 594 405 594 541C594 642 531 695 412 692L108 692Z" stroke="rgb(245,130,49)" stroke-opacity="1" stroke-width="8" fill="rgb(245,130,49)" fill-opacity="1"></path></g></g></g></g><g><g><g><g transform="matrix(1,0,0,1,78.66668701171875,146.49793701171876)"><path transform="matrix(0.015300000000000001,0,0,-0.015300000000000001,0,0)" d="M567 55C567 39 552 30 524 28L480 25L480 -3C582 0 582 0 602 0C622 0 622 0 724 -3L724 25L698 28C651 35 650 35 642 80L555 705L509 705L136 112C100 56 82 40 48 32L28 27L28 -3C120 0 120 0 140 0C159 0 161 0 247 -3L247 25L195 28C179 29 164 38 164 47C164 55 171 69 190 102L292 277L538 277L563 89L563 86C563 84 567 69 567 55ZM496 601L533 313L317 313Z" stroke="rgb(245,130,49)" stroke-opacity="1" stroke-width="8" fill="rgb(245,130,49)" fill-opacity="1"></path></g></g></g></g><g><g><g><g transform="matrix(1,0,0,1,271.66668701171875,110.3)"><path transform="matrix(0.015300000000000001,0,0,-0.015300000000000001,0,0)" d="M543 227C543 337 459 353 377 365C434 385 459 397 490 425C536 464 559 511 559 562C559 644 501 692 401 692C399 692 389 692 374 691L311 690C299 689 263 689 251 689C232 689 201 690 152 691L100 692L97 664L150 662C174 661 185 653 185 635C185 621 181 589 176 559L89 55C85 37 73 30 31 23L26 -3L63 -2C90 0 105 0 117 0C128 0 154 -1 180 -2L217 -3L237 -4C256 -5 269 -6 277 -6C392 -6 543 87 543 227ZM166 41L217 340L302 340C405 340 455 298 455 211C455 108 382 34 282 34C228 34 207 38 166 41ZM352 655C433 655 473 619 473 544C473 439 399 376 275 376L223 376L272 650C288 650 329 655 352 655Z" stroke="rgb(245,130,49)" stroke-opacity="1" stroke-width="8" fill="rgb(245,130,49)" fill-opacity="1"></path></g></g></g></g><g><g><g><g transform="matrix(1,0,0,1,176.45831298828125,220.89375)"><path transform="matrix(0.015300000000000001,0,0,-0.015300000000000001,0,0)" d="M105 664L160 662C184 661 195 653 195 635L112 125C95 34 94 31 54 28L13 25L9 -3L51 -2C92 -1 123 0 141 0C158 0 187 -1 227 -2L280 -3L283 25L218 28C192 29 182 37 182 58C182 67 183 74 186 93L284 648C320 654 336 656 355 656C457 656 506 612 506 519C506 411 434 323 346 323C324 323 304 328 267 342L269 311C306 293 326 288 355 288C484 288 594 405 594 541C594 642 531 695 412 692L108 692Z" stroke="rgb(62,150,164)" stroke-opacity="1" stroke-width="8" fill="rgb(62,150,164)" fill-opacity="1"></path></g></g></g></g><g><g><g><g transform="matrix(1,0,0,1,217.98956298828125,258.3)"><path transform="matrix(0.015300000000000001,0,0,-0.015300000000000001,0,0)" d="M543 227C543 337 459 353 377 365C434 385 459 397 490 425C536 464 559 511 559 562C559 644 501 692 401 692C399 692 389 692 374 691L311 690C299 689 263 689 251 689C232 689 201 690 152 691L100 692L97 664L150 662C174 661 185 653 185 635C185 621 181 589 176 559L89 55C85 37 73 30 31 23L26 -3L63 -2C90 0 105 0 117 0C128 0 154 -1 180 -2L217 -3L237 -4C256 -5 269 -6 277 -6C392 -6 543 87 543 227ZM166 41L217 340L302 340C405 340 455 298 455 211C455 108 382 34 282 34C228 34 207 38 166 41ZM352 655C433 655 473 619 473 544C473 439 399 376 275 376L223 376L272 650C288 650 329 655 352 655Z" stroke="rgb(62,150,164)" stroke-opacity="1" stroke-width="8" fill="rgb(62,150,164)" fill-opacity="1"></path></g></g></g></g><g><g><g><g transform="matrix(1,0,0,1,80.0625,201.3)"><path transform="matrix(0.015300000000000001,0,0,-0.015300000000000001,0,0)" d="M567 55C567 39 552 30 524 28L480 25L480 -3C582 0 582 0 602 0C622 0 622 0 724 -3L724 25L698 28C651 35 650 35 642 80L555 705L509 705L136 112C100 56 82 40 48 32L28 27L28 -3C120 0 120 0 140 0C159 0 161 0 247 -3L247 25L195 28C179 29 164 38 164 47C164 55 171 69 190 102L292 277L538 277L563 89L563 86C563 84 567 69 567 55ZM496 601L533 313L317 313Z" stroke="rgb(62,150,164)" stroke-opacity="1" stroke-width="8" fill="rgb(62,150,164)" fill-opacity="1"></path></g></g></g></g><g><g><g><g transform="matrix(1,0,0,1,169.26043701171875,192.14168701171874)"><path transform="matrix(0.0136,0,0,-0.0136,0,0)" d="M96 -20C207 16 255 39 309 85C406 168 457 283 457 417C457 586 376 689 244 689C116 689 20 589 20 455C20 340 95 256 199 256C233 256 272 267 290 282L360 340C352 172 243 49 62 5L62 -3ZM240 656C285 656 318 637 340 597C358 565 370 516 370 471C370 379 317 317 240 317C160 317 106 388 106 492C106 593 158 656 240 656ZM762 689C607 689 528 566 528 324C528 207 549 106 584 57C619 8 675 -20 737 -20C888 -20 964 110 964 366C964 585 899 689 762 689ZM744 654C841 654 880 556 880 316C880 103 842 15 750 15C653 15 612 116 612 360C612 571 649 654 744 654Z" stroke="rgb(0,0,0)" stroke-opacity="1" stroke-width="8" fill="rgb(0,0,0)" fill-opacity="1"></path></g></g><g><g><g><g><g transform="matrix(1,0,0,1,183.61456298828125,186.78043701171876)"><path transform="matrix(0.009519999999999999,0,0,-0.009519999999999999,0,0)" d="M342 271C342 352 277 417 195 417C112 417 47 352 47 271C47 188 112 124 195 124C277 124 342 188 342 271ZM304 271C304 209 254 161 195 161C133 161 85 209 85 271C85 331 133 380 195 380C254 380 304 331 304 271Z" stroke="rgb(0,0,0)" stroke-opacity="1" stroke-width="8" fill="rgb(0,0,0)" fill-opacity="1"></path></g></g></g></g></g></g></g><g><g><g><g transform="matrix(1,0,0,1,146.30206298828125,75.52709350585937)"><path transform="matrix(0.0136,0,0,-0.0136,0,0)" d="M96 -20C207 16 255 39 309 85C406 168 457 283 457 417C457 586 376 689 244 689C116 689 20 589 20 455C20 340 95 256 199 256C233 256 272 267 290 282L360 340C352 172 243 49 62 5L62 -3ZM240 656C285 656 318 637 340 597C358 565 370 516 370 471C370 379 317 317 240 317C160 317 106 388 106 492C106 593 158 656 240 656ZM762 689C607 689 528 566 528 324C528 207 549 106 584 57C619 8 675 -20 737 -20C888 -20 964 110 964 366C964 585 899 689 762 689ZM744 654C841 654 880 556 880 316C880 103 842 15 750 15C653 15 612 116 612 360C612 571 649 654 744 654Z" stroke="rgb(0,0,0)" stroke-opacity="1" stroke-width="8" fill="rgb(0,0,0)" fill-opacity="1"></path></g></g><g><g><g><g><g transform="matrix(1,0,0,1,160.65625,70.16584350585937)"><path transform="matrix(0.009519999999999999,0,0,-0.009519999999999999,0,0)" d="M342 271C342 352 277 417 195 417C112 417 47 352 47 271C47 188 112 124 195 124C277 124 342 188 342 271ZM304 271C304 209 254 161 195 161C133 161 85 209 85 271C85 331 133 380 195 380C254 380 304 331 304 271Z" stroke="rgb(0,0,0)" stroke-opacity="1" stroke-width="8" fill="rgb(0,0,0)" fill-opacity="1"></path></g></g></g></g></g></g></g></svg>
</svg>
