<svg xmlns="http://www.w3.org/2000/svg"
     xmlns:xlink="http://www.w3.org/1999/xlink"
     x="0"
     y="0"
     width="392.333349609375"
     height="406.6666748046875">
    <!-- 内联样式 -->
    <style type="text/css">
        .connection {
            stroke: rgb(20, 20, 20);
        }

        .connection-fill {
            fill: rgb(20, 20, 20);
        }

        .char {
            stroke: rgb(0, 0, 0);
            fill: rgb(0, 0, 0);
        }

        .color-set-1 {
            stroke: rgb(74, 91, 63);
            fill: rgb(74, 91, 63);
        }

        .color-set-2 {
            stroke: rgb(1,28,236);
            fill: rgb(1,28,236);
        }

        @media (prefers-color-scheme: dark) {
            .connection {
                stroke: rgb(200, 200, 200);
            }

            .connection-fill {
                fill: rgb(200, 200, 200);
            }

            .char {
                stroke: rgb(239, 239, 239);
                fill: rgb(239, 239, 239);
            }

            .color-set-1 {
                stroke: rgb(119, 240, 39);
                fill: rgb(119, 240, 39);
            }

            .color-set-2 {
                stroke: rgb(0, 221, 255);
                fill: rgb(0, 221, 255);
            }
        }
    </style>
    <g class="shapes-region"
       style="stroke: black; fill: none;">
        <g class="arrow-line">
            <path class="color-set-1"
                  stroke-dasharray="6 6"
                  d="  M59.83,160 L202.83,77"
                  style="stroke-opacity: 0.8; stroke-width: 1; fill: none; fill-opacity: 1;" />
        </g>
        <g class="arrow-line">
            <path class="color-set-1"
                  stroke-dasharray="6 6"
                  d="  M60.83,161 L107.83,243"
                  style="stroke-opacity: 0.8; stroke-width: 1; fill: none; fill-opacity: 1;" />
        </g>
        <g class="composite-shape">
            <path class="real"
                  d=" M107.49,242.32 C107.49,242.32 107.49,242.32 107.49,242.32 C61.46,215.43 45.7,156.75 72.28,111.24 C98.86,65.74 157.72,50.65 203.75,77.53 L155.62,159.93 Z"
                  style="stroke-width: 1; stroke: none; fill: none; fill-opacity: 1; stroke-dasharray: 6, 6;" />
            <path class="char"
                  d=" M107.49,242.32 C107.49,242.32 107.49,242.32 107.49,242.32 C61.46,215.43 45.7,156.75 72.28,111.24 C98.86,65.74 157.72,50.65 203.75,77.53"
                  style="stroke-width: 1; fill: none; fill-opacity: 1; stroke-dasharray: 6, 6;" />
        </g>
        <g class="composite-shape">
            <path class="real"
                  d=" M130.68,200.53 C130.68,200.53 130.68,200.53 130.68,200.53 C97.05,180.89 85.94,137.31 105.87,103.2 C125.79,69.09 169.21,57.36 202.83,77 L166.76,138.76 Z"
                  style="stroke-width: 1; stroke: none; fill: none; fill-opacity: 1; stroke-dasharray: 6, 6;" />
            <path class="char"
                  d=" M130.68,200.53 C130.68,200.53 130.68,200.53 130.68,200.53 C97.05,180.89 85.94,137.31 105.87,103.2 C125.79,69.09 169.21,57.36 202.83,77"
                  style="stroke-width: 1; fill: none; fill-opacity: 1; stroke-dasharray: 6, 6;" />
        </g>
        <g class="arrow-line">
            <path class="color-set-1"
                  stroke-dasharray="6 6"
                  d="  M59.83,242 L203.75,77.53"
                  style="stroke-opacity: 0.8; stroke-width: 1; fill: none; fill-opacity: 1;" />
        </g>
        <g class="arrow-line">
            <path class="color-set-2"
                  stroke-dasharray="6 6"
                  d="  M95.46,201.17 L285.96,366.25"
                  style="stroke-opacity: 1; stroke-width: 1; fill: none; fill-opacity: 1;" />
        </g>
        <g class="composite-shape">
            <path class="real"
                  d=" M63.79,166.21 L70.14,162.57 L66.49,156.22 L60.14,159.86 Z"
                  style="stroke-width: 1; stroke: rgb(240, 50, 230); fill: rgb(240, 50, 230); fill-opacity: 0.3; stroke-opacity: 1;" />
        </g>
        <g class="composite-shape">
            <path class="real"
                  d=" M101.1,206.04 L105.84,200.45 L100.24,195.71 L95.5,201.3 Z"
                  style="stroke-width: 1; stroke: rgb(240, 50, 230); stroke-opacity: 1; fill: rgb(240, 50, 230); fill-opacity: 0.3;" />
        </g>
        <g class="composite-shape"
           data-amt="diagram/shapes/plot"
           transform="matrix(1,0,0,1,20,10)">
            <g>
                <g />
                <g>
                    <g class="test-xti"
                       style="font-family: Asana-Math, Asana;">
                        <line x1="0"
                              y1="191.20021753832083"
                              x2="347"
                              y2="191.20021753832083"
                              fill="none"
                              class="connection"
                              stroke-opacity="1"
                              stroke-width="1" />
                        <path d="M342,187.60021753832083 L350,191.20021753832083 L342,194.80021753832082 Z"
                              stroke="none"
                              stroke-width="1"
                              class="connection-fill"
                              fill-opacity="1" />
                    </g>
                    <g class="test-yti"
                       style="font-family: Asana-Math, Asana;">
                        <line x1="75.31437941898105"
                              y1="4"
                              x2="75.31437941898105"
                              y2="377"
                              fill="none"
                              class="connection"
                              stroke-opacity="1"
                              stroke-width="1" />
                        <path d="M71.71437941898105,9 L75.31437941898105,1 L78.91437941898104,9 Z"
                              stroke="none"
                              stroke-width="1"
                              class="connection-fill"
                              fill-opacity="1" />
                    </g>
                    <g class="test-plot-expression">
                        <defs>
                            <clipPath id="cps0ttkl2pj">
                                <rect x="1"
                                      y="1"
                                      width="349"
                                      height="375" />
                            </clipPath>
                        </defs>
                        <g clip-path="url(#cps0ttkl2pj)">
                            <path d=" M316.72, 377.00 L315.42, 376.50 L314.12, 376.00 L312.83, 375.50 L311.54, 375.00 L310.26, 374.50 L308.97, 374.00 L307.70, 373.50 L306.42, 372.99 L305.15, 372.49 L303.88, 371.99 L302.62, 371.49 L301.36, 370.99 L300.10, 370.49 L298.85, 369.99 L297.60, 369.49 L296.35, 368.99 L295.11, 368.49 L293.87, 367.99 L292.63, 367.49 L291.40, 366.99 L290.17, 366.49 L288.94, 365.99 L287.72, 365.48 L286.50, 364.98 L285.29, 364.48 L284.08, 363.98 L282.87, 363.48 L281.66, 362.98 L280.46, 362.48 L279.27, 361.98 L278.07, 361.48 L276.88, 360.98 L275.69, 360.48 L274.51, 359.98 L273.33, 359.48 L272.15, 358.98 L270.98, 358.48 L269.81, 357.97 L268.64, 357.47 L267.48, 356.97 L266.32, 356.47 L265.17, 355.97 L264.02, 355.47 L262.87, 354.97 L261.72, 354.47 L260.58, 353.97 L259.44, 353.47 L258.31, 352.97 L257.18, 352.47 L256.05, 351.97 L254.93, 351.47 L253.81, 350.97 L252.69, 350.46 L251.58, 349.96 L250.47, 349.46 L249.36, 348.96 L248.26, 348.46 L247.16, 347.96 L246.06, 347.46 L244.97, 346.96 L243.88, 346.46 L242.79, 345.96 L241.71, 345.46 L240.63, 344.96 L239.56, 344.46 L238.49, 343.96 L237.42, 343.46 L236.36, 342.95 L235.29, 342.45 L234.24, 341.95 L233.18, 341.45 L232.13, 340.95 L231.09, 340.45 L230.04, 339.95 L229.00, 339.45 L227.97, 338.95 L226.93, 338.45 L225.90, 337.95 L224.88, 337.45 L223.86, 336.95 L222.84, 336.45 L221.82, 335.95 L220.81, 335.44 L219.80, 334.94 L218.80, 334.44 L217.80, 333.94 L216.80, 333.44 L215.80, 332.94 L214.81, 332.44 L213.83, 331.94 L212.84, 331.44 L211.86, 330.94 L210.89, 330.44 L209.91, 329.94 L208.94, 329.44 L207.98, 328.94 L207.01, 328.44 L206.05, 327.93 L205.10, 327.43 L204.15, 326.93 L203.20, 326.43 L202.25, 325.93 L201.31, 325.43 L200.37, 324.93 L199.44, 324.43 L198.51, 323.93 L197.58, 323.43 L196.66, 322.93 L195.74, 322.43 L194.82, 321.93 L193.90, 321.43 L192.99, 320.93 L192.09, 320.42 L191.18, 319.92 L190.29, 319.42 L189.39, 318.92 L188.50, 318.42 L187.61, 317.92 L186.72, 317.42 L185.84, 316.92 L184.96, 316.42 L184.09, 315.92 L183.21, 315.42 L182.35, 314.92 L181.48, 314.42 L180.62, 313.92 L179.76, 313.42 L178.91, 312.92 L178.06, 312.41 L177.21, 311.91 L176.37, 311.41 L175.53, 310.91 L174.69, 310.41 L173.86, 309.91 L173.03, 309.41 L172.20, 308.91 L171.38, 308.41 L170.56, 307.91 L169.75, 307.41 L168.93, 306.91 L168.13, 306.41 L167.32, 305.91 L166.52, 305.41 L165.72, 304.90 L164.93, 304.40 L164.14, 303.90 L163.35, 303.40 L162.57, 302.90 L161.78, 302.40 L161.01, 301.90 L160.23, 301.40 L159.46, 300.90 L158.70, 300.40 L157.94, 299.90 L157.18, 299.40 L156.42, 298.90 L155.67, 298.40 L154.92, 297.90 L154.17, 297.39 L153.43, 296.89 L152.69, 296.39 L151.96, 295.89 L151.23, 295.39 L150.50, 294.89 L149.78, 294.39 L149.05, 293.89 L148.34, 293.39 L147.62, 292.89 L146.91, 292.39 L146.21, 291.89 L145.50, 291.39 L144.80, 290.89 L144.11, 290.39 L143.41, 289.88 L142.73, 289.38 L142.04, 288.88 L141.36, 288.38 L140.68, 287.88 L140.00, 287.38 L139.33, 286.88 L138.66, 286.38 L138.00, 285.88 L137.34, 285.38 L136.68, 284.88 L136.03, 284.38 L135.37, 283.88 L134.73, 283.38 L134.08, 282.88 L133.44, 282.37 L132.81, 281.87 L132.17, 281.37 L131.54, 280.87 L130.92, 280.37 L130.30, 279.87 L129.68, 279.37 L129.06, 278.87 L128.45, 278.37 L127.84, 277.87 L127.24, 277.37 L126.63, 276.87 L126.04, 276.37 L125.44, 275.87 L124.85, 275.37 L124.26, 274.86 L123.68, 274.36 L123.10, 273.86 L122.52, 273.36 L121.95, 272.86 L121.38, 272.36 L120.81, 271.86 L120.25, 271.36 L119.69, 270.86 L119.13, 270.36 L118.58, 269.86 L118.03, 269.36 L117.48, 268.86 L116.94, 268.36 L116.40, 267.86 L115.87, 267.35 L115.34, 266.85 L114.81, 266.35 L114.29, 265.85 L113.76, 265.35 L113.25, 264.85 L112.73, 264.35 L112.22, 263.85 L111.72, 263.35 L111.21, 262.85 L110.71, 262.35 L110.22, 261.85 L109.72, 261.35 L109.23, 260.85 L108.75, 260.35 L108.26, 259.84 L107.79, 259.34 L107.31, 258.84 L106.84, 258.34 L106.37, 257.84 L105.91, 257.34 L105.44, 256.84 L104.99, 256.34 L104.53, 255.84 L104.08, 255.34 L103.63, 254.84 L103.19, 254.34 L102.75, 253.84 L102.31, 253.34 L101.88, 252.84 L101.45, 252.33 L101.02, 251.83 L100.60, 251.33 L100.18, 250.83 L99.77, 250.33 L99.35, 249.83 L98.94, 249.33 L98.54, 248.83 L98.14, 248.33 L97.74, 247.83 L97.34, 247.33 L96.95, 246.83 L96.57, 246.33 L96.18, 245.83 L95.80, 245.33 L95.42, 244.82 L95.05, 244.32 L94.68, 243.82 L94.31, 243.32 L93.95, 242.82 L93.59, 242.32 L93.23, 241.82 L92.88, 241.32 L92.53, 240.82 L92.19, 240.32 L91.84, 239.82 L91.50, 239.32 L91.17, 238.82 L90.84, 238.32 L90.51, 237.82 L90.18, 237.31 L89.86, 236.81 L89.55, 236.31 L89.23, 235.81 L88.92, 235.31 L88.61, 234.81 L88.31, 234.31 L88.01, 233.81 L87.71, 233.31 L87.42, 232.81 L87.13, 232.31 L86.85, 231.81 L86.56, 231.31 L86.28, 230.81 L86.01, 230.31 L85.74, 229.80 L85.47, 229.30 L85.20, 228.80 L84.94, 228.30 L84.68, 227.80 L84.43, 227.30 L84.18, 226.80 L83.93, 226.30 L83.69, 225.80 L83.45, 225.30 L83.21, 224.80 L82.97, 224.30 L82.74, 223.80 L82.52, 223.30 L82.30, 222.80 L82.08, 222.29 L81.86, 221.79 L81.65, 221.29 L81.44, 220.79 L81.23, 220.29 L81.03, 219.79 L80.83, 219.29 L80.64, 218.79 L80.45, 218.29 L80.26, 217.79 L80.07, 217.29 L79.89, 216.79 L79.72, 216.29 L79.54, 215.79 L79.37, 215.29 L79.20, 214.78 L79.04, 214.28 L78.88, 213.78 L78.72, 213.28 L78.57, 212.78 L78.42, 212.28 L78.28, 211.78 L78.13, 211.28 L78.00, 210.78 L77.86, 210.28 L77.73, 209.78 L77.60, 209.28 L77.47, 208.78 L77.35, 208.28 L77.24, 207.78 L77.12, 207.27 L77.01, 206.77 L76.90, 206.27 L76.80, 205.77 L76.70, 205.27 L76.60, 204.77 L76.51, 204.27 L76.42, 203.77 L76.33, 203.27 L76.25, 202.77 L76.17, 202.27 L76.10, 201.77 L76.02, 201.27 L75.95, 200.77 L75.89, 200.27 L75.83, 199.76 L75.77, 199.26 L75.71, 198.76 L75.66, 198.26 L75.62, 197.76 L75.57, 197.26 L75.53, 196.76 L75.49, 196.26 L75.46, 195.76 L75.43, 195.26 L75.40, 194.76 L75.38, 194.26 L75.36, 193.76 L75.34, 193.26 L75.33, 192.76 L75.32, 192.25 L75.32, 191.75 L75.31, 191.25 L75.32, 190.75 L75.32, 190.25 L75.33, 189.75 L75.34, 189.25 L75.36, 188.75 L75.38, 188.25 L75.40, 187.75 L75.42, 187.25 L75.45, 186.75 L75.49, 186.25 L75.52, 185.75 L75.56, 185.25 L75.61, 184.75 L75.65, 184.24 L75.70, 183.74 L75.76, 183.24 L75.81, 182.74 L75.88, 182.24 L75.94, 181.74 L76.01, 181.24 L76.08, 180.74 L76.15, 180.24 L76.23, 179.74 L76.32, 179.24 L76.40, 178.74 L76.49, 178.24 L76.58, 177.74 L76.68, 177.24 L76.78, 176.73 L76.88, 176.23 L76.99, 175.73 L77.10, 175.23 L77.21, 174.73 L77.33, 174.23 L77.45, 173.73 L77.57, 173.23 L77.70, 172.73 L77.83, 172.23 L77.97, 171.73 L78.10, 171.23 L78.25, 170.73 L78.39, 170.23 L78.54, 169.73 L78.69, 169.22 L78.85, 168.72 L79.01, 168.22 L79.17, 167.72 L79.34, 167.22 L79.50, 166.72 L79.68, 166.22 L79.85, 165.72 L80.03, 165.22 L80.22, 164.72 L80.41, 164.22 L80.60, 163.72 L80.79, 163.22 L80.99, 162.72 L81.19, 162.22 L81.39, 161.71 L81.60, 161.21 L81.81, 160.71 L82.03, 160.21 L82.25, 159.71 L82.47, 159.21 L82.70, 158.71 L82.93, 158.21 L83.16, 157.71 L83.39, 157.21 L83.63, 156.71 L83.88, 156.21 L84.12, 155.71 L84.37, 155.21 L84.63, 154.71 L84.89, 154.20 L85.15, 153.70 L85.41, 153.20 L85.68, 152.70 L85.95, 152.20 L86.22, 151.70 L86.50, 151.20 L86.78, 150.70 L87.07, 150.20 L87.36, 149.70 L87.65, 149.20 L87.95, 148.70 L88.25, 148.20 L88.55, 147.70 L88.86, 147.20 L89.17, 146.69 L89.48, 146.19 L89.80, 145.69 L90.12, 145.19 L90.44, 144.69 L90.77, 144.19 L91.10, 143.69 L91.43, 143.19 L91.77, 142.69 L92.11, 142.19 L92.46, 141.69 L92.81, 141.19 L93.16, 140.69 L93.51, 140.19 L93.87, 139.69 L94.23, 139.18 L94.60, 138.68 L94.97, 138.18 L95.34, 137.68 L95.72, 137.18 L96.10, 136.68 L96.48, 136.18 L96.87, 135.68 L97.26, 135.18 L97.65, 134.68 L98.05, 134.18 L98.45, 133.68 L98.86, 133.18 L99.27, 132.68 L99.68, 132.18 L100.09, 131.67 L100.51, 131.17 L100.93, 130.67 L101.36, 130.17 L101.79, 129.67 L102.22, 129.17 L102.66, 128.67 L103.10, 128.17 L103.54, 127.67 L103.99, 127.17 L104.44, 126.67 L104.89, 126.17 L105.35, 125.67 L105.81, 125.17 L106.27, 124.67 L106.74, 124.16 L107.21, 123.66 L107.68, 123.16 L108.16, 122.66 L108.64, 122.16 L109.13, 121.66 L109.62, 121.16 L110.11, 120.66 L110.61, 120.16 L111.10, 119.66 L111.61, 119.16 L112.11, 118.66 L112.62, 118.16 L113.14, 117.66 L113.65, 117.16 L114.17, 116.65 L114.70, 116.15 L115.22, 115.65 L115.76, 115.15 L116.29, 114.65 L116.83, 114.15 L117.37, 113.65 L117.91, 113.15 L118.46, 112.65 L119.01, 112.15 L119.57, 111.65 L120.13, 111.15 L120.69, 110.65 L121.26, 110.15 L121.82, 109.65 L122.40, 109.14 L122.97, 108.64 L123.55, 108.14 L124.14, 107.64 L124.72, 107.14 L125.31, 106.64 L125.91, 106.14 L126.51, 105.64 L127.11, 105.14 L127.71, 104.64 L128.32, 104.14 L128.93, 103.64 L129.54, 103.14 L130.16, 102.64 L130.79, 102.14 L131.41, 101.63 L132.04, 101.13 L132.67, 100.63 L133.31, 100.13 L133.95, 99.63 L134.59, 99.13 L135.24, 98.63 L135.89, 98.13 L136.54, 97.63 L137.20, 97.13 L137.86, 96.63 L138.52, 96.13 L139.19, 95.63 L139.86, 95.13 L140.53, 94.63 L141.21, 94.12 L141.89, 93.62 L142.58, 93.12 L143.27, 92.62 L143.96, 92.12 L144.65, 91.62 L145.35, 91.12 L146.06, 90.62 L146.76, 90.12 L147.47, 89.62 L148.18, 89.12 L148.90, 88.62 L149.62, 88.12 L150.34, 87.62 L151.07, 87.12 L151.80, 86.61 L152.54, 86.11 L153.27, 85.61 L154.02, 85.11 L154.76, 84.61 L155.51, 84.11 L156.26, 83.61 L157.01, 83.11 L157.77, 82.61 L158.54, 82.11 L159.30, 81.61 L160.07, 81.11 L160.84, 80.61 L161.62, 80.11 L162.40, 79.61 L163.18, 79.10 L163.97, 78.60 L164.76, 78.10 L165.55, 77.60 L166.35, 77.10 L167.15, 76.60 L167.95, 76.10 L168.76, 75.60 L169.57, 75.10 L170.39, 74.60 L171.21, 74.10 L172.03, 73.60 L172.85, 73.10 L173.68, 72.60 L174.51, 72.10 L175.35, 71.59 L176.19, 71.09 L177.03, 70.59 L177.88, 70.09 L178.73, 69.59 L179.58, 69.09 L180.44, 68.59 L181.30, 68.09 L182.16, 67.59 L183.03, 67.09 L183.90, 66.59 L184.77, 66.09 L185.65, 65.59 L186.53, 65.09 L187.42, 64.59 L188.31, 64.08 L189.20, 63.58 L190.09, 63.08 L190.99, 62.58 L191.89, 62.08 L192.80, 61.58 L193.71, 61.08 L194.62, 60.58 L195.54, 60.08 L196.46, 59.58 L197.38, 59.08 L198.31, 58.58 L199.24, 58.08 L200.17, 57.58 L201.11, 57.08 L202.05, 56.58 L203.00, 56.07 L203.94, 55.57 L204.90, 55.07 L205.85, 54.57 L206.81, 54.07 L207.77, 53.57 L208.74, 53.07 L209.71, 52.57 L210.68, 52.07 L211.65, 51.57 L212.63, 51.07 L213.62, 50.57 L214.60, 50.07 L215.59, 49.57 L216.59, 49.07 L217.58, 48.56 L218.58, 48.06 L219.59, 47.56 L220.60, 47.06 L221.61, 46.56 L222.62, 46.06 L223.64, 45.56 L224.66, 45.06 L225.69, 44.56 L226.71, 44.06 L227.75, 43.56 L228.78, 43.06 L229.82, 42.56 L230.86, 42.06 L231.91, 41.56 L232.96, 41.05 L234.01, 40.55 L235.07, 40.05 L236.13, 39.55 L237.19, 39.05 L238.26, 38.55 L239.33, 38.05 L240.40, 37.55 L241.48, 37.05 L242.56, 36.55 L243.65, 36.05 L244.74, 35.55 L245.83, 35.05 L246.92, 34.55 L248.02, 34.05 L249.12, 33.54 L250.23, 33.04 L251.34, 32.54 L252.45, 32.04 L253.57, 31.54 L254.69, 31.04 L255.81, 30.54 L256.94, 30.04 L258.07, 29.54 L259.20, 29.04 L260.34, 28.54 L261.48, 28.04 L262.62, 27.54 L263.77, 27.04 L264.92, 26.54 L266.08, 26.03 L267.23, 25.53 L268.40, 25.03 L269.56, 24.53 L270.73, 24.03 L271.90, 23.53 L273.08, 23.03 L274.26, 22.53 L275.44, 22.03 L276.63, 21.53 L277.82, 21.03 L279.01, 20.53 L280.21, 20.03 L281.41, 19.53 L282.61, 19.03 L283.82, 18.52 L285.03, 18.02 L286.24, 17.52 L287.46, 17.02 L288.68, 16.52 L289.91, 16.02 L291.14, 15.52 L292.37, 15.02 L293.60, 14.52 L294.84, 14.02 L296.08, 13.52 L297.33, 13.02 L298.58, 12.52 L299.83, 12.02 L301.09, 11.52 L302.35, 11.01 L303.61, 10.51 L304.88, 10.01 L306.15, 9.51 L307.42, 9.01 L308.70, 8.51 L309.98, 8.01 L311.27, 7.51 L312.55, 7.01 L313.85, 6.51 L315.14, 6.01 L316.44, 5.51 L317.74, 5.01 L319.05, 4.51 L320.36, 4.01 L321.67, 3.50 L322.98, 3.00 L324.30, 2.50 L325.63, 2.00 L326.95, 1.50 L328.28, 1.00 L329.62, 0.50 L330.95, 0.00"
                                  style="stroke-width: 2; stroke: rgb(68, 128, 194); stroke-opacity: 0.8;" />
                            <g>
                                <circle cx="111.06533229110545"
                                        cy="191.20021753832083"
                                        r="1.5"
                                        style="stroke-width: 3; stroke: rgb(60, 180, 75); stroke-opacity: 0.8; fill: rgb(60, 180, 75); fill-opacity: 0.15;" />
                                <circle cx="218.31819090747868"
                                        cy="191.20021753832083"
                                        r="1.5"
                                        style="stroke-width: 3; stroke: rgb(60, 180, 75); stroke-opacity: 0.8; fill: rgb(60, 180, 75); fill-opacity: 0.15;" />
                            </g>
                            <path d=" M39.56, 377.00 L39.56, 376.50 L39.56, 376.00 L39.56, 375.50 L39.56, 375.00 L39.56, 374.50 L39.56, 374.00 L39.56, 373.50 L39.56, 372.99 L39.56, 372.49 L39.56, 371.99 L39.56, 371.49 L39.56, 370.99 L39.56, 370.49 L39.56, 369.99 L39.56, 369.49 L39.56, 368.99 L39.56, 368.49 L39.56, 367.99 L39.56, 367.49 L39.56, 366.99 L39.56, 366.49 L39.56, 365.99 L39.56, 365.48 L39.56, 364.98 L39.56, 364.48 L39.56, 363.98 L39.56, 363.48 L39.56, 362.98 L39.56, 362.48 L39.56, 361.98 L39.56, 361.48 L39.56, 360.98 L39.56, 360.48 L39.56, 359.98 L39.56, 359.48 L39.56, 358.98 L39.56, 358.48 L39.56, 357.97 L39.56, 357.47 L39.56, 356.97 L39.56, 356.47 L39.56, 355.97 L39.56, 355.47 L39.56, 354.97 L39.56, 354.47 L39.56, 353.97 L39.56, 353.47 L39.56, 352.97 L39.56, 352.47 L39.56, 351.97 L39.56, 351.47 L39.56, 350.97 L39.56, 350.46 L39.56, 349.96 L39.56, 349.46 L39.56, 348.96 L39.56, 348.46 L39.56, 347.96 L39.56, 347.46 L39.56, 346.96 L39.56, 346.46 L39.56, 345.96 L39.56, 345.46 L39.56, 344.96 L39.56, 344.46 L39.56, 343.96 L39.56, 343.46 L39.56, 342.95 L39.56, 342.45 L39.56, 341.95 L39.56, 341.45 L39.56, 340.95 L39.56, 340.45 L39.56, 339.95 L39.56, 339.45 L39.56, 338.95 L39.56, 338.45 L39.56, 337.95 L39.56, 337.45 L39.56, 336.95 L39.56, 336.45 L39.56, 335.95 L39.56, 335.44 L39.56, 334.94 L39.56, 334.44 L39.56, 333.94 L39.56, 333.44 L39.56, 332.94 L39.56, 332.44 L39.56, 331.94 L39.56, 331.44 L39.56, 330.94 L39.56, 330.44 L39.56, 329.94 L39.56, 329.44 L39.56, 328.94 L39.56, 328.44 L39.56, 327.93 L39.56, 327.43 L39.56, 326.93 L39.56, 326.43 L39.56, 325.93 L39.56, 325.43 L39.56, 324.93 L39.56, 324.43 L39.56, 323.93 L39.56, 323.43 L39.56, 322.93 L39.56, 322.43 L39.56, 321.93 L39.56, 321.43 L39.56, 320.93 L39.56, 320.42 L39.56, 319.92 L39.56, 319.42 L39.56, 318.92 L39.56, 318.42 L39.56, 317.92 L39.56, 317.42 L39.56, 316.92 L39.56, 316.42 L39.56, 315.92 L39.56, 315.42 L39.56, 314.92 L39.56, 314.42 L39.56, 313.92 L39.56, 313.42 L39.56, 312.92 L39.56, 312.41 L39.56, 311.91 L39.56, 311.41 L39.56, 310.91 L39.56, 310.41 L39.56, 309.91 L39.56, 309.41 L39.56, 308.91 L39.56, 308.41 L39.56, 307.91 L39.56, 307.41 L39.56, 306.91 L39.56, 306.41 L39.56, 305.91 L39.56, 305.41 L39.56, 304.90 L39.56, 304.40 L39.56, 303.90 L39.56, 303.40 L39.56, 302.90 L39.56, 302.40 L39.56, 301.90 L39.56, 301.40 L39.56, 300.90 L39.56, 300.40 L39.56, 299.90 L39.56, 299.40 L39.56, 298.90 L39.56, 298.40 L39.56, 297.90 L39.56, 297.39 L39.56, 296.89 L39.56, 296.39 L39.56, 295.89 L39.56, 295.39 L39.56, 294.89 L39.56, 294.39 L39.56, 293.89 L39.56, 293.39 L39.56, 292.89 L39.56, 292.39 L39.56, 291.89 L39.56, 291.39 L39.56, 290.89 L39.56, 290.39 L39.56, 289.88 L39.56, 289.38 L39.56, 288.88 L39.56, 288.38 L39.56, 287.88 L39.56, 287.38 L39.56, 286.88 L39.56, 286.38 L39.56, 285.88 L39.56, 285.38 L39.56, 284.88 L39.56, 284.38 L39.56, 283.88 L39.56, 283.38 L39.56, 282.88 L39.56, 282.37 L39.56, 281.87 L39.56, 281.37 L39.56, 280.87 L39.56, 280.37 L39.56, 279.87 L39.56, 279.37 L39.56, 278.87 L39.56, 278.37 L39.56, 277.87 L39.56, 277.37 L39.56, 276.87 L39.56, 276.37 L39.56, 275.87 L39.56, 275.37 L39.56, 274.86 L39.56, 274.36 L39.56, 273.86 L39.56, 273.36 L39.56, 272.86 L39.56, 272.36 L39.56, 271.86 L39.56, 271.36 L39.56, 270.86 L39.56, 270.36 L39.56, 269.86 L39.56, 269.36 L39.56, 268.86 L39.56, 268.36 L39.56, 267.86 L39.56, 267.35 L39.56, 266.85 L39.56, 266.35 L39.56, 265.85 L39.56, 265.35 L39.56, 264.85 L39.56, 264.35 L39.56, 263.85 L39.56, 263.35 L39.56, 262.85 L39.56, 262.35 L39.56, 261.85 L39.56, 261.35 L39.56, 260.85 L39.56, 260.35 L39.56, 259.84 L39.56, 259.34 L39.56, 258.84 L39.56, 258.34 L39.56, 257.84 L39.56, 257.34 L39.56, 256.84 L39.56, 256.34 L39.56, 255.84 L39.56, 255.34 L39.56, 254.84 L39.56, 254.34 L39.56, 253.84 L39.56, 253.34 L39.56, 252.84 L39.56, 252.33 L39.56, 251.83 L39.56, 251.33 L39.56, 250.83 L39.56, 250.33 L39.56, 249.83 L39.56, 249.33 L39.56, 248.83 L39.56, 248.33 L39.56, 247.83 L39.56, 247.33 L39.56, 246.83 L39.56, 246.33 L39.56, 245.83 L39.56, 245.33 L39.56, 244.82 L39.56, 244.32 L39.56, 243.82 L39.56, 243.32 L39.56, 242.82 L39.56, 242.32 L39.56, 241.82 L39.56, 241.32 L39.56, 240.82 L39.56, 240.32 L39.56, 239.82 L39.56, 239.32 L39.56, 238.82 L39.56, 238.32 L39.56, 237.82 L39.56, 237.31 L39.56, 236.81 L39.56, 236.31 L39.56, 235.81 L39.56, 235.31 L39.56, 234.81 L39.56, 234.31 L39.56, 233.81 L39.56, 233.31 L39.56, 232.81 L39.56, 232.31 L39.56, 231.81 L39.56, 231.31 L39.56, 230.81 L39.56, 230.31 L39.56, 229.80 L39.56, 229.30 L39.56, 228.80 L39.56, 228.30 L39.56, 227.80 L39.56, 227.30 L39.56, 226.80 L39.56, 226.30 L39.56, 225.80 L39.56, 225.30 L39.56, 224.80 L39.56, 224.30 L39.56, 223.80 L39.56, 223.30 L39.56, 222.80 L39.56, 222.29 L39.56, 221.79 L39.56, 221.29 L39.56, 220.79 L39.56, 220.29 L39.56, 219.79 L39.56, 219.29 L39.56, 218.79 L39.56, 218.29 L39.56, 217.79 L39.56, 217.29 L39.56, 216.79 L39.56, 216.29 L39.56, 215.79 L39.56, 215.29 L39.56, 214.78 L39.56, 214.28 L39.56, 213.78 L39.56, 213.28 L39.56, 212.78 L39.56, 212.28 L39.56, 211.78 L39.56, 211.28 L39.56, 210.78 L39.56, 210.28 L39.56, 209.78 L39.56, 209.28 L39.56, 208.78 L39.56, 208.28 L39.56, 207.78 L39.56, 207.27 L39.56, 206.77 L39.56, 206.27 L39.56, 205.77 L39.56, 205.27 L39.56, 204.77 L39.56, 204.27 L39.56, 203.77 L39.56, 203.27 L39.56, 202.77 L39.56, 202.27 L39.56, 201.77 L39.56, 201.27 L39.56, 200.77 L39.56, 200.27 L39.56, 199.76 L39.56, 199.26 L39.56, 198.76 L39.56, 198.26 L39.56, 197.76 L39.56, 197.26 L39.56, 196.76 L39.56, 196.26 L39.56, 195.76 L39.56, 195.26 L39.56, 194.76 L39.56, 194.26 L39.56, 193.76 L39.56, 193.26 L39.56, 192.76 L39.56, 192.25 L39.56, 191.75 L39.56, 191.25 L39.56, 190.75 L39.56, 190.25 L39.56, 189.75 L39.56, 189.25 L39.56, 188.75 L39.56, 188.25 L39.56, 187.75 L39.56, 187.25 L39.56, 186.75 L39.56, 186.25 L39.56, 185.75 L39.56, 185.25 L39.56, 184.75 L39.56, 184.24 L39.56, 183.74 L39.56, 183.24 L39.56, 182.74 L39.56, 182.24 L39.56, 181.74 L39.56, 181.24 L39.56, 180.74 L39.56, 180.24 L39.56, 179.74 L39.56, 179.24 L39.56, 178.74 L39.56, 178.24 L39.56, 177.74 L39.56, 177.24 L39.56, 176.73 L39.56, 176.23 L39.56, 175.73 L39.56, 175.23 L39.56, 174.73 L39.56, 174.23 L39.56, 173.73 L39.56, 173.23 L39.56, 172.73 L39.56, 172.23 L39.56, 171.73 L39.56, 171.23 L39.56, 170.73 L39.56, 170.23 L39.56, 169.73 L39.56, 169.22 L39.56, 168.72 L39.56, 168.22 L39.56, 167.72 L39.56, 167.22 L39.56, 166.72 L39.56, 166.22 L39.56, 165.72 L39.56, 165.22 L39.56, 164.72 L39.56, 164.22 L39.56, 163.72 L39.56, 163.22 L39.56, 162.72 L39.56, 162.22 L39.56, 161.71 L39.56, 161.21 L39.56, 160.71 L39.56, 160.21 L39.56, 159.71 L39.56, 159.21 L39.56, 158.71 L39.56, 158.21 L39.56, 157.71 L39.56, 157.21 L39.56, 156.71 L39.56, 156.21 L39.56, 155.71 L39.56, 155.21 L39.56, 154.71 L39.56, 154.20 L39.56, 153.70 L39.56, 153.20 L39.56, 152.70 L39.56, 152.20 L39.56, 151.70 L39.56, 151.20 L39.56, 150.70 L39.56, 150.20 L39.56, 149.70 L39.56, 149.20 L39.56, 148.70 L39.56, 148.20 L39.56, 147.70 L39.56, 147.20 L39.56, 146.69 L39.56, 146.19 L39.56, 145.69 L39.56, 145.19 L39.56, 144.69 L39.56, 144.19 L39.56, 143.69 L39.56, 143.19 L39.56, 142.69 L39.56, 142.19 L39.56, 141.69 L39.56, 141.19 L39.56, 140.69 L39.56, 140.19 L39.56, 139.69 L39.56, 139.18 L39.56, 138.68 L39.56, 138.18 L39.56, 137.68 L39.56, 137.18 L39.56, 136.68 L39.56, 136.18 L39.56, 135.68 L39.56, 135.18 L39.56, 134.68 L39.56, 134.18 L39.56, 133.68 L39.56, 133.18 L39.56, 132.68 L39.56, 132.18 L39.56, 131.67 L39.56, 131.17 L39.56, 130.67 L39.56, 130.17 L39.56, 129.67 L39.56, 129.17 L39.56, 128.67 L39.56, 128.17 L39.56, 127.67 L39.56, 127.17 L39.56, 126.67 L39.56, 126.17 L39.56, 125.67 L39.56, 125.17 L39.56, 124.67 L39.56, 124.16 L39.56, 123.66 L39.56, 123.16 L39.56, 122.66 L39.56, 122.16 L39.56, 121.66 L39.56, 121.16 L39.56, 120.66 L39.56, 120.16 L39.56, 119.66 L39.56, 119.16 L39.56, 118.66 L39.56, 118.16 L39.56, 117.66 L39.56, 117.16 L39.56, 116.65 L39.56, 116.15 L39.56, 115.65 L39.56, 115.15 L39.56, 114.65 L39.56, 114.15 L39.56, 113.65 L39.56, 113.15 L39.56, 112.65 L39.56, 112.15 L39.56, 111.65 L39.56, 111.15 L39.56, 110.65 L39.56, 110.15 L39.56, 109.65 L39.56, 109.14 L39.56, 108.64 L39.56, 108.14 L39.56, 107.64 L39.56, 107.14 L39.56, 106.64 L39.56, 106.14 L39.56, 105.64 L39.56, 105.14 L39.56, 104.64 L39.56, 104.14 L39.56, 103.64 L39.56, 103.14 L39.56, 102.64 L39.56, 102.14 L39.56, 101.63 L39.56, 101.13 L39.56, 100.63 L39.56, 100.13 L39.56, 99.63 L39.56, 99.13 L39.56, 98.63 L39.56, 98.13 L39.56, 97.63 L39.56, 97.13 L39.56, 96.63 L39.56, 96.13 L39.56, 95.63 L39.56, 95.13 L39.56, 94.63 L39.56, 94.12 L39.56, 93.62 L39.56, 93.12 L39.56, 92.62 L39.56, 92.12 L39.56, 91.62 L39.56, 91.12 L39.56, 90.62 L39.56, 90.12 L39.56, 89.62 L39.56, 89.12 L39.56, 88.62 L39.56, 88.12 L39.56, 87.62 L39.56, 87.12 L39.56, 86.61 L39.56, 86.11 L39.56, 85.61 L39.56, 85.11 L39.56, 84.61 L39.56, 84.11 L39.56, 83.61 L39.56, 83.11 L39.56, 82.61 L39.56, 82.11 L39.56, 81.61 L39.56, 81.11 L39.56, 80.61 L39.56, 80.11 L39.56, 79.61 L39.56, 79.10 L39.56, 78.60 L39.56, 78.10 L39.56, 77.60 L39.56, 77.10 L39.56, 76.60 L39.56, 76.10 L39.56, 75.60 L39.56, 75.10 L39.56, 74.60 L39.56, 74.10 L39.56, 73.60 L39.56, 73.10 L39.56, 72.60 L39.56, 72.10 L39.56, 71.59 L39.56, 71.09 L39.56, 70.59 L39.56, 70.09 L39.56, 69.59 L39.56, 69.09 L39.56, 68.59 L39.56, 68.09 L39.56, 67.59 L39.56, 67.09 L39.56, 66.59 L39.56, 66.09 L39.56, 65.59 L39.56, 65.09 L39.56, 64.59 L39.56, 64.08 L39.56, 63.58 L39.56, 63.08 L39.56, 62.58 L39.56, 62.08 L39.56, 61.58 L39.56, 61.08 L39.56, 60.58 L39.56, 60.08 L39.56, 59.58 L39.56, 59.08 L39.56, 58.58 L39.56, 58.08 L39.56, 57.58 L39.56, 57.08 L39.56, 56.58 L39.56, 56.07 L39.56, 55.57 L39.56, 55.07 L39.56, 54.57 L39.56, 54.07 L39.56, 53.57 L39.56, 53.07 L39.56, 52.57 L39.56, 52.07 L39.56, 51.57 L39.56, 51.07 L39.56, 50.57 L39.56, 50.07 L39.56, 49.57 L39.56, 49.07 L39.56, 48.56 L39.56, 48.06 L39.56, 47.56 L39.56, 47.06 L39.56, 46.56 L39.56, 46.06 L39.56, 45.56 L39.56, 45.06 L39.56, 44.56 L39.56, 44.06 L39.56, 43.56 L39.56, 43.06 L39.56, 42.56 L39.56, 42.06 L39.56, 41.56 L39.56, 41.05 L39.56, 40.55 L39.56, 40.05 L39.56, 39.55 L39.56, 39.05 L39.56, 38.55 L39.56, 38.05 L39.56, 37.55 L39.56, 37.05 L39.56, 36.55 L39.56, 36.05 L39.56, 35.55 L39.56, 35.05 L39.56, 34.55 L39.56, 34.05 L39.56, 33.54 L39.56, 33.04 L39.56, 32.54 L39.56, 32.04 L39.56, 31.54 L39.56, 31.04 L39.56, 30.54 L39.56, 30.04 L39.56, 29.54 L39.56, 29.04 L39.56, 28.54 L39.56, 28.04 L39.56, 27.54 L39.56, 27.04 L39.56, 26.54 L39.56, 26.03 L39.56, 25.53 L39.56, 25.03 L39.56, 24.53 L39.56, 24.03 L39.56, 23.53 L39.56, 23.03 L39.56, 22.53 L39.56, 22.03 L39.56, 21.53 L39.56, 21.03 L39.56, 20.53 L39.56, 20.03 L39.56, 19.53 L39.56, 19.03 L39.56, 18.52 L39.56, 18.02 L39.56, 17.52 L39.56, 17.02 L39.56, 16.52 L39.56, 16.02 L39.56, 15.52 L39.56, 15.02 L39.56, 14.52 L39.56, 14.02 L39.56, 13.52 L39.56, 13.02 L39.56, 12.52 L39.56, 12.02 L39.56, 11.52 L39.56, 11.01 L39.56, 10.51 L39.56, 10.01 L39.56, 9.51 L39.56, 9.01 L39.56, 8.51 L39.56, 8.01 L39.56, 7.51 L39.56, 7.01 L39.56, 6.51 L39.56, 6.01 L39.56, 5.51 L39.56, 5.01 L39.56, 4.51 L39.56, 4.01 L39.56, 3.50 L39.56, 3.00 L39.56, 2.50 L39.56, 2.00 L39.56, 1.50 L39.56, 1.00 L39.56, 0.50 L39.56, 0.00"
                                  style="stroke-width: 2; stroke: rgb(245, 130, 49); stroke-opacity: 0.8;" />
                            <g>
                                <circle cx="182.56723803535428"
                                        cy="67.35891678928192"
                                        r="1.5"
                                        style="stroke-width: 3; stroke: rgb(214, 67, 102); stroke-opacity: 0.8; fill: rgb(214, 67, 102); fill-opacity: 0.15;" />
                                <circle cx="87.231602049375"
                                        cy="232.4818428197629"
                                        r="1.5"
                                        style="stroke-width: 3; stroke: rgb(214, 67, 102); stroke-opacity: 0.8; fill: rgb(214, 67, 102); fill-opacity: 0.15;" />
                            </g>
                            <path d=" M87.23,232.48 L87.37,232.25 L87.50,232.01 L87.64,231.77 L87.78,231.54 L87.91,231.30 L88.05,231.07 L88.18,230.83 L88.32,230.60 L88.46,230.36 L88.59,230.13 L88.73,229.89 L88.86,229.65 L89.00,229.42 L89.14,229.18 L89.27,228.95 L89.41,228.71 L89.54,228.48 L89.68,228.24 L89.82,228.01 L89.95,227.77 L90.09,227.53 L90.22,227.30 L90.36,227.06 L90.50,226.83 L90.63,226.59 L90.77,226.36 L90.90,226.12 L91.04,225.89 L91.18,225.65 L91.31,225.41 L91.45,225.18 L91.58,224.94 L91.72,224.71 L91.86,224.47 L91.99,224.24 L92.13,224.00 L92.26,223.77 L92.40,223.53 L92.54,223.29 L92.67,223.06 L92.81,222.82 L92.94,222.59 L93.08,222.35 L93.22,222.12 L93.35,221.88 L93.49,221.65 L93.62,221.41 L93.76,221.17 L93.90,220.94 L94.03,220.70 L94.17,220.47 L94.30,220.23 L94.44,220.00 L94.58,219.76 L94.71,219.53 L94.85,219.29 L94.98,219.05 L95.12,218.82 L95.26,218.58 L95.39,218.35 L95.53,218.11 L95.66,217.88 L95.80,217.64 L95.94,217.41 L96.07,217.17 L96.21,216.93 L96.34,216.70 L96.48,216.46 L96.62,216.23 L96.75,215.99 L96.89,215.76 L97.02,215.52 L97.16,215.29 L97.30,215.05 L97.43,214.81 L97.57,214.58 L97.70,214.34 L97.84,214.11 L97.98,213.87 L98.11,213.64 L98.25,213.40 L98.38,213.17 L98.52,212.93 L98.66,212.69 L98.79,212.46 L98.93,212.22 L99.06,211.99 L99.20,211.75 L99.34,211.52 L99.47,211.28 L99.61,211.05 L99.74,210.81 L99.88,210.57 L100.02,210.34 L100.15,210.10 L100.29,209.87 L100.42,209.63 L100.56,209.40 L100.70,209.16 L100.83,208.93 L100.97,208.69 L101.10,208.45 L101.24,208.22 L101.38,207.98 L101.51,207.75 L101.65,207.51 L101.78,207.28 L101.92,207.04 L102.06,206.81 L102.19,206.57 L102.33,206.33 L102.46,206.10 L102.60,205.86 L102.74,205.63 L102.87,205.39 L103.01,205.16 L103.14,204.92 L103.28,204.69 L103.42,204.45 L103.55,204.21 L103.69,203.98 L103.82,203.74 L103.96,203.51 L104.10,203.27 L104.23,203.04 L104.37,202.80 L104.50,202.57 L104.64,202.33 L104.78,202.09 L104.91,201.86 L105.05,201.62 L105.18,201.39 L105.32,201.15 L105.46,200.92 L105.59,200.68 L105.73,200.45 L105.86,200.21 L106.00,199.97 L106.14,199.74 L106.27,199.50 L106.41,199.27 L106.54,199.03 L106.68,198.80 L106.82,198.56 L106.95,198.33 L107.09,198.09 L107.22,197.85 L107.36,197.62 L107.50,197.38 L107.63,197.15 L107.77,196.91 L107.90,196.68 L108.04,196.44 L108.18,196.21 L108.31,195.97 L108.45,195.73 L108.58,195.50 L108.72,195.26 L108.86,195.03 L108.99,194.79 L109.13,194.56 L109.26,194.32 L109.40,194.09 L109.54,193.85 L109.67,193.61 L109.81,193.38 L109.94,193.14 L110.08,192.91 L110.22,192.67 L110.35,192.44 L110.49,192.20 L110.62,191.97 L110.76,191.73 L110.90,191.49 L111.03,191.26 L111.17,191.02 L111.30,190.79 L111.44,190.55 L111.58,190.32 L111.71,190.08 L111.85,189.85 L111.98,189.61 L112.12,189.37 L112.26,189.14 L112.39,188.90 L112.53,188.67 L112.66,188.43 L112.80,188.20 L112.94,187.96 L113.07,187.73 L113.21,187.49 L113.34,187.25 L113.48,187.02 L113.62,186.78 L113.75,186.55 L113.89,186.31 L114.02,186.08 L114.16,185.84 L114.30,185.61 L114.43,185.37 L114.57,185.13 L114.70,184.90 L114.84,184.66 L114.98,184.43 L115.11,184.19 L115.25,183.96 L115.38,183.72 L115.52,183.49 L115.66,183.25 L115.79,183.01 L115.93,182.78 L116.06,182.54 L116.20,182.31 L116.34,182.07 L116.47,181.84 L116.61,181.60 L116.74,181.37 L116.88,181.13 L117.02,180.89 L117.15,180.66 L117.29,180.42 L117.42,180.19 L117.56,179.95 L117.70,179.72 L117.83,179.48 L117.97,179.25 L118.10,179.01 L118.24,178.77 L118.38,178.54 L118.51,178.30 L118.65,178.07 L118.78,177.83 L118.92,177.60 L119.06,177.36 L119.19,177.13 L119.33,176.89 L119.46,176.65 L119.60,176.42 L119.74,176.18 L119.87,175.95 L120.01,175.71 L120.14,175.48 L120.28,175.24 L120.42,175.01 L120.55,174.77 L120.69,174.53 L120.82,174.30 L120.96,174.06 L121.10,173.83 L121.23,173.59 L121.37,173.36 L121.50,173.12 L121.64,172.89 L121.78,172.65 L121.91,172.41 L122.05,172.18 L122.18,171.94 L122.32,171.71 L122.46,171.47 L122.59,171.24 L122.73,171.00 L122.86,170.77 L123.00,170.53 L123.14,170.29 L123.27,170.06 L123.41,169.82 L123.54,169.59 L123.68,169.35 L123.82,169.12 L123.95,168.88 L124.09,168.65 L124.22,168.41 L124.36,168.17 L124.50,167.94 L124.63,167.70 L124.77,167.47 L124.90,167.23 L125.04,167.00 L125.18,166.76 L125.31,166.53 L125.45,166.29 L125.58,166.05 L125.72,165.82 L125.86,165.58 L125.99,165.35 L126.13,165.11 L126.26,164.88 L126.40,164.64 L126.54,164.41 L126.67,164.17 L126.81,163.93 L126.94,163.70 L127.08,163.46 L127.22,163.23 L127.35,162.99 L127.49,162.76 L127.62,162.52 L127.76,162.29 L127.90,162.05 L128.03,161.81 L128.17,161.58 L128.30,161.34 L128.44,161.11 L128.58,160.87 L128.71,160.64 L128.85,160.40 L128.98,160.17 L129.12,159.93 L129.26,159.69 L129.39,159.46 L129.53,159.22 L129.66,158.99 L129.80,158.75 L129.94,158.52 L130.07,158.28 L130.21,158.05 L130.34,157.81 L130.48,157.57 L130.62,157.34 L130.75,157.10 L130.89,156.87 L131.02,156.63 L131.16,156.40 L131.30,156.16 L131.43,155.93 L131.57,155.69 L131.70,155.45 L131.84,155.22 L131.98,154.98 L132.11,154.75 L132.25,154.51 L132.38,154.28 L132.52,154.04 L132.66,153.81 L132.79,153.57 L132.93,153.33 L133.06,153.10 L133.20,152.86 L133.34,152.63 L133.47,152.39 L133.61,152.16 L133.74,151.92 L133.88,151.69 L134.02,151.45 L134.15,151.21 L134.29,150.98 L134.42,150.74 L134.56,150.51 L134.70,150.27 L134.83,150.04 L134.97,149.80 L135.10,149.57 L135.24,149.33 L135.38,149.09 L135.51,148.86 L135.65,148.62 L135.78,148.39 L135.92,148.15 L136.06,147.92 L136.19,147.68 L136.33,147.45 L136.46,147.21 L136.60,146.97 L136.74,146.74 L136.87,146.50 L137.01,146.27 L137.14,146.03 L137.28,145.80 L137.42,145.56 L137.55,145.33 L137.69,145.09 L137.82,144.85 L137.96,144.62 L138.10,144.38 L138.23,144.15 L138.37,143.91 L138.50,143.68 L138.64,143.44 L138.78,143.20 L138.91,142.97 L139.05,142.73 L139.18,142.50 L139.32,142.26 L139.46,142.03 L139.59,141.79 L139.73,141.56 L139.86,141.32 L140.00,141.08 L140.14,140.85 L140.27,140.61 L140.41,140.38 L140.54,140.14 L140.68,139.91 L140.82,139.67 L140.95,139.44 L141.09,139.20 L141.22,138.96 L141.36,138.73 L141.50,138.49 L141.63,138.26 L141.77,138.02 L141.90,137.79 L142.04,137.55 L142.18,137.32 L142.31,137.08 L142.45,136.84 L142.58,136.61 L142.72,136.37 L142.86,136.14 L142.99,135.90 L143.13,135.67 L143.26,135.43 L143.40,135.20 L143.54,134.96 L143.67,134.72 L143.81,134.49 L143.94,134.25 L144.08,134.02 L144.22,133.78 L144.35,133.55 L144.49,133.31 L144.62,133.08 L144.76,132.84 L144.90,132.60 L145.03,132.37 L145.17,132.13 L145.30,131.90 L145.44,131.66 L145.58,131.43 L145.71,131.19 L145.85,130.96 L145.98,130.72 L146.12,130.48 L146.26,130.25 L146.39,130.01 L146.53,129.78 L146.66,129.54 L146.80,129.31 L146.94,129.07 L147.07,128.84 L147.21,128.60 L147.34,128.36 L147.48,128.13 L147.62,127.89 L147.75,127.66 L147.89,127.42 L148.02,127.19 L148.16,126.95 L148.30,126.72 L148.43,126.48 L148.57,126.24 L148.70,126.01 L148.84,125.77 L148.98,125.54 L149.11,125.30 L149.25,125.07 L149.38,124.83 L149.52,124.60 L149.66,124.36 L149.79,124.12 L149.93,123.89 L150.06,123.65 L150.20,123.42 L150.34,123.18 L150.47,122.95 L150.61,122.71 L150.74,122.48 L150.88,122.24 L151.02,122.00 L151.15,121.77 L151.29,121.53 L151.42,121.30 L151.56,121.06 L151.70,120.83 L151.83,120.59 L151.97,120.36 L152.10,120.12 L152.24,119.88 L152.38,119.65 L152.51,119.41 L152.65,119.18 L152.78,118.94 L152.92,118.71 L153.06,118.47 L153.19,118.24 L153.33,118.00 L153.46,117.76 L153.60,117.53 L153.74,117.29 L153.87,117.06 L154.01,116.82 L154.14,116.59 L154.28,116.35 L154.42,116.12 L154.55,115.88 L154.69,115.64 L154.82,115.41 L154.96,115.17 L155.10,114.94 L155.23,114.70 L155.37,114.47 L155.50,114.23 L155.64,114.00 L155.78,113.76 L155.91,113.52 L156.05,113.29 L156.18,113.05 L156.32,112.82 L156.46,112.58 L156.59,112.35 L156.73,112.11 L156.86,111.88 L157.00,111.64 L157.14,111.40 L157.27,111.17 L157.41,110.93 L157.54,110.70 L157.68,110.46 L157.82,110.23 L157.95,109.99 L158.09,109.76 L158.22,109.52 L158.36,109.28 L158.50,109.05 L158.63,108.81 L158.77,108.58 L158.90,108.34 L159.04,108.11 L159.18,107.87 L159.31,107.64 L159.45,107.40 L159.58,107.16 L159.72,106.93 L159.86,106.69 L159.99,106.46 L160.13,106.22 L160.26,105.99 L160.40,105.75 L160.54,105.52 L160.67,105.28 L160.81,105.04 L160.94,104.81 L161.08,104.57 L161.22,104.34 L161.35,104.10 L161.49,103.87 L161.62,103.63 L161.76,103.40 L161.90,103.16 L162.03,102.92 L162.17,102.69 L162.30,102.45 L162.44,102.22 L162.58,101.98 L162.71,101.75 L162.85,101.51 L162.98,101.28 L163.12,101.04 L163.26,100.80 L163.39,100.57 L163.53,100.33 L163.66,100.10 L163.80,99.86 L163.94,99.63 L164.07,99.39 L164.21,99.16 L164.34,98.92 L164.48,98.68 L164.62,98.45 L164.75,98.21 L164.89,97.98 L165.02,97.74 L165.16,97.51 L165.30,97.27 L165.43,97.04 L165.57,96.80 L165.70,96.56 L165.84,96.33 L165.98,96.09 L166.11,95.86 L166.25,95.62 L166.38,95.39 L166.52,95.15 L166.66,94.92 L166.79,94.68 L166.93,94.44 L167.06,94.21 L167.20,93.97 L167.34,93.74 L167.47,93.50 L167.61,93.27 L167.74,93.03 L167.88,92.80 L168.02,92.56 L168.15,92.32 L168.29,92.09 L168.42,91.85 L168.56,91.62 L168.70,91.38 L168.83,91.15 L168.97,90.91 L169.10,90.68 L169.24,90.44 L169.38,90.20 L169.51,89.97 L169.65,89.73 L169.78,89.50 L169.92,89.26 L170.06,89.03 L170.19,88.79 L170.33,88.56 L170.46,88.32 L170.60,88.08 L170.74,87.85 L170.87,87.61 L171.01,87.38 L171.14,87.14 L171.28,86.91 L171.42,86.67 L171.55,86.44 L171.69,86.20 L171.82,85.96 L171.96,85.73 L172.10,85.49 L172.23,85.26 L172.37,85.02 L172.50,84.79 L172.64,84.55 L172.78,84.32 L172.91,84.08 L173.05,83.84 L173.18,83.61 L173.32,83.37 L173.46,83.14 L173.59,82.90 L173.73,82.67 L173.86,82.43 L174.00,82.20 L174.14,81.96 L174.27,81.72 L174.41,81.49 L174.54,81.25 L174.68,81.02 L174.82,80.78 L174.95,80.55 L175.09,80.31 L175.22,80.08 L175.36,79.84 L175.50,79.60 L175.63,79.37 L175.77,79.13 L175.90,78.90 L176.04,78.66 L176.18,78.43 L176.31,78.19 L176.45,77.96 L176.58,77.72 L176.72,77.48 L176.86,77.25 L176.99,77.01 L177.13,76.78 L177.26,76.54 L177.40,76.31 L177.54,76.07 L177.67,75.84 L177.81,75.60 L177.94,75.36 L178.08,75.13 L178.22,74.89 L178.35,74.66 L178.49,74.42 L178.62,74.19 L178.76,73.95 L178.90,73.72 L179.03,73.48 L179.17,73.24 L179.30,73.01 L179.44,72.77 L179.58,72.54 L179.71,72.30 L179.85,72.07 L179.98,71.83 L180.12,71.60 L180.26,71.36 L180.39,71.12 L180.53,70.89 L180.66,70.65 L180.80,70.42 L180.94,70.18 L181.07,69.95 L181.21,69.71 L181.34,69.48 L181.48,69.24 L181.62,69.00 L181.75,68.77 L181.89,68.53 L182.02,68.30 L182.16,68.06 L182.30,67.83 L182.43,67.59 L182.57,67.36"
                                  class="color-set-1"
                                  style="stroke-width: 1; stroke-opacity: 0.8; stroke-dasharray: 6, 6;" />
                            <path d=" M39.56,232.48 L39.63,232.48 L39.70,232.48 L39.77,232.48 L39.84,232.48 L39.90,232.48 L39.97,232.48 L40.04,232.48 L40.11,232.48 L40.18,232.48 L40.24,232.48 L40.31,232.48 L40.38,232.48 L40.45,232.48 L40.52,232.48 L40.58,232.48 L40.65,232.48 L40.72,232.48 L40.79,232.48 L40.86,232.48 L40.92,232.48 L40.99,232.48 L41.06,232.48 L41.13,232.48 L41.20,232.48 L41.26,232.48 L41.33,232.48 L41.40,232.48 L41.47,232.48 L41.54,232.48 L41.60,232.48 L41.67,232.48 L41.74,232.48 L41.81,232.48 L41.88,232.48 L41.94,232.48 L42.01,232.48 L42.08,232.48 L42.15,232.48 L42.22,232.48 L42.28,232.48 L42.35,232.48 L42.42,232.48 L42.49,232.48 L42.56,232.48 L42.62,232.48 L42.69,232.48 L42.76,232.48 L42.83,232.48 L42.90,232.48 L42.96,232.48 L43.03,232.48 L43.10,232.48 L43.17,232.48 L43.24,232.48 L43.30,232.48 L43.37,232.48 L43.44,232.48 L43.51,232.48 L43.58,232.48 L43.64,232.48 L43.71,232.48 L43.78,232.48 L43.85,232.48 L43.92,232.48 L43.98,232.48 L44.05,232.48 L44.12,232.48 L44.19,232.48 L44.26,232.48 L44.32,232.48 L44.39,232.48 L44.46,232.48 L44.53,232.48 L44.60,232.48 L44.66,232.48 L44.73,232.48 L44.80,232.48 L44.87,232.48 L44.94,232.48 L45.00,232.48 L45.07,232.48 L45.14,232.48 L45.21,232.48 L45.28,232.48 L45.34,232.48 L45.41,232.48 L45.48,232.48 L45.55,232.48 L45.62,232.48 L45.68,232.48 L45.75,232.48 L45.82,232.48 L45.89,232.48 L45.96,232.48 L46.02,232.48 L46.09,232.48 L46.16,232.48 L46.23,232.48 L46.30,232.48 L46.36,232.48 L46.43,232.48 L46.50,232.48 L46.57,232.48 L46.64,232.48 L46.70,232.48 L46.77,232.48 L46.84,232.48 L46.91,232.48 L46.98,232.48 L47.04,232.48 L47.11,232.48 L47.18,232.48 L47.25,232.48 L47.32,232.48 L47.38,232.48 L47.45,232.48 L47.52,232.48 L47.59,232.48 L47.66,232.48 L47.72,232.48 L47.79,232.48 L47.86,232.48 L47.93,232.48 L48.00,232.48 L48.06,232.48 L48.13,232.48 L48.20,232.48 L48.27,232.48 L48.34,232.48 L48.40,232.48 L48.47,232.48 L48.54,232.48 L48.61,232.48 L48.68,232.48 L48.74,232.48 L48.81,232.48 L48.88,232.48 L48.95,232.48 L49.02,232.48 L49.08,232.48 L49.15,232.48 L49.22,232.48 L49.29,232.48 L49.36,232.48 L49.42,232.48 L49.49,232.48 L49.56,232.48 L49.63,232.48 L49.70,232.48 L49.76,232.48 L49.83,232.48 L49.90,232.48 L49.97,232.48 L50.04,232.48 L50.10,232.48 L50.17,232.48 L50.24,232.48 L50.31,232.48 L50.38,232.48 L50.44,232.48 L50.51,232.48 L50.58,232.48 L50.65,232.48 L50.72,232.48 L50.78,232.48 L50.85,232.48 L50.92,232.48 L50.99,232.48 L51.06,232.48 L51.12,232.48 L51.19,232.48 L51.26,232.48 L51.33,232.48 L51.40,232.48 L51.46,232.48 L51.53,232.48 L51.60,232.48 L51.67,232.48 L51.74,232.48 L51.80,232.48 L51.87,232.48 L51.94,232.48 L52.01,232.48 L52.08,232.48 L52.14,232.48 L52.21,232.48 L52.28,232.48 L52.35,232.48 L52.42,232.48 L52.48,232.48 L52.55,232.48 L52.62,232.48 L52.69,232.48 L52.76,232.48 L52.82,232.48 L52.89,232.48 L52.96,232.48 L53.03,232.48 L53.10,232.48 L53.16,232.48 L53.23,232.48 L53.30,232.48 L53.37,232.48 L53.44,232.48 L53.50,232.48 L53.57,232.48 L53.64,232.48 L53.71,232.48 L53.78,232.48 L53.84,232.48 L53.91,232.48 L53.98,232.48 L54.05,232.48 L54.12,232.48 L54.18,232.48 L54.25,232.48 L54.32,232.48 L54.39,232.48 L54.46,232.48 L54.52,232.48 L54.59,232.48 L54.66,232.48 L54.73,232.48 L54.80,232.48 L54.86,232.48 L54.93,232.48 L55.00,232.48 L55.07,232.48 L55.14,232.48 L55.20,232.48 L55.27,232.48 L55.34,232.48 L55.41,232.48 L55.48,232.48 L55.54,232.48 L55.61,232.48 L55.68,232.48 L55.75,232.48 L55.82,232.48 L55.88,232.48 L55.95,232.48 L56.02,232.48 L56.09,232.48 L56.16,232.48 L56.22,232.48 L56.29,232.48 L56.36,232.48 L56.43,232.48 L56.50,232.48 L56.56,232.48 L56.63,232.48 L56.70,232.48 L56.77,232.48 L56.84,232.48 L56.90,232.48 L56.97,232.48 L57.04,232.48 L57.11,232.48 L57.18,232.48 L57.24,232.48 L57.31,232.48 L57.38,232.48 L57.45,232.48 L57.52,232.48 L57.58,232.48 L57.65,232.48 L57.72,232.48 L57.79,232.48 L57.86,232.48 L57.92,232.48 L57.99,232.48 L58.06,232.48 L58.13,232.48 L58.20,232.48 L58.26,232.48 L58.33,232.48 L58.40,232.48 L58.47,232.48 L58.54,232.48 L58.60,232.48 L58.67,232.48 L58.74,232.48 L58.81,232.48 L58.88,232.48 L58.94,232.48 L59.01,232.48 L59.08,232.48 L59.15,232.48 L59.22,232.48 L59.28,232.48 L59.35,232.48 L59.42,232.48 L59.49,232.48 L59.56,232.48 L59.62,232.48 L59.69,232.48 L59.76,232.48 L59.83,232.48 L59.90,232.48 L59.96,232.48 L60.03,232.48 L60.10,232.48 L60.17,232.48 L60.24,232.48 L60.30,232.48 L60.37,232.48 L60.44,232.48 L60.51,232.48 L60.58,232.48 L60.64,232.48 L60.71,232.48 L60.78,232.48 L60.85,232.48 L60.92,232.48 L60.98,232.48 L61.05,232.48 L61.12,232.48 L61.19,232.48 L61.26,232.48 L61.32,232.48 L61.39,232.48 L61.46,232.48 L61.53,232.48 L61.60,232.48 L61.66,232.48 L61.73,232.48 L61.80,232.48 L61.87,232.48 L61.94,232.48 L62.00,232.48 L62.07,232.48 L62.14,232.48 L62.21,232.48 L62.28,232.48 L62.34,232.48 L62.41,232.48 L62.48,232.48 L62.55,232.48 L62.62,232.48 L62.68,232.48 L62.75,232.48 L62.82,232.48 L62.89,232.48 L62.96,232.48 L63.02,232.48 L63.09,232.48 L63.16,232.48 L63.23,232.48 L63.30,232.48 L63.36,232.48 L63.43,232.48 L63.50,232.48 L63.57,232.48 L63.64,232.48 L63.70,232.48 L63.77,232.48 L63.84,232.48 L63.91,232.48 L63.98,232.48 L64.04,232.48 L64.11,232.48 L64.18,232.48 L64.25,232.48 L64.32,232.48 L64.38,232.48 L64.45,232.48 L64.52,232.48 L64.59,232.48 L64.66,232.48 L64.72,232.48 L64.79,232.48 L64.86,232.48 L64.93,232.48 L65.00,232.48 L65.06,232.48 L65.13,232.48 L65.20,232.48 L65.27,232.48 L65.34,232.48 L65.40,232.48 L65.47,232.48 L65.54,232.48 L65.61,232.48 L65.68,232.48 L65.74,232.48 L65.81,232.48 L65.88,232.48 L65.95,232.48 L66.02,232.48 L66.08,232.48 L66.15,232.48 L66.22,232.48 L66.29,232.48 L66.36,232.48 L66.42,232.48 L66.49,232.48 L66.56,232.48 L66.63,232.48 L66.70,232.48 L66.76,232.48 L66.83,232.48 L66.90,232.48 L66.97,232.48 L67.04,232.48 L67.10,232.48 L67.17,232.48 L67.24,232.48 L67.31,232.48 L67.38,232.48 L67.44,232.48 L67.51,232.48 L67.58,232.48 L67.65,232.48 L67.72,232.48 L67.78,232.48 L67.85,232.48 L67.92,232.48 L67.99,232.48 L68.06,232.48 L68.12,232.48 L68.19,232.48 L68.26,232.48 L68.33,232.48 L68.40,232.48 L68.46,232.48 L68.53,232.48 L68.60,232.48 L68.67,232.48 L68.74,232.48 L68.80,232.48 L68.87,232.48 L68.94,232.48 L69.01,232.48 L69.08,232.48 L69.14,232.48 L69.21,232.48 L69.28,232.48 L69.35,232.48 L69.42,232.48 L69.48,232.48 L69.55,232.48 L69.62,232.48 L69.69,232.48 L69.76,232.48 L69.82,232.48 L69.89,232.48 L69.96,232.48 L70.03,232.48 L70.10,232.48 L70.16,232.48 L70.23,232.48 L70.30,232.48 L70.37,232.48 L70.44,232.48 L70.50,232.48 L70.57,232.48 L70.64,232.48 L70.71,232.48 L70.78,232.48 L70.84,232.48 L70.91,232.48 L70.98,232.48 L71.05,232.48 L71.12,232.48 L71.18,232.48 L71.25,232.48 L71.32,232.48 L71.39,232.48 L71.46,232.48 L71.52,232.48 L71.59,232.48 L71.66,232.48 L71.73,232.48 L71.80,232.48 L71.86,232.48 L71.93,232.48 L72.00,232.48 L72.07,232.48 L72.14,232.48 L72.20,232.48 L72.27,232.48 L72.34,232.48 L72.41,232.48 L72.48,232.48 L72.54,232.48 L72.61,232.48 L72.68,232.48 L72.75,232.48 L72.82,232.48 L72.88,232.48 L72.95,232.48 L73.02,232.48 L73.09,232.48 L73.16,232.48 L73.22,232.48 L73.29,232.48 L73.36,232.48 L73.43,232.48 L73.50,232.48 L73.56,232.48 L73.63,232.48 L73.70,232.48 L73.77,232.48 L73.84,232.48 L73.90,232.48 L73.97,232.48 L74.04,232.48 L74.11,232.48 L74.18,232.48 L74.24,232.48 L74.31,232.48 L74.38,232.48 L74.45,232.48 L74.52,232.48 L74.58,232.48 L74.65,232.48 L74.72,232.48 L74.79,232.48 L74.86,232.48 L74.92,232.48 L74.99,232.48 L75.06,232.48 L75.13,232.48 L75.20,232.48 L75.26,232.48 L75.33,232.48 L75.40,232.48 L75.47,232.48 L75.54,232.48 L75.60,232.48 L75.67,232.48 L75.74,232.48 L75.81,232.48 L75.88,232.48 L75.94,232.48 L76.01,232.48 L76.08,232.48 L76.15,232.48 L76.22,232.48 L76.28,232.48 L76.35,232.48 L76.42,232.48 L76.49,232.48 L76.56,232.48 L76.62,232.48 L76.69,232.48 L76.76,232.48 L76.83,232.48 L76.90,232.48 L76.96,232.48 L77.03,232.48 L77.10,232.48 L77.17,232.48 L77.24,232.48 L77.30,232.48 L77.37,232.48 L77.44,232.48 L77.51,232.48 L77.58,232.48 L77.64,232.48 L77.71,232.48 L77.78,232.48 L77.85,232.48 L77.92,232.48 L77.98,232.48 L78.05,232.48 L78.12,232.48 L78.19,232.48 L78.26,232.48 L78.32,232.48 L78.39,232.48 L78.46,232.48 L78.53,232.48 L78.60,232.48 L78.66,232.48 L78.73,232.48 L78.80,232.48 L78.87,232.48 L78.94,232.48 L79.00,232.48 L79.07,232.48 L79.14,232.48 L79.21,232.48 L79.28,232.48 L79.34,232.48 L79.41,232.48 L79.48,232.48 L79.55,232.48 L79.62,232.48 L79.68,232.48 L79.75,232.48 L79.82,232.48 L79.89,232.48 L79.96,232.48 L80.02,232.48 L80.09,232.48 L80.16,232.48 L80.23,232.48 L80.30,232.48 L80.36,232.48 L80.43,232.48 L80.50,232.48 L80.57,232.48 L80.64,232.48 L80.70,232.48 L80.77,232.48 L80.84,232.48 L80.91,232.48 L80.98,232.48 L81.04,232.48 L81.11,232.48 L81.18,232.48 L81.25,232.48 L81.32,232.48 L81.38,232.48 L81.45,232.48 L81.52,232.48 L81.59,232.48 L81.66,232.48 L81.72,232.48 L81.79,232.48 L81.86,232.48 L81.93,232.48 L82.00,232.48 L82.06,232.48 L82.13,232.48 L82.20,232.48 L82.27,232.48 L82.34,232.48 L82.40,232.48 L82.47,232.48 L82.54,232.48 L82.61,232.48 L82.68,232.48 L82.74,232.48 L82.81,232.48 L82.88,232.48 L82.95,232.48 L83.02,232.48 L83.08,232.48 L83.15,232.48 L83.22,232.48 L83.29,232.48 L83.36,232.48 L83.42,232.48 L83.49,232.48 L83.56,232.48 L83.63,232.48 L83.70,232.48 L83.76,232.48 L83.83,232.48 L83.90,232.48 L83.97,232.48 L84.04,232.48 L84.10,232.48 L84.17,232.48 L84.24,232.48 L84.31,232.48 L84.38,232.48 L84.44,232.48 L84.51,232.48 L84.58,232.48 L84.65,232.48 L84.72,232.48 L84.78,232.48 L84.85,232.48 L84.92,232.48 L84.99,232.48 L85.06,232.48 L85.12,232.48 L85.19,232.48 L85.26,232.48 L85.33,232.48 L85.40,232.48 L85.46,232.48 L85.53,232.48 L85.60,232.48 L85.67,232.48 L85.74,232.48 L85.80,232.48 L85.87,232.48 L85.94,232.48 L86.01,232.48 L86.08,232.48 L86.14,232.48 L86.21,232.48 L86.28,232.48 L86.35,232.48 L86.42,232.48 L86.48,232.48 L86.55,232.48 L86.62,232.48 L86.69,232.48 L86.76,232.48 L86.82,232.48 L86.89,232.48 L86.96,232.48 L87.03,232.48 L87.10,232.48 L87.16,232.48 L87.23,232.48"
                                  class="color-set-1"
                                  style="stroke-width: 1; stroke-opacity: 1; stroke-dasharray: 6, 6;" />
                            <g>
                                <circle cx="39.56342654685663"
                                        cy="149.91859225687878"
                                        r="1.5"
                                        style="stroke-width: 3; stroke: rgb(240, 50, 230); stroke-opacity: 0.8; fill: rgb(240, 50, 230); fill-opacity: 0.15;" />
                                <circle cx="75.31437941898105"
                                        cy="129.27742210662905"
                                        r="1.5"
                                        style="stroke-width: 3; stroke: rgb(240, 50, 230); stroke-opacity: 0.8; fill: rgb(240, 50, 230); fill-opacity: 0.15;" />
                                <circle cx="39.56342654685663"
                                        cy="232.4818428197629"
                                        r="1.5"
                                        style="stroke-width: 3; stroke: rgb(240, 50, 230); stroke-opacity: 0.8; fill: rgb(240, 50, 230); fill-opacity: 0.15;" />
                            </g>
                            <path d=" M182.57,67.36 L182.69,67.77 L182.81,68.18 L182.92,68.59 L183.04,69.00 L183.16,69.42 L183.28,69.83 L183.40,70.24 L183.52,70.65 L183.64,71.07 L183.76,71.48 L183.88,71.89 L184.00,72.30 L184.11,72.71 L184.23,73.13 L184.35,73.54 L184.47,73.95 L184.59,74.36 L184.71,74.78 L184.83,75.19 L184.95,75.60 L185.07,76.01 L185.19,76.42 L185.30,76.84 L185.42,77.25 L185.54,77.66 L185.66,78.07 L185.78,78.49 L185.90,78.90 L186.02,79.31 L186.14,79.72 L186.26,80.13 L186.38,80.55 L186.49,80.96 L186.61,81.37 L186.73,81.78 L186.85,82.20 L186.97,82.61 L187.09,83.02 L187.21,83.43 L187.33,83.84 L187.45,84.26 L187.57,84.67 L187.68,85.08 L187.80,85.49 L187.92,85.91 L188.04,86.32 L188.16,86.73 L188.28,87.14 L188.40,87.55 L188.52,87.97 L188.64,88.38 L188.76,88.79 L188.87,89.20 L188.99,89.62 L189.11,90.03 L189.23,90.44 L189.35,90.85 L189.47,91.26 L189.59,91.68 L189.71,92.09 L189.83,92.50 L189.95,92.91 L190.06,93.33 L190.18,93.74 L190.30,94.15 L190.42,94.56 L190.54,94.97 L190.66,95.39 L190.78,95.80 L190.90,96.21 L191.02,96.62 L191.14,97.04 L191.25,97.45 L191.37,97.86 L191.49,98.27 L191.61,98.68 L191.73,99.10 L191.85,99.51 L191.97,99.92 L192.09,100.33 L192.21,100.75 L192.33,101.16 L192.44,101.57 L192.56,101.98 L192.68,102.39 L192.80,102.81 L192.92,103.22 L193.04,103.63 L193.16,104.04 L193.28,104.46 L193.40,104.87 L193.52,105.28 L193.63,105.69 L193.75,106.10 L193.87,106.52 L193.99,106.93 L194.11,107.34 L194.23,107.75 L194.35,108.17 L194.47,108.58 L194.59,108.99 L194.71,109.40 L194.82,109.81 L194.94,110.23 L195.06,110.64 L195.18,111.05 L195.30,111.46 L195.42,111.88 L195.54,112.29 L195.66,112.70 L195.78,113.11 L195.90,113.52 L196.01,113.94 L196.13,114.35 L196.25,114.76 L196.37,115.17 L196.49,115.59 L196.61,116.00 L196.73,116.41 L196.85,116.82 L196.97,117.23 L197.09,117.65 L197.20,118.06 L197.32,118.47 L197.44,118.88 L197.56,119.30 L197.68,119.71 L197.80,120.12 L197.92,120.53 L198.04,120.95 L198.16,121.36 L198.28,121.77 L198.39,122.18 L198.51,122.59 L198.63,123.01 L198.75,123.42 L198.87,123.83 L198.99,124.24 L199.11,124.66 L199.23,125.07 L199.35,125.48 L199.47,125.89 L199.58,126.30 L199.70,126.72 L199.82,127.13 L199.94,127.54 L200.06,127.95 L200.18,128.37 L200.30,128.78 L200.42,129.19 L200.54,129.60 L200.66,130.01 L200.77,130.43 L200.89,130.84 L201.01,131.25 L201.13,131.66 L201.25,132.08 L201.37,132.49 L201.49,132.90 L201.61,133.31 L201.73,133.72 L201.85,134.14 L201.96,134.55 L202.08,134.96 L202.20,135.37 L202.32,135.79 L202.44,136.20 L202.56,136.61 L202.68,137.02 L202.80,137.43 L202.92,137.85 L203.04,138.26 L203.15,138.67 L203.27,139.08 L203.39,139.50 L203.51,139.91 L203.63,140.32 L203.75,140.73 L203.87,141.14 L203.99,141.56 L204.11,141.97 L204.23,142.38 L204.34,142.79 L204.46,143.21 L204.58,143.62 L204.70,144.03 L204.82,144.44 L204.94,144.85 L205.06,145.27 L205.18,145.68 L205.30,146.09 L205.42,146.50 L205.53,146.92 L205.65,147.33 L205.77,147.74 L205.89,148.15 L206.01,148.56 L206.13,148.98 L206.25,149.39 L206.37,149.80 L206.49,150.21 L206.61,150.63 L206.72,151.04 L206.84,151.45 L206.96,151.86 L207.08,152.27 L207.20,152.69 L207.32,153.10 L207.44,153.51 L207.56,153.92 L207.68,154.34 L207.80,154.75 L207.91,155.16 L208.03,155.57 L208.15,155.98 L208.27,156.40 L208.39,156.81 L208.51,157.22 L208.63,157.63 L208.75,158.05 L208.87,158.46 L208.99,158.87 L209.10,159.28 L209.22,159.69 L209.34,160.11 L209.46,160.52 L209.58,160.93 L209.70,161.34 L209.82,161.76 L209.94,162.17 L210.06,162.58 L210.18,162.99 L210.29,163.40 L210.41,163.82 L210.53,164.23 L210.65,164.64 L210.77,165.05 L210.89,165.47 L211.01,165.88 L211.13,166.29 L211.25,166.70 L211.37,167.11 L211.48,167.53 L211.60,167.94 L211.72,168.35 L211.84,168.76 L211.96,169.18 L212.08,169.59 L212.20,170.00 L212.32,170.41 L212.44,170.82 L212.56,171.24 L212.67,171.65 L212.79,172.06 L212.91,172.47 L213.03,172.89 L213.15,173.30 L213.27,173.71 L213.39,174.12 L213.51,174.53 L213.63,174.95 L213.75,175.36 L213.86,175.77 L213.98,176.18 L214.10,176.60 L214.22,177.01 L214.34,177.42 L214.46,177.83 L214.58,178.24 L214.70,178.66 L214.82,179.07 L214.94,179.48 L215.05,179.89 L215.17,180.31 L215.29,180.72 L215.41,181.13 L215.53,181.54 L215.65,181.95 L215.77,182.37 L215.89,182.78 L216.01,183.19 L216.13,183.60 L216.24,184.02 L216.36,184.43 L216.48,184.84 L216.60,185.25 L216.72,185.66 L216.84,186.08 L216.96,186.49 L217.08,186.90 L217.20,187.31 L217.32,187.73 L217.43,188.14 L217.55,188.55 L217.67,188.96 L217.79,189.37 L217.91,189.79 L218.03,190.20 L218.15,190.61 L218.27,191.02 L218.39,191.44 L218.51,191.85 L218.62,192.26 L218.74,192.67 L218.86,193.09 L218.98,193.50 L219.10,193.91 L219.22,194.32 L219.34,194.73 L219.46,195.15 L219.58,195.56 L219.70,195.97 L219.81,196.38 L219.93,196.80 L220.05,197.21 L220.17,197.62 L220.29,198.03 L220.41,198.44 L220.53,198.86 L220.65,199.27 L220.77,199.68 L220.89,200.09 L221.00,200.51 L221.12,200.92 L221.24,201.33 L221.36,201.74 L221.48,202.15 L221.60,202.57 L221.72,202.98 L221.84,203.39 L221.96,203.80 L222.08,204.22 L222.19,204.63 L222.31,205.04 L222.43,205.45 L222.55,205.86 L222.67,206.28 L222.79,206.69 L222.91,207.10 L223.03,207.51 L223.15,207.93 L223.27,208.34 L223.38,208.75 L223.50,209.16 L223.62,209.57 L223.74,209.99 L223.86,210.40 L223.98,210.81 L224.10,211.22 L224.22,211.64 L224.34,212.05 L224.46,212.46 L224.57,212.87 L224.69,213.28 L224.81,213.70 L224.93,214.11 L225.05,214.52 L225.17,214.93 L225.29,215.35 L225.41,215.76 L225.53,216.17 L225.65,216.58 L225.76,216.99 L225.88,217.41 L226.00,217.82 L226.12,218.23 L226.24,218.64 L226.36,219.06 L226.48,219.47 L226.60,219.88 L226.72,220.29 L226.84,220.70 L226.95,221.12 L227.07,221.53 L227.19,221.94 L227.31,222.35 L227.43,222.77 L227.55,223.18 L227.67,223.59 L227.79,224.00 L227.91,224.41 L228.03,224.83 L228.14,225.24 L228.26,225.65 L228.38,226.06 L228.50,226.48 L228.62,226.89 L228.74,227.30 L228.86,227.71 L228.98,228.12 L229.10,228.54 L229.22,228.95 L229.33,229.36 L229.45,229.77 L229.57,230.19 L229.69,230.60 L229.81,231.01 L229.93,231.42 L230.05,231.83 L230.17,232.25 L230.29,232.66 L230.41,233.07 L230.52,233.48 L230.64,233.90 L230.76,234.31 L230.88,234.72 L231.00,235.13 L231.12,235.54 L231.24,235.96 L231.36,236.37 L231.48,236.78 L231.60,237.19 L231.71,237.61 L231.83,238.02 L231.95,238.43 L232.07,238.84 L232.19,239.25 L232.31,239.67 L232.43,240.08 L232.55,240.49 L232.67,240.90 L232.79,241.32 L232.90,241.73 L233.02,242.14 L233.14,242.55 L233.26,242.96 L233.38,243.38 L233.50,243.79 L233.62,244.20 L233.74,244.61 L233.86,245.03 L233.98,245.44 L234.09,245.85 L234.21,246.26 L234.33,246.67 L234.45,247.09 L234.57,247.50 L234.69,247.91 L234.81,248.32 L234.93,248.74 L235.05,249.15 L235.17,249.56 L235.28,249.97 L235.40,250.38 L235.52,250.80 L235.64,251.21 L235.76,251.62 L235.88,252.03 L236.00,252.45 L236.12,252.86 L236.24,253.27 L236.36,253.68 L236.47,254.09 L236.59,254.51 L236.71,254.92 L236.83,255.33 L236.95,255.74 L237.07,256.16 L237.19,256.57 L237.31,256.98 L237.43,257.39 L237.55,257.80 L237.66,258.22 L237.78,258.63 L237.90,259.04 L238.02,259.45 L238.14,259.87 L238.26,260.28 L238.38,260.69 L238.50,261.10 L238.62,261.51 L238.74,261.93 L238.85,262.34 L238.97,262.75 L239.09,263.16 L239.21,263.58 L239.33,263.99 L239.45,264.40 L239.57,264.81 L239.69,265.23 L239.81,265.64 L239.93,266.05 L240.04,266.46 L240.16,266.87 L240.28,267.29 L240.40,267.70 L240.52,268.11 L240.64,268.52 L240.76,268.94 L240.88,269.35 L241.00,269.76 L241.12,270.17 L241.23,270.58 L241.35,271.00 L241.47,271.41 L241.59,271.82 L241.71,272.23 L241.83,272.65 L241.95,273.06 L242.07,273.47 L242.19,273.88 L242.31,274.29 L242.42,274.71 L242.54,275.12 L242.66,275.53 L242.78,275.94 L242.90,276.36 L243.02,276.77 L243.14,277.18 L243.26,277.59 L243.38,278.00 L243.50,278.42 L243.61,278.83 L243.73,279.24 L243.85,279.65 L243.97,280.07 L244.09,280.48 L244.21,280.89 L244.33,281.30 L244.45,281.71 L244.57,282.13 L244.69,282.54 L244.80,282.95 L244.92,283.36 L245.04,283.78 L245.16,284.19 L245.28,284.60 L245.40,285.01 L245.52,285.42 L245.64,285.84 L245.76,286.25 L245.88,286.66 L245.99,287.07 L246.11,287.49 L246.23,287.90 L246.35,288.31 L246.47,288.72 L246.59,289.13 L246.71,289.55 L246.83,289.96 L246.95,290.37 L247.07,290.78 L247.18,291.20 L247.30,291.61 L247.42,292.02 L247.54,292.43 L247.66,292.84 L247.78,293.26 L247.90,293.67 L248.02,294.08 L248.14,294.49 L248.26,294.91 L248.37,295.32 L248.49,295.73 L248.61,296.14 L248.73,296.55 L248.85,296.97 L248.97,297.38 L249.09,297.79 L249.21,298.20 L249.33,298.62 L249.45,299.03 L249.56,299.44 L249.68,299.85 L249.80,300.26 L249.92,300.68 L250.04,301.09 L250.16,301.50 L250.28,301.91 L250.40,302.33 L250.52,302.74 L250.64,303.15 L250.75,303.56 L250.87,303.97 L250.99,304.39 L251.11,304.80 L251.23,305.21 L251.35,305.62 L251.47,306.04 L251.59,306.45 L251.71,306.86 L251.83,307.27 L251.94,307.68 L252.06,308.10 L252.18,308.51 L252.30,308.92 L252.42,309.33 L252.54,309.75 L252.66,310.16 L252.78,310.57 L252.90,310.98 L253.02,311.39 L253.13,311.81 L253.25,312.22 L253.37,312.63 L253.49,313.04 L253.61,313.46 L253.73,313.87 L253.85,314.28 L253.97,314.69 L254.09,315.10 L254.21,315.52 L254.32,315.93 L254.44,316.34 L254.56,316.75 L254.68,317.17 L254.80,317.58 L254.92,317.99 L255.04,318.40 L255.16,318.81 L255.28,319.23 L255.40,319.64 L255.51,320.05 L255.63,320.46 L255.75,320.88 L255.87,321.29 L255.99,321.70 L256.11,322.11 L256.23,322.52 L256.35,322.94 L256.47,323.35 L256.59,323.76 L256.70,324.17 L256.82,324.59 L256.94,325.00 L257.06,325.41 L257.18,325.82 L257.30,326.23 L257.42,326.65 L257.54,327.06 L257.66,327.47 L257.78,327.88 L257.89,328.30 L258.01,328.71 L258.13,329.12 L258.25,329.53 L258.37,329.94 L258.49,330.36 L258.61,330.77 L258.73,331.18 L258.85,331.59 L258.97,332.01 L259.08,332.42 L259.20,332.83 L259.32,333.24 L259.44,333.65 L259.56,334.07 L259.68,334.48 L259.80,334.89 L259.92,335.30 L260.04,335.72 L260.16,336.13 L260.27,336.54 L260.39,336.95 L260.51,337.37 L260.63,337.78 L260.75,338.19 L260.87,338.60 L260.99,339.01 L261.11,339.43 L261.23,339.84 L261.35,340.25 L261.46,340.66 L261.58,341.08 L261.70,341.49 L261.82,341.90 L261.94,342.31 L262.06,342.72 L262.18,343.14 L262.30,343.55 L262.42,343.96 L262.54,344.37 L262.65,344.79 L262.77,345.20 L262.89,345.61 L263.01,346.02 L263.13,346.43 L263.25,346.85 L263.37,347.26 L263.49,347.67 L263.61,348.08 L263.73,348.50 L263.84,348.91 L263.96,349.32 L264.08,349.73 L264.20,350.14 L264.32,350.56 L264.44,350.97 L264.56,351.38 L264.68,351.79 L264.80,352.21 L264.92,352.62 L265.03,353.03 L265.15,353.44 L265.27,353.85 L265.39,354.27 L265.51,354.68 L265.63,355.09 L265.75,355.50 L265.87,355.92 L265.99,356.33"
                                  class="color-set-2"
                                  style="stroke-width: 1; stroke-opacity: 0.8; stroke-dasharray: 6, 6;" />
                            <g>
                                <circle cx="265.98636640999706"
                                        cy="356.32671866408907"
                                        r="1.5"
                                        class="color-set-2"
                                        style="stroke-width: 3; stroke-opacity: 0.8; fill: rgb(250, 190, 190); fill-opacity: 1;" />
                                <circle cx="75.31437941898105"
                                        cy="191.20021753832083"
                                        r="1.5"
                                        class="color-set-2"
                                        style="stroke-width: 3; stroke-opacity: 0.8; fill: rgb(250, 190, 190); fill-opacity: 1;" />
                            </g>
                        </g>
                    </g>
                    <g class="test-xtl"
                       style="font-family: &quot;Open Sans&quot;, verdana, arial, sans-serif;" />
                    <g class="test-ytl"
                       style="font-family: &quot;Open Sans&quot;, verdana, arial, sans-serif;" />
                    <rect class="real"
                          x="1"
                          y="1"
                          width="349"
                          height="375"
                          style="fill: transparent; stroke: none;" />
                </g>
            </g>
        </g>
        <g />
    </g>
    <g />
    <g />
    <g />
    <g>
        <g>
            <g>
                <g transform="matrix(1,0,0,1,129.666650390625,220.0000061035156)">
                    <path transform="matrix(0.017,0,0,-0.017,0,0)"
                          d="M286 646L392 650C454 650 494 641 495 626L503 537L527 537C530 600 537 651 548 689C526 691 498 692 481 692L440 691L275 689L246 689C221 689 181 690 143 691L94 692L91 664L147 662C171 661 182 652 182 635C182 621 178 589 173 559L98 125C81 33 81 32 40 28L4 25L0 -3L34 -2C74 -1 106 0 127 0C145 0 174 -1 213 -2L265 -3L268 25L204 28C177 29 168 37 168 57C168 63 169 74 170 78L206 301L323 301C350 301 381 300 429 298L455 297L474 342L470 349C389 345 329 343 251 343L214 343L260 614C263 630 264 635 269 646Z"
                          class="char"
                          stroke-opacity="1"
                          stroke-width="8"
                          fill-opacity="1" />
                </g>
            </g>
        </g>
    </g>
    <g>
        <g>
            <g>
                <g transform="matrix(1,0,0,1,77.66665039062501,219.0000061035156)">
                    <path transform="matrix(0.017,0,0,-0.017,0,0)"
                          d="M748 425C748 603 644 706 464 706C227 706 53 523 53 272C53 83 147 -18 323 -18C595 -18 748 207 748 425ZM660 409C660 221 571 24 360 24C216 24 141 110 141 277C141 425 199 664 433 664C549 664 660 610 660 409Z"
                          class="char"
                          stroke-opacity="1"
                          stroke-width="8"
                          fill-opacity="1" />
                </g>
            </g>
        </g>
    </g>
    <g>
        <g>
            <g>
                <g transform="matrix(1,0,0,1,230.666650390625,220.0000061035156)">
                    <path transform="matrix(0.017,0,0,-0.017,0,0)"
                          d="M151 -172C151 -95 175 -59 228 -59C257 -59 285 -67 324 -88L469 -164C529 -195 547 -201 587 -201C662 -201 698 -158 708 -61L683 -61C677 -115 655 -140 615 -140C598 -140 579 -135 553 -125L317 -29C292 -19 274 -15 251 -15C177 -15 126 -66 126 -142C126 -144 126 -151 127 -159ZM748 425C748 603 644 706 464 706C227 706 53 523 53 272C53 83 147 -18 323 -18C595 -18 748 207 748 425ZM660 409C660 221 571 24 360 24C216 24 141 110 141 277C141 425 199 664 433 664C549 664 660 610 660 409Z"
                          class="char"
                          stroke-opacity="1"
                          stroke-width="8"
                          fill-opacity="1" />
                </g>
            </g>
            <g>
                <g transform="matrix(1,0,0,1,243.88540039062497,220.66668090820315)">
                    <path transform="matrix(0.017,0,0,-0.017,0,0)"
                          d="M146 266C146 526 243 632 301 700L282 726C225 675 60 542 60 266C60 159 85 58 133 -32C168 -99 200 -138 282 -215L301 -194C255 -137 146 -15 146 266Z"
                          class="char"
                          stroke-opacity="1"
                          stroke-width="8"
                          fill-opacity="1" />
                </g>
            </g>
            <g>
                <g transform="matrix(1,0,0,1,249.53125,220.0000061035156)">
                    <path transform="matrix(0.017,0,0,-0.017,0,0)"
                          d="M16 23L16 -3C203 -3 203 0 239 0C275 0 275 -3 468 -3L468 82C353 77 307 81 122 77L304 270C401 373 431 428 431 503C431 618 353 689 226 689C154 689 105 669 56 619L39 483L68 483L81 529C97 587 133 612 200 612C286 612 341 558 341 473C341 398 299 324 186 204ZM675 -11C731 -11 846 62 889 125C930 186 964 296 964 371C964 438 941 482 905 482C863 482 810 456 758 409C717 374 697 348 661 289L685 408C688 425 690 440 690 452C690 471 682 482 668 482C647 482 609 461 535 408L507 388L514 368L546 389C574 407 585 412 594 412C604 412 611 403 611 389C611 381 609 361 607 351L549 8C539 -52 520 -143 500 -233L492 -270L499 -276C520 -269 540 -264 572 -259L614 3C635 -4 657 -11 675 -11ZM642 165C664 293 771 424 854 424C880 424 892 402 892 356C892 275 852 156 799 80C779 51 747 36 706 36C675 36 650 43 624 59Z"
                          class="char"
                          stroke-opacity="1"
                          stroke-width="8"
                          fill-opacity="1" />
                </g>
            </g>
            <g>
                <g transform="matrix(1,0,0,1,266.5,220.0000061035156)">
                    <path transform="matrix(0.017,0,0,-0.017,0,0)"
                          d="M204 123C177 114 159 108 106 93C99 17 74 -48 16 -144L30 -155L71 -136C152 -31 190 32 218 109Z"
                          class="char"
                          stroke-opacity="1"
                          stroke-width="8"
                          fill-opacity="1" />
                </g>
            </g>
            <g>
                <g transform="matrix(1,0,0,1,274.13540039062497,220.0000061035156)">
                    <path transform="matrix(0.017,0,0,-0.017,0,0)"
                          d="M263 689C108 689 29 566 29 324C29 207 50 106 85 57C120 8 176 -20 238 -20C389 -20 465 110 465 366C465 585 400 689 263 689ZM245 654C342 654 381 556 381 316C381 103 343 15 251 15C154 15 113 116 113 360C113 571 150 654 245 654Z"
                          class="char"
                          stroke-opacity="1"
                          stroke-width="8"
                          fill-opacity="1" />
                </g>
            </g>
            <g>
                <g transform="matrix(1,0,0,1,282.625,220.66668090820315)">
                    <path transform="matrix(0.017,0,0,-0.017,0,0)"
                          d="M51 726L32 700C87 636 187 526 187 266C187 -10 83 -131 32 -194L51 -215C104 -165 273 -23 273 265C273 542 108 675 51 726Z"
                          class="char"
                          stroke-opacity="1"
                          stroke-width="8"
                          fill-opacity="1" />
                </g>
            </g>
        </g>
    </g>
    <g>
        <g>
            <g>
                <g transform="matrix(1,0,0,1,70.66665039062501,372.6541809082031)">
                    <path transform="matrix(0.015300000000000001,0,0,-0.015300000000000001,0,0)"
                          d="M251 722L239 733C187 707 151 698 79 691L75 670L123 670C147 670 157 663 157 648C157 645 157 640 154 622C143 567 70 182 55 132C42 82 36 52 36 31C36 6 47 -9 66 -9C92 -9 128 12 226 85L216 103L190 86C161 67 139 56 129 56C122 56 116 66 116 76C116 82 117 89 120 104Z"
                          stroke="rgb(245,130,49)"
                          stroke-opacity="1"
                          stroke-width="8"
                          fill="rgb(245,130,49)"
                          fill-opacity="1" />
                </g>
            </g>
            <g>
                <g transform="matrix(1,0,0,1,77.95830078125,372.6541809082031)">
                    <path transform="matrix(0.015300000000000001,0,0,-0.015300000000000001,0,0)"
                          d="M123 111C93 111 66 83 66 53C66 23 93 -5 122 -5C154 -5 182 22 182 53C182 83 154 111 123 111ZM123 456C93 456 66 428 66 398C66 368 93 340 122 340C154 340 182 367 182 397C182 428 154 456 123 456Z"
                          stroke="rgb(245,130,49)"
                          stroke-opacity="1"
                          stroke-width="8"
                          fill="rgb(245,130,49)"
                          fill-opacity="1" />
                </g>
            </g>
            <g>
                <g transform="matrix(1,0,0,1,84.82290039062501,372.6541809082031)">
                    <path transform="matrix(0.015300000000000001,0,0,-0.015300000000000001,0,0)"
                          d="M9 1C24 -7 40 -11 52 -11C85 -11 124 18 155 65L231 182L242 113C255 28 278 -11 314 -11C336 -11 368 6 400 35L449 79L440 98C404 68 379 53 363 53C348 53 335 63 325 83C316 102 305 139 300 168L282 269L317 318C364 383 391 406 422 406C438 406 450 398 455 383L469 387L484 472C472 479 463 482 454 482C414 482 374 446 312 354L275 299L269 347C257 446 230 482 171 482C145 482 123 474 114 461L56 378L73 368C103 402 123 416 142 416C175 416 197 375 214 277L225 215L185 153C142 86 108 54 80 54C65 54 54 58 52 63L41 91L21 88C21 53 13 27 9 1Z"
                          stroke="rgb(245,130,49)"
                          stroke-opacity="1"
                          stroke-width="8"
                          fill="rgb(245,130,49)"
                          fill-opacity="1" />
                </g>
            </g>
            <g>
                <g transform="matrix(1,0,0,1,97.04165039062501,372.6541809082031)">
                    <path transform="matrix(0.015300000000000001,0,0,-0.015300000000000001,0,0)"
                          d="M604 347L604 406L65 406L65 347ZM604 134L604 193L65 193L65 134Z"
                          stroke="rgb(245,130,49)"
                          stroke-opacity="1"
                          stroke-width="8"
                          fill="rgb(245,130,49)"
                          fill-opacity="1" />
                </g>
            </g>
            <g>
                <g transform="matrix(1,0,0,1,111.85415039062501,372.6541809082031)">
                    <path transform="matrix(0.015300000000000001,0,0,-0.015300000000000001,0,0)"
                          d="M555 243L555 299L51 299L51 243Z"
                          stroke="rgb(245,130,49)"
                          stroke-opacity="1"
                          stroke-width="8"
                          fill="rgb(245,130,49)"
                          fill-opacity="1" />
                </g>
            </g>
            <g>
                <g>
                    <g>
                        <g>
                            <g transform="matrix(1,0,0,1,122.63540039062501,362.30003051757814)">
                                <path transform="matrix(0.015300000000000001,0,0,-0.015300000000000001,0,0)"
                                      d="M176 -11C232 -11 347 62 390 125C431 186 465 296 465 371C465 438 442 482 406 482C364 482 311 456 259 409C218 374 198 348 162 289L186 408C189 425 191 440 191 452C191 471 183 482 169 482C148 482 110 461 36 408L8 388L15 368L47 389C75 407 86 412 95 412C105 412 112 403 112 389C112 381 110 361 108 351L50 8C40 -52 21 -143 1 -233L-7 -270L0 -276C21 -269 41 -264 73 -259L115 3C136 -4 158 -11 176 -11ZM143 165C165 293 272 424 355 424C381 424 393 402 393 356C393 275 353 156 300 80C280 51 248 36 207 36C176 36 151 43 125 59Z"
                                      stroke="rgb(245,130,49)"
                                      stroke-opacity="1"
                                      stroke-width="8"
                                      fill="rgb(245,130,49)"
                                      fill-opacity="1" />
                            </g>
                        </g>
                    </g>
                </g>
                <g>
                    <g>
                        <g>
                            <g transform="matrix(1,0,0,1,122.63540039062501,385.0083312988281)">
                                <path transform="matrix(0.015300000000000001,0,0,-0.015300000000000001,0,0)"
                                      d="M16 23L16 -3C203 -3 203 0 239 0C275 0 275 -3 468 -3L468 82C353 77 307 81 122 77L304 270C401 373 431 428 431 503C431 618 353 689 226 689C154 689 105 669 56 619L39 483L68 483L81 529C97 587 133 612 200 612C286 612 341 558 341 473C341 398 299 324 186 204Z"
                                      stroke="rgb(245,130,49)"
                                      stroke-opacity="1"
                                      stroke-width="8"
                                      fill="rgb(245,130,49)"
                                      fill-opacity="1" />
                            </g>
                        </g>
                    </g>
                </g>
                <line style="fill:none;stroke-width:0.666667px;stroke:rgb(245, 130, 49);"
                      x1="122.63540039062501"
                      y1="368.86459760665895"
                      x2="130.27081756591795"
                      y2="368.86459760665895" />
            </g>
        </g>
    </g>
    <g>
        <g>
            <g>
                <g transform="matrix(1,0,0,1,195.666650390625,69.00000610351563)">
                    <path transform="matrix(0.017,0,0,-0.017,0,0)"
                          d="M567 55C567 39 552 30 524 28L480 25L480 -3C582 0 582 0 602 0C622 0 622 0 724 -3L724 25L698 28C651 35 650 35 642 80L555 705L509 705L136 112C100 56 82 40 48 32L28 27L28 -3C120 0 120 0 140 0C159 0 161 0 247 -3L247 25L195 28C179 29 164 38 164 47C164 55 171 69 190 102L292 277L538 277L563 89L563 86C563 84 567 69 567 55ZM496 601L533 313L317 313Z"
                          class="color-set-1"
                          stroke-opacity="1"
                          stroke-width="8"
                          fill-opacity="1" />
                </g>
            </g>
        </g>
    </g>
    <g>
        <g>
            <g>
                <g transform="matrix(1,0,0,1,115.66665039062501,248.0000061035156)">
                    <path transform="matrix(0.017,0,0,-0.017,0,0)"
                          d="M543 227C543 337 459 353 377 365C434 385 459 397 490 425C536 464 559 511 559 562C559 644 501 692 401 692C399 692 389 692 374 691L311 690C299 689 263 689 251 689C232 689 201 690 152 691L100 692L97 664L150 662C174 661 185 653 185 635C185 621 181 589 176 559L89 55C85 37 73 30 31 23L26 -3L63 -2C90 0 105 0 117 0C128 0 154 -1 180 -2L217 -3L237 -4C256 -5 269 -6 277 -6C392 -6 543 87 543 227ZM166 41L217 340L302 340C405 340 455 298 455 211C455 108 382 34 282 34C228 34 207 38 166 41ZM352 655C433 655 473 619 473 544C473 439 399 376 275 376L223 376L272 650C288 650 329 655 352 655Z"
                          class="color-set-1"
                          stroke-opacity="1"
                          stroke-width="8"
                          fill-opacity="1" />
                </g>
            </g>
        </g>
    </g>
    <g>
        <g>
            <g>
                <g transform="matrix(1,0,0,1,42.666650390624994,165.0000061035156)">
                    <path transform="matrix(0.017,0,0,-0.017,0,0)"
                          d="M105 664L160 662C184 661 195 653 195 635L112 125C95 34 94 31 54 28L13 25L9 -3L51 -2C92 -1 123 0 141 0C158 0 187 -1 227 -2L280 -3L283 25L218 28C192 29 182 37 182 58C182 67 183 74 186 93L284 648C320 654 336 656 355 656C457 656 506 612 506 519C506 411 434 323 346 323C324 323 304 328 267 342L269 311C306 293 326 288 355 288C484 288 594 405 594 541C594 642 531 695 412 692L108 692Z"
                          class="color-set-1"
                          stroke-opacity="1"
                          stroke-width="8"
                          fill-opacity="1" />
                </g>
            </g>
        </g>
    </g>
    <g>
        <g>
            <g>
                <g transform="matrix(1,0,0,1,37.666650390624994,248.0000061035156)">
                    <path transform="matrix(0.017,0,0,-0.017,0,0)"
                          d="M543 227C543 337 459 353 377 365C434 385 459 397 490 425C536 464 559 511 559 562C559 644 501 692 401 692C399 692 389 692 374 691L311 690C299 689 263 689 251 689C232 689 201 690 152 691L100 692L97 664L150 662C174 661 185 653 185 635C185 621 181 589 176 559L89 55C85 37 73 30 31 23L26 -3L63 -2C90 0 105 0 117 0C128 0 154 -1 180 -2L217 -3L237 -4C256 -5 269 -6 277 -6C392 -6 543 87 543 227ZM166 41L217 340L302 340C405 340 455 298 455 211C455 108 382 34 282 34C228 34 207 38 166 41ZM352 655C433 655 473 619 473 544C473 439 399 376 275 376L223 376L272 650C288 650 329 655 352 655Z"
                          class="color-set-1"
                          stroke-opacity="1"
                          stroke-width="8"
                          fill-opacity="1" />
                </g>
            </g>
            <g>
                <g>
                    <g>
                        <g>
                            <g transform="matrix(1,0,0,1,48.54165039062501,251.67083129882812)">
                                <path transform="matrix(0.0119,0,0,-0.0119,0,0)"
                                      d="M418 -3L418 27L366 30C311 33 301 44 301 96L301 700L60 598L67 548L217 614L217 96C217 44 206 33 152 30L96 27L96 -3C250 0 250 0 261 0C292 0 402 -3 418 -3Z"
                                      class="color-set-1"
                                      stroke-opacity="1"
                                      stroke-width="8"
                                      fill-opacity="1" />
                            </g>
                        </g>
                    </g>
                </g>
            </g>
        </g>
    </g>
    <g>
        <g>
            <g>
                <g transform="matrix(1,0,0,1,290.86455078125,361.5937805175781)">
                    <path transform="matrix(0.017,0,0,-0.017,0,0)"
                          d="M543 227C543 337 459 353 377 365C434 385 459 397 490 425C536 464 559 511 559 562C559 644 501 692 401 692C399 692 389 692 374 691L311 690C299 689 263 689 251 689C232 689 201 690 152 691L100 692L97 664L150 662C174 661 185 653 185 635C185 621 181 589 176 559L89 55C85 37 73 30 31 23L26 -3L63 -2C90 0 105 0 117 0C128 0 154 -1 180 -2L217 -3L237 -4C256 -5 269 -6 277 -6C392 -6 543 87 543 227ZM166 41L217 340L302 340C405 340 455 298 455 211C455 108 382 34 282 34C228 34 207 38 166 41ZM352 655C433 655 473 619 473 544C473 439 399 376 275 376L223 376L272 650C288 650 329 655 352 655Z"
                          class="color-set-2"
                          stroke-opacity="1"
                          stroke-width="8"
                          fill-opacity="1" />
                </g>
            </g>
        </g>
    </g>
</svg>