<?xml version="1.0" encoding="UTF-8"?>
<svg xmlns="http://www.w3.org/2000/svg" xmlns:xlink="http://www.w3.org/1999/xlink" width="20px" height="20px" viewBox="0 0 20 20" version="1.1">
<g id="surface1">
<path style=" stroke:none;fill-rule:nonzero;fill:rgb(58.431373%,61.568627%,64.705882%);fill-opacity:1;" d="M 10 0 C 15.523438 0 20 4.476562 20 10 C 20 15.523438 15.523438 20 10 20 C 4.476562 20 0 15.523438 0 10 C 0 4.476562 4.476562 0 10 0 Z M 10 0 "/>
<path style="fill-rule:nonzero;fill:rgb(0%,0%,0%);fill-opacity:1;stroke-width:0.00024;stroke-linecap:butt;stroke-linejoin:miter;stroke:rgb(0%,0%,0%);stroke-opacity:1;stroke-miterlimit:4;" d="M 18.225188 3.087469 C 18.7095 3.571781 18.7095 4.363219 18.225188 4.853438 L 17.079375 5.993344 L 18.248812 5.993344 C 20.321906 5.993344 21.999281 7.676625 21.999281 9.749719 L 21.999281 17.24475 C 21.999281 19.317844 20.321906 20.995219 18.248812 20.995219 L 5.751187 20.995219 C 3.678094 20.995219 2.000719 19.317844 2.000719 17.24475 L 2.000719 9.749719 C 2.000719 7.676625 3.678094 5.99925 5.751187 5.99925 L 6.914719 5.99925 L 5.774812 4.853438 C 5.449969 4.540406 5.320031 4.073812 5.43225 3.63675 C 5.550375 3.199687 5.887031 2.863031 6.324094 2.744906 C 6.761156 2.632687 7.22775 2.762625 7.540781 3.087469 L 10.192687 5.739375 C 10.275375 5.816156 10.340344 5.90475 10.3935 5.993344 L 13.6065 5.993344 C 13.659656 5.90475 13.724625 5.816156 13.801406 5.739375 L 16.453312 3.087469 C 16.943531 2.59725 17.734969 2.59725 18.225188 3.087469 Z M 18.248812 8.5035 L 5.751187 8.5035 C 5.095594 8.5035 4.552219 9.011437 4.504969 9.661125 L 4.499062 9.755625 L 4.499062 17.256562 C 4.499062 17.918062 5.012906 18.455531 5.656687 18.502781 L 5.751187 18.508688 L 18.248812 18.508688 C 18.904406 18.508688 19.447781 18.00075 19.495031 17.351062 L 19.500937 17.256562 L 19.500937 9.755625 C 19.500937 9.064594 18.939844 8.509406 18.248812 8.509406 Z M 8.249531 11.00775 C 8.940562 11.00775 9.501656 11.568844 9.501656 12.253969 L 9.501656 13.506094 C 9.501656 14.197125 8.940562 14.758219 8.249531 14.758219 C 7.5585 14.758219 6.997406 14.197125 6.997406 13.506094 L 6.997406 12.253969 C 6.997406 11.568844 7.5585 11.00775 8.249531 11.00775 Z M 15.750469 11.00775 C 16.4415 11.00775 17.002594 11.568844 17.002594 12.253969 L 17.002594 13.506094 C 17.002594 14.197125 16.4415 14.758219 15.750469 14.758219 C 15.059437 14.758219 14.498344 14.197125 14.498344 13.506094 L 14.498344 12.253969 C 14.498344 11.568844 15.059437 11.00775 15.750469 11.00775 Z M 15.750469 11.00775 " transform="matrix(0.661376,0,0,0.661376,2.063492,2.063492)"/>
</g>
</svg>
