<svg xmlns="http://www.w3.org/2000/svg" version="1.1" xmlns:xlink="http://www.w3.org/1999/xlink" xmlns:svgjs="http://svgjs.dev/svgjs" width="1440" height="2580" preserveAspectRatio="none" viewBox="0 0 1440 2580"><g mask="url(&quot;#SvgjsMask1042&quot;)" fill="none"><rect width="1440" height="2580" x="0" y="0" fill="rgba(208, 159, 208, 1)"></rect><circle r="22.765" cx="302.875" cy="2103.275" filter="url(#SvgjsFilter1043)" fill="rgba(136, 151, 167, 0.58)"></circle><circle r="13.405" cx="802.875" cy="199.695" filter="url(#SvgjsFilter1043)" fill="rgba(136, 151, 167, 0.58)"></circle><circle r="12.1" cx="484.38" cy="1726.27" filter="url(#SvgjsFilter1043)" fill="rgba(136, 151, 167, 0.58)"></circle><circle r="14.5" cx="683.86" cy="318.33" filter="url(#SvgjsFilter1043)" fill="rgba(136, 151, 167, 0.58)"></circle><circle r="15.28" cx="1360.07" cy="2002.23" filter="url(#SvgjsFilter1043)" fill="rgba(136, 151, 167, 0.58)"></circle><circle r="18.44" cx="902.95" cy="558.84" filter="url(#SvgjsFilter1043)" fill="rgba(136, 151, 167, 0.58)"></circle><circle r="18.75" cx="641.79" cy="1170.52" filter="url(#SvgjsFilter1043)" fill="rgba(136, 151, 167, 0.58)"></circle><circle r="16.28" cx="180.26" cy="502.08000000000004" filter="url(#SvgjsFilter1043)" fill="rgba(136, 151, 167, 0.58)"></circle><circle r="21.095" cx="485.57500000000005" cy="176.395" filter="url(#SvgjsFilter1043)" fill="rgba(136, 151, 167, 0.58)"></circle><circle r="22.24" cx="623.61" cy="1500.8700000000001" filter="url(#SvgjsFilter1043)" fill="rgba(136, 151, 167, 0.58)"></circle><circle r="22.04" cx="126.46000000000001" cy="720.54" filter="url(#SvgjsFilter1043)" fill="rgba(136, 151, 167, 0.58)"></circle><circle r="16.345" cx="965.695" cy="1286.685" filter="url(#SvgjsFilter1043)" fill="rgba(136, 151, 167, 0.58)"></circle><circle r="15.445" cx="681.625" cy="851.8850000000001" filter="url(#SvgjsFilter1043)" fill="rgba(136, 151, 167, 0.58)"></circle><circle r="22.34" cx="612.13" cy="1839.4199999999998" filter="url(#SvgjsFilter1043)" fill="rgba(136, 151, 167, 0.58)"></circle><circle r="17.79" cx="151.38" cy="2097.81" filter="url(#SvgjsFilter1043)" fill="rgba(136, 151, 167, 0.58)"></circle><circle r="17.75" cx="372.02" cy="2006.73" filter="url(#SvgjsFilter1043)" fill="rgba(136, 151, 167, 0.58)"></circle><circle r="22.095" cx="611.705" cy="1590.665" filter="url(#SvgjsFilter1043)" fill="rgba(136, 151, 167, 0.58)"></circle><circle r="14.365" cx="964.005" cy="1715.575" filter="url(#SvgjsFilter1043)" fill="rgba(136, 151, 167, 0.58)"></circle><circle r="13.29" cx="604.5999999999999" cy="675.15" filter="url(#SvgjsFilter1043)" fill="rgba(136, 151, 167, 0.58)"></circle><circle r="21.755" cx="989.155" cy="1021.555" filter="url(#SvgjsFilter1043)" fill="rgba(136, 151, 167, 0.58)"></circle><path d="M571.9 1304.1L661.4 1285 689 1303.8 658.8 1310.1C655.4 1309.9 654 1313.3 653.9 1316.7 654.9 1319.1 658.2 1321.6 660.5 1320.6L702.3 1312.6 730 1330.2 700.5 1344.6 659.9 1330.9C659.9 1330.9 658.8 1330.8 658.8 1330.8 656.5 1330.7 654.1 1332.8 652.8 1335.1 652.6 1338.5 653.6 1340.8 657 1342.2L686.3 1351.9 656.8 1366.3 569.9 1338.4C569.9 1338.4 568.9 1337.2 568.9 1337.2 566.6 1337.1 564.1 1339.2 562.9 1341.4 561.5 1344.8 563.6 1348.4 567.1 1348.6L642.6 1373.5 607.1 1392.2 573.3 1381.1C573.3 1381.1 573.3 1381.1 572.1 1381 569.8 1380.9 567.5 1381.9 566.2 1384.1 566 1387.6 567 1391.1 570.3 1392.4L592.9 1399.4 566.9 1412.9C563.4 1413.8 563.2 1417.3 564.2 1419.6 565.1 1423.1 568.5 1424.5 572.1 1422.4L598 1410.1 589.9 1431.4C589.7 1434.9 590.7 1438.4 594.1 1438.5 597.5 1439.9 599.8 1438.9 601.2 1435.5L612.3 1401.7 647.7 1384.2 622.7 1460.8C621.4 1463.1 623.5 1466.6 626.9 1468 629.2 1468.1 632.7 1467.1 634 1463.8L661.9 1376.9 691.5 1362.5 681.8 1391.8C680.4 1395.2 682.6 1397.6 685.9 1399 688.2 1400.2 691.7 1398.1 693 1395.9L705.6 1355.3 735.2 1339.7 733.4 1372.9 701.9 1401C699.5 1403.2 699.3 1406.6 701.5 1409 702.5 1411.4 707.1 1411.6 709.5 1409.5L732.5 1389 730.6 1422.2 661.7 1482.6C659.3 1484.7 659.1 1488.2 661.2 1490.6 663.4 1493 666.8 1493.2 669.3 1491L729.7 1438.2 727.5 1477.1 700.9 1500.9C698.4 1503 698.2 1506.5 700.4 1508.9 702.6 1511.3 706 1511.5 708.4 1509.3L726.5 1494.3 724.9 1522.9C724.7 1526.3 726.8 1528.7 730.3 1528.9 733.7 1529.1 736.1 1527 736.3 1523.5L737.9 1494.9 753.1 1511.9C755.2 1514.3 758.7 1514.5 761.1 1512.3S763.7 1506.7 761.5 1504.3L738.8 1478.9 741.1 1438.8 794 1498.1C796.2 1500.5 799.6 1500.7 802.1 1498.6 804.5 1496.4 804.7 1493 802.5 1490.5L742 1422.8 743.9 1389.6 764.4 1412.6C766.6 1415 770 1415.2 772.4 1413 774.9 1410.9 775.1 1407.4 772.9 1405L744.8 1373.6 746.6 1341.5 773.2 1359.1 782.3 1401C783.3 1403.3 786.6 1405.8 789 1404.8 792.5 1403.8 793.8 1401.6 794 1398.2L787.6 1368 814.2 1385.5 833.2 1475.1C834.2 1478.6 836.4 1479.8 839.9 1480 843.4 1479.1 844.7 1475.7 844.8 1473.4L828.6 1394.4 861.8 1416.9 869.1 1450.7C868.9 1454.1 872.3 1455.4 875.7 1455.6 878 1454.6 880.5 1451.3 879.6 1447.8L875.1 1425.7 899.5 1440.9C901.7 1443.3 905.2 1442.4 907.6 1439.1 908.9 1436.8 908 1433.3 905.7 1432.1L881.4 1415.8 904.6 1411.3C908.1 1410.4 909.5 1407 908.4 1404.7 908.6 1401.2 906.4 1399.9 904.1 1399.8 903 1399.8 903 1399.8 901.8 1399.7L868.1 1407 834.9 1384.4 912.8 1368.1C916.2 1368.3 917.6 1365 917.8 1361.5 916.8 1359.2 914.5 1357.9 912.2 1357.8 911.1 1357.7 911.1 1357.7 911.1 1357.7L820.5 1375.6 793.9 1358 824.2 1351.6C827.6 1350.7 828.9 1348.5 829.1 1345 828.1 1342.7 825.9 1340.3 823.7 1340.1 822.5 1340.1 822.5 1340.1 821.4 1340L779.5 1349.1 752.9 1331.5 781.3 1317.1 821.9 1329.7C825.3 1331 828.9 1328.9 830.2 1326.7 830.4 1323.3 829.4 1319.8 826 1319.6L796.7 1309.9 825.1 1294.3 913 1323.4C915.3 1324.6 918.8 1322.6 920.1 1320.3 920.3 1316.9 919.3 1313.4 916 1312.1L840.4 1287.1 875.9 1269.6 908.6 1280.6C911.9 1282 915.5 1279.9 915.7 1276.4 917 1274.2 916 1270.7 912.6 1269.4L890.1 1262.3 916.1 1248.9C918.5 1247.9 919.8 1244.5 918.8 1241 917.8 1239.8 915.5 1238.5 913.3 1238.4 913.3 1238.4 912.1 1238.3 911 1238.3L884.9 1251.7 892 1229.1C893.2 1226.9 891.1 1223.4 888.9 1222.1 887.8 1222 887.8 1222 887.8 1222 884.3 1221.8 881.9 1224 881.8 1226.3L870.7 1259 835.2 1277.6 860.2 1200.9C860.4 1197.5 859.4 1195.1 856.1 1193.8 856.1 1193.8 854.9 1193.7 854.9 1193.7 852.6 1193.6 850.3 1194.6 848.9 1198L819.9 1284.8 791.5 1299.3 801.2 1270C801.4 1266.5 800.5 1263 797 1262.8 797.1 1261.7 795.9 1261.6 795.9 1261.6 793.7 1261.5 791.2 1263.6 790 1265.9L777.3 1306.5 747.8 1320.9 749.6 1288.9 781.1 1260.8C783.5 1258.6 783.7 1254 781.6 1251.6 779.4 1250.3 775.9 1250.1 773.6 1251.2L750.5 1272.8 752.4 1239.6 820.1 1179.1C822.6 1177 822.7 1173.5 820.6 1171.1 818.4 1168.7 815 1168.5 812.6 1170.7L753.3 1223.6 755.6 1183.5 781 1160.8C783.4 1158.7 783.6 1155.3 781.4 1152.8S775.8 1150.2 773.4 1152.4L756.5 1167.5 758.1 1138.9C758.3 1135.4 756.1 1133 752.7 1132.8 749.3 1132.6 746.8 1134.8 746.6 1138.2L745 1166.9 728.8 1149.9C727.7 1148.6 726.6 1147.4 725.5 1147.4 724.3 1147.3 722 1148.3 720.7 1149.4 718.3 1151.6 718.1 1155 720.3 1157.4L744.1 1182.9 741.9 1222.9 687.8 1163.6C686.7 1162.4 685.6 1161.2 684.5 1161.1 683.3 1161.1 681 1162.1 679.8 1163.2 677.4 1165.3 677.2 1168.8 679.3 1171.2L740.9 1239 739.1 1272.2 718.6 1248C717.5 1246.8 715.2 1246.7 714.1 1246.6 713 1246.6 711.8 1246.5 710.6 1247.6 708.2 1249.8 707.9 1254.3 710.1 1255.6L738.2 1288.2 736.3 1320.3 708.6 1302.6 700.7 1260.8C699.6 1258.5 697.5 1256 695.2 1255.9 694.1 1255.8 694.1 1255.8 694 1257 690.6 1256.8 688.1 1260.1 689 1263.6L695.3 1293.8 667.6 1276.2 649.8 1185.6C648.8 1183.2 646.6 1182 644.3 1181.8 643.1 1181.8 643.1 1181.8 643.1 1181.8 639.6 1182.7 637.2 1184.9 638.1 1188.4L654.3 1267.4 621.2 1244.8 613.9 1211.1C612.9 1207.6 610.7 1206.3 608.4 1206.2 608.4 1206.2 607.3 1206.1 607.3 1206.1 603.8 1207.1 602.4 1210.5 602.3 1212.8L607.9 1236 583.5 1219.7C582.4 1219.7 581.3 1219.6 580.1 1219.5 579 1219.5 576.6 1220.5 575.4 1221.6 574.1 1224.9 573.9 1228.4 577.2 1229.7L601.6 1246 578.4 1250.4C574.9 1251.4 573.5 1254.8 573.4 1257.1 574.3 1260.6 577.7 1261.9 581.1 1262.1L614.9 1254.8 648.1 1276.2 570.2 1292.5C566.7 1293.4 564.3 1296.7 565.3 1299.1 566.2 1302.6 568.4 1305 571.9 1304.1Z" fill="rgba(136, 151, 167, 0.58)"></path><path d="M1455.2 1931.8L1441.6 1960.2 1429 1943.2C1427.9 1941.3 1424.8 1940.5 1421.9 1941.8 1420 1944 1419.3 1947.1 1420.5 1949L1436.6 1971.7 1423.9 1998 1391.5 1951.6C1389.2 1948.7 1386.2 1948 1384.3 1950.2 1381.4 1951.5 1380.7 1954.5 1383 1957.4L1418.8 2008.6 1407.8 2032.7 1346.9 2038.2 1333.1 2019.2 1362 1959.2C1361.9 1958.2 1361.8 1957.2 1361.7 1956.2 1361.6 1955.2 1360.4 1953.3 1359.4 1952.4 1356.2 1950.7 1353.3 1952 1352.5 1955L1326.2 2009.8 1310 1986 1322.6 1957.7C1323.6 1957.6 1323.5 1956.6 1323.4 1955.6 1323.2 1953.6 1322 1951.7 1319.9 1950.9 1317.8 1950.1 1314.9 1951.4 1313.1 1953.5L1303.1 1976.6 1282.3 1947.2C1281.2 1945.3 1278.1 1944.6 1275.2 1945.8 1273.3 1948 1272.6 1951.1 1273.8 1953L1293.4 1980.5 1272.4 1982.4C1269.4 1982.6 1267.6 1985.8 1267.8 1987.8 1268.1 1990.8 1270.4 1993.6 1273.4 1993.4L1300.3 1990.9 1316.6 2014.7 1260.6 2019.7C1257.6 2019.9 1255.8 2022.1 1256.1 2025.1 1256.3 2028.1 1258.5 2029.9 1261.5 2029.7L1323.5 2024.1 1338.3 2044 1312.1 2099.7 1289.1 2101.7 1252.2 2049.6C1250.9 2046.7 1246.8 2046.1 1245 2048.3 1242.1 2049.5 1242.4 2052.5 1243.7 2055.4L1277.1 2102.8 1248.1 2105.4 1231.9 2081.7C1230.7 2079.8 1226.6 2079.1 1224.7 2080.3S1222.2 2085.6 1223.4 2088.5L1236.1 2106.5 1201.2 2109.6C1198.2 2109.9 1196.4 2113.1 1196.7 2116.1 1196.9 2118 1199.1 2120.9 1202.1 2120.6L1237.1 2117.5 1227.9 2138.4C1227.1 2140.5 1227.4 2143.5 1230.5 2145.3 1232.6 2146.1 1236.5 2144.7 1237.4 2142.6L1249.1 2116.4 1278.1 2113.8 1253.6 2166.4C1252.8 2169.5 1253.1 2172.5 1256.3 2174.2 1258.4 2175 1262.3 2173.6 1263.1 2171.6L1290.1 2112.7 1313.1 2110.7 1348.8 2160.9 1337.7 2183 1275.7 2188.6C1272.7 2188.8 1270.9 2191 1271.2 2194 1271.4 2197 1273.7 2199.8 1276.7 2199.6L1332.7 2194.6 1320.9 2220.8 1293.9 2223.2C1290.9 2223.5 1289.1 2225.6 1289.4 2228.6 1289.6 2231.6 1291.8 2233.5 1294.8 2233.2L1315.8 2231.3 1301.4 2261.8C1300.6 2263.9 1301.9 2267.8 1304 2268.6 1307.1 2269.4 1310.1 2269.1 1310.8 2266L1326.1 2234.4 1340 2254.3C1342.2 2256.2 1345.3 2256.9 1347.2 2255.7 1349.1 2254.5 1349.9 2252.4 1349.7 2250.4 1349.7 2250.4 1349.7 2249.4 1348.6 2248.5L1331.2 2222.9 1342.9 2196.7 1378.5 2245.9C1379.8 2248.8 1382.9 2249.5 1385.7 2247.2 1386.6 2246.1 1387.5 2245 1387.4 2243 1387.3 2242.1 1387.2 2241.1 1387.1 2240.1L1348 2186.1 1358.2 2165.1 1419.2 2159.6 1434.2 2181.4 1408.1 2238.2C1406.3 2241.4 1407.6 2244.3 1410.7 2245 1412.9 2246.8 1415.8 2245.5 1417.5 2242.4L1441.1 2190.9 1458.3 2214.5 1446.5 2239.8C1445.7 2241.9 1446.9 2244.8 1449.1 2246.6 1452.2 2247.3 1455.2 2247.1 1455.9 2244L1465.3 2225 1483.7 2250.5C1485 2253.5 1488 2253.2 1490.9 2251.9 1491.8 2250.8 1492.6 2248.7 1492.5 2246.7 1492.5 2246.7 1492.4 2245.7 1492.3 2244.7L1472.7 2217.3 1497.7 2215.1C1499.7 2214.9 1502.5 2212.6 1502.2 2209.6 1502 2206.6 1498.8 2204.9 1496.8 2205.1L1465.8 2207.8 1448.6 2184.2 1509.5 2178.7C1512.5 2178.5 1514.3 2175.3 1514 2172.3S1511.6 2167.5 1508.6 2167.7L1441.6 2173.7 1427.7 2153.8 1454 2098.1 1480 2095.8 1516.9 2148.9C1519.1 2150.7 1522.2 2151.4 1525.1 2150.1 1526 2149.1 1526.8 2147 1526.7 2145 1526.6 2144 1526.5 2143 1525.4 2142.1L1491.9 2094.7 1520.9 2092.1 1538.2 2115.7C1539.3 2117.6 1542.4 2118.4 1545.3 2117.1 1547.1 2114.9 1547.9 2111.8 1546.7 2109.9L1532.9 2091 1564.9 2088.2C1566.9 2088 1569.6 2084.7 1569.5 2082.7 1569.2 2079.7 1565.9 2077 1563.9 2077.2L1531.9 2080 1542.2 2060C1542.1 2059 1542.1 2058 1542 2057 1541.8 2055 1540.6 2053.1 1539.5 2052.2 1536.4 2051.4 1533.5 2052.7 1531.7 2054.9L1519.9 2081.1 1491 2083.7 1515.5 2031.1C1517.2 2028 1515.9 2025 1513.9 2024.2 1510.7 2022.5 1507.8 2023.8 1505.9 2025.9L1479 2084.8 1453 2087.1 1417.3 2036.9 1427.4 2014.8 1494.3 2008.8C1497.3 2008.6 1499.2 2006.4 1498.9 2003.4 1498.6 2000.4 1496.5 1998.6 1493.5 1998.9L1432.5 2004.3 1445.2 1978 1476.2 1975.2C1478.2 1975 1481 1971.8 1480.7 1968.8 1480.4 1965.8 1477.2 1964 1475.2 1964.2L1450.3 1966.5 1464.7 1936C1464.6 1935 1464.6 1935 1464.5 1934 1464.3 1932 1463.1 1930 1462 1929.1 1458.9 1928.4 1456 1929.7 1455.2 1931.8ZM1441 2088.2L1444.5 2093.9 1442 2099.2 1420.8 2144.4 1418.3 2149.6 1412.3 2150.2 1363.3 2154.5 1357.3 2155.1 1353.9 2150.3 1325.1 2109.6 1321.6 2104.9 1324.1 2098.6 1345.3 2054.4 1347.8 2048.1 1353.8 2047.6 1402.7 2043.2 1408.7 2042.7 1412.3 2048.4 1441 2088.2Z" fill="rgba(136, 151, 167, 0.58)"></path><path d="M461.8 1730L382.6 1717.5 365.9 1693.5 392.6 1697.8C395.3 1699 397.5 1696.7 398.7 1694 398.6 1691.7 396.7 1688.7 394.5 1688.8L357.8 1682.2 340.7 1659.1 369.3 1656.6 398.2 1680.5C398.2 1680.5 399.1 1680.9 399.1 1680.9 400.9 1681.8 403.6 1680.7 405.3 1679.3 406.5 1676.6 406.4 1674.3 404.1 1672.2L383.2 1655.1 411.8 1652.6 474.1 1702.5C474.1 1702.5 474.6 1703.8 474.6 1703.8 476.4 1704.7 479.1 1703.6 480.8 1702.2 483 1699.9 482.4 1696.3 479.6 1695.1L425.7 1651.1 460.5 1646.9 484.7 1666.6C484.7 1666.6 484.7 1666.6 485.6 1667 487.5 1667.8 489.7 1667.7 491.4 1666.3 492.7 1663.6 493 1660.4 490.7 1658.3L474.4 1645.5 499.9 1642.6C503 1642.9 504.3 1640.2 504.2 1637.9 504.5 1634.8 502.2 1632.6 498.6 1633.2L473.5 1635.2 486.8 1620.2C488.1 1617.5 488.4 1614.3 485.6 1613.1 483.3 1611 481.1 1611 478.9 1613.4L459.3 1637.6 424.8 1640.8 469.2 1585.9C471 1584.5 470.4 1581 468 1578.8 466.2 1578 463 1577.7 460.9 1580L410.9 1642.3 382.3 1644.8 399.4 1623.9C401.5 1621.5 400.5 1618.9 398.2 1616.7 396.8 1615 393.2 1615.6 391.5 1617L368.4 1646.3 339.4 1649.7 351.3 1623.2 385.8 1610.1C388.5 1609.1 389.7 1606.3 388.7 1603.7 388.6 1601.4 384.9 1599.8 382.3 1600.8L357.1 1610.4 369 1583.8 444.2 1556C446.8 1555 448.1 1552.2 447.1 1549.6 446 1546.9 443.3 1545.7 440.6 1546.7L374.7 1571 388.7 1539.9 417.9 1528.8C420.5 1527.8 421.8 1525 420.8 1522.4 419.8 1519.7 417 1518.5 414.4 1519.5L394.9 1526.2 405.2 1503.3C406.4 1500.5 405.4 1497.9 402.6 1496.7 399.9 1495.4 397.2 1496.4 396 1499.2L385.7 1522.1 378.7 1503.5C377.7 1500.8 374.9 1499.6 372.3 1500.6S368.4 1504.4 369.4 1507L380 1534.9 365.6 1566.9 340.9 1501.9C339.9 1499.3 337.1 1498 334.5 1499 331.8 1500.1 330.6 1502.8 331.6 1505.4L359.8 1579.7 347.9 1606.3 338.3 1581.1C337.3 1578.4 334.6 1577.2 331.9 1578.2 329.3 1579.2 328 1581.9 329.1 1584.6L342.2 1619.1 330.7 1644.7 314.4 1622 320.1 1585C320 1582.7 318.1 1579.7 315.8 1579.8 312.7 1579.4 310.9 1580.9 309.7 1583.6L305.4 1610.3 289.2 1587.6 301.6 1508.5C302 1505.3 300.5 1503.6 297.8 1502.4 294.6 1502 292.5 1504.4 291.7 1506.2L280.2 1575.9 260.1 1547 264.7 1517.2C266 1514.5 263.6 1512.3 260.9 1511.1 258.6 1511.2 255.6 1513.1 255.3 1516.3L252 1535.7 236.8 1515.7C235.8 1513 232.6 1512.7 229.6 1514.6 227.8 1516.1 227.5 1519.2 228.9 1521L243.7 1541.9 223.4 1538.2C220.2 1537.9 218.1 1540.3 218.2 1542.5 216.9 1545.3 218.4 1547 220.2 1547.8 221.1 1548.2 221.1 1548.2 222 1548.6L251.9 1553.2 271.9 1582 203.2 1571C200.4 1569.7 198.3 1572.1 197.1 1574.8 197.2 1577.1 198.6 1578.8 200.4 1579.6 201.3 1580 201.3 1580 201.3 1580L280.9 1593.8 297.1 1616.5 270.5 1612.2C267.3 1611.9 265.6 1613.3 264.3 1616 264.4 1618.3 265.4 1620.9 267.3 1621.7 268.2 1622.2 268.2 1622.2 269.1 1622.6L306.2 1628.2 322.4 1650.9 294.7 1653.8 265.4 1630.8C263.1 1628.7 259.5 1629.3 257.8 1630.7 256.5 1633.4 256.2 1636.6 259 1637.8L279.9 1654.9 251.8 1658.8 189 1607.5C187.6 1605.8 184 1606.4 182.3 1607.8 181 1610.5 180.7 1613.7 183.1 1615.8L237 1659.8 202.5 1663.1 179.3 1643.8C176.9 1641.7 173.4 1642.3 172.1 1645 170.4 1646.4 170.1 1649.6 172.4 1651.7L188.7 1664.5 163.2 1667.4C161 1667.5 158.8 1669.8 158.5 1673 159 1674.3 160.4 1676 162.2 1676.9 162.2 1676.9 163.2 1677.3 164.1 1677.7L189.6 1674.8 176.8 1691.1C175 1692.5 175.6 1696.1 177 1697.8 178 1698.2 178 1698.2 178 1698.2 180.7 1699.5 183.3 1698.4 184.2 1696.6L203.4 1673.4 238.3 1669.2 193.8 1724.1C192.6 1726.8 192.7 1729 195 1731.2 195 1731.2 196 1731.6 196 1731.6 197.8 1732.4 200 1732.3 202.2 1730L253 1668.1 280.8 1665.2 263.7 1686.1C262.4 1688.9 262.1 1692 264.9 1693.3 264.5 1694.2 265.4 1694.6 265.4 1694.6 267.2 1695.4 269.9 1694.4 271.6 1693L294.6 1663.7 323.3 1661.2 311.8 1686.8 277.3 1699.9C274.6 1700.9 273 1704.6 274 1707.2 275.4 1709 278.1 1710.2 280.4 1710.1L306 1699.6 294.1 1726.2 219.8 1754.4C217.2 1755.4 215.9 1758.2 216.9 1760.8 217.9 1763.5 220.7 1764.7 223.3 1763.7L288.3 1739 273.9 1771 246.1 1781.6C243.4 1782.6 242.2 1785.4 243.2 1788S247 1791.9 249.6 1790.9L268.2 1783.8 257.9 1806.7C256.7 1809.5 257.7 1812.1 260.4 1813.3 263.2 1814.6 265.8 1813.6 267.1 1810.8L277.3 1787.9 285.3 1806.9C285.8 1808.2 286.3 1809.6 287.2 1810 288.2 1810.4 290.4 1810.3 291.7 1809.8 294.4 1808.8 295.6 1806 294.6 1803.4L283.1 1775.1 297.5 1743.1 323.1 1808.5C323.6 1809.8 324.1 1811.1 325 1811.6 325.9 1812 328.2 1811.9 329.5 1811.4 332.2 1810.4 333.4 1807.6 332.4 1805L303.2 1730.3 315.2 1703.7 324.3 1729.8C324.8 1731.2 326.7 1732 327.6 1732.4 328.5 1732.8 329.4 1733.2 330.7 1732.7 333.4 1731.7 335 1728.1 333.6 1726.3L320.9 1690.9 332.4 1665.3 349.5 1688.4 343 1725C343.1 1727.3 344.1 1729.9 345.9 1730.7 346.8 1731.2 346.8 1731.2 347.2 1730.2 350 1731.5 353.1 1729.6 353.4 1726.4L357.7 1699.7 374.8 1722.8 361 1802.4C361.1 1804.7 362.5 1806.4 364.4 1807.2 365.3 1807.6 365.3 1807.6 365.3 1807.6 368.4 1808 371.1 1806.9 371.4 1803.8L382.9 1734.1 402.9 1763 398.4 1792.8C398 1795.9 399.5 1797.7 401.3 1798.5 401.3 1798.5 402.2 1798.9 402.2 1798.9 405.4 1799.2 407.5 1796.9 408.3 1795.1L411.1 1774.3 425.8 1795.2C426.8 1795.6 427.7 1796.1 428.6 1796.5 429.5 1796.9 431.8 1796.8 433.1 1796.3 435.2 1793.9 436.5 1791.2 434.1 1789L419.3 1768.1 439.7 1771.8C442.8 1772.1 445 1769.7 445.8 1767.9 446.1 1764.7 443.8 1762.6 441.1 1761.4L411.2 1756.8 390.8 1728.9 459.5 1739.9C462.6 1740.3 465.7 1738.3 465.6 1736.1 465.9 1732.9 464.9 1730.3 461.8 1730Z" fill="rgba(136, 151, 167, 0.58)"></path><path d="M496 1918.4L490.4 1948 476.1 1936.7C474.7 1935.4 472 1935.5 469.9 1937.2 468.9 1939.4 469 1942.1 471.2 1943.1L488.5 1957.8 485.2 1981 449.1 1950.4C446.9 1949.4 444.2 1949.4 442.9 1950.8 441 1953.4 441.1 1956.1 443.3 1957.1L483.3 1990.9 477.1 2026.2 448.7 1996.4 446.5 2037.5 418.8 2014.7 427.2 1963.1C428 1962.8 427.7 1961.9 427.4 1961.1 426.8 1959.5 425.4 1958.2 423.5 1958 421.6 1957.8 419.5 1959.5 418.4 1961.7L411 2008.5 393.3 1993 397 1970.6C397.5 1969.5 397.2 1968.6 396.9 1967.8 396.6 1967 395.2 1965.7 393.3 1965.5 391.4 1965.3 389.2 1967 389 1968.9L385.5 1986.7 362 1967.9C360.3 1965.7 357.9 1966.6 355.8 1968.3 354.5 1969.7 354.6 1972.5 357.1 1974.3L379.7 1993.4 362.8 1999.7C360.4 2000.6 359.7 2003.6 360.3 2005.2 361.2 2007.6 363.4 2008.6 365.8 2007.7L387.6 1999.7 405.2 2015.2 361.6 2031.3C359.2 2032.2 358.2 2034.4 359.1 2036.8 359.7 2038.4 362.2 2040.2 364.6 2039.3L413 2021.5 440.7 2044.2 401.3 2054.2 435.2 2076.5 401.3 2089 361.6 2056C359.1 2054.2 356.7 2055.1 355.4 2056.5 354.1 2057.9 354.2 2060.6 355.9 2062.8L392.5 2092.3 370.7 2100.4 352.5 2086C350.8 2083.9 348.1 2084 346.3 2086.5 345 2087.9 345.1 2090.6 347.6 2092.4L361 2104 332.8 2114.4C330.3 2115.3 329.3 2117.5 330.2 2119.9S333.3 2123.3 335.7 2122.5L364 2112 361.3 2129.5C360.6 2132.5 362.3 2134.7 364.2 2134.9 367.2 2135.6 369.3 2133.9 369.2 2131.2L373.7 2108.4 395.4 2100.4 386.9 2146.7C386.9 2149.4 388.6 2151.5 390.6 2151.7 393.6 2152.4 395.7 2150.7 395.6 2148L404.3 2097.1 438.2 2084.6 426.9 2123.6 463.4 2105.6 457.1 2140.9 408.7 2158.7C406.3 2159.6 405.6 2162.6 406.2 2164.3 407.1 2166.7 409.3 2167.7 411.7 2166.8L456.1 2150.4 451.9 2173.9 430.2 2182C427.7 2182.9 426.7 2185.1 427.6 2187.5 428.2 2189.1 430.7 2191 433.1 2190.1L450.1 2183.8 445.3 2213.1C444.6 2216.1 446.3 2218.2 449 2218.1 450.9 2218.3 453.3 2217.4 453.3 2214.7L458.8 2185.2 473.1 2196.4C474.5 2197.7 477.2 2197.6 478.5 2196.2 479.8 2194.8 480 2192.9 479.7 2192.1 479.4 2191.3 479.1 2190.5 478 2190L460.7 2175.3 464 2152.1 500.1 2182.7C502.3 2183.8 505 2183.7 506.4 2182.3 507.7 2180.9 507.9 2178.9 507.3 2177.3 507 2176.5 507 2176.5 505.9 2176L465.9 2142.2 472.1 2106.9 500.5 2136.7 502.8 2095.6 530.4 2118.4 522 2170.1C521.8 2172 522.7 2174.4 525.7 2175.1 527.6 2175.3 529.8 2173.6 530.8 2171.4L538.2 2124.6 555.9 2140.1 552.3 2162.6C551.2 2164.8 552.9 2166.9 556 2167.6 557.9 2167.8 560 2166.1 561 2163.9L563.7 2146.4 587.2 2165.2C588.9 2167.4 591.3 2166.5 593.4 2164.8 593.9 2163.7 594.1 2161.7 593.8 2160.9 593.5 2160.1 593.2 2159.3 592.1 2158.8L569.5 2139.7 586.4 2133.4C588.8 2132.5 589.6 2129.5 589 2127.9L589 2127.9C588.1 2125.5 585.9 2124.5 583.4 2125.4L561.7 2133.4 544 2117.9 587.6 2101.8C590 2100.9 591 2098.7 590.1 2096.3S587 2092.9 584.6 2093.8L536.2 2111.6 508.5 2088.9 547.9 2078.9 514 2056.6 547.9 2044.1 587.6 2077.1C590.1 2078.9 592.5 2078 593.8 2076.6 595.2 2075.2 595.1 2072.5 593.4 2070.3L557.6 2040.5 578.6 2032.7 596.7 2047.1C598.4 2049.2 601.1 2049.1 602.9 2046.6 604.3 2045.2 604.2 2042.5 602.5 2040.4L588.2 2029.2 616.5 2018.7C618.9 2017.8 619.9 2015.6 619 2013.2S615.9 2009.8 613.5 2010.7L585.3 2021.1 588 2003.6C588.5 2002.5 588.2 2001.7 587.9 2000.9 587.3 1999.3 586.2 1998.7 585.1 1998.2 582 1997.5 579.9 1999.2 580 2001.9L575.6 2024.7 553.8 2032.7 562.4 1986.5C562.1 1985.6 561.8 1984.8 561.5 1984 560.9 1982.4 559.8 1981.9 558.7 1981.4 555.7 1980.7 553.5 1982.4 553.6 1985.1L544.9 2036 511 2048.5 522.3 2009.5 485.9 2027.6 492.1 1992.3 540.5 1974.4C542.9 1973.5 543.6 1970.5 543 1968.8 542.1 1966.4 539.9 1965.4 537.5 1966.3L493.9 1982.4 497.3 1959.2 519.1 1951.1C521.5 1950.2 522.5 1948 521.6 1945.6S518.5 1942.2 516.1 1943L499.1 1949.3 503.9 1920C504.4 1918.9 504.1 1918.1 503.8 1917.3 503.5 1916.5 502.1 1915.2 500.2 1915 498.3 1914.8 495.9 1915.7 496 1918.4ZM508.9 2025.4L499.6 2057.3 527.4 2075.5 494.8 2083.9 493.1 2116.6 469.8 2093.1 440.3 2107.7 449.6 2075.8 421.8 2057.6 453.7 2049.5 456.1 2016.5 478.7 2040.3 508.9 2025.4Z" fill="rgba(136, 151, 167, 0.58)"></path><path d="M936.6 1833.4L914.3 1830.4 923.1 1818.1C924.2 1816.9 924 1814.6 922.5 1812.9 920.6 1812.1 918.3 1812.3 917.3 1813.5L905.4 1829.5 884.7 1826.6 909.2 1794.4C910.6 1792.3 910.4 1790 908.5 1789.2 907 1787.5 904.8 1787.7 903.4 1789.9L876.4 1825.5 857.6 1823.3 840.5 1783.1 850.4 1769.6 897.5 1776C898.1 1775.7 898.8 1775.5 899.5 1775.2 900.1 1774.9 901.2 1773.7 901.5 1772.7 902 1770.2 900.5 1768.5 898.3 1768.7L855.3 1762.8 867.8 1746.6 889.9 1748.9C890.1 1749.6 890.8 1749.3 891.5 1749 892.8 1748.4 893.8 1747.2 893.9 1745.6 894 1744 892.5 1742.3 890.6 1741.6L872.8 1739.8 888.2 1719.3C889.2 1718 889 1715.8 887.5 1714.1 885.6 1713.3 883.4 1713.5 882.3 1714.7L868 1734.1 862.1 1720.2C861.3 1718.2 858.7 1717.7 857.4 1718.3 855.4 1719.1 854 1721.3 854.8 1723.3L862.4 1741.1 849.8 1757.3 834.1 1720.4C833.3 1718.4 831.4 1717.7 829.4 1718.5 827.5 1719.3 826.7 1721.2 827.5 1723.2L844.9 1764.1 834.7 1778.6 791.1 1772.9 784.6 1757.8 811.9 1721.3C813.6 1719.8 813.2 1716.8 811.3 1716.1 809.8 1714.4 807.8 1715.2 806.1 1716.7L781.3 1749.9 773.1 1730.7 785.7 1714.5C786.7 1713.3 786.3 1710.4 785.1 1709.3S780.9 1708.7 779.2 1710.2L769.8 1722.8 760 1699.7C759.1 1697.7 756.6 1697.3 754.6 1698.1 753.3 1698.7 751.9 1700.8 752.7 1702.8L762.5 1725.9 746.2 1724.2C744.6 1724.1 742.7 1725 742.2 1727.5 742.1 1729.1 743.9 1731.5 745.5 1731.6L765.9 1733.8 774 1752.9 732.9 1747.8C730.6 1748 728.7 1748.8 728.2 1751.4 728.1 1753 729.9 1755.3 731.5 1755.4L777.4 1760.9 783.8 1776 757.5 1811.3 740 1808.6 722.7 1767.7C721.8 1765.8 719.9 1765 718 1765.8 716 1766.7 714.6 1768.8 715.4 1770.8L731.1 1807.8 710.7 1805.5 703.1 1787.7C702.3 1785.7 700.4 1785 698.4 1785.8 696.4 1786.7 695.7 1788.5 696.5 1790.5L702.4 1804.4 678.5 1801.3C676.9 1801.2 674.6 1803 674.5 1804.6 674.6 1806.8 675.5 1808.8 677.7 1808.6L702.6 1812.1 692.1 1825.9C691.3 1827.8 691.5 1830 692.7 1831.1 693.9 1832.1 695.5 1832.2 696.9 1831.6 696.9 1831.6 697.5 1831.4 697.9 1830.4L711.5 1813 731.9 1815.2 706.3 1850.2C704.6 1851.7 704.8 1854 706.9 1855.4 707.9 1855.8 708.8 1856.1 710.1 1855.6 710.8 1855.3 711.5 1855 712.1 1854.7L740.2 1816.4 756.8 1818.7 773.8 1858.9 762.3 1873.9 718 1868.6C715.5 1868.1 713.8 1869.6 713.9 1871.9 713.2 1873.8 714.7 1875.5 717.2 1875.9L757.4 1880.7 745.1 1897.6 725.4 1895.1C723.8 1895 722.1 1896.5 721.3 1898.3 721.5 1900.6 722.3 1902.6 724.6 1902.4L739.5 1904.6 726.2 1922.7C724.5 1924.2 725.3 1926.2 726.8 1927.9 727.8 1928.3 729.4 1928.4 730.7 1927.8 730.7 1927.8 731.4 1927.6 732 1927.3L746.4 1907.9 753.4 1924.4C754 1925.7 756.1 1927.2 758.1 1926.3 760.1 1925.5 760.5 1922.9 760 1921.6L751.3 1901.2 763.6 1884.3 780.7 1924.5C781.5 1926.5 784.1 1927 786 1926.1S788.8 1923.4 787.9 1921.4L769.2 1877.2 779.7 1863.4 823.3 1869 830.6 1886.2 802.6 1923C801.9 1924.9 802 1927.1 803.5 1928.8 804.5 1929.2 806.1 1929.3 807.4 1928.7 808.1 1928.5 808.7 1928.2 809.1 1927.2L833.9 1894.1 842.1 1913.2 829.8 1930.1C828.7 1931.4 828.9 1933.6 830.4 1935.3 832.3 1936.1 834.6 1935.9 835.6 1934.7L845.4 1921.2 854.4 1942.3C855 1943.6 857.8 1944.7 859.1 1944.2 861.1 1943.3 862.2 1940.5 861.7 1939.2L852.7 1918.1 868.6 1920.7C869.2 1920.4 869.9 1920.1 870.6 1919.8 871.9 1919.3 872.9 1918 873.3 1917.1 873.1 1914.8 871.6 1913.1 869.7 1912.4L849.3 1910.2 841.2 1891 882.3 1896.1C884.9 1896.6 886.6 1895.1 886.6 1893.5 887.1 1891 885.6 1889.3 883.7 1888.5L837.8 1883.1 830.6 1866 856.8 1830.7 874.1 1832.7 892.8 1876.9C893.7 1878.9 895.5 1879.6 897.5 1878.8 899.5 1877.9 900.3 1876.1 899.4 1874.1L882.3 1833.9 903 1836.7 911.7 1857.2C912.3 1858.5 915.1 1859.7 917.1 1858.8 919 1858 919.5 1855.4 919 1854.1L912 1837.6 935.9 1840.7C936.5 1840.4 936.5 1840.4 937.2 1840.1 938.5 1839.6 939.5 1838.4 939.9 1837.4 939.7 1835.2 938.2 1833.5 936.6 1833.4ZM827.2 1858L824.1 1861.7 819.9 1861.1 784.6 1856.7 780.4 1856.1 778.8 1852.1 765 1819.8 763.3 1815.9 765.8 1812.5 787.2 1783.9 789.6 1780.6 794.4 1780.9 829.1 1785.6 833.9 1785.9 835.6 1789.8 849.3 1822.2 851 1826.1 847.9 1829.8 827.2 1858Z" fill="rgba(136, 151, 167, 0.58)"></path><path d="M509.3 522.5L480 534.1 482.4 513C482.8 510.8 481.1 508.2 478.1 507.1 475.3 507.5 472.6 509.3 472.2 511.5L468.5 539.1 441.2 549.7 449.2 493.6C449.5 490 447.7 487.4 444.9 487.7 441.9 486.7 439.3 488.4 439 492L430.3 553.9 405.9 564.1 357.5 526.6 360.3 503.4 422.3 479.1C423 478.3 423.6 477.5 424.2 476.7 424.8 476 425.2 473.8 425.1 472.3 423.9 468.9 420.9 467.9 418.3 469.6L361.7 491.8 366 463.3 394.5 451.2C395.3 451.8 395.9 451 396.5 450.2 397.8 448.6 398.2 446.4 397.2 444.4 396.3 442.4 393.3 441.3 390.5 441.7L367.4 451.7 372.2 416.1C372.7 413.9 370.9 411.2 367.9 410.2 365.1 410.5 362.5 412.3 362 414.5L357.6 447.9 341 435C338.6 433.2 335.2 434.3 334 435.9 332.1 438.3 331.9 441.9 334.2 443.7L355.6 460.3 351.3 488.8 307 454.3C304.6 452.5 301.8 452.8 299.9 455.2 298.1 457.6 298.4 460.4 300.8 462.2L349.9 500.4 347.3 525 290.1 548 271.9 533.8 280.4 470.5C281.5 467.5 278.9 464.3 276.1 464.6 273.1 463.6 271.2 466 270.2 468.9L262.4 526.4 239.4 508.6 243.7 480.1C244.2 477.9 241.6 474.7 239.4 474.2S233.9 476.4 232.9 479.4L229.9 501.2 202.2 479.6C199.8 477.8 196.4 478.9 194.5 481.3 193.3 482.9 193 486.5 195.4 488.4L223.1 509.9 202.1 519C200.1 520 198.3 522.3 199.4 525.8 200.4 527.8 204.2 529.5 206.2 528.5L232.7 517.3 255.6 535.1 201.9 556.9C199.2 558.7 197.4 561 198.5 564.5 199.5 566.5 203.3 568.2 205.3 567.2L265.1 542.5 283.4 556.7 275.3 617.7 252.1 626.4 203 588.2C200.6 586.4 197.8 586.7 195.9 589.1 194.1 591.5 193.8 595.1 196.2 597L240.6 631.4 214.1 642.6 192.7 626C190.3 624.1 187.5 624.5 185.7 626.9 183.8 629.3 184.2 632.1 186.5 633.9L203.2 646.8 171.9 659.4C169.8 660.3 168.2 664.1 169.1 666.1 170.9 668.8 173.3 670.6 175.9 668.9L208.7 656.2 205.2 680.2C205.6 683 207.4 685.6 209.6 686.1 211.8 686.5 213.8 685.6 215 684 215 684 215.6 683.2 215.4 681.8L220.2 651.1 246.7 639.9 239.2 700.2C238.2 703.2 239.9 705.9 243.5 706.1 244.9 705.9 246.4 705.8 247.6 704.2 248.2 703.4 248.8 702.6 249.4 701.8L257.6 635.7 279.4 627.2 327.7 664.8 323.9 691 266.1 714.7C262.6 715.9 261.6 718.9 263.3 721.5 263.7 724.3 266.7 725.4 270.1 724.2L322.5 702.6 319 731.7 293.1 742.1C291.1 743 290 746 290.4 748.9 292.1 751.5 294.5 753.3 297.2 751.6L317 744.1 313 775.3C312 778.3 314.3 780.2 317.3 781.2 318.7 781 320.8 780.1 322 778.5 322 778.5 322.6 777.7 323.2 776.9L327.6 743.5 347.4 758.8C349 760.1 352.6 760.3 354.5 758 356.3 755.6 355.2 752.1 353.6 750.9L329 731.8 332.5 702.8 380.8 740.3C383.2 742.2 386.6 741 388.5 738.7S390 733.5 387.6 731.6L334.5 690.4 337.9 666.4 395.1 643.4 415.7 659.4 406.6 723.5C407 726.3 408.7 729 411.7 730 413.1 729.8 415.2 728.9 416.4 727.3 417 726.5 417.6 725.7 417.4 724.3L425.2 666.8 448.2 684.7 444.7 713.7C444.3 715.9 446 718.5 449 719.6 451.8 719.2 454.5 717.5 454.9 715.3L457.7 692 483.1 711.7C484.7 713 488.9 712.4 490.1 710.9 492 708.5 491.4 704.3 489.8 703L464.5 683.3 485.7 675.7C486.3 674.9 486.9 674.1 487.5 673.3 488.8 671.7 489.2 669.5 489 668.1 487.3 665.5 484.3 664.4 481.5 664.8L455 675.9 432 658.1 485.7 636.3C489.2 635.2 490.2 632.2 489.3 630.2 488.1 626.7 485.1 625.7 482.3 626L422.5 650.7 401.9 634.7 409.9 573.6 432.4 564.4 485.5 605.6C487.8 607.5 490.6 607.1 492.5 604.7 494.3 602.4 494 599.5 491.6 597.7L443.3 560.2 470.5 549.6 495.1 568.6C496.7 569.9 500.9 569.3 502.8 567 504.6 564.6 503.5 561.2 501.9 559.9L482.1 544.5 513.4 532C514 531.2 514 531.2 514.6 530.4 515.8 528.9 516.3 526.7 516.1 525.2 514.3 522.6 511.3 521.6 509.3 522.5ZM392.4 627.3L391.1 633.9 385.6 636.1 339.3 654.7 333.9 656.9 329.1 653.2 290.3 623 285.5 619.3 286.2 613.5 292.9 564.1 293.6 558.2 299.6 555.3 345.3 537.4 351.4 534.5 356.1 538.2 395 568.4 399.7 572.1 398.4 578.7 392.4 627.3Z" fill="rgba(136, 151, 167, 0.58)"></path><path d="M905.6 285.7L933.2 373 917.2 402.3 908 372.8C907.8 369.4 904.3 368.4 900.9 368.5 898.7 369.8 896.5 373.3 897.8 375.6L909.7 416.4 894.9 445.7 877.7 417.7 887.4 376C887.4 376 887.4 374.8 887.4 374.8 887.3 372.5 884.9 370.3 882.6 369.3 879.1 369.4 876.9 370.7 875.9 374.2L869.1 404.3 851.9 376.3 871.2 287.1C871.2 287.1 872.3 285.9 872.3 285.9 872.2 283.6 869.8 281.4 867.5 280.4 864 279.4 860.7 281.8 860.8 285.3L843.3 362.9 821.3 329.3 829 294.6C829 294.6 829 294.6 829 293.4 828.9 291.1 827.7 288.9 825.3 287.8 821.9 288 818.5 289.3 817.5 292.8L812.7 315.9 796.8 291.3C795.5 287.9 792.1 288 789.8 289.3 786.4 290.6 785.4 294.1 787.8 297.4L802.6 322 780.6 316.1C777.1 316.2 773.7 317.5 773.9 320.9 772.9 324.4 774.1 326.7 777.6 327.7L812.3 335.4 833.2 369 754.5 351.6C752.1 350.5 748.8 352.9 747.8 356.4 747.9 358.7 749.2 362.1 752.6 363.1L841.8 382.4 859 410.4 828.9 403.6C825.4 402.6 823.2 405 822.2 408.5 821.1 410.8 823.6 414.2 825.9 415.2L867.6 423.8 885.9 451.8 852.7 453.1 821.7 424.6C819.3 422.4 815.9 422.5 813.7 424.9 811.4 426.1 811.6 430.7 814 432.9L836.7 453.8 803.4 455.1 736.6 392.4C734.2 390.2 730.8 390.4 728.6 392.8 726.4 395.2 726.5 398.6 728.9 400.8L787.4 455.8 748.4 457.4 722.2 433.2C719.8 431 716.4 431.1 714.2 433.5 712 435.9 712.1 439.3 714.5 441.5L731.3 458.1 702.6 459.2C699.2 459.4 697 461.8 697.1 465.2 697.3 468.6 699.6 470.8 703.1 470.7L731.7 469.5 716.3 486.2C714.1 488.6 714.3 492 716.7 494.2S722.5 496.3 724.7 493.9L747.8 468.9 787.9 467.2 734 525.7C731.8 528.1 732 531.5 734.3 533.7 736.7 535.9 740.2 535.8 742.4 533.4L803.9 466.6 837.1 465.2 816.3 487.9C814.1 490.3 814.2 493.7 816.6 495.9 819 498.1 822.4 498 824.6 495.6L853.2 464.6 885.3 463.3 870.3 491.4 829.6 504.6C827.3 505.8 825.2 509.3 826.4 511.6 827.7 515 830 516 833.5 515.9L862.9 506.7 848 534.8 760.8 562.5C757.4 563.7 756.3 566.1 756.5 569.5 757.7 572.9 761.2 573.9 763.5 573.8L840.6 550 821.4 585.2 788.5 595.8C785.1 595.9 784.1 599.4 784.2 602.8 785.4 605.1 789 607.2 792.4 605.9L813.9 599.3 801.2 625.1C799 627.5 800.3 630.9 803.8 633 806.1 634.1 809.5 632.8 810.6 630.4L824.4 604.6 831.1 627.3C832.4 630.7 835.9 631.7 838.1 630.5 841.6 630.3 842.6 628 842.5 625.7 842.5 624.5 842.5 624.5 842.4 623.4L831.9 590.5 851.1 555.3 874.9 631.3C875 634.7 878.5 635.7 881.9 635.6 884.2 634.3 885.2 632 885.1 629.7 885.1 628.5 885.1 628.5 885.1 628.5L858.5 540.1 873.5 512 882.7 541.4C884 544.8 886.3 545.9 889.8 545.7 892 544.5 894.2 542.1 894.1 539.8 894.1 538.7 894.1 538.7 894 537.5L880.9 496.7 895.8 468.6 913 495.4 904.3 537.1C903.3 540.6 905.8 543.9 908.1 545 911.5 544.8 914.9 543.6 914.8 540.1L921.6 510 939.9 536.8 919.5 627.2C918.4 629.5 920.8 632.8 923.2 633.9 926.6 633.7 930 632.5 931 629L948.5 551.4 969.4 585 961.6 618.6C960.6 622 963 625.4 966.4 625.2 968.8 626.3 972.2 625 973.2 621.5L978 598.4 993.9 623C995.1 625.2 998.6 626.2 1002 624.9 1003.1 623.7 1004.2 621.4 1004.1 619.1 1004.1 619.1 1004 618 1004 616.8L988 592.2 1011.2 597C1013.5 598.1 1016.9 595.6 1017.9 593.3 1017.9 592.2 1017.9 592.2 1017.9 592.2 1017.7 588.7 1015.4 586.5 1013.1 586.6L979.5 578.8 957.4 545.3 1036.2 562.7C1039.6 562.6 1041.9 561.3 1042.9 557.9 1042.9 557.9 1042.8 556.7 1042.8 556.7 1042.7 554.4 1041.5 552.2 1038 551.2L948.8 530.7 931.7 503.9 961.8 510.7C965.2 510.5 968.6 509.2 968.5 505.8 969.6 505.8 969.6 504.6 969.6 504.6 969.5 502.3 967.1 500.1 964.7 499.1L923.1 490.4 905.9 462.4 938 461.1 969 489.7C971.3 491.9 975.9 491.7 978.1 489.3 979.2 487 979 483.6 977.8 481.3L954 460.5 987.2 459.1 1054 520.7C1056.4 522.9 1059.8 522.7 1062 520.4 1064.2 518 1064.1 514.5 1061.7 512.3L1003.3 458.5 1043.4 456.9 1068.4 479.9C1070.8 482.1 1074.2 482 1076.4 479.6S1078.5 473.8 1076.1 471.6L1059.4 456.2 1088 455C1091.5 454.9 1093.7 452.5 1093.5 449.1 1093.4 445.6 1091 443.4 1087.6 443.6L1058.9 444.7 1074.3 426.9C1075.4 425.7 1076.5 424.5 1076.4 423.4 1076.4 422.2 1075.1 420 1074 418.9 1071.6 416.7 1068.1 416.8 1065.9 419.2L1042.9 445.4 1002.8 447 1056.6 387.5C1057.7 386.3 1058.8 385.1 1058.8 383.9 1058.7 382.8 1057.5 380.5 1056.3 379.4 1053.9 377.2 1050.5 377.4 1048.3 379.8L986.8 447.7 953.5 449 975.6 426.3C976.7 425.1 976.6 422.8 976.5 421.7 976.5 420.6 976.4 419.4 975.2 418.3 972.9 416.1 968.3 416.3 967.2 418.6L937.5 449.7 905.4 451 920.3 421.7 961.1 409.7C963.4 408.5 965.6 406.1 965.5 403.8 965.4 402.6 965.4 402.6 964.3 402.7 964.1 399.3 960.6 397.1 957.2 398.4L927.7 407.6 942.6 378.3 1031.1 351.8C1033.3 350.5 1034.4 348.2 1034.3 345.9 1034.2 344.8 1034.2 344.8 1034.2 344.8 1032.9 341.4 1030.5 339.2 1027.2 340.5L950.1 364.2 969.3 329 1002.2 318.5C1005.6 317.2 1006.6 314.9 1006.5 312.6 1006.5 312.6 1006.5 311.5 1006.5 311.5 1005.2 308.1 1001.7 307.1 999.4 307.2L976.8 315 990.6 289.2C990.6 288 990.5 286.9 990.5 285.7 990.5 284.6 989.2 282.3 988 281.2 984.5 280.2 981.1 280.4 980.1 283.8L966.2 309.7 959.6 287C958.3 283.6 954.8 282.6 952.5 282.7 949.1 284 948.1 287.4 948.2 290.9L958.8 323.7 940.7 358.9 916.9 283C915.7 279.6 912.1 277.4 909.9 278.7 906.5 280 904.3 282.3 905.6 285.7Z" fill="rgba(136, 151, 167, 0.58)"></path><path d="M1127.3 2571.7L1126.3 2512.3 1163.4 2474.4 1177.7 2525.5 1148.2 2577.1C1148.2 2577.1 1148 2577.8 1148 2577.8 1147.6 2579.2 1148.7 2580.9 1149.9 2582 1151.8 2583.2 1154.2 2582.3 1154.7 2580.2L1180.4 2535 1187.4 2559.8 1176.3 2579.9C1176.3 2579.9 1176.1 2580.6 1176.1 2580.6 1175.8 2582 1176.8 2583.7 1178 2584.7 1179.9 2586 1182.3 2585.1 1182.9 2583L1190.8 2569.5 1195.7 2587.8C1196.1 2589.4 1198.7 2590.8 1200.2 2590.5 1202.5 2590.3 1203.2 2587.5 1202.9 2586L1197.9 2567.7 1211.4 2575.6C1213.3 2576.8 1215.8 2576 1216.3 2573.9 1217.5 2572 1216.7 2569.5 1214.6 2569L1194.5 2557.9 1188.2 2533.4 1233.4 2559C1235.4 2560.3 1237.8 2559.4 1238.3 2557.3 1239.6 2555.4 1238.7 2553 1236.6 2552.5L1185 2522.9 1170.7 2471.9 1222.8 2485.3 1253.2 2536.7C1254.3 2538.5 1256.3 2539 1258.1 2538 1259.8 2537 1260.4 2534.9 1259.3 2533.1L1232.5 2487.8 1257.5 2494.2 1268.9 2513.4C1269.9 2515.1 1272 2515.7 1273.7 2514.6 1275.5 2513.6 1276 2511.5 1275 2509.8L1267.2 2496.7 1286.7 2501.7C1288.6 2502.9 1290.5 2501.2 1291 2499.1 1291.6 2497 1290.5 2495.3 1288.4 2494.7L1270.4 2490.1 1283.5 2482.4C1285.2 2481.3 1285.8 2479.2 1284.7 2477.5S1281.6 2475.2 1279.9 2476.3L1260.7 2487.6 1235.7 2481.2 1281.1 2454.4C1282.8 2453.3 1283.3 2451.2 1282.3 2449.5 1281.3 2447.8 1279.2 2447.2 1277.5 2448.3L1226 2478.7 1174.6 2465.5 1211.7 2427.7 1269.6 2427C1271.9 2426.8 1273.1 2424.9 1273.6 2422.8 1273.5 2420.6 1271.6 2419.4 1269.5 2418.8L1217.5 2419.5 1235.5 2401.2 1258.5 2401.2C1260.7 2401 1262 2399.1 1262.5 2397 1262.3 2394.8 1260.4 2393.6 1259 2393.2L1243.4 2393.6 1256.5 2380C1257.6 2378.8 1258.3 2376 1256.4 2374.8 1254.5 2373.5 1252.4 2373 1251.2 2374.9L1238 2388.5 1237.6 2372.9C1237.5 2370.6 1235.6 2369.4 1234.2 2369.1 1232.6 2369.4 1230.9 2370.4 1230.5 2371.8 1230.5 2371.8 1230.3 2372.5 1230.3 2372.5L1230.3 2395.4 1212.3 2413.8 1211.6 2361.8C1211.5 2359.5 1209.6 2358.3 1208.2 2357.9 1206.6 2358.3 1204.9 2359.3 1204.5 2360.7 1204.5 2360.7 1204.3 2361.4 1204.3 2361.4L1205.3 2420.8 1168.2 2458.7 1154 2407.6 1183.5 2356C1184.7 2354.1 1183.9 2351.7 1181.8 2351.2 1179.9 2349.9 1177.4 2350.8 1176.9 2352.9L1151.2 2398.1 1144.3 2373.3 1155.4 2353.2C1156.6 2351.3 1155.7 2348.9 1153.6 2348.4 1151.7 2347.1 1149.3 2348 1148.8 2350.1L1140.9 2363.6 1135.9 2345.3C1135.6 2343.7 1133 2342.3 1131.4 2342.7 1129.9 2343 1128.8 2344.2 1128.5 2345.6 1128.3 2346.3 1128.1 2347 1128.6 2347.9L1133.5 2366.1 1120 2358.2C1118.1 2357 1115.7 2357.9 1115.2 2359.9 1115.2 2359.9 1115 2360.6 1115 2360.6 1114.6 2362 1115.7 2363.8 1116.9 2364.8L1137 2375.9 1143.9 2400.6 1098.7 2374.9C1096.8 2373.7 1094.4 2374.6 1093.8 2376.7 1093.8 2376.7 1093.7 2377.3 1093.7 2377.3 1093.3 2378.7 1094.3 2380.5 1095.5 2381.5L1147.2 2411.1 1161.4 2462.1 1110.1 2448.9 1079.6 2397.4C1078.6 2395.7 1076.5 2395.1 1074.8 2396.2 1073 2397.2 1072.5 2399.3 1073.5 2401L1099.6 2446.2 1074.7 2439.8 1063.3 2420.6C1062.3 2418.9 1060.2 2418.3 1058.5 2419.4S1056.2 2422.5 1057.2 2424.2L1064.9 2437.3 1046.9 2432.7C1044.8 2432.1 1043.1 2433.2 1042.5 2435.2 1042 2437.3 1043 2439.1 1045.1 2439.6L1063.2 2444.2 1050.1 2452C1049.2 2452.5 1048.3 2453 1048 2454.4S1048.1 2456.7 1048.6 2457.5C1049.7 2459.3 1051.8 2459.8 1053.5 2458.8L1072.7 2447.4 1097.7 2453.9 1052.3 2480.7C1051.4 2481.2 1050.6 2481.7 1050.2 2483.1 1050 2483.8 1050.4 2485.4 1050.9 2486.2 1051.9 2488 1054 2488.5 1055.7 2487.5L1107.2 2457 1158.6 2470.2 1121.5 2508.1 1062 2509.1C1060.5 2509.4 1058.7 2510.4 1058.4 2511.8 1058.4 2511.8 1058.2 2512.5 1058.2 2512.5 1058.4 2514.8 1060.3 2516 1061.6 2516.4L1113.6 2515.7 1095.6 2534 1072.7 2534C1071.1 2534.3 1069.3 2535.4 1069 2536.8 1069 2536.8 1068.8 2537.4 1068.8 2537.4 1069 2539.7 1070.9 2540.9 1072.3 2541.3L1087.9 2540.9 1074.8 2554.5C1074.6 2555.2 1073.7 2555.7 1073.6 2556.4 1073.2 2557.8 1073.5 2559.4 1074.7 2560.4 1076.6 2561.7 1078.7 2562.2 1080 2560.3L1093.1 2546.6 1093.5 2562.3C1093.7 2564.6 1095.6 2565.8 1097 2566.1 1099.2 2566 1100.4 2564.1 1100.8 2562.7L1100.8 2539.7 1118.8 2521.4 1119.5 2573.4C1119.7 2575.7 1121.6 2576.9 1123 2577.3 1125.6 2575.7 1127.5 2574 1127.3 2571.7Z" fill="rgba(136, 151, 167, 0.58)"></path><path d="M643.7 2549.2L681.9 2521.1 694.9 2522.7 705.6 2549.9 697.5 2560.5 650.2 2565.7C649.7 2565.9 649.7 2565.9 649.1 2566.1 648.1 2566.5 647.2 2567.5 647.3 2569.3 648 2570.9 648.9 2571.8 650.7 2571.7L692 2567 679.3 2583.1 661.1 2585.4C661.1 2585.4 660.6 2585.6 660.6 2585.6 659.5 2586.1 658.6 2587 658.7 2588.8 658.6 2590.1 660.3 2591.3 662.1 2591.2L674.1 2590.2 664.6 2601.9C663.7 2602.9 663.8 2604.7 665 2606.1S668.3 2606.6 669.7 2605.5L678.6 2593.9 680.2 2605.6C680.3 2607.4 682 2608.6 683.8 2608.5 684.9 2608.1 686.3 2606.9 686.2 2605.1L683.9 2586.9 697.1 2570.5 701.8 2611.9C701.9 2613.7 703.6 2614.9 704.9 2615 706.5 2614.3 707.8 2613.2 707.7 2611.4L702.1 2564.3 710.7 2553.5 738.9 2557.7 744 2570.5 725.5 2614.2C724.9 2615.7 725.5 2617.3 727 2617.9S730.1 2617.9 730.7 2616.4L746.9 2578 754.7 2597.7 747.7 2614.1C747 2615.6 747.6 2617.1 749.3 2618.3S752.4 2618.3 753.1 2616.9L757.7 2605.2 763.4 2619.6C764 2621.1 766.1 2621.6 767.7 2620.9 769.2 2620.3 769.9 2618.8 769.3 2617.2L763.6 2602.8 774.7 2607.7C776.4 2608.8 778 2608.2 778.5 2606.2 779.1 2604.7 778.5 2603.1 777 2602.5L760.6 2595.4 752.8 2575.6 791 2592.6C792.5 2593.3 794.6 2592.4 795.2 2590.9S795.2 2587.8 793.8 2587.2L749.9 2568.2 744.8 2555.4 763 2532.8 776.2 2535 804.2 2573.2C805.4 2574.6 807.2 2574.5 808.8 2573.8 810.2 2572.7 810.1 2570.9 809.5 2569.3L784.6 2535.9 804.9 2539 815.7 2553.8C816.9 2555.2 818.7 2555.1 820.3 2554.5 821.1 2553.5 821.6 2551.5 820.4 2550.1L813.5 2540.5 828.5 2542.6C829.8 2542.7 831.2 2541.5 831.8 2540.1 831.7 2538.2 830.6 2536.9 829.3 2536.7L814.3 2534.7 824.2 2527C825.1 2526.1 825.5 2524.1 824.5 2523.2 823.9 2521.6 822.6 2521.5 821 2522.1 821 2522.1 820.5 2522.3 820.5 2522.3L805.7 2533.1 785.3 2530.1 818.6 2505.2C820 2504 820.7 2502.5 819.5 2501.2 818.3 2499.8 817.1 2499.7 816 2500.1 815.5 2500.3 815.5 2500.3 815.5 2500.3L776.9 2529.1 763.7 2526.9 753 2499.7 761.3 2489.7 808.9 2483.8C810.2 2483.9 811.4 2482.2 811.5 2480.9 811.4 2479.1 809.7 2477.9 807.9 2478L766.6 2482.6 779.3 2466.5 797.5 2464.2C799.3 2464.1 800.7 2463 800.1 2461.4 800 2459.6 798.3 2458.4 797 2458.3L784.7 2460 794.3 2448.3C794.9 2446.8 794.8 2445 793.6 2443.6 792.9 2443.2 791.6 2443.1 790.6 2443.6 790 2443.8 790 2443.8 789.7 2444.5L780.2 2456.3 778.4 2444C778.3 2442.2 776.8 2441.6 775.6 2441.5 775 2441.7 775 2441.7 774.5 2441.9 773.4 2442.3 772.6 2443.3 772.5 2444.6L774.7 2462.8 762 2478.9 757.4 2437.6C756.7 2436 755.6 2434.6 754 2435.2 753.2 2434.9 753.2 2434.9 752.7 2435.1 751.6 2435.5 751 2437 750.9 2438.3L756.8 2485.9 748.4 2496 719.7 2491.9 714.8 2479.7 733.8 2435.8C734.5 2434.3 733.6 2432.2 732.2 2431.5S728.5 2431.7 727.9 2433.2L711.7 2471.7 704.1 2452.5 710.9 2435.6C711.6 2434.1 711 2432.5 709.5 2431.9 708 2431.2 706.4 2431.9 705.7 2433.3L700.9 2444.5 695.2 2430.1C694.8 2429 693.1 2427.9 691.5 2428.5 689.9 2429.1 688.9 2431.4 689.3 2432.4L695 2446.8 683.9 2442C683.1 2441.7 682.4 2441.3 681.9 2441.6 680.8 2442 680.5 2442.7 680.2 2443.5 679.5 2445 680.1 2446.6 681.6 2447.2L698.2 2454.8 705.8 2474 667.6 2457C666.9 2456.7 666.4 2456.9 665.3 2457.4 664.8 2457.6 664.2 2457.8 663.9 2458.5 663.3 2460 664.1 2462.1 665.6 2462.8L709 2482 713.8 2494.3 696.2 2516.7 682.7 2515.2 654.4 2476.5C653.4 2475.6 651.9 2475 650.9 2475.4 650.3 2475.6 650.3 2475.6 650.5 2476.1 648.9 2476.8 648.5 2478.8 649.7 2480.2L674.6 2513.5 653.7 2510.7 642.9 2495.8C642 2495 640.7 2494.9 639.6 2495.3 639.6 2495.3 639.1 2495.5 639.1 2495.5 637.5 2496.1 637 2498.1 638.2 2499.5L645.8 2509.5 630.8 2507.4C630.1 2507.1 629.6 2507.3 629 2507.5 628 2507.9 627.1 2508.9 627.3 2509.4 626.9 2511.4 628 2512.8 629.5 2513.4L644.5 2515.5 634.9 2522.4C633.5 2523.6 633.1 2525.6 634.3 2527 635.2 2527.8 637.3 2528.3 638.1 2527.3L652.9 2516.5 673.3 2519.6 640 2544.5C638.6 2545.6 638.7 2547.4 639.3 2549 640.3 2549.9 642.3 2550.3 643.7 2549.2ZM710.2 2544.4L702 2523.6 700.7 2520.4 702.8 2517.8 716.4 2500.7 718.9 2497.8 722.2 2498.3 743.8 2501.5 747.1 2502.1 748.4 2505.3 756.6 2526 757.9 2529.2 755.8 2531.9 742.3 2549 740.2 2551.6 736.4 2551.3 714.8 2548.1 711.5 2547.6 710.2 2544.4Z" fill="rgba(136, 151, 167, 0.58)"></path><path d="M1314.3 941.8L1311.1 1036.6 1292.4 1054.9 1236.4 1038.1 1229.8 1012.2 1280.3 931.6C1280.6 930.5 1280.6 930.5 1281 929.4 1281.6 927.2 1281.2 924.7 1278.2 922.6 1274.9 921.6 1272.4 922 1270.3 925L1226.4 995.6 1216.8 955.7 1235.8 924.2C1235.8 924.2 1236.1 923.1 1236.1 923.1 1236.8 920.9 1236.4 918.4 1233.4 916.3 1231.5 914.6 1227.6 915.8 1225.5 918.7L1212.3 938.7 1205.6 909.2C1205.2 906.7 1202.2 904.6 1198.6 904.7S1193.6 909.2 1193.8 912.8L1200.8 941.3 1180.5 929.2C1177.5 927.1 1173.5 928.3 1171.5 931.3 1170.8 933.5 1170.9 937.1 1173.9 939.2L1205.3 958.2 1214.5 999.3 1143.9 955.3C1140.9 953.2 1137 954.4 1135.2 956.3 1134.2 959.6 1134.3 963.2 1137.3 965.3L1218.2 1014.7 1224.5 1041.8 1182.9 1080.7 1156.5 1072.8 1110.8 989.7C1109.3 986.8 1106 985.9 1103.1 987.4S1099.3 992.2 1100.8 995.1L1141.1 1068.2 1100.5 1056 1083.6 1024.6C1082.1 1021.8 1078.8 1020.8 1074.8 1022S1071 1026.8 1072.5 1029.7L1085.1 1051.4 1055.5 1042.5C1052.2 1041.5 1049 1044.2 1048 1047.5 1047 1050.8 1048.6 1053.6 1051.8 1054.6L1081.5 1063.5 1060.1 1075C1056.1 1076.2 1055.1 1079.5 1057.8 1082.7 1059.3 1085.6 1062.6 1086.6 1065.5 1085L1096.9 1068.1 1137.5 1080.3 1063.6 1119.2C1060.7 1120.7 1059.4 1125.1 1061 1128S1065.8 1131.8 1068.7 1130.3L1152.9 1084.9 1179.3 1092.8 1192.2 1149.4 1172.4 1167.4 1077.7 1164.1C1074 1164.2 1071.9 1167.2 1071 1170.5 1071.1 1174.1 1074 1176.2 1077.3 1177.2L1160.5 1179.4 1130.5 1207.5 1093.8 1206.1C1090.2 1206.2 1088.1 1209.1 1087.1 1212.4 1087.5 1215 1090.2 1218.1 1093.8 1218L1117.4 1219.1 1095.6 1240.1C1093.8 1242 1093.9 1245.6 1095.5 1248.5 1098.4 1250.5 1102 1250.4 1103.8 1248.6L1125.7 1227.6 1125.3 1252.6C1125.8 1255.2 1128.4 1258.3 1130.9 1257.9 1134.2 1258.9 1136 1257 1137 1253.7 1137 1253.7 1137.3 1252.6 1137.3 1252.6L1138.7 1215.9 1168.7 1187.8 1166.5 1271C1166.6 1274.6 1168.2 1277.5 1171.8 1277.3 1175.4 1277.2 1177.2 1275.4 1177.8 1273.2 1178.2 1272.1 1178.2 1272.1 1178.2 1272.1L1180.7 1175.9 1200.4 1157.8 1256.5 1174.7 1262 1200.2 1212.2 1282.3C1210.4 1284.2 1211.7 1288.1 1213.5 1289.9 1216.5 1292 1220.4 1290.7 1222.5 1287.8L1266.5 1217.2 1276 1257.1 1257 1288.5C1254.9 1291.5 1255 1295.1 1258.3 1296.1 1261.3 1298.2 1265.2 1297 1267 1295.1L1279.4 1273.7 1286.1 1303.3C1287.7 1306.1 1290.6 1308.2 1294.2 1308.1 1295.7 1307.3 1297.4 1305.5 1298.1 1303.3 1298.4 1302.2 1298.4 1302.2 1297.6 1300.7L1290.9 1271.2 1312.4 1283.6C1315.3 1285.7 1318.2 1284.2 1319.9 1282.3 1320.3 1281.2 1320.3 1281.2 1320.6 1280.1 1321.3 1277.9 1320.8 1275.4 1319 1273.6L1287.5 1254.6 1278 1214.6 1348.6 1258.6C1351.9 1259.6 1355.5 1259.4 1356.5 1256.2 1357.9 1255.4 1357.9 1255.4 1358.3 1254.3 1358.9 1252.1 1357.4 1249.2 1355.5 1247.5L1273.5 1197.7 1268 1172.1 1310 1132 1335.2 1139.6 1380.6 1223.9C1382.1 1226.7 1386.5 1228 1389.4 1226.5S1393.5 1220.6 1392 1217.7L1351.7 1144.6 1391.2 1156.4 1409.2 1188.2C1410.8 1191 1414.1 1192 1416.9 1190.5 1419.8 1188.9 1420.8 1185.6 1419.2 1182.8L1407.7 1161.4 1437.4 1170.3C1439.6 1170.9 1443.5 1169.7 1444.5 1166.4 1445.5 1163.1 1443.2 1158.8 1441 1158.2L1411.3 1149.3 1432.7 1137.8C1434.2 1137 1435.6 1136.2 1435.9 1135.1 1436.6 1132.9 1435.8 1131.5 1435 1130.1 1433.5 1127.2 1430.2 1126.2 1427.4 1127.8L1394.9 1144.3 1355.3 1132.5 1429.2 1093.6C1430.7 1092.8 1431 1091.7 1431.6 1089.5 1432 1088.4 1432.3 1087.3 1431.5 1085.9 1430 1083.1 1425.6 1081.7 1422.7 1083.3L1338.8 1127.5 1313.6 1120 1300.3 1064.5 1319.3 1045.1 1415.2 1048.7C1417.7 1048.2 1420.6 1046.7 1421.2 1044.5 1421.5 1043.4 1421.5 1043.4 1420.4 1043.1 1421.4 1039.8 1418.8 1036.6 1415.2 1036.7L1332 1034.5 1362.3 1005.3 1399 1006.7C1401.6 1006.3 1403.3 1004.4 1404 1002.2 1404 1002.2 1404.3 1001.1 1404.3 1001.1 1405.3 997.8 1402.7 994.6 1399 994.8L1374 994.4 1395.8 973.4C1397.3 972.7 1397.6 971.6 1397.9 970.5 1398.6 968.3 1398.1 965.8 1397 965.4 1394.4 962.2 1390.8 962.4 1387.9 963.9L1366.1 984.9 1367.2 961.3C1367.1 957.6 1364.4 954.4 1360.8 954.6 1358.3 955 1355.1 957.6 1355.5 960.2L1354.1 996.8 1324.1 1025 1326.3 941.8C1326.2 938.2 1323.2 936.1 1319.9 935.1 1317.4 935.6 1314.2 938.2 1314.3 941.8ZM1239.3 1052.2L1282.2 1065 1288.8 1067 1290.4 1073.5 1300.4 1116 1301.7 1123.6 1296.8 1128.1 1265 1158.1 1260.1 1162.6 1253.5 1160.6 1210.7 1147.7 1204.1 1145.8 1202.4 1139.3 1192.4 1096.8 1190.8 1090.3 1196.1 1084.7 1227.8 1054.7 1232.7 1050.2 1239.3 1052.2Z" fill="rgba(136, 151, 167, 0.58)"></path></g><defs><mask id="SvgjsMask1042"><rect width="1440" height="2580" fill="#ffffff"></rect></mask><filter id="SvgjsFilter1043"><feGaussianBlur stdDeviation="1"></feGaussianBlur></filter></defs></svg>