<svg xmlns="http://www.w3.org/2000/svg" version="1.1" xmlns:xlink="http://www.w3.org/1999/xlink" xmlns:svgjs="http://svgjs.com/svgjs" width="512" height="512"><svg width="512" height="512" viewBox="0 0 512 512" style="color:currentColor" xmlns="http://www.w3.org/2000/svg" class="h-full w-full"><rect width="512" height="512" x="0" y="0" rx="0" fill="transparent" stroke="transparent" stroke-width="0" stroke-opacity="0%" paint-order="stroke"></rect><svg width="512px" height="512px" viewBox="0 0 32 32" fill="currentColor" x="0" y="0" role="img" style="display:inline-block;vertical-align:middle" xmlns="http://www.w3.org/2000/svg"><g fill="currentColor"><path fill="#e44f26" d="m10.04 18.875l-7.991-4.116v-1.531l7.991-4.117v2.381l-4.988 2.501l4.988 2.5v2.382zm7.273.195H15.03l4.543-11.803h2.299L17.313 19.07zm4.647-.198v-2.38l5.023-2.499l-5.023-2.499V9.113l7.991 4.099v1.562l-7.991 4.098z"></path><path fill="#c1272d" d="m12.633 24.733l-1.666-1.665L9.3 24.732l-1.678-1.666l-1.675 1.665l-1.673-1.665L3.2 24.134L2 23.347l2.274-2.265l1.673 1.667l1.675-1.665l1.675 1.665l1.67-1.668l1.669 1.666l1.667-1.663l1.679 1.666l1.674-1.668l1.675 1.668l1.68-1.665l1.675 1.665l1.68-1.666l1.673 1.666l1.679-1.664L30 23.344l-1.198.792l-1.084-1.073l-1.683 1.667l-1.671-1.664l-1.679 1.664l-1.676-1.666l-1.681 1.666l-1.672-1.664l-1.673 1.664l-1.677-1.664l-1.673 1.667z"></path></g></svg></svg><style>@media (prefers-color-scheme: light) { :root { filter: none; } }
@media (prefers-color-scheme: dark) { :root { filter: invert(100%); } }
</style></svg>