<svg xmlns="http://www.w3.org/2000/svg" version="1.1" xmlns:xlink="http://www.w3.org/1999/xlink" xmlns:svgjs="http://svgjs.dev/svgjs" width="1440" height="2580" preserveAspectRatio="none" viewBox="0 0 1440 2580"><g mask="url(&quot;#SvgjsMask1026&quot;)" fill="none"><rect width="1440" height="2580" x="0" y="0" fill="#0e2a47"></rect><path d="M1367.36 831.17a128.83 128.83 0 1 0-112.16-231.97z" stroke="rgba(231, 106, 53, 0.26)"></path><path d="M597.23 1077.89L666.68 1077.89L666.68 1095.49L597.23 1095.49z" stroke="rgba(211, 183, 20, 0.24)"></path><path d="M298.7 212.71 a112.01 112.01 0 1 0 224.02 0 a112.01 112.01 0 1 0 -224.02 0z" stroke="rgba(3, 123, 11, 0.27)"></path><path d="M88.45 1495.04 a119.34 119.34 0 1 0 238.68 0 a119.34 119.34 0 1 0 -238.68 0z" fill="rgba(3, 123, 11, 0.27)"></path><path d="M331.93 2126.91L379.79 2126.91L379.79 2174.77L331.93 2174.77z" stroke="rgba(3, 123, 11, 0.27)"></path><path d="M1437.62 422.69L1570.75 422.69L1570.75 452.04L1437.62 452.04z" fill="rgba(231, 106, 53, 0.26)"></path><path d="M167.89 660.2 a106.17 106.17 0 1 0 212.34 0 a106.17 106.17 0 1 0 -212.34 0z" stroke="rgba(211, 183, 20, 0.24)"></path><path d="M1235.32 2081.67 a143.6 143.6 0 1 0 287.2 0 a143.6 143.6 0 1 0 -287.2 0z" fill="rgba(231, 106, 53, 0.26)"></path><path d="M555.77 2028.29L642.55 2028.29L642.55 2164.5L555.77 2164.5z" fill="rgba(231, 106, 53, 0.26)"></path><path d="M622.25 1316.2L717.3 1316.2L717.3 1411.25L622.25 1411.25z" fill="rgba(3, 123, 11, 0.27)"></path><path d="M272.15 1698.13L286.02 1698.13L286.02 1712L272.15 1712z" stroke="rgba(211, 183, 20, 0.24)"></path><path d="M1201.41 1606.64a9.06 9.06 0 1 0-1.89 18.02z" stroke="rgba(211, 183, 20, 0.24)"></path><path d="M1189.15 1906.85L1283.32 1906.85L1283.32 2001.02L1189.15 2001.02z" fill="rgba(211, 183, 20, 0.24)"></path><path d="M56.2 2055.17 a136.65 136.65 0 1 0 273.3 0 a136.65 136.65 0 1 0 -273.3 0z" fill="rgba(3, 123, 11, 0.27)"></path><path d="M79.48 572.81L160.72 572.81L160.72 654.05L79.48 654.05z" fill="rgba(231, 106, 53, 0.26)"></path><path d="M57.65 259.64a54.36 54.36 0 1 0-91.74-58.34z" fill="rgba(231, 106, 53, 0.26)"></path><path d="M1092.38 1921.6 a136.1 136.1 0 1 0 272.2 0 a136.1 136.1 0 1 0 -272.2 0z" fill="rgba(3, 123, 11, 0.27)"></path><path d="M101.21 1606.33L110.79 1606.33L110.79 1615.91L101.21 1615.91z" stroke="rgba(231, 106, 53, 0.26)"></path><path d="M18.37 612.09L53.65 612.09L53.65 646.41L18.37 646.41z" stroke="rgba(211, 183, 20, 0.24)"></path><path d="M1074.45 2002.19a61.62 61.62 0 1 0-21.9-121.28z" stroke="rgba(231, 106, 53, 0.26)"></path><path d="M713.61 154.94L843.37 154.94L843.37 284.7L713.61 284.7z" fill="rgba(231, 106, 53, 0.26)"></path><path d="M342.46 2322.26a38.02 38.02 0 1 0-13.9 74.76z" fill="rgba(231, 106, 53, 0.26)"></path><path d="M449.88 850.41L565.5 850.41L565.5 871.64L449.88 871.64z" fill="rgba(231, 106, 53, 0.26)"></path></g><defs><mask id="SvgjsMask1026"><rect width="1440" height="2580" fill="#ffffff"></rect></mask></defs></svg>