<?xml version="1.0" encoding="UTF-8"?>
<svg xmlns="http://www.w3.org/2000/svg" xmlns:xlink="http://www.w3.org/1999/xlink" width="20px" height="20px" viewBox="0 0 20 20" version="1.1">
<g id="surface1">
<path style=" stroke:none;fill-rule:nonzero;fill:rgb(13.333333%,13.333333%,13.333333%);fill-opacity:1;" d="M 9.609375 0.0078125 C 9.347656 0.0273438 8.976562 0.0664062 8.738281 0.101562 L 8.46875 0.140625 L 8.382812 0.230469 C 8.339844 0.28125 8.238281 0.390625 8.164062 0.472656 L 8.023438 0.625 L 8 0.878906 C 7.945312 1.585938 7.84375 2.046875 7.660156 2.410156 C 7.582031 2.5625 7.550781 2.605469 7.429688 2.726562 C 7.207031 2.953125 6.984375 3.046875 6.679688 3.046875 C 6.21875 3.046875 5.75 2.796875 4.976562 2.132812 L 4.769531 1.957031 L 4.441406 1.945312 L 4.109375 1.933594 L 3.980469 2.03125 C 3.226562 2.601562 2.566406 3.257812 2.015625 3.96875 L 1.902344 4.117188 L 1.914062 4.328125 C 1.917969 4.445312 1.925781 4.59375 1.929688 4.660156 L 1.941406 4.78125 L 2.09375 4.957031 C 2.59375 5.535156 2.875 5.960938 2.992188 6.328125 C 3.054688 6.519531 3.0625 6.773438 3.015625 6.945312 C 2.960938 7.144531 2.886719 7.269531 2.734375 7.421875 C 2.660156 7.496094 2.5625 7.578125 2.511719 7.605469 C 2.285156 7.742188 1.96875 7.84375 1.585938 7.914062 C 1.367188 7.953125 0.804688 8.015625 0.675781 8.015625 C 0.609375 8.015625 0.597656 8.023438 0.359375 8.242188 L 0.113281 8.46875 L 0.09375 8.589844 C -0.03125 9.460938 -0.0273438 10.558594 0.101562 11.488281 C 0.113281 11.558594 0.121094 11.570312 0.355469 11.78125 C 0.535156 11.945312 0.609375 12 0.644531 12.007812 C 0.671875 12.007812 0.839844 12.023438 1.015625 12.039062 C 1.691406 12.089844 2.085938 12.175781 2.429688 12.34375 C 2.6875 12.46875 2.859375 12.640625 2.960938 12.867188 C 3.078125 13.128906 3.078125 13.453125 2.960938 13.761719 C 2.824219 14.121094 2.519531 14.574219 2.066406 15.097656 L 1.9375 15.25 L 1.921875 15.578125 L 1.90625 15.910156 L 2.015625 16.054688 C 2.492188 16.683594 3.15625 17.332031 3.910156 17.910156 L 4.109375 18.0625 L 4.4375 18.054688 L 4.769531 18.042969 L 4.953125 17.886719 C 5.519531 17.402344 5.945312 17.132812 6.320312 17.023438 C 6.441406 16.984375 6.492188 16.980469 6.664062 16.976562 C 6.851562 16.976562 6.878906 16.980469 7.003906 17.027344 C 7.46875 17.1875 7.726562 17.554688 7.882812 18.25 C 7.941406 18.527344 8.015625 19.121094 8.015625 19.332031 C 8.015625 19.390625 8.03125 19.410156 8.242188 19.640625 L 8.46875 19.882812 L 8.589844 19.902344 C 8.964844 19.960938 9.554688 20 9.992188 20 C 10.4375 20 11.070312 19.953125 11.398438 19.902344 L 11.507812 19.882812 L 11.726562 19.640625 L 11.949219 19.398438 L 11.960938 19.257812 C 12.054688 17.964844 12.296875 17.359375 12.8125 17.09375 C 13.003906 17 13.089844 16.976562 13.3125 16.976562 C 13.476562 16.980469 13.53125 16.984375 13.648438 17.023438 C 14.027344 17.132812 14.484375 17.425781 15.070312 17.925781 L 15.210938 18.046875 L 15.320312 18.046875 C 15.378906 18.046875 15.527344 18.050781 15.648438 18.054688 L 15.867188 18.066406 L 16.101562 17.882812 C 16.816406 17.328125 17.453125 16.703125 17.929688 16.085938 L 18.066406 15.914062 L 18.054688 15.59375 C 18.042969 15.21875 18.074219 15.296875 17.765625 14.929688 C 16.976562 13.992188 16.761719 13.371094 17.035156 12.824219 C 17.128906 12.636719 17.296875 12.472656 17.507812 12.363281 C 17.679688 12.277344 17.789062 12.238281 18.003906 12.179688 C 18.28125 12.109375 18.75 12.046875 19.171875 12.023438 C 19.269531 12.015625 19.371094 12.003906 19.394531 11.992188 C 19.414062 11.980469 19.535156 11.878906 19.660156 11.765625 C 19.914062 11.53125 19.882812 11.59375 19.929688 11.234375 C 19.976562 10.835938 19.992188 10.585938 19.992188 10.015625 C 19.992188 9.421875 19.980469 9.203125 19.921875 8.730469 C 19.90625 8.59375 19.890625 8.480469 19.890625 8.476562 C 19.890625 8.476562 19.777344 8.367188 19.640625 8.242188 C 19.398438 8.019531 19.390625 8.015625 19.320312 8.015625 C 19.203125 8.015625 18.648438 7.957031 18.445312 7.921875 C 18.070312 7.859375 17.84375 7.789062 17.585938 7.664062 C 17.234375 7.492188 17.039062 7.261719 16.953125 6.925781 C 16.828125 6.433594 17.074219 5.902344 17.851562 4.992188 L 18.039062 4.773438 L 18.050781 4.554688 C 18.054688 4.433594 18.0625 4.28125 18.0625 4.21875 L 18.0625 4.101562 L 17.921875 3.921875 C 17.386719 3.238281 16.726562 2.59375 16.011719 2.046875 L 15.859375 1.933594 L 15.203125 1.957031 L 15.003906 2.128906 C 14.378906 2.664062 13.941406 2.933594 13.554688 3.023438 C 13.421875 3.054688 13.164062 3.054688 13.039062 3.023438 C 12.882812 2.984375 12.699219 2.882812 12.578125 2.769531 C 12.21875 2.4375 12.046875 1.878906 11.960938 0.761719 L 11.949219 0.625 L 11.734375 0.386719 C 11.601562 0.246094 11.5 0.144531 11.476562 0.136719 C 11.429688 0.125 10.894531 0.0546875 10.664062 0.03125 C 10.5 0.015625 9.757812 0 9.609375 0.0078125 Z M 10.519531 7.484375 C 10.867188 7.558594 11.203125 7.703125 11.484375 7.902344 C 11.675781 8.039062 11.960938 8.324219 12.097656 8.515625 C 12.292969 8.792969 12.441406 9.132812 12.519531 9.488281 C 12.546875 9.628906 12.554688 9.695312 12.554688 10 C 12.554688 10.304688 12.546875 10.371094 12.519531 10.511719 C 12.441406 10.863281 12.292969 11.210938 12.097656 11.484375 C 11.964844 11.671875 11.675781 11.960938 11.492188 12.089844 C 11.144531 12.335938 10.738281 12.492188 10.320312 12.546875 C 10.117188 12.574219 9.671875 12.558594 9.480469 12.515625 C 8.566406 12.320312 7.828125 11.671875 7.539062 10.8125 C 7.4375 10.507812 7.414062 10.359375 7.414062 10.007812 C 7.414062 9.738281 7.417969 9.671875 7.453125 9.515625 C 7.675781 8.4375 8.515625 7.640625 9.609375 7.460938 C 9.8125 7.429688 10.320312 7.441406 10.519531 7.484375 Z M 10.519531 7.484375 "/>
</g>
</svg>
